<?xml version="1.0" encoding="UTF-8" standalone="no"?><!DOCTYPE svg PUBLIC "-//W3C//DTD SVG 1.1//EN" "http://www.w3.org/Graphics/SVG/1.1/DTD/svg11.dtd"><svg width="100%" height="100%" viewBox="0 0 323 258" version="1.1" xmlns="http://www.w3.org/2000/svg" xmlns:xlink="http://www.w3.org/1999/xlink" xml:space="preserve" xmlns:serif="http://www.serif.com/" style="fill-rule:evenodd;clip-rule:evenodd;stroke-linejoin:round;stroke-miterlimit:1.41421;"><g id="Grass_Ramp_LeftUp_low-angle2"><g id="Grass_Ramp_LeftUp_low-angle1"><path d="M107.397,106.89l107.331,150.97l-214.662,-108.037l0,-96.598l107.331,53.665Z" style="fill:#685632;"/><clipPath id="_clip1"><path d="M107.397,106.89l107.331,150.97l-214.662,-108.037l0,-96.598l107.331,53.665Z"/></clipPath><g clip-path="url(#_clip1)"><path d="M89.927,173.287l11.734,-4.08l-0.235,-16.22l-6.989,-11.582l-11.749,-1.319l-5.987,4.725l-1.504,10.627l14.73,17.849" style="fill:#816b40;"/><path d="M85.605,189.635l17.273,-3.671l-1.819,-6.447l-9.043,-3.99l-7.195,0.974l-8.011,3.609l-0.029,5.632l8.824,3.893Z" style="fill:#816b40;"/><path d="M48.664,165.308l4.777,5.836l11.199,0.057l2.666,-4.497l2.28,-7.998l-9.769,-12.374l-3.564,4.939l-5.674,0.498l-3.859,9.848l1.944,3.691" style="fill:#816b40;"/><path d="M73.753,139.44l-6.21,-6.587l4.115,-12.273l9.073,-1.736l7.964,-0.801l2.763,4.188l3.721,-1.192l5.457,1.532l1.352,4.444l-6.164,3.963l-4.606,2.727l-8.414,4.037l-9.051,1.698Z" style="fill:#816b40;"/><path d="M34.603,150.385l-4.294,-4.586l-1.862,-10.647l2.871,-9.418l12.278,-2.445l3.22,7.815l-0.16,7.685l-4.698,7.216l-7.355,4.38Z" style="fill:#816b40;"/><path d="M15.53,104.457l-7.494,-11.309l2.215,-5.783l10.317,-18.523c0,0 7.679,6.584 10.234,6.868c2.555,0.284 7.574,5.082 7.574,5.082l-3.96,8.979l-9.329,5.376l-9.557,9.31Z" style="fill:#816b40;"/><path d="M60.819,118.499l-10.819,-2.741l-10.011,-8.444l2.663,-7.435l5.35,-5.277l7.762,2.587l4.722,5.79l3.252,6.875l-2.919,8.645" style="fill:#816b40;"/><path d="M4.055,124.414l8.582,-9.593l7.678,8.655l1.217,22.864l-12.833,4.344l-4.295,-9.13l-0.349,-17.14" style="fill:#816b40;"/><path d="M81.615,190.078l17.273,-3.67l-1.819,-6.448l-9.043,-3.989l-7.195,0.973l-8.011,3.609l-0.029,5.633l8.824,3.892Zm4.322,-16.347l-14.73,-17.849l1.504,-10.627l5.987,-4.726l11.749,1.32l6.989,11.581l0.235,16.221l-11.734,4.08Zm-41.263,-7.98l-1.944,-3.691l3.859,-9.847l5.674,-0.498l3.564,-4.94l9.769,12.374l-2.28,7.998l-2.666,4.498l-11.199,-0.057l-4.777,-5.837Zm-44.608,-40.894l8.581,-9.592l7.678,8.654l1.217,22.864l-12.833,4.344l-4.295,-9.129l-0.348,-17.141Zm30.547,25.971l-4.294,-4.585l-1.862,-10.648l2.871,-9.417l12.278,-2.446l3.22,7.815l-0.16,7.685l-4.698,7.217l-7.355,4.379Zm39.15,-10.944l-6.21,-6.587l4.115,-12.274l9.073,-1.735l7.964,-0.802l2.763,4.188l3.721,-1.192l5.457,1.533l1.352,4.444l-6.164,3.963l-4.606,2.727l-8.414,4.037l-9.051,1.698Zm-12.934,-20.941l-10.819,-2.742l-10.011,-8.443l2.663,-7.436l5.35,-5.277l7.762,2.587l4.722,5.79l3.252,6.875l-2.919,8.646Zm-45.289,-14.043l-7.494,-11.309l2.215,-5.782l10.317,-18.523c0,0 7.679,6.583 10.234,6.868c2.555,0.284 7.574,5.082 7.574,5.082l-3.96,8.979l-9.329,5.375l-9.557,9.31Z" style="fill:#311807;fill-opacity:0.5;"/><path d="M192.892,227.453l11.734,-4.08l-0.235,-16.22l-6.989,-11.582l-11.749,-1.32l-5.987,4.726l-1.503,10.627l14.729,17.849" style="fill:#816b40;"/><path d="M188.57,243.801l17.273,-3.671l-1.819,-6.447l-9.043,-3.99l-7.195,0.973l-8.01,3.61l-0.029,5.632l8.823,3.893Z" style="fill:#816b40;"/><path d="M151.629,219.473l4.778,5.837l11.198,0.057l2.666,-4.498l2.28,-7.997l-9.769,-12.374l-3.564,4.939l-5.674,0.498l-3.859,9.848l1.944,3.69" style="fill:#816b40;"/><path d="M176.719,193.606l-6.211,-6.587l4.115,-12.273l9.073,-1.736l7.964,-0.801l2.763,4.187l3.721,-1.191l5.457,1.532l1.352,4.444l-6.164,3.963l-4.606,2.727l-8.414,4.037l-9.05,1.698Z" style="fill:#816b40;"/><path d="M137.568,204.551l-4.294,-4.586l-1.862,-10.647l2.871,-9.418l12.278,-2.445l3.22,7.814l-0.16,7.686l-4.698,7.216l-7.355,4.38Z" style="fill:#816b40;"/><path d="M118.495,158.623l-7.494,-11.31l2.215,-5.782l10.317,-18.523c0,0 7.679,6.584 10.234,6.868c2.556,0.284 7.574,5.082 7.574,5.082l-3.96,8.979l-9.329,5.376l-9.557,9.31Z" style="fill:#816b40;"/><path d="M163.784,172.665l-10.819,-2.741l-10.011,-8.444l2.663,-7.435l5.35,-5.277l7.762,2.587l4.722,5.789l3.252,6.875l-2.919,8.646" style="fill:#816b40;"/><path d="M107.021,178.58l8.581,-9.593l7.678,8.654l1.217,22.864l-12.832,4.345l-4.296,-9.13l-0.348,-17.14" style="fill:#816b40;"/><path d="M184.58,244.244l17.273,-3.67l-1.819,-6.448l-9.042,-3.989l-7.196,0.973l-8.01,3.609l-0.029,5.633l8.823,3.892Zm4.322,-16.347l-14.729,-17.849l1.503,-10.628l5.987,-4.725l11.749,1.32l6.989,11.581l0.235,16.221l-11.734,4.08Zm-41.263,-7.98l-1.944,-3.691l3.859,-9.847l5.674,-0.498l3.564,-4.94l9.77,12.374l-2.281,7.998l-2.666,4.498l-11.198,-0.058l-4.778,-5.836Zm-44.608,-40.894l8.581,-9.593l7.678,8.655l1.217,22.864l-12.832,4.344l-4.296,-9.129l-0.348,-17.141Zm30.547,25.971l-4.294,-4.586l-1.862,-10.647l2.871,-9.418l12.278,-2.445l3.22,7.815l-0.16,7.685l-4.698,7.216l-7.355,4.38Zm39.151,-10.945l-6.211,-6.586l4.115,-12.274l9.073,-1.735l7.964,-0.802l2.763,4.188l3.721,-1.192l5.457,1.532l1.352,4.445l-6.164,3.962l-4.606,2.728l-8.414,4.037l-9.05,1.697Zm-12.935,-20.94l-10.819,-2.742l-10.011,-8.443l2.663,-7.436l5.35,-5.277l7.762,2.587l4.722,5.79l3.252,6.875l-2.919,8.646Zm-45.289,-14.043l-7.494,-11.309l2.215,-5.782l10.317,-18.523c0,0 7.679,6.583 10.234,6.867c2.556,0.285 7.574,5.082 7.574,5.082l-3.96,8.98l-9.329,5.375l-9.557,9.31Z" style="fill:#311807;fill-opacity:0.5;"/></g><path d="M0.066,53.225l5.366,16.472l5.367,-3.528l2.029,11.413l10.187,2.204l3.883,14.159l5.367,-6.149l1.521,9.592l9.212,-1.723l3.224,13.308l6.47,-4.296l2.074,9.835l11.476,-0.895l4.059,12.292l5.877,-0.453l3.024,8.898l6.729,-1.259l2.86,15.768l5.919,-6.584l-0.119,6.743l3.361,-3.451l1.61,6.171l7.835,1.097l-1.098,10.164l7.937,-4.159l-1.473,10.232l5.367,-1.155l-1.699,6.276l11.281,-0.066l1.151,9.453l7.198,-1.297l0.961,5.78l5.367,-2.725l1.791,8.447l6.149,-1.994l2.062,7.828l5.668,0.471l0.529,3.905l5.048,-1.327l2.793,9.337l6.366,-3.183l-2.404,5.164l6.771,-0.445l2.5,7.947l8.233,0.779l0,7.291l5.367,-0.827l2.066,6.39l4.597,-1.002l-1.297,8.675l8.197,0.142l-0.057,5.338l7.96,9.582l107.802,-54.136l-5.837,-5.612l-7.062,-8.609l-7.278,-4.186l-4.729,-6.706l-7.764,-7.931l-6.048,-4.264l-5.678,-6.917l-9.74,-6.344l-3.098,-5.928l-6.698,-4.036l-8.009,-6.119l-5.015,-7.568l-10.543,-6.625l-5.107,-7.017l-8.591,-5.198l-7.46,-10.77l-9.878,-6.783l-5.668,-6.987l-6.958,-4.006l-4.454,-5.477l-7.165,-3.529l-5.71,-7.561l-3.548,-1.774l-1.527,-4.501l-5.016,-3.187l-4.581,-5.871l-5.908,-4.242l-1.872,-4.105l-6.625,-6.959l-7.561,-4.976l-3.172,-5.757l-6.722,-3.361l-6.177,-8.455l-8.568,-5.236l-5.366,-7.097l-107.331,53.195Z" style="fill:#b4e164;"/><clipPath id="_clip2"><path d="M0.066,53.225l5.366,16.472l5.367,-3.528l2.029,11.413l10.187,2.204l3.883,14.159l5.367,-6.149l1.521,9.592l9.212,-1.723l3.224,13.308l6.47,-4.296l2.074,9.835l11.476,-0.895l4.059,12.292l5.877,-0.453l3.024,8.898l6.729,-1.259l2.86,15.768l5.919,-6.584l-0.119,6.743l3.361,-3.451l1.61,6.171l7.835,1.097l-1.098,10.164l7.937,-4.159l-1.473,10.232l5.367,-1.155l-1.699,6.276l11.281,-0.066l1.151,9.453l7.198,-1.297l0.961,5.78l5.367,-2.725l1.791,8.447l6.149,-1.994l2.062,7.828l5.668,0.471l0.529,3.905l5.048,-1.327l2.793,9.337l6.366,-3.183l-2.404,5.164l6.771,-0.445l2.5,7.947l8.233,0.779l0,7.291l5.367,-0.827l2.066,6.39l4.597,-1.002l-1.297,8.675l8.197,0.142l-0.057,5.338l7.96,9.582l107.802,-54.136l-5.837,-5.612l-7.062,-8.609l-7.278,-4.186l-4.729,-6.706l-7.764,-7.931l-6.048,-4.264l-5.678,-6.917l-9.74,-6.344l-3.098,-5.928l-6.698,-4.036l-8.009,-6.119l-5.015,-7.568l-10.543,-6.625l-5.107,-7.017l-8.591,-5.198l-7.46,-10.77l-9.878,-6.783l-5.668,-6.987l-6.958,-4.006l-4.454,-5.477l-7.165,-3.529l-5.71,-7.561l-3.548,-1.774l-1.527,-4.501l-5.016,-3.187l-4.581,-5.871l-5.908,-4.242l-1.872,-4.105l-6.625,-6.959l-7.561,-4.976l-3.172,-5.757l-6.722,-3.361l-6.177,-8.455l-8.568,-5.236l-5.366,-7.097l-107.331,53.195Z"/></clipPath><g clip-path="url(#_clip2)"><path d="M118.13,174.957l-142.424,-119.815l142.424,-71.212l222.314,226.937l-125.716,52.124l-96.598,-88.034Z" style="fill:#2ff750;fill-opacity:0.15;"/><path d="M96.909,-1.16l5.121,15.718l5.367,-3.528l2.029,11.413l10.187,2.204l3.883,14.159l5.367,-6.149l1.521,9.592l9.212,-1.723l3.224,13.308l6.47,-4.296l2.074,9.835l11.477,-0.895l4.059,12.292l5.876,-0.453l3.024,8.898l6.729,-1.259l2.86,15.768l5.919,-6.584l-0.119,6.743l3.361,-3.451l1.61,6.171l7.835,1.097l-1.098,10.164l7.937,-4.159l-1.473,10.232l5.367,-1.155l-1.699,6.276l11.281,-0.066l1.151,9.453l7.198,-1.297l0.961,5.78l5.367,-2.725l1.791,8.447l6.149,-1.994l2.062,7.828l5.668,0.471l0.53,3.905l5.048,-1.327l2.792,9.337l6.367,-3.183l-2.405,5.164l6.771,-0.445l2.5,7.947l8.233,0.779l0,7.291l5.367,-0.827l2.066,6.39l4.597,-1.002l-1.297,8.675l8.197,0.142l-0.057,5.338l10.097,19.011l21.409,-9.117l5.287,5.027l-118.535,50.483l-10.097,-19.011l0.057,-5.338l-8.197,-0.142l1.297,-8.675l-4.597,1.002l-2.066,-6.39l-5.367,0.827l0,-7.291l-8.233,-0.779l-2.5,-7.947l-6.771,0.445l2.404,-5.164l-6.366,3.183l-2.793,-9.337l-5.048,1.326l-0.529,-3.904l-5.668,-0.471l-2.062,-7.828l-6.149,1.994l-1.791,-8.447l-5.367,2.725l-0.961,-5.78l-7.198,1.297l-1.151,-9.454l-11.281,0.067l1.699,-6.276l-5.367,1.155l1.473,-10.232l-7.937,4.159l1.098,-10.164l-7.835,-1.097l-1.61,-6.171l-3.361,3.451l0.118,-6.743l-5.918,6.584l-2.86,-15.768l-6.729,1.259l-3.024,-8.898l-5.877,0.453l-4.059,-12.293l-11.476,0.896l-2.074,-9.835l-6.47,4.296l-3.224,-13.308l-9.212,1.723l-1.521,-9.592l-5.367,6.148l-3.883,-14.158l-10.187,-2.204l-2.029,-11.413l-5.367,3.527l-5.366,-16.471l92.084,-45.639Z" style="fill:#62a02a;fill-opacity:0.35;"/></g></g><g id="Way_Ramp_Up_low2"><g><path d="M48.001,59.504l0.075,-9.126l7.588,-3.14l6.783,6.749l7.62,4.239l6.676,8.476l-4.917,14.15l-9.601,0.149l-9.552,-5.858l-4.672,-15.639Z" style="fill:#acaba7;"/><path d="M46.647,64.556l0.075,-9.126l7.589,-3.14l6.782,6.749l7.62,4.239l6.676,8.475l-4.916,14.151l-9.602,0.149l-9.552,-5.858l-4.672,-15.639Z" style="fill:#4e4d47;fill-opacity:0.6;"/><path d="M54.209,48.144l-3.835,10.914l-9.647,5.592l-6.035,-5.634l-5.096,-11.538l2.927,-9.841l5.388,-7.964l6.766,6.525l5.827,6.968l3.705,4.978" style="fill:#acaba7;"/><path d="M52.855,53.196l-3.835,10.913l-9.646,5.592l-6.036,-5.634l-5.096,-11.537l2.927,-9.842l5.389,-7.964l6.766,6.526l5.826,6.968l3.705,4.978" style="fill:#4e4d47;fill-opacity:0.6;"/><path d="M40.515,37.697l-2.559,5.746l-8.572,8.444l-8.157,-6.223l0.733,-9.435l3.613,-7.745l7.638,8.21l1.96,-0.96l2.844,0.546l2.5,1.417Z" style="fill:#acaba7;"/><path d="M39.162,42.749l-2.56,5.746l-7.168,7.067l-3.644,-3.35l0.468,-8.931l3.108,-5.034l2.492,3.499l1.959,-0.96l2.844,0.546l2.501,1.417Z" style="fill:#4e4d47;fill-opacity:0.6;"/><path d="M98.02,107.389l-6.063,-12.77l-6.416,-7.211l0.028,-3.394l0.034,-4.21l4.794,0.794l4.796,0.484l3.347,5.728l3.66,2.792l2.484,4.759l4.708,11.244l-1.808,1.478l-6.224,2.854l-3.34,-2.548Z" style="fill:#acaba7;"/><path d="M96.667,112.44l-6.063,-12.77l-6.417,-7.21l0.028,-3.394l0.035,-4.211l4.793,0.794l4.797,0.485l3.347,5.728l3.659,2.792l2.485,4.759l4.708,11.243l-1.808,1.478l-6.224,2.854l-3.34,-2.548Z" style="fill:#4e4d47;fill-opacity:0.6;"/><path d="M120.846,101.972l-3.88,-9.658l-7.289,-1.984l-7.344,-0.191l-1.13,5.432l3.513,9.647l3.09,9.973l1.946,7.607l3.544,-3.589l3.391,1.475l4.534,-1.449l1.266,-3.041l-1.641,-14.222" style="fill:#acaba7;"/><path d="M119.492,107.023l-3.88,-9.657l-7.288,-1.984l-7.345,-0.191l-1.129,5.432l3.512,9.647l3.091,9.973l1.946,7.607l3.543,-3.589l3.391,1.474l4.534,-1.448l1.266,-3.041l-1.641,-14.223" style="fill:#4e4d47;fill-opacity:0.6;"/><path d="M85.733,72.166l-6.961,-6.196l-7.866,4.829l-9.133,3.453l5.915,10.795l1.73,9.31l6.628,-0.981l10.726,5.972l6.907,-7.171l1.662,-6.789l-4.838,-9.582l-4.77,-3.64Z" style="fill:#acaba7;"/><path d="M84.379,77.218l-6.961,-6.196l-7.866,4.828l-9.132,3.454l5.915,10.794l1.73,9.311l6.628,-0.981l10.725,5.972l6.907,-7.171l1.663,-6.79l-4.838,-9.582l-4.771,-3.639Z" style="fill:#4e4d47;fill-opacity:0.6;"/><path d="M187.094,171.159l0.386,9.111l-3.086,10.681l-10.324,-3.994l-3.973,-5.069l-6.664,-1.633l-1.39,-7.457l8.453,-5.104l6.308,-5.332l7.924,3.437l2.366,5.36Z" style="fill:#acaba7;"/><path d="M185.463,176.127l0.386,9.112l-3.087,10.681l-10.324,-3.994l-3.973,-5.069l-6.664,-1.633l-1.39,-7.457l8.454,-5.105l6.307,-5.331l7.924,3.437l2.367,5.359Z" style="fill:#4e4d47;fill-opacity:0.6;"/><path d="M177.42,163.425l-6.284,-11.686l-11.823,-6.042l-5.178,5.764l-2.828,6.632l6.341,13.689l-0.606,9.489l9.604,0.248l4.975,-2.602l3.043,-5.219l2.756,-10.273Z" style="fill:#acaba7;"/><path d="M175.788,168.394l-6.284,-11.686l-11.823,-6.042l-5.178,5.764l-2.828,6.632l6.341,13.689l-0.606,9.489l9.604,0.248l4.976,-2.602l3.042,-5.22l2.756,-10.272Z" style="fill:#4e4d47;fill-opacity:0.6;"/><path d="M240.536,225.707l-2.731,7.316l-5.969,2.522l-11.005,-8.248l-8.984,-10.326l4.89,-6.623l10.314,-4.359l13.485,19.718Z" style="fill:#acaba7;"/><path d="M238.905,230.675l-2.732,7.316l-5.968,2.523l-10.934,-9.753l-4.371,-6.875l6.595,-6.992l6.428,-4.338l10.982,18.119Z" style="fill:#4e4d47;fill-opacity:0.6;"/><path d="M254.194,227.991l0.386,9.112l-3.087,10.681l-10.324,-3.994l-3.973,-5.069l-6.664,-1.633l-1.39,-7.457l8.454,-5.104l6.307,-5.332l7.924,3.437l2.367,5.359Z" style="fill:#acaba7;"/><path d="M252.562,232.96l0.386,9.112l-3.087,10.681l-10.324,-3.995l-3.973,-5.069l-6.664,-1.632l-1.39,-7.457l8.454,-5.105l6.307,-5.331l7.924,3.437l2.367,5.359Z" style="fill:#4e4d47;fill-opacity:0.6;"/><path d="M225.319,208.622l-6.284,-11.686l-11.823,-6.042l-5.178,5.764l-2.828,6.632l6.341,13.689l-0.606,9.489l9.603,0.248l4.976,-2.602l3.042,-5.22l2.757,-10.272Z" style="fill:#acaba7;"/><path d="M223.687,213.59l-6.284,-11.686l-11.823,-6.042l-5.178,5.765l-2.828,6.632l6.341,13.689l-0.606,9.489l9.604,0.248l4.975,-2.603l3.043,-5.219l2.756,-10.273Z" style="fill:#4e4d47;fill-opacity:0.6;"/><path d="M133.328,128.738l-5.992,-13.836l-11.886,-7.76l-2.548,7.829l-0.444,6.95l7.822,14.608l0.438,6.689l6.622,-0.654l8.695,9.818l6.713,0.185l1.66,-3.727l-1.647,-5.724l-2.652,-2.267l-6.781,-12.111" style="fill:#acaba7;"/><path d="M131.696,133.707l-5.992,-13.836l-11.886,-7.76l-2.548,7.829l-0.444,6.95l7.822,14.608l0.438,6.689l6.622,-0.654l8.695,9.817l6.713,0.186l1.66,-3.727l-1.647,-5.724l-2.652,-2.267l-6.781,-12.111" style="fill:#4e4d47;fill-opacity:0.6;"/><path d="M160.887,153.317c-0.916,-1.64 -12.449,-12.17 -12.449,-12.17l-11.857,-2.272l0.448,11.464l7.334,4.356l6.348,7.339c0,0 11.093,-7.077 10.176,-8.717Z" style="fill:#acaba7;"/><path d="M159.256,158.286c-0.917,-1.641 -12.45,-12.17 -12.45,-12.17l-11.857,-2.272l0.448,11.464l7.334,4.356l6.348,7.339c0,0 11.093,-7.077 10.177,-8.717Z" style="fill:#4e4d47;fill-opacity:0.6;"/><path d="M206.11,198.007l-2.731,7.316l-5.969,2.523l-11.005,-8.249l-8.985,-10.325l4.891,-6.623l10.314,-4.359l13.485,19.717Z" style="fill:#acaba7;"/><path d="M204.478,202.976l-2.731,7.316l-5.969,2.523l-10.933,-9.753l-4.371,-6.875l6.595,-6.992l6.427,-4.338l10.982,18.119Z" style="fill:#4e4d47;fill-opacity:0.6;"/></g><g><path d="M175.951,76.453l0.386,9.112l-3.087,10.681l-10.323,-3.994l-3.973,-5.069l-6.665,-1.633l-1.389,-7.457l8.453,-5.104l6.308,-5.332l7.923,3.437l2.367,5.359Z" style="fill:#acaba7;"/><path d="M174.319,81.422l0.386,9.112l-3.086,10.681l-10.324,-3.995l-3.973,-5.069l-6.665,-1.632l-1.389,-7.457l8.453,-5.105l6.308,-5.331l7.924,3.437l2.366,5.359Z" style="fill:#4e4d47;fill-opacity:0.6;"/><path d="M163.591,65.326l-6.284,-11.686l-11.824,-6.042l-5.177,5.764l-2.829,6.632l6.341,13.689l-0.606,9.489l9.604,0.248l4.976,-2.602l3.042,-5.22l2.757,-10.272Z" style="fill:#acaba7;"/><path d="M161.959,70.294l-6.284,-11.685l-11.823,-6.042l-5.178,5.764l-2.829,6.632l6.341,13.689l-0.606,9.489l9.604,0.248l4.976,-2.602l3.042,-5.22l2.757,-10.273Z" style="fill:#4e4d47;fill-opacity:0.6;"/><path d="M123.88,34.872l-5.992,-13.836l-11.886,-7.76l-2.548,7.829l-0.444,6.95l7.821,14.607l0.439,6.69l6.622,-0.655l8.695,9.818l6.713,0.185l1.66,-3.726l-1.647,-5.725l-2.653,-2.266l-6.78,-12.111" style="fill:#acaba7;"/><path d="M122.248,39.841l-5.992,-13.837l-11.886,-7.759l-2.548,7.829l-0.444,6.949l7.822,14.608l0.438,6.69l6.622,-0.655l8.695,9.818l6.713,0.185l1.66,-3.726l-1.647,-5.725l-2.652,-2.267l-6.781,-12.11" style="fill:#4e4d47;fill-opacity:0.6;"/><path d="M149.043,65.36c-0.916,-1.64 -12.45,-12.17 -12.45,-12.17l-11.856,-2.271l0.448,11.463l7.333,4.356l6.349,7.339c0,0 11.093,-7.077 10.176,-8.717Z" style="fill:#acaba7;"/><path d="M147.411,70.329c-0.916,-1.64 -12.45,-12.17 -12.45,-12.17l-11.856,-2.272l0.448,11.464l7.333,4.356l6.349,7.339c0,0 11.093,-7.077 10.176,-8.717Z" style="fill:#4e4d47;fill-opacity:0.6;"/><path d="M105.27,23.908l-2.732,7.316l-5.968,2.523l-11.006,-8.249l-8.984,-10.325l4.89,-6.623l10.314,-4.359l13.486,19.717Z" style="fill:#acaba7;"/><path d="M103.638,28.877l-2.731,7.316l-5.969,2.523l-10.934,-9.753l-4.371,-6.875l6.595,-6.992l6.428,-4.338l10.982,18.119Z" style="fill:#4e4d47;fill-opacity:0.6;"/><path d="M202.933,103.254l0.386,9.112l-3.087,10.681l-10.323,-3.994l-3.973,-5.069l-6.665,-1.633l-1.389,-7.457l8.453,-5.104l6.308,-5.332l7.923,3.437l2.367,5.359Z" style="fill:#acaba7;"/><path d="M201.301,108.223l0.386,9.112l-3.086,10.681l-10.324,-3.995l-3.973,-5.069l-6.665,-1.632l-1.389,-7.457l8.453,-5.105l6.308,-5.331l7.924,3.437l2.366,5.359Z" style="fill:#4e4d47;fill-opacity:0.6;"/><path d="M193.259,95.521l-6.284,-11.686l-11.823,-6.042l-5.178,5.764l-2.828,6.632l6.34,13.689l-0.605,9.489l9.603,0.248l4.976,-2.602l3.042,-5.22l2.757,-10.272Z" style="fill:#acaba7;"/><path d="M191.627,100.489l-6.284,-11.686l-11.823,-6.042l-5.178,5.765l-2.828,6.632l6.341,13.689l-0.606,9.489l9.603,0.248l4.976,-2.602l3.042,-5.22l2.757,-10.273Z" style="fill:#4e4d47;fill-opacity:0.6;"/><path d="M281.201,190.018l-2.732,7.316l-5.968,2.523l-11.006,-8.249l-8.984,-10.326l4.89,-6.622l10.314,-4.359l13.486,19.717Z" style="fill:#acaba7;"/><path d="M279.569,194.987l-2.731,7.316l-5.969,2.523l-10.934,-9.753l-4.371,-6.875l6.595,-6.992l6.428,-4.339l10.982,18.12Z" style="fill:#4e4d47;fill-opacity:0.6;"/><path d="M309.612,204.606l0.386,9.112l-3.086,10.681l-10.324,-3.995l-3.973,-5.068l-6.664,-1.633l-1.39,-7.457l8.453,-5.105l6.308,-5.331l7.924,3.437l2.366,5.359Z" style="fill:#acaba7;"/><path d="M307.981,209.575l0.386,9.111l-3.087,10.681l-10.324,-3.994l-3.973,-5.069l-6.664,-1.632l-1.39,-7.457l8.454,-5.105l6.307,-5.331l7.924,3.437l2.367,5.359Z" style="fill:#4e4d47;fill-opacity:0.6;"/><path d="M299.938,196.873l-6.284,-11.686l-11.823,-6.042l-5.178,5.764l-2.828,6.632l6.341,13.689l-0.606,9.489l9.604,0.248l4.975,-2.602l3.043,-5.22l2.756,-10.272Z" style="fill:#acaba7;"/><path d="M298.306,201.841l-6.284,-11.686l-11.823,-6.042l-5.178,5.765l-2.828,6.632l6.341,13.689l-0.606,9.489l9.604,0.248l4.976,-2.603l3.042,-5.219l2.756,-10.273Z" style="fill:#4e4d47;fill-opacity:0.6;"/><path d="M238.163,146.976l-5.992,-13.836l-11.886,-7.76l-2.548,7.829l-0.444,6.95l7.822,14.608l0.438,6.689l6.622,-0.654l8.695,9.818l6.713,0.185l1.66,-3.727l-1.647,-5.724l-2.652,-2.267l-6.781,-12.111" style="fill:#acaba7;"/><path d="M236.531,151.945l-5.992,-13.836l-11.886,-7.76l-2.548,7.829l-0.444,6.95l7.822,14.608l0.438,6.689l6.622,-0.654l8.695,9.817l6.714,0.186l1.659,-3.727l-1.647,-5.724l-2.652,-2.267l-6.781,-12.111" style="fill:#4e4d47;fill-opacity:0.6;"/><path d="M265.723,171.555c-0.917,-1.64 -12.45,-12.17 -12.45,-12.17l-11.857,-2.272l0.448,11.464l7.334,4.356l6.348,7.339c0,0 11.093,-7.077 10.177,-8.717Z" style="fill:#acaba7;"/><path d="M264.091,176.523c-0.917,-1.64 -12.45,-12.169 -12.45,-12.169l-11.857,-2.272l0.448,11.463l7.334,4.357l6.349,7.339c0,0 11.092,-7.077 10.176,-8.718Z" style="fill:#4e4d47;fill-opacity:0.6;"/><path d="M221.949,130.103l-2.731,7.316l-5.969,2.523l-11.006,-8.249l-8.984,-10.326l4.891,-6.622l10.314,-4.359l13.485,19.717Z" style="fill:#acaba7;"/><path d="M220.317,135.072l-2.731,7.316l-5.969,2.523l-10.933,-9.753l-4.371,-6.875l6.595,-6.992l6.427,-4.339l10.982,18.12Z" style="fill:#4e4d47;fill-opacity:0.6;"/></g></g></g></svg>