<?xml version="1.0" encoding="UTF-8" standalone="no"?><!DOCTYPE svg PUBLIC "-//W3C//DTD SVG 1.1//EN" "http://www.w3.org/Graphics/SVG/1.1/DTD/svg11.dtd"><svg width="100%" height="100%" viewBox="0 0 217 152" version="1.1" xmlns="http://www.w3.org/2000/svg" xmlns:xlink="http://www.w3.org/1999/xlink" xml:space="preserve" xmlns:serif="http://www.serif.com/" style="fill-rule:evenodd;clip-rule:evenodd;stroke-linejoin:round;stroke-miterlimit:1.41421;"><g id="Grass_Ramp_LeftDown_high-angle1"><path d="M109.583,55.271l0,96.598l-107.331,-53.666l0,-96.598l107.331,53.666Z" style="fill:#685632;"/><clipPath id="_clip1"><path d="M109.583,55.271l0,96.598l-107.331,-53.666l0,-96.598l107.331,53.666Z"/></clipPath><g clip-path="url(#_clip1)"><path d="M92.113,121.668l11.735,-4.08l-0.236,-16.221l-6.989,-11.581l-11.749,-1.32l-5.987,4.726l-1.503,10.627l14.729,17.849" style="fill:#816b40;"/><path d="M87.791,138.016l17.273,-3.671l-1.819,-6.448l-9.042,-3.989l-7.196,0.973l-8.01,3.609l-0.029,5.633l8.823,3.893Z" style="fill:#816b40;"/><path d="M50.85,113.688l4.778,5.837l11.198,0.057l2.666,-4.498l2.281,-7.998l-9.77,-12.374l-3.564,4.94l-5.674,0.498l-3.859,9.847l1.944,3.691" style="fill:#816b40;"/><path d="M75.94,87.821l-6.21,-6.587l4.114,-12.274l9.073,-1.735l7.964,-0.802l2.764,4.188l3.72,-1.191l5.458,1.532l1.351,4.444l-6.164,3.963l-4.606,2.727l-8.414,4.037l-9.05,1.698Z" style="fill:#816b40;"/><path d="M36.79,98.765l-4.295,-4.585l-1.861,-10.648l2.87,-9.417l12.278,-2.446l3.22,7.815l-0.16,7.686l-4.698,7.216l-7.354,4.379Z" style="fill:#816b40;"/><path d="M17.716,52.837l-7.494,-11.309l2.215,-5.782l10.317,-18.523c0,0 7.679,6.583 10.235,6.868c2.555,0.284 7.573,5.082 7.573,5.082l-3.96,8.979l-9.329,5.375l-9.557,9.31Z" style="fill:#816b40;"/><path d="M63.005,66.88l-10.818,-2.741l-10.012,-8.444l2.663,-7.436l5.351,-5.277l7.761,2.587l4.722,5.79l3.252,6.875l-2.919,8.646" style="fill:#816b40;"/><path d="M6.242,72.794l8.581,-9.592l7.678,8.654l1.217,22.864l-12.832,4.344l-4.296,-9.129l-0.348,-17.141" style="fill:#816b40;"/><path d="M83.801,138.459l17.273,-3.671l-1.819,-6.447l-9.042,-3.99l-7.196,0.973l-8.01,3.61l-0.029,5.632l8.823,3.893Zm4.322,-16.348l-14.729,-17.849l1.503,-10.627l5.988,-4.725l11.748,1.319l6.989,11.582l0.236,16.22l-11.735,4.08Zm-41.263,-7.979l-1.944,-3.691l3.859,-9.848l5.674,-0.498l3.564,-4.939l9.77,12.374l-2.281,7.998l-2.666,4.497l-11.198,-0.057l-4.778,-5.836Zm-44.608,-40.894l8.581,-9.593l7.678,8.655l1.217,22.864l-12.832,4.344l-4.296,-9.13l-0.348,-17.14Zm30.548,25.971l-4.295,-4.586l-1.861,-10.647l2.87,-9.418l12.278,-2.445l3.22,7.815l-0.16,7.685l-4.698,7.216l-7.354,4.38Zm39.15,-10.945l-6.21,-6.587l4.114,-12.273l9.074,-1.736l7.963,-0.801l2.764,4.187l3.72,-1.191l5.458,1.532l1.351,4.444l-6.164,3.963l-4.606,2.727l-8.414,4.037l-9.05,1.698Zm-12.935,-20.941l-10.818,-2.741l-10.012,-8.444l2.664,-7.435l5.35,-5.277l7.761,2.587l4.722,5.79l3.252,6.875l-2.919,8.645Zm-45.289,-14.042l-7.494,-11.309l2.215,-5.783l10.317,-18.523c0,0 7.679,6.584 10.235,6.868c2.555,0.284 7.573,5.082 7.573,5.082l-3.959,8.979l-9.33,5.376l-9.557,9.31Z" style="fill:#311807;fill-opacity:0.5;"/></g><path d="M216.914,98.203l-107.331,53.666l0,-96.598l107.331,42.932Z" style="fill:#a88643;"/><path d="M1.146,3.675l2.213,5.598l4.259,-2.994l3.416,5.084l5.115,-2.809l2.202,8.789l5.367,-2.604l1.676,7.495l6.987,-0.197l5.011,-2.862l2.426,8.841l12.75,2.097l7.157,7.155l8.542,-2.655l2.532,13.217l9.279,0.727l1.21,4.762l8.33,-4.165l3.865,3.434l10.733,2.112l3.297,4.902l4.802,-0.33l2.635,-1.318l5.366,2.683l9.204,0.765l5.855,7.806l8.918,0.907l8.223,4.111l14.177,8.154l7.289,-0.276l5.366,4.226l19.909,6.639l10.934,4.425l6.723,1.326l0,-0.517l-107.331,-53.665l-24.884,-9.024l-20.749,-8.426l-16.017,-8.009l-18.848,-9.424l-18.956,-6.622l-5.366,-2.683l-3.974,0.524l0.357,2.801" style="fill:#b4e164;"/><path d="M180.822,78.683l-6.84,5.653l2.278,12.728l8.455,2.99l7.519,1.909l3.214,-3.76l3.402,1.701l5.435,-0.752l1.896,-4.211l-5.366,-4.787l-4.042,-3.346l-7.512,-5.176l-8.439,-2.949Z" style="fill:#c7a664;"/><path d="M144.293,70.115l-7.877,3.939l-5.367,10.282l2.452,9.727l19.015,4.14l6.892,-7.286l1.479,-7.632l-5.86,-7.803l-10.734,-5.367Z" style="fill:#c7a664;"/><path d="M120.316,105.167l-8.709,10.148l1.338,6.035l7.371,19.786c0,0 8.247,-5.443 10.733,-5.367c2.486,0.077 7.943,-3.971 7.943,-3.971l-2.576,-9.445l-8.208,-6.629l-7.892,-10.557Z" style="fill:#c7a664;"/><path d="M168.615,103.463l-10.733,1.199l-10.733,6.958l1.544,7.735l4.409,5.974l7.785,-1.474l5.306,-5.071l4.047,-6.352l-1.625,-8.969" style="fill:#c7a664;"/><path d="M113.278,74.684l8.71,6.931l10.733,-4.854l5.366,-14.553l-14.73,-3.951l-6.736,5.466l-3.343,10.961" style="fill:#c7a664;"/><path d="M124.341,108.067l-8.372,9.701l1.286,5.77l7.086,18.915c0,0 7.927,-5.204 10.317,-5.131c2.389,0.073 7.634,-3.796 7.634,-3.796l-2.476,-9.029l-7.889,-6.338l-7.586,-10.092Zm46.426,-1.629l-10.317,1.146l-10.317,6.652l1.484,7.395l4.238,5.711l7.483,-1.409l5.101,-4.849l3.89,-6.072l-1.562,-8.574Zm11.734,-23.688l-6.575,5.403l2.189,12.168l8.128,2.858l7.227,1.825l3.09,-3.594l3.27,1.626l5.224,-0.719l1.823,-4.026l-5.159,-4.576l-3.885,-3.199l-7.221,-4.947l-8.111,-2.819Zm-35.113,-8.192l-7.572,3.766l-5.158,9.829l2.356,9.299l18.278,3.958l6.625,-6.966l1.421,-7.296l-5.633,-7.459l-10.317,-5.131Zm-31.419,2.168l3.213,-10.479l6.475,-5.225l14.159,3.777l-5.158,13.912l-10.317,4.64l-8.372,-6.625Z" style="fill:#a88643;fill-opacity:0.7;"/></g></svg>