<?xml version="1.0" encoding="UTF-8" standalone="no"?><!DOCTYPE svg PUBLIC "-//W3C//DTD SVG 1.1//EN" "http://www.w3.org/Graphics/SVG/1.1/DTD/svg11.dtd"><svg width="100%" height="100%" viewBox="0 0 98 178" version="1.1" xmlns="http://www.w3.org/2000/svg" xmlns:xlink="http://www.w3.org/1999/xlink" xml:space="preserve" xmlns:serif="http://www.serif.com/" style="fill-rule:evenodd;clip-rule:evenodd;stroke-linejoin:round;stroke-miterlimit:1.41421;"><g id="Ladder01"><path d="M21.886,5.537l10.733,5.366l10.733,-5.366l-10.733,-5.367l-10.733,5.367Z" style="fill:#aa8a61;"/><path d="M43.352,5.537l-21.466,139.531l-10.733,5.366l21.466,-139.531l10.733,-5.366Z" style="fill:#b39876;"/><path d="M21.886,5.537l-21.466,139.531l10.733,5.366l21.466,-139.531l-10.733,-5.366Z" style="fill:#8a765c;"/><path d="M32.619,25.181l6.666,-3.333l43.211,21.409l-7.024,3.35l-42.853,-21.426Z" style="fill:#aa8a61;"/><path d="M78.534,56.729l7.751,-15.449l-7.751,6.858l-45.915,-22.957l-1.278,7.664l47.193,23.884Z" style="fill:#8a765c;"/><path d="M28.531,50.792l6.665,-3.333l43.211,21.409l-7.023,3.35l-42.853,-21.426Z" style="fill:#aa8a61;"/><path d="M74.445,82.341l7.751,-15.45l-7.751,6.858l-45.914,-22.957l-1.279,7.664l47.193,23.885Z" style="fill:#8a765c;"/><path d="M24.741,76.73l6.666,-3.333l43.211,21.41l-7.024,3.349l-42.853,-21.426Z" style="fill:#aa8a61;"/><path d="M70.656,108.279l7.751,-15.449l-7.751,6.857l-45.915,-22.957l-1.278,7.664l47.193,23.885Z" style="fill:#8a765c;"/><path d="M20.952,103.022l6.666,-3.333l43.211,21.41l-7.024,3.35l-42.853,-21.427Z" style="fill:#aa8a61;"/><path d="M66.867,134.571l7.751,-15.449l-7.751,6.857l-45.915,-22.957l-1.278,7.664l47.193,23.885Z" style="fill:#8a765c;"/><path d="M17.065,127.613l6.666,-3.333l43.211,21.41l-7.024,3.349l-42.853,-21.426Z" style="fill:#aa8a61;"/><path d="M62.98,159.162l7.751,-15.449l-7.751,6.857l-45.915,-22.957l-1.278,7.664l47.193,23.885Z" style="fill:#8a765c;"/><path d="M75.552,32.37l10.733,5.366l10.733,-5.366l-10.733,-5.367l-10.733,5.367Z" style="fill:#aa8a61;"/><path d="M97.018,32.37l-21.466,139.53l-10.734,5.367l21.467,-139.531l10.733,-5.366Z" style="fill:#b39876;"/><path d="M75.552,32.37l-6.823,44.346l-14.644,95.184l10.733,5.367l21.467,-139.531l-10.733,-5.366Z" style="fill:#8a765c;"/></g></svg>