<?xml version="1.0" encoding="UTF-8" standalone="no"?><!DOCTYPE svg PUBLIC "-//W3C//DTD SVG 1.1//EN" "http://www.w3.org/Graphics/SVG/1.1/DTD/svg11.dtd"><svg width="100%" height="100%" viewBox="0 0 323 258" version="1.1" xmlns="http://www.w3.org/2000/svg" xmlns:xlink="http://www.w3.org/1999/xlink" xml:space="preserve" xmlns:serif="http://www.serif.com/" style="fill-rule:evenodd;clip-rule:evenodd;stroke-linejoin:round;stroke-miterlimit:1.41421;"><g id="Sand_Ramp_RightUp_low-angle3"><path d="M215.25,107.632l107.331,-53.666l0,96.599l-107.331,53.665" style="fill:#e1c080;"/><clipPath id="_clip1"><path d="M215.25,107.632l107.331,-53.666l0,96.599l-107.331,53.665"/></clipPath><g clip-path="url(#_clip1)"><path d="M322.581,129.098c0,0 -32.023,3.078 -45.85,22.926c-13.828,19.847 -36.003,29.26 -61.481,30.74c-25.477,1.48 -65.459,-69.042 -107.331,-53.666c-41.872,15.377 -13.212,68.526 -13.212,68.526l160.009,19.073l73.232,-47.349l-5.367,-40.25Z" style="fill:#b09255;"/></g><path d="M215.25,204.23l10.733,-5.366l-118.064,59.032l0,-96.598l118.064,-59.032" style="fill:#e1c080;"/><clipPath id="_clip2"><path d="M215.25,204.23l10.733,-5.366l-118.064,59.032l0,-96.598l118.064,-59.032"/></clipPath><g clip-path="url(#_clip2)"><path d="M217.526,182.61c0,0 -34.3,3.232 -48.127,23.079c-13.827,19.848 -36.003,29.261 -61.48,30.741c-25.478,1.479 -65.46,-69.043 -107.331,-53.666c-41.872,15.376 -13.212,68.526 -13.212,68.526l160.009,19.072l73.232,-47.349l-3.091,-40.403Z" style="fill:#b09255;"/></g><path d="M322.581,53.966l-214.662,203.93l-107.331,-53.666l214.662,-203.929l107.331,53.665Z" style="fill:#c7a664;"/><g><path d="M237.901,11.448l59.905,29.952l-70.601,54.71l-41.731,53.065l-107.336,93.652l-56.084,-28.042l215.847,-203.337" style="fill:#c7a664;"/><g><path d="M275.376,59.977l-0.075,-9.125l-7.588,-3.141l-6.782,6.749l-7.62,4.239l-6.676,8.476l4.916,14.15l9.601,0.149l9.553,-5.858l4.671,-15.639Z" style="fill:#acaba7;"/><path d="M276.73,65.029l-0.075,-9.126l-7.588,-3.14l-6.783,6.749l-7.62,4.239l-6.676,8.475l4.916,14.151l9.602,0.149l9.552,-5.858l4.672,-15.639Z" style="fill:#4e4d47;fill-opacity:0.6;"/><path d="M269.168,48.617l3.836,10.914l9.646,5.592l6.036,-5.634l5.096,-11.538l-2.927,-9.841l-5.389,-7.964l-6.766,6.525l-5.827,6.968l-3.705,4.978" style="fill:#acaba7;"/><path d="M270.522,53.669l3.835,10.913l9.647,5.592l6.035,-5.634l5.096,-11.537l-2.927,-9.842l-5.388,-7.964l-6.766,6.526l-5.827,6.968l-3.705,4.978" style="fill:#4e4d47;fill-opacity:0.6;"/><path d="M282.862,38.17l2.559,5.746l8.572,8.444l8.157,-6.223l-0.733,-9.435l-3.613,-7.745l-7.638,8.21l-1.959,-0.96l-2.844,0.546l-2.501,1.417Z" style="fill:#acaba7;"/><path d="M284.216,43.222l2.559,5.746l7.168,7.067l3.644,-3.35l-0.467,-8.931l-3.108,-5.034l-2.492,3.499l-1.96,-0.96l-2.844,0.546l-2.5,1.417Z" style="fill:#4e4d47;fill-opacity:0.6;"/><path d="M225.357,107.862l6.063,-12.77l6.416,-7.211l-0.027,-3.394l-0.035,-4.21l-4.794,0.794l-4.796,0.484l-3.347,5.728l-3.66,2.792l-2.484,4.759l-4.708,11.244l1.808,1.478l6.224,2.854l3.34,-2.548Z" style="fill:#acaba7;"/><path d="M226.711,112.913l6.062,-12.77l6.417,-7.21l-0.028,-3.394l-0.035,-4.211l-4.793,0.794l-4.796,0.485l-3.347,5.728l-3.66,2.792l-2.485,4.759l-4.707,11.243l1.807,1.478l6.225,2.854l3.34,-2.548Z" style="fill:#4e4d47;fill-opacity:0.6;"/><path d="M202.532,102.445l3.88,-9.658l7.288,-1.984l7.345,-0.19l1.129,5.431l-3.513,9.647l-3.09,9.973l-1.946,7.607l-3.543,-3.589l-3.391,1.475l-4.534,-1.449l-1.266,-3.041l1.641,-14.222" style="fill:#acaba7;"/><path d="M203.885,107.496l3.88,-9.657l7.289,-1.984l7.344,-0.191l1.13,5.432l-3.513,9.647l-3.091,9.973l-1.945,7.607l-3.544,-3.589l-3.391,1.474l-4.534,-1.448l-1.266,-3.041l1.641,-14.223" style="fill:#4e4d47;fill-opacity:0.6;"/><path d="M237.644,72.639l6.961,-6.196l7.867,4.829l9.132,3.453l-5.915,10.795l-1.73,9.31l-6.628,-0.981l-10.725,5.972l-6.907,-7.171l-1.663,-6.789l4.838,-9.582l4.77,-3.64Z" style="fill:#acaba7;"/><path d="M238.998,77.691l6.961,-6.196l7.866,4.828l9.133,3.454l-5.916,10.794l-1.73,9.311l-6.627,-0.981l-10.726,5.972l-6.907,-7.171l-1.662,-6.79l4.838,-9.582l4.77,-3.639Z" style="fill:#4e4d47;fill-opacity:0.6;"/><path d="M136.283,171.632l-0.386,9.111l3.087,10.681l10.324,-3.994l3.972,-5.069l6.665,-1.633l1.389,-7.457l-8.453,-5.104l-6.308,-5.332l-7.923,3.437l-2.367,5.36Z" style="fill:#acaba7;"/><path d="M137.915,176.6l-0.386,9.112l3.087,10.681l10.323,-3.994l3.973,-5.069l6.665,-1.633l1.389,-7.457l-8.453,-5.105l-6.308,-5.331l-7.923,3.437l-2.367,5.359Z" style="fill:#4e4d47;fill-opacity:0.6;"/><path d="M145.957,163.898l6.284,-11.686l11.823,-6.042l5.178,5.764l2.828,6.633l-6.34,13.688l0.605,9.489l-9.603,0.248l-4.976,-2.602l-3.042,-5.219l-2.757,-10.273Z" style="fill:#acaba7;"/><path d="M147.589,168.867l6.284,-11.686l11.823,-6.042l5.178,5.764l2.828,6.632l-6.34,13.689l0.605,9.489l-9.603,0.248l-4.976,-2.602l-3.042,-5.22l-2.757,-10.272Z" style="fill:#4e4d47;fill-opacity:0.6;"/><path d="M82.841,226.18l2.731,7.316l5.969,2.522l11.005,-8.248l8.985,-10.326l-4.891,-6.623l-10.314,-4.359l-13.485,19.718Z" style="fill:#acaba7;"/><path d="M84.473,231.148l1.714,4.592l1.017,2.724l5.969,2.523l10.933,-9.753l4.371,-6.875l-6.595,-6.992l-6.428,-4.338l-10.981,18.119Z" style="fill:#4e4d47;fill-opacity:0.6;"/><path d="M69.184,228.464l-0.386,9.112l3.086,10.681l10.324,-3.994l3.973,-5.069l6.665,-1.633l1.389,-7.457l-8.453,-5.104l-6.308,-5.332l-7.923,3.437l-2.367,5.359Z" style="fill:#acaba7;"/><path d="M70.816,233.433l-0.386,9.112l3.086,10.681l10.324,-3.995l3.973,-5.069l6.664,-1.632l1.39,-7.457l-8.453,-5.105l-6.308,-5.331l-7.924,3.437l-2.366,5.359Z" style="fill:#4e4d47;fill-opacity:0.6;"/><path d="M98.058,209.095l6.284,-11.686l11.823,-6.042l5.178,5.764l2.829,6.632l-6.341,13.689l0.606,9.489l-9.604,0.248l-4.976,-2.602l-3.042,-5.22l-2.757,-10.272Z" style="fill:#acaba7;"/><path d="M99.69,214.063l6.284,-11.686l11.823,-6.042l5.178,5.765l2.828,6.632l-6.34,13.689l0.605,9.489l-9.603,0.248l-4.976,-2.602l-3.042,-5.22l-2.757,-10.273Z" style="fill:#4e4d47;fill-opacity:0.6;"/><path d="M190.05,129.211l5.992,-13.836l11.885,-7.76l2.548,7.829l0.444,6.95l-7.821,14.608l-0.439,6.689l-6.622,-0.654l-8.694,9.818l-6.714,0.185l-1.66,-3.726l1.648,-5.725l2.652,-2.267l6.781,-12.111" style="fill:#acaba7;"/><path d="M191.682,134.18l5.991,-13.836l11.886,-7.76l2.548,7.829l0.444,6.95l-7.821,14.608l-0.439,6.689l-6.622,-0.654l-8.694,9.817l-6.714,0.186l-1.66,-3.727l1.648,-5.724l2.652,-2.267l6.781,-12.111" style="fill:#4e4d47;fill-opacity:0.6;"/><path d="M162.49,153.79c0.916,-1.64 12.45,-12.17 12.45,-12.17l11.856,-2.272l-0.447,11.464l-7.334,4.356l-6.349,7.339c0,0 -11.092,-7.077 -10.176,-8.717Z" style="fill:#acaba7;"/><path d="M164.122,158.759c0.916,-1.641 12.45,-12.17 12.45,-12.17l11.856,-2.272l-0.448,11.464l-7.333,4.356l-6.349,7.339c0,0 -11.093,-7.077 -10.176,-8.717Z" style="fill:#4e4d47;fill-opacity:0.6;"/><path d="M117.267,198.48l2.731,7.316l5.969,2.523l11.006,-8.249l8.984,-10.325l-4.891,-6.623l-10.314,-4.359l-13.485,19.717Z" style="fill:#acaba7;"/><path d="M118.899,203.449l2.731,7.316l5.969,2.523l10.934,-9.753l4.37,-6.875l-6.595,-6.992l-6.427,-4.338l-10.982,18.119Z" style="fill:#4e4d47;fill-opacity:0.6;"/></g><g><path d="M147.426,76.926l-0.386,9.112l3.087,10.681l10.324,-3.994l3.973,-5.069l6.664,-1.633l1.389,-7.457l-8.453,-5.104l-6.307,-5.332l-7.924,3.437l-2.367,5.359Z" style="fill:#acaba7;"/><path d="M149.058,81.895l-0.386,9.112l3.087,10.681l10.324,-3.995l3.972,-5.069l6.665,-1.632l1.389,-7.457l-8.453,-5.105l-6.308,-5.331l-7.923,3.437l-2.367,5.359Z" style="fill:#4e4d47;fill-opacity:0.6;"/><path d="M159.787,65.799l6.284,-11.686l11.823,-6.042l5.178,5.764l2.828,6.632l-6.341,13.689l0.606,9.489l-9.604,0.248l-4.976,-2.602l-3.042,-5.22l-2.756,-10.272Z" style="fill:#acaba7;"/><path d="M161.419,70.768l6.284,-11.686l11.823,-6.042l5.178,5.764l2.828,6.632l-6.341,13.689l0.606,9.489l-9.604,0.248l-4.976,-2.602l-3.042,-5.22l-2.756,-10.272Z" style="fill:#4e4d47;fill-opacity:0.6;"/><path d="M199.498,35.345l5.992,-13.836l11.885,-7.76l2.548,7.829l0.444,6.95l-7.821,14.607l-0.439,6.69l-6.622,-0.655l-8.694,9.818l-6.714,0.185l-1.66,-3.726l1.648,-5.725l2.652,-2.266l6.781,-12.111" style="fill:#acaba7;"/><path d="M201.13,40.314l5.992,-13.837l11.885,-7.759l2.548,7.829l0.444,6.949l-7.821,14.608l-0.439,6.69l-6.622,-0.655l-8.694,9.818l-6.714,0.185l-1.66,-3.726l1.648,-5.725l2.652,-2.267l6.781,-12.11" style="fill:#4e4d47;fill-opacity:0.6;"/><path d="M174.334,65.833c0.916,-1.64 12.45,-12.17 12.45,-12.17l11.856,-2.271l-0.447,11.463l-7.334,4.356l-6.349,7.339c0,0 -11.092,-7.077 -10.176,-8.717Z" style="fill:#acaba7;"/><path d="M175.966,70.802c0.916,-1.64 12.45,-12.17 12.45,-12.17l11.856,-2.272l-0.447,11.464l-7.334,4.356l-6.349,7.339c0,0 -11.092,-7.077 -10.176,-8.717Z" style="fill:#4e4d47;fill-opacity:0.6;"/><path d="M218.108,24.381l2.731,7.316l5.969,2.523l11.005,-8.249l8.984,-10.325l-4.89,-6.623l-10.314,-4.359l-13.485,19.717Z" style="fill:#acaba7;"/><path d="M219.74,29.35l2.731,7.316l5.969,2.523l10.933,-9.753l4.371,-6.875l-6.595,-6.992l-6.428,-4.338l-10.981,18.119Z" style="fill:#4e4d47;fill-opacity:0.6;"/><path d="M120.444,103.727l-0.386,9.112l3.087,10.681l10.324,-3.994l3.973,-5.069l6.664,-1.633l1.389,-7.457l-8.453,-5.104l-6.307,-5.332l-7.924,3.437l-2.367,5.359Z" style="fill:#acaba7;"/><path d="M122.076,108.696l-0.386,9.112l3.087,10.681l10.324,-3.995l3.972,-5.069l6.665,-1.632l1.389,-7.457l-8.453,-5.105l-6.307,-5.331l-7.924,3.437l-2.367,5.359Z" style="fill:#4e4d47;fill-opacity:0.6;"/><path d="M130.118,95.994l6.284,-11.686l11.823,-6.042l5.178,5.764l2.829,6.632l-6.341,13.689l0.606,9.489l-9.604,0.248l-4.976,-2.602l-3.042,-5.22l-2.757,-10.272Z" style="fill:#acaba7;"/><path d="M131.75,100.962l6.284,-11.685l11.823,-6.043l5.178,5.765l2.828,6.632l-6.34,13.689l0.606,9.489l-9.604,0.248l-4.976,-2.602l-3.042,-5.22l-2.757,-10.273Z" style="fill:#4e4d47;fill-opacity:0.6;"/><path d="M42.177,190.491l2.731,7.316l5.969,2.523l11.005,-8.249l8.984,-10.326l-4.89,-6.622l-10.314,-4.359l-13.485,19.717Z" style="fill:#acaba7;"/><path d="M43.809,195.46l2.731,7.316l5.969,2.523l10.933,-9.753l4.371,-6.875l-6.595,-6.992l-6.428,-4.339l-10.981,18.12Z" style="fill:#4e4d47;fill-opacity:0.6;"/><path d="M13.765,205.079l-0.386,9.112l3.087,10.681l10.324,-3.994l3.972,-5.069l6.665,-1.633l1.389,-7.457l-8.453,-5.105l-6.308,-5.331l-7.923,3.437l-2.367,5.359Z" style="fill:#acaba7;"/><path d="M15.397,210.048l-0.386,9.111l3.087,10.681l10.323,-3.994l3.973,-5.069l6.665,-1.632l1.389,-7.457l-8.453,-5.105l-6.308,-5.331l-7.923,3.437l-2.367,5.359Z" style="fill:#4e4d47;fill-opacity:0.6;"/><path d="M23.439,197.346l6.284,-11.686l11.823,-6.042l5.178,5.764l2.828,6.632l-6.34,13.689l0.605,9.489l-9.603,0.248l-4.976,-2.602l-3.042,-5.22l-2.757,-10.272Z" style="fill:#acaba7;"/><path d="M25.071,202.314l6.284,-11.686l11.823,-6.042l5.178,5.765l2.828,6.632l-6.34,13.689l0.605,9.489l-9.603,0.248l-4.976,-2.602l-3.042,-5.22l-2.757,-10.273Z" style="fill:#4e4d47;fill-opacity:0.6;"/><path d="M85.215,147.449l5.991,-13.836l11.886,-7.76l2.548,7.829l0.444,6.95l-7.821,14.608l-0.439,6.689l-6.622,-0.654l-8.694,9.818l-6.714,0.185l-1.66,-3.727l1.648,-5.724l2.652,-2.267l6.781,-12.111" style="fill:#acaba7;"/><path d="M86.846,152.418l5.992,-13.836l11.886,-7.76l2.548,7.829l0.444,6.95l-7.821,14.608l-0.439,6.689l-6.622,-0.654l-8.694,9.817l-6.714,0.186l-1.66,-3.727l1.648,-5.724l2.652,-2.267l6.78,-12.111" style="fill:#4e4d47;fill-opacity:0.6;"/><path d="M57.655,172.028c0.916,-1.64 12.45,-12.17 12.45,-12.17l11.856,-2.272l-0.447,11.464l-7.334,4.356l-6.349,7.339c0,0 -11.093,-7.077 -10.176,-8.717Z" style="fill:#acaba7;"/><path d="M59.287,176.996c0.916,-1.64 12.45,-12.169 12.45,-12.169l11.856,-2.272l-0.448,11.464l-7.333,4.356l-6.349,7.339c0,0 -11.093,-7.077 -10.176,-8.718Z" style="fill:#4e4d47;fill-opacity:0.6;"/><path d="M101.429,130.576l2.731,7.316l5.968,2.523l11.006,-8.249l8.984,-10.326l-4.89,-6.622l-10.314,-4.359l-13.485,19.717Z" style="fill:#acaba7;"/><path d="M103.06,135.545l2.732,7.316l5.968,2.523l10.934,-9.753l4.371,-6.875l-6.595,-6.992l-6.428,-4.339l-10.982,18.12Z" style="fill:#4e4d47;fill-opacity:0.6;"/></g></g></g></svg>