<?xml version="1.0" encoding="UTF-8" standalone="no"?><!DOCTYPE svg PUBLIC "-//W3C//DTD SVG 1.1//EN" "http://www.w3.org/Graphics/SVG/1.1/DTD/svg11.dtd"><svg width="100%" height="100%" viewBox="0 0 216 205" version="1.1" xmlns="http://www.w3.org/2000/svg" xmlns:xlink="http://www.w3.org/1999/xlink" xml:space="preserve" xmlns:serif="http://www.serif.com/" style="fill-rule:evenodd;clip-rule:evenodd;stroke-linejoin:round;stroke-miterlimit:1.41421;"><g id="Sand_Ramp_LeftUp_high-angle3"><path d="M0.799,54.175l0,96.598l107.331,53.666l-107.331,-150.264Z" style="fill:#b09255;"/><clipPath id="_clip1"><path d="M0.799,54.175l0,96.598l107.331,53.666l-107.331,-150.264Z"/></clipPath><g clip-path="url(#_clip1)"><path d="M0.799,129.307c0,0 31.637,3.353 45.851,22.925c9.912,13.65 61.555,48.96 61.48,52.207c-0.588,25.514 65.459,-90.508 107.331,-75.132c41.872,15.377 13.212,68.526 13.212,68.526l-160.009,19.072l-73.232,-47.349l5.367,-40.249Z" style="fill:#a5874f;"/></g><path d="M0.799,54.175l107.331,150.264l107.331,-53.666l-107.331,-150.263l-107.331,53.665Z" style="fill:#e1c080;"/><g><path d="M26.444,41.236l112.698,147.581l53.666,-26.833l-112.698,-147.581l-53.666,26.833Z" style="fill:#c7a664;"/><g><path d="M134.034,83.469l9.125,0.109l3.293,-7.523l-6.61,-6.918l-4.085,-7.704l-8.339,-6.845l-14.247,4.629l-0.342,9.597l5.664,9.668l15.541,4.987Z" style="fill:#acaba7;"/><path d="M135.428,89.503l9.126,0.11l3.292,-7.524l-6.61,-6.917l-4.085,-7.704l-8.339,-6.846l-14.246,4.63l-0.343,9.596l5.664,9.669l15.541,4.986Z" style="fill:#4e4d47;fill-opacity:0.6;"/><path d="M87.169,32.493l12.645,6.319l7.08,6.561l3.393,0.041l4.211,0.05l-0.697,-4.808l-0.388,-4.805l-5.659,-3.462l-2.718,-3.716l-4.707,-2.58l-11.147,-4.934l-1.514,1.778l-2.979,6.165l2.48,3.391Z" style="fill:#acaba7;"/><path d="M88.563,38.528l12.645,6.319l7.08,6.561l3.393,0.04l4.211,0.051l-0.697,-4.809l-0.388,-4.805l-5.659,-3.462l-2.717,-3.715l-4.708,-2.58l-11.146,-4.934l-1.515,1.777l-2.979,6.166l2.48,3.391Z" style="fill:#4e4d47;fill-opacity:0.6;"/><path d="M93.046,9.782l9.577,4.074l1.837,7.327l0.042,7.347l-5.454,1.019l-9.573,-3.707l-9.91,-3.291l-7.566,-2.099l3.66,-3.47l-1.405,-3.42l1.54,-4.504l3.065,-1.204l14.187,1.928" style="fill:#acaba7;"/><path d="M94.44,15.816l9.578,4.074l1.836,7.327l0.042,7.347l-5.453,1.02l-9.574,-3.707l-9.909,-3.291l-7.567,-2.099l3.661,-3.47l-1.406,-3.421l1.54,-4.503l3.065,-1.205l14.187,1.928" style="fill:#4e4d47;fill-opacity:0.6;"/><path d="M122.136,45.489l6.055,7.085l-4.987,7.767l-3.637,9.061l-10.673,-6.132l-9.273,-1.918l1.114,-6.607l-5.754,-10.843l7.309,-6.761l6.822,-1.525l9.482,5.03l3.542,4.843Z" style="fill:#acaba7;"/><path d="M123.53,51.523l6.055,7.085l-4.987,7.767l-3.637,9.061l-10.672,-6.132l-9.274,-1.918l1.114,-6.606l-5.754,-10.844l7.309,-6.761l6.822,-1.525l9.482,5.031l3.542,4.842Z" style="fill:#4e4d47;fill-opacity:0.6;"/><path d="M153.352,116.146l12.645,6.319l7.079,6.561l3.394,0.04l4.21,0.051l-0.697,-4.809l-0.388,-4.805l-5.658,-3.462l-2.718,-3.715l-4.708,-2.58l-11.146,-4.934l-1.514,1.777l-2.979,6.166l2.48,3.391Z" style="fill:#acaba7;"/><path d="M154.746,122.18l12.645,6.319l7.079,6.561l3.394,0.041l4.211,0.05l-0.697,-4.809l-0.388,-4.805l-5.659,-3.462l-2.718,-3.715l-4.707,-2.58l-11.147,-4.934l-1.514,1.778l-2.979,6.165l2.48,3.391Z" style="fill:#4e4d47;fill-opacity:0.6;"/><path d="M185.359,124.998l6.055,7.085l-4.987,7.767l-3.637,9.061l-10.673,-6.132l-9.273,-1.918l1.114,-6.607l-5.754,-10.843l7.309,-6.761l6.822,-1.525l9.482,5.03l3.542,4.843Z" style="fill:#acaba7;"/><path d="M186.753,131.032l6.055,7.085l-4.987,7.767l-3.637,9.061l-10.672,-6.132l-9.274,-1.918l1.114,-6.606l-5.754,-10.844l7.309,-6.761l6.822,-1.525l9.482,5.031l3.542,4.842Z" style="fill:#4e4d47;fill-opacity:0.6;"/><path d="M40.473,37.517l-9.043,-1.179l-10.909,2.143l3.078,10.633l4.703,4.4l1.045,6.782l7.307,2.034l5.823,-7.976l5.861,-5.818l-2.732,-8.193l-5.133,-2.826Z" style="fill:#acaba7;"/><path d="M41.797,43.568l-9.043,-1.18l-10.909,2.144l3.078,10.633l4.703,4.399l1.045,6.782l7.307,2.034l5.823,-7.975l5.861,-5.819l-2.732,-8.193l-5.133,-2.825Z" style="fill:#4e4d47;fill-opacity:0.6;"/><path d="M43.311,52.596l11.093,7.279l4.987,12.305l-6.193,4.655l-6.854,2.239l-13.084,-7.51l-9.505,-0.225l0.59,-9.588l3.027,-4.73l5.465,-2.575l10.474,-1.85Z" style="fill:#acaba7;"/><path d="M44.635,58.646l11.093,7.279l4.987,12.305l-6.193,4.656l-6.854,2.239l-13.084,-7.511l-9.505,-0.224l0.59,-9.589l3.027,-4.73l5.465,-2.575l10.474,-1.85Z" style="fill:#4e4d47;fill-opacity:0.6;"/><path d="M108.167,136.493l-9.043,-1.18l-10.91,2.144l3.078,10.633l4.704,4.399l1.044,6.782l7.308,2.034l5.822,-7.975l5.862,-5.819l-2.733,-8.193l-5.132,-2.825Z" style="fill:#acaba7;"/><path d="M109.491,142.543l-9.043,-1.18l-10.91,2.144l3.078,10.633l4.704,4.4l1.044,6.781l7.308,2.035l5.822,-7.976l5.862,-5.818l-2.733,-8.194l-5.132,-2.825Z" style="fill:#4e4d47;fill-opacity:0.6;"/><path d="M111.004,151.571l11.093,7.279l4.988,12.305l-6.194,4.656l-6.854,2.239l-13.083,-7.511l-9.506,-0.224l0.591,-9.589l3.026,-4.73l5.465,-2.575l10.474,-1.85Z" style="fill:#acaba7;"/><path d="M112.328,157.621l11.093,7.279l4.988,12.306l-6.194,4.655l-6.854,2.239l-13.083,-7.511l-9.506,-0.224l0.591,-9.589l3.026,-4.73l5.465,-2.575l10.474,-1.85Z" style="fill:#4e4d47;fill-opacity:0.6;"/><path d="M71.258,94.889l13.261,7.177l6.693,12.517l-8.022,1.855l-6.962,-0.164l-13.869,-9.066l-6.626,-1.02l1.229,-6.54l-9.021,-9.518l0.401,-6.704l3.857,-1.328l5.559,2.14l2.027,2.84l11.473,7.811" style="fill:#acaba7;"/><path d="M72.582,100.94l13.261,7.176l6.693,12.517l-8.022,1.855l-6.962,-0.164l-13.869,-9.066l-6.626,-1.02l1.229,-6.539l-9.021,-9.518l0.401,-6.705l3.857,-1.328l5.559,2.14l2.027,2.84l11.473,7.812" style="fill:#4e4d47;fill-opacity:0.6;"/><path d="M49.177,65.291c1.554,1.056 11.037,13.464 11.037,13.464l1.229,12.009l-11.381,-1.446l-3.699,-7.686l-6.758,-6.965c0,0 8.018,-10.432 9.572,-9.376Z" style="fill:#acaba7;"/><path d="M50.501,71.341c1.554,1.056 11.037,13.464 11.037,13.464l1.229,12.009l-11.381,-1.446l-3.699,-7.685l-6.758,-6.965c0,0 8.018,-10.433 9.572,-9.377Z" style="fill:#4e4d47;fill-opacity:0.6;"/><path d="M128.734,167.517c1.554,1.056 11.037,13.464 11.037,13.464l1.229,12.009l-11.381,-1.446l-3.7,-7.685l-6.757,-6.965c0,0 8.018,-10.433 9.572,-9.377Z" style="fill:#acaba7;"/><path d="M130.058,173.567c1.554,1.056 11.037,13.464 11.037,13.464l1.229,12.009l-11.381,-1.445l-3.7,-7.686l-6.757,-6.965c0,0 8.018,-10.433 9.572,-9.377Z" style="fill:#4e4d47;fill-opacity:0.6;"/><path d="M145.517,77.491l-10.989,3.615l-5.785,9.531l5.511,6.148l11.432,5.328l9.899,-2.728l8.071,-5.226l-6.388,-6.897l-6.848,-5.966l-4.903,-3.805" style="fill:#acaba7;"/><path d="M146.911,83.526l-10.989,3.614l-5.785,9.532l5.511,6.148l11.432,5.328l9.899,-2.728l8.071,-5.227l-6.387,-6.896l-6.849,-5.967l-4.903,-3.804" style="fill:#4e4d47;fill-opacity:0.6;"/><path d="M189.375,138.748l-10.989,3.614l-5.786,9.531l5.511,6.149l11.432,5.327l9.899,-2.727l8.071,-5.227l-6.387,-6.896l-6.849,-5.967l-4.902,-3.804" style="fill:#acaba7;"/><path d="M190.769,144.782l-10.989,3.614l-5.786,9.532l5.511,6.148l11.433,5.328l9.898,-2.728l8.071,-5.227l-6.387,-6.896l-6.849,-5.966l-4.902,-3.805" style="fill:#4e4d47;fill-opacity:0.6;"/><path d="M155.686,91.393l-5.797,2.443l-8.615,8.4l6.057,8.28l9.448,-0.542l7.817,-3.456l-8.055,-7.802l0.999,-1.94l-0.488,-2.854l-1.366,-2.529Z" style="fill:#acaba7;"/><path d="M157.08,97.428l-5.797,2.442l-7.21,7.024l3.276,3.711l8.938,-0.287l5.096,-3.005l-3.448,-2.563l0.999,-1.939l-0.488,-2.855l-1.366,-2.528Z" style="fill:#4e4d47;fill-opacity:0.6;"/><path d="M86.652,112.514l-7.526,2.082l-3.034,5.726l7.257,11.683l9.503,9.851l7.024,-4.294l5.242,-9.895l-18.466,-15.153Z" style="fill:#acaba7;"/><path d="M87.976,118.564l-7.526,2.082l-3.034,5.726l8.762,11.743l6.467,4.954l6.225,-4.92l1.316,-1.04l4.883,-6.025l-17.093,-12.52Z" style="fill:#4e4d47;fill-opacity:0.6;"/></g></g></g></svg>