<?xml version="1.0" encoding="UTF-8" standalone="no"?><!DOCTYPE svg PUBLIC "-//W3C//DTD SVG 1.1//EN" "http://www.w3.org/Graphics/SVG/1.1/DTD/svg11.dtd"><svg width="100%" height="100%" viewBox="0 0 223 152" version="1.1" xmlns="http://www.w3.org/2000/svg" xmlns:xlink="http://www.w3.org/1999/xlink" xml:space="preserve" xmlns:serif="http://www.serif.com/" style="fill-rule:evenodd;clip-rule:evenodd;stroke-linecap:round;stroke-linejoin:round;stroke-miterlimit:1.5;"><g id="Stone_Ramp_LeftDown_high-angle1"><g><g><path d="M115.395,54.614l107.509,42.774l-107.509,53.824c-30.259,-40.834 0,-96.598 0,-96.598Z" style="fill:#beb3a6;"/><clipPath id="_clip1"><path d="M115.395,54.614l107.509,42.774l-107.509,53.824c-30.259,-40.834 0,-96.598 0,-96.598Z"/></clipPath><g clip-path="url(#_clip1)"><g><path d="M120.923,182.102l-7.47,-8.393l0.629,-15.38l4.861,-8.365l7.639,3.248l3.734,6.805l0.66,10.712l-10.053,11.373" style="fill:#c0c0c0;"/><path d="M144.464,151.818l6.48,-6.062l-3.057,-12.565l-8.623,-2.464l-7.622,-1.443l-2.977,3.951l-3.5,-1.489l-5.378,1.086l-1.634,4.319l5.651,4.448l4.24,3.091l7.816,4.704l8.604,2.424Z" style="fill:#c0c0c0;"/><path d="M181.451,158.123l7.62,-4.416l4.724,-10.592l-3.045,-9.558l-19.234,-2.963l-6.431,7.697l-1.006,7.708l6.329,7.428l11.043,4.696Z" style="fill:#c0c0c0;"/><path d="M203.226,121.663l8.069,-10.665l-1.706,-5.942l-8.575,-19.294c0,0 -7.897,5.94 -10.383,6.016c-2.486,0.077 -7.683,4.453 -7.683,4.453l3.152,9.268l8.6,6.112l8.526,10.052Z" style="fill:#c0c0c0;"/><path d="M155.124,126.335l10.639,-1.857l10.285,-7.605l-2.017,-7.626l-4.768,-5.692l-7.68,1.95l-4.984,5.389l-3.648,6.588l2.173,8.853" style="fill:#c0c0c0;"/><path d="M213.936,153.849l-9.119,-6.381l-10.414,5.504l-4.462,14.856l14.946,3.037l6.387,-5.869l2.662,-11.147" style="fill:#c0c0c0;"/><path d="M126.29,96.037l-7.471,-8.393l0.629,-15.38l4.861,-8.365l7.639,3.248l3.734,6.804l0.661,10.713l-10.053,11.373" style="fill:#c0c0c0;"/><path d="M138.709,114.569l-9.714,-5.466l1.146,-6.212l5.191,-3.008l4.057,1.725l4.47,4.429l-0.085,5.597l-5.065,2.935Z" style="fill:#c0c0c0;"/><path d="M168.992,90.974l-5.042,5.431l-10.806,-0.849l-2.238,-4.698l-1.605,-8.155l10.344,-11.542l3.07,5.211l5.436,0.955l2.99,10.126l-2.149,3.521" style="fill:#c0c0c0;"/><path d="M154.811,67.954l6.48,-6.062l-3.056,-12.565l-8.624,-2.463l-7.622,-1.443l-2.977,3.95l-3.5,-1.489l-5.378,1.086l-1.634,4.32l5.651,4.447l4.24,3.091l7.817,4.704l8.603,2.424Z" style="fill:#c0c0c0;"/><path d="M183.549,79.569l7.621,-4.416l4.724,-10.593l-3.045,-9.557l-19.234,-2.964l-6.431,7.697l-1.006,7.709l6.329,7.428l11.042,4.696Z" style="fill:#c0c0c0;"/><path d="M211.234,45.425l8.069,-10.664l-1.707,-5.942l-8.575,-19.295c0,0 -7.896,5.94 -10.382,6.017c-2.486,0.076 -7.683,4.452 -7.683,4.452l3.152,9.269l8.599,6.112l8.527,10.051Z" style="fill:#c0c0c0;"/><path d="M164.237,49.516l10.639,-1.857l10.285,-7.605l-2.017,-7.626l-4.768,-5.692l-7.68,1.951l-4.984,5.388l-3.648,6.589l2.173,8.852" style="fill:#c0c0c0;"/><path d="M219.303,67.784l-9.12,-6.381l-10.414,5.504l-4.461,14.856l14.945,3.037l6.387,-5.87l2.663,-11.146" style="fill:#c0c0c0;"/><path d="M131.81,205.905l-9.714,-5.466l1.146,-6.212l5.191,-3.008l4.057,1.725l4.47,4.429l-0.085,5.597l-5.065,2.935Zm30.283,-23.595l-5.042,5.431l-10.806,-0.849l-2.238,-4.698l-1.605,-8.155l10.344,-11.542l3.07,5.211l5.436,0.955l2.99,10.126l-2.149,3.521Zm-42.702,5.063l-7.471,-8.393l0.629,-15.38l4.861,-8.365l7.639,3.248l3.734,6.804l0.66,10.713l-10.052,11.373Zm93.013,-28.253l-2.663,11.146l-6.387,5.87l-14.945,-3.037l4.461,-14.856l10.414,-5.504l9.12,6.381Zm-32.486,4.274l7.621,-4.416l4.724,-10.592l-3.046,-9.558l-19.233,-2.963l-6.432,7.696l-1.006,7.709l6.329,7.428l11.043,4.696Zm-36.986,-6.305l6.479,-6.062l-3.056,-12.565l-8.623,-2.464l-7.623,-1.443l-2.976,3.95l-3.5,-1.488l-5.379,1.086l-1.633,4.319l5.65,4.448l4.241,3.091l7.816,4.704l8.604,2.424Zm10.659,-25.483l10.639,-1.857l10.285,-7.606l-2.017,-7.625l-4.768,-5.692l-7.679,1.95l-4.985,5.389l-3.648,6.588l2.173,8.853Zm48.103,-4.672l8.069,-10.665l-1.707,-5.942l-8.575,-19.294c0,0 -7.897,5.94 -10.382,6.016c-2.486,0.077 -7.683,4.453 -7.683,4.453l3.152,9.268l8.599,6.112l8.527,10.052Zm-64.518,-7.094l-9.713,-5.466l1.145,-6.212l5.192,-3.008l4.056,1.725l4.47,4.429l-0.084,5.597l-5.066,2.935Zm30.283,-23.595l-5.042,5.431l-10.805,-0.849l-2.238,-4.698l-1.605,-8.155l10.343,-11.542l3.071,5.211l5.435,0.955l2.991,10.126l-2.15,3.521Zm-42.702,5.063l-7.47,-8.393l0.629,-15.38l4.861,-8.365l7.639,3.248l3.734,6.804l0.66,10.713l-10.053,11.373Zm93.013,-28.253l-2.662,11.146l-6.387,5.87l-14.946,-3.037l4.462,-14.856l10.414,-5.505l9.119,6.382Zm-35.753,11.785l7.62,-4.416l4.724,-10.593l-3.045,-9.557l-19.233,-2.964l-6.432,7.697l-1.006,7.709l6.329,7.427l11.043,4.697Zm-28.738,-11.615l6.48,-6.062l-3.057,-12.565l-8.623,-2.463l-7.622,-1.443l-2.977,3.95l-3.5,-1.489l-5.378,1.086l-1.634,4.32l5.651,4.447l4.24,3.091l7.816,4.704l8.604,2.424Zm9.425,-18.438l10.639,-1.857l10.285,-7.605l-2.016,-7.626l-4.769,-5.692l-7.679,1.951l-4.985,5.388l-3.648,6.589l2.173,8.852Zm46.997,-4.091l8.069,-10.664l-1.706,-5.942l-8.575,-19.295c0,0 -7.897,5.94 -10.383,6.017c-2.486,0.076 -7.683,4.452 -7.683,4.452l3.152,9.269l8.6,6.112l8.526,10.051Z" style="fill:#4e4d47;fill-opacity:0.2;"/></g></g></g><path d="M8.064,0.948l107.331,53.666l-5.366,29.516l8.588,33.271l-3.222,33.811l-107.331,-53.666l-3.551,-23.242l5.44,-36.735l-1.889,-36.621" style="fill:#857c6c;"/><clipPath id="_clip2"><path d="M8.064,0.948l107.331,53.666l-5.366,29.516l8.588,33.271l-3.222,33.811l-107.331,-53.666l-3.551,-23.242l5.44,-36.735l-1.889,-36.621"/></clipPath><g clip-path="url(#_clip2)"><g><path d="M13.557,172.925l-7.471,-8.946l0.629,-16.394l4.861,-8.916l7.639,3.463l3.734,7.252l0.66,11.418l-10.052,12.123" style="fill:#857c6c;"/><path d="M56.258,167.528l-5.042,5.788l-10.805,-0.904l-2.238,-5.008l-1.605,-8.692l10.343,-12.302l3.071,5.554l5.435,1.018l2.991,10.793l-2.15,3.753" style="fill:#857c6c;"/><path d="M37.097,140.645l6.48,-6.461l-3.057,-13.393l-8.623,-2.625l-7.622,-1.538l-2.977,4.21l-3.5,-1.587l-5.378,1.157l-1.634,4.605l5.651,4.741l4.24,3.294l7.816,5.013l8.604,2.584Z" style="fill:#857c6c;"/><path d="M74.084,147.366l7.62,-4.707l4.724,-11.29l-3.045,-10.187l-19.233,-3.159l-6.432,8.204l-1.006,8.216l6.329,7.917l11.043,5.006Z" style="fill:#857c6c;"/><path d="M96.092,116.151l8.069,-11.367l-1.707,-6.334l-8.575,-20.565c0,0 -7.896,6.331 -10.382,6.413c-2.486,0.081 -7.683,4.745 -7.683,4.745l3.152,9.88l8.599,6.514l8.527,10.714Z" style="fill:#857c6c;"/><path d="M47.757,113.484l10.639,-1.98l10.285,-8.106l-2.017,-8.128l-4.768,-6.067l-7.68,2.079l-4.984,5.743l-3.648,7.023l2.173,9.436" style="fill:#857c6c;"/><path d="M113.755,130.729l-9.093,-6.35l-10.432,5.551l-4.516,14.884l14.93,2.979l6.408,-5.899l2.703,-11.165" style="fill:#857c6c;"/><path d="M18.923,81.19l-7.471,-8.945l0.629,-16.394l4.861,-8.916l7.639,3.463l3.734,7.252l0.661,11.418l-10.053,12.122" style="fill:#857c6c;"/><path d="M31.342,100.943l-9.714,-5.827l1.146,-6.62l5.191,-3.207l4.057,1.839l4.47,4.721l-0.085,5.965l-5.065,3.129Z" style="fill:#857c6c;"/><path d="M55.074,79.937l-5.042,5.788l-10.806,-0.904l-2.238,-5.008l-1.605,-8.692l10.344,-12.302l3.07,5.554l5.436,1.018l2.99,10.793l-2.149,3.753" style="fill:#857c6c;"/><path d="M24.772,43.331l9.013,-1.578l5.175,-12.725l-5.559,-7.095l-5.362,-5.631l-4.853,1.742l-1.958,-3.306l-5.07,-2.136l-3.978,2.835l1.911,7.124l1.585,5.13l3.528,8.59l5.568,7.05Z" style="fill:#857c6c;"/><path d="M65.485,61.899l7.621,-4.707l4.723,-11.29l-3.045,-10.187l-19.233,-3.159l-6.432,8.204l-1.006,8.216l6.329,7.917l11.043,5.006Z" style="fill:#857c6c;"/><path d="M101.226,16.77l8.069,-11.367l-1.707,-6.334l-8.574,-20.565c0,0 -7.897,6.331 -10.383,6.413c-2.486,0.082 -7.683,4.745 -7.683,4.745l3.152,9.88l8.6,6.514l8.526,10.714Z" style="fill:#857c6c;"/><path d="M53.123,21.75l10.639,-1.98l10.285,-8.106l-2.016,-8.128l-4.769,-6.067l-7.679,2.079l-4.985,5.743l-3.648,7.023l2.173,9.436" style="fill:#857c6c;"/><path d="M104.662,54.549l-9.119,-6.802l-10.414,5.868l-4.461,15.834l14.945,3.237l6.387,-6.256l2.662,-11.881" style="fill:#857c6c;"/></g><path d="M22.249,193.679l-9.714,-5.827l1.146,-6.621l5.191,-3.206l4.057,1.839l4.47,4.721l-0.085,5.965l-5.065,3.129Zm30.283,-25.149l-5.042,5.788l-10.806,-0.905l-2.238,-5.007l-1.605,-8.693l10.344,-12.302l3.07,5.555l5.436,1.018l2.99,10.793l-2.149,3.753Zm-42.702,5.396l-7.471,-8.946l0.629,-16.393l4.861,-8.916l7.639,3.463l3.734,7.252l0.66,11.418l-10.052,12.122Zm100.199,-42.196l-2.704,11.166l-6.408,5.899l-14.93,-2.979l4.516,-14.885l10.433,-5.55l9.093,6.349Zm-39.672,16.637l7.621,-4.706l4.724,-11.29l-3.046,-10.188l-19.233,-3.158l-6.432,8.204l-1.006,8.216l6.329,7.917l11.043,5.005Zm-36.986,-6.72l6.479,-6.461l-3.056,-13.393l-8.623,-2.626l-7.623,-1.538l-2.976,4.211l-3.5,-1.587l-5.379,1.157l-1.633,4.604l5.65,4.741l4.241,3.295l7.816,5.013l8.604,2.584Zm58.994,-24.495l8.069,-11.367l-1.706,-6.333l-8.575,-20.565c0,0 -7.897,6.331 -10.383,6.413c-2.486,0.081 -7.683,4.745 -7.683,4.745l3.152,9.88l8.6,6.514l8.526,10.713Zm-48.335,-2.667l10.639,-1.979l10.285,-8.106l-2.017,-8.128l-4.768,-6.067l-7.679,2.079l-4.985,5.743l-3.648,7.023l2.173,9.435Zm-16.415,-12.54l-9.713,-5.827l1.145,-6.621l5.192,-3.206l4.056,1.839l4.471,4.721l-0.085,5.965l-5.066,3.129Zm23.732,-21.006l-5.042,5.788l-10.806,-0.905l-2.237,-5.007l-1.606,-8.693l10.344,-12.302l3.071,5.555l5.435,1.018l2.991,10.793l-2.15,3.753Zm-36.151,1.253l-7.47,-8.946l0.629,-16.393l4.861,-8.916l7.639,3.462l3.734,7.253l0.66,11.418l-10.053,12.122Zm85.74,-26.641l-2.663,11.881l-6.387,6.256l-14.945,-3.237l4.461,-15.834l10.414,-5.868l9.12,6.802Zm-39.178,7.35l7.621,-4.707l4.724,-11.29l-3.045,-10.188l-19.234,-3.158l-6.431,8.204l-1.006,8.216l6.329,7.917l11.042,5.006Zm-40.713,-18.568l9.014,-1.578l5.175,-12.725l-5.559,-7.096l-5.363,-5.63l-4.853,1.742l-1.958,-3.307l-5.069,-2.136l-3.979,2.836l1.911,7.124l1.585,5.13l3.529,8.589l5.567,7.051Zm32.928,-25.797l6.063,2.236l10.285,-8.106l-2.017,-8.128l-4.768,-6.067l-7.68,2.079l-4.984,5.743l-3.648,7.023l6.749,5.22Zm43.527,-0.765l8.068,-11.367l-1.706,-6.333l-8.575,-20.565c0,0 -7.897,6.331 -10.383,6.413c-2.486,0.081 -7.683,4.745 -7.683,4.745l3.152,9.88l8.6,6.514l8.527,10.713Z" style="fill:#4e4d47;fill-opacity:0.6;"/></g></g><path d="M222.904,97.388l-107.331,-53.665l-107.509,-42.843l10.733,7.116l32.377,17.571l33.71,15.631l30.511,13.348l107.509,42.842Z" style="fill:#acaba7;"/><clipPath id="_clip3"><path d="M222.904,97.388l-107.331,-53.665l-107.509,-42.843l10.733,7.116l32.377,17.571l33.71,15.631l30.511,13.348l107.509,42.842Z"/></clipPath><g clip-path="url(#_clip3)"><path d="M190.527,16.98c-1.62,-2.35 -41.139,-4.125 -39.943,-23.447c0.693,-11.186 -13.274,-6.448 -46.623,-17.141c-3.267,-1.048 -10.018,-7.712 -20.765,-13.078c-26.494,-13.227 -64.207,-12.397 -64.207,-12.397l153.225,-35.789l73.088,90.564l-54.775,11.288Z" style="fill:#847a70;fill-opacity:0.5;"/><g><g><path d="M200.963,15.707l8.163,-4.081l-0.518,-8.196l-9.044,-3.123l-7.159,-4.979l-10.548,-2.267l-10.546,10.639l4.09,8.689l9.462,6.001l16.1,-2.683Z" style="fill:#acaba7;stroke:#000;stroke-width:1px;"/><path d="M152.664,-12.398l14.664,1.99l-5.999,20.445l-12.295,-0.565l-9.123,2.542l-2.034,-6.384l-10.081,-7.005l3.402,-9.357l5.366,-4.48l10.733,0.131l5.367,2.683Z" style="fill:#acaba7;stroke:#000;stroke-width:1px;"/><path d="M105.445,-7.301l-8.543,3.192l-8.637,7.002l7.699,7.954l6.215,1.686l4.098,5.503l7.41,-1.623l1.411,-9.774l2.455,-7.885l-6.25,-5.961l-5.858,-0.094Z" style="fill:#acaba7;stroke:#000;stroke-width:1px;"/><path d="M56.066,-13.809l13.21,1.239l10.169,8.538l-3.294,7.013l-5.008,5.188l-15.077,-0.512l-8.505,4.253l-3.967,-8.75l0.46,-5.596l3.623,-4.834l8.389,-6.539Z" style="fill:#acaba7;stroke:#000;stroke-width:1px;"/><path d="M127.625,19.486l-8.114,8.245l-0.779,11.122l7.714,2.943l12.603,-0.498l7.551,-6.958l4.782,-8.342l-8.836,-3.206l-8.821,-2.168l-6.1,-1.138" style="fill:#acaba7;stroke:#000;stroke-width:1px;"/><path d="M170.017,17.639l-4.035,4.825l-3.812,11.412l9.176,4.589l8.151,-4.809l5.366,-6.651l-10.733,-3.248l0,-2.182l-1.741,-2.314l-2.372,-1.622Z" style="fill:#acaba7;stroke:#000;stroke-width:1px;"/></g></g></g><g><g><path d="M44.357,20.784l-8.845,-3.115l-2.857,-4.297l6.71,-0.612l4.298,-1.816l8.381,0.017l13.597,6.878l-0.093,4.145l-5.915,2.093l-15.276,-3.293Z" style="fill:#b6afa7;"/><path d="M76.712,22.71l-11.476,-3.957l9.843,14.85l9.889,4.005l8.055,4.814l0.113,-3.252l6.524,-0.788l-5.04,-7.029l-5.461,-4.69l-8.72,-3.721l-3.727,-0.232Z" style="fill:#b6afa7;"/><path d="M116.212,38.906l7.739,5.013l8.738,7.417l-4.352,2.223l-4.66,-1.153l-2.009,1.974l-6.435,-3.636l-3.517,-6.583l-3.912,-5.777l3.654,-1.496l4.754,2.018Z" style="fill:#b6afa7;"/><path d="M152.043,54.562l-10.472,-3.909l-6.224,1.711l4.384,5.532l5.34,5.003l12.17,5.023l7.965,5.66l1.117,-4.04l-1.73,-3.646l-4.126,-4.292l-8.424,-7.042Z" style="fill:#b6afa7;"/><path d="M190.145,73.618c-1.473,-0.534 -11.464,-1.501 -11.464,-1.501l-3.04,3.87l9.733,6.324l4.376,-0.716l6.803,1.41c0,0 -4.935,-8.854 -6.408,-9.387Z" style="fill:#b6afa7;"/><path d="M109.598,43.873l8.613,8.006l3.328,7.199l-5.578,-0.902l-10.397,-4.776l-7.843,-7.005l-5.919,-6.886l6.429,1.135l6.667,1.775l4.7,1.454" style="fill:#b6afa7;"/></g><g><g opacity="0.3"><path d="M42.21,22.525l-8.845,-3.116l-1.729,-3.684l5.582,-1.225l4.298,-1.816l8.381,0.017l13.597,6.879l-0.093,4.144l-5.915,2.093l-15.276,-3.292Z" style="fill:#b6afa7;"/><path d="M74.169,23.792l-11.476,-3.957l9.842,14.85l9.89,4.005l8.054,4.814l0.113,-3.253l6.525,-0.788l-5.04,-7.029l-5.461,-4.689l-8.721,-3.722l-3.726,-0.231Z" style="fill:#b6afa7;"/><path d="M113.668,39.987l7.739,5.013l8.738,7.417l-1.807,1.136l-4.395,-0.981l-4.818,2.889l-6.436,-3.636l-3.517,-6.583l-3.911,-5.777l3.653,-1.495l4.754,2.017Z" style="fill:#b6afa7;"/><path d="M149.5,55.643l-10.472,-3.909l-6.224,1.711l4.384,5.532l5.339,5.003l12.171,5.024l7.965,5.659l1.116,-4.04l-1.73,-3.645l-4.125,-4.293l-8.424,-7.042Z" style="fill:#b6afa7;"/><path d="M187.496,75.504c-1.473,-0.534 -11.358,-2.306 -11.358,-2.306l-3.04,3.87l9.733,6.324l4.375,-0.715l6.804,1.409c0,0 -5.041,-8.048 -6.514,-8.582Z" style="fill:#b6afa7;"/><path d="M102.587,44.949l8.613,8.007l3.329,7.198l-5.579,-0.902l-10.397,-4.775l-7.842,-7.006l-5.92,-6.886l6.429,1.135l6.668,1.776l4.699,1.453" style="fill:#b6afa7;"/></g></g></g><g><g><path d="M58.7,124.621l11.496,4.495l1.806,-6.306l3.268,-22.04c0,0 -10.031,1.348 -12.203,0.135c-2.171,-1.213 -9.029,0.1 -9.029,0.1l-2.399,10.089l4.004,10.018l3.057,3.509Z" style="fill:#857c6c;"/><path d="M17.393,107.461l10.134,3.795l12.993,-1.636l2.467,-8.003l-0.954,-7.657l-7.65,-2.183l-7.234,2.347l-6.748,4.133l-3.008,9.204" style="fill:#857c6c;"/><path d="M9.36,64.92l-1.783,-11.518l8.998,-13.717l8.765,-5.129l4.757,6.908l-0.544,8.139l-5.327,10.122l-14.866,5.195" style="fill:#857c6c;"/><path d="M9.804,88.248l-5.314,-10.003l4.398,-5.08l6.102,-0.068l2.526,3.669l1.392,6.35l-3.151,5.066l-5.953,0.066Z" style="fill:#857c6c;"/><path d="M40.972,82.502l-7.306,2.356l-8.789,-6.351l0.667,-5.444l3.111,-8.274l15.208,-5.2l-0.236,6.342l4.131,3.678l-3.008,10.788l-3.778,2.105" style="fill:#857c6c;"/><path d="M29.884,45.188l8.535,3.3l10.999,-8.229l-1.099,-8.947l-1.688,-7.59l-5.056,-1.012l0.029,-3.843l-3.24,-4.445l-4.871,0.375l-2.039,7.089l-1.29,5.212l-1.41,9.178l1.13,8.912Z" style="fill:#857c6c;"/><path d="M59.198,72.424l8.956,-0.099l9.873,-7.233l2.649,-10.298l-14.845,-12.63l-9.743,3.708l-5.101,6.518l1.335,10.048l6.876,9.986Z" style="fill:#857c6c;"/><path d="M96.548,86.346l-4.301,-10.533l-11.948,-0.348l-11.992,11.261l11.131,10.485l8.699,-2.063l8.411,-8.802" style="fill:#857c6c;"/></g><path d="M52.131,119.58l14.868,7.519l1.294,-5.354l3.268,-22.04c0,0 -10.031,1.348 -12.203,0.135c-2.171,-1.213 -9.03,0.1 -9.03,0.1l-2.398,10.089l4.201,9.551Zm-38.447,-13.184l10.134,3.795l12.993,-1.636l2.467,-8.003l-0.954,-7.657l-7.65,-2.183l-7.234,2.347l-6.748,4.133l-3.008,9.204Zm-7.589,-19.213l-5.314,-10.003l4.398,-5.08l6.102,-0.068l2.526,3.669l1.392,6.35l-3.151,5.066l-5.953,0.066Zm31.168,-5.746l-7.306,2.356l-8.789,-6.351l0.667,-5.444l3.111,-8.274l15.208,-5.2l-0.236,6.342l4.131,3.678l-3.008,10.788l-3.778,2.105Zm-31.612,-17.582l-1.783,-11.518l8.998,-13.717l8.765,-5.129l4.757,6.908l-0.544,8.139l-5.327,10.122l-14.866,5.195Zm87.188,21.426l-8.411,8.802l-8.699,2.063l-11.131,-10.485l11.992,-11.261l11.948,0.348l4.301,10.533Zm-37.35,-13.922l8.956,-0.099l9.873,-7.233l2.649,-10.298l-14.845,-12.63l-9.743,3.708l-5.101,6.518l1.335,10.048l6.876,9.986Zm-27.389,-20.738l8.535,3.299l11,-8.228l-1.1,-8.947l-1.688,-7.591l-5.056,-1.011l0.03,-3.843l-3.241,-4.446l-4.871,0.376l-2.039,7.088l-1.29,5.212l-1.41,9.179l1.13,8.912Z" style="fill:#4e4d47;fill-opacity:0.6;"/></g><g><path d="M64.263,110.297l0.717,-11.213l11.379,-10.366l9.367,-2.424l3.06,7.716l-2.213,7.439l-7.154,8.001l-15.156,0.847" style="fill:#857c6c;"/><path d="M97.885,137.105l-7.406,0.232l-6.994,-8.281l1.768,-4.894l4.671,-6.875l15.48,-0.759l-1.547,5.847l3.142,4.537l-5.099,9.246l-4.015,0.947" style="fill:#857c6c;"/><path d="M106.474,107.736l8.867,0.346l6.786,-11.007l-4.31,-7.864l-4.333,-6.435l-4.902,0.66l-1.402,-3.536l-4.553,-3.061l-4.221,1.875l0.81,7.146l0.783,5.188l2.15,8.865l4.325,7.823Z" style="fill:#c0c0c0;"/><path d="M123.87,136.482l8.498,2.315l10.853,-4.088l4.656,-8.885l-11.414,-15.761l-9.996,0.837l-6.189,4.704l-0.832,9.723l4.424,11.155Z" style="fill:#c0c0c0;"/><path d="M165.108,126.334l13.256,-1.759l3.026,-5.392l7.693,-19.662c0,0 -9.777,-1.44 -11.579,-3.154c-1.802,-1.714 -8.567,-2.334 -8.567,-2.334l-4.376,8.758l1.7,10.413l-1.153,13.13Z" style="fill:#c0c0c0;"/><path d="M127.966,95.411l8.801,6.26l12.639,1.967l4.005,-6.795l0.695,-7.392l-6.786,-4.09l-7.336,0.243l-7.25,2.038l-4.768,7.769" style="fill:#c0c0c0;"/><path d="M124.793,75.466l-2.942,-10.751l5.223,-3.552l5.789,1.577l1.625,4.097l-0.007,6.293l-4.039,3.875l-5.649,-1.539Z" style="fill:#c0c0c0;"/><path d="M154.758,84.205l-7.406,0.232l-6.994,-8.281l1.768,-4.894l4.671,-6.875l15.48,-0.759l-1.547,5.847l3.142,4.537l-5.099,9.246l-4.015,0.947" style="fill:#c0c0c0;"/><path d="M169.285,92.561l8.498,2.315l10.854,-4.088l4.656,-8.885l-11.415,-15.761l-9.995,0.838l-6.189,4.704l-0.833,9.723l4.424,11.154Z" style="fill:#c0c0c0;"/><path d="M214.725,99.887l-1.873,-10.971l-11.236,-3.536l-13.701,7.272l8.347,12.763l8.665,0.415l9.798,-5.943" style="fill:#c0c0c0;"/><path d="M97.075,138.774l-18.416,-7.102l1.768,-4.895l4.671,-6.874l15.48,-0.759l-1.547,5.847l3.142,4.537l-5.098,9.246Zm-37.638,-25.861l0.717,-11.213l11.38,-10.366l9.366,-2.424l3.06,7.716l-2.213,7.439l-7.154,8.001l-15.156,0.847Zm59.607,26.185l8.498,2.315l10.853,-4.088l4.657,-8.885l-11.415,-15.761l-9.996,0.837l-6.189,4.704l-0.832,9.723l4.424,11.155Zm-21.52,-30.736l8.867,0.346l6.786,-11.007l-4.31,-7.864l-4.333,-6.435l-4.902,0.66l-1.402,-3.535l-4.553,-3.062l-4.221,1.875l0.81,7.146l0.783,5.188l2.15,8.866l4.325,7.822Zm25.616,-10.335l8.801,6.26l12.639,1.967l4.005,-6.795l0.695,-7.393l-6.785,-4.089l-7.337,0.243l-7.25,2.038l-4.768,7.769Zm37.142,30.923l13.256,-1.76l3.026,-5.391l7.693,-19.662c0,0 -9.776,-1.44 -11.579,-3.154c-1.802,-1.714 -8.567,-2.334 -8.567,-2.334l-4.376,8.758l1.7,10.413l-1.153,13.13Zm-40.315,-50.868l-2.942,-10.751l5.223,-3.552l5.789,1.576l1.625,4.098l-0.007,6.293l-4.039,3.874l-5.649,-1.538Zm32.387,8.166l-7.407,0.232l-6.994,-8.281l1.768,-4.895l4.671,-6.875l15.48,-0.758l-1.547,5.847l3.142,4.537l-5.098,9.246l-4.015,0.947Zm57.545,16.255l-9.798,5.943l-8.665,-0.415l-8.347,-12.763l8.017,-4.054l16.92,0.318l1.873,10.971Zm-45.301,-6.235l8.498,2.314l10.854,-4.087l5.495,-13.836l-12.254,-10.811l-9.995,0.838l-6.189,4.704l-0.833,9.723l4.424,11.155Z" style="fill:#4e4d47;fill-opacity:0.2;"/></g></g></svg>