<?xml version="1.0" encoding="UTF-8" standalone="no"?><!DOCTYPE svg PUBLIC "-//W3C//DTD SVG 1.1//EN" "http://www.w3.org/Graphics/SVG/1.1/DTD/svg11.dtd"><svg width="100%" height="100%" viewBox="0 0 333 262" version="1.1" xmlns="http://www.w3.org/2000/svg" xmlns:xlink="http://www.w3.org/1999/xlink" xml:space="preserve" xmlns:serif="http://www.serif.com/" style="fill-rule:evenodd;clip-rule:evenodd;stroke-linecap:round;stroke-linejoin:round;stroke-miterlimit:1.5;"><g id="Stone_Ramp_RightUp_low-angle1"><path d="M325.383,53.945l-18.529,-12.135l-20.978,-5.61l-21.367,-12.624l-15.817,-7.932l-14.541,-1.881l-16.1,-13.484l-11.049,16.009l-31.033,15.517l-16.1,24.149l-21.74,16.237l-10.459,15.963l-16.1,8.049l-5.366,10.959l-10.734,5.366l-21.466,24.611l-16.099,12.73l-16.1,18.783l-16.1,18.783l-21.466,16.1l107.331,53.665l207.66,-175.231l6.153,-28.024Z" style="fill:#b6afa7;"/><clipPath id="_clip1"><path d="M325.383,53.945l-18.529,-12.135l-20.978,-5.61l-21.367,-12.624l-15.817,-7.932l-14.541,-1.881l-16.1,-13.484l-11.049,16.009l-31.033,15.517l-16.1,24.149l-21.74,16.237l-10.459,15.963l-16.1,8.049l-5.366,10.959l-10.734,5.366l-21.466,24.611l-16.099,12.73l-16.1,18.783l-16.1,18.783l-21.466,16.1l107.331,53.665l207.66,-175.231l6.153,-28.024Z"/></clipPath><g clip-path="url(#_clip1)"><g><g><path d="M303.619,68.772l8.162,-4.082l-0.517,-8.196l-9.045,-3.122l-7.158,-4.979l-10.548,-2.268l-10.546,10.64l4.09,8.688l9.462,6.002l16.1,-2.683Z" style="fill:#acaba7;"/><path d="M255.32,40.666l14.664,1.99l-5.999,20.445l-12.295,-0.564l-9.123,2.541l-2.034,-6.383l-10.081,-7.005l3.402,-9.358l5.366,-4.479l10.733,0.13l5.367,2.683Z" style="fill:#acaba7;"/><path d="M230.452,32.188l14.135,-0.172l9.298,2.591l3.035,-1.518l3.766,-1.883l-2.821,-3.956l-2.545,-4.094l-6.616,-0.487l-4.117,-2.058l-5.367,-0.139l-12.168,0.718l-0.532,2.274l0.174,6.845l3.758,1.879Z" style="fill:#acaba7;"/><path d="M199.002,16.463l10.99,-2.843l6.618,4.55l5.1,5.691l-3.956,4.218l-10.733,3.127l-10.733,3.66l-7.91,3.118l0.735,-4.999l-3.558,-1.779l-1.789,-4.473l1.789,-2.862l13.447,-7.408" style="fill:#acaba7;"/><path d="M208.101,45.764l-8.543,3.191l-8.637,7.002l7.698,7.954l6.216,1.686l4.098,5.503l7.41,-1.623l1.411,-9.774l2.455,-7.885l-6.25,-5.961l-5.858,-0.093Z" style="fill:#acaba7;"/><path d="M158.722,39.255l13.21,1.239l10.169,8.538l-3.294,7.014l-5.008,5.187l-15.077,-0.511l-8.505,4.252l-3.967,-8.749l0.459,-5.597l3.624,-4.834l8.389,-6.539Z" style="fill:#acaba7;"/><path d="M177.883,75.669l15.078,0.133l11.775,7.927l-6.22,5.394l-6.228,3.115l-16.501,-1.517l-6.332,2.2l-1.975,-6.354l-12.428,-4.187l-2.785,-6.111l2.786,-2.98l5.915,-0.711l3.12,1.56l13.795,1.531" style="fill:#acaba7;"/><path d="M230.281,72.55l-8.115,8.245l-0.779,11.123l7.715,2.942l12.603,-0.498l7.551,-6.958l4.782,-8.342l-8.836,-3.206l-8.821,-2.168l-6.1,-1.138" style="fill:#acaba7;"/><path d="M272.673,70.703l-4.035,4.826l-3.813,11.412l9.177,4.588l8.151,-4.808l5.366,-6.652l-10.733,-3.248l0,-2.181l-1.741,-2.315l-2.372,-1.622Z" style="fill:#acaba7;"/><path d="M203.506,95.421l-4.634,4.876l0,5.889l9.703,6.295l10.622,3.868l3.427,-6.438l0,-10.177l-19.118,-4.313Z" style="fill:#acaba7;"/></g><g><g opacity="0.25"><path d="M307.993,72.999l8.163,-4.081l-1.352,-7.224l-8.21,-4.095l-7.159,-4.979l-10.548,-2.267l-10.545,10.639l4.089,8.688l9.463,6.002l16.099,-2.683Z" style="fill:#4e4d47;"/><path d="M259.694,44.894l14.665,1.99l-5.999,20.445l-12.296,-0.565l-9.122,2.542l-2.035,-6.384l-10.081,-7.005l3.402,-9.357l5.367,-4.48l10.733,0.13l5.366,2.684Z" style="fill:#4e4d47;"/><path d="M234.826,36.415l14.135,-0.172l9.298,2.591l3.036,-1.518l3.038,-1.54l-6.394,-3.197l2.747,-1.373l-7.608,-4.309l-4.117,-2.059l-5.366,-0.138l-12.169,0.718l-0.532,2.273l0.175,6.846l3.757,1.878Z" style="fill:#4e4d47;"/><path d="M203.377,20.691l10.989,-2.843l6.619,4.549l5.099,5.692l-3.956,4.218l-10.733,3.126l-10.733,3.661l-7.91,3.117l-4.67,-3.021l0.683,-5.709l4.641,-2.676l-1.789,-6.261l11.76,-3.853" style="fill:#4e4d47;"/><path d="M212.475,49.991l-8.543,3.192l-8.636,7.001l3.319,3.715l5.923,1.795l8.77,9.634l7.41,-1.624l1.41,-9.773l2.455,-7.886l-6.25,-5.96l-5.858,-0.094Z" style="fill:#4e4d47;"/><path d="M163.096,43.483l13.211,1.239l10.168,8.538l-3.294,7.013l-5.008,5.187l-15.077,-0.511l-8.504,4.252l-3.968,-8.749l0.46,-5.596l3.623,-4.834l8.389,-6.539Z" style="fill:#4e4d47;"/><path d="M182.258,79.897l15.077,0.132l11.775,7.927l-6.219,5.395l-6.229,3.114l-16.5,-1.517l-6.333,2.201l-4.593,-4.119l-1.769,-5.967l-9.049,-3.08l-1.776,-3.487l2.786,-2.98l5.914,-0.711l3.121,1.561l13.795,1.531" style="fill:#4e4d47;"/><path d="M129.007,62.559c1.867,0.206 15.439,5.084 15.439,5.084l6.708,10.037l-10.733,4.05l-6.868,-5.059l-9.232,-2.99c0,0 2.819,-11.327 4.686,-11.122Z" style="fill:#4e4d47;"/><path d="M234.655,76.778l-8.114,8.245l-0.779,11.122l7.715,2.943l12.602,-0.499l7.551,-6.957l4.782,-8.342l-8.836,-3.207l-8.82,-2.168l-6.101,-1.137" style="fill:#4e4d47;"/><path d="M277.047,74.93l-4.035,4.826l-3.812,11.412l5.113,0.424l7.56,-4.376l5.646,-6.514l-4.233,-1.738l-2.016,-0.504l-4.213,-1.768l-0.01,-1.762Z" style="fill:#4e4d47;"/><path d="M207.881,99.649l-4.635,4.875l0,5.89l9.973,5.429l8.784,2.916l4.995,-4.62l0,-10.178l-19.117,-4.312Z" style="fill:#4e4d47;"/></g></g></g></g><g><path d="M200.541,190.169l-7.406,0.233l-6.994,-8.282l1.768,-4.894l4.671,-6.875l15.48,-0.759l-1.547,5.848l3.142,4.537l-5.099,9.245l-4.015,0.947" style="fill:#c0c0c0;"/><path d="M209.13,160.801l8.867,0.346l6.786,-11.008l-4.311,-7.864l-4.332,-6.435l-4.902,0.66l-1.402,-3.535l-4.553,-3.062l-4.221,1.876l0.81,7.145l0.783,5.188l2.15,8.866l4.325,7.823Z" style="fill:#c0c0c0;"/><path d="M226.526,189.546l8.497,2.315l10.854,-4.088l4.656,-8.885l-11.415,-15.761l-9.995,0.838l-6.189,4.704l-0.833,9.723l4.425,11.154Z" style="fill:#c0c0c0;"/><path d="M267.763,179.399l13.257,-1.76l3.026,-5.391l7.692,-19.663c0,0 -9.776,-1.44 -11.578,-3.154c-1.802,-1.713 -8.568,-2.333 -8.568,-2.333l-4.375,8.758l1.7,10.412l-1.154,13.131Z" style="fill:#c0c0c0;"/><path d="M230.622,148.476l8.801,6.26l12.639,1.967l4.005,-6.795l0.695,-7.393l-6.786,-4.09l-7.336,0.243l-7.25,2.038l-4.768,7.77" style="fill:#c0c0c0;"/><path d="M227.449,128.53l-2.942,-10.751l5.223,-3.552l5.789,1.577l1.625,4.097l-0.007,6.293l-4.04,3.875l-5.648,-1.539Z" style="fill:#c0c0c0;"/><path d="M265.518,133.478l-7.406,0.232l-6.994,-8.281l1.768,-4.895l4.671,-6.875l15.48,-0.758l-1.547,5.847l3.142,4.537l-5.098,9.246l-4.016,0.947" style="fill:#c0c0c0;"/><path d="M271.919,107.209l8.867,0.346l6.786,-11.007l-4.31,-7.865l-4.333,-6.435l-4.902,0.661l-1.402,-3.536l-4.553,-3.061l-4.221,1.875l0.81,7.145l0.783,5.189l2.151,8.865l4.324,7.823Z" style="fill:#c0c0c0;"/><path d="M283.864,135.811l8.498,2.315l10.854,-4.088l4.656,-8.885l-11.415,-15.761l-9.995,0.838l-6.189,4.704l-0.833,9.723l4.424,11.154Z" style="fill:#c0c0c0;"/><path d="M291.658,100.949l8.8,6.26l12.639,1.967l4.006,-6.795l0.695,-7.393l-6.786,-4.09l-7.336,0.244l-7.25,2.038l-4.768,7.769" style="fill:#c0c0c0;"/><path d="M317.381,152.952l-1.873,-10.972l-11.237,-3.536l-13.701,7.272l8.348,12.763l8.665,0.416l9.798,-5.943" style="fill:#c0c0c0;"/><path d="M199.731,191.838l-18.416,-7.102l1.768,-4.894l20.151,-7.634l-1.547,5.848l3.142,4.536l-5.098,9.246Zm21.969,0.324l8.498,2.315l10.853,-4.088l4.656,-8.885l-11.414,-15.761l-9.996,0.838l-6.189,4.704l-0.832,9.723l4.424,11.154Zm-21.52,-30.735l8.867,0.346l6.786,-11.007l-4.311,-7.865l-4.332,-6.435l-4.902,0.661l-1.402,-3.536l-4.553,-3.061l-4.221,1.875l0.81,7.145l0.783,5.189l2.15,8.865l4.325,7.823Zm25.616,-10.336l8.801,6.261l12.639,1.967l4.005,-6.796l0.695,-7.392l-6.786,-4.09l-7.336,0.243l-7.25,2.038l-4.768,7.769Zm37.142,30.923l13.256,-1.759l3.026,-5.391l7.693,-19.663c0,0 -9.777,-1.44 -11.579,-3.154c-1.802,-1.714 -8.567,-2.333 -8.567,-2.333l-4.376,8.758l1.7,10.412l-1.153,13.13Zm-40.315,-50.868l-2.942,-10.751l5.223,-3.552l5.789,1.577l1.625,4.097l-0.007,6.293l-4.039,3.875l-5.649,-1.539Zm38.07,4.948l-7.407,0.232l-6.993,-8.281l1.767,-4.895l4.671,-6.875l15.48,-0.758l-1.547,5.847l3.142,4.537l-5.098,9.246l-4.015,0.947Zm51.862,19.474l-9.798,5.943l-8.665,-0.416l-8.347,-12.763l13.701,-7.272l11.236,3.536l1.873,10.972Zm-33.517,-17.141l8.498,2.315l10.854,-4.088l4.656,-8.885l-11.415,-15.761l-9.995,0.838l-6.189,4.704l-0.833,9.723l4.424,11.154Zm-11.944,-28.602l8.866,0.346l6.787,-11.008l-4.311,-7.864l-4.333,-6.435l-4.901,0.661l-1.403,-3.536l-4.553,-3.061l-4.22,1.875l0.809,7.145l0.784,5.188l2.15,8.866l4.325,7.823Zm19.738,-6.26l8.801,6.26l12.639,1.967l4.005,-6.795l0.695,-7.393l-6.786,-4.09l-7.336,0.244l-7.25,2.038l-4.768,7.769Z" style="fill:#4e4d47;fill-opacity:0.25;"/></g><path d="M159.869,195.485l18.415,-12.265l11.919,-15.501l16.021,-13.455l15.251,-17.991l29.626,-18.603l16.1,-20.824l24.791,-12.396l20.544,-13.598l12.847,-16.84l3.393,25.137l-3.393,25.229l2.263,34.368l-2.263,11.864l-101.411,50.404l-112.402,56.186l1.954,-9.756l14.146,-14.393l14.44,-17.953l17.759,-19.613Z" style="fill:#beb3a6;"/><clipPath id="_clip2"><path d="M159.869,195.485l18.415,-12.265l11.919,-15.501l16.021,-13.455l15.251,-17.991l29.626,-18.603l16.1,-20.824l24.791,-12.396l20.544,-13.598l12.847,-16.84l3.393,25.137l-3.393,25.229l2.263,34.368l-2.263,11.864l-101.411,50.404l-112.402,56.186l1.954,-9.756l14.146,-14.393l14.44,-17.953l17.759,-19.613Z"/></clipPath><g clip-path="url(#_clip2)"><g><path d="M223.579,235.167l-7.47,-8.393l0.628,-15.381l4.862,-8.365l7.638,3.249l3.735,6.804l0.66,10.713l-10.053,11.373" style="fill:#c0c0c0;stroke:#000;stroke-width:1px;"/><path d="M235.998,253.699l-9.713,-5.467l1.145,-6.212l5.192,-3.008l4.056,1.725l4.47,4.429l-0.084,5.597l-5.066,2.936Z" style="fill:#c0c0c0;stroke:#000;stroke-width:1px;"/><path d="M266.281,230.104l-5.042,5.43l-10.806,-0.849l-2.237,-4.698l-1.606,-8.155l10.344,-11.542l3.071,5.212l5.435,0.955l2.991,10.126l-2.15,3.521" style="fill:#c0c0c0;stroke:#000;stroke-width:1px;"/><path d="M247.12,204.882l6.48,-6.062l-3.057,-12.565l-8.623,-2.463l-7.622,-1.443l-2.977,3.95l-3.5,-1.488l-5.378,1.085l-1.634,4.32l5.651,4.448l4.24,3.09l7.816,4.704l8.604,2.424Z" style="fill:#c0c0c0;"/><path d="M284.107,211.187l7.62,-4.416l4.724,-10.592l-3.045,-9.558l-19.234,-2.963l-6.431,7.697l-1.006,7.708l6.329,7.428l11.043,4.696Z" style="fill:#c0c0c0;stroke:#000;stroke-width:1px;"/><path d="M305.882,174.727l8.069,-10.664l-1.707,-5.942l-8.574,-19.295c0,0 -7.897,5.94 -10.383,6.017c-2.486,0.076 -7.683,4.452 -7.683,4.452l3.152,9.269l8.6,6.112l8.526,10.051Z" style="fill:#c0c0c0;"/><path d="M257.78,179.399l10.639,-1.857l10.284,-7.605l-2.016,-7.626l-4.769,-5.692l-7.679,1.951l-4.985,5.388l-3.648,6.589l2.174,8.852" style="fill:#c0c0c0;"/><path d="M316.592,206.914l-9.119,-6.382l-10.415,5.505l-4.461,14.856l14.945,3.036l6.388,-5.869l2.662,-11.146" style="fill:#c0c0c0;stroke:#000;stroke-width:1px;"/><path d="M228.946,149.102l-7.471,-8.393l0.629,-15.381l4.861,-8.365l7.639,3.249l3.734,6.804l0.66,10.713l-10.052,11.373" style="fill:#c0c0c0;"/><path d="M241.365,167.634l-9.714,-5.467l1.146,-6.212l5.191,-3.008l4.057,1.725l4.47,4.429l-0.085,5.597l-5.065,2.936Z" style="fill:#c0c0c0;"/><path d="M271.648,144.039l-5.042,5.43l-10.806,-0.849l-2.238,-4.698l-1.605,-8.155l10.344,-11.542l3.07,5.211l5.436,0.956l2.99,10.126l-2.149,3.521" style="fill:#c0c0c0;"/><path d="M257.467,121.018l6.48,-6.062l-3.057,-12.564l-8.623,-2.464l-7.622,-1.443l-2.977,3.95l-3.5,-1.488l-5.378,1.085l-1.634,4.32l5.651,4.448l4.24,3.09l7.817,4.704l8.603,2.424Z" style="fill:#c0c0c0;"/><path d="M286.205,132.633l7.621,-4.416l4.724,-10.592l-3.045,-9.558l-19.234,-2.963l-6.432,7.697l-1.005,7.708l6.328,7.428l11.043,4.696Z" style="fill:#c0c0c0;"/><path d="M313.89,98.49l8.069,-10.665l-1.707,-5.942l-8.575,-19.294c0,0 -7.897,5.94 -10.382,6.016c-2.486,0.077 -7.683,4.453 -7.683,4.453l3.151,9.268l8.6,6.112l8.527,10.052Z" style="fill:#c0c0c0;"/><path d="M266.893,102.581l10.639,-1.857l10.285,-7.606l-2.017,-7.625l-4.768,-5.692l-7.68,1.95l-4.984,5.388l-3.648,6.589l2.173,8.853" style="fill:#c0c0c0;"/><path d="M321.959,120.849l-9.12,-6.382l-10.414,5.505l-4.461,14.855l14.945,3.037l6.387,-5.869l2.663,-11.146" style="fill:#c0c0c0;"/><path d="M234.465,258.97l-9.713,-5.467l1.146,-6.212l5.191,-3.008l4.057,1.725l4.47,4.429l-0.085,5.597l-5.066,2.936Zm30.284,-23.595l-5.042,5.43l-10.806,-0.849l-2.238,-4.698l-1.605,-8.155l10.343,-11.542l3.071,5.211l5.436,0.956l2.99,10.126l-2.149,3.521Zm-42.702,5.063l-7.471,-8.393l0.629,-15.381l4.861,-8.365l7.639,3.249l3.734,6.804l0.66,10.713l-10.052,11.373Zm93.013,-28.253l-2.663,11.146l-6.387,5.869l-14.945,-3.037l4.461,-14.855l10.414,-5.505l9.12,6.382Zm-32.486,4.273l7.62,-4.416l4.724,-10.592l-3.045,-9.558l-19.233,-2.963l-6.432,7.697l-1.006,7.708l6.329,7.428l11.043,4.696Zm-36.987,-6.305l6.48,-6.062l-3.056,-12.565l-8.623,-2.463l-7.623,-1.443l-2.976,3.95l-3.5,-1.489l-5.379,1.086l-1.634,4.32l5.651,4.448l4.24,3.09l7.817,4.704l8.603,2.424Zm10.66,-25.483l10.639,-1.857l10.285,-7.605l-2.017,-7.626l-4.768,-5.692l-7.679,1.951l-4.985,5.388l-3.648,6.589l2.173,8.852Zm48.103,-4.672l8.069,-10.665l-1.707,-5.941l-8.575,-19.295c0,0 -7.897,5.94 -10.382,6.017c-2.486,0.076 -7.683,4.452 -7.683,4.452l3.151,9.269l8.6,6.112l8.527,10.051Zm-64.518,-7.093l-9.713,-5.467l1.145,-6.212l5.192,-3.008l4.056,1.725l4.47,4.429l-0.084,5.597l-5.066,2.936Zm30.283,-23.595l-5.042,5.43l-10.806,-0.849l-2.237,-4.698l-1.606,-8.155l10.344,-11.542l3.071,5.211l5.435,0.956l2.991,10.126l-2.15,3.521Zm-42.702,5.063l-7.47,-8.393l0.628,-15.381l4.862,-8.365l7.638,3.249l3.735,6.804l0.66,10.713l-10.053,11.373Zm93.013,-28.253l-2.662,11.146l-6.388,5.869l-14.945,-3.037l4.461,-14.855l10.415,-5.505l9.119,6.382Zm-35.753,11.784l7.62,-4.416l4.724,-10.592l-3.045,-9.558l-19.233,-2.963l-6.432,7.697l-1.006,7.708l6.329,7.428l11.043,4.696Zm-28.738,-11.615l6.479,-6.062l-3.056,-12.564l-8.623,-2.464l-7.622,-1.443l-2.977,3.95l-3.5,-1.488l-5.378,1.085l-1.634,4.32l5.651,4.448l4.24,3.09l7.816,4.704l8.604,2.424Zm9.425,-18.437l10.639,-1.857l10.285,-7.606l-2.017,-7.625l-4.768,-5.692l-7.679,1.95l-4.985,5.388l-3.648,6.589l2.173,8.853Zm46.997,-4.091l8.069,-10.665l-1.707,-5.942l-8.574,-19.294c0,0 -7.897,5.94 -10.383,6.016c-2.486,0.077 -7.683,4.452 -7.683,4.452l3.152,9.269l8.6,6.112l8.526,10.052Z" style="fill:#4e4d47;fill-opacity:0.2;"/></g><g><path d="M208.192,267.864l8.069,-10.664l-1.707,-5.942l-8.575,-19.295c0,0 -7.897,5.941 -10.382,6.017c-2.486,0.077 -7.684,4.452 -7.684,4.452l3.152,9.269l8.6,6.112l8.527,10.051Z" style="fill:#c0c0c0;stroke:#000;stroke-width:1px;"/><path d="M160.089,272.537l10.639,-1.858l10.285,-7.605l-2.017,-7.626l-4.768,-5.691l-7.679,1.95l-4.985,5.388l-3.648,6.589l2.173,8.853" style="fill:#c0c0c0;stroke:#000;stroke-width:1px;"/><path d="M131.255,242.239l-7.47,-8.393l0.628,-15.381l4.862,-8.364l7.638,3.248l3.735,6.804l0.66,10.713l-10.053,11.373" style="fill:#c0c0c0;"/><path d="M143.674,260.771l-9.713,-5.467l1.145,-6.211l5.192,-3.009l4.056,1.726l4.47,4.429l-0.084,5.597l-5.066,2.935Z" style="fill:#c0c0c0;stroke:#000;stroke-width:1px;"/><path d="M173.957,237.176l-5.042,5.43l-10.806,-0.848l-2.237,-4.699l-1.606,-8.155l10.344,-11.541l3.071,5.211l5.435,0.955l2.991,10.126l-2.15,3.521" style="fill:#c0c0c0;"/><path d="M159.777,214.156l6.479,-6.062l-3.056,-12.565l-8.623,-2.464l-7.622,-1.443l-2.977,3.95l-3.5,-1.488l-5.378,1.086l-1.634,4.319l5.651,4.448l4.24,3.091l7.816,4.704l8.604,2.424Z" style="fill:#c0c0c0;"/><path d="M188.515,225.77l7.62,-4.416l4.724,-10.592l-3.045,-9.558l-19.234,-2.963l-6.431,7.697l-1.006,7.708l6.329,7.428l11.043,4.696Z" style="fill:#c0c0c0;"/><path d="M216.199,191.627l8.069,-10.665l-1.707,-5.941l-8.574,-19.295c0,0 -7.897,5.94 -10.383,6.017c-2.486,0.076 -7.683,4.452 -7.683,4.452l3.152,9.269l8.6,6.112l8.526,10.051Z" style="fill:#c0c0c0;"/><path d="M169.202,195.718l10.639,-1.857l10.285,-7.605l-2.017,-7.626l-4.768,-5.692l-7.679,1.95l-4.985,5.389l-3.648,6.588l2.173,8.853" style="fill:#c0c0c0;"/><path d="M224.268,213.986l-9.119,-6.382l-10.415,5.505l-4.461,14.856l14.945,3.037l6.388,-5.87l2.662,-11.146" style="fill:#c0c0c0;stroke:#000;stroke-width:1px;"/><path d="M136.775,352.107l-9.714,-5.467l1.146,-6.211l5.191,-3.009l4.057,1.726l4.47,4.429l-0.085,5.597l-5.065,2.935Zm30.283,-23.595l-5.042,5.43l-10.806,-0.848l-2.237,-4.698l-1.606,-8.156l10.344,-11.541l3.07,5.211l5.436,0.955l2.991,10.126l-2.15,3.521Zm-42.702,5.063l-7.47,-8.393l0.628,-15.381l4.862,-8.364l7.638,3.248l3.735,6.804l0.66,10.713l-10.053,11.373Zm93.013,-28.253l-2.662,11.146l-6.388,5.87l-14.945,-3.037l4.461,-14.856l10.415,-5.505l9.119,6.382Zm-32.486,4.274l7.621,-4.416l4.724,-10.593l-3.045,-9.557l-19.234,-2.964l-6.431,7.697l-1.006,7.709l6.329,7.428l11.042,4.696Zm-36.986,-6.306l6.48,-6.062l-3.057,-12.564l-8.623,-2.464l-7.622,-1.443l-2.977,3.95l-3.5,-1.488l-5.378,1.085l-1.634,4.32l5.651,4.448l4.24,3.091l7.816,4.703l8.604,2.424Zm10.659,-25.483l10.639,-1.857l10.285,-7.605l-2.016,-7.626l-4.769,-5.691l-7.679,1.95l-4.985,5.388l-3.648,6.589l2.173,8.852Zm48.103,-4.672l8.069,-10.664l-1.707,-5.942l-8.574,-19.295c0,0 -7.897,5.941 -10.383,6.017c-2.486,0.077 -7.683,4.452 -7.683,4.452l3.152,9.269l8.6,6.112l8.526,10.051Zm-64.518,-7.093l-9.713,-5.467l1.146,-6.211l5.191,-3.009l4.057,1.725l4.47,4.43l-0.085,5.596l-5.066,2.936Zm30.284,-23.595l-5.042,5.43l-10.806,-0.848l-2.238,-4.699l-1.605,-8.155l10.343,-11.541l3.071,5.211l5.436,0.955l2.99,10.126l-2.149,3.521Zm-42.702,5.063l-7.471,-8.393l0.629,-15.381l4.861,-8.364l7.639,3.248l3.734,6.804l0.66,10.713l-10.052,11.373Zm93.012,-28.253l-2.662,11.146l-6.387,5.87l-14.945,-3.037l4.461,-14.856l10.414,-5.505l9.119,6.382Zm-35.753,11.784l7.621,-4.416l4.724,-10.592l-3.045,-9.558l-19.234,-2.963l-6.432,7.697l-1.006,7.708l6.329,7.428l11.043,4.696Zm-28.738,-11.614l6.48,-6.062l-3.057,-12.565l-8.623,-2.464l-7.622,-1.443l-2.977,3.95l-3.5,-1.488l-5.378,1.086l-1.634,4.319l5.651,4.448l4.24,3.091l7.816,4.703l8.604,2.425Zm9.426,-18.438l10.639,-1.857l10.284,-7.605l-2.016,-7.626l-4.769,-5.692l-7.679,1.95l-4.984,5.389l-3.648,6.588l2.173,8.853Zm46.997,-4.091l8.068,-10.665l-1.706,-5.941l-8.575,-19.295c0,0 -7.897,5.94 -10.383,6.017c-2.485,0.076 -7.683,4.452 -7.683,4.452l3.152,9.269l8.6,6.112l8.527,10.051Z" style="fill:#4e4d47;fill-opacity:0.2;"/></g></g><g><path d="M120.967,257.115l8.866,0.346l6.787,-11.007l-4.311,-7.864l-4.332,-6.435l-4.902,0.66l-1.402,-3.535l-4.554,-3.062l-4.22,1.875l0.81,7.146l0.783,5.188l2.15,8.865l4.325,7.823Z" style="fill:#c0c0c0;"/><path d="M143.733,202.985l0.716,-11.214l11.38,-10.366l9.366,-2.424l3.061,7.716l-2.214,7.44l-7.154,8.001l-15.155,0.847" style="fill:#c0c0c0;"/><path d="M139.285,224.845l-2.941,-10.751l5.223,-3.552l5.789,1.577l1.625,4.097l-0.007,6.293l-4.04,3.875l-5.649,-1.539Z" style="fill:#c0c0c0;"/><path d="M177.355,229.792l-7.406,0.233l-6.994,-8.282l1.768,-4.894l4.671,-6.875l15.48,-0.759l-1.547,5.848l3.142,4.537l-5.099,9.245l-4.015,0.947" style="fill:#c0c0c0;"/><path d="M183.756,203.523l8.867,0.347l6.786,-11.008l-4.31,-7.864l-4.333,-6.435l-4.902,0.66l-1.402,-3.535l-4.553,-3.062l-4.221,1.875l0.81,7.146l0.783,5.188l2.15,8.866l4.325,7.822Z" style="fill:#c0c0c0;"/><path d="M203.495,197.264l8.8,6.26l12.639,1.967l4.005,-6.795l0.696,-7.393l-6.786,-4.09l-7.337,0.244l-7.25,2.037l-4.767,7.77" style="fill:#c0c0c0;"/><path d="M112.017,257.742l8.866,0.346l6.787,-11.008l-4.311,-7.864l-4.332,-6.435l-4.902,0.66l-1.402,-3.535l-4.554,-3.062l-4.22,1.876l0.81,7.145l0.783,5.188l2.15,8.866l4.325,7.823Zm22.442,-30.281l-2.941,-10.751l5.223,-3.552l5.789,1.577l1.625,4.097l-0.007,6.293l-4.04,3.875l-5.649,-1.539Zm38.07,4.947l-7.406,0.232l-6.994,-8.281l1.768,-4.894l4.671,-6.875l15.48,-0.759l-1.547,5.848l3.142,4.536l-5.098,9.246l-4.016,0.947Zm-33.622,-26.807l0.717,-11.214l11.379,-10.366l9.367,-2.424l3.06,7.716l-2.213,7.44l-7.154,8.001l-15.156,0.847Zm40.023,0.538l8.867,0.346l6.786,-11.007l-4.31,-7.864l-4.333,-6.435l-4.902,0.66l-1.402,-3.535l-4.553,-3.062l-4.221,1.875l0.81,7.146l0.783,5.188l2.15,8.866l4.325,7.822Zm19.739,-6.259l8.8,6.26l12.639,1.967l4.006,-6.795l0.695,-7.393l-6.786,-4.09l-7.336,0.244l-7.251,2.037l-4.767,7.77Z" style="fill:#4e4d47;fill-opacity:0.2;"/></g><g><path d="M249.584,192.318l8.189,-3.418l1.523,-12.841l-7.22,-5.319l-6.639,-4.014l-4.168,2.662l-2.76,-2.617l-5.419,-0.86l-3.039,3.477l3.742,6.141l2.894,4.377l5.682,7.137l7.215,5.275Z" style="fill:#c0c0c0;"/><path d="M247.453,133.634l-4.07,-10.473l5.959,-14.193l7.476,-6.141l6.024,5.711l1.123,7.68l-3.121,10.269l-13.391,7.147" style="fill:#c0c0c0;"/><path d="M252.619,155.336l-7.193,-8.514l3.242,-5.421l5.915,-1.006l3.199,3.032l2.642,5.712l-2.033,5.215l-5.772,0.982Z" style="fill:#c0c0c0;"/><path d="M289.235,143.8l-6.621,3.328l-9.83,-4.568l-0.456,-5.184l1.343,-8.203l13.723,-7.203l1.058,5.955l4.76,2.793l-0.734,10.533l-3.243,2.549" style="fill:#c0c0c0;"/><path d="M283.985,117.277l8.188,-3.418l1.523,-12.841l-7.22,-5.32l-6.639,-4.013l-4.168,2.662l-2.76,-2.617l-5.419,-0.861l-3.039,3.478l3.742,6.141l2.894,4.376l5.682,7.137l7.216,5.276Z" style="fill:#c0c0c0;"/><path d="M299.255,103.291l10.618,1.974l12.293,-3.535l0.773,-7.85l-2.481,-6.998l-7.877,-0.854l-6.553,3.308l-5.718,4.901l-1.055,9.054" style="fill:#c0c0c0;"/><path d="M241.729,196.654l8.189,-3.419l1.523,-12.841l-7.22,-5.319l-6.639,-4.014l-4.168,2.662l-2.76,-2.616l-5.419,-0.861l-3.039,3.477l3.742,6.141l2.894,4.377l5.682,7.137l7.215,5.276Zm7.613,-36.914l-7.193,-8.514l3.243,-5.421l5.915,-1.006l3.198,3.033l2.643,5.711l-2.034,5.215l-5.772,0.982Zm36.616,-11.536l-6.621,3.328l-9.829,-4.568l-0.456,-5.184l1.343,-8.203l13.722,-7.203l1.058,5.955l4.76,2.793l-0.733,10.533l-3.244,2.549Zm-41.782,-10.166l-4.07,-10.473l5.96,-14.193l7.476,-6.141l6.023,5.711l1.124,7.68l-3.122,10.269l-13.391,7.147Zm36.532,-16.357l8.189,-3.418l1.523,-12.841l-7.22,-5.32l-6.639,-4.013l-4.169,2.662l-2.76,-2.617l-5.419,-0.861l-3.039,3.478l3.742,6.141l2.894,4.376l5.682,7.137l7.216,5.276Zm15.27,-13.986l10.618,1.974l12.293,-3.535l0.773,-7.85l-2.481,-6.998l-7.877,-0.854l-6.552,3.309l-5.719,4.9l-1.055,9.054Z" style="fill:#4e4d47;fill-opacity:0.2;"/></g><g><path d="M264.75,177.319l2.78,-10.887l13.102,-8.081l9.653,-0.648l1.579,8.149l-3.552,6.901l-8.511,6.539l-15.051,-1.973" style="fill:#c0c0c0;"/><path d="M259.524,178.997l2.779,-10.888l13.102,-8.08l9.653,-0.649l1.579,8.149l-3.552,6.901l-8.511,6.539l-15.05,-1.972Z" style="fill:#4e4d47;fill-opacity:0.2;"/><path d="M321.732,147.984l-6.733,-8.996l1.928,-15.272l5.552,-7.923l7.337,3.884l3.144,7.095l-0.249,10.731l-10.979,10.481" style="fill:#c0c0c0;"/><path d="M319.759,153.106l-6.733,-8.995l1.928,-15.273l5.552,-7.923l7.336,3.884l3.145,7.096l-0.249,10.73l-10.979,10.481Z" style="fill:#4e4d47;fill-opacity:0.2;"/></g><g><g><path d="M13.59,216.022l-9.113,-0.472l-2.808,-7.718l7.038,-6.482l4.566,-7.429l8.758,-6.301l13.923,5.527l-0.269,9.599l-6.267,9.288l-15.828,3.988Z" style="fill:#acaba7;"/><path d="M46.596,170.929l-12.641,7.695l13.683,16.333l11.041,-5.44l9.377,-1.324l-0.691,-6.664l6.433,-10.455l-6.864,-7.213l-6.712,-1.956l-9.783,4.417l-3.843,4.607Z" style="fill:#acaba7;"/><path d="M65.989,153.203l-13.021,5.502l-7.483,6.097l-3.389,-0.176l-4.205,-0.217l1.001,-4.755l0.693,-4.771l5.868,-3.094l2.948,-3.535l4.863,-2.275l11.438,-4.215l1.397,1.871l2.581,6.342l-2.691,3.226Z" style="fill:#acaba7;"/><path d="M88.512,126.202l-11.208,1.795l-4.244,6.819l-2.394,7.257l5.314,2.281l11.087,-1.432l11.301,-0.943l8.496,-0.31l-2.675,-4.287l2.548,-3.055l-0.151,-4.814l-2.785,-1.907l-15.289,-1.404" style="fill:#acaba7;"/><path d="M91.906,156.694l9.106,-0.495l10.718,2.958l-3.87,10.371l-5.02,4.033l-1.552,6.684l-7.44,1.479l-5.206,-8.391l-5.407,-6.243l3.341,-7.964l5.33,-2.432Z" style="fill:#acaba7;"/><path d="M134.549,130.96l-11.61,6.424l-5.899,11.896l5.826,5.107l6.666,2.749l13.611,-6.505l9.496,0.491l0.132,-9.606l-2.661,-4.944l-5.256,-2.979l-10.305,-2.633Z" style="fill:#acaba7;"/><path d="M131.569,172l-13.763,6.158l-7.616,11.978l7.859,2.454l6.955,0.36l14.513,-7.997l6.683,-0.519l-0.734,-6.614l9.712,-8.812l0.105,-6.715l-3.746,-1.615l-5.705,1.716l-2.235,2.679l-12.028,6.927" style="fill:#acaba7;"/><path d="M173.331,133.036c-1.629,0.936 -12.019,12.596 -12.019,12.596l-2.128,11.883l11.457,-0.586l4.267,-7.386l7.263,-6.436c0,0 -7.211,-11.007 -8.84,-10.071Z" style="fill:#acaba7;"/><path d="M69.923,196.399l11.568,0.104l8.408,7.323l-3.382,7.532l-9.272,8.55l-10.26,0.409l-9.277,-2.527l3.989,-8.511l4.712,-7.766l3.514,-5.114" style="fill:#acaba7;"/><path d="M105.256,238.261l2.118,11.373l-5.572,9.658l-8.041,-1.874l-10.171,-7.459l-2.371,-9.99l0.699,-9.59l9.118,2.282l8.526,3.133l5.694,2.467" style="fill:#acaba7;"/><path d="M42.721,205.401l5.63,2.807l8.062,8.931l-6.571,7.878l-9.395,-1.142l-7.58,-3.947l8.534,-7.273l-0.873,-2l0.669,-2.817l1.524,-2.437Z" style="fill:#acaba7;"/><path d="M115.998,200.358l6.199,2.612l2.358,5.397l-6.371,9.654l-8.185,7.797l-5.717,-4.528l-4.075,-9.326l15.791,-11.606Z" style="fill:#acaba7;"/></g><g><g opacity="0.25"><path d="M11.274,221.647l-9.113,-0.472l-1.654,-7.161l5.884,-7.039l4.566,-7.429l8.758,-6.301l13.923,5.527l-0.269,9.599l-6.267,9.289l-15.828,3.987Z" style="fill:#4e4d47;"/><path d="M44.28,176.554l-12.641,7.696l13.683,16.332l11.041,-5.44l9.377,-1.324l-0.691,-6.664l6.433,-10.455l-6.864,-7.213l-6.711,-1.956l-9.784,4.417l-3.843,4.607Z" style="fill:#4e4d47;"/><path d="M63.673,158.829l-13.021,5.501l-7.483,6.097l-3.389,-0.175l-3.401,-0.195l4.579,-5.49l-3.067,-0.158l5.246,-6.995l2.948,-3.535l4.863,-2.275l11.438,-4.215l1.398,1.871l2.58,6.343l-2.691,3.226Z" style="fill:#4e4d47;"/><path d="M86.196,131.827l-11.208,1.795l-4.244,6.819l-2.394,7.257l5.314,2.281l11.087,-1.432l11.301,-0.943l8.496,-0.31l3.07,-4.639l-2.912,-4.957l-5.323,-0.595l-0.868,-6.453l-12.319,1.177" style="fill:#4e4d47;"/><path d="M89.59,162.32l9.107,-0.496l10.717,2.958l-1.555,4.733l-4.708,4.016l-4.179,12.339l-7.44,1.479l-5.206,-8.391l-5.407,-6.243l3.341,-7.964l5.33,-2.431Z" style="fill:#4e4d47;"/><path d="M132.233,136.585l-11.61,6.425l-5.899,11.895l5.826,5.108l6.666,2.748l13.611,-6.505l9.496,0.491l0.133,-9.606l-2.662,-4.944l-5.256,-2.979l-10.305,-2.633Z" style="fill:#4e4d47;"/><path d="M129.253,177.625l-13.763,6.158l-7.616,11.978l7.859,2.454l6.955,0.36l14.513,-7.997l6.683,-0.519l2.56,-5.613l-0.768,-6.176l7.059,-6.446l0.232,-3.906l-3.746,-1.615l-5.705,1.716l-2.234,2.68l-12.029,6.926" style="fill:#4e4d47;"/><path d="M171.108,140.417c-1.629,0.936 -12.112,10.84 -12.112,10.84l-2.128,11.883l11.457,-0.586l4.267,-7.385l7.263,-6.437c0,0 -7.118,-9.251 -8.747,-8.315Z" style="fill:#4e4d47;"/><path d="M69.813,202.481l11.568,0.104l8.408,7.323l-3.382,7.532l-9.272,8.55l-10.26,0.409l-9.278,-2.526l3.99,-8.512l4.712,-7.765l3.514,-5.115" style="fill:#4e4d47;"/><path d="M101.063,240.358l2.119,11.372l-5.573,9.658l-8.041,-1.873l-10.171,-7.459l-2.371,-9.991l0.699,-9.59l9.119,2.282l8.525,3.133l5.694,2.468" style="fill:#4e4d47;"/><path d="M40.405,211.026l5.63,2.807l8.062,8.931l-4.516,2.436l-8.679,-0.984l-7.782,-3.708l3.183,-3.288l1.646,-1.268l3.153,-3.308l-0.697,-1.618Z" style="fill:#4e4d47;"/><path d="M113.682,205.984l6.199,2.612l2.358,5.397l-6.964,8.968l-6.882,6.189l-6.427,-2.234l-4.075,-9.326l15.791,-11.606Z" style="fill:#4e4d47;"/></g></g></g><g><g><path d="M104.841,135.954l-9.114,-0.472l-2.807,-7.717l7.038,-6.483l4.566,-7.429l8.758,-6.301l13.923,5.527l-0.269,9.599l-6.268,9.289l-15.827,3.987Z" style="fill:#acaba7;"/><path d="M137.847,90.862l-12.641,7.695l13.683,16.332l11.041,-5.44l9.377,-1.323l-0.692,-6.665l6.433,-10.455l-6.864,-7.212l-6.711,-1.957l-9.783,4.417l-3.843,4.608Z" style="fill:#acaba7;"/><path d="M157.24,73.136l-13.021,5.501l-7.483,6.097l-3.389,-0.175l-4.206,-0.218l1.002,-4.755l0.693,-4.77l5.868,-3.095l2.948,-3.535l4.863,-2.275l11.437,-4.214l1.398,1.87l2.581,6.343l-2.691,3.226Z" style="fill:#acaba7;"/><path d="M179.763,46.135l-11.209,1.795l-4.243,6.818l-2.394,7.257l5.314,2.282l11.087,-1.433l11.301,-0.943l8.496,-0.31l-2.675,-4.287l2.548,-3.055l-0.151,-4.814l-2.785,-1.907l-15.289,-1.403" style="fill:#acaba7;"/><path d="M183.157,76.627l9.106,-0.496l10.718,2.958l-3.87,10.371l-5.021,4.034l-1.552,6.683l-7.44,1.48l-5.206,-8.392l-5.406,-6.242l3.341,-7.965l5.33,-2.431Z" style="fill:#acaba7;"/><path d="M225.799,50.892l-11.609,6.425l-5.899,11.895l5.826,5.108l6.666,2.748l13.611,-6.505l9.496,0.491l0.132,-9.606l-2.662,-4.944l-5.255,-2.979l-10.306,-2.633Z" style="fill:#acaba7;"/><path d="M222.82,91.932l-13.763,6.158l-7.616,11.979l7.859,2.453l6.955,0.36l14.512,-7.997l6.684,-0.519l-0.734,-6.613l9.712,-8.813l0.104,-6.715l-3.746,-1.615l-5.704,1.717l-2.235,2.679l-12.028,6.926" style="fill:#acaba7;"/><path d="M83.489,192.142l0.791,8.548l11.886,3.622l7.522,-5.653l4.238,-4.768l-2.842,-8.819l-3.418,-2.271l-2.895,-0.846l-6.525,-5.454l-8.913,0.797l-4.181,2.752l-0.789,3.651l2.372,1.171l2.754,7.27" style="fill:#acaba7;"/><path d="M264.582,52.969c-1.629,0.936 -12.019,12.595 -12.019,12.595l-2.128,11.883l11.457,-0.585l4.267,-7.386l7.263,-6.437c0,0 -7.211,-11.006 -8.84,-10.07Z" style="fill:#acaba7;"/><path d="M173.557,110.053l10.737,4.307l5.167,9.88l-5.891,5.785l-11.748,4.589l-9.705,-3.352l-7.722,-5.73l6.813,-6.476l7.215,-5.518l5.134,-3.485" style="fill:#acaba7;"/><path d="M133.972,125.334l5.629,2.806l8.063,8.931l-6.572,7.878l-9.394,-1.142l-7.581,-3.946l8.535,-7.274l-0.873,-1.999l0.668,-2.818l1.525,-2.436Z" style="fill:#acaba7;"/><path d="M207.249,120.291l6.199,2.612l2.358,5.397l-6.371,9.653l-8.185,7.797l-5.717,-4.527l-4.075,-9.326l15.791,-11.606Z" style="fill:#acaba7;"/></g><g><g opacity="0.25"><path d="M102.525,141.579l-9.114,-0.471l-1.653,-7.162l5.884,-7.039l4.566,-7.428l8.758,-6.301l13.923,5.527l-0.269,9.599l-6.268,9.288l-15.827,3.987Z" style="fill:#4e4d47;"/><path d="M135.531,96.487l-12.641,7.695l13.683,16.333l11.041,-5.441l9.377,-1.323l-0.692,-6.664l6.433,-10.456l-6.863,-7.212l-6.712,-1.956l-9.783,4.416l-3.843,4.608Z" style="fill:#4e4d47;"/><path d="M154.924,78.761l-13.021,5.502l-7.483,6.096l-3.389,-0.175l-3.401,-0.194l4.579,-5.49l-3.068,-0.159l5.247,-6.994l2.948,-3.535l4.863,-2.276l11.437,-4.214l1.398,1.87l2.581,6.343l-2.691,3.226Z" style="fill:#4e4d47;"/><path d="M177.447,51.76l-11.209,1.795l-4.243,6.819l-2.394,7.257l5.314,2.281l11.087,-1.433l11.301,-0.942l8.496,-0.311l3.07,-4.639l-2.912,-4.957l-5.324,-0.594l-0.867,-6.454l-12.319,1.178" style="fill:#4e4d47;"/><path d="M180.841,82.252l9.106,-0.496l10.718,2.958l-1.555,4.733l-4.709,4.017l-4.179,12.339l-7.44,1.479l-5.205,-8.391l-5.407,-6.243l3.341,-7.965l5.33,-2.431Z" style="fill:#4e4d47;"/><path d="M223.484,56.518l-11.61,6.424l-5.899,11.895l5.826,5.108l6.666,2.748l13.611,-6.505l9.496,0.492l0.132,-9.606l-2.662,-4.944l-5.255,-2.979l-10.305,-2.633Z" style="fill:#4e4d47;"/><path d="M220.504,97.557l-13.763,6.158l-7.616,11.979l7.859,2.453l6.955,0.36l14.512,-7.996l6.684,-0.52l2.56,-5.612l-0.768,-6.177l7.059,-6.446l0.232,-3.906l-3.747,-1.614l-5.704,1.716l-2.235,2.679l-12.028,6.926" style="fill:#4e4d47;"/><path d="M76.57,195.612l0.11,8.73l11.358,3.906l7.806,-5.63l4.521,-4.786l-2.097,-9.043l-0.41,-3.673l-2.295,-1.975l-8.588,1.19l-4.39,-4.123l-5.014,0.264l-4.308,2.731l-1.056,3.709l2.231,1.236l2.132,7.464" style="fill:#4e4d47;"/><path d="M262.359,60.349c-1.629,0.936 -12.112,10.841 -12.112,10.841l-2.128,11.882l11.457,-0.585l4.267,-7.386l7.263,-6.437c0,0 -7.118,-9.251 -8.747,-8.315Z" style="fill:#4e4d47;"/><path d="M171.241,115.678l10.737,4.307l5.167,9.88l-5.891,5.785l-11.748,4.59l-9.705,-3.353l-7.722,-5.729l6.813,-6.476l7.215,-5.519l5.134,-3.485" style="fill:#4e4d47;"/><path d="M131.656,130.959l5.629,2.807l8.063,8.93l-4.516,2.436l-8.679,-0.984l-7.782,-3.707l3.183,-3.288l1.646,-1.269l3.153,-3.307l-0.697,-1.618Z" style="fill:#4e4d47;"/><path d="M204.933,125.916l6.199,2.612l2.358,5.397l-6.964,8.968l-6.882,6.19l-6.427,-2.235l-4.075,-9.326l15.791,-11.606Z" style="fill:#4e4d47;"/></g></g></g></g></svg>