<?xml version="1.0" encoding="UTF-8" standalone="no"?><!DOCTYPE svg PUBLIC "-//W3C//DTD SVG 1.1//EN" "http://www.w3.org/Graphics/SVG/1.1/DTD/svg11.dtd"><svg width="100%" height="100%" viewBox="0 0 333 262" version="1.1" xmlns="http://www.w3.org/2000/svg" xmlns:xlink="http://www.w3.org/1999/xlink" xml:space="preserve" xmlns:serif="http://www.serif.com/" style="fill-rule:evenodd;clip-rule:evenodd;stroke-linejoin:round;stroke-miterlimit:1.41421;"><g id="Stone_Ramp_LeftUp_low-angle2"><g id="Stone_Ramp_LeftUp_low-angle1"><path d="M7.96,53.832l18.529,-12.135l20.978,-5.611l21.367,-12.623l15.816,-7.932l14.542,-1.881l16.1,-13.484l11.049,16.009l31.033,15.517l16.1,24.149l21.74,16.237l10.459,15.962l16.1,8.05l5.366,10.959l10.733,5.366l21.467,24.611l16.099,12.73l16.1,18.783l16.1,18.783l21.466,16.1l-107.331,53.665l-207.661,-175.231l-6.152,-28.024Z" style="fill:#beb3a6;"/><clipPath id="_clip1"><path d="M7.96,53.832l18.529,-12.135l20.978,-5.611l21.367,-12.623l15.816,-7.932l14.542,-1.881l16.1,-13.484l11.049,16.009l31.033,15.517l16.1,24.149l21.74,16.237l10.459,15.962l16.1,8.05l5.366,10.959l10.733,5.366l21.467,24.611l16.099,12.73l16.1,18.783l16.1,18.783l21.466,16.1l-107.331,53.665l-207.661,-175.231l-6.152,-28.024Z"/></clipPath><g clip-path="url(#_clip1)"><g><g><path d="M29.724,68.658l-8.163,-4.081l0.518,-8.196l9.044,-3.122l7.159,-4.979l10.548,-2.268l10.546,10.639l-4.09,8.689l-9.462,6.002l-16.1,-2.684Z" style="fill:#c0c0c0;"/><path d="M78.023,40.553l-14.664,1.99l5.999,20.445l12.295,-0.564l9.123,2.541l2.034,-6.383l10.081,-7.006l-3.402,-9.357l-5.366,-4.479l-10.733,0.13l-5.367,2.683Z" style="fill:#c0c0c0;"/><path d="M102.891,32.075l-14.135,-0.172l-9.298,2.59l-3.035,-1.517l-3.767,-1.884l2.822,-3.955l2.545,-4.094l6.616,-0.487l4.117,-2.058l5.367,-0.139l12.168,0.718l0.532,2.274l-0.174,6.845l-3.758,1.879Z" style="fill:#c0c0c0;"/><path d="M134.341,16.35l-10.99,-2.843l-6.618,4.55l-5.1,5.691l3.956,4.218l10.733,3.126l10.733,3.661l7.91,3.118l-0.735,-4.999l3.558,-1.78l1.789,-4.472l-1.789,-2.862l-13.447,-7.408" style="fill:#c0c0c0;"/><path d="M125.242,45.651l8.543,3.191l8.637,7.002l-7.699,7.954l-6.215,1.686l-4.098,5.503l-7.41,-1.623l-1.411,-9.774l-2.455,-7.885l6.25,-5.961l5.858,-0.093Z" style="fill:#c0c0c0;"/><path d="M174.621,39.142l-13.21,1.239l-10.169,8.538l3.294,7.014l5.008,5.187l15.077,-0.511l8.505,4.252l3.967,-8.75l-0.46,-5.596l-3.623,-4.834l-8.389,-6.539Z" style="fill:#c0c0c0;"/><path d="M155.459,75.556l-15.077,0.132l-11.775,7.928l6.22,5.394l6.228,3.115l16.501,-1.517l6.332,2.2l1.975,-6.354l12.428,-4.187l2.785,-6.112l-2.787,-2.979l-5.914,-0.711l-3.12,1.56l-13.796,1.531" style="fill:#c0c0c0;"/><path d="M103.062,72.437l8.114,8.245l0.779,11.123l-7.714,2.942l-12.603,-0.498l-7.551,-6.958l-4.782,-8.342l8.836,-3.206l8.821,-2.168l6.1,-1.138" style="fill:#c0c0c0;"/><path d="M60.67,70.59l4.035,4.826l3.812,11.412l-9.176,4.588l-8.151,-4.808l-5.366,-6.652l10.733,-3.248l0,-2.182l1.741,-2.314l2.372,-1.622Z" style="fill:#c0c0c0;"/><path d="M129.836,95.308l4.635,4.875l0,5.89l-9.703,6.295l-10.622,3.868l-3.427,-6.438l0,-10.177l19.117,-4.313Z" style="fill:#c0c0c0;"/></g><g><g opacity="0.2"><path d="M25.349,72.886l-8.162,-4.081l1.352,-7.224l8.21,-4.095l7.159,-4.979l10.548,-2.267l10.545,10.639l-4.089,8.688l-9.463,6.002l-16.1,-2.683Z" style="fill:#4e4d47;"/><path d="M73.649,44.781l-14.665,1.99l5.999,20.445l12.296,-0.565l9.122,2.542l2.035,-6.384l10.081,-7.005l-3.402,-9.357l-5.367,-4.48l-10.733,0.13l-5.366,2.684Z" style="fill:#4e4d47;"/><path d="M98.517,36.302l-14.135,-0.172l-9.298,2.591l-3.036,-1.518l-3.038,-1.54l6.394,-3.197l-2.748,-1.374l7.608,-4.308l4.118,-2.059l5.366,-0.138l12.169,0.717l0.532,2.274l-0.175,6.846l-3.757,1.878Z" style="fill:#4e4d47;"/><path d="M129.966,20.578l-10.989,-2.843l-6.619,4.549l-5.099,5.691l3.955,4.218l10.734,3.127l10.733,3.661l7.91,3.117l4.67,-3.021l-0.684,-5.709l-4.64,-2.676l1.789,-6.261l-11.76,-3.853" style="fill:#4e4d47;"/><path d="M120.868,49.878l8.543,3.192l8.636,7.001l-3.319,3.715l-5.923,1.795l-8.77,9.634l-7.41,-1.624l-1.411,-9.773l-2.455,-7.886l6.251,-5.96l5.858,-0.094Z" style="fill:#4e4d47;"/><path d="M170.247,43.37l-13.211,1.238l-10.168,8.539l3.293,7.013l5.009,5.187l15.077,-0.511l8.504,4.252l3.968,-8.749l-0.46,-5.596l-3.623,-4.835l-8.389,-6.538Z" style="fill:#4e4d47;"/><path d="M151.085,79.783l-15.077,0.133l-11.775,7.927l6.219,5.395l6.229,3.114l16.5,-1.517l6.333,2.2l4.592,-4.118l1.77,-5.967l9.049,-3.081l1.776,-3.486l-2.786,-2.98l-5.914,-0.711l-3.121,1.56l-13.795,1.531" style="fill:#4e4d47;"/><path d="M204.336,62.446c-1.868,0.206 -15.439,5.084 -15.439,5.084l-6.708,10.037l10.733,4.05l6.868,-5.059l9.232,-2.991c0,0 -2.819,-11.326 -4.686,-11.121Z" style="fill:#4e4d47;"/><path d="M98.688,76.665l8.114,8.245l0.779,11.122l-7.715,2.943l-12.602,-0.499l-7.552,-6.957l-4.782,-8.342l8.837,-3.207l8.82,-2.168l6.101,-1.137" style="fill:#4e4d47;"/><path d="M56.295,74.817l4.035,4.826l3.813,11.412l-5.114,0.424l-7.559,-4.376l-5.646,-6.514l4.232,-1.738l2.017,-0.504l4.213,-1.768l0.009,-1.762Z" style="fill:#4e4d47;"/><path d="M125.462,99.536l4.634,4.875l0,5.89l-9.972,5.429l-8.784,2.916l-4.995,-4.62l0,-10.178l19.117,-4.312Z" style="fill:#4e4d47;"/></g></g></g></g><g><path d="M132.802,190.056l7.406,0.232l6.994,-8.281l-1.768,-4.894l-4.671,-6.875l-15.48,-0.759l1.547,5.847l-3.142,4.537l5.098,9.246l4.016,0.947" style="fill:#c0c0c0;"/><path d="M124.213,160.687l-8.867,0.346l-6.786,-11.007l4.31,-7.864l4.333,-6.435l4.902,0.66l1.402,-3.535l4.553,-3.062l4.221,1.875l-0.81,7.146l-0.783,5.188l-2.15,8.866l-4.325,7.822Z" style="fill:#c0c0c0;"/><path d="M106.817,189.433l-8.498,2.315l-10.853,-4.088l-4.656,-8.885l11.414,-15.761l9.996,0.838l6.189,4.704l0.832,9.723l-4.424,11.154Z" style="fill:#c0c0c0;"/><path d="M65.579,179.285l-13.256,-1.759l-3.026,-5.391l-7.693,-19.663c0,0 9.777,-1.44 11.579,-3.154c1.802,-1.714 8.567,-2.333 8.567,-2.333l4.376,8.758l-1.7,10.412l1.153,13.13Z" style="fill:#c0c0c0;"/><path d="M102.721,148.362l-8.801,6.261l-12.639,1.967l-4.005,-6.796l-0.695,-7.392l6.786,-4.09l7.336,0.243l7.25,2.038l4.768,7.769" style="fill:#c0c0c0;"/><path d="M105.894,128.417l2.942,-10.751l-5.223,-3.552l-5.789,1.577l-1.625,4.097l0.007,6.293l4.039,3.875l5.649,-1.539Z" style="fill:#c0c0c0;"/><path d="M67.824,133.364l7.407,0.233l6.993,-8.281l-1.767,-4.895l-4.671,-6.875l-15.48,-0.758l1.547,5.847l-3.142,4.537l5.098,9.246l4.015,0.946" style="fill:#c0c0c0;"/><path d="M61.423,107.096l-8.866,0.346l-6.787,-11.008l4.311,-7.864l4.333,-6.435l4.901,0.66l1.403,-3.535l4.553,-3.061l4.22,1.875l-0.809,7.145l-0.784,5.188l-2.15,8.866l-4.325,7.823Z" style="fill:#c0c0c0;"/><path d="M49.479,135.698l-8.498,2.315l-10.854,-4.088l-4.656,-8.885l11.415,-15.761l9.995,0.838l6.189,4.704l0.833,9.723l-4.424,11.154Z" style="fill:#c0c0c0;"/><path d="M41.685,100.836l-8.801,6.26l-12.639,1.967l-4.005,-6.795l-0.695,-7.393l6.786,-4.09l7.336,0.244l7.25,2.038l4.768,7.769" style="fill:#c0c0c0;"/><path d="M15.962,152.839l1.873,-10.972l11.236,-3.536l13.701,7.272l-8.347,12.763l-8.665,0.416l-9.798,-5.943" style="fill:#c0c0c0;"/><path d="M133.612,191.725l18.416,-7.102l-1.768,-4.894l-20.151,-7.634l1.547,5.847l-3.142,4.537l5.098,9.246Zm-21.969,0.324l-8.498,2.315l-10.853,-4.088l-4.657,-8.885l11.415,-15.761l9.996,0.838l6.189,4.704l0.832,9.723l-4.424,11.154Zm21.52,-30.735l-8.867,0.346l-6.786,-11.008l4.31,-7.864l4.333,-6.435l4.902,0.661l1.402,-3.536l4.553,-3.061l4.221,1.875l-0.81,7.145l-0.783,5.189l-2.15,8.865l-4.325,7.823Zm-25.616,-10.336l-8.801,6.261l-12.639,1.967l-4.005,-6.796l-0.695,-7.392l6.785,-4.09l7.337,0.243l7.25,2.038l4.768,7.769Zm-37.142,30.923l-13.256,-1.759l-3.026,-5.391l-7.693,-19.663c0,0 9.776,-1.44 11.579,-3.154c1.802,-1.714 8.567,-2.333 8.567,-2.333l4.376,8.758l-1.7,10.412l1.153,13.13Zm40.315,-50.868l2.942,-10.751l-5.223,-3.552l-5.789,1.577l-1.625,4.097l0.007,6.293l4.039,3.875l5.649,-1.539Zm-38.07,4.947l7.407,0.233l6.993,-8.281l-1.768,-4.895l-4.67,-6.875l-15.48,-0.759l1.547,5.848l-3.142,4.537l5.098,9.246l4.015,0.946Zm-51.862,19.475l9.798,5.943l8.665,-0.416l8.347,-12.763l-13.701,-7.272l-11.236,3.536l-1.873,10.972Zm33.517,-17.141l-8.498,2.315l-10.854,-4.088l-4.656,-8.885l11.415,-15.761l9.995,0.837l6.189,4.705l0.833,9.722l-4.424,11.155Zm11.944,-28.602l-8.866,0.346l-6.787,-11.008l4.311,-7.864l4.332,-6.435l4.902,0.66l1.403,-3.535l4.553,-3.062l4.22,1.876l-0.81,7.145l-0.783,5.188l-2.15,8.866l-4.325,7.823Zm-19.738,-6.26l-8.801,6.26l-12.639,1.967l-4.005,-6.795l-0.695,-7.393l6.786,-4.09l7.336,0.244l7.25,2.038l4.768,7.769Z" style="fill:#4e4d47;fill-opacity:0.2;"/></g><path d="M173.474,195.372l-18.415,-12.265l-11.919,-15.501l-16.021,-13.456l-15.251,-17.99l-29.626,-18.603l-16.1,-20.824l-24.791,-12.396l-20.544,-13.598l-12.847,-16.84l-3.393,25.136l3.393,25.229l-2.263,34.369l2.263,11.864l101.411,50.404l112.402,56.186l-1.954,-9.756l-14.146,-14.393l-14.44,-17.954l-17.759,-19.612Z" style="fill:#857c6c;"/><clipPath id="_clip2"><path d="M173.474,195.372l-18.415,-12.265l-11.919,-15.501l-16.021,-13.456l-15.251,-17.99l-29.626,-18.603l-16.1,-20.824l-24.791,-12.396l-20.544,-13.598l-12.847,-16.84l-3.393,25.136l3.393,25.229l-2.263,34.369l2.263,11.864l101.411,50.404l112.402,56.186l-1.954,-9.756l-14.146,-14.393l-14.44,-17.954l-17.759,-19.612Z"/></clipPath><g clip-path="url(#_clip2)"><g><path d="M109.764,235.054l7.47,-8.393l-0.629,-15.381l-4.861,-8.365l-7.639,3.249l-3.734,6.804l-0.66,10.713l10.053,11.373" style="fill:#857c6c;"/><path d="M97.345,253.586l9.713,-5.467l-1.145,-6.212l-5.192,-3.008l-4.056,1.725l-4.47,4.429l0.084,5.597l5.066,2.936Z" style="fill:#857c6c;"/><path d="M67.062,229.991l5.042,5.43l10.805,-0.849l2.238,-4.698l1.605,-8.155l-10.343,-11.542l-3.071,5.211l-5.435,0.956l-2.991,10.126l2.15,3.521" style="fill:#857c6c;"/><path d="M86.223,204.769l-6.48,-6.062l3.057,-12.565l8.623,-2.463l7.622,-1.443l2.977,3.95l3.5,-1.489l5.378,1.086l1.634,4.32l-5.651,4.448l-4.24,3.09l-7.816,4.704l-8.604,2.424Z" style="fill:#857c6c;"/><path d="M49.236,211.074l-7.62,-4.416l-4.724,-10.592l3.045,-9.558l19.234,-2.963l6.431,7.697l1.006,7.708l-6.329,7.428l-11.043,4.696Z" style="fill:#857c6c;"/><path d="M27.461,174.614l-8.069,-10.665l1.706,-5.941l8.575,-19.295c0,0 7.897,5.94 10.383,6.017c2.486,0.076 7.683,4.452 7.683,4.452l-3.152,9.269l-8.6,6.112l-8.526,10.051Z" style="fill:#857c6c;"/><path d="M75.563,179.286l-10.639,-1.857l-10.285,-7.605l2.017,-7.626l4.768,-5.692l7.68,1.951l4.984,5.388l3.648,6.589l-2.173,8.852" style="fill:#857c6c;"/><path d="M16.751,206.801l9.119,-6.382l10.414,5.505l4.462,14.855l-14.946,3.037l-6.387,-5.869l-2.662,-11.146" style="fill:#857c6c;"/><path d="M104.397,148.989l7.471,-8.393l-0.629,-15.381l-4.861,-8.365l-7.639,3.249l-3.734,6.804l-0.661,10.713l10.053,11.373" style="fill:#857c6c;"/><path d="M91.978,167.521l9.714,-5.467l-1.146,-6.212l-5.191,-3.008l-4.057,1.725l-4.47,4.429l0.085,5.597l5.065,2.936Z" style="fill:#857c6c;"/><path d="M61.695,143.926l5.042,5.43l10.806,-0.849l2.238,-4.698l1.605,-8.155l-10.344,-11.542l-3.07,5.211l-5.436,0.955l-2.99,10.127l2.149,3.521" style="fill:#857c6c;"/><path d="M75.876,120.905l-6.48,-6.062l3.056,-12.564l8.624,-2.464l7.622,-1.443l2.976,3.95l3.501,-1.488l5.378,1.085l1.634,4.32l-5.651,4.448l-4.24,3.09l-7.817,4.704l-8.603,2.424Z" style="fill:#857c6c;"/><path d="M47.137,132.52l-7.62,-4.416l-4.724,-10.592l3.045,-9.558l19.234,-2.963l6.431,7.696l1.006,7.709l-6.329,7.428l-11.043,4.696Z" style="fill:#857c6c;"/><path d="M19.453,98.376l-8.069,-10.664l1.707,-5.942l8.575,-19.294c0,0 7.896,5.94 10.382,6.016c2.486,0.077 7.683,4.452 7.683,4.452l-3.152,9.269l-8.599,6.112l-8.527,10.051Z" style="fill:#857c6c;"/><path d="M66.45,102.467l-10.639,-1.857l-10.285,-7.605l2.017,-7.626l4.768,-5.691l7.68,1.95l4.984,5.388l3.648,6.589l-2.173,8.852" style="fill:#857c6c;"/><path d="M11.384,120.736l9.12,-6.382l10.414,5.505l4.461,14.855l-14.945,3.037l-6.387,-5.869l-2.663,-11.146" style="fill:#857c6c;"/><path d="M98.877,258.857l9.714,-5.467l-1.146,-6.212l-5.191,-3.008l-4.057,1.725l-4.47,4.429l0.085,5.597l5.065,2.936Zm-30.283,-23.595l5.042,5.43l10.806,-0.849l2.238,-4.698l1.605,-8.155l-10.344,-11.542l-3.07,5.211l-5.436,0.956l-2.99,10.126l2.149,3.521Zm42.702,5.063l7.471,-8.393l-0.629,-15.381l-4.861,-8.365l-7.639,3.249l-3.734,6.804l-0.66,10.713l10.052,11.373Zm-93.013,-28.253l2.663,11.146l6.387,5.869l14.945,-3.037l-4.461,-14.855l-10.414,-5.505l-9.12,6.382Zm32.486,4.273l-7.621,-4.416l-4.724,-10.592l3.046,-9.558l19.233,-2.963l6.432,7.697l1.006,7.708l-6.329,7.428l-11.043,4.696Zm36.986,-6.305l-6.479,-6.062l3.056,-12.565l8.623,-2.463l7.623,-1.443l2.976,3.95l3.5,-1.489l5.379,1.086l1.633,4.32l-5.65,4.448l-4.241,3.09l-7.816,4.704l-8.604,2.424Zm-10.659,-25.483l-10.639,-1.857l-10.285,-7.605l2.017,-7.626l4.768,-5.692l7.679,1.951l4.985,5.388l3.648,6.588l-2.173,8.853Zm-48.103,-4.672l-8.069,-10.665l1.707,-5.941l8.575,-19.295c0,0 7.896,5.94 10.382,6.017c2.486,0.076 7.683,4.452 7.683,4.452l-3.152,9.269l-8.599,6.112l-8.527,10.051Zm64.518,-7.094l9.713,-5.466l-1.145,-6.212l-5.192,-3.008l-4.056,1.725l-4.471,4.429l0.085,5.597l5.066,2.935Zm-30.283,-23.594l5.042,5.43l10.805,-0.849l2.238,-4.698l1.605,-8.155l-10.343,-11.542l-3.071,5.211l-5.435,0.955l-2.991,10.127l2.15,3.521Zm42.702,5.063l7.47,-8.393l-0.629,-15.381l-4.861,-8.365l-7.639,3.249l-3.734,6.804l-0.66,10.713l10.053,11.373Zm-93.013,-28.253l2.662,11.146l6.387,5.869l14.946,-3.037l-4.462,-14.855l-10.414,-5.505l-9.119,6.382Zm35.753,11.784l-7.62,-4.416l-4.724,-10.592l3.045,-9.558l19.233,-2.963l6.432,7.696l1.006,7.709l-6.329,7.428l-11.043,4.696Zm28.738,-11.615l-6.48,-6.062l3.057,-12.565l8.623,-2.463l7.622,-1.443l2.977,3.95l3.5,-1.488l5.378,1.085l1.634,4.32l-5.651,4.448l-4.24,3.09l-7.816,4.704l-8.604,2.424Zm-9.425,-18.438l-10.639,-1.857l-10.285,-7.605l2.016,-7.626l4.769,-5.691l7.679,1.95l4.985,5.388l3.648,6.589l-2.173,8.852Zm-46.997,-4.091l-8.069,-10.664l1.706,-5.942l8.575,-19.294c0,0 7.897,5.94 10.383,6.016c2.486,0.077 7.683,4.452 7.683,4.452l-3.152,9.269l-8.6,6.112l-8.526,10.051Z" style="fill:#4e4d47;fill-opacity:0.6;"/></g><g><path d="M125.151,267.751l-8.069,-10.664l1.707,-5.942l8.575,-19.295c0,0 7.897,5.94 10.382,6.017c2.486,0.077 7.683,4.452 7.683,4.452l-3.152,9.269l-8.599,6.112l-8.527,10.051Z" style="fill:#857c6c;"/><path d="M173.254,272.423l-10.639,-1.857l-10.285,-7.605l2.017,-7.626l4.768,-5.691l7.679,1.95l4.985,5.388l3.648,6.589l-2.173,8.852" style="fill:#857c6c;"/><path d="M202.088,242.126l7.47,-8.393l-0.629,-15.381l-4.861,-8.364l-7.639,3.248l-3.734,6.804l-0.66,10.713l10.053,11.373" style="fill:#857c6c;"/><path d="M189.669,260.658l9.713,-5.467l-1.145,-6.211l-5.192,-3.009l-4.056,1.725l-4.47,4.43l0.084,5.596l5.066,2.936Z" style="fill:#857c6c;"/><path d="M159.386,237.063l5.042,5.43l10.806,-0.848l2.237,-4.699l1.605,-8.155l-10.343,-11.541l-3.071,5.211l-5.435,0.955l-2.991,10.126l2.15,3.521" style="fill:#857c6c;"/><path d="M173.566,214.043l-6.48,-6.063l3.057,-12.564l8.623,-2.464l7.622,-1.443l2.977,3.95l3.5,-1.488l5.378,1.085l1.634,4.32l-5.651,4.448l-4.24,3.091l-7.816,4.703l-8.604,2.425Z" style="fill:#857c6c;"/><path d="M144.828,225.657l-7.62,-4.416l-4.724,-10.592l3.045,-9.558l19.233,-2.963l6.432,7.697l1.006,7.708l-6.329,7.428l-11.043,4.696Z" style="fill:#857c6c;"/><path d="M117.144,191.514l-8.069,-10.665l1.706,-5.942l8.575,-19.294c0,0 7.897,5.94 10.383,6.017c2.486,0.076 7.683,4.452 7.683,4.452l-3.152,9.269l-8.6,6.112l-8.526,10.051Z" style="fill:#857c6c;"/><path d="M164.141,195.605l-10.639,-1.857l-10.285,-7.605l2.016,-7.626l4.769,-5.692l7.679,1.95l4.985,5.389l3.648,6.588l-2.173,8.853" style="fill:#857c6c;"/><path d="M109.075,213.873l9.119,-6.382l10.414,5.505l4.462,14.856l-14.946,3.036l-6.387,-5.869l-2.662,-11.146" style="fill:#857c6c;"/><path d="M196.568,351.994l9.713,-5.467l-1.145,-6.211l-5.192,-3.009l-4.056,1.725l-4.47,4.43l0.084,5.596l5.066,2.936Zm-30.283,-23.595l5.042,5.43l10.806,-0.848l2.237,-4.699l1.606,-8.155l-10.344,-11.541l-3.071,5.211l-5.435,0.955l-2.991,10.126l2.15,3.521Zm42.702,5.063l7.47,-8.393l-0.628,-15.381l-4.862,-8.364l-7.638,3.248l-3.735,6.804l-0.66,10.713l10.053,11.373Zm-93.013,-28.253l2.662,11.146l6.388,5.869l14.945,-3.036l-4.461,-14.856l-10.415,-5.505l-9.119,6.382Zm32.485,4.274l-7.62,-4.416l-4.724,-10.593l3.045,-9.557l19.234,-2.964l6.431,7.697l1.006,7.709l-6.329,7.427l-11.043,4.697Zm36.987,-6.306l-6.48,-6.062l3.057,-12.564l8.623,-2.464l7.622,-1.443l2.977,3.95l3.5,-1.488l5.378,1.085l1.634,4.32l-5.651,4.448l-4.24,3.09l-7.816,4.704l-8.604,2.424Zm-10.66,-25.483l-10.639,-1.857l-10.284,-7.605l2.016,-7.626l4.769,-5.691l7.679,1.95l4.985,5.388l3.647,6.589l-2.173,8.852Zm-48.102,-4.672l-8.069,-10.664l1.706,-5.942l8.575,-19.295c0,0 7.897,5.94 10.383,6.017c2.486,0.077 7.683,4.452 7.683,4.452l-3.152,9.269l-8.6,6.112l-8.526,10.051Zm64.517,-7.093l9.714,-5.467l-1.146,-6.211l-5.191,-3.009l-4.057,1.725l-4.47,4.43l0.085,5.596l5.065,2.936Zm-30.283,-23.595l5.042,5.43l10.806,-0.848l2.238,-4.699l1.605,-8.155l-10.344,-11.541l-3.07,5.211l-5.436,0.955l-2.99,10.126l2.149,3.521Zm42.702,5.063l7.471,-8.393l-0.629,-15.381l-4.861,-8.365l-7.639,3.249l-3.734,6.804l-0.66,10.713l10.052,11.373Zm-93.013,-28.253l2.663,11.146l6.387,5.869l14.945,-3.036l-4.461,-14.856l-10.414,-5.505l-9.12,6.382Zm35.754,11.784l-7.621,-4.416l-4.724,-10.592l3.045,-9.558l19.234,-2.963l6.432,7.697l1.005,7.708l-6.328,7.428l-11.043,4.696Zm28.738,-11.614l-6.48,-6.063l3.057,-12.564l8.623,-2.464l7.622,-1.443l2.977,3.95l3.5,-1.488l5.378,1.085l1.634,4.32l-5.651,4.448l-4.24,3.091l-7.817,4.703l-8.603,2.425Zm-9.426,-18.438l-10.639,-1.857l-10.285,-7.606l2.017,-7.625l4.768,-5.692l7.68,1.95l4.984,5.389l3.648,6.588l-2.173,8.853Zm-46.997,-4.091l-8.069,-10.665l1.707,-5.942l8.575,-19.294c0,0 7.897,5.94 10.382,6.016c2.486,0.077 7.683,4.453 7.683,4.453l-3.151,9.269l-8.6,6.112l-8.527,10.051Z" style="fill:#4e4d47;fill-opacity:0.6;"/></g></g><g><path d="M212.376,257.002l-8.867,0.346l-6.786,-11.007l4.311,-7.864l4.332,-6.435l4.902,0.66l1.402,-3.536l4.554,-3.061l4.22,1.875l-0.81,7.146l-0.783,5.188l-2.15,8.865l-4.325,7.823Z" style="fill:#857c6c;"/><path d="M189.61,202.872l-0.717,-11.214l-11.379,-10.366l-9.367,-2.424l-3.06,7.716l2.213,7.44l7.154,8.001l15.156,0.847" style="fill:#857c6c;"/><path d="M194.058,224.732l2.941,-10.751l-5.223,-3.552l-5.789,1.577l-1.625,4.097l0.007,6.293l4.04,3.875l5.649,-1.539Z" style="fill:#857c6c;"/><path d="M155.988,229.679l7.406,0.232l6.994,-8.281l-1.768,-4.894l-4.671,-6.875l-15.48,-0.759l1.547,5.847l-3.142,4.537l5.099,9.246l4.015,0.947" style="fill:#857c6c;"/><path d="M149.587,203.41l-8.867,0.346l-6.786,-11.007l4.31,-7.864l4.333,-6.435l4.902,0.66l1.402,-3.535l4.553,-3.062l4.221,1.875l-0.81,7.146l-0.783,5.188l-2.15,8.866l-4.325,7.822Z" style="fill:#857c6c;"/><path d="M129.848,197.151l-8.8,6.26l-12.639,1.967l-4.006,-6.796l-0.695,-7.392l6.786,-4.09l7.336,0.243l7.251,2.038l4.767,7.77" style="fill:#857c6c;"/><path d="M221.326,257.628l-8.867,0.346l-6.786,-11.007l4.311,-7.864l4.332,-6.435l4.902,0.66l1.402,-3.535l4.554,-3.062l4.22,1.875l-0.81,7.146l-0.783,5.188l-2.15,8.866l-4.325,7.822Zm-22.443,-30.28l2.942,-10.751l-5.223,-3.552l-5.789,1.576l-1.625,4.098l0.007,6.293l4.04,3.874l5.648,-1.538Zm-38.069,4.947l7.406,0.232l6.994,-8.281l-1.768,-4.894l-4.671,-6.875l-15.48,-0.759l1.547,5.847l-3.142,4.537l5.098,9.246l4.016,0.947Zm33.622,-26.807l-0.717,-11.214l-11.38,-10.366l-9.366,-2.424l-3.06,7.716l2.213,7.439l7.154,8.002l15.156,0.847Zm-40.024,0.538l-8.866,0.346l-6.786,-11.007l4.31,-7.864l4.333,-6.435l4.902,0.66l1.402,-3.535l4.553,-3.062l4.221,1.875l-0.81,7.146l-0.783,5.188l-2.151,8.866l-4.325,7.822Zm-19.738,-6.26l-8.8,6.261l-12.64,1.967l-4.005,-6.796l-0.695,-7.392l6.786,-4.09l7.336,0.243l7.25,2.038l4.768,7.769Z" style="fill:#4e4d47;fill-opacity:0.6;"/><path d="M149.272,197.88l-8.866,0.346l-6.786,-11.007l4.31,-7.865l4.333,-6.435l4.902,0.661l1.402,-3.536l4.553,-3.061l4.221,1.875l-0.81,7.146l-0.783,5.188l-2.151,8.865l-4.325,7.823Z" style="fill:#857c6c;"/><path d="M126.506,143.749l-0.716,-11.213l-11.38,-10.366l-9.366,-2.424l-3.06,7.716l2.213,7.439l7.154,8.001l15.155,0.847" style="fill:#857c6c;"/><path d="M130.954,165.61l2.942,-10.751l-5.223,-3.552l-5.789,1.576l-1.626,4.098l0.007,6.293l4.04,3.874l5.649,-1.538Z" style="fill:#857c6c;"/><path d="M92.884,170.557l7.407,0.232l6.993,-8.281l-1.768,-4.894l-4.671,-6.875l-15.479,-0.759l1.547,5.847l-3.143,4.537l5.099,9.246l4.015,0.947" style="fill:#857c6c;"/><path d="M86.483,144.288l-8.867,0.346l-6.786,-11.007l4.311,-7.864l4.332,-6.435l4.902,0.66l1.402,-3.535l4.554,-3.062l4.22,1.875l-0.81,7.146l-0.783,5.188l-2.15,8.865l-4.325,7.823Z" style="fill:#857c6c;"/><path d="M66.745,138.028l-8.801,6.261l-12.639,1.967l-4.005,-6.796l-0.695,-7.392l6.786,-4.09l7.336,0.243l7.25,2.038l4.768,7.769" style="fill:#857c6c;"/><path d="M158.222,198.506l-8.866,0.346l-6.786,-11.007l4.31,-7.864l4.333,-6.435l4.902,0.66l1.402,-3.535l4.553,-3.062l4.221,1.875l-0.81,7.146l-0.783,5.188l-2.151,8.865l-4.325,7.823Zm-22.442,-30.28l2.941,-10.751l-5.222,-3.553l-5.79,1.577l-1.625,4.098l0.007,6.293l4.04,3.874l5.649,-1.538Zm-38.07,4.947l7.407,0.232l6.993,-8.281l-1.768,-4.894l-4.671,-6.875l-15.48,-0.759l1.547,5.847l-3.142,4.537l5.099,9.246l4.015,0.947Zm33.622,-26.808l-0.716,-11.213l-11.38,-10.366l-9.366,-2.424l-3.061,7.716l2.214,7.439l7.154,8.001l15.155,0.847Zm-40.023,0.539l-8.867,0.346l-6.786,-11.007l4.31,-7.864l4.333,-6.435l4.902,0.66l1.402,-3.536l4.553,-3.061l4.221,1.875l-0.81,7.146l-0.783,5.188l-2.15,8.865l-4.325,7.823Zm-19.739,-6.26l-8.8,6.26l-12.639,1.968l-4.005,-6.796l-0.695,-7.392l6.785,-4.09l7.337,0.243l7.25,2.038l4.767,7.769Z" style="fill:#4e4d47;fill-opacity:0.6;"/></g><g><path d="M83.758,192.205l-8.188,-3.418l-1.523,-12.841l7.22,-5.319l6.639,-4.014l4.168,2.662l2.76,-2.617l5.419,-0.86l3.039,3.477l-3.742,6.141l-2.894,4.377l-5.682,7.136l-7.216,5.276Z" style="fill:#857c6c;"/><path d="M85.89,133.521l4.07,-10.473l-5.959,-14.194l-7.476,-6.14l-6.024,5.711l-1.124,7.68l3.122,10.269l13.391,7.147" style="fill:#857c6c;"/><path d="M80.724,155.223l7.193,-8.515l-3.242,-5.42l-5.915,-1.007l-3.199,3.033l-2.642,5.712l2.033,5.215l5.772,0.982Z" style="fill:#857c6c;"/><path d="M44.108,143.687l6.621,3.328l9.829,-4.569l0.457,-5.183l-1.344,-8.203l-13.722,-7.203l-1.058,5.955l-4.76,2.793l0.734,10.533l3.243,2.549" style="fill:#857c6c;"/><path d="M49.358,117.164l-8.188,-3.418l-1.523,-12.841l7.22,-5.32l6.638,-4.013l4.169,2.662l2.76,-2.617l5.419,-0.861l3.039,3.478l-3.742,6.141l-2.894,4.376l-5.682,7.137l-7.216,5.276Z" style="fill:#857c6c;"/><path d="M34.088,103.178l-10.618,1.974l-12.293,-3.535l-0.773,-7.85l2.481,-6.999l7.877,-0.853l6.552,3.308l5.719,4.9l1.055,9.055" style="fill:#857c6c;"/><path d="M91.613,196.54l-8.188,-3.418l-1.523,-12.841l7.22,-5.319l6.639,-4.014l4.168,2.662l2.76,-2.617l5.419,-0.86l3.039,3.477l-3.742,6.141l-2.894,4.377l-5.682,7.137l-7.216,5.275Zm-7.612,-36.913l7.193,-8.515l-3.243,-5.42l-5.915,-1.006l-3.198,3.032l-2.643,5.712l2.034,5.215l5.772,0.982Zm-36.616,-11.536l6.621,3.328l9.829,-4.568l0.456,-5.184l-1.343,-8.203l-13.723,-7.203l-1.057,5.955l-4.76,2.793l0.733,10.533l3.244,2.549Zm41.782,-10.166l4.07,-10.473l-5.96,-14.193l-7.476,-6.141l-6.024,5.711l-1.123,7.68l3.122,10.269l13.391,7.147Zm-36.532,-16.357l-8.189,-3.418l-1.523,-12.841l7.22,-5.32l6.639,-4.013l4.169,2.662l2.76,-2.617l5.418,-0.861l3.04,3.478l-3.742,6.141l-2.895,4.376l-5.681,7.137l-7.216,5.276Zm-15.27,-13.986l-10.618,1.974l-12.293,-3.535l-0.773,-7.85l2.481,-6.998l7.877,-0.854l6.552,3.308l5.719,4.901l1.055,9.054Z" style="fill:#4e4d47;fill-opacity:0.6;"/></g><g><path d="M68.592,177.206l-2.779,-10.887l-13.102,-8.081l-9.653,-0.648l-1.579,8.149l3.552,6.901l8.511,6.539l15.05,-1.973" style="fill:#857c6c;"/><path d="M73.819,178.883l-2.779,-10.887l-13.102,-8.081l-9.653,-0.648l-1.579,8.149l3.551,6.901l8.512,6.539l15.05,-1.973Z" style="fill:#4e4d47;fill-opacity:0.6;"/><path d="M11.611,147.871l6.733,-8.996l-1.929,-15.272l-5.551,-7.923l-7.337,3.883l-3.145,7.096l0.249,10.73l10.98,10.482" style="fill:#857c6c;"/><path d="M13.584,152.993l6.733,-8.995l-1.928,-15.273l-5.552,-7.923l-7.337,3.884l-3.144,7.095l0.249,10.731l10.979,10.481Z" style="fill:#4e4d47;fill-opacity:0.6;"/></g><g><g><path d="M319.753,215.908l9.113,-0.471l2.808,-7.718l-7.038,-6.483l-4.566,-7.428l-8.758,-6.301l-13.923,5.527l0.269,9.599l6.267,9.288l15.828,3.987Z" style="fill:#c0c0c0;"/><path d="M286.747,170.816l12.641,7.695l-13.683,16.333l-11.041,-5.44l-9.377,-1.324l0.691,-6.664l-6.433,-10.456l6.864,-7.212l6.711,-1.956l9.784,4.417l3.843,4.607Z" style="fill:#c0c0c0;"/><path d="M267.353,153.09l13.022,5.502l7.483,6.097l3.389,-0.176l4.205,-0.217l-1.001,-4.755l-0.693,-4.771l-5.868,-3.094l-2.949,-3.535l-4.862,-2.276l-11.438,-4.214l-1.398,1.87l-2.58,6.343l2.69,3.226Z" style="fill:#c0c0c0;"/><path d="M244.831,126.089l11.208,1.795l4.244,6.819l2.394,7.257l-5.314,2.281l-11.087,-1.432l-11.301,-0.943l-8.496,-0.311l2.675,-4.286l-2.549,-3.055l0.152,-4.814l2.785,-1.907l15.289,-1.404" style="fill:#c0c0c0;"/><path d="M241.437,156.581l-9.107,-0.495l-10.717,2.957l3.87,10.372l5.02,4.033l1.552,6.684l7.44,1.479l5.206,-8.391l5.407,-6.243l-3.341,-7.964l-5.33,-2.432Z" style="fill:#c0c0c0;"/><path d="M198.794,130.847l11.61,6.424l5.899,11.895l-5.826,5.108l-6.666,2.749l-13.612,-6.506l-9.495,0.492l-0.133,-9.606l2.662,-4.944l5.256,-2.979l10.305,-2.633Z" style="fill:#c0c0c0;"/><path d="M201.773,171.886l13.764,6.159l7.615,11.978l-7.859,2.453l-6.954,0.36l-14.513,-7.996l-6.683,-0.519l0.734,-6.614l-9.712,-8.812l-0.105,-6.716l3.746,-1.614l5.705,1.716l2.234,2.679l12.028,6.926" style="fill:#c0c0c0;"/><path d="M160.012,132.923c1.629,0.936 12.019,12.596 12.019,12.596l2.128,11.883l-11.457,-0.586l-4.268,-7.386l-7.262,-6.436c0,0 7.211,-11.007 8.84,-10.071Z" style="fill:#c0c0c0;"/><path d="M263.42,196.286l-11.568,0.104l-8.408,7.322l3.382,7.533l9.272,8.55l10.26,0.409l9.277,-2.527l-3.989,-8.511l-4.712,-7.766l-3.514,-5.114" style="fill:#c0c0c0;"/><path d="M228.087,238.148l-2.118,11.373l5.572,9.657l8.041,-1.873l10.171,-7.459l2.371,-9.99l-0.699,-9.59l-9.119,2.281l-8.525,3.134l-5.694,2.467" style="fill:#c0c0c0;"/><path d="M290.622,205.288l-5.63,2.807l-8.062,8.93l6.571,7.879l9.394,-1.142l7.581,-3.947l-8.535,-7.274l0.874,-1.999l-0.669,-2.818l-1.524,-2.436Z" style="fill:#c0c0c0;"/><path d="M217.345,200.245l-6.199,2.612l-2.358,5.397l6.371,9.653l8.185,7.798l5.717,-4.528l4.075,-9.326l-15.791,-11.606Z" style="fill:#c0c0c0;"/></g><g><g opacity="0.2"><path d="M322.069,221.534l9.113,-0.472l1.654,-7.161l-5.884,-7.039l-4.566,-7.429l-8.758,-6.301l-13.923,5.527l0.268,9.599l6.268,9.289l15.828,3.987Z" style="fill:#4e4d47;"/><path d="M289.063,176.441l12.641,7.695l-13.683,16.333l-11.041,-5.44l-9.378,-1.324l0.692,-6.664l-6.433,-10.455l6.864,-7.213l6.711,-1.956l9.783,4.417l3.844,4.607Z" style="fill:#4e4d47;"/><path d="M269.669,158.715l13.022,5.502l7.483,6.097l3.389,-0.176l3.401,-0.194l-4.579,-5.49l3.067,-0.158l-5.246,-6.995l-2.949,-3.535l-4.862,-2.275l-11.438,-4.215l-1.398,1.871l-2.581,6.342l2.691,3.226Z" style="fill:#4e4d47;"/><path d="M247.147,131.714l11.208,1.795l4.244,6.819l2.394,7.257l-5.314,2.281l-11.087,-1.432l-11.301,-0.943l-8.496,-0.31l-3.07,-4.639l2.912,-4.957l5.323,-0.595l0.868,-6.453l12.319,1.177" style="fill:#4e4d47;"/><path d="M243.752,162.207l-9.106,-0.496l-10.717,2.958l1.555,4.733l4.708,4.016l4.179,12.339l7.44,1.479l5.206,-8.391l5.407,-6.243l-3.341,-7.964l-5.331,-2.431Z" style="fill:#4e4d47;"/><path d="M201.11,136.472l11.61,6.424l5.899,11.896l-5.826,5.108l-6.666,2.748l-13.612,-6.505l-9.495,0.491l-0.133,-9.606l2.662,-4.944l5.256,-2.979l10.305,-2.633Z" style="fill:#4e4d47;"/><path d="M204.089,177.512l13.764,6.158l7.615,11.978l-7.859,2.454l-6.954,0.36l-14.513,-7.997l-6.683,-0.519l-2.56,-5.613l0.768,-6.176l-7.059,-6.446l-0.232,-3.906l3.746,-1.615l5.704,1.716l2.235,2.68l12.028,6.926" style="fill:#4e4d47;"/><path d="M162.235,140.304c1.629,0.936 12.111,10.84 12.111,10.84l2.129,11.883l-11.457,-0.586l-4.268,-7.385l-7.262,-6.437c0,0 7.118,-9.251 8.747,-8.315Z" style="fill:#4e4d47;"/><path d="M263.53,202.368l-11.568,0.104l-8.408,7.323l3.382,7.532l9.272,8.55l10.26,0.409l9.277,-2.527l-3.989,-8.511l-4.712,-7.765l-3.514,-5.115" style="fill:#4e4d47;"/><path d="M232.279,240.245l-2.118,11.372l5.572,9.658l8.042,-1.874l10.171,-7.458l2.371,-9.991l-0.699,-9.59l-9.119,2.282l-8.526,3.133l-5.694,2.468" style="fill:#4e4d47;"/><path d="M292.938,210.913l-5.63,2.807l-8.062,8.931l4.516,2.436l8.679,-0.984l7.782,-3.708l-3.183,-3.288l-1.646,-1.268l-3.153,-3.308l0.697,-1.618Z" style="fill:#4e4d47;"/><path d="M219.661,205.871l-6.199,2.612l-2.358,5.397l6.964,8.968l6.882,6.189l6.427,-2.234l4.075,-9.326l-15.791,-11.606Z" style="fill:#4e4d47;"/></g></g></g><g><g><path d="M228.502,135.841l9.113,-0.472l2.808,-7.717l-7.038,-6.483l-4.566,-7.429l-8.758,-6.301l-13.923,5.527l0.269,9.599l6.268,9.289l15.827,3.987Z" style="fill:#c0c0c0;"/><path d="M195.496,90.748l12.641,7.696l-13.683,16.332l-11.041,-5.44l-9.377,-1.324l0.692,-6.664l-6.433,-10.455l6.863,-7.213l6.712,-1.956l9.783,4.417l3.843,4.607Z" style="fill:#c0c0c0;"/><path d="M176.103,73.023l13.021,5.501l7.483,6.097l3.389,-0.175l4.205,-0.218l-1.001,-4.755l-0.693,-4.77l-5.868,-3.095l-2.948,-3.535l-4.863,-2.275l-11.437,-4.215l-1.398,1.871l-2.581,6.343l2.691,3.226Z" style="fill:#c0c0c0;"/><path d="M153.58,46.021l11.208,1.795l4.244,6.819l2.394,7.257l-5.314,2.281l-11.087,-1.432l-11.301,-0.943l-8.496,-0.31l2.675,-4.287l-2.548,-3.055l0.151,-4.814l2.785,-1.907l15.289,-1.404" style="fill:#c0c0c0;"/><path d="M150.186,76.514l-9.106,-0.496l-10.718,2.958l3.87,10.371l5.02,4.034l1.552,6.683l7.44,1.479l5.206,-8.391l5.407,-6.243l-3.341,-7.964l-5.33,-2.431Z" style="fill:#c0c0c0;"/><path d="M107.543,50.779l11.61,6.425l5.899,11.895l-5.826,5.108l-6.666,2.748l-13.611,-6.505l-9.496,0.491l-0.132,-9.606l2.661,-4.944l5.256,-2.979l10.305,-2.633Z" style="fill:#c0c0c0;"/><path d="M110.523,91.819l13.763,6.158l7.616,11.978l-7.859,2.454l-6.955,0.36l-14.513,-7.997l-6.683,-0.519l0.734,-6.613l-9.712,-8.813l-0.105,-6.715l3.746,-1.615l5.705,1.716l2.235,2.68l12.028,6.926" style="fill:#c0c0c0;"/><path d="M249.854,192.029l-0.791,8.548l-11.886,3.622l-7.522,-5.653l-4.238,-4.768l2.842,-8.819l3.418,-2.271l2.895,-0.846l6.525,-5.454l8.913,0.797l4.181,2.752l0.788,3.651l-2.371,1.171l-2.754,7.27" style="fill:#c0c0c0;"/><path d="M68.761,52.856c1.629,0.936 12.019,12.595 12.019,12.595l2.128,11.883l-11.457,-0.586l-4.267,-7.385l-7.263,-6.437c0,0 7.211,-11.006 8.84,-10.07Z" style="fill:#c0c0c0;"/><path d="M159.786,109.94l-10.737,4.307l-5.167,9.88l5.891,5.785l11.748,4.589l9.705,-3.352l7.722,-5.73l-6.813,-6.476l-7.215,-5.518l-5.134,-3.485" style="fill:#c0c0c0;"/><path d="M199.371,125.22l-5.629,2.807l-8.063,8.931l6.572,7.878l9.394,-1.142l7.58,-3.946l-8.534,-7.274l0.873,-1.999l-0.669,-2.818l-1.524,-2.437Z" style="fill:#c0c0c0;"/><path d="M126.094,120.178l-6.199,2.612l-2.358,5.397l6.371,9.653l8.185,7.797l5.717,-4.527l4.075,-9.326l-15.791,-11.606Z" style="fill:#c0c0c0;"/></g><g><g opacity="0.2"><path d="M230.818,141.466l9.113,-0.472l1.654,-7.161l-5.884,-7.039l-4.566,-7.428l-8.758,-6.302l-13.923,5.528l0.269,9.598l6.267,9.289l15.828,3.987Z" style="fill:#4e4d47;"/><path d="M197.812,96.374l12.641,7.695l-13.683,16.333l-11.041,-5.441l-9.377,-1.323l0.691,-6.664l-6.433,-10.456l6.864,-7.212l6.711,-1.956l9.784,4.416l3.843,4.608Z" style="fill:#4e4d47;"/><path d="M178.419,78.648l13.021,5.501l7.483,6.097l3.389,-0.175l3.401,-0.195l-4.579,-5.489l3.067,-0.159l-5.246,-6.995l-2.948,-3.534l-4.863,-2.276l-11.438,-4.214l-1.397,1.87l-2.581,6.343l2.691,3.226Z" style="fill:#4e4d47;"/><path d="M155.896,51.647l11.208,1.795l4.244,6.818l2.394,7.257l-5.314,2.282l-11.087,-1.433l-11.301,-0.943l-8.496,-0.31l-3.07,-4.639l2.912,-4.957l5.323,-0.594l0.868,-6.454l12.319,1.178" style="fill:#4e4d47;"/><path d="M152.502,82.139l-9.107,-0.496l-10.717,2.958l1.555,4.733l4.708,4.017l4.179,12.339l7.44,1.479l5.206,-8.391l5.407,-6.243l-3.341,-7.965l-5.33,-2.431Z" style="fill:#4e4d47;"/><path d="M109.859,56.405l11.61,6.424l5.899,11.895l-5.826,5.108l-6.666,2.748l-13.611,-6.505l-9.496,0.492l-0.133,-9.606l2.662,-4.945l5.256,-2.979l10.305,-2.632Z" style="fill:#4e4d47;"/><path d="M112.839,97.444l13.763,6.158l7.616,11.979l-7.859,2.453l-6.955,0.36l-14.513,-7.997l-6.683,-0.519l-2.56,-5.612l0.768,-6.177l-7.059,-6.446l-0.232,-3.906l3.746,-1.615l5.705,1.717l2.234,2.679l12.029,6.926" style="fill:#4e4d47;"/><path d="M256.773,195.498l-0.11,8.731l-11.358,3.906l-7.806,-5.63l-4.521,-4.786l2.097,-9.044l0.41,-3.672l2.295,-1.976l8.588,1.191l4.39,-4.123l5.014,0.264l4.308,2.731l1.056,3.709l-2.231,1.236l-2.132,7.463" style="fill:#4e4d47;"/><path d="M70.984,60.236c1.629,0.936 12.112,10.84 12.112,10.84l2.128,11.883l-11.457,-0.585l-4.267,-7.386l-7.263,-6.437c0,0 7.118,-9.251 8.747,-8.315Z" style="fill:#4e4d47;"/><path d="M162.101,115.565l-10.736,4.307l-5.167,9.88l5.891,5.785l11.748,4.59l9.705,-3.353l7.722,-5.729l-6.813,-6.476l-7.215,-5.519l-5.135,-3.485" style="fill:#4e4d47;"/><path d="M201.687,130.846l-5.63,2.806l-8.062,8.931l4.516,2.436l8.679,-0.984l7.782,-3.707l-3.183,-3.288l-1.646,-1.269l-3.153,-3.308l0.697,-1.617Z" style="fill:#4e4d47;"/><path d="M128.41,125.803l-6.199,2.612l-2.358,5.397l6.964,8.968l6.882,6.189l6.427,-2.234l4.075,-9.326l-15.791,-11.606Z" style="fill:#4e4d47;"/></g></g></g></g><g id="Way_Ramp_Up_low2"><path d="M94.239,9.867l-59.904,29.952l70.601,54.71l41.731,53.065l107.335,93.652l56.085,-28.042l-215.848,-203.337" style="fill:#c7a664;"/><g><path d="M56.764,58.396l0.075,-9.125l7.588,-3.141l6.783,6.749l7.62,4.239l6.676,8.476l-4.916,14.15l-9.602,0.149l-9.552,-5.858l-4.672,-15.639Z" style="fill:#acaba7;"/><path d="M55.411,63.448l0.075,-9.126l7.588,-3.14l6.782,6.749l7.62,4.239l6.676,8.476l-4.916,14.15l-9.601,0.149l-9.553,-5.858l-4.671,-15.639Z" style="fill:#4e4d47;fill-opacity:0.6;"/><path d="M62.972,47.036l-3.835,10.914l-9.647,5.592l-6.035,-5.634l-5.096,-11.537l2.927,-9.842l5.388,-7.964l6.766,6.525l5.827,6.968l3.705,4.978" style="fill:#acaba7;"/><path d="M61.619,52.088l-3.836,10.914l-9.646,5.592l-6.036,-5.634l-5.096,-11.538l2.927,-9.842l5.389,-7.963l6.766,6.525l5.827,6.968l3.705,4.978" style="fill:#4e4d47;fill-opacity:0.6;"/><path d="M49.278,36.589l-2.559,5.746l-8.572,8.444l-8.156,-6.223l0.732,-9.435l3.613,-7.745l7.638,8.21l1.96,-0.959l2.844,0.545l2.5,1.417Z" style="fill:#acaba7;"/><path d="M47.925,41.641l-2.559,5.746l-7.168,7.067l-3.644,-3.35l0.467,-8.931l3.108,-5.034l2.492,3.499l1.959,-0.96l2.844,0.546l2.501,1.417Z" style="fill:#4e4d47;fill-opacity:0.6;"/><path d="M106.783,106.281l-6.062,-12.77l-6.417,-7.211l0.028,-3.393l0.035,-4.211l4.793,0.794l4.796,0.485l3.347,5.727l3.66,2.792l2.485,4.759l4.708,11.244l-1.808,1.478l-6.225,2.854l-3.34,-2.548Z" style="fill:#acaba7;"/><path d="M105.43,111.333l-6.063,-12.77l-6.416,-7.211l0.027,-3.394l0.035,-4.21l4.794,0.793l4.796,0.485l3.347,5.728l3.66,2.792l2.484,4.759l4.708,11.243l-1.808,1.478l-6.224,2.855l-3.34,-2.548Z" style="fill:#4e4d47;fill-opacity:0.6;"/><path d="M129.609,100.864l-3.88,-9.658l-7.289,-1.984l-7.344,-0.19l-1.13,5.431l3.513,9.647l3.091,9.974l1.945,7.607l3.544,-3.59l3.391,1.475l4.534,-1.449l1.266,-3.04l-1.641,-14.223" style="fill:#acaba7;"/><path d="M128.255,105.915l-3.88,-9.657l-7.288,-1.984l-7.345,-0.191l-1.129,5.432l3.513,9.647l3.09,9.973l1.946,7.607l3.543,-3.589l3.391,1.475l4.534,-1.449l1.266,-3.041l-1.641,-14.223" style="fill:#4e4d47;fill-opacity:0.6;"/><path d="M94.496,71.059l-6.961,-6.197l-7.866,4.829l-9.133,3.454l5.916,10.794l1.73,9.31l6.627,-0.981l10.726,5.973l6.907,-7.171l1.662,-6.79l-4.838,-9.582l-4.77,-3.639Z" style="fill:#acaba7;"/><path d="M93.143,76.11l-6.961,-6.196l-7.867,4.829l-9.132,3.453l5.915,10.794l1.73,9.311l6.628,-0.981l10.725,5.972l6.907,-7.171l1.663,-6.79l-4.838,-9.581l-4.77,-3.64Z" style="fill:#4e4d47;fill-opacity:0.6;"/><path d="M195.858,170.051l0.386,9.111l-3.087,10.681l-10.324,-3.994l-3.973,-5.069l-6.664,-1.632l-1.39,-7.458l8.454,-5.104l6.307,-5.331l7.924,3.436l2.367,5.36Z" style="fill:#acaba7;"/><path d="M194.226,175.019l0.386,9.112l-3.087,10.681l-10.324,-3.994l-3.973,-5.069l-6.664,-1.633l-1.39,-7.457l8.454,-5.104l6.307,-5.332l7.924,3.437l2.367,5.359Z" style="fill:#4e4d47;fill-opacity:0.6;"/><path d="M186.184,162.317l-6.284,-11.686l-11.824,-6.042l-5.178,5.764l-2.828,6.633l6.341,13.688l-0.606,9.489l9.604,0.248l4.976,-2.602l3.042,-5.219l2.757,-10.273Z" style="fill:#acaba7;"/><path d="M184.552,167.286l-6.284,-11.686l-11.824,-6.042l-5.177,5.764l-2.829,6.632l6.341,13.689l-0.606,9.489l9.604,0.248l4.976,-2.602l3.042,-5.219l2.757,-10.273Z" style="fill:#4e4d47;fill-opacity:0.6;"/><path d="M249.3,224.599l-2.732,7.316l-5.968,2.523l-11.006,-8.249l-8.984,-10.326l4.891,-6.622l10.314,-4.36l13.485,19.718Z" style="fill:#acaba7;"/><path d="M247.668,229.567l-2.731,7.316l-5.969,2.523l-10.934,-9.753l-4.37,-6.875l6.594,-6.992l6.428,-4.338l10.982,18.119Z" style="fill:#4e4d47;fill-opacity:0.6;"/><path d="M262.957,226.884l0.386,9.111l-3.087,10.681l-10.324,-3.994l-3.973,-5.069l-6.664,-1.633l-1.389,-7.457l8.453,-5.104l6.307,-5.332l7.924,3.437l2.367,5.36Z" style="fill:#acaba7;"/><path d="M261.325,231.852l0.386,9.112l-3.087,10.681l-10.324,-3.994l-3.973,-5.069l-6.664,-1.633l-1.389,-7.457l8.453,-5.105l6.307,-5.331l7.924,3.437l2.367,5.359Z" style="fill:#4e4d47;fill-opacity:0.6;"/><path d="M234.082,207.514l-6.284,-11.686l-11.823,-6.042l-5.178,5.764l-2.828,6.632l6.341,13.689l-0.606,9.489l9.604,0.248l4.976,-2.602l3.042,-5.22l2.756,-10.272Z" style="fill:#acaba7;"/><path d="M232.451,212.482l-6.284,-11.685l-11.824,-6.043l-5.178,5.765l-2.828,6.632l6.341,13.689l-0.606,9.489l9.604,0.248l4.976,-2.602l3.042,-5.22l2.757,-10.273Z" style="fill:#4e4d47;fill-opacity:0.6;"/><path d="M142.091,127.631l-5.992,-13.837l-11.886,-7.759l-2.548,7.829l-0.443,6.949l7.821,14.608l0.438,6.69l6.622,-0.655l8.695,9.818l6.714,0.185l1.659,-3.726l-1.647,-5.725l-2.652,-2.267l-6.781,-12.11" style="fill:#acaba7;"/><path d="M140.459,132.599l-5.992,-13.836l-11.886,-7.76l-2.548,7.829l-0.443,6.95l7.821,14.608l0.439,6.689l6.621,-0.654l8.695,9.817l6.714,0.186l1.659,-3.727l-1.647,-5.724l-2.652,-2.267l-6.781,-12.111" style="fill:#4e4d47;fill-opacity:0.6;"/><path d="M169.651,152.209c-0.917,-1.64 -12.45,-12.17 -12.45,-12.17l-11.857,-2.271l0.448,11.463l7.334,4.356l6.349,7.339c0,0 11.092,-7.077 10.176,-8.717Z" style="fill:#acaba7;"/><path d="M168.019,157.178c-0.916,-1.64 -12.45,-12.17 -12.45,-12.17l-11.856,-2.272l0.447,11.464l7.334,4.356l6.349,7.339c0,0 11.092,-7.077 10.176,-8.717Z" style="fill:#4e4d47;fill-opacity:0.6;"/><path d="M214.873,196.9l-2.731,7.316l-5.969,2.522l-11.005,-8.248l-8.984,-10.326l4.89,-6.623l10.314,-4.359l13.485,19.718Z" style="fill:#acaba7;"/><path d="M213.241,201.868l-2.731,7.316l-5.969,2.523l-10.933,-9.753l-4.371,-6.875l6.595,-6.992l6.428,-4.338l10.981,18.119Z" style="fill:#4e4d47;fill-opacity:0.6;"/></g><g><path d="M184.715,75.346l0.385,9.111l-3.086,10.681l-10.324,-3.994l-3.973,-5.069l-6.664,-1.633l-1.39,-7.457l8.453,-5.104l6.308,-5.332l7.924,3.437l2.367,5.36Z" style="fill:#acaba7;"/><path d="M183.083,80.314l0.386,9.112l-3.087,10.681l-10.324,-3.994l-3.973,-5.069l-6.664,-1.633l-1.39,-7.457l8.454,-5.105l6.307,-5.331l7.924,3.437l2.367,5.359Z" style="fill:#4e4d47;fill-opacity:0.6;"/><path d="M172.354,64.218l-6.284,-11.686l-11.823,-6.042l-5.178,5.764l-2.828,6.633l6.34,13.688l-0.606,9.489l9.604,0.248l4.976,-2.602l3.042,-5.219l2.757,-10.273Z" style="fill:#acaba7;"/><path d="M170.722,69.187l-6.284,-11.686l-11.823,-6.042l-5.178,5.764l-2.828,6.632l6.34,13.689l-0.605,9.489l9.603,0.248l4.976,-2.602l3.042,-5.22l2.757,-10.272Z" style="fill:#4e4d47;fill-opacity:0.6;"/><path d="M132.643,33.764l-5.992,-13.836l-11.886,-7.76l-2.548,7.829l-0.444,6.95l7.822,14.608l0.438,6.689l6.622,-0.654l8.695,9.817l6.713,0.185l1.66,-3.726l-1.647,-5.724l-2.652,-2.267l-6.781,-12.111" style="fill:#acaba7;"/><path d="M131.011,38.733l-5.992,-13.837l-11.886,-7.759l-2.548,7.829l-0.443,6.949l7.821,14.608l0.438,6.69l6.622,-0.655l8.695,9.818l6.714,0.185l1.659,-3.726l-1.647,-5.725l-2.652,-2.267l-6.781,-12.11" style="fill:#4e4d47;fill-opacity:0.6;"/><path d="M157.806,64.252c-0.916,-1.64 -12.449,-12.17 -12.449,-12.17l-11.857,-2.271l0.448,11.463l7.334,4.356l6.348,7.34c0,0 11.093,-7.078 10.176,-8.718Z" style="fill:#acaba7;"/><path d="M156.175,69.221c-0.917,-1.64 -12.45,-12.17 -12.45,-12.17l-11.857,-2.271l0.448,11.463l7.334,4.356l6.349,7.339c0,0 11.092,-7.077 10.176,-8.717Z" style="fill:#4e4d47;fill-opacity:0.6;"/><path d="M114.033,22.801l-2.731,7.316l-5.969,2.522l-11.006,-8.248l-8.984,-10.326l4.891,-6.623l10.314,-4.359l13.485,19.718Z" style="fill:#acaba7;"/><path d="M112.401,27.769l-2.731,7.316l-5.969,2.523l-10.933,-9.753l-4.371,-6.875l6.595,-6.992l6.427,-4.338l10.982,18.119Z" style="fill:#4e4d47;fill-opacity:0.6;"/><path d="M211.696,102.147l0.386,9.111l-3.086,10.681l-10.324,-3.994l-3.973,-5.069l-6.664,-1.633l-1.39,-7.457l8.453,-5.104l6.308,-5.332l7.924,3.437l2.366,5.36Z" style="fill:#acaba7;"/><path d="M210.065,107.115l0.386,9.112l-3.087,10.681l-10.324,-3.994l-3.973,-5.069l-6.664,-1.633l-1.39,-7.457l8.454,-5.105l6.307,-5.331l7.924,3.437l2.367,5.359Z" style="fill:#4e4d47;fill-opacity:0.6;"/><path d="M202.022,94.413l-6.284,-11.686l-11.823,-6.042l-5.178,5.764l-2.828,6.632l6.341,13.689l-0.606,9.489l9.604,0.248l4.975,-2.602l3.043,-5.219l2.756,-10.273Z" style="fill:#acaba7;"/><path d="M200.39,99.382l-6.284,-11.686l-11.823,-6.042l-5.178,5.764l-2.828,6.632l6.341,13.689l-0.606,9.489l9.604,0.248l4.976,-2.602l3.042,-5.22l2.756,-10.272Z" style="fill:#4e4d47;fill-opacity:0.6;"/><path d="M289.964,188.91l-2.731,7.316l-5.969,2.523l-11.006,-8.249l-8.984,-10.325l4.891,-6.623l10.314,-4.359l13.485,19.717Z" style="fill:#acaba7;"/><path d="M288.332,193.879l-2.731,7.316l-5.969,2.523l-10.933,-9.753l-4.371,-6.875l6.595,-6.992l6.427,-4.338l10.982,18.119Z" style="fill:#4e4d47;fill-opacity:0.6;"/><path d="M318.376,203.498l0.386,9.112l-3.087,10.681l-10.324,-3.994l-3.973,-5.069l-6.664,-1.633l-1.39,-7.457l8.454,-5.104l6.307,-5.332l7.924,3.437l2.367,5.359Z" style="fill:#acaba7;"/><path d="M316.744,208.467l0.386,9.112l-3.087,10.681l-10.324,-3.995l-3.973,-5.069l-6.664,-1.632l-1.39,-7.457l8.454,-5.105l6.307,-5.331l7.924,3.437l2.367,5.359Z" style="fill:#4e4d47;fill-opacity:0.6;"/><path d="M308.702,195.765l-6.284,-11.686l-11.824,-6.042l-5.178,5.764l-2.828,6.632l6.341,13.689l-0.606,9.489l9.604,0.248l4.976,-2.602l3.042,-5.22l2.757,-10.272Z" style="fill:#acaba7;"/><path d="M307.07,200.733l-6.284,-11.685l-11.824,-6.043l-5.177,5.765l-2.829,6.632l6.341,13.689l-0.606,9.489l9.604,0.248l4.976,-2.602l3.042,-5.22l2.757,-10.273Z" style="fill:#4e4d47;fill-opacity:0.6;"/><path d="M246.926,145.868l-5.992,-13.836l-11.886,-7.759l-2.548,7.828l-0.443,6.95l7.821,14.608l0.438,6.69l6.622,-0.655l8.695,9.818l6.714,0.185l1.659,-3.726l-1.647,-5.725l-2.652,-2.267l-6.781,-12.111" style="fill:#acaba7;"/><path d="M245.294,150.837l-5.992,-13.836l-11.886,-7.76l-2.548,7.829l-0.443,6.95l7.821,14.608l0.439,6.689l6.621,-0.654l8.695,9.817l6.714,0.186l1.659,-3.727l-1.647,-5.724l-2.652,-2.267l-6.781,-12.111" style="fill:#4e4d47;fill-opacity:0.6;"/><path d="M274.486,170.447c-0.917,-1.64 -12.45,-12.17 -12.45,-12.17l-11.857,-2.271l0.448,11.463l7.334,4.356l6.349,7.339c0,0 11.092,-7.077 10.176,-8.717Z" style="fill:#acaba7;"/><path d="M272.854,175.416c-0.916,-1.64 -12.45,-12.17 -12.45,-12.17l-11.856,-2.272l0.447,11.464l7.334,4.356l6.349,7.339c0,0 11.092,-7.077 10.176,-8.717Z" style="fill:#4e4d47;fill-opacity:0.6;"/><path d="M230.712,128.995l-2.731,7.316l-5.969,2.523l-11.005,-8.249l-8.985,-10.325l4.891,-6.623l10.314,-4.359l13.485,19.717Z" style="fill:#acaba7;"/><path d="M229.08,133.964l-2.731,7.316l-5.969,2.523l-10.933,-9.753l-4.371,-6.875l6.595,-6.992l6.427,-4.338l10.982,18.119Z" style="fill:#4e4d47;fill-opacity:0.6;"/></g></g><path d="M141.017,189.877l-8.867,0.347l-6.786,-11.008l4.311,-7.864l4.332,-6.435l4.902,0.66l1.402,-3.535l4.554,-3.062l4.22,1.875l-0.81,7.146l-0.783,5.188l-2.15,8.866l-4.325,7.822Z" style="fill:#857c6c;"/><path d="M118.251,135.747l-0.717,-11.213l-11.379,-10.367l-9.367,-2.423l-3.06,7.716l2.213,7.439l7.155,8.001l15.155,0.847" style="fill:#857c6c;"/><path d="M132.917,149.864l-5.001,-6.073l-5.982,2.809l-12.666,11.861l1.786,6.26l7.562,2.017l12.007,-5.464l2.294,-11.41" style="fill:#857c6c;"/><path d="M14.972,62.602l-4.085,6.723l4.624,4.722l15.374,8.046l5.321,-3.75l-0.589,-7.803l-9.117,-9.535l-11.528,1.597" style="fill:#857c6c;"/><path d="M11.914,65.607l-4.085,6.723l4.625,4.722l15.374,8.046l5.32,-3.75l-0.589,-7.803l-9.117,-9.535l-11.528,1.597" style="fill:#4e4d47;fill-opacity:0.6;"/><path d="M84.629,162.555l7.406,0.232l6.994,-8.281l-1.768,-4.895l-4.671,-6.875l-15.48,-0.758l1.547,5.847l-3.142,4.537l5.099,9.246l4.015,0.947" style="fill:#857c6c;"/><path d="M78.228,136.286l-8.867,0.346l-6.786,-11.007l4.31,-7.865l4.333,-6.435l4.902,0.661l1.402,-3.536l4.553,-3.061l4.221,1.875l-0.81,7.145l-0.783,5.189l-2.15,8.865l-4.325,7.823Z" style="fill:#857c6c;"/><path d="M58.489,130.026l-8.8,6.26l-12.639,1.967l-4.006,-6.795l-0.695,-7.393l6.786,-4.09l7.336,0.244l7.251,2.038l4.767,7.769" style="fill:#857c6c;"/><path d="M145.403,190.866l-8.867,0.346l-6.786,-11.007l4.31,-7.865l4.333,-6.435l4.902,0.661l1.402,-3.536l4.553,-3.061l4.221,1.875l-0.81,7.146l-0.783,5.188l-2.151,8.865l-4.324,7.823Zm-22.443,-30.281l2.941,-10.751l-5.222,-3.552l-5.789,1.577l-12.351,10.661l0.779,7.833l6.412,0.35l13.23,-6.118Zm-38.07,4.948l7.407,0.232l6.993,-8.281l-1.768,-4.895l-4.671,-6.875l-15.479,-0.758l1.547,5.847l-3.143,4.537l5.099,9.246l4.015,0.947Zm33.622,-26.808l-0.716,-11.213l-11.38,-10.367l-9.366,-2.423l-3.061,7.716l2.214,7.439l7.154,8.001l15.155,0.847Zm-40.023,0.539l-8.867,0.346l-6.786,-11.007l4.311,-7.865l4.332,-6.435l4.902,0.661l1.402,-3.536l4.553,-3.061l4.221,1.875l-0.81,7.145l-0.783,5.189l-2.15,8.865l-4.325,7.823Zm-19.738,-6.26l-8.801,6.26l-12.639,1.967l-4.005,-6.795l-0.695,-7.393l6.785,-4.09l7.337,0.244l7.25,2.038l4.768,7.769Z" style="fill:#4e4d47;fill-opacity:0.6;"/></g></svg>