<?xml version="1.0" encoding="UTF-8" standalone="no"?><!DOCTYPE svg PUBLIC "-//W3C//DTD SVG 1.1//EN" "http://www.w3.org/Graphics/SVG/1.1/DTD/svg11.dtd"><svg width="100%" height="100%" viewBox="0 0 334 262" version="1.1" xmlns="http://www.w3.org/2000/svg" xmlns:xlink="http://www.w3.org/1999/xlink" xml:space="preserve" xmlns:serif="http://www.serif.com/" style="fill-rule:evenodd;clip-rule:evenodd;stroke-linejoin:round;stroke-miterlimit:1.41421;"><g id="Stone_Ramp_LeftUp_low-angle1"><path d="M8.375,53.687l18.528,-12.134l20.978,-5.611l21.367,-12.624l15.817,-7.931l14.541,-1.881l16.1,-13.484l11.049,16.009l31.033,15.516l16.1,24.15l21.74,16.237l10.459,15.962l16.1,8.05l5.366,10.959l10.734,5.366l21.466,24.611l16.1,12.73l16.099,18.783l16.1,18.783l21.466,16.099l-107.331,53.666l-207.66,-175.231l-6.152,-28.025Z" style="fill:#beb3a6;"/><clipPath id="_clip1"><path d="M8.375,53.687l18.528,-12.134l20.978,-5.611l21.367,-12.624l15.817,-7.931l14.541,-1.881l16.1,-13.484l11.049,16.009l31.033,15.516l16.1,24.15l21.74,16.237l10.459,15.962l16.1,8.05l5.366,10.959l10.734,5.366l21.466,24.611l16.1,12.73l16.099,18.783l16.1,18.783l21.466,16.099l-107.331,53.666l-207.66,-175.231l-6.152,-28.025Z"/></clipPath><g clip-path="url(#_clip1)"><g><g><path d="M30.138,68.514l-8.162,-4.081l0.517,-8.196l9.045,-3.123l7.158,-4.979l10.548,-2.267l10.546,10.639l-4.09,8.689l-9.462,6.001l-16.1,-2.683Z" style="fill:#c0c0c0;"/><path d="M78.437,40.409l-14.664,1.99l5.999,20.445l12.296,-0.565l9.122,2.542l2.034,-6.384l10.081,-7.005l-3.401,-9.357l-5.367,-4.48l-10.733,0.131l-5.367,2.683Z" style="fill:#c0c0c0;"/><path d="M103.305,31.931l-14.135,-0.173l-9.297,2.591l-3.036,-1.518l-3.766,-1.883l2.821,-3.956l2.545,-4.094l6.616,-0.486l4.117,-2.059l5.367,-0.138l12.168,0.718l0.532,2.273l-0.174,6.846l-3.758,1.879Z" style="fill:#c0c0c0;"/><path d="M134.755,16.206l-10.99,-2.843l-6.618,4.549l-5.1,5.692l3.956,4.218l10.733,3.126l10.733,3.661l7.91,3.117l-0.734,-4.999l3.558,-1.779l1.788,-4.472l-1.788,-2.862l-13.448,-7.408" style="fill:#c0c0c0;"/><path d="M125.657,45.506l8.542,3.192l8.637,7.002l-7.698,7.954l-6.216,1.686l-4.098,5.503l-7.41,-1.623l-1.411,-9.774l-2.455,-7.885l6.25,-5.961l5.859,-0.094Z" style="fill:#c0c0c0;"/><path d="M175.035,38.998l-13.21,1.239l-10.168,8.538l3.293,7.013l5.008,5.188l15.077,-0.512l8.505,4.253l3.967,-8.75l-0.459,-5.596l-3.624,-4.834l-8.389,-6.539Z" style="fill:#c0c0c0;"/><path d="M155.874,75.412l-15.078,0.132l-11.774,7.927l6.219,5.395l6.228,3.114l16.501,-1.517l6.332,2.201l1.975,-6.354l12.428,-4.187l2.785,-6.112l-2.786,-2.979l-5.915,-0.712l-3.12,1.561l-13.795,1.531" style="fill:#c0c0c0;"/><path d="M103.476,72.293l8.115,8.245l0.779,11.123l-7.715,2.942l-12.603,-0.498l-7.551,-6.958l-4.782,-8.342l8.836,-3.206l8.821,-2.168l6.1,-1.138" style="fill:#c0c0c0;"/><path d="M61.084,70.446l4.035,4.826l3.813,11.411l-9.177,4.589l-8.151,-4.809l-5.366,-6.651l10.733,-3.248l0,-2.182l1.741,-2.314l2.372,-1.622Z" style="fill:#c0c0c0;"/><path d="M130.251,95.164l4.634,4.875l0,5.89l-9.703,6.295l-10.622,3.868l-3.426,-6.438l0,-10.178l19.117,-4.312Z" style="fill:#c0c0c0;"/></g><g><g opacity="0.2"><path d="M25.764,72.742l-8.163,-4.082l1.352,-7.224l8.21,-4.094l7.159,-4.979l10.548,-2.268l10.545,10.64l-4.089,8.688l-9.463,6.002l-16.099,-2.683Z" style="fill:#4e4d47;"/><path d="M74.063,44.636l-14.665,1.99l5.999,20.445l12.296,-0.564l9.123,2.541l2.034,-6.383l10.081,-7.005l-3.402,-9.358l-5.367,-4.479l-10.733,0.13l-5.366,2.683Z" style="fill:#4e4d47;"/><path d="M98.931,36.158l-14.135,-0.172l-9.298,2.591l-3.035,-1.518l-3.039,-1.54l6.394,-3.197l-2.747,-1.374l7.608,-4.309l4.117,-2.058l5.366,-0.138l12.169,0.717l0.532,2.274l-0.175,6.845l-3.757,1.879Z" style="fill:#4e4d47;"/><path d="M130.38,20.433l-10.989,-2.843l-6.619,4.55l-5.099,5.691l3.956,4.218l10.733,3.127l10.733,3.66l7.91,3.118l4.67,-3.022l-0.683,-5.708l-4.641,-2.677l1.789,-6.26l-11.76,-3.854" style="fill:#4e4d47;"/><path d="M121.282,49.734l8.543,3.192l8.637,7.001l-3.32,3.715l-5.923,1.795l-8.77,9.633l-7.41,-1.623l-1.41,-9.774l-2.455,-7.885l6.25,-5.961l5.858,-0.093Z" style="fill:#4e4d47;"/><path d="M170.661,43.226l-13.211,1.238l-10.168,8.538l3.294,7.014l5.008,5.187l15.077,-0.511l8.504,4.252l3.968,-8.749l-0.46,-5.597l-3.623,-4.834l-8.389,-6.538Z" style="fill:#4e4d47;"/><path d="M151.499,79.639l-15.077,0.133l-11.775,7.927l6.219,5.395l6.229,3.114l16.5,-1.517l6.333,2.2l4.593,-4.118l1.769,-5.968l9.049,-3.08l1.776,-3.486l-2.786,-2.98l-5.914,-0.711l-3.121,1.56l-13.795,1.531" style="fill:#4e4d47;"/><path d="M204.75,62.302c-1.867,0.205 -15.439,5.084 -15.439,5.084l-6.708,10.036l10.733,4.051l6.868,-5.059l9.232,-2.991c0,0 -2.818,-11.327 -4.686,-11.121Z" style="fill:#4e4d47;"/><path d="M99.102,76.52l8.114,8.245l0.779,11.123l-7.714,2.942l-12.603,-0.498l-7.551,-6.957l-4.782,-8.343l8.836,-3.206l8.82,-2.168l6.101,-1.138" style="fill:#4e4d47;"/><path d="M56.71,74.673l4.035,4.826l3.812,11.412l-5.113,0.424l-7.559,-4.377l-5.647,-6.513l4.233,-1.739l2.016,-0.503l4.214,-1.769l0.009,-1.761Z" style="fill:#4e4d47;"/><path d="M125.876,99.391l4.635,4.876l0,5.889l-9.973,5.43l-8.784,2.916l-4.995,-4.621l0,-10.177l19.117,-4.313Z" style="fill:#4e4d47;"/></g></g></g></g><g><path d="M133.216,189.912l7.407,0.232l6.993,-8.281l-1.768,-4.894l-4.671,-6.875l-15.48,-0.759l1.547,5.847l-3.142,4.537l5.099,9.246l4.015,0.947" style="fill:#c0c0c0;"/><path d="M124.627,160.543l-8.867,0.346l-6.786,-11.007l4.311,-7.864l4.332,-6.435l4.902,0.66l1.402,-3.535l4.554,-3.062l4.22,1.875l-0.81,7.146l-0.783,5.188l-2.15,8.865l-4.325,7.823Z" style="fill:#c0c0c0;"/><path d="M107.232,189.289l-8.498,2.315l-10.854,-4.088l-4.656,-8.885l11.415,-15.761l9.995,0.837l6.189,4.704l0.833,9.723l-4.424,11.155Z" style="fill:#c0c0c0;"/><path d="M65.994,179.141l-13.257,-1.759l-3.026,-5.391l-7.692,-19.663c0,0 9.776,-1.44 11.578,-3.154c1.802,-1.714 8.568,-2.333 8.568,-2.333l4.375,8.757l-1.699,10.413l1.153,13.13Z" style="fill:#c0c0c0;"/><path d="M103.135,148.218l-8.8,6.26l-12.64,1.967l-4.005,-6.795l-0.695,-7.392l6.786,-4.09l7.336,0.243l7.25,2.038l4.768,7.769" style="fill:#c0c0c0;"/><path d="M106.309,128.273l2.941,-10.751l-5.223,-3.552l-5.789,1.577l-1.625,4.097l0.007,6.293l4.04,3.875l5.649,-1.539Z" style="fill:#c0c0c0;"/><path d="M68.239,133.22l7.406,0.232l6.994,-8.281l-1.768,-4.894l-4.671,-6.875l-15.48,-0.759l1.547,5.848l-3.142,4.536l5.098,9.246l4.016,0.947" style="fill:#c0c0c0;"/><path d="M61.838,106.951l-8.867,0.346l-6.786,-11.007l4.31,-7.864l4.333,-6.435l4.902,0.66l1.402,-3.535l4.553,-3.062l4.221,1.875l-0.81,7.146l-0.783,5.188l-2.15,8.866l-4.325,7.822Z" style="fill:#c0c0c0;"/><path d="M49.893,135.554l-8.498,2.315l-10.854,-4.088l-4.656,-8.885l11.415,-15.761l9.995,0.837l6.189,4.704l0.833,9.723l-4.424,11.155Z" style="fill:#c0c0c0;"/><path d="M42.099,100.692l-8.8,6.26l-12.639,1.967l-4.006,-6.795l-0.695,-7.393l6.786,-4.09l7.336,0.244l7.251,2.037l4.767,7.77" style="fill:#c0c0c0;"/><path d="M16.376,152.694l1.873,-10.971l11.237,-3.536l13.701,7.272l-8.348,12.763l-8.664,0.416l-9.799,-5.944" style="fill:#c0c0c0;"/><path d="M134.027,191.581l18.415,-7.102l-1.768,-4.894l-20.151,-7.634l1.547,5.847l-3.142,4.537l5.099,9.246Zm-21.97,0.324l-8.497,2.315l-10.854,-4.088l-4.656,-8.885l11.415,-15.761l9.995,0.837l6.189,4.704l0.833,9.723l-4.425,11.155Zm21.52,-30.736l-8.867,0.347l-6.786,-11.008l4.311,-7.864l4.332,-6.435l4.902,0.66l1.402,-3.535l4.554,-3.062l4.22,1.875l-0.81,7.146l-0.783,5.188l-2.15,8.866l-4.325,7.822Zm-25.616,-10.335l-8.801,6.26l-12.639,1.967l-4.005,-6.795l-0.695,-7.393l6.786,-4.089l7.336,0.243l7.25,2.038l4.768,7.769Zm-37.141,30.923l-13.257,-1.76l-3.026,-5.391l-7.692,-19.662c0,0 9.776,-1.44 11.578,-3.154c1.802,-1.714 8.567,-2.334 8.567,-2.334l4.376,8.758l-1.7,10.413l1.154,13.13Zm40.314,-50.868l2.942,-10.751l-5.223,-3.552l-5.789,1.576l-1.625,4.098l0.007,6.293l4.04,3.874l5.648,-1.538Zm-38.07,4.947l7.407,0.232l6.994,-8.281l-1.768,-4.894l-4.671,-6.875l-15.48,-0.759l1.547,5.847l-3.142,4.537l5.098,9.246l4.015,0.947Zm-51.862,19.474l9.798,5.943l8.665,-0.415l8.347,-12.763l-13.7,-7.272l-11.237,3.536l-1.873,10.971Zm33.517,-17.14l-8.498,2.314l-10.854,-4.087l-4.656,-8.885l11.415,-15.761l9.995,0.837l6.189,4.704l0.833,9.723l-4.424,11.155Zm11.944,-28.603l-8.866,0.346l-6.786,-11.007l4.31,-7.864l4.333,-6.435l4.902,0.66l1.402,-3.535l4.553,-3.062l4.221,1.875l-0.81,7.146l-0.783,5.188l-2.151,8.866l-4.325,7.822Zm-19.738,-6.26l-8.8,6.261l-12.64,1.967l-4.005,-6.796l-0.695,-7.392l6.786,-4.09l7.336,0.243l7.25,2.038l4.768,7.769Z" style="fill:#4e4d47;fill-opacity:0.2;"/></g><path d="M173.888,195.227l-18.414,-12.264l-11.92,-15.501l-16.021,-13.456l-15.251,-17.991l-29.626,-18.603l-16.099,-20.824l-24.792,-12.396l-20.544,-13.597l-12.846,-16.84l-3.393,25.136l3.393,25.229l-2.264,34.368l2.264,11.865l101.41,50.404l112.402,56.186l-1.954,-9.756l-14.146,-14.394l-14.44,-17.953l-17.759,-19.613Z" style="fill:#857c6c;"/><clipPath id="_clip2"><path d="M173.888,195.227l-18.414,-12.264l-11.92,-15.501l-16.021,-13.456l-15.251,-17.991l-29.626,-18.603l-16.099,-20.824l-24.792,-12.396l-20.544,-13.597l-12.846,-16.84l-3.393,25.136l3.393,25.229l-2.264,34.368l2.264,11.865l101.41,50.404l112.402,56.186l-1.954,-9.756l-14.146,-14.394l-14.44,-17.953l-17.759,-19.613Z"/></clipPath><g clip-path="url(#_clip2)"><g><path d="M110.178,234.909l7.47,-8.393l-0.628,-15.38l-4.861,-8.365l-7.639,3.249l-3.735,6.804l-0.66,10.712l10.053,11.373" style="fill:#857c6c;"/><path d="M97.759,253.441l9.714,-5.466l-1.146,-6.212l-5.191,-3.008l-4.057,1.725l-4.47,4.429l0.085,5.597l5.065,2.935Z" style="fill:#857c6c;"/><path d="M67.476,229.846l5.042,5.431l10.806,-0.849l2.237,-4.698l1.606,-8.155l-10.344,-11.542l-3.07,5.211l-5.436,0.955l-2.991,10.126l2.15,3.521" style="fill:#857c6c;"/><path d="M86.637,204.625l-6.48,-6.062l3.057,-12.565l8.623,-2.464l7.622,-1.443l2.977,3.951l3.5,-1.489l5.378,1.086l1.634,4.319l-5.651,4.448l-4.24,3.091l-7.816,4.704l-8.604,2.424Z" style="fill:#857c6c;"/><path d="M49.651,210.93l-7.621,-4.416l-4.724,-10.592l3.045,-9.558l19.234,-2.963l6.431,7.697l1.006,7.708l-6.329,7.428l-11.042,4.696Z" style="fill:#857c6c;"/><path d="M27.875,174.47l-8.069,-10.665l1.707,-5.942l8.574,-19.294c0,0 7.897,5.94 10.383,6.016c2.486,0.077 7.683,4.453 7.683,4.453l-3.152,9.269l-8.6,6.111l-8.526,10.052Z" style="fill:#857c6c;"/><path d="M75.978,179.142l-10.639,-1.857l-10.285,-7.605l2.016,-7.626l4.769,-5.692l7.679,1.95l4.985,5.389l3.648,6.588l-2.173,8.853" style="fill:#857c6c;"/><path d="M17.165,206.656l9.119,-6.381l10.415,5.504l4.461,14.856l-14.945,3.037l-6.388,-5.869l-2.662,-11.147" style="fill:#857c6c;"/><path d="M104.811,148.844l7.471,-8.393l-0.629,-15.38l-4.861,-8.365l-7.639,3.248l-3.734,6.805l-0.66,10.712l10.052,11.373" style="fill:#857c6c;"/><path d="M92.393,167.376l9.713,-5.466l-1.146,-6.212l-5.191,-3.008l-4.057,1.725l-4.47,4.429l0.085,5.597l5.066,2.935Z" style="fill:#857c6c;"/><path d="M62.109,143.781l5.042,5.431l10.806,-0.849l2.238,-4.698l1.605,-8.155l-10.343,-11.542l-3.071,5.211l-5.436,0.955l-2.99,10.126l2.149,3.521" style="fill:#857c6c;"/><path d="M76.29,120.761l-6.48,-6.062l3.057,-12.565l8.623,-2.463l7.622,-1.443l2.977,3.95l3.5,-1.489l5.378,1.086l1.634,4.32l-5.651,4.447l-4.24,3.091l-7.816,4.704l-8.604,2.424Z" style="fill:#857c6c;"/><path d="M47.552,132.376l-7.621,-4.416l-4.724,-10.593l3.046,-9.557l19.233,-2.964l6.432,7.697l1.006,7.709l-6.329,7.428l-11.043,4.696Z" style="fill:#857c6c;"/><path d="M19.867,98.232l-8.068,-10.664l1.706,-5.942l8.575,-19.295c0,0 7.897,5.94 10.383,6.017c2.485,0.077 7.683,4.452 7.683,4.452l-3.152,9.269l-8.6,6.112l-8.527,10.051Z" style="fill:#857c6c;"/><path d="M66.864,102.323l-10.639,-1.857l-10.284,-7.605l2.016,-7.626l4.769,-5.692l7.679,1.951l4.984,5.388l3.648,6.589l-2.173,8.852" style="fill:#857c6c;"/><path d="M11.799,120.591l9.119,-6.381l10.414,5.504l4.461,14.856l-14.945,3.037l-6.387,-5.87l-2.662,-11.146" style="fill:#857c6c;"/><path d="M99.292,258.712l9.713,-5.466l-1.146,-6.212l-5.191,-3.008l-4.056,1.725l-4.471,4.429l0.085,5.597l5.066,2.935Zm-30.284,-23.595l5.042,5.431l10.806,-0.849l2.238,-4.698l1.605,-8.155l-10.343,-11.542l-3.071,5.211l-5.436,0.955l-2.99,10.126l2.149,3.521Zm42.702,5.063l7.471,-8.393l-0.629,-15.38l-4.861,-8.365l-7.639,3.248l-3.734,6.805l-0.66,10.712l10.052,11.373Zm-93.012,-28.253l2.662,11.147l6.387,5.869l14.945,-3.037l-4.461,-14.856l-10.414,-5.504l-9.119,6.381Zm32.485,4.274l-7.62,-4.416l-4.724,-10.592l3.045,-9.558l19.233,-2.963l6.432,7.697l1.006,7.708l-6.329,7.428l-11.043,4.696Zm36.987,-6.305l-6.48,-6.062l3.057,-12.565l8.623,-2.464l7.622,-1.443l2.977,3.951l3.5,-1.489l5.378,1.086l1.634,4.319l-5.651,4.448l-4.24,3.091l-7.817,4.704l-8.603,2.424Zm-10.66,-25.483l-10.639,-1.857l-10.285,-7.605l2.017,-7.626l4.768,-5.692l7.68,1.95l4.984,5.389l3.648,6.588l-2.173,8.853Zm-48.103,-4.672l-8.068,-10.665l1.706,-5.942l8.575,-19.294c0,0 7.897,5.94 10.383,6.016c2.485,0.077 7.683,4.453 7.683,4.453l-3.152,9.268l-8.6,6.112l-8.527,10.052Zm64.518,-7.094l9.714,-5.466l-1.146,-6.212l-5.192,-3.008l-4.056,1.725l-4.47,4.429l0.085,5.597l5.065,2.935Zm-30.283,-23.595l5.042,5.431l10.806,-0.849l2.237,-4.698l1.606,-8.155l-10.344,-11.542l-3.07,5.211l-5.436,0.955l-2.991,10.126l2.15,3.521Zm42.702,5.063l7.47,-8.393l-0.628,-15.38l-4.862,-8.365l-7.638,3.248l-3.735,6.804l-0.66,10.713l10.053,11.373Zm-93.013,-28.253l2.662,11.146l6.388,5.87l14.945,-3.037l-4.461,-14.856l-10.415,-5.504l-9.119,6.381Zm35.753,11.785l-7.62,-4.416l-4.724,-10.593l3.045,-9.557l19.234,-2.964l6.431,7.697l1.006,7.709l-6.329,7.428l-11.043,4.696Zm28.738,-11.615l-6.479,-6.062l3.056,-12.565l8.623,-2.463l7.623,-1.443l2.976,3.95l3.5,-1.489l5.379,1.086l1.633,4.32l-5.65,4.447l-4.241,3.091l-7.816,4.704l-8.604,2.424Zm-9.425,-18.438l-10.639,-1.857l-10.285,-7.605l2.017,-7.626l4.768,-5.692l7.679,1.951l4.985,5.388l3.648,6.589l-2.173,8.852Zm-46.997,-4.091l-8.069,-10.664l1.707,-5.942l8.574,-19.295c0,0 7.897,5.94 10.383,6.017c2.486,0.076 7.683,4.452 7.683,4.452l-3.152,9.269l-8.6,6.112l-8.526,10.051Z" style="fill:#4e4d47;fill-opacity:0.6;"/></g><g><path d="M125.565,267.607l-8.068,-10.665l1.706,-5.941l8.575,-19.295c0,0 7.897,5.94 10.383,6.017c2.485,0.076 7.683,4.452 7.683,4.452l-3.152,9.269l-8.6,6.112l-8.527,10.051Z" style="fill:#857c6c;"/><path d="M173.668,272.279l-10.639,-1.857l-10.285,-7.605l2.017,-7.626l4.768,-5.692l7.68,1.951l4.984,5.388l3.648,6.589l-2.173,8.852" style="fill:#857c6c;"/><path d="M202.502,241.982l7.47,-8.393l-0.628,-15.381l-4.861,-8.365l-7.639,3.249l-3.735,6.804l-0.66,10.713l10.053,11.373" style="fill:#857c6c;"/><path d="M190.083,260.514l9.714,-5.467l-1.146,-6.212l-5.191,-3.008l-4.057,1.725l-4.47,4.429l0.085,5.597l5.065,2.936Z" style="fill:#857c6c;"/><path d="M159.8,236.919l5.042,5.43l10.806,-0.849l2.238,-4.698l1.605,-8.155l-10.344,-11.542l-3.07,5.211l-5.436,0.956l-2.991,10.126l2.15,3.521" style="fill:#857c6c;"/><path d="M173.98,213.898l-6.479,-6.062l3.056,-12.564l8.623,-2.464l7.623,-1.443l2.976,3.95l3.5,-1.488l5.379,1.085l1.633,4.32l-5.65,4.448l-4.241,3.09l-7.816,4.704l-8.604,2.424Z" style="fill:#857c6c;"/><path d="M145.242,225.513l-7.62,-4.416l-4.724,-10.592l3.045,-9.558l19.234,-2.963l6.431,7.697l1.006,7.708l-6.329,7.428l-11.043,4.696Z" style="fill:#857c6c;"/><path d="M117.558,191.37l-8.069,-10.665l1.707,-5.942l8.574,-19.294c0,0 7.897,5.94 10.383,6.016c2.486,0.077 7.683,4.452 7.683,4.452l-3.152,9.269l-8.599,6.112l-8.527,10.052Z" style="fill:#857c6c;"/><path d="M164.555,195.461l-10.639,-1.858l-10.285,-7.605l2.017,-7.625l4.768,-5.692l7.679,1.95l4.985,5.388l3.648,6.589l-2.173,8.853" style="fill:#857c6c;"/><path d="M109.489,213.729l9.119,-6.382l10.415,5.505l4.461,14.855l-14.945,3.037l-6.388,-5.869l-2.662,-11.146" style="fill:#857c6c;"/><path d="M196.982,351.85l9.714,-5.467l-1.146,-6.212l-5.191,-3.008l-4.057,1.725l-4.47,4.429l0.085,5.597l5.065,2.936Zm-30.283,-23.595l5.042,5.43l10.806,-0.849l2.238,-4.698l1.605,-8.155l-10.344,-11.542l-3.07,5.211l-5.436,0.956l-2.991,10.126l2.15,3.521Zm42.702,5.063l7.471,-8.393l-0.629,-15.381l-4.861,-8.365l-7.639,3.249l-3.734,6.804l-0.661,10.713l10.053,11.373Zm-93.013,-28.253l2.663,11.146l6.387,5.869l14.945,-3.037l-4.461,-14.855l-10.414,-5.505l-9.12,6.382Zm32.486,4.273l-7.621,-4.416l-4.724,-10.592l3.045,-9.558l19.234,-2.963l6.432,7.697l1.005,7.708l-6.328,7.428l-11.043,4.696Zm36.986,-6.305l-6.48,-6.062l3.057,-12.565l8.623,-2.463l7.622,-1.443l2.977,3.95l3.5,-1.489l5.378,1.086l1.634,4.32l-5.651,4.448l-4.24,3.09l-7.816,4.704l-8.604,2.424Zm-10.659,-25.483l-10.639,-1.857l-10.285,-7.605l2.016,-7.626l4.769,-5.692l7.679,1.951l4.985,5.388l3.648,6.589l-2.173,8.852Zm-48.103,-4.672l-8.069,-10.665l1.707,-5.941l8.574,-19.295c0,0 7.897,5.94 10.383,6.017c2.486,0.076 7.683,4.452 7.683,4.452l-3.152,9.269l-8.599,6.112l-8.527,10.051Zm64.518,-7.093l9.713,-5.467l-1.146,-6.212l-5.191,-3.008l-4.056,1.725l-4.471,4.429l0.085,5.597l5.066,2.936Zm-30.284,-23.595l5.043,5.43l10.805,-0.849l2.238,-4.698l1.605,-8.155l-10.343,-11.542l-3.071,5.211l-5.435,0.956l-2.991,10.126l2.149,3.521Zm42.702,5.063l7.471,-8.393l-0.629,-15.381l-4.861,-8.365l-7.639,3.249l-3.734,6.804l-0.66,10.713l10.052,11.373Zm-93.012,-28.253l2.662,11.146l6.387,5.869l14.945,-3.037l-4.461,-14.855l-10.414,-5.505l-9.119,6.382Zm35.753,11.784l-7.621,-4.416l-4.723,-10.592l3.045,-9.558l19.233,-2.963l6.432,7.697l1.006,7.708l-6.329,7.428l-11.043,4.696Zm28.738,-11.615l-6.48,-6.062l3.057,-12.564l8.623,-2.464l7.622,-1.443l2.977,3.95l3.5,-1.488l5.378,1.085l1.634,4.32l-5.651,4.448l-4.24,3.09l-7.816,4.704l-8.604,2.424Zm-9.426,-18.437l-10.639,-1.858l-10.284,-7.605l2.016,-7.626l4.769,-5.691l7.679,1.95l4.985,5.388l3.648,6.589l-2.174,8.853Zm-46.997,-4.092l-8.068,-10.664l1.706,-5.942l8.575,-19.294c0,0 7.897,5.94 10.383,6.016c2.485,0.077 7.683,4.452 7.683,4.452l-3.152,9.269l-8.6,6.112l-8.527,10.051Z" style="fill:#4e4d47;fill-opacity:0.6;"/></g></g><g><path d="M212.79,256.858l-8.866,0.346l-6.787,-11.007l4.311,-7.865l4.333,-6.435l4.901,0.661l1.403,-3.536l4.553,-3.061l4.22,1.875l-0.809,7.145l-0.784,5.189l-2.15,8.865l-4.325,7.823Z" style="fill:#857c6c;"/><path d="M190.024,202.727l-0.716,-11.213l-11.38,-10.366l-9.366,-2.424l-3.061,7.716l2.214,7.439l7.154,8.001l15.155,0.847" style="fill:#857c6c;"/><path d="M194.472,224.588l2.941,-10.751l-5.222,-3.553l-5.79,1.577l-1.625,4.098l0.007,6.293l4.04,3.874l5.649,-1.538Z" style="fill:#857c6c;"/><path d="M156.402,229.535l7.407,0.232l6.993,-8.281l-1.768,-4.894l-4.671,-6.875l-15.48,-0.759l1.548,5.847l-3.143,4.537l5.099,9.246l4.015,0.947" style="fill:#857c6c;"/><path d="M150.001,203.266l-8.867,0.346l-6.786,-11.007l4.311,-7.864l4.332,-6.435l4.902,0.66l1.402,-3.536l4.553,-3.061l4.221,1.875l-0.81,7.146l-0.783,5.188l-2.15,8.865l-4.325,7.823Z" style="fill:#857c6c;"/><path d="M130.262,197.006l-8.8,6.261l-12.639,1.967l-4.005,-6.796l-0.695,-7.392l6.785,-4.09l7.337,0.243l7.25,2.038l4.767,7.769" style="fill:#857c6c;"/><path d="M221.74,257.484l-8.866,0.346l-6.787,-11.007l4.311,-7.864l4.333,-6.435l4.901,0.66l1.403,-3.535l4.553,-3.062l4.22,1.875l-0.809,7.146l-0.784,5.188l-2.15,8.865l-4.325,7.823Zm-22.442,-30.28l2.941,-10.751l-5.223,-3.553l-5.789,1.577l-1.625,4.098l0.007,6.293l4.04,3.874l5.649,-1.538Zm-38.07,4.947l7.406,0.232l6.994,-8.281l-1.768,-4.894l-4.671,-6.875l-15.48,-0.759l1.547,5.847l-3.142,4.537l5.099,9.246l4.015,0.947Zm33.622,-26.808l-0.716,-11.213l-11.38,-10.366l-9.367,-2.424l-3.06,7.716l2.213,7.439l7.155,8.001l15.155,0.847Zm-40.023,0.539l-8.867,0.346l-6.786,-11.007l4.31,-7.864l4.333,-6.435l4.902,0.66l1.402,-3.536l4.553,-3.061l4.221,1.875l-0.81,7.146l-0.783,5.188l-2.15,8.865l-4.325,7.823Zm-19.739,-6.26l-8.8,6.26l-12.639,1.968l-4.005,-6.796l-0.696,-7.392l6.786,-4.09l7.337,0.243l7.25,2.038l4.767,7.769Z" style="fill:#4e4d47;fill-opacity:0.6;"/><path d="M149.687,197.736l-8.867,0.346l-6.786,-11.008l4.31,-7.864l4.333,-6.435l4.902,0.66l1.402,-3.535l4.553,-3.061l4.221,1.875l-0.81,7.145l-0.783,5.188l-2.15,8.866l-4.325,7.823Z" style="fill:#857c6c;"/><path d="M126.92,143.605l-0.716,-11.213l-11.38,-10.366l-9.366,-2.424l-3.06,7.716l2.213,7.439l7.154,8.001l15.155,0.847" style="fill:#857c6c;"/><path d="M131.368,165.465l2.942,-10.75l-5.223,-3.553l-5.789,1.577l-1.625,4.098l0.007,6.292l4.039,3.875l5.649,-1.539Z" style="fill:#857c6c;"/><path d="M93.298,170.413l7.407,0.232l6.993,-8.281l-1.767,-4.895l-4.671,-6.875l-15.48,-0.758l1.547,5.847l-3.142,4.537l5.098,9.246l4.015,0.947" style="fill:#857c6c;"/><path d="M86.897,144.144l-8.866,0.346l-6.787,-11.007l4.311,-7.865l4.333,-6.435l4.901,0.661l1.403,-3.536l4.553,-3.061l4.22,1.875l-0.809,7.146l-0.784,5.188l-2.15,8.865l-4.325,7.823Z" style="fill:#857c6c;"/><path d="M67.159,137.884l-8.801,6.26l-12.639,1.967l-4.005,-6.795l-0.695,-7.393l6.786,-4.089l7.336,0.243l7.25,2.038l4.768,7.769" style="fill:#857c6c;"/><path d="M158.637,198.362l-8.867,0.346l-6.786,-11.007l4.31,-7.865l4.333,-6.435l4.902,0.661l1.402,-3.536l4.553,-3.061l4.221,1.875l-0.81,7.146l-0.783,5.188l-2.15,8.865l-4.325,7.823Zm-22.443,-30.281l2.942,-10.75l-5.223,-3.553l-5.789,1.577l-1.625,4.098l0.007,6.292l4.039,3.875l5.649,-1.539Zm-38.07,4.948l7.407,0.232l6.993,-8.281l-1.768,-4.895l-4.671,-6.875l-15.479,-0.758l1.547,5.847l-3.143,4.537l5.099,9.246l4.015,0.947Zm33.622,-26.808l-0.716,-11.213l-11.38,-10.367l-9.366,-2.423l-3.06,7.716l2.213,7.439l7.154,8.001l15.155,0.847Zm-40.023,0.539l-8.866,0.346l-6.787,-11.007l4.311,-7.865l4.332,-6.435l4.902,0.661l1.402,-3.536l4.554,-3.061l4.22,1.875l-0.81,7.145l-0.783,5.189l-2.15,8.865l-4.325,7.823Zm-19.738,-6.26l-8.801,6.26l-12.639,1.967l-4.005,-6.795l-0.695,-7.393l6.786,-4.09l7.336,0.244l7.25,2.038l4.768,7.769Z" style="fill:#4e4d47;fill-opacity:0.6;"/></g><g><path d="M84.173,192.061l-8.189,-3.418l-1.523,-12.841l7.22,-5.32l6.639,-4.013l4.168,2.662l2.76,-2.617l5.419,-0.861l3.04,3.478l-3.743,6.141l-2.894,4.376l-5.682,7.137l-7.215,5.276Z" style="fill:#857c6c;"/><path d="M86.305,133.377l4.069,-10.474l-5.959,-14.193l-7.476,-6.141l-6.024,5.712l-1.123,7.679l3.122,10.269l13.391,7.148" style="fill:#857c6c;"/><path d="M81.138,155.078l7.194,-8.514l-3.243,-5.42l-5.915,-1.007l-3.199,3.033l-2.642,5.711l2.034,5.215l5.771,0.982Z" style="fill:#857c6c;"/><path d="M44.522,143.542l6.621,3.328l9.83,-4.568l0.456,-5.184l-1.343,-8.202l-13.723,-7.204l-1.058,5.956l-4.76,2.793l0.734,10.533l3.243,2.548" style="fill:#857c6c;"/><path d="M49.773,117.02l-8.189,-3.418l-1.523,-12.842l7.22,-5.319l6.639,-4.014l4.168,2.662l2.76,-2.616l5.419,-0.861l3.039,3.477l-3.742,6.141l-2.894,4.377l-5.682,7.137l-7.215,5.276Z" style="fill:#857c6c;"/><path d="M34.502,103.033l-10.618,1.975l-12.292,-3.535l-0.774,-7.85l2.481,-6.999l7.877,-0.854l6.553,3.309l5.719,4.9l1.054,9.054" style="fill:#857c6c;"/><path d="M92.028,196.396l-8.189,-3.418l-1.523,-12.841l7.22,-5.319l6.639,-4.014l4.168,2.662l2.76,-2.617l5.419,-0.86l3.04,3.477l-3.743,6.141l-2.894,4.376l-5.682,7.137l-7.215,5.276Zm-7.613,-36.914l7.193,-8.514l-3.242,-5.42l-5.915,-1.007l-3.199,3.033l-2.643,5.711l2.034,5.215l5.772,0.982Zm-36.616,-11.535l6.621,3.328l9.829,-4.569l0.457,-5.184l-1.344,-8.202l-13.722,-7.204l-1.058,5.956l-4.76,2.793l0.733,10.533l3.244,2.549Zm41.782,-10.166l4.07,-10.474l-5.96,-14.193l-7.476,-6.141l-6.023,5.712l-1.124,7.679l3.122,10.27l13.391,7.147Zm-36.532,-16.357l-8.189,-3.418l-1.523,-12.841l7.221,-5.32l6.638,-4.014l4.169,2.663l2.76,-2.617l5.419,-0.861l3.039,3.477l-3.742,6.141l-2.894,4.377l-5.682,7.137l-7.216,5.276Zm-15.27,-13.987l-10.618,1.975l-12.293,-3.535l-0.773,-7.85l2.481,-6.999l7.877,-0.853l6.552,3.308l5.719,4.9l1.055,9.054Z" style="fill:#4e4d47;fill-opacity:0.6;"/></g><g><path d="M69.007,177.062l-2.78,-10.887l-13.102,-8.081l-9.653,-0.649l-1.579,8.15l3.552,6.9l8.512,6.539l15.05,-1.972" style="fill:#857c6c;"/><path d="M74.233,178.739l-2.779,-10.887l-13.102,-8.081l-9.653,-0.648l-1.579,8.149l3.552,6.901l8.511,6.539l15.05,-1.973Z" style="fill:#4e4d47;fill-opacity:0.6;"/><path d="M12.025,147.726l6.733,-8.995l-1.928,-15.272l-5.552,-7.923l-7.337,3.883l-3.144,7.096l0.249,10.73l10.979,10.481" style="fill:#857c6c;"/><path d="M13.998,152.849l6.734,-8.996l-1.929,-15.272l-5.552,-7.923l-7.336,3.883l-3.145,7.096l0.249,10.73l10.979,10.482Z" style="fill:#4e4d47;fill-opacity:0.6;"/></g><g><g><path d="M320.167,215.764l9.114,-0.471l2.807,-7.718l-7.038,-6.483l-4.566,-7.428l-8.758,-6.301l-13.923,5.527l0.269,9.599l6.268,9.288l15.827,3.987Z" style="fill:#c0c0c0;"/><path d="M287.161,170.672l12.641,7.695l-13.683,16.333l-11.041,-5.441l-9.377,-1.323l0.692,-6.664l-6.433,-10.456l6.863,-7.212l6.712,-1.956l9.783,4.416l3.843,4.608Z" style="fill:#c0c0c0;"/><path d="M267.768,152.946l13.021,5.502l7.483,6.096l3.389,-0.175l4.206,-0.218l-1.002,-4.754l-0.693,-4.771l-5.868,-3.095l-2.948,-3.534l-4.863,-2.276l-11.437,-4.214l-1.398,1.87l-2.581,6.343l2.691,3.226Z" style="fill:#c0c0c0;"/><path d="M245.245,125.945l11.209,1.795l4.243,6.818l2.394,7.258l-5.314,2.281l-11.087,-1.433l-11.301,-0.942l-8.496,-0.311l2.675,-4.287l-2.548,-3.054l0.151,-4.815l2.785,-1.906l15.289,-1.404" style="fill:#c0c0c0;"/><path d="M241.851,156.437l-9.106,-0.496l-10.718,2.958l3.87,10.371l5.021,4.034l1.552,6.684l7.44,1.479l5.205,-8.391l5.407,-6.243l-3.341,-7.965l-5.33,-2.431Z" style="fill:#c0c0c0;"/><path d="M199.208,130.703l11.61,6.424l5.899,11.895l-5.826,5.108l-6.666,2.748l-13.611,-6.505l-9.496,0.492l-0.132,-9.606l2.662,-4.945l5.255,-2.979l10.305,-2.632Z" style="fill:#c0c0c0;"/><path d="M202.188,171.742l13.763,6.158l7.616,11.979l-7.859,2.453l-6.955,0.36l-14.512,-7.996l-6.684,-0.52l0.734,-6.613l-9.712,-8.812l-0.105,-6.716l3.747,-1.615l5.704,1.717l2.235,2.679l12.028,6.926" style="fill:#c0c0c0;"/><path d="M160.426,132.779c1.629,0.936 12.019,12.596 12.019,12.596l2.128,11.882l-11.457,-0.585l-4.267,-7.386l-7.263,-6.437c0,0 7.211,-11.006 8.84,-10.07Z" style="fill:#c0c0c0;"/><path d="M263.834,196.142l-11.568,0.104l-8.408,7.322l3.382,7.532l9.272,8.55l10.26,0.41l9.278,-2.527l-3.99,-8.511l-4.712,-7.766l-3.514,-5.114" style="fill:#c0c0c0;"/><path d="M228.501,238.004l-2.118,11.373l5.572,9.657l8.041,-1.873l10.171,-7.459l2.371,-9.99l-0.698,-9.59l-9.119,2.281l-8.526,3.134l-5.694,2.467" style="fill:#c0c0c0;"/><path d="M291.036,205.144l-5.629,2.806l-8.063,8.931l6.572,7.879l9.394,-1.143l7.58,-3.946l-8.534,-7.274l0.873,-1.999l-0.669,-2.818l-1.524,-2.436Z" style="fill:#c0c0c0;"/><path d="M217.759,200.101l-6.199,2.612l-2.358,5.397l6.371,9.653l8.185,7.798l5.717,-4.528l4.075,-9.326l-15.791,-11.606Z" style="fill:#c0c0c0;"/></g><g><g opacity="0.2"><path d="M322.483,221.389l9.113,-0.471l1.654,-7.161l-5.884,-7.04l-4.566,-7.428l-8.758,-6.301l-13.923,5.527l0.269,9.599l6.268,9.288l15.827,3.987Z" style="fill:#4e4d47;"/><path d="M289.477,176.297l12.641,7.695l-13.683,16.333l-11.041,-5.44l-9.377,-1.324l0.692,-6.664l-6.433,-10.456l6.863,-7.212l6.712,-1.956l9.783,4.417l3.843,4.607Z" style="fill:#4e4d47;"/><path d="M270.084,158.571l13.021,5.502l7.483,6.097l3.389,-0.176l3.401,-0.194l-4.579,-5.49l3.068,-0.159l-5.247,-6.994l-2.948,-3.535l-4.863,-2.275l-11.437,-4.215l-1.398,1.871l-2.581,6.342l2.691,3.226Z" style="fill:#4e4d47;"/><path d="M247.561,131.57l11.208,1.795l4.244,6.819l2.394,7.257l-5.314,2.281l-11.087,-1.432l-11.301,-0.943l-8.496,-0.311l-3.07,-4.638l2.912,-4.958l5.324,-0.594l0.867,-6.453l12.319,1.177" style="fill:#4e4d47;"/><path d="M244.167,162.062l-9.106,-0.495l-10.718,2.957l1.555,4.734l4.709,4.016l4.178,12.339l7.44,1.479l5.206,-8.391l5.407,-6.243l-3.341,-7.964l-5.33,-2.432Z" style="fill:#4e4d47;"/><path d="M201.524,136.328l11.61,6.424l5.899,11.895l-5.826,5.108l-6.666,2.749l-13.611,-6.506l-9.496,0.492l-0.132,-9.606l2.662,-4.944l5.255,-2.979l10.305,-2.633Z" style="fill:#4e4d47;"/><path d="M204.504,177.367l13.763,6.159l7.616,11.978l-7.859,2.453l-6.955,0.36l-14.512,-7.996l-6.684,-0.519l-2.56,-5.613l0.768,-6.177l-7.059,-6.446l-0.232,-3.906l3.747,-1.614l5.704,1.716l2.235,2.679l12.028,6.926" style="fill:#4e4d47;"/><path d="M162.649,140.16c1.629,0.936 12.112,10.84 12.112,10.84l2.128,11.883l-11.457,-0.586l-4.267,-7.386l-7.263,-6.436c0,0 7.118,-9.251 8.747,-8.315Z" style="fill:#4e4d47;"/><path d="M263.944,202.224l-11.568,0.104l-8.408,7.323l3.382,7.532l9.272,8.55l10.26,0.409l9.278,-2.527l-3.99,-8.511l-4.712,-7.766l-3.514,-5.114" style="fill:#4e4d47;"/><path d="M232.694,240.1l-2.119,11.373l5.573,9.657l8.041,-1.873l10.171,-7.459l2.371,-9.99l-0.699,-9.59l-9.119,2.281l-8.525,3.134l-5.694,2.467" style="fill:#4e4d47;"/><path d="M293.352,210.769l-5.629,2.807l-8.063,8.931l4.516,2.435l8.679,-0.983l7.782,-3.708l-3.183,-3.288l-1.646,-1.268l-3.153,-3.308l0.697,-1.618Z" style="fill:#4e4d47;"/><path d="M220.075,205.726l-6.199,2.612l-2.358,5.397l6.964,8.969l6.882,6.189l6.427,-2.235l4.075,-9.326l-15.791,-11.606Z" style="fill:#4e4d47;"/></g></g></g><g><g><path d="M228.916,135.697l9.114,-0.472l2.807,-7.718l-7.038,-6.482l-4.566,-7.429l-8.758,-6.301l-13.923,5.527l0.269,9.599l6.268,9.288l15.827,3.988Z" style="fill:#c0c0c0;"/><path d="M195.91,90.604l12.641,7.695l-13.683,16.333l-11.041,-5.44l-9.377,-1.324l0.692,-6.664l-6.433,-10.455l6.864,-7.213l6.711,-1.956l9.783,4.417l3.843,4.607Z" style="fill:#c0c0c0;"/><path d="M176.517,72.878l13.022,5.502l7.482,6.097l3.389,-0.176l4.206,-0.217l-1.002,-4.755l-0.693,-4.77l-5.868,-3.095l-2.948,-3.535l-4.862,-2.275l-11.438,-4.215l-1.398,1.871l-2.581,6.342l2.691,3.226Z" style="fill:#c0c0c0;"/><path d="M153.994,45.877l11.209,1.795l4.243,6.819l2.394,7.257l-5.314,2.281l-11.087,-1.432l-11.301,-0.943l-8.496,-0.31l2.675,-4.287l-2.548,-3.055l0.151,-4.814l2.786,-1.907l15.288,-1.404" style="fill:#c0c0c0;"/><path d="M150.6,76.369l-9.106,-0.495l-10.718,2.958l3.87,10.371l5.021,4.033l1.552,6.684l7.44,1.479l5.206,-8.391l5.406,-6.243l-3.34,-7.964l-5.331,-2.432Z" style="fill:#c0c0c0;"/><path d="M107.958,50.635l11.609,6.424l5.899,11.896l-5.826,5.108l-6.666,2.748l-13.611,-6.505l-9.496,0.491l-0.132,-9.606l2.662,-4.944l5.255,-2.979l10.306,-2.633Z" style="fill:#c0c0c0;"/><path d="M110.937,91.675l13.763,6.158l7.616,11.978l-7.859,2.454l-6.955,0.36l-14.512,-7.997l-6.684,-0.519l0.734,-6.614l-9.712,-8.812l-0.104,-6.715l3.746,-1.615l5.704,1.716l2.235,2.679l12.028,6.927" style="fill:#c0c0c0;"/><path d="M250.268,191.885l-0.791,8.548l-11.886,3.622l-7.522,-5.653l-4.238,-4.768l2.842,-8.819l3.418,-2.272l2.895,-0.845l6.525,-5.455l8.913,0.798l4.181,2.752l0.789,3.65l-2.372,1.171l-2.754,7.271" style="fill:#c0c0c0;"/><path d="M69.175,52.711c1.629,0.936 12.019,12.596 12.019,12.596l2.129,11.883l-11.458,-0.586l-4.267,-7.386l-7.262,-6.436c0,0 7.21,-11.007 8.839,-10.071Z" style="fill:#c0c0c0;"/><path d="M160.2,109.796l-10.737,4.306l-5.167,9.881l5.891,5.785l11.748,4.589l9.705,-3.352l7.722,-5.73l-6.813,-6.476l-7.215,-5.518l-5.134,-3.485" style="fill:#c0c0c0;"/><path d="M199.785,125.076l-5.629,2.807l-8.063,8.931l6.572,7.878l9.394,-1.142l7.581,-3.947l-8.535,-7.273l0.873,-2l-0.668,-2.817l-1.525,-2.437Z" style="fill:#c0c0c0;"/><path d="M126.508,120.033l-6.199,2.612l-2.358,5.397l6.371,9.654l8.185,7.797l5.717,-4.527l4.075,-9.327l-15.791,-11.606Z" style="fill:#c0c0c0;"/></g><g><g opacity="0.2"><path d="M231.232,141.322l9.114,-0.472l1.653,-7.161l-5.884,-7.039l-4.566,-7.429l-8.758,-6.301l-13.923,5.527l0.269,9.599l6.268,9.289l15.827,3.987Z" style="fill:#4e4d47;"/><path d="M198.226,96.229l12.641,7.696l-13.683,16.332l-11.041,-5.44l-9.377,-1.323l0.692,-6.665l-6.433,-10.455l6.864,-7.213l6.711,-1.956l9.783,4.417l3.843,4.607Z" style="fill:#4e4d47;"/><path d="M178.833,78.504l13.021,5.501l7.483,6.097l3.389,-0.175l3.401,-0.195l-4.579,-5.49l3.068,-0.158l-5.247,-6.995l-2.948,-3.535l-4.862,-2.275l-11.438,-4.214l-1.398,1.87l-2.581,6.343l2.691,3.226Z" style="fill:#4e4d47;"/><path d="M156.31,51.502l11.209,1.795l4.243,6.819l2.394,7.257l-5.314,2.281l-11.087,-1.432l-11.301,-0.943l-8.496,-0.31l-3.07,-4.639l2.912,-4.957l5.324,-0.595l0.867,-6.453l12.319,1.177" style="fill:#4e4d47;"/><path d="M152.916,81.995l-9.106,-0.496l-10.718,2.958l1.555,4.733l4.709,4.017l4.179,12.338l7.44,1.479l5.206,-8.391l5.406,-6.243l-3.341,-7.964l-5.33,-2.431Z" style="fill:#4e4d47;"/><path d="M110.274,56.26l11.609,6.425l5.899,11.895l-5.826,5.108l-6.666,2.748l-13.611,-6.505l-9.496,0.491l-0.132,-9.606l2.662,-4.944l5.255,-2.979l10.306,-2.633Z" style="fill:#4e4d47;"/><path d="M113.253,97.3l13.763,6.158l7.616,11.978l-7.859,2.454l-6.955,0.36l-14.512,-7.997l-6.684,-0.519l-2.56,-5.613l0.768,-6.176l-7.059,-6.446l-0.231,-3.906l3.746,-1.615l5.704,1.716l2.235,2.68l12.028,6.926" style="fill:#4e4d47;"/><path d="M257.187,195.354l-0.109,8.731l-11.358,3.906l-7.807,-5.63l-4.521,-4.786l2.097,-9.044l0.41,-3.672l2.295,-1.976l8.589,1.191l4.389,-4.123l5.014,0.263l4.308,2.732l1.056,3.709l-2.231,1.236l-2.132,7.463" style="fill:#4e4d47;"/><path d="M71.398,60.092c1.629,0.936 12.112,10.84 12.112,10.84l2.128,11.883l-11.457,-0.586l-4.267,-7.385l-7.263,-6.437c0,0 7.118,-9.251 8.747,-8.315Z" style="fill:#4e4d47;"/><path d="M162.516,115.421l-10.737,4.307l-5.167,9.88l5.891,5.785l11.748,4.589l9.705,-3.352l7.722,-5.73l-6.813,-6.476l-7.215,-5.518l-5.134,-3.485" style="fill:#4e4d47;"/><path d="M202.101,130.701l-5.629,2.807l-8.063,8.931l4.516,2.436l8.679,-0.984l7.782,-3.708l-3.182,-3.288l-1.647,-1.268l-3.152,-3.308l0.696,-1.618Z" style="fill:#4e4d47;"/><path d="M128.824,125.659l-6.199,2.612l-2.358,5.397l6.964,8.968l6.882,6.189l6.427,-2.234l4.075,-9.326l-15.791,-11.606Z" style="fill:#4e4d47;"/></g></g></g></g></svg>