<?xml version="1.0" encoding="UTF-8" standalone="no"?><!DOCTYPE svg PUBLIC "-//W3C//DTD SVG 1.1//EN" "http://www.w3.org/Graphics/SVG/1.1/DTD/svg11.dtd"><svg width="100%" height="100%" viewBox="0 0 324 258" version="1.1" xmlns="http://www.w3.org/2000/svg" xmlns:xlink="http://www.w3.org/1999/xlink" xml:space="preserve" xmlns:serif="http://www.serif.com/" style="fill-rule:evenodd;clip-rule:evenodd;stroke-linejoin:round;stroke-miterlimit:1.41421;"><g id="Grass_Ramp_RightUp_low-angle2"><g><path d="M322.547,53.511l0,96.598l-214.192,107.802l-17.577,-19.757l124.438,-130.978l107.331,-53.665Z" style="fill:#a87f43;"/><path d="M311.814,101.81l6.94,8.837l-1.573,15.312l-5.367,8.05l-7.424,-3.712l-3.309,-7.021l0,-10.733l10.733,-10.733" style="fill:#c7bc64;"/><path d="M300.559,82.549l9.359,6.054l-1.526,6.129l-5.367,2.684l-3.942,-1.972l-4.19,-4.696l0.429,-5.581l5.237,-2.618Z" style="fill:#c7bc64;"/><path d="M268.882,104.237l5.366,-5.11l10.733,1.511l1.945,4.827l1.1,8.239l-11.034,10.883l-2.744,-5.39l-5.366,-1.287l-2.362,-10.291l2.362,-3.382" style="fill:#c7bc64;"/><path d="M286.455,130.589l-6.84,5.652l2.278,12.729l8.455,2.989l7.519,1.909l3.214,-3.759l3.402,1.701l5.435,-0.753l1.896,-4.211l-5.366,-4.787l-4.042,-3.345l-7.513,-5.176l-8.438,-2.949Z" style="fill:#c7bc64;"/><path d="M249.926,122.021l-7.877,3.938l-5.367,10.282l2.452,9.727l19.014,4.141l6.893,-7.287l1.479,-7.632l-5.86,-7.803l-10.734,-5.366Z" style="fill:#c7bc64;"/><path d="M225.949,157.072l-8.709,10.148l1.337,6.036l7.372,19.785c0,0 8.247,-5.443 10.733,-5.366c2.486,0.076 7.943,-3.971 7.943,-3.971l-2.576,-9.446l-8.208,-6.629l-7.892,-10.557Z" style="fill:#c7bc64;"/><path d="M274.248,155.368l-10.733,1.199l-10.733,6.958l1.544,7.736l4.409,5.974l7.785,-1.474l5.306,-5.072l4.047,-6.351l-1.625,-8.97" style="fill:#c7bc64;"/><path d="M217.24,124.288l8.709,6.931l10.733,-4.854l5.367,-14.553l-14.73,-3.951l-6.736,5.466l-3.343,10.961" style="fill:#c7bc64;"/><path d="M229.973,159.973l-8.371,9.701l1.286,5.77l7.085,18.914c0,0 7.928,-5.203 10.317,-5.13c2.39,0.073 7.635,-3.797 7.635,-3.797l-2.476,-9.029l-7.889,-6.337l-7.587,-10.092Zm46.427,-1.63l-10.317,1.147l-10.317,6.651l1.484,7.395l4.238,5.712l7.483,-1.41l5.101,-4.848l3.889,-6.072l-1.561,-8.575Zm11.734,-23.688l-6.576,5.403l2.19,12.169l8.127,2.858l7.228,1.825l3.09,-3.594l3.269,1.626l5.225,-0.72l1.823,-4.025l-5.159,-4.577l-3.885,-3.198l-7.221,-4.948l-8.111,-2.819Zm-35.113,-8.191l-7.572,3.765l-5.159,9.829l2.357,9.299l18.277,3.959l6.626,-6.966l1.421,-7.296l-5.633,-7.46l-10.317,-5.13Zm59.489,-19.321l6.671,8.448l-1.513,14.638l-5.158,7.696l-7.137,-3.549l-3.18,-6.712l0,-10.26l10.317,-10.261Zm-90.908,21.488l3.213,-10.478l6.475,-5.225l14.159,3.776l-5.159,13.913l-10.317,4.64l-8.371,-6.626Zm49.639,-19.168l5.159,-4.885l10.317,1.445l1.869,4.615l1.058,7.875l-10.606,10.405l-2.638,-5.153l-5.159,-1.231l-2.27,-9.838l2.27,-3.233Zm30.45,-20.733l8.996,5.787l-1.467,5.86l-5.158,2.565l-3.79,-1.884l-4.027,-4.49l0.412,-5.335l5.034,-2.503Z" style="fill:#a48246;fill-opacity:0.7;"/><g><path d="M204.483,155.475l6.94,8.837l-1.574,15.313l-5.366,8.05l-7.425,-3.712l-3.308,-7.021l0,-10.733l10.733,-10.734" style="fill:#c7bc64;"/><path d="M193.228,136.215l9.358,6.054l-1.525,6.129l-5.367,2.683l-3.942,-1.971l-4.19,-4.696l0.429,-5.581l5.237,-2.618Z" style="fill:#c7bc64;"/><path d="M161.55,157.902l5.367,-5.11l10.733,1.512l1.944,4.827l1.101,8.238l-11.034,10.884l-2.744,-5.39l-5.367,-1.288l-2.362,-10.291l2.362,-3.382" style="fill:#c7bc64;"/><path d="M179.124,184.255l-6.841,5.652l2.278,12.729l8.456,2.989l7.519,1.909l3.214,-3.759l3.402,1.7l5.434,-0.752l1.897,-4.211l-5.367,-4.787l-4.042,-3.346l-7.512,-5.176l-8.438,-2.948Z" style="fill:#c7bc64;"/><path d="M142.595,175.686l-7.877,3.939l-5.367,10.282l2.451,9.727l19.015,4.141l6.893,-7.287l1.478,-7.632l-5.86,-7.803l-10.733,-5.367Z" style="fill:#c7bc64;"/><path d="M118.618,210.738l-8.71,10.148l1.338,6.036l7.372,19.785c0,0 8.247,-5.443 10.733,-5.367c2.486,0.077 7.942,-3.971 7.942,-3.971l-2.575,-9.445l-8.208,-6.629l-7.892,-10.557Z" style="fill:#c7bc64;"/><path d="M166.917,209.034l-10.733,1.199l-10.733,6.958l1.543,7.735l4.41,5.975l7.784,-1.475l5.307,-5.071l4.046,-6.352l-1.624,-8.969" style="fill:#c7bc64;"/><path d="M109.908,177.954l8.71,6.93l10.733,-4.854l5.367,-14.553l-14.731,-3.95l-6.736,5.465l-3.343,10.962" style="fill:#c7bc64;"/><path d="M122.642,213.638l-8.372,9.702l1.286,5.769l7.086,18.915c0,0 7.928,-5.204 10.317,-5.131c2.39,0.074 7.635,-3.796 7.635,-3.796l-2.476,-9.029l-7.89,-6.338l-7.586,-10.092Zm46.427,-1.629l-10.317,1.146l-10.317,6.652l1.484,7.395l4.238,5.711l7.483,-1.409l5.101,-4.848l3.889,-6.072l-1.561,-8.575Zm11.733,-23.688l-6.575,5.403l2.19,12.168l8.127,2.858l7.228,1.825l3.089,-3.594l3.27,1.626l5.224,-0.719l1.823,-4.026l-5.158,-4.576l-3.886,-3.198l-7.22,-4.948l-8.112,-2.819Zm-35.112,-8.191l-7.572,3.765l-5.159,9.829l2.357,9.299l18.277,3.958l6.626,-6.966l1.421,-7.296l-5.633,-7.459l-10.317,-5.13Zm59.488,-19.321l6.671,8.447l-1.512,14.639l-5.159,7.695l-7.136,-3.548l-3.181,-6.712l0,-10.261l10.317,-10.26Zm-90.908,21.488l3.214,-10.479l6.475,-5.224l14.159,3.776l-5.159,13.912l-10.317,4.641l-8.372,-6.626Zm49.64,-19.169l5.159,-4.885l10.317,1.446l1.869,4.614l1.058,7.876l-10.606,10.404l-2.638,-5.153l-5.159,-1.231l-2.27,-9.837l2.27,-3.234Zm30.449,-20.732l8.996,5.787l-1.466,5.86l-5.159,2.565l-3.789,-1.885l-4.027,-4.489l0.412,-5.335l5.033,-2.503Z" style="fill:#a48246;fill-opacity:0.7;"/></g></g><path d="M323.018,53.275l-5.367,16.472l-5.366,-3.527l-2.029,11.413l-10.188,2.204l-3.883,14.158l-5.367,-6.148l-1.52,9.592l-9.213,-1.723l-3.223,13.307l-6.471,-4.296l-2.074,9.836l-11.476,-0.896l-2.113,6.398l-1.946,5.894l-5.877,-0.452l-3.024,8.898l-6.728,-1.259l-2.861,15.768l-5.918,-6.584l0.118,6.743l-3.36,-3.451l-1.61,6.171l-7.835,1.097l1.098,10.164l-7.938,-4.159l1.473,10.232l-5.367,-1.155l1.699,6.276l-11.281,-0.067l-1.151,9.454l-7.198,-1.298l-0.96,5.781l-5.367,-2.725l-1.792,8.447l-6.149,-1.994l-2.062,7.828l-5.667,0.471l-0.53,3.904l-5.048,-1.326l-2.793,9.337l-6.366,-3.184l2.404,5.165l-6.771,-0.445l-2.5,7.947l-8.233,0.779l0,7.291l-5.366,-0.828l-2.067,6.391l-4.596,-1.002l1.296,8.675l-8.197,0.142l0.058,5.338l-7.961,9.582l-107.802,-54.136l5.838,-5.613l7.061,-8.608l7.278,-4.186l4.73,-6.706l7.763,-7.931l6.048,-4.264l5.679,-6.917l9.74,-6.344l3.097,-5.928l6.699,-4.036l8.008,-6.119l5.015,-7.568l10.543,-6.625l5.107,-7.017l8.591,-5.199l7.46,-10.77l9.878,-6.783l5.669,-6.986l6.957,-4.006l4.454,-5.478l7.165,-3.528l5.71,-7.562l3.549,-1.774l1.526,-4.5l5.016,-3.187l4.582,-5.871l5.907,-4.242l1.873,-4.106l6.625,-6.958l7.56,-4.977l3.173,-5.756l6.722,-3.361l6.176,-8.455l8.568,-5.236l5.367,-7.098l107.331,53.195Z" style="fill:#b4e164;"/><clipPath id="_clip1"><path d="M323.018,53.275l-5.367,16.472l-5.366,-3.527l-2.029,11.413l-10.188,2.204l-3.883,14.158l-5.367,-6.148l-1.52,9.592l-9.213,-1.723l-3.223,13.307l-6.471,-4.296l-2.074,9.836l-11.476,-0.896l-2.113,6.398l-1.946,5.894l-5.877,-0.452l-3.024,8.898l-6.728,-1.259l-2.861,15.768l-5.918,-6.584l0.118,6.743l-3.36,-3.451l-1.61,6.171l-7.835,1.097l1.098,10.164l-7.938,-4.159l1.473,10.232l-5.367,-1.155l1.699,6.276l-11.281,-0.067l-1.151,9.454l-7.198,-1.298l-0.96,5.781l-5.367,-2.725l-1.792,8.447l-6.149,-1.994l-2.062,7.828l-5.667,0.471l-0.53,3.904l-5.048,-1.326l-2.793,9.337l-6.366,-3.184l2.404,5.165l-6.771,-0.445l-2.5,7.947l-8.233,0.779l0,7.291l-5.366,-0.828l-2.067,6.391l-4.596,-1.002l1.296,8.675l-8.197,0.142l0.058,5.338l-7.961,9.582l-107.802,-54.136l5.838,-5.613l7.061,-8.608l7.278,-4.186l4.73,-6.706l7.763,-7.931l6.048,-4.264l5.679,-6.917l9.74,-6.344l3.097,-5.928l6.699,-4.036l8.008,-6.119l5.015,-7.568l10.543,-6.625l5.107,-7.017l8.591,-5.199l7.46,-10.77l9.878,-6.783l5.669,-6.986l6.957,-4.006l4.454,-5.478l7.165,-3.528l5.71,-7.562l3.549,-1.774l1.526,-4.5l5.016,-3.187l4.582,-5.871l5.907,-4.242l1.873,-4.106l6.625,-6.958l7.56,-4.977l3.173,-5.756l6.722,-3.361l6.176,-8.455l8.568,-5.236l5.367,-7.098l107.331,53.195Z"/></clipPath><g clip-path="url(#_clip1)"><path d="M204.953,175.008l142.424,-119.815l-142.424,-71.212l-222.313,226.936l125.715,52.125l96.598,-88.034Z" style="fill:#ffff28;fill-opacity:0.15;"/><path d="M318.259,44.529l-5.367,16.472l-5.366,-3.527l-2.029,11.412l-10.188,2.205l-3.883,14.158l-5.367,-6.148l-1.52,9.592l-9.213,-1.723l-3.223,13.307l-6.471,-4.296l-2.074,9.836l-11.476,-0.896l-4.059,12.292l-5.877,-0.452l-3.024,8.898l-6.728,-1.259l-2.861,15.768l-5.918,-6.584l0.118,6.743l-3.36,-3.451l-1.61,6.171l-7.835,1.097l1.098,10.164l-7.938,-4.159l1.473,10.232l-5.367,-1.155l1.699,6.276l-11.281,-0.067l-1.151,9.454l-7.198,-1.298l-0.96,5.781l-5.367,-2.725l-1.792,8.447l-6.149,-1.994l-2.062,7.828l-5.667,0.471l-0.53,3.904l-5.048,-1.326l-2.793,9.337l-6.366,-3.184l2.404,5.165l-6.771,-0.445l-2.5,7.947l-8.233,0.779l0,7.291l-5.366,-0.828l-2.067,6.391l-4.596,-1.002l1.296,8.675l-8.197,0.142l0.058,5.338l-10.098,19.011l-118.535,-50.484l228.004,-216.776l107.331,53.195Z" style="fill:#a1d84f;fill-opacity:0.25;"/></g><g><g><path d="M275.342,59.582l-0.075,-9.126l-7.588,-3.14l-6.783,6.749l-7.62,4.239l-6.676,8.476l4.917,14.15l9.601,0.149l9.552,-5.858l4.672,-15.639Z" style="fill:#918f88;"/><path d="M276.696,64.634l-0.075,-9.126l-7.588,-3.14l-6.783,6.749l-7.62,4.239l-6.676,8.475l4.916,14.151l9.602,0.149l9.552,-5.858l4.672,-15.639Z" style="fill:#2f2d27;fill-opacity:0.6;"/><path d="M269.134,48.222l3.836,10.914l9.646,5.592l6.036,-5.634l5.096,-11.538l-2.927,-9.841l-5.389,-7.964l-6.766,6.525l-5.827,6.968l-3.705,4.978" style="fill:#918f88;"/><path d="M270.488,53.274l3.835,10.913l9.646,5.592l6.036,-5.634l5.096,-11.537l-2.927,-9.842l-5.388,-7.964l-6.766,6.526l-5.827,6.968l-3.705,4.978" style="fill:#2f2d27;fill-opacity:0.6;"/><path d="M282.828,37.775l2.559,5.746l8.572,8.444l8.157,-6.223l-0.733,-9.435l-3.613,-7.745l-7.638,8.21l-1.959,-0.96l-2.845,0.546l-2.5,1.417Z" style="fill:#918f88;"/><path d="M284.181,42.827l2.56,5.746l7.168,7.067l3.644,-3.35l-0.467,-8.931l-3.109,-5.034l-2.492,3.499l-1.959,-0.96l-2.844,0.546l-2.501,1.417Z" style="fill:#2f2d27;fill-opacity:0.6;"/><path d="M225.323,107.467l6.063,-12.77l6.416,-7.211l-0.028,-3.394l-0.034,-4.21l-4.794,0.794l-4.796,0.484l-3.347,5.728l-3.66,2.792l-2.484,4.759l-4.708,11.244l1.808,1.478l6.224,2.854l3.34,-2.548Z" style="fill:#918f88;"/><path d="M226.677,112.518l6.062,-12.77l6.417,-7.21l-0.016,-1.856l-0.012,-1.538l-0.035,-4.211l-4.793,0.794l-4.797,0.485l-3.346,5.728l-3.66,2.792l-2.485,4.759l-4.708,11.243l1.808,1.478l6.225,2.854l3.34,-2.548Z" style="fill:#2f2d27;fill-opacity:0.6;"/><path d="M202.497,102.049l3.881,-9.657l7.288,-1.984l7.344,-0.191l1.13,5.432l-3.513,9.647l-3.09,9.973l-1.946,7.607l-3.543,-3.589l-3.391,1.475l-4.535,-1.449l-1.266,-3.041l1.641,-14.223" style="fill:#918f88;"/><path d="M203.851,107.101l3.88,-9.658l7.289,-1.983l7.344,-0.191l1.13,5.432l-3.513,9.647l-3.091,9.973l-1.945,7.607l-3.544,-3.589l-3.391,1.474l-4.534,-1.448l-1.266,-3.041l1.641,-14.223" style="fill:#2f2d27;fill-opacity:0.6;"/><path d="M237.61,72.244l6.961,-6.196l7.867,4.829l9.132,3.453l-5.915,10.794l-1.73,9.311l-6.628,-0.981l-10.725,5.972l-6.908,-7.171l-1.662,-6.79l4.838,-9.581l4.77,-3.64Z" style="fill:#918f88;"/><path d="M238.964,77.296l6.961,-6.196l7.866,4.828l9.132,3.454l-5.915,10.794l-1.73,9.311l-6.628,-0.981l-10.725,5.972l-6.907,-7.171l-1.662,-6.79l4.837,-9.582l4.771,-3.639Z" style="fill:#2f2d27;fill-opacity:0.6;"/><path d="M136.249,171.237l-0.386,9.111l3.086,10.681l10.324,-3.994l3.973,-5.069l6.665,-1.633l1.389,-7.457l-8.453,-5.104l-6.308,-5.332l-7.923,3.437l-2.367,5.36Z" style="fill:#918f88;"/><path d="M137.881,176.205l-0.386,9.112l3.086,10.681l10.324,-3.994l3.973,-5.069l6.665,-1.633l1.389,-7.457l-8.453,-5.105l-6.308,-5.331l-7.924,3.437l-2.366,5.359Z" style="fill:#2f2d27;fill-opacity:0.6;"/><path d="M145.923,163.503l6.284,-11.686l11.823,-6.042l5.178,5.764l2.828,6.632l-6.341,13.689l0.606,9.489l-9.603,0.248l-4.976,-2.602l-3.042,-5.219l-2.757,-10.273Z" style="fill:#918f88;"/><path d="M147.555,168.472l6.284,-11.686l11.823,-6.042l5.178,5.764l2.828,6.632l-6.341,13.689l0.606,9.489l-9.604,0.248l-4.975,-2.602l-3.042,-5.22l-2.757,-10.272Z" style="fill:#2f2d27;fill-opacity:0.6;"/><path d="M82.807,225.785l2.731,7.316l5.969,2.522l11.005,-8.248l8.984,-10.326l-4.89,-6.623l-10.314,-4.359l-13.485,19.718Z" style="fill:#918f88;"/><path d="M84.439,230.753l2.731,7.316l5.969,2.523l10.933,-9.753l4.371,-6.875l-6.595,-6.992l-6.428,-4.338l-10.981,18.119Z" style="fill:#2f2d27;fill-opacity:0.6;"/><path d="M69.149,228.069l-0.386,9.112l3.087,10.681l10.324,-3.994l3.973,-5.069l6.664,-1.633l1.39,-7.457l-8.454,-5.104l-6.307,-5.332l-7.924,3.437l-2.367,5.359Z" style="fill:#918f88;"/><path d="M70.781,233.038l-0.386,9.112l3.087,10.681l10.324,-3.995l3.973,-5.069l6.664,-1.632l1.39,-7.457l-8.454,-5.105l-6.307,-5.331l-7.924,3.437l-2.367,5.359Z" style="fill:#2f2d27;fill-opacity:0.6;"/><path d="M98.024,208.7l6.284,-11.686l11.823,-6.042l5.178,5.764l2.828,6.632l-6.34,13.689l0.605,9.489l-9.603,0.248l-4.976,-2.602l-3.042,-5.22l-2.757,-10.272Z" style="fill:#918f88;"/><path d="M99.656,213.668l6.284,-11.686l11.823,-6.042l5.178,5.764l2.828,6.633l-6.341,13.688l0.606,9.49l-9.603,0.248l-4.976,-2.603l-3.042,-5.219l-2.757,-10.273Z" style="fill:#2f2d27;fill-opacity:0.6;"/><path d="M190.015,128.816l5.992,-13.836l11.886,-7.76l2.548,7.829l0.444,6.95l-7.821,14.608l-0.439,6.689l-6.622,-0.654l-8.695,9.818l-6.713,0.185l-1.66,-3.727l1.648,-5.724l2.652,-2.267l6.78,-12.111" style="fill:#918f88;"/><path d="M191.647,133.785l5.992,-13.836l11.886,-7.76l2.548,7.829l0.444,6.95l-7.822,14.608l-0.438,6.689l-6.622,-0.654l-8.695,9.817l-6.713,0.186l-1.66,-3.727l1.647,-5.724l2.652,-2.267l6.781,-12.111" style="fill:#2f2d27;fill-opacity:0.6;"/><path d="M162.456,153.395c0.916,-1.64 12.45,-12.17 12.45,-12.17l11.856,-2.272l-0.448,11.464l-7.333,4.356l-6.349,7.339c0,0 -11.093,-7.077 -10.176,-8.717Z" style="fill:#918f88;"/><path d="M164.088,158.364c0.916,-1.641 12.449,-12.17 12.449,-12.17l11.857,-2.272l-0.448,11.464l-7.334,4.356l-6.348,7.339c0,0 -11.093,-7.077 -10.176,-8.717Z" style="fill:#2f2d27;fill-opacity:0.6;"/><path d="M117.233,198.085l2.731,7.316l5.969,2.523l11.005,-8.249l8.985,-10.325l-4.891,-6.623l-10.314,-4.359l-13.485,19.717Z" style="fill:#918f88;"/><path d="M118.865,203.054l2.731,7.316l5.969,2.523l10.933,-9.753l4.371,-6.875l-6.595,-6.992l-6.427,-4.338l-10.982,18.119Z" style="fill:#2f2d27;fill-opacity:0.6;"/></g><g><path d="M147.392,76.531l-0.386,9.112l3.087,10.681l10.324,-3.994l3.972,-5.069l6.665,-1.633l1.389,-7.457l-8.453,-5.104l-6.308,-5.332l-7.923,3.437l-2.367,5.359Z" style="fill:#918f88;"/><path d="M149.024,81.5l-0.386,9.112l3.087,10.681l10.323,-3.995l3.973,-5.069l6.665,-1.632l1.389,-7.457l-8.453,-5.105l-6.308,-5.331l-7.923,3.437l-2.367,5.359Z" style="fill:#2f2d27;fill-opacity:0.6;"/><path d="M159.752,65.404l6.284,-11.686l11.824,-6.042l5.177,5.764l2.829,6.632l-6.341,13.689l0.606,9.489l-9.604,0.248l-4.976,-2.602l-3.042,-5.22l-2.757,-10.272Z" style="fill:#918f88;"/><path d="M161.384,70.372l6.284,-11.685l11.824,-6.043l5.177,5.765l2.829,6.632l-6.341,13.689l0.606,9.489l-9.604,0.248l-4.976,-2.602l-3.042,-5.22l-2.757,-10.273Z" style="fill:#2f2d27;fill-opacity:0.6;"/><path d="M199.464,34.95l5.991,-13.836l11.886,-7.76l2.548,7.829l0.444,6.949l-7.821,14.608l-0.439,6.69l-6.622,-0.655l-8.694,9.818l-6.714,0.185l-1.66,-3.726l1.648,-5.725l2.652,-2.266l6.781,-12.111" style="fill:#918f88;"/><path d="M201.095,39.919l5.992,-13.837l11.886,-7.759l2.548,7.829l0.444,6.949l-7.821,14.608l-0.439,6.69l-6.622,-0.655l-8.695,9.818l-6.713,0.185l-1.66,-3.726l1.648,-5.725l2.652,-2.267l6.78,-12.11" style="fill:#2f2d27;fill-opacity:0.6;"/><path d="M174.3,65.438c0.916,-1.64 12.45,-12.17 12.45,-12.17l11.856,-2.271l-0.447,11.463l-7.334,4.356l-6.349,7.339c0,0 -11.092,-7.077 -10.176,-8.717Z" style="fill:#918f88;"/><path d="M175.932,70.407c0.916,-1.64 12.45,-12.17 12.45,-12.17l11.856,-2.272l-0.448,11.464l-7.333,4.356l-6.349,7.339c0,0 -11.093,-7.077 -10.176,-8.717Z" style="fill:#2f2d27;fill-opacity:0.6;"/><path d="M218.074,23.986l2.731,7.316l5.969,2.523l11.005,-8.249l8.984,-10.325l-4.89,-6.623l-10.314,-4.359l-13.485,19.717Z" style="fill:#918f88;"/><path d="M219.705,28.955l2.732,7.316l5.968,2.523l10.934,-9.753l4.371,-6.875l-6.595,-6.992l-6.428,-4.338l-10.982,18.119Z" style="fill:#2f2d27;fill-opacity:0.6;"/><path d="M120.41,103.332l-0.386,9.112l3.087,10.681l10.324,-3.994l3.972,-5.069l6.665,-1.633l1.389,-7.457l-8.453,-5.105l-6.308,-5.331l-7.923,3.437l-2.367,5.359Z" style="fill:#918f88;"/><path d="M122.042,108.301l-0.386,9.112l3.087,10.681l10.323,-3.995l3.973,-5.069l6.665,-1.632l1.389,-7.457l-8.453,-5.105l-6.308,-5.331l-7.923,3.437l-2.367,5.359Z" style="fill:#2f2d27;fill-opacity:0.6;"/><path d="M130.084,95.599l6.284,-11.686l11.823,-6.042l5.178,5.764l2.828,6.632l-6.34,13.689l0.605,9.489l-9.603,0.248l-4.976,-2.602l-3.042,-5.22l-2.757,-10.272Z" style="fill:#918f88;"/><path d="M131.716,100.567l6.284,-11.686l11.823,-6.042l5.178,5.765l2.828,6.632l-6.34,13.689l0.605,9.489l-9.603,0.248l-4.976,-2.602l-3.042,-5.22l-2.757,-10.273Z" style="fill:#2f2d27;fill-opacity:0.6;"/><path d="M42.143,190.096l2.731,7.316l5.969,2.523l11.005,-8.249l8.984,-10.326l-4.89,-6.622l-10.314,-4.359l-13.485,19.717Z" style="fill:#918f88;"/><path d="M43.774,195.065l2.732,7.316l5.968,2.523l10.934,-9.753l4.371,-6.875l-6.595,-6.992l-6.428,-4.339l-10.982,18.12Z" style="fill:#2f2d27;fill-opacity:0.6;"/><path d="M13.731,204.684l-0.386,9.112l3.086,10.681l10.324,-3.995l3.973,-5.069l6.665,-1.632l1.389,-7.457l-8.453,-5.105l-6.308,-5.331l-7.923,3.437l-2.367,5.359Z" style="fill:#918f88;"/><path d="M15.363,209.653l-0.386,9.111l3.086,10.681l10.324,-3.994l3.973,-5.069l6.664,-1.632l1.39,-7.457l-8.453,-5.105l-6.308,-5.331l-7.924,3.437l-2.366,5.359Z" style="fill:#2f2d27;fill-opacity:0.6;"/><path d="M23.405,196.951l6.284,-11.686l11.823,-6.042l5.178,5.764l2.828,6.632l-6.341,13.689l0.606,9.489l-9.603,0.248l-4.976,-2.602l-3.042,-5.22l-2.757,-10.272Z" style="fill:#918f88;"/><path d="M25.037,201.919l6.284,-11.686l11.823,-6.042l5.178,5.764l2.828,6.633l-6.341,13.688l0.606,9.49l-9.604,0.248l-4.975,-2.603l-3.043,-5.219l-2.756,-10.273Z" style="fill:#2f2d27;fill-opacity:0.6;"/><path d="M85.18,147.054l5.992,-13.836l11.886,-7.76l2.548,7.829l0.444,6.95l-7.821,14.608l-0.439,6.689l-6.622,-0.654l-8.695,9.817l-6.713,0.186l-1.66,-3.727l1.647,-5.724l2.653,-2.267l6.78,-12.111" style="fill:#918f88;"/><path d="M86.812,152.023l5.992,-13.836l11.886,-7.76l2.548,7.829l0.444,6.95l-7.822,14.608l-0.438,6.689l-6.622,-0.654l-8.695,9.817l-6.713,0.186l-1.66,-3.727l1.647,-5.724l2.652,-2.267l6.781,-12.111" style="fill:#2f2d27;fill-opacity:0.6;"/><path d="M57.621,171.633c0.916,-1.64 12.45,-12.17 12.45,-12.17l11.856,-2.272l-0.448,11.464l-7.333,4.356l-6.349,7.339c0,0 -11.093,-7.077 -10.176,-8.717Z" style="fill:#918f88;"/><path d="M59.252,176.601c0.917,-1.64 12.45,-12.169 12.45,-12.169l11.857,-2.272l-0.448,11.463l-7.334,4.357l-6.348,7.339c0,0 -11.093,-7.077 -10.177,-8.718Z" style="fill:#2f2d27;fill-opacity:0.6;"/><path d="M101.394,130.181l2.731,7.316l5.969,2.523l11.006,-8.249l8.984,-10.326l-4.891,-6.622l-10.314,-4.359l-13.485,19.717Z" style="fill:#918f88;"/><path d="M103.026,135.15l2.731,7.316l5.969,2.523l10.934,-9.754l4.37,-6.874l-6.595,-6.992l-6.427,-4.339l-10.982,18.12Z" style="fill:#2f2d27;fill-opacity:0.6;"/></g></g></g></svg>