<?xml version="1.0" encoding="UTF-8" standalone="no"?><!DOCTYPE svg PUBLIC "-//W3C//DTD SVG 1.1//EN" "http://www.w3.org/Graphics/SVG/1.1/DTD/svg11.dtd"><svg width="100%" height="100%" viewBox="0 0 98 178" version="1.1" xmlns="http://www.w3.org/2000/svg" xmlns:xlink="http://www.w3.org/1999/xlink" xml:space="preserve" xmlns:serif="http://www.serif.com/" style="fill-rule:evenodd;clip-rule:evenodd;stroke-linejoin:round;stroke-miterlimit:1.41421;"><g id="Ladder03"><path d="M21.886,5.466l10.733,5.367l10.733,-5.367l-10.733,-5.366l-10.733,5.366Z" style="fill:#619caa;"/><path d="M43.352,5.466l-21.466,139.531l-10.733,5.366l21.466,-139.53l10.733,-5.367Z" style="fill:#76abb3;"/><path d="M21.886,5.466l-10.733,82.487l-10.733,57.044l10.733,5.366l8.499,-57.915l12.967,-81.615l-10.733,-5.367Z" style="fill:#5c708a;"/><path d="M28.531,50.721l6.665,-3.333l43.211,21.41l-7.023,3.35l-42.853,-21.427Z" style="fill:#619caa;"/><path d="M74.445,82.27l7.751,-15.449l-7.751,6.858l-45.914,-22.958l-1.279,7.664l47.193,23.885Z" style="fill:#5c708a;"/><path d="M24.741,76.659l6.666,-3.332l22.678,11.548l0,6.456l-29.344,-14.672Z" style="fill:#619caa;"/><path d="M56.713,100.751l-3.366,-5.159l0.738,-4.261l-29.344,-14.672l-1.278,7.664l33.25,16.428Z" style="fill:#5c708a;"/><path d="M37.043,137.418l1.57,-6.151l28.329,14.352l-7.024,3.35l-22.875,-11.551Z" style="fill:#619caa;"/><path d="M62.98,159.091l7.751,-15.449l-7.751,6.858l-25.937,-13.082l-8.374,4.187l34.311,17.486Z" style="fill:#5c708a;"/><path d="M75.552,32.299l10.733,5.367l10.733,-5.367l-10.733,-5.366l-10.733,5.366Z" style="fill:#619caa;"/><path d="M97.018,32.299l-16.1,76.6l-5.366,62.931l-10.734,5.366l6.582,-73.056l14.885,-66.474l10.733,-5.367Z" style="fill:#76abb3;"/><path d="M75.552,32.299l-21.467,139.531l10.733,5.366l6.582,-73.056l14.885,-66.474l-10.733,-5.367Z" style="fill:#5c708a;"/></g></svg>