<?xml version="1.0" encoding="UTF-8" standalone="no"?><!DOCTYPE svg PUBLIC "-//W3C//DTD SVG 1.1//EN" "http://www.w3.org/Graphics/SVG/1.1/DTD/svg11.dtd"><svg width="100%" height="100%" viewBox="0 0 216 205" version="1.1" xmlns="http://www.w3.org/2000/svg" xmlns:xlink="http://www.w3.org/1999/xlink" xml:space="preserve" xmlns:serif="http://www.serif.com/" style="fill-rule:evenodd;clip-rule:evenodd;stroke-linejoin:round;stroke-miterlimit:1.41421;"><g id="Sand_Ramp_RightUp_high-angle2"><path d="M215.294,54.254l0,96.599l-107.331,53.665l107.331,-150.264Z" style="fill:#e1aa80;"/><clipPath id="_clip1"><path d="M215.294,54.254l0,96.599l-107.331,53.665l107.331,-150.264Z"/></clipPath><g clip-path="url(#_clip1)"><path d="M215.294,129.386c0,0 -31.637,3.354 -45.851,22.926c-9.913,13.649 -61.555,48.96 -61.48,52.206c0.588,25.514 -65.46,-90.508 -107.332,-75.132c-41.871,15.377 -13.211,68.526 -13.211,68.526l160.009,19.073l73.232,-47.349l-5.367,-40.25Z" style="fill:#b08255;"/></g><path d="M215.294,54.254l-107.331,150.264l-107.332,-53.665l107.332,-150.264l107.331,53.665Z" style="fill:#c78664;"/><g><g><path d="M82.058,83.548l-9.125,0.109l-3.293,-7.523l6.611,-6.917l4.084,-7.704l8.339,-6.846l14.247,4.63l0.343,9.596l-5.664,9.669l-15.542,4.986Z" style="fill:#918f88;"/><path d="M80.664,89.583l-9.125,0.109l-3.293,-7.524l6.611,-6.917l4.084,-7.704l8.339,-6.846l14.247,4.63l0.343,9.597l-5.664,9.668l-15.542,4.987Z" style="fill:#2f2d27;fill-opacity:0.6;"/><path d="M128.924,32.573l-12.646,6.319l-7.079,6.56l-3.394,0.041l-4.21,0.051l0.697,-4.809l0.388,-4.805l5.659,-3.462l2.717,-3.715l4.708,-2.581l11.146,-4.933l1.514,1.777l2.98,6.166l-2.48,3.391Z" style="fill:#918f88;"/><path d="M127.529,38.607l-12.645,6.319l-7.079,6.561l-3.394,0.04l-4.21,0.051l0.697,-4.809l0.388,-4.805l5.658,-3.462l2.718,-3.715l4.708,-2.58l11.146,-4.934l1.514,1.778l2.98,6.165l-2.481,3.391Z" style="fill:#2f2d27;fill-opacity:0.6;"/><path d="M123.047,9.861l-9.578,4.074l-1.836,7.327l-0.042,7.347l5.453,1.02l9.574,-3.707l9.909,-3.291l7.566,-2.099l-3.66,-3.471l1.406,-3.42l-1.54,-4.504l-3.065,-1.204l-14.187,1.928" style="fill:#918f88;"/><path d="M121.653,15.895l-9.578,4.075l-1.836,7.327l-0.042,7.346l5.453,1.02l9.574,-3.707l9.909,-3.291l7.566,-2.099l-3.66,-3.47l1.406,-3.42l-1.54,-4.504l-3.066,-1.205l-14.186,1.928" style="fill:#2f2d27;fill-opacity:0.6;"/><path d="M93.956,45.568l-6.054,7.085l4.986,7.767l3.638,9.061l10.672,-6.132l9.274,-1.918l-1.115,-6.606l5.755,-10.844l-7.309,-6.761l-6.822,-1.525l-9.482,5.03l-3.543,4.843Z" style="fill:#918f88;"/><path d="M92.562,51.603l-6.054,7.084l4.986,7.767l3.638,9.061l10.672,-6.132l9.274,-1.917l-1.115,-6.607l5.755,-10.844l-7.309,-6.761l-6.822,-1.525l-9.482,5.031l-3.543,4.843Z" style="fill:#2f2d27;fill-opacity:0.6;"/><path d="M62.741,116.225l-12.645,6.319l-7.08,6.561l-3.393,0.04l-4.211,0.051l0.697,-4.809l0.388,-4.805l5.659,-3.462l2.718,-3.715l4.707,-2.58l11.147,-4.934l1.514,1.778l2.979,6.165l-2.48,3.391Z" style="fill:#918f88;"/><path d="M61.347,122.259l-12.645,6.32l-7.08,6.56l-3.393,0.041l-4.211,0.05l0.697,-4.808l0.388,-4.805l5.659,-3.462l2.717,-3.716l4.708,-2.58l11.146,-4.934l1.515,1.778l2.979,6.166l-2.48,3.39Z" style="fill:#2f2d27;fill-opacity:0.6;"/><path d="M30.733,125.077l-6.054,7.085l4.986,7.767l3.638,9.061l10.672,-6.132l9.274,-1.918l-1.115,-6.606l5.755,-10.844l-7.309,-6.761l-6.822,-1.525l-9.482,5.03l-3.543,4.843Z" style="fill:#918f88;"/><path d="M29.339,131.112l-6.054,7.084l4.986,7.767l3.638,9.061l10.672,-6.132l9.274,-1.917l-1.115,-6.607l5.755,-10.844l-7.309,-6.761l-6.822,-1.525l-9.482,5.031l-3.543,4.843Z" style="fill:#2f2d27;fill-opacity:0.6;"/><path d="M175.619,37.597l9.044,-1.18l10.909,2.144l-3.078,10.633l-4.703,4.4l-1.045,6.781l-7.308,2.035l-5.822,-7.976l-5.861,-5.819l2.732,-8.193l5.132,-2.825Z" style="fill:#918f88;"/><path d="M174.296,43.647l9.043,-1.179l10.909,2.143l-3.078,10.633l-4.703,4.4l-1.045,6.781l-7.308,2.035l-5.822,-7.976l-5.861,-5.818l2.732,-8.194l5.133,-2.825Z" style="fill:#2f2d27;fill-opacity:0.6;"/><path d="M172.782,52.675l-11.093,7.279l-4.988,12.306l6.194,4.655l6.854,2.239l13.083,-7.511l9.506,-0.224l-0.591,-9.589l-3.026,-4.73l-5.465,-2.575l-10.474,-1.85Z" style="fill:#918f88;"/><path d="M171.458,58.725l-11.093,7.279l-4.988,12.306l6.194,4.655l6.854,2.239l13.083,-7.511l9.506,-0.224l-0.591,-9.589l-3.026,-4.73l-5.465,-2.575l-10.474,-1.85Z" style="fill:#2f2d27;fill-opacity:0.6;"/><path d="M107.926,136.572l9.043,-1.179l10.91,2.143l-3.079,10.633l-4.703,4.4l-1.045,6.781l-7.307,2.035l-5.823,-7.976l-5.861,-5.818l2.732,-8.194l5.133,-2.825Z" style="fill:#918f88;"/><path d="M106.602,142.622l9.043,-1.179l10.91,2.143l-3.079,10.633l-4.703,4.4l-1.045,6.781l-7.307,2.035l-5.823,-7.976l-5.861,-5.818l2.732,-8.193l5.133,-2.826Z" style="fill:#2f2d27;fill-opacity:0.6;"/><path d="M105.089,151.65l-11.094,7.279l-4.987,12.306l6.194,4.655l6.853,2.239l13.084,-7.511l9.505,-0.224l-0.59,-9.589l-3.026,-4.73l-5.465,-2.575l-10.474,-1.85Z" style="fill:#918f88;"/><path d="M103.765,157.7l-11.094,7.28l-4.987,12.305l6.194,4.655l6.853,2.239l13.084,-7.511l9.505,-0.224l-0.59,-9.589l-3.026,-4.73l-5.465,-2.575l-10.474,-1.85Z" style="fill:#2f2d27;fill-opacity:0.6;"/><path d="M144.835,94.969l-13.261,7.176l-6.693,12.517l8.021,1.856l6.962,-0.165l13.87,-9.065l6.626,-1.021l-1.23,-6.539l9.022,-9.518l-0.401,-6.705l-3.857,-1.328l-5.559,2.141l-2.027,2.839l-11.473,7.812" style="fill:#918f88;"/><path d="M143.511,101.019l-13.261,7.176l-6.693,12.517l8.021,1.856l6.962,-0.165l13.87,-9.065l6.626,-1.021l-1.23,-6.539l9.022,-9.518l-0.401,-6.704l-3.857,-1.329l-5.559,2.141l-2.027,2.839l-11.473,7.812" style="fill:#2f2d27;fill-opacity:0.6;"/><path d="M166.916,65.37c-1.554,1.056 -11.038,13.464 -11.038,13.464l-1.228,12.009l11.38,-1.445l3.7,-7.686l6.758,-6.965c0,0 -8.019,-10.433 -9.572,-9.377Z" style="fill:#918f88;"/><path d="M165.592,71.42c-1.554,1.056 -11.038,13.464 -11.038,13.464l-1.228,12.01l11.38,-1.446l3.7,-7.686l6.758,-6.965c0,0 -8.019,-10.433 -9.572,-9.377Z" style="fill:#2f2d27;fill-opacity:0.6;"/><path d="M87.359,167.596c-1.554,1.056 -11.038,13.464 -11.038,13.464l-1.228,12.01l11.38,-1.446l3.7,-7.686l6.758,-6.965c0,0 -8.018,-10.433 -9.572,-9.377Z" style="fill:#918f88;"/><path d="M86.035,173.646c-1.554,1.056 -11.038,13.464 -11.038,13.464l-1.228,12.01l11.38,-1.446l3.7,-7.686l6.758,-6.965c0,0 -8.018,-10.433 -9.572,-9.377Z" style="fill:#2f2d27;fill-opacity:0.6;"/><path d="M70.575,77.571l10.989,3.614l5.786,9.531l-5.511,6.149l-11.432,5.327l-9.899,-2.727l-8.071,-5.227l6.387,-6.896l6.849,-5.967l4.902,-3.804" style="fill:#918f88;"/><path d="M69.181,83.605l10.989,3.614l5.786,9.532l-5.511,6.148l-11.432,5.328l-9.899,-2.728l-8.071,-5.226l6.387,-6.897l6.849,-5.966l4.902,-3.805" style="fill:#2f2d27;fill-opacity:0.6;"/><path d="M26.718,138.827l10.989,3.614l5.785,9.532l-5.511,6.148l-11.432,5.328l-9.899,-2.728l-8.071,-5.227l6.388,-6.896l6.849,-5.966l4.902,-3.805" style="fill:#918f88;"/><path d="M25.324,144.861l10.989,3.615l5.785,9.531l-5.511,6.148l-11.432,5.328l-9.899,-2.728l-8.071,-5.226l6.388,-6.897l6.848,-5.966l4.903,-3.805" style="fill:#2f2d27;fill-opacity:0.6;"/><path d="M60.407,91.473l5.797,2.442l8.614,8.4l-6.057,8.281l-9.447,-0.543l-7.817,-3.456l8.055,-7.802l-0.999,-1.939l0.488,-2.855l1.366,-2.528Z" style="fill:#918f88;"/><path d="M59.013,97.507l5.797,2.443l7.21,7.023l-3.276,3.711l-8.939,-0.286l-5.095,-3.006l3.448,-2.562l-0.999,-1.94l0.488,-2.855l1.366,-2.528Z" style="fill:#2f2d27;fill-opacity:0.6;"/><path d="M129.441,112.593l7.526,2.082l3.034,5.726l-7.258,11.683l-9.502,9.851l-7.024,-4.294l-5.242,-9.894l18.466,-15.154Z" style="fill:#918f88;"/><path d="M128.117,118.643l7.526,2.083l3.034,5.726l-8.762,11.742l-6.468,4.954l-7.54,-5.96l-4.883,-6.025l17.093,-12.52Z" style="fill:#2f2d27;fill-opacity:0.6;"/></g></g></g></svg>