<?xml version="1.0" encoding="UTF-8" standalone="no"?><!DOCTYPE svg PUBLIC "-//W3C//DTD SVG 1.1//EN" "http://www.w3.org/Graphics/SVG/1.1/DTD/svg11.dtd"><svg width="100%" height="100%" viewBox="0 0 323 162" version="1.1" xmlns="http://www.w3.org/2000/svg" xmlns:xlink="http://www.w3.org/1999/xlink" xml:space="preserve" xmlns:serif="http://www.serif.com/" style="fill-rule:evenodd;clip-rule:evenodd;stroke-linejoin:round;stroke-miterlimit:1.41421;"><g id="Sand_Ramp_LeftDown_low-angle1"><path d="M107.973,65.114l214.663,-10.733l-214.663,107.331l0,-96.598Z" style="fill:#e1aa80;"/><clipPath id="_clip1"><path d="M107.973,65.114l214.663,-10.733l-214.663,107.331l0,-96.598Z"/></clipPath><g clip-path="url(#_clip1)"><path d="M193.838,86.581c22.847,-11.371 55.566,-6.31 68.531,-12.8c27.924,-13.977 60.267,-19.4 60.267,-19.4l5.366,18.783l-73.232,47.349c0,0 -13.383,-5.295 -27.721,-11.756l-6.378,18.073l-73.232,47.349l-160.009,-19.073c0,0 -28.66,-53.149 13.212,-68.525c41.872,-15.377 81.854,55.145 107.331,53.665c25.477,-1.48 64.128,-43.051 85.865,-53.665Z" style="fill:#a27247;"/></g><path d="M0.642,11.449l107.331,53.665l0,96.598l-107.331,-53.665l0,-96.598" style="fill:#b08255;"/><clipPath id="_clip2"><path d="M0.642,11.449l107.331,53.665l0,96.598l-107.331,-53.665l0,-96.598"/></clipPath><g clip-path="url(#_clip2)"><path d="M215.304,86.581c0,0 -32.023,3.078 -45.851,22.925c-13.827,19.847 -36.002,29.26 -61.48,30.74c-25.477,1.48 -65.459,-69.042 -107.331,-53.665c-41.872,15.376 -13.212,68.525 -13.212,68.525l160.009,19.073l73.232,-47.349l-5.367,-40.249Z" style="fill:#a27247;"/></g><path d="M322.636,54.381l-214.663,10.733l-107.331,-53.665l214.662,-10.733l107.332,53.665Z" style="fill:#c78664;"/></g></svg>