<?xml version="1.0" encoding="UTF-8" standalone="no"?><!DOCTYPE svg PUBLIC "-//W3C//DTD SVG 1.1//EN" "http://www.w3.org/Graphics/SVG/1.1/DTD/svg11.dtd"><svg width="100%" height="100%" viewBox="0 0 216 151" version="1.1" xmlns="http://www.w3.org/2000/svg" xmlns:xlink="http://www.w3.org/1999/xlink" xml:space="preserve" xmlns:serif="http://www.serif.com/" style="fill-rule:evenodd;clip-rule:evenodd;stroke-linejoin:round;stroke-miterlimit:1.41421;"><g id="Sand_Ramp_LeftDown_high-angle1"><path d="M215.129,96.714l-107.331,53.666l0,-96.598l107.331,42.932Z" style="fill:#e1aa80;"/><clipPath id="_clip1"><path d="M215.129,96.714l-107.331,53.666l0,-96.598l107.331,42.932Z"/></clipPath><g clip-path="url(#_clip1)"><path d="M217.126,97.713c0,0 -28.755,-10.172 -47.848,0.461c-21.133,11.768 -36.003,29.26 -61.48,30.74c-9.741,0.566 -21.601,-9.393 -34.877,-21.052c-21.449,-18.836 -46.591,-42.112 -72.455,-32.614c-41.872,15.377 -13.212,68.526 -13.212,68.526l160.009,19.073l73.232,-47.35l-3.369,-17.784Z" style="fill:#a27247;"/></g><path d="M0.466,0.116l107.332,53.666l0,96.598l-107.332,-53.666l0,-96.598" style="fill:#b08255;"/><clipPath id="_clip2"><path d="M0.466,0.116l107.332,53.666l0,96.598l-107.332,-53.666l0,-96.598"/></clipPath><g clip-path="url(#_clip2)"><path d="M215.129,75.248c0,0 -32.024,3.078 -45.851,22.926c-13.827,19.847 -36.003,29.26 -61.48,30.74c-25.478,1.48 -65.46,-69.042 -107.332,-53.666c-41.872,15.377 -13.212,68.526 -13.212,68.526l160.009,19.073l73.232,-47.35l-5.366,-40.249Z" style="fill:#a27247;"/></g><path d="M215.129,96.714l-107.331,-42.932l-107.332,-53.666l107.332,42.933l107.331,53.665Z" style="fill:#c78664;"/></g></svg>