<?xml version="1.0" encoding="UTF-8" standalone="no"?><!DOCTYPE svg PUBLIC "-//W3C//DTD SVG 1.1//EN" "http://www.w3.org/Graphics/SVG/1.1/DTD/svg11.dtd"><svg width="100%" height="100%" viewBox="0 0 215 205" version="1.1" xmlns="http://www.w3.org/2000/svg" xmlns:xlink="http://www.w3.org/1999/xlink" xml:space="preserve" xmlns:serif="http://www.serif.com/" style="fill-rule:evenodd;clip-rule:evenodd;stroke-linejoin:round;stroke-miterlimit:1.41421;"><g id="Sand_Ramp_LeftUp_high-angle2"><path d="M0.088,54.566l0,96.598l107.332,53.666l-107.332,-150.264Z" style="fill:#b08255;"/><clipPath id="_clip1"><path d="M0.088,54.566l0,96.598l107.332,53.666l-107.332,-150.264Z"/></clipPath><g clip-path="url(#_clip1)"><path d="M0.088,129.698c0,0 31.637,3.353 45.851,22.925c9.913,13.65 61.555,48.96 61.481,52.207c-0.588,25.513 65.459,-90.509 107.331,-75.132c41.872,15.376 13.212,68.526 13.212,68.526l-160.009,19.072l-73.232,-47.349l5.366,-40.249Z" style="fill:#a27247;"/></g><path d="M0.088,54.566l107.332,150.264l107.331,-53.666l-107.331,-150.264l-107.332,53.666Z" style="fill:#e1aa80;"/><g><g><path d="M133.324,83.86l9.125,0.109l3.293,-7.523l-6.611,-6.918l-4.084,-7.704l-8.339,-6.846l-14.247,4.63l-0.342,9.597l5.664,9.668l15.541,4.987Z" style="fill:#918f88;"/><path d="M134.718,89.894l9.125,0.109l3.293,-7.523l-6.611,-6.917l-4.084,-7.704l-8.339,-6.846l-14.247,4.63l-0.342,9.596l5.664,9.669l15.541,4.986Z" style="fill:#2f2d27;fill-opacity:0.6;"/><path d="M86.459,32.884l12.645,6.319l7.079,6.561l3.394,0.041l4.211,0.05l-0.697,-4.809l-0.388,-4.805l-5.659,-3.461l-2.718,-3.716l-4.707,-2.58l-11.147,-4.934l-1.514,1.778l-2.979,6.165l2.48,3.391Z" style="fill:#918f88;"/><path d="M87.853,38.918l12.645,6.32l7.08,6.56l3.393,0.041l4.211,0.051l-0.697,-4.809l-0.388,-4.805l-5.659,-3.462l-2.718,-3.715l-4.707,-2.581l-11.147,-4.933l-1.514,1.777l-2.979,6.166l2.48,3.39Z" style="fill:#2f2d27;fill-opacity:0.6;"/><path d="M92.336,10.172l9.577,4.075l1.836,7.327l0.043,7.347l-5.454,1.019l-9.574,-3.707l-9.909,-3.291l-7.566,-2.099l3.66,-3.47l-1.406,-3.42l1.54,-4.504l3.066,-1.204l14.187,1.927" style="fill:#918f88;"/><path d="M93.73,16.207l9.577,4.074l1.837,7.327l0.042,7.347l-5.454,1.02l-9.573,-3.707l-9.91,-3.291l-7.566,-2.099l3.66,-3.471l-1.405,-3.42l1.539,-4.504l3.066,-1.204l14.187,1.928" style="fill:#2f2d27;fill-opacity:0.6;"/><path d="M121.426,45.88l6.054,7.085l-4.986,7.767l-3.637,9.06l-10.673,-6.131l-9.274,-1.918l1.115,-6.607l-5.755,-10.843l7.309,-6.761l6.822,-1.525l9.483,5.03l3.542,4.843Z" style="fill:#918f88;"/><path d="M122.82,51.914l6.054,7.085l-4.986,7.767l-3.637,9.061l-10.673,-6.132l-9.273,-1.918l1.114,-6.606l-5.754,-10.844l7.309,-6.761l6.822,-1.525l9.482,5.03l3.542,4.843Z" style="fill:#2f2d27;fill-opacity:0.6;"/><path d="M152.641,116.536l12.645,6.32l7.08,6.56l3.394,0.041l4.21,0.05l-0.697,-4.808l-0.388,-4.805l-5.659,-3.462l-2.717,-3.715l-4.708,-2.581l-11.146,-4.933l-1.514,1.777l-2.98,6.166l2.48,3.39Z" style="fill:#918f88;"/><path d="M154.036,122.571l12.645,6.319l7.079,6.561l3.394,0.04l4.21,0.051l-0.697,-4.809l-0.388,-4.805l-5.658,-3.462l-2.718,-3.715l-4.708,-2.58l-11.146,-4.934l-1.514,1.778l-2.98,6.165l2.481,3.391Z" style="fill:#2f2d27;fill-opacity:0.6;"/><path d="M184.649,125.389l6.054,7.085l-4.986,7.767l-3.637,9.06l-10.673,-6.131l-9.274,-1.918l1.115,-6.607l-5.755,-10.843l7.309,-6.761l6.823,-1.525l9.482,5.03l3.542,4.843Z" style="fill:#918f88;"/><path d="M186.043,131.423l6.054,7.085l-4.986,7.767l-3.637,9.061l-10.673,-6.132l-9.273,-1.918l1.114,-6.606l-5.754,-10.844l7.309,-6.761l6.822,-1.525l9.482,5.03l3.542,4.843Z" style="fill:#2f2d27;fill-opacity:0.6;"/><path d="M39.763,37.908l-9.043,-1.179l-10.91,2.143l3.079,10.633l4.703,4.4l1.045,6.782l7.307,2.034l5.823,-7.976l5.861,-5.818l-2.733,-8.193l-5.132,-2.826Z" style="fill:#918f88;"/><path d="M41.087,43.959l-9.043,-1.18l-10.91,2.143l3.079,10.633l4.703,4.4l1.045,6.782l7.307,2.034l5.823,-7.975l5.861,-5.819l-2.733,-8.193l-5.132,-2.825Z" style="fill:#2f2d27;fill-opacity:0.6;"/><path d="M42.6,52.986l11.094,7.28l4.987,12.305l-6.194,4.655l-6.854,2.239l-13.083,-7.51l-9.506,-0.225l0.591,-9.588l3.026,-4.73l5.465,-2.575l10.474,-1.851Z" style="fill:#918f88;"/><path d="M43.924,59.037l11.094,7.279l4.987,12.305l-6.194,4.655l-6.854,2.239l-13.083,-7.51l-9.506,-0.224l0.591,-9.589l3.026,-4.73l5.465,-2.575l10.474,-1.85Z" style="fill:#2f2d27;fill-opacity:0.6;"/><path d="M107.456,136.884l-9.043,-1.18l-10.909,2.143l3.078,10.633l4.703,4.4l1.045,6.782l7.308,2.034l5.822,-7.975l5.861,-5.819l-2.732,-8.193l-5.133,-2.825Z" style="fill:#918f88;"/><path d="M108.78,142.934l-9.043,-1.18l-10.909,2.144l3.078,10.633l4.703,4.4l1.045,6.781l7.308,2.034l5.822,-7.975l5.861,-5.819l-2.732,-8.193l-5.133,-2.825Z" style="fill:#2f2d27;fill-opacity:0.6;"/><path d="M110.294,151.962l11.093,7.279l4.988,12.305l-6.194,4.655l-6.854,2.239l-13.083,-7.51l-9.506,-0.224l0.591,-9.589l3.026,-4.73l5.465,-2.575l10.474,-1.85Z" style="fill:#918f88;"/><path d="M111.618,158.012l11.093,7.279l4.988,12.305l-6.194,4.656l-6.854,2.239l-13.083,-7.511l-9.506,-0.224l0.591,-9.589l3.026,-4.73l5.465,-2.575l10.474,-1.85Z" style="fill:#2f2d27;fill-opacity:0.6;"/><path d="M70.547,95.28l13.261,7.176l6.693,12.518l-8.021,1.855l-6.962,-0.164l-13.87,-9.066l-6.625,-1.02l1.229,-6.54l-9.021,-9.518l0.401,-6.704l3.857,-1.328l5.558,2.14l2.027,2.84l11.473,7.811" style="fill:#918f88;"/><path d="M71.871,101.331l13.261,7.176l6.693,12.517l-8.021,1.855l-6.962,-0.164l-13.87,-9.066l-6.625,-1.02l1.229,-6.54l-9.022,-9.518l0.402,-6.704l3.856,-1.328l5.559,2.14l2.027,2.84l11.473,7.812" style="fill:#2f2d27;fill-opacity:0.6;"/><path d="M48.467,65.682c1.554,1.055 11.037,13.464 11.037,13.464l1.229,12.009l-11.381,-1.446l-3.7,-7.686l-6.757,-6.965c0,0 8.018,-10.432 9.572,-9.376Z" style="fill:#918f88;"/><path d="M49.791,71.732c1.554,1.056 11.037,13.464 11.037,13.464l1.229,12.009l-11.381,-1.446l-3.7,-7.686l-6.757,-6.964c0,0 8.018,-10.433 9.572,-9.377Z" style="fill:#2f2d27;fill-opacity:0.6;"/><path d="M128.024,167.908c1.554,1.056 11.037,13.464 11.037,13.464l1.229,12.009l-11.381,-1.446l-3.7,-7.686l-6.757,-6.964c0,0 8.018,-10.433 9.572,-9.377Z" style="fill:#918f88;"/><path d="M129.348,173.958c1.554,1.056 11.037,13.464 11.037,13.464l1.229,12.009l-11.381,-1.446l-3.7,-7.685l-6.757,-6.965c0,0 8.018,-10.433 9.572,-9.377Z" style="fill:#2f2d27;fill-opacity:0.6;"/><path d="M144.807,77.882l-10.989,3.615l-5.785,9.531l5.511,6.148l11.432,5.328l9.898,-2.728l8.071,-5.226l-6.387,-6.897l-6.849,-5.966l-4.902,-3.805" style="fill:#918f88;"/><path d="M146.201,83.917l-10.989,3.614l-5.785,9.531l5.511,6.149l11.432,5.327l9.899,-2.727l8.071,-5.227l-6.388,-6.896l-6.848,-5.967l-4.903,-3.804" style="fill:#2f2d27;fill-opacity:0.6;"/><path d="M188.664,139.138l-10.988,3.615l-5.786,9.531l5.511,6.148l11.432,5.328l9.899,-2.727l8.071,-5.227l-6.387,-6.897l-6.849,-5.966l-4.903,-3.805" style="fill:#918f88;"/><path d="M190.059,145.173l-10.989,3.614l-5.786,9.532l5.511,6.148l11.432,5.328l9.899,-2.728l8.071,-5.227l-6.387,-6.896l-6.849,-5.966l-4.902,-3.805" style="fill:#2f2d27;fill-opacity:0.6;"/><path d="M154.976,91.784l-5.797,2.443l-8.615,8.399l6.057,8.281l9.448,-0.542l7.816,-3.456l-8.054,-7.802l0.999,-1.94l-0.488,-2.854l-1.366,-2.529Z" style="fill:#918f88;"/><path d="M156.37,97.819l-5.797,2.442l-7.21,7.024l3.275,3.711l8.939,-0.287l5.096,-3.006l-3.448,-2.562l0.999,-1.939l-0.488,-2.855l-1.366,-2.528Z" style="fill:#2f2d27;fill-opacity:0.6;"/><path d="M85.942,112.904l-7.527,2.083l-3.033,5.726l7.257,11.683l9.503,9.851l7.023,-4.294l5.243,-9.895l-18.466,-15.154Z" style="fill:#918f88;"/><path d="M87.266,118.955l-7.527,2.082l-3.033,5.726l8.762,11.743l6.467,4.954l7.541,-5.96l4.882,-6.025l-17.092,-12.52Z" style="fill:#2f2d27;fill-opacity:0.6;"/></g></g></g></svg>