<?xml version="1.0" encoding="UTF-8" standalone="no"?><!DOCTYPE svg PUBLIC "-//W3C//DTD SVG 1.1//EN" "http://www.w3.org/Graphics/SVG/1.1/DTD/svg11.dtd"><svg width="100%" height="100%" viewBox="0 0 323 162" version="1.1" xmlns="http://www.w3.org/2000/svg" xmlns:xlink="http://www.w3.org/1999/xlink" xml:space="preserve" xmlns:serif="http://www.serif.com/" style="fill-rule:evenodd;clip-rule:evenodd;stroke-linejoin:round;stroke-miterlimit:1.41421;"><g id="Sand_Ramp_RightDown_low-angle1"><path d="M215.528,65.271l-214.663,-10.733l214.663,107.331l0,-96.598Z" style="fill:#b08255;"/><clipPath id="_clip1"><path d="M215.528,65.271l-214.663,-10.733l214.663,107.331l0,-96.598Z"/></clipPath><g clip-path="url(#_clip1)"><path d="M129.663,86.737c-22.848,-11.37 -55.567,-6.309 -68.531,-12.799c-27.924,-13.977 -60.267,-19.4 -60.267,-19.4l-5.367,18.783l73.232,47.349c0,0 13.383,-5.295 27.721,-11.756l6.379,18.073l73.232,47.349l160.009,-19.073c0,0 28.66,-53.149 -13.212,-68.526c-41.872,-15.376 -81.854,55.146 -107.331,53.666c-25.478,-1.48 -64.129,-43.051 -85.865,-53.666Z" style="fill:#a27247;"/></g><path d="M322.859,11.605l-107.331,53.666l0,96.598l107.331,-53.665l0,-96.599" style="fill:#e1aa80;"/><clipPath id="_clip2"><path d="M322.859,11.605l-107.331,53.666l0,96.598l107.331,-53.665l0,-96.599"/></clipPath><g clip-path="url(#_clip2)"><path d="M108.196,86.737c0,0 32.024,3.078 45.851,22.926c13.827,19.847 36.003,29.26 61.481,30.74c25.477,1.48 65.459,-69.042 107.331,-53.666c41.872,15.377 13.212,68.526 13.212,68.526l-160.009,19.073l-73.232,-47.349l5.366,-40.25Z" style="fill:#a27247;"/></g><path d="M0.865,54.538l214.663,10.733l107.331,-53.666l-214.663,-10.733l-107.331,53.666Z" style="fill:#c78664;"/></g></svg>