<?xml version="1.0" encoding="UTF-8" standalone="no"?><!DOCTYPE svg PUBLIC "-//W3C//DTD SVG 1.1//EN" "http://www.w3.org/Graphics/SVG/1.1/DTD/svg11.dtd"><svg width="100%" height="100%" viewBox="0 0 190 193" version="1.1" xmlns="http://www.w3.org/2000/svg" xmlns:xlink="http://www.w3.org/1999/xlink" xml:space="preserve" xmlns:serif="http://www.serif.com/" style="fill-rule:evenodd;clip-rule:evenodd;stroke-linejoin:round;stroke-miterlimit:1.41421;"><g id="Way_Ramp_Up_high2"><g><path d="M183.31,34.374l-112.698,147.58l-53.666,-26.832l112.698,-147.581l53.666,26.833Z" style="fill:#c78664;"/><g><path d="M75.72,76.607l-9.126,0.109l-3.292,-7.523l6.61,-6.918l4.084,-7.704l8.34,-6.846l14.246,4.63l0.343,9.597l-5.664,9.668l-15.541,4.987Z" style="fill:#918f88;"/><path d="M74.325,82.641l-9.125,0.109l-3.293,-7.523l6.611,-6.917l4.084,-7.704l8.339,-6.846l14.247,4.629l0.343,9.597l-5.664,9.669l-15.542,4.986Z" style="fill:#2f2d27;fill-opacity:0.6;"/><path d="M122.585,25.631l-12.645,6.319l-7.08,6.561l-3.393,0.041l-4.211,0.05l0.697,-4.809l0.388,-4.805l5.659,-3.461l2.717,-3.716l4.708,-2.58l11.146,-4.934l1.514,1.778l2.98,6.165l-2.48,3.391Z" style="fill:#918f88;"/><path d="M121.19,31.665l-12.645,6.32l-7.079,6.56l-3.394,0.041l-4.21,0.05l0.697,-4.808l0.388,-4.805l5.659,-3.462l2.717,-3.715l4.708,-2.581l11.146,-4.933l1.514,1.777l2.98,6.166l-2.481,3.39Z" style="fill:#2f2d27;fill-opacity:0.6;"/><path d="M116.708,2.919l-9.578,4.075l-1.836,7.327l-0.042,7.346l5.453,1.02l9.574,-3.707l9.909,-3.291l7.566,-2.099l-3.66,-3.47l1.406,-3.42l-1.54,-4.504l-3.065,-1.204l-14.187,1.927" style="fill:#918f88;"/><path d="M115.314,8.954l-9.578,4.074l-1.836,7.327l-0.042,7.347l5.453,1.02l9.574,-3.707l9.909,-3.291l7.566,-2.099l-3.66,-3.471l1.406,-3.42l-1.54,-4.504l-3.066,-1.204l-14.186,1.928" style="fill:#2f2d27;fill-opacity:0.6;"/><path d="M87.618,38.627l-6.055,7.084l4.986,7.768l3.638,9.06l10.672,-6.131l9.274,-1.918l-1.114,-6.607l5.754,-10.843l-7.309,-6.761l-6.822,-1.525l-9.482,5.03l-3.542,4.843Z" style="fill:#918f88;"/><path d="M86.223,44.661l-6.054,7.085l4.986,7.767l3.638,9.061l10.672,-6.132l9.274,-1.918l-1.115,-6.606l5.755,-10.844l-7.309,-6.761l-6.822,-1.525l-9.482,5.03l-3.543,4.843Z" style="fill:#2f2d27;fill-opacity:0.6;"/><path d="M56.402,109.283l-12.645,6.32l-7.08,6.56l-3.393,0.041l-4.211,0.05l0.697,-4.808l0.388,-4.805l5.659,-3.462l2.718,-3.715l4.707,-2.581l11.147,-4.934l1.514,1.778l2.979,6.166l-2.48,3.39Z" style="fill:#918f88;"/><path d="M55.008,115.318l-12.645,6.319l-7.08,6.561l-3.393,0.04l-4.211,0.051l0.697,-4.809l0.388,-4.805l5.659,-3.462l2.718,-3.715l4.707,-2.58l11.147,-4.934l1.514,1.778l2.979,6.165l-2.48,3.391Z" style="fill:#2f2d27;fill-opacity:0.6;"/><path d="M24.395,118.136l-6.055,7.084l4.986,7.768l3.638,9.06l10.672,-6.131l9.274,-1.918l-1.114,-6.607l5.754,-10.843l-7.309,-6.761l-6.822,-1.525l-9.482,5.03l-3.542,4.843Z" style="fill:#918f88;"/><path d="M23,124.17l-6.054,7.085l4.986,7.767l3.638,9.061l10.672,-6.132l9.274,-1.918l-1.115,-6.606l5.755,-10.844l-7.309,-6.761l-6.822,-1.525l-9.482,5.03l-3.543,4.843Z" style="fill:#2f2d27;fill-opacity:0.6;"/><path d="M169.281,30.655l9.043,-1.179l10.909,2.143l-3.078,10.633l-4.703,4.4l-1.045,6.781l-7.308,2.035l-5.822,-7.976l-5.861,-5.818l2.732,-8.193l5.133,-2.826Z" style="fill:#918f88;"/><path d="M167.957,36.705l9.043,-1.179l10.909,2.143l-3.078,10.633l-4.703,4.4l-1.045,6.782l-7.308,2.034l-5.822,-7.976l-5.861,-5.818l2.732,-8.193l5.133,-2.826Z" style="fill:#2f2d27;fill-opacity:0.6;"/><path d="M166.443,45.733l-11.093,7.28l-4.988,12.305l6.194,4.655l6.854,2.239l13.083,-7.51l9.506,-0.225l-0.591,-9.588l-3.026,-4.73l-5.465,-2.576l-10.474,-1.85Z" style="fill:#918f88;"/><path d="M165.119,51.784l-11.093,7.279l-4.988,12.305l6.194,4.655l6.854,2.239l13.083,-7.51l9.506,-0.225l-0.591,-9.588l-3.026,-4.73l-5.465,-2.575l-10.474,-1.85Z" style="fill:#2f2d27;fill-opacity:0.6;"/><path d="M101.587,129.63l9.043,-1.179l10.91,2.143l-3.079,10.633l-4.703,4.4l-1.045,6.782l-7.307,2.034l-5.823,-7.976l-5.861,-5.818l2.733,-8.193l5.132,-2.826Z" style="fill:#918f88;"/><path d="M100.263,135.681l9.043,-1.18l10.91,2.144l-3.079,10.633l-4.703,4.399l-1.045,6.782l-7.307,2.034l-5.823,-7.975l-5.861,-5.819l2.733,-8.193l5.132,-2.825Z" style="fill:#2f2d27;fill-opacity:0.6;"/><path d="M98.75,144.709l-11.094,7.279l-4.987,12.305l6.194,4.655l6.854,2.239l13.083,-7.51l9.506,-0.225l-0.591,-9.588l-3.026,-4.73l-5.465,-2.575l-10.474,-1.85Z" style="fill:#918f88;"/><path d="M97.426,150.759l-11.094,7.279l-4.987,12.305l6.194,4.656l6.854,2.239l13.083,-7.511l9.506,-0.224l-0.591,-9.589l-3.026,-4.73l-5.465,-2.575l-10.474,-1.85Z" style="fill:#2f2d27;fill-opacity:0.6;"/><path d="M138.496,88.027l-13.261,7.176l-6.693,12.518l8.021,1.855l6.962,-0.164l13.87,-9.066l6.626,-1.02l-1.23,-6.54l9.022,-9.518l-0.401,-6.704l-3.857,-1.328l-5.559,2.14l-2.027,2.84l-11.473,7.811" style="fill:#918f88;"/><path d="M137.172,94.077l-13.261,7.177l-6.693,12.517l8.021,1.855l6.962,-0.164l13.87,-9.066l6.626,-1.02l-1.23,-6.54l9.022,-9.518l-0.401,-6.704l-3.857,-1.328l-5.559,2.14l-2.027,2.84l-11.473,7.811" style="fill:#2f2d27;fill-opacity:0.6;"/><path d="M160.577,58.428c-1.554,1.056 -11.038,13.465 -11.038,13.465l-1.228,12.009l11.38,-1.446l3.7,-7.686l6.758,-6.965c0,0 -8.018,-10.432 -9.572,-9.377Z" style="fill:#918f88;"/><path d="M159.253,64.479c-1.554,1.056 -11.038,13.464 -11.038,13.464l-1.228,12.009l11.38,-1.446l3.7,-7.686l6.758,-6.964c0,0 -8.018,-10.433 -9.572,-9.377Z" style="fill:#2f2d27;fill-opacity:0.6;"/><path d="M81.02,160.655c-1.554,1.056 -11.037,13.464 -11.037,13.464l-1.229,12.009l11.381,-1.446l3.699,-7.686l6.758,-6.964c0,0 -8.018,-10.433 -9.572,-9.377Z" style="fill:#918f88;"/><path d="M79.696,166.705c-1.554,1.056 -11.037,13.464 -11.037,13.464l-1.229,12.009l11.381,-1.446l3.699,-7.685l6.758,-6.965c0,0 -8.018,-10.433 -9.572,-9.377Z" style="fill:#2f2d27;fill-opacity:0.6;"/><path d="M64.236,70.629l10.989,3.615l5.786,9.531l-5.511,6.148l-11.432,5.328l-9.899,-2.728l-8.071,-5.226l6.387,-6.897l6.849,-5.966l4.902,-3.805" style="fill:#918f88;"/><path d="M62.842,76.664l10.989,3.614l5.786,9.531l-5.511,6.149l-11.432,5.327l-9.899,-2.727l-8.071,-5.227l6.387,-6.896l6.849,-5.967l4.902,-3.804" style="fill:#2f2d27;fill-opacity:0.6;"/><path d="M20.379,131.885l10.989,3.615l5.785,9.531l-5.511,6.148l-11.432,5.328l-9.898,-2.728l-8.071,-5.226l6.387,-6.897l6.849,-5.966l4.902,-3.805" style="fill:#918f88;"/><path d="M18.985,137.92l10.989,3.614l5.785,9.532l-5.511,6.148l-11.432,5.328l-9.899,-2.728l-8.071,-5.227l6.388,-6.896l6.848,-5.967l4.903,-3.804" style="fill:#2f2d27;fill-opacity:0.6;"/><path d="M54.068,84.531l5.797,2.443l8.614,8.399l-6.056,8.281l-9.448,-0.542l-7.817,-3.456l8.055,-7.802l-0.999,-1.94l0.488,-2.854l1.366,-2.529Z" style="fill:#918f88;"/><path d="M52.674,90.566l5.797,2.442l7.21,7.024l-3.276,3.711l-8.939,-0.287l-5.095,-3.006l3.448,-2.562l-0.999,-1.939l0.488,-2.855l1.366,-2.528Z" style="fill:#2f2d27;fill-opacity:0.6;"/><path d="M123.102,105.651l7.526,2.083l3.034,5.726l-7.257,11.683l-9.503,9.851l-7.024,-4.295l-5.242,-9.894l18.466,-15.154Z" style="fill:#918f88;"/><path d="M121.778,111.702l7.526,2.082l3.034,5.726l-8.762,11.743l-6.468,4.953l-7.54,-5.959l-4.883,-6.025l17.093,-12.52Z" style="fill:#2f2d27;fill-opacity:0.6;"/></g></g></g></svg>