<?xml version="1.0" encoding="UTF-8" standalone="no"?><!DOCTYPE svg PUBLIC "-//W3C//DTD SVG 1.1//EN" "http://www.w3.org/Graphics/SVG/1.1/DTD/svg11.dtd"><svg width="100%" height="100%" viewBox="0 0 323 259" version="1.1" xmlns="http://www.w3.org/2000/svg" xmlns:xlink="http://www.w3.org/1999/xlink" xml:space="preserve" xmlns:serif="http://www.serif.com/" style="fill-rule:evenodd;clip-rule:evenodd;stroke-linejoin:round;stroke-miterlimit:1.41421;"><g id="Grass_Ramp_RightUp_low-angle1"><g><path d="M322.018,54.382l0,96.598l-214.192,107.802l-17.577,-19.757l124.438,-130.977l107.331,-53.666Z" style="fill:#b19772;"/><path d="M311.285,102.681l6.94,8.837l-1.574,15.313l-5.366,8.049l-7.425,-3.712l-3.308,-7.021l0,-10.733l10.733,-10.733" style="fill:#dcc79e;"/><path d="M300.029,83.42l9.359,6.054l-1.525,6.129l-5.367,2.684l-3.943,-1.972l-4.189,-4.695l0.429,-5.581l5.236,-2.619Z" style="fill:#dcc79e;"/><path d="M268.352,105.108l5.367,-5.11l10.733,1.512l1.944,4.827l1.101,8.238l-11.034,10.884l-2.744,-5.391l-5.367,-1.287l-2.362,-10.291l2.362,-3.382" style="fill:#dcc79e;"/><path d="M285.926,131.46l-6.841,5.652l2.278,12.729l8.455,2.99l7.519,1.909l3.215,-3.76l3.401,1.701l5.435,-0.753l1.897,-4.211l-5.367,-4.787l-4.042,-3.345l-7.512,-5.176l-8.438,-2.949Z" style="fill:#dcc79e;"/><path d="M249.397,122.892l-7.878,3.939l-5.366,10.281l2.451,9.727l19.015,4.141l6.893,-7.287l1.478,-7.632l-5.86,-7.803l-10.733,-5.366Z" style="fill:#dcc79e;"/><path d="M225.42,157.944l-8.71,10.148l1.338,6.035l7.372,19.786c0,0 8.247,-5.443 10.733,-5.367c2.486,0.077 7.942,-3.971 7.942,-3.971l-2.576,-9.445l-8.207,-6.63l-7.892,-10.556Z" style="fill:#dcc79e;"/><path d="M273.719,156.239l-10.733,1.199l-10.734,6.959l1.544,7.735l4.409,5.974l7.785,-1.474l5.307,-5.072l4.046,-6.351l-1.624,-8.97" style="fill:#dcc79e;"/><path d="M216.71,125.159l8.71,6.931l10.733,-4.854l5.366,-14.553l-14.73,-3.951l-6.736,5.466l-3.343,10.961" style="fill:#dcc79e;"/><path d="M229.444,160.844l-8.372,9.701l1.286,5.77l7.086,18.914c0,0 7.928,-5.203 10.317,-5.13c2.389,0.073 7.634,-3.796 7.634,-3.796l-2.475,-9.03l-7.89,-6.337l-7.586,-10.092Zm46.427,-1.629l-10.317,1.146l-10.317,6.652l1.483,7.395l4.239,5.711l7.483,-1.41l5.101,-4.848l3.889,-6.072l-1.561,-8.574Zm11.733,-23.689l-6.575,5.404l2.19,12.168l8.127,2.858l7.228,1.825l3.089,-3.594l3.27,1.626l5.224,-0.72l1.823,-4.025l-5.158,-4.577l-3.886,-3.198l-7.221,-4.948l-8.111,-2.819Zm-35.112,-8.191l-7.572,3.766l-5.159,9.829l2.356,9.298l18.278,3.959l6.626,-6.966l1.421,-7.296l-5.633,-7.46l-10.317,-5.13Zm59.488,-19.321l6.671,8.448l-1.512,14.639l-5.159,7.695l-7.137,-3.549l-3.18,-6.712l0,-10.26l10.317,-10.261Zm-90.908,21.489l3.214,-10.479l6.475,-5.225l14.159,3.777l-5.159,13.912l-10.317,4.64l-8.372,-6.625Zm49.64,-19.169l5.159,-4.885l10.317,1.445l1.869,4.615l1.058,7.875l-10.607,10.405l-2.637,-5.153l-5.159,-1.231l-2.27,-9.838l2.27,-3.233Zm30.449,-20.733l8.996,5.788l-1.466,5.859l-5.159,2.565l-3.79,-1.884l-4.027,-4.489l0.413,-5.336l5.033,-2.503Z" style="fill:#bf9e68;fill-opacity:0.7;"/><g><path d="M203.953,156.347l6.941,8.836l-1.574,15.313l-5.367,8.05l-7.424,-3.712l-3.309,-7.021l0,-10.733l10.733,-10.733" style="fill:#dcc79e;"/><path d="M192.698,137.086l9.359,6.054l-1.526,6.129l-5.366,2.683l-3.943,-1.971l-4.189,-4.696l0.429,-5.581l5.236,-2.618Z" style="fill:#dcc79e;"/><path d="M161.021,158.773l5.366,-5.11l10.734,1.512l1.944,4.827l1.101,8.239l-11.034,10.883l-2.745,-5.39l-5.366,-1.288l-2.362,-10.291l2.362,-3.382" style="fill:#dcc79e;"/><path d="M178.594,185.126l-6.84,5.652l2.278,12.729l8.455,2.989l7.519,1.909l3.214,-3.759l3.402,1.701l5.435,-0.753l1.896,-4.211l-5.366,-4.787l-4.042,-3.346l-7.512,-5.175l-8.439,-2.949Z" style="fill:#dcc79e;"/><path d="M142.066,176.557l-7.878,3.939l-5.366,10.282l2.451,9.727l19.015,4.141l6.893,-7.287l1.478,-7.632l-5.86,-7.803l-10.733,-5.367Z" style="fill:#dcc79e;"/><path d="M118.088,211.609l-8.709,10.148l1.338,6.036l7.371,19.785c0,0 8.248,-5.443 10.734,-5.366c2.485,0.076 7.942,-3.971 7.942,-3.971l-2.576,-9.446l-8.207,-6.629l-7.893,-10.557Z" style="fill:#dcc79e;"/><path d="M166.387,209.905l-10.733,1.199l-10.733,6.958l1.544,7.736l4.409,5.974l7.785,-1.474l5.307,-5.072l4.046,-6.352l-1.625,-8.969" style="fill:#dcc79e;"/><path d="M109.379,178.825l8.709,6.93l10.734,-4.853l5.366,-14.554l-14.73,-3.95l-6.736,5.465l-3.343,10.962" style="fill:#dcc79e;"/><path d="M122.113,214.51l-8.372,9.701l1.286,5.77l7.086,18.914c0,0 7.927,-5.203 10.317,-5.13c2.389,0.073 7.634,-3.797 7.634,-3.797l-2.476,-9.029l-7.889,-6.338l-7.586,-10.091Zm46.426,-1.63l-10.317,1.146l-10.317,6.652l1.484,7.395l4.238,5.711l7.483,-1.409l5.101,-4.848l3.89,-6.072l-1.562,-8.575Zm11.734,-23.688l-6.575,5.403l2.189,12.169l8.128,2.857l7.227,1.826l3.09,-3.594l3.27,1.626l5.224,-0.72l1.823,-4.026l-5.159,-4.576l-3.885,-3.198l-7.221,-4.948l-8.111,-2.819Zm-35.112,-8.191l-7.573,3.765l-5.158,9.829l2.356,9.299l18.278,3.959l6.625,-6.966l1.421,-7.296l-5.632,-7.46l-10.317,-5.13Zm59.488,-19.321l6.671,8.447l-1.513,14.639l-5.158,7.696l-7.137,-3.549l-3.18,-6.712l0,-10.261l10.317,-10.26Zm-90.908,21.488l3.213,-10.479l6.475,-5.224l14.159,3.776l-5.158,13.913l-10.317,4.64l-8.372,-6.626Zm49.64,-19.168l5.158,-4.885l10.317,1.445l1.869,4.614l1.058,7.876l-10.606,10.404l-2.638,-5.152l-5.158,-1.231l-2.271,-9.838l2.271,-3.233Zm30.449,-20.733l8.996,5.787l-1.467,5.86l-5.158,2.565l-3.79,-1.885l-4.027,-4.489l0.412,-5.335l5.034,-2.503Z" style="fill:#bf9e68;fill-opacity:0.7;"/></g></g><path d="M322.488,54.147l-5.366,16.472l-5.367,-3.528l-2.029,11.413l-10.187,2.204l-3.883,14.159l-5.367,-6.149l-1.521,9.592l-9.212,-1.723l-3.224,13.308l-6.47,-4.296l-2.074,9.835l-11.477,-0.895l-4.059,12.292l-5.876,-0.452l-3.024,8.897l-6.729,-1.259l-2.86,15.768l-4.046,-4.501l-1.873,-2.083l0.119,6.743l-3.361,-3.451l-1.61,6.171l-7.835,1.097l1.098,10.164l-7.937,-4.159l1.473,10.232l-5.367,-1.155l1.699,6.276l-11.281,-0.066l-1.151,9.453l-7.198,-1.297l-0.961,5.78l-5.367,-2.725l-1.791,8.447l-6.149,-1.994l-2.062,7.828l-5.668,0.471l-0.529,3.905l-5.049,-1.327l-2.792,9.337l-6.367,-3.183l2.405,5.164l-6.771,-0.445l-2.5,7.947l-8.233,0.779l0,7.291l-5.367,-0.827l-2.066,6.39l-4.597,-1.002l1.297,8.675l-8.197,0.142l0.057,5.338l-7.96,9.582l-107.802,-54.136l5.837,-5.612l7.062,-8.609l7.278,-4.186l4.729,-6.706l7.764,-7.931l6.048,-4.264l5.678,-6.917l9.74,-6.344l3.098,-5.928l6.698,-4.036l8.009,-6.119l5.015,-7.568l10.543,-6.625l5.107,-7.016l8.59,-5.199l7.461,-10.77l9.878,-6.783l5.668,-6.986l6.958,-4.007l4.454,-5.477l7.165,-3.528l5.71,-7.562l3.548,-1.774l1.527,-4.501l5.016,-3.187l4.581,-5.871l5.908,-4.242l1.872,-4.105l6.625,-6.959l7.56,-4.976l3.173,-5.757l6.722,-3.361l6.177,-8.455l8.568,-5.236l5.366,-7.097l107.331,53.195Z" style="fill:#56e890;"/><clipPath id="_clip1"><path d="M322.488,54.147l-5.366,16.472l-5.367,-3.528l-2.029,11.413l-10.187,2.204l-3.883,14.159l-5.367,-6.149l-1.521,9.592l-9.212,-1.723l-3.224,13.308l-6.47,-4.296l-2.074,9.835l-11.477,-0.895l-4.059,12.292l-5.876,-0.452l-3.024,8.897l-6.729,-1.259l-2.86,15.768l-4.046,-4.501l-1.873,-2.083l0.119,6.743l-3.361,-3.451l-1.61,6.171l-7.835,1.097l1.098,10.164l-7.937,-4.159l1.473,10.232l-5.367,-1.155l1.699,6.276l-11.281,-0.066l-1.151,9.453l-7.198,-1.297l-0.961,5.78l-5.367,-2.725l-1.791,8.447l-6.149,-1.994l-2.062,7.828l-5.668,0.471l-0.529,3.905l-5.049,-1.327l-2.792,9.337l-6.367,-3.183l2.405,5.164l-6.771,-0.445l-2.5,7.947l-8.233,0.779l0,7.291l-5.367,-0.827l-2.066,6.39l-4.597,-1.002l1.297,8.675l-8.197,0.142l0.057,5.338l-7.96,9.582l-107.802,-54.136l5.837,-5.612l7.062,-8.609l7.278,-4.186l4.729,-6.706l7.764,-7.931l6.048,-4.264l5.678,-6.917l9.74,-6.344l3.098,-5.928l6.698,-4.036l8.009,-6.119l5.015,-7.568l10.543,-6.625l5.107,-7.016l8.59,-5.199l7.461,-10.77l9.878,-6.783l5.668,-6.986l6.958,-4.007l4.454,-5.477l7.165,-3.528l5.71,-7.562l3.548,-1.774l1.527,-4.501l5.016,-3.187l4.581,-5.871l5.908,-4.242l1.872,-4.105l6.625,-6.959l7.56,-4.976l3.173,-5.757l6.722,-3.361l6.177,-8.455l8.568,-5.236l5.366,-7.097l107.331,53.195Z"/></clipPath><g clip-path="url(#_clip1)"><path d="M204.424,175.879l142.424,-119.815l-142.424,-71.212l-222.314,226.937l125.716,52.124l96.598,-88.034Z" style="fill:#93bcc7;fill-opacity:0.15;"/><path d="M317.729,45.401l-5.366,16.471l-5.367,-3.527l-2.029,11.413l-10.187,2.204l-3.883,14.158l-5.367,-6.148l-1.521,9.592l-9.212,-1.723l-3.224,13.308l-6.47,-4.296l-2.074,9.835l-11.477,-0.895l-4.059,12.292l-5.876,-0.453l-3.024,8.898l-6.729,-1.259l-2.86,15.768l-5.919,-6.584l0.119,6.743l-3.361,-3.451l-1.61,6.171l-7.835,1.097l1.098,10.164l-7.937,-4.159l1.473,10.232l-5.367,-1.155l1.699,6.276l-11.281,-0.067l-1.151,9.454l-7.198,-1.297l-0.961,5.78l-5.367,-2.725l-1.791,8.447l-6.149,-1.994l-2.062,7.828l-5.668,0.471l-0.529,3.904l-5.049,-1.326l-2.792,9.337l-6.367,-3.183l2.405,5.164l-6.771,-0.445l-2.5,7.947l-8.233,0.779l0,7.291l-5.367,-0.827l-2.066,6.39l-4.597,-1.002l1.297,8.675l-8.197,0.142l0.057,5.338l-10.097,19.011l-118.535,-50.483l228.003,-216.776l107.331,53.195Z" style="fill:#42e17a;fill-opacity:0.25;"/></g></g></svg>