<?xml version="1.0" encoding="UTF-8" standalone="no"?><!DOCTYPE svg PUBLIC "-//W3C//DTD SVG 1.1//EN" "http://www.w3.org/Graphics/SVG/1.1/DTD/svg11.dtd"><svg width="100%" height="100%" viewBox="0 0 326 163" version="1.1" xmlns="http://www.w3.org/2000/svg" xmlns:xlink="http://www.w3.org/1999/xlink" xml:space="preserve" xmlns:serif="http://www.serif.com/" style="fill-rule:evenodd;clip-rule:evenodd;stroke-linecap:round;stroke-linejoin:round;stroke-miterlimit:1.5;"><g id="Grass_Ramp_RightDown_low-angle1"><g><path d="M0.884,54.737l214.662,107.332l0,-96.599l-214.662,-10.733Z" style="fill:#685632;"/><clipPath id="_clip1"><path d="M0.884,54.737l214.662,107.332l0,-96.599l-214.662,-10.733Z"/></clipPath><g clip-path="url(#_clip1)"><path d="M27.418,57.57l-9.359,6.054l1.526,6.129l5.366,2.683l3.943,-1.971l4.189,-4.696l-0.429,-5.581l-5.236,-2.618Z" style="fill:#816b40;stroke:#000;stroke-width:1px;"/></g><path d="M98.541,61.289l8.709,10.148l-1.338,6.036l-7.371,19.785c0,0 -8.248,-5.443 -10.733,-5.367c-2.486,0.077 -7.943,-3.971 -7.943,-3.971l2.576,-9.445l8.208,-6.629l7.892,-10.557Z" style="fill:#816b40;"/><path d="M50.242,59.585l10.733,1.199l10.733,6.958l-1.544,7.735l-4.409,5.975l-7.785,-1.475l-5.306,-5.071l-4.047,-6.352l1.625,-8.969" style="fill:#816b40;"/><path d="M94.516,64.189l8.372,9.701l-1.286,5.77l-7.086,18.915c0,0 -7.927,-5.204 -10.317,-5.131c-2.389,0.074 -7.634,-3.796 -7.634,-3.796l2.476,-9.029l7.889,-6.338l7.586,-10.092Zm-46.426,-1.629l10.317,1.146l5.581,3.599l4.736,3.053l-1.484,7.395l-4.238,5.711l-7.483,-1.409l-5.101,-4.848l-3.89,-6.072l1.562,-8.575Zm-28.376,1.593l8.975,4.487l2.537,-2.992l-0.283,-3.024l-5.556,-1.498l-5.673,3.027Z" style="fill:#311807;fill-opacity:0.5;"/><g><path d="M120.007,59.692l-6.94,8.837l1.573,15.313l5.367,8.049l7.425,-3.712l3.308,-7.021l0,-10.733l-10.733,-10.733" style="fill:#816b40;"/><path d="M162.94,62.119l-5.367,-5.11l-10.733,1.512l-1.945,4.827l-1.1,8.238l11.034,10.884l2.744,-5.391l5.367,-1.287l2.362,-10.291l-2.362,-3.382" style="fill:#816b40;"/><path d="M145.366,88.471l6.84,5.652l-2.278,12.729l-8.455,2.99l-7.519,1.909l-3.214,-3.76l-3.402,1.701l-5.435,-0.753l-1.896,-4.211l5.367,-4.787l4.042,-3.345l7.512,-5.176l8.438,-2.949Z" style="fill:#816b40;"/><path d="M181.895,79.903l7.877,3.939l5.367,10.281l-2.451,9.727l-19.015,4.141l-6.893,-7.287l-1.478,-7.632l5.86,-7.803l10.733,-5.366Z" style="fill:#816b40;"/><path d="M205.872,114.955l8.71,10.148l-1.338,6.035l-7.372,19.786c0,0 -8.247,-5.443 -10.733,-5.367c-2.486,0.077 -7.942,-3.971 -7.942,-3.971l2.575,-9.445l8.208,-6.63l7.892,-10.556Z" style="fill:#816b40;"/><path d="M157.573,113.25l10.733,1.199l10.733,6.959l-1.543,7.735l-4.41,5.974l-7.784,-1.474l-5.307,-5.072l-4.046,-6.351l1.624,-8.97" style="fill:#816b40;"/><path d="M214.582,82.17l-8.71,6.931l-10.733,-4.854l-5.367,-14.553l14.73,-3.951l6.737,5.466l3.343,10.961" style="fill:#816b40;"/><path d="M201.848,117.855l8.372,9.701l-1.287,5.77l-7.085,18.914c0,0 -7.928,-5.203 -10.317,-5.13c-2.39,0.073 -7.635,-3.796 -7.635,-3.796l2.476,-9.03l7.889,-6.337l7.587,-10.092Zm-46.427,-1.629l10.317,1.146l10.317,6.652l-1.484,7.395l-4.238,5.711l-7.483,-1.41l-5.101,-4.848l-3.889,-6.072l1.561,-8.574Zm-11.734,-23.689l6.576,5.404l-2.19,12.168l-8.127,2.858l-7.228,1.825l-3.089,-3.594l-3.27,1.626l-5.224,-0.72l-1.823,-4.025l5.158,-4.577l3.885,-3.198l7.221,-4.948l8.111,-2.819Zm35.113,-8.191l7.572,3.766l5.159,9.829l-2.357,9.298l-18.277,3.959l-6.626,-6.966l-1.421,-7.296l5.633,-7.46l10.317,-5.13Zm-59.488,-19.321l-6.672,8.448l1.513,14.639l5.159,7.695l7.136,-3.549l3.181,-6.712l0,-10.26l-10.317,-10.261Zm90.908,21.489l-3.214,-10.479l-6.475,-5.225l-14.159,3.777l5.159,13.912l10.317,4.64l8.372,-6.625Zm-49.64,-19.169l-5.159,-4.885l-10.317,1.445l-1.869,4.615l-1.058,7.875l10.606,10.405l2.638,-5.153l5.159,-1.231l2.27,-9.838l-2.27,-3.233Z" style="fill:#311807;fill-opacity:0.5;"/></g></g><path d="M215.546,65.47l0,96.599l107.332,-53.666l0,-96.598l-107.332,53.665Z" style="fill:#b19772;"/><clipPath id="_clip2"><path d="M215.546,65.47l0,96.599l107.332,-53.666l0,-96.598l-107.332,53.665Z"/></clipPath><g clip-path="url(#_clip2)"><path d="M233.016,131.867l-11.734,-4.08l0.235,-16.22l6.989,-11.582l11.749,-1.319l5.987,4.725l1.504,10.628l-14.73,17.848" style="fill:#dcc79e;"/><path d="M237.338,148.215l-17.273,-3.671l1.819,-6.447l9.043,-3.989l7.196,0.973l8.01,3.609l0.029,5.632l-8.824,3.893Z" style="fill:#dcc79e;"/><path d="M274.279,123.888l-4.777,5.836l-11.198,0.058l-2.667,-4.498l-2.28,-7.998l9.77,-12.374l3.563,4.94l5.674,0.497l3.859,9.848l-1.944,3.691" style="fill:#dcc79e;"/><path d="M249.19,98.02l6.21,-6.587l-4.115,-12.273l-9.073,-1.736l-7.964,-0.801l-2.763,4.188l-3.721,-1.192l-5.457,1.532l-1.351,4.444l6.163,3.963l4.606,2.727l8.414,4.037l9.051,1.698Z" style="fill:#dcc79e;"/><path d="M288.34,108.965l4.294,-4.586l1.862,-10.647l-2.871,-9.418l-12.278,-2.445l-3.22,7.815l0.16,7.685l4.698,7.216l7.355,4.38Z" style="fill:#dcc79e;"/><path d="M307.414,63.037l7.493,-11.309l-2.215,-5.783l-10.316,-18.523c0,0 -7.68,6.584 -10.235,6.868c-2.555,0.284 -7.574,5.082 -7.574,5.082l3.96,8.979l9.33,5.376l9.557,9.31Z" style="fill:#dcc79e;"/><path d="M262.124,77.08l10.819,-2.742l10.012,-8.444l-2.664,-7.435l-5.35,-5.277l-7.762,2.587l-4.722,5.79l-3.252,6.875l2.919,8.646" style="fill:#dcc79e;"/><path d="M318.888,82.994l-8.581,-9.593l-7.679,8.655l-1.217,22.864l12.833,4.344l4.296,-9.13l0.348,-17.14" style="fill:#dcc79e;"/><path d="M241.328,148.658l-17.273,-3.67l1.819,-6.448l9.043,-3.989l7.195,0.973l8.011,3.609l0.029,5.633l-8.824,3.892Zm-4.322,-16.347l14.73,-17.849l-1.504,-10.627l-5.987,-4.726l-11.749,1.32l-6.989,11.581l-0.235,16.221l11.734,4.08Zm41.263,-7.98l1.944,-3.691l-3.859,-9.847l-5.674,-0.498l-3.563,-4.94l-9.77,12.374l2.28,7.998l2.667,4.498l11.198,-0.057l4.777,-5.837Zm44.609,-40.894l-8.581,-9.592l-7.679,8.654l-1.217,22.864l12.833,4.344l4.296,-9.129l0.348,-17.141Zm-30.548,25.971l4.294,-4.585l1.862,-10.648l-2.871,-9.417l-12.278,-2.446l-3.22,7.815l0.16,7.685l4.698,7.217l7.355,4.379Zm-39.15,-10.944l6.21,-6.587l-4.115,-12.274l-9.073,-1.735l-7.964,-0.802l-2.763,4.188l-3.721,-1.192l-5.457,1.533l-1.352,4.444l6.164,3.963l4.606,2.727l8.414,4.037l9.051,1.698Zm12.934,-20.941l10.819,-2.741l10.011,-8.444l-2.663,-7.436l-5.35,-5.277l-7.762,2.587l-4.722,5.79l-3.252,6.875l2.919,8.646Zm45.29,-14.043l7.493,-11.309l-2.215,-5.782l-10.317,-18.523c0,0 -7.679,6.583 -10.234,6.868c-2.555,0.284 -7.574,5.082 -7.574,5.082l3.96,8.979l9.33,5.375l9.557,9.31Z" style="fill:#bf9e68;fill-opacity:0.7;"/></g><path d="M0.884,54.737l5.366,1.529l9.06,1.991l10.161,-1.959l5.64,1.734l1.972,3.529l3.524,-3.219l3.602,3.565l4.773,-2.386l5.019,2.857l6.867,-3.433l3.295,3.719l5.12,-2.56l7.184,6.426l2.52,-3.375l3.408,3.505l1.189,2.393l3.742,-5.294l4.429,6.692l11.863,-6.049l1.544,9.961l3.561,-9.327l2.161,5.135l7.786,-3.718l8.533,4.124l7.519,-5.627l9.692,4.107l8.632,-7.903l9.461,6.003l9.963,-3.758l4.144,2.071l5.366,-1.179l2.938,5.332l7.796,-4.64l5.366,2.29l6.731,-2.022l6.501,2.874l8.234,2.712l2.76,1.38l2.607,-6.204l3.999,2.231l1.367,-8.14l7.075,3.537l5.908,-7.779l8.484,4.242l5.366,-10.949l4.027,3.468l5.292,-5.229l6.781,1.977l5.367,-8.05l3.756,1.878l5.531,-9.949l6.812,0.021l3.966,-7.349l8.036,1.348l6.978,-0.609l2.486,-8.111l6.961,0.508l3.773,-1.887l2.544,-4.094l-2.544,-2.863l-5.344,1.324l-4.912,-1.4l-5.844,0.658l-9.547,1.135l-11.114,-4.215l-12.435,3.048l-9.837,-2.569l-16.099,1.002l-18.383,-2.895l-15.648,3.133l-15.769,-4.208l-12.346,1.49l-9.255,-2.309l-11.279,1.346l-8.552,-1.999l-10.733,0l-5.367,-1.801l-2.316,1.269l-9.338,-1.691l-10.583,0.808l-6.069,-1.459l-3.893,0.191l-107.331,53.665Z" style="fill:#56e890;"/><path d="M16.984,51.227l4.792,1.177l8.09,1.515l9.072,-1.664l5.037,1.34l1.761,2.812l3.146,-2.614l3.217,2.827l4.262,-1.957l4.482,2.245l6.131,-2.816l2.942,2.953l4.572,-2.1l6.415,5.088l2.25,-2.729l3.044,2.78l1.061,1.908l3.342,-4.28l3.955,5.327l10.593,-4.959l1.379,7.975l3.179,-7.513l1.93,4.099l6.953,-3.053l7.619,3.229l6.714,-4.581l8.655,3.206l7.707,-6.417l8.448,4.728l8.897,-3.105l3.7,1.624l4.792,-0.994l2.623,4.249l6.961,-3.792l4.792,1.787l6.011,-1.682l5.804,2.245l7.353,2.1l2.464,1.082l2.328,-5l3.571,1.753l1.221,-6.54l6.317,2.772l5.276,-6.293l7.576,3.325l4.792,-8.83l3.596,2.745l4.725,-4.242l6.055,1.524l4.792,-6.505l3.354,1.472l4.939,-8.03l6.083,-0.045l3.541,-5.93l7.176,1.008l6.231,-0.552l2.22,-6.528l6.215,0.344l3.369,-1.547l2.272,-3.307l-2.272,-2.273l-4.771,1.11l-4.386,-1.078l-5.219,0.582l-8.525,0.997l-9.924,-3.279l-11.103,2.557l-8.784,-1.971l-14.376,0.95l-16.416,-2.154l-13.972,2.655l-14.08,-3.231l-11.025,1.307l-8.264,-1.767l-10.072,1.182l-7.636,-1.526l-9.584,0.098l-4.792,-1.395l-2.068,1.039l-8.339,-1.271l-9.45,0.744l-5.42,-1.116l-3.476,0.189l-95.84,44.017Z" style="fill:#42e17a;fill-opacity:0.35;"/></g></svg>