<?xml version="1.0" encoding="UTF-8" standalone="no"?><!DOCTYPE svg PUBLIC "-//W3C//DTD SVG 1.1//EN" "http://www.w3.org/Graphics/SVG/1.1/DTD/svg11.dtd"><svg width="100%" height="100%" viewBox="0 0 97 178" version="1.1" xmlns="http://www.w3.org/2000/svg" xmlns:xlink="http://www.w3.org/1999/xlink" xml:space="preserve" xmlns:serif="http://www.serif.com/" style="fill-rule:evenodd;clip-rule:evenodd;stroke-linejoin:round;stroke-miterlimit:1.41421;"><g id="Ladder04"><path d="M21.497,5.618c2.114,6.543 5.89,7.687 10.733,5.367c5.961,4.019 9.009,0.94 10.733,-5.367c-1.213,-4.23 -5.537,-5.249 -10.733,-5.367c-5.627,-0.038 -9.363,1.61 -10.733,5.367Z" style="fill:#96aa61;"/><path d="M42.963,5.618l-21.466,139.531c-0.43,2.515 -3.281,4.471 -10.734,5.366l1.601,-32.999l14.62,-72.432c-1.566,-8.995 1.922,-21.606 5.246,-34.099c6.034,1.287 8.747,-1.585 10.733,-5.367Z" style="fill:#86b376;"/><path d="M21.497,5.618l-10.734,96.598l-10.733,42.933c1.393,3.269 5.345,4.804 10.733,5.366c1.61,-15.814 6.43,-47.561 8.587,-53.316c0.292,-0.773 0.502,-1.575 0.626,-2.393c1.118,-7.36 5.727,-38.035 7.268,-51.416c0.506,-11.369 2.267,-23.879 4.986,-32.405c-4.647,-0.319 -8.823,-1.285 -10.733,-5.367Z" style="fill:#5c8a70;"/><path d="M42.874,32.495c4.088,-0.532 8.111,0.02 10.822,-0.044c15.54,7.22 14.681,4.12 28.41,10.887l-7.023,3.35c-14.444,-4.17 -18.094,-3.897 -32.209,-14.193Z" style="fill:#96aa61;"/><path d="M78.144,56.81l7.751,-15.449l-7.751,6.858c-16.09,-5.988 -20.801,-6.3 -35.27,-15.724c2.033,4.4 4.943,7.422 5.455,8.284l29.815,16.031Z" style="fill:#5c8a70;"/><path d="M28.141,50.873c0.768,-2.673 2.878,-3.904 6.666,-3.333c17.134,5.654 14.986,7.595 27.22,15.909l2.402,4.178c-11.514,-7.959 -19.151,-10.453 -36.288,-16.754Z" style="fill:#96aa61;"/><path d="M55.244,72.037l6.503,1.537l2.682,-5.947c-13.669,-9.46 -19.223,-11.046 -36.288,-16.754c-0.966,2.306 -1.331,4.888 -1.278,7.664c17.176,6.483 13.807,4.354 28.381,13.5Z" style="fill:#5c8a70;"/><path d="M24.352,76.811c1.778,-2.905 4.024,-3.92 6.666,-3.333c27.129,16.052 41.752,23.342 43.211,21.41l-7.024,3.35l-16.659,-5.18l-26.194,-16.247Z" style="fill:#96aa61;"/><path d="M70.267,108.36l7.751,-15.449l-7.751,6.857c-15.052,-5.252 -30.394,-13.255 -45.915,-22.957c-0.069,4.644 -0.222,7.441 0.928,8.4l44.987,23.149Z" style="fill:#5c8a70;"/><path d="M20.563,103.103c1.316,-1.854 3.358,-3.113 6.666,-3.333l15.734,15.546l27.477,5.864l-7.024,3.35c-7.219,-2.234 -16.044,-1.023 -22.701,-4.25c-7.725,-3.743 -13.184,-12.097 -20.152,-17.177Z" style="fill:#96aa61;"/><path d="M67.116,131.885l7.113,-12.682l-7.751,6.858c-8.781,-3.261 -26.023,-6.491 -26.023,-6.491c0,0 -13.345,-12.128 -19.892,-16.467c-1.139,2.147 -2.094,4.399 -1.278,7.664l19.707,12.906l28.124,8.212Z" style="fill:#5c8a70;"/><path d="M75.162,32.451c0.582,3.481 3.424,5.685 10.733,5.366c3.7,1.279 7.306,0.198 10.733,-5.366c-1.698,-2.111 -5.659,-3.834 -10.733,-5.367c-5.716,-0.76 -8.881,1.521 -10.733,5.367Z" style="fill:#96aa61;"/><path d="M96.628,32.451l-11.993,58.402l-9.473,81.128c-0.708,3.466 -4.025,5.334 -10.733,5.367l-1.958,-15.121c4.953,-47.185 9.987,-94.206 23.424,-124.41c5.32,0.01 8.634,-2.051 10.733,-5.366Z" style="fill:#86b376;"/><path d="M75.162,32.451l-21.466,139.53c2.711,4.331 6.087,5.232 10.733,5.367c-0.493,-7.009 0.877,-17.196 4.913,-31.932c4.88,-19.243 7.461,-40.1 9.442,-61.377c0.611,-17.395 3.58,-32.126 7.111,-46.222c-4.55,0.001 -8.097,-1.843 -10.733,-5.366Z" style="fill:#5c8a70;"/></g></svg>