<?xml version="1.0" encoding="UTF-8" standalone="no"?><!DOCTYPE svg PUBLIC "-//W3C//DTD SVG 1.1//EN" "http://www.w3.org/Graphics/SVG/1.1/DTD/svg11.dtd"><svg width="100%" height="100%" viewBox="0 0 216 172" version="1.1" xmlns="http://www.w3.org/2000/svg" xmlns:xlink="http://www.w3.org/1999/xlink" xml:space="preserve" xmlns:serif="http://www.serif.com/" style="fill-rule:evenodd;clip-rule:evenodd;stroke-linejoin:round;stroke-miterlimit:1.41421;"><g id="Sand_Block_Half01"><path d="M215.361,53.663l0,64.398l-107.331,53.666l0,-64.399l107.331,-53.665Z" style="fill:#80e1e0;"/><clipPath id="_clip1"><path d="M215.361,53.663l0,64.398l-107.331,53.666l0,-64.399l107.331,-53.665Z"/></clipPath><g clip-path="url(#_clip1)"><path d="M215.361,96.595c0,0 -32.023,3.078 -45.85,22.925c-13.828,19.848 -36.003,29.261 -61.481,30.741c-25.477,1.479 -65.459,-69.042 -107.331,-53.666c-41.872,15.377 -13.212,68.526 -13.212,68.526l160.009,19.072l73.232,-47.349l-5.367,-40.249Z" style="fill:#559eb0;"/></g><path d="M0.699,53.663l107.331,53.665l0,64.399l-107.331,-53.666l0,-64.398Z" style="fill:#559eb0;"/><clipPath id="_clip2"><path d="M0.699,53.663l107.331,53.665l0,64.399l-107.331,-53.666l0,-64.398Z"/></clipPath><g clip-path="url(#_clip2)"><path d="M215.361,96.595c0,0 -32.023,3.078 -45.85,22.925c-13.828,19.848 -36.003,29.261 -61.481,30.741c-25.477,1.479 -65.459,-69.042 -107.331,-53.666c-41.872,15.377 -13.212,68.526 -13.212,68.526l160.009,19.072l73.232,-47.349l-5.367,-40.249Z" style="fill:#478fa2;"/></g><path d="M215.361,53.663l-107.331,53.665l-107.331,-53.665l107.331,-53.666l107.331,53.666Z" style="fill:#64b8c7;"/></g></svg>