<?xml version="1.0" encoding="UTF-8" standalone="no"?><!DOCTYPE svg PUBLIC "-//W3C//DTD SVG 1.1//EN" "http://www.w3.org/Graphics/SVG/1.1/DTD/svg11.dtd"><svg width="100%" height="100%" viewBox="0 0 215 205" version="1.1" xmlns="http://www.w3.org/2000/svg" xmlns:xlink="http://www.w3.org/1999/xlink" xml:space="preserve" xmlns:serif="http://www.serif.com/" style="fill-rule:evenodd;clip-rule:evenodd;stroke-linejoin:round;stroke-miterlimit:1.41421;"><g id="Sand_Ramp_LeftUp_high-angle1"><path d="M0.294,54.239l0,96.598l107.331,53.666l-107.331,-150.264Z" style="fill:#559eb0;"/><clipPath id="_clip1"><path d="M0.294,54.239l0,96.598l107.331,53.666l-107.331,-150.264Z"/></clipPath><g clip-path="url(#_clip1)"><path d="M0.294,129.371c0,0 31.637,3.353 45.851,22.925c9.913,13.65 61.555,48.96 61.48,52.207c-0.588,25.513 65.46,-90.509 107.332,-75.132c41.871,15.376 13.211,68.526 13.211,68.526l-160.009,19.072l-73.232,-47.349l5.367,-40.249Z" style="fill:#478fa2;"/></g><path d="M0.294,54.239l107.331,150.264l107.332,-53.666l-107.332,-150.264l-107.331,53.666Z" style="fill:#80e1e0;"/></g></svg>