<?xml version="1.0" encoding="UTF-8" standalone="no"?><!DOCTYPE svg PUBLIC "-//W3C//DTD SVG 1.1//EN" "http://www.w3.org/Graphics/SVG/1.1/DTD/svg11.dtd"><svg width="100%" height="100%" viewBox="0 0 215 205" version="1.1" xmlns="http://www.w3.org/2000/svg" xmlns:xlink="http://www.w3.org/1999/xlink" xml:space="preserve" xmlns:serif="http://www.serif.com/" style="fill-rule:evenodd;clip-rule:evenodd;stroke-linejoin:round;stroke-miterlimit:1.41421;"><g id="Sand_Ramp_RightUp_high-angle1"><path d="M214.828,54.358l0,96.599l-107.331,53.665l107.331,-150.264Z" style="fill:#80e1e0;"/><clipPath id="_clip1"><path d="M214.828,54.358l0,96.599l-107.331,53.665l107.331,-150.264Z"/></clipPath><g clip-path="url(#_clip1)"><path d="M214.828,129.49c0,0 -31.636,3.353 -45.85,22.926c-9.913,13.649 -61.556,48.959 -61.481,52.206c0.588,25.514 -65.459,-90.508 -107.331,-75.132c-41.872,15.377 -13.212,68.526 -13.212,68.526l160.009,19.073l73.232,-47.349l-5.367,-40.25Z" style="fill:#559eb0;"/></g><path d="M214.828,54.358l-107.331,150.264l-107.331,-53.665l107.331,-150.264l107.331,53.665Z" style="fill:#64b8c7;"/></g></svg>