<?xml version="1.0" encoding="UTF-8" standalone="no"?><!DOCTYPE svg PUBLIC "-//W3C//DTD SVG 1.1//EN" "http://www.w3.org/Graphics/SVG/1.1/DTD/svg11.dtd"><svg width="100%" height="100%" viewBox="0 0 289 249" version="1.1" xmlns="http://www.w3.org/2000/svg" xmlns:xlink="http://www.w3.org/1999/xlink" xml:space="preserve" xmlns:serif="http://www.serif.com/" style="fill-rule:evenodd;clip-rule:evenodd;stroke-linejoin:round;stroke-miterlimit:1.41421;"><g id="Way_Ramp_Up_low1"><g id="Way_Ramp_Up_low2"><g><path d="M26.799,55.434l0.075,-9.126l7.589,-3.14l6.782,6.749l7.62,4.239l6.676,8.476l-4.916,14.15l-9.602,0.149l-9.552,-5.858l-4.672,-15.639Z" style="fill:#bdb097;"/><path d="M25.446,60.486l0.075,-9.126l7.588,-3.14l6.783,6.749l7.62,4.239l6.676,8.475l-4.917,14.151l-9.601,0.148l-9.552,-5.858l-4.672,-15.638Z" style="fill:#685435;fill-opacity:0.6;"/><path d="M33.007,44.074l-3.835,10.914l-9.646,5.591l-6.036,-5.634l-5.096,-11.537l2.927,-9.842l5.389,-7.963l6.766,6.525l5.826,6.968l3.705,4.978" style="fill:#bdb097;"/><path d="M31.654,49.125l-3.836,10.914l-9.646,5.592l-6.036,-5.634l-5.095,-11.537l2.926,-9.842l5.389,-7.964l6.766,6.525l5.827,6.968l3.705,4.978" style="fill:#685435;fill-opacity:0.6;"/><path d="M19.314,33.627l-2.56,5.746l-8.571,8.443l-8.157,-6.222l0.733,-9.435l3.613,-7.746l7.638,8.211l1.959,-0.96l2.844,0.546l2.501,1.417Z" style="fill:#bdb097;"/><path d="M17.96,38.678l-2.559,5.747l-7.168,7.067l-3.644,-3.35l0.467,-8.932l3.108,-5.033l2.492,3.499l1.96,-0.96l2.844,0.545l2.5,1.417Z" style="fill:#685435;fill-opacity:0.6;"/><path d="M76.819,103.318l-6.063,-12.77l-6.417,-7.21l0.028,-3.394l0.035,-4.211l4.793,0.794l4.797,0.485l3.347,5.728l3.659,2.792l2.485,4.759l4.708,11.243l-1.808,1.478l-6.225,2.855l-3.339,-2.549Z" style="fill:#bdb097;"/><path d="M75.465,108.37l-6.063,-12.77l-6.416,-7.21l0.028,-3.394l0.034,-4.211l4.794,0.794l4.796,0.485l3.347,5.728l3.66,2.792l2.484,4.758l4.708,11.244l-1.808,1.478l-6.224,2.854l-3.34,-2.548Z" style="fill:#685435;fill-opacity:0.6;"/><path d="M99.644,97.901l-3.88,-9.657l-7.288,-1.984l-7.345,-0.191l-1.129,5.432l3.512,9.647l3.091,9.973l1.946,7.607l3.543,-3.589l3.391,1.474l4.534,-1.448l1.266,-3.041l-1.641,-14.223" style="fill:#bdb097;"/><path d="M98.291,102.953l-3.881,-9.658l-7.288,-1.984l-7.344,-0.19l-1.13,5.432l3.513,9.646l3.09,9.974l1.946,7.607l3.544,-3.589l3.391,1.474l4.534,-1.449l1.266,-3.04l-1.641,-14.223" style="fill:#685435;fill-opacity:0.6;"/><path d="M64.531,68.096l-6.961,-6.196l-7.866,4.828l-9.132,3.454l5.915,10.794l1.73,9.311l6.628,-0.981l10.725,5.972l6.907,-7.171l1.663,-6.79l-4.838,-9.582l-4.771,-3.639Z" style="fill:#bdb097;"/><path d="M63.178,73.148l-6.961,-6.196l-7.866,4.828l-9.133,3.454l5.915,10.794l1.73,9.311l6.628,-0.981l10.726,5.972l6.907,-7.171l1.662,-6.79l-4.838,-9.582l-4.77,-3.639Z" style="fill:#685435;fill-opacity:0.6;"/><path d="M165.893,167.088l0.386,9.112l-3.087,10.681l-10.324,-3.994l-3.973,-5.069l-6.664,-1.633l-1.389,-7.457l8.453,-5.105l6.307,-5.331l7.924,3.437l2.367,5.359Z" style="fill:#bdb097;"/><path d="M164.261,172.057l0.386,9.112l-3.087,10.681l-10.324,-3.995l-3.973,-5.069l-6.664,-1.632l-1.389,-7.457l8.453,-5.105l6.307,-5.331l7.924,3.437l2.367,5.359Z" style="fill:#685435;fill-opacity:0.6;"/><path d="M156.219,159.355l-6.284,-11.686l-11.824,-6.042l-5.177,5.764l-2.829,6.632l6.341,13.689l-0.606,9.489l9.604,0.248l4.976,-2.602l3.042,-5.22l2.757,-10.272Z" style="fill:#bdb097;"/><path d="M154.587,164.323l-6.284,-11.686l-11.823,-6.042l-5.178,5.765l-2.829,6.632l6.341,13.689l-0.606,9.489l9.604,0.248l4.976,-2.602l3.042,-5.22l2.757,-10.273Z" style="fill:#685435;fill-opacity:0.6;"/><path d="M219.335,221.636l-2.731,7.316l-5.969,2.523l-11.005,-8.249l-8.985,-10.325l4.891,-6.623l10.314,-4.359l13.485,19.717Z" style="fill:#bdb097;"/><path d="M217.703,226.605l-2.731,7.316l-5.969,2.523l-10.933,-9.753l-4.371,-6.875l6.595,-6.992l6.427,-4.338l10.982,18.119Z" style="fill:#685435;fill-opacity:0.6;"/><path d="M232.992,223.921l0.386,9.112l-3.087,10.681l-10.324,-3.995l-3.972,-5.069l-6.665,-1.632l-1.389,-7.457l8.453,-5.105l6.308,-5.331l7.923,3.437l2.367,5.359Z" style="fill:#bdb097;"/><path d="M231.36,228.89l0.386,9.111l-3.087,10.681l-10.324,-3.994l-3.972,-5.069l-6.665,-1.632l-1.389,-7.457l8.453,-5.105l6.308,-5.331l7.923,3.436l2.367,5.36Z" style="fill:#685435;fill-opacity:0.6;"/><path d="M204.118,204.551l-6.284,-11.686l-11.824,-6.042l-5.177,5.764l-2.829,6.633l6.341,13.688l-0.606,9.49l9.604,0.248l4.976,-2.603l3.042,-5.219l2.757,-10.273Z" style="fill:#bdb097;"/><path d="M202.486,209.52l-6.284,-11.686l-11.824,-6.042l-5.177,5.764l-2.829,6.633l6.341,13.688l-0.606,9.489l9.604,0.248l4.976,-2.602l3.042,-5.219l2.757,-10.273Z" style="fill:#685435;fill-opacity:0.6;"/><path d="M112.126,124.668l-5.992,-13.836l-11.886,-7.76l-2.548,7.829l-0.443,6.95l7.821,14.608l0.439,6.689l6.621,-0.654l8.695,9.817l6.714,0.186l1.66,-3.727l-1.648,-5.724l-2.652,-2.267l-6.781,-12.111" style="fill:#bdb097;"/><path d="M110.494,129.637l-5.992,-13.836l-11.885,-7.76l-2.548,7.829l-0.444,6.95l7.821,14.607l0.439,6.69l6.621,-0.655l8.695,9.818l6.714,0.185l1.66,-3.726l-1.648,-5.725l-2.652,-2.266l-6.781,-12.111" style="fill:#685435;fill-opacity:0.6;"/><path d="M139.686,149.247c-0.916,-1.641 -12.45,-12.17 -12.45,-12.17l-11.856,-2.272l0.447,11.464l7.334,4.356l6.349,7.339c0,0 11.092,-7.077 10.176,-8.717Z" style="fill:#bdb097;"/><path d="M138.054,154.215c-0.916,-1.64 -12.45,-12.17 -12.45,-12.17l-11.856,-2.271l0.447,11.463l7.334,4.356l6.349,7.34c0,0 11.092,-7.078 10.176,-8.718Z" style="fill:#685435;fill-opacity:0.6;"/><path d="M184.908,193.937l-2.731,7.316l-5.969,2.523l-11.005,-8.249l-8.984,-10.326l4.89,-6.622l10.314,-4.359l13.485,19.717Z" style="fill:#bdb097;"/><path d="M183.277,198.906l-2.732,7.316l-5.968,2.523l-10.934,-9.754l-4.371,-6.874l6.595,-6.992l6.428,-4.339l10.982,18.12Z" style="fill:#685435;fill-opacity:0.6;"/></g><g><path d="M154.75,72.383l0.386,9.112l-3.087,10.681l-10.324,-3.995l-3.973,-5.069l-6.664,-1.632l-1.39,-7.457l8.454,-5.105l6.307,-5.331l7.924,3.437l2.367,5.359Z" style="fill:#bdb097;"/><path d="M153.118,77.352l0.386,9.111l-3.087,10.681l-10.324,-3.994l-3.973,-5.069l-6.664,-1.632l-1.389,-7.457l8.453,-5.105l6.307,-5.331l7.924,3.436l2.367,5.36Z" style="fill:#685435;fill-opacity:0.6;"/><path d="M142.389,61.255l-6.284,-11.685l-11.823,-6.043l-5.178,5.765l-2.828,6.632l6.341,13.689l-0.606,9.489l9.603,0.248l4.976,-2.602l3.042,-5.22l2.757,-10.273Z" style="fill:#bdb097;"/><path d="M140.757,66.224l-6.284,-11.686l-11.823,-6.042l-5.178,5.764l-2.828,6.633l6.341,13.688l-0.606,9.489l9.604,0.249l4.975,-2.603l3.042,-5.219l2.757,-10.273Z" style="fill:#685435;fill-opacity:0.6;"/><path d="M102.678,30.802l-5.992,-13.837l-11.886,-7.759l-2.548,7.829l-0.443,6.949l7.821,14.608l0.439,6.69l6.621,-0.655l8.695,9.818l6.714,0.185l1.659,-3.726l-1.647,-5.725l-2.652,-2.267l-6.781,-12.11" style="fill:#bdb097;"/><path d="M101.046,35.77l-5.992,-13.836l-11.886,-7.76l-2.548,7.829l-0.443,6.95l7.821,14.608l0.439,6.689l6.621,-0.654l8.695,9.818l6.714,0.185l1.66,-3.727l-1.648,-5.724l-2.652,-2.267l-6.781,-12.111" style="fill:#685435;fill-opacity:0.6;"/><path d="M127.842,61.29c-0.917,-1.64 -12.45,-12.17 -12.45,-12.17l-11.857,-2.272l0.448,11.464l7.334,4.356l6.349,7.339c0,0 11.092,-7.077 10.176,-8.717Z" style="fill:#bdb097;"/><path d="M126.21,66.258c-0.916,-1.64 -12.45,-12.169 -12.45,-12.169l-11.856,-2.272l0.447,11.463l7.334,4.357l6.349,7.339c0,0 11.092,-7.078 10.176,-8.718Z" style="fill:#685435;fill-opacity:0.6;"/><path d="M84.068,19.838l-2.731,7.316l-5.969,2.523l-11.005,-8.249l-8.985,-10.326l4.891,-6.622l10.314,-4.359l13.485,19.717Z" style="fill:#bdb097;"/><path d="M82.436,24.807l-2.731,7.316l-5.969,2.523l-10.933,-9.754l-4.371,-6.874l6.595,-6.992l6.427,-4.339l10.982,18.12Z" style="fill:#685435;fill-opacity:0.6;"/><path d="M181.732,99.184l0.386,9.112l-3.087,10.681l-10.324,-3.995l-3.973,-5.069l-6.664,-1.632l-1.39,-7.457l8.454,-5.105l6.307,-5.331l7.924,3.437l2.367,5.359Z" style="fill:#bdb097;"/><path d="M180.1,104.153l0.386,9.111l-3.087,10.681l-10.324,-3.994l-3.973,-5.069l-6.664,-1.632l-1.389,-7.457l8.453,-5.105l6.307,-5.331l7.924,3.436l2.367,5.36Z" style="fill:#685435;fill-opacity:0.6;"/><path d="M172.058,91.45l-6.284,-11.686l-11.824,-6.042l-5.177,5.765l-2.829,6.632l6.341,13.689l-0.606,9.489l9.604,0.248l4.976,-2.602l3.042,-5.22l2.757,-10.273Z" style="fill:#bdb097;"/><path d="M170.426,96.419l-6.284,-11.686l-11.824,-6.042l-5.177,5.764l-2.829,6.633l6.341,13.688l-0.606,9.489l9.604,0.249l4.976,-2.603l3.042,-5.219l2.757,-10.273Z" style="fill:#685435;fill-opacity:0.6;"/><path d="M259.999,185.948l-2.731,7.316l-5.969,2.523l-11.005,-8.249l-8.985,-10.326l4.891,-6.622l10.314,-4.36l13.485,19.718Z" style="fill:#bdb097;"/><path d="M258.367,190.917l-2.731,7.316l-5.969,2.523l-10.933,-9.754l-4.371,-6.874l6.595,-6.992l6.427,-4.339l10.982,18.12Z" style="fill:#685435;fill-opacity:0.6;"/><path d="M288.411,200.536l0.386,9.111l-3.087,10.681l-10.324,-3.994l-3.973,-5.069l-6.664,-1.632l-1.389,-7.457l8.453,-5.105l6.307,-5.331l7.924,3.437l2.367,5.359Z" style="fill:#bdb097;"/><path d="M286.779,205.505l0.386,9.111l-3.087,10.681l-10.324,-3.994l-3.973,-5.069l-6.664,-1.632l-1.389,-7.458l8.453,-5.104l6.307,-5.331l7.924,3.436l2.367,5.36Z" style="fill:#685435;fill-opacity:0.6;"/><path d="M278.737,192.802l-6.284,-11.686l-11.824,-6.042l-5.177,5.764l-2.829,6.633l6.341,13.688l-0.606,9.49l9.604,0.248l4.976,-2.603l3.042,-5.219l2.757,-10.273Z" style="fill:#bdb097;"/><path d="M277.105,197.771l-6.284,-11.686l-11.823,-6.042l-5.178,5.764l-2.828,6.633l6.34,13.688l-0.606,9.489l9.604,0.248l4.976,-2.602l3.042,-5.219l2.757,-10.273Z" style="fill:#685435;fill-opacity:0.6;"/><path d="M216.961,142.906l-5.992,-13.836l-11.886,-7.76l-2.547,7.829l-0.444,6.95l7.821,14.608l0.439,6.689l6.621,-0.654l8.695,9.817l6.714,0.186l1.66,-3.727l-1.648,-5.724l-2.652,-2.267l-6.781,-12.111" style="fill:#bdb097;"/><path d="M215.329,147.875l-5.992,-13.836l-11.885,-7.76l-2.548,7.829l-0.444,6.949l7.821,14.608l0.439,6.69l6.622,-0.655l8.694,9.818l6.714,0.185l1.66,-3.726l-1.648,-5.725l-2.652,-2.266l-6.781,-12.111" style="fill:#685435;fill-opacity:0.6;"/><path d="M244.521,167.484c-0.916,-1.64 -12.45,-12.169 -12.45,-12.169l-11.856,-2.272l0.447,11.463l7.334,4.357l6.349,7.339c0,0 11.092,-7.077 10.176,-8.718Z" style="fill:#bdb097;"/><path d="M242.889,172.453c-0.916,-1.64 -12.45,-12.17 -12.45,-12.17l-11.856,-2.271l0.447,11.463l7.334,4.356l6.349,7.34c0,0 11.092,-7.078 10.176,-8.718Z" style="fill:#685435;fill-opacity:0.6;"/><path d="M200.747,126.033l-2.731,7.316l-5.969,2.523l-11.005,-8.249l-8.984,-10.326l4.89,-6.622l10.314,-4.36l13.485,19.718Z" style="fill:#bdb097;"/><path d="M199.115,131.002l-2.731,7.316l-5.969,2.523l-10.933,-9.754l-4.371,-6.874l6.595,-6.992l6.428,-4.339l10.981,18.12Z" style="fill:#685435;fill-opacity:0.6;"/></g></g></g></svg>