<?xml version="1.0" encoding="UTF-8" standalone="no"?><!DOCTYPE svg PUBLIC "-//W3C//DTD SVG 1.1//EN" "http://www.w3.org/Graphics/SVG/1.1/DTD/svg11.dtd"><svg width="100%" height="100%" viewBox="0 0 215 204" version="1.1" xmlns="http://www.w3.org/2000/svg" xmlns:xlink="http://www.w3.org/1999/xlink" xml:space="preserve" xmlns:serif="http://www.serif.com/" style="fill-rule:evenodd;clip-rule:evenodd;stroke-linecap:round;stroke-linejoin:round;stroke-miterlimit:1.5;"><g id="Grass_Ramp_LeftUp_high-angle1"><path d="M107.638,107.342l0,96.598l-107.332,-53.666l0,-96.598l107.332,53.666Z" style="fill:#4c646e;"/><clipPath id="_clip1"><path d="M107.638,107.342l0,96.598l-107.332,-53.666l0,-96.598l107.332,53.666Z"/></clipPath><g clip-path="url(#_clip1)"><path d="M90.168,173.739l11.734,-4.08l-0.235,-16.221l-6.989,-11.581l-11.749,-1.32l-5.987,4.726l-1.504,10.627l14.73,17.849" style="fill:#556176;stroke:#000;stroke-width:1px;"/><path d="M85.846,190.086l17.273,-3.67l-1.819,-6.448l-9.043,-3.989l-7.195,0.973l-8.011,3.609l-0.029,5.633l8.824,3.892Z" style="fill:#556176;"/><path d="M48.905,165.759l4.777,5.837l11.198,0.057l2.667,-4.498l2.28,-7.998l-9.77,-12.374l-3.563,4.94l-5.674,0.498l-3.859,9.847l1.944,3.691" style="fill:#556176;"/><path d="M73.994,139.892l-6.21,-6.587l4.115,-12.274l9.073,-1.735l7.964,-0.802l2.763,4.188l3.721,-1.192l5.457,1.533l1.352,4.444l-6.164,3.962l-4.606,2.728l-8.414,4.037l-9.051,1.698Z" style="fill:#556176;stroke:#000;stroke-width:1px;"/><path d="M34.844,150.836l-4.294,-4.585l-1.862,-10.648l2.871,-9.417l12.278,-2.446l3.22,7.815l-0.16,7.685l-4.698,7.217l-7.355,4.379Z" style="fill:#556176;"/><path d="M15.77,104.908l-7.493,-11.309l2.215,-5.782l10.317,-18.523c0,0 7.679,6.583 10.234,6.867c2.555,0.285 7.574,5.083 7.574,5.083l-3.96,8.979l-9.33,5.375l-9.557,9.31Z" style="fill:#556176;"/><path d="M61.06,118.951l-10.819,-2.742l-10.011,-8.443l2.663,-7.436l5.35,-5.277l7.762,2.587l4.722,5.79l3.252,6.875l-2.919,8.646" style="fill:#816b40;stroke:#000;stroke-width:1px;"/><path d="M4.296,124.865l8.581,-9.592l7.679,8.654l1.217,22.864l-12.833,4.344l-4.296,-9.129l-0.348,-17.141" style="fill:#556176;"/><path d="M81.856,190.53l17.273,-3.671l-1.819,-6.448l-9.043,-3.989l-7.195,0.973l-8.011,3.61l-0.029,5.632l8.824,3.893Zm4.322,-16.348l-14.73,-17.849l1.504,-10.627l5.987,-4.726l11.749,1.32l6.989,11.581l0.235,16.221l-11.734,4.08Zm-41.263,-7.98l-1.944,-3.69l3.859,-9.848l5.674,-0.498l3.563,-4.939l9.77,12.374l-2.28,7.997l-2.667,4.498l-11.198,-0.057l-4.777,-5.837Zm-44.609,-40.893l8.581,-9.593l7.679,8.654l1.217,22.864l-12.833,4.345l-4.295,-9.13l-0.349,-17.14Zm30.548,25.971l-4.294,-4.586l-1.862,-10.647l2.871,-9.418l12.278,-2.445l3.22,7.814l-0.16,7.686l-4.698,7.216l-7.355,4.38Zm39.15,-10.945l-6.21,-6.587l4.115,-12.273l9.073,-1.736l7.964,-0.802l2.763,4.188l3.721,-1.191l5.457,1.532l1.352,4.444l-6.164,3.963l-4.606,2.727l-8.414,4.037l-9.051,1.698Zm-12.934,-20.941l-10.819,-2.741l-10.011,-8.444l2.663,-7.435l5.35,-5.277l7.762,2.587l4.722,5.789l3.252,6.875l-2.919,8.646Zm-45.289,-14.042l-7.494,-11.31l2.215,-5.782l10.317,-18.523c0,0 7.679,6.584 10.234,6.868c2.555,0.284 7.574,5.082 7.574,5.082l-3.96,8.979l-9.329,5.376l-9.557,9.31Z" style="fill:#311807;fill-opacity:0.5;"/></g><path d="M0.306,53.676l5.367,18.783l5.367,-2.683l0,10.733l6.141,-3.071l-0.775,21.854l5.367,-8.05l0,10.733l5.366,-4.525l-3.149,8.783l8.516,1.109l1.668,6.2l3.698,-4.643l1.35,11.184l4.017,-2.008l0.969,10.248l4.397,-2.198l0,9.878l3.858,-8.509l0,12.802l6.876,-1.44l-2.309,8.763l5.18,-3.959l1.241,13.624l3.889,-6.817l2.732,10.494l5.366,-1.24l1.99,8.944l2.084,-0.254l1.293,15.026l5.366,-6.33l4.298,10.645l4.757,0.927l3.155,7.671l9.257,7.59l107.331,-53.666l-6.465,-7.5l-3.648,-8.289l-7.412,-5.221l-2.908,-7.476l-6.4,-6.396l-4.061,-10.51l-8.084,-8.06l-3.955,-9.636l-7.297,-7.407l-3.436,-7.577l-4.428,-3.259l-6.305,-8.378l-3.24,-8.509l-7.493,-6.649l-2.675,-6.493l-5.954,-3.407l-6.066,-12.049l-6.771,-5.561l-2.496,-6.608l-1.979,-2.783l-3.12,-1.56l-3.138,-6.936l-107.332,53.666Z" style="fill:#56bce8;"/><clipPath id="_clip2"><path d="M0.306,53.676l5.367,18.783l5.367,-2.683l0,10.733l6.141,-3.071l-0.775,21.854l5.367,-8.05l0,10.733l5.366,-4.525l-3.149,8.783l8.516,1.109l1.668,6.2l3.698,-4.643l1.35,11.184l4.017,-2.008l0.969,10.248l4.397,-2.198l0,9.878l3.858,-8.509l0,12.802l6.876,-1.44l-2.309,8.763l5.18,-3.959l1.241,13.624l3.889,-6.817l2.732,10.494l5.366,-1.24l1.99,8.944l2.084,-0.254l1.293,15.026l5.366,-6.33l4.298,10.645l4.757,0.927l3.155,7.671l9.257,7.59l107.331,-53.666l-6.465,-7.5l-3.648,-8.289l-7.412,-5.221l-2.908,-7.476l-6.4,-6.396l-4.061,-10.51l-8.084,-8.06l-3.955,-9.636l-7.297,-7.407l-3.436,-7.577l-4.428,-3.259l-6.305,-8.378l-3.24,-8.509l-7.493,-6.649l-2.675,-6.493l-5.954,-3.407l-6.066,-12.049l-6.771,-5.561l-2.496,-6.608l-1.979,-2.783l-3.12,-1.56l-3.138,-6.936l-107.332,53.666Z"/></clipPath><g clip-path="url(#_clip2)"><path d="M0.306,107.342l-24.521,-52.138l131.853,-65.927l125.245,168.14l-146.712,57.256l-85.865,-107.331Z" style="fill:#febc3b;fill-opacity:0.15;"/><path d="M103.238,-2.765l4.4,15.4l5.366,-2.684l0,10.734l6.142,-3.071l-0.775,21.854l5.366,-8.05l0,10.733l5.367,-4.525l-3.149,8.782l8.515,1.109l1.668,6.201l3.699,-4.643l1.35,11.184l4.017,-2.009l0.969,10.249l4.397,-2.199l0,9.879l3.857,-8.509l0,12.802l6.876,-1.44l-2.309,8.762l5.181,-3.958l1.241,13.624l3.889,-6.817l2.731,10.494l5.367,-1.24l1.99,8.943l2.084,-0.254l1.293,15.027l5.366,-6.33l4.297,10.645l4.758,0.927l3.155,7.671l3.89,19.115l17.19,-8.051l3.593,5.209l-116.381,54.507l-3.89,-19.115l-3.155,-7.67l-4.758,-0.928l-4.297,-10.645l-5.367,6.33l-1.292,-15.026l-2.084,0.254l-1.99,-8.944l-5.367,1.24l-2.731,-10.493l-3.889,6.817l-1.241,-13.625l-5.181,3.959l2.309,-8.763l-6.876,1.44l0,-12.802l-3.857,8.51l0,-9.879l-4.398,2.199l-0.969,-10.249l-4.017,2.009l-1.349,-11.185l-3.699,4.644l-1.668,-6.201l-8.515,-1.109l3.149,-8.783l-5.367,4.525l0,-10.733l-5.366,8.05l0.775,-21.854l-6.142,3.071l0,-10.733l-5.366,2.683l-5.367,-18.783l96.565,-48.282Z" style="fill:#49b190;fill-opacity:0.35;"/></g></g></svg>