<?xml version="1.0" encoding="UTF-8" standalone="no"?><!DOCTYPE svg PUBLIC "-//W3C//DTD SVG 1.1//EN" "http://www.w3.org/Graphics/SVG/1.1/DTD/svg11.dtd"><svg width="100%" height="100%" viewBox="0 0 217 153" version="1.1" xmlns="http://www.w3.org/2000/svg" xmlns:xlink="http://www.w3.org/1999/xlink" xml:space="preserve" xmlns:serif="http://www.serif.com/" style="fill-rule:evenodd;clip-rule:evenodd;stroke-linejoin:round;stroke-miterlimit:1.41421;"><g id="Grass_Ramp_RightDown_high-angle1"><path d="M107.555,55.689l0,96.598l107.331,-53.666l0,-96.598l-107.331,53.666Z" style="fill:#7d9fa2;"/><clipPath id="_clip1"><path d="M107.555,55.689l0,96.598l107.331,-53.666l0,-96.598l-107.331,53.666Z"/></clipPath><g clip-path="url(#_clip1)"><path d="M125.024,122.086l-11.734,-4.08l0.235,-16.221l6.989,-11.581l11.749,-1.32l5.988,4.725l1.503,10.628l-14.73,17.849" style="fill:#61abb8;"/><path d="M129.346,138.433l-17.273,-3.67l1.819,-6.448l9.043,-3.989l7.196,0.973l8.01,3.609l0.029,5.633l-8.824,3.892Z" style="fill:#61abb8;"/><path d="M166.287,114.106l-4.777,5.836l-11.198,0.058l-2.667,-4.498l-2.28,-7.998l9.77,-12.374l3.564,4.94l5.673,0.498l3.859,9.847l-1.944,3.691" style="fill:#61abb8;"/><path d="M141.198,88.238l6.21,-6.586l-4.114,-12.274l-9.074,-1.736l-7.964,-0.801l-2.763,4.188l-3.72,-1.192l-5.458,1.532l-1.351,4.444l6.163,3.963l4.606,2.728l8.415,4.036l9.05,1.698Z" style="fill:#61abb8;"/><path d="M180.348,99.183l4.295,-4.586l1.861,-10.647l-2.87,-9.418l-12.278,-2.445l-3.22,7.815l0.159,7.685l4.698,7.216l7.355,4.38Z" style="fill:#61abb8;"/><path d="M199.422,53.255l7.493,-11.309l-2.214,-5.782l-10.317,-18.524c0,0 -7.68,6.584 -10.235,6.868c-2.555,0.284 -7.573,5.082 -7.573,5.082l3.959,8.98l9.33,5.375l9.557,9.31Z" style="fill:#61abb8;"/><path d="M154.133,67.298l10.818,-2.742l10.012,-8.443l-2.664,-7.436l-5.35,-5.277l-7.762,2.587l-4.721,5.79l-3.252,6.875l2.919,8.646" style="fill:#61abb8;"/><path d="M210.896,73.212l-8.581,-9.593l-7.678,8.655l-1.217,22.864l12.832,4.344l4.296,-9.129l0.348,-17.141" style="fill:#61abb8;"/><path d="M133.336,138.877l-17.273,-3.671l1.819,-6.448l9.043,-3.989l7.196,0.973l8.01,3.61l0.029,5.632l-8.824,3.893Zm-4.322,-16.348l14.73,-17.849l-1.503,-10.627l-5.988,-4.726l-11.749,1.32l-6.989,11.581l-0.235,16.221l11.734,4.08Zm41.263,-7.98l1.944,-3.691l-3.859,-9.847l-5.673,-0.498l-3.564,-4.94l-9.77,12.374l2.28,7.998l2.667,4.498l11.198,-0.057l4.777,-5.837Zm44.609,-40.894l-8.581,-9.592l-7.678,8.654l-1.217,22.864l12.832,4.344l4.296,-9.129l0.348,-17.141Zm-30.548,25.971l4.295,-4.585l1.861,-10.648l-2.87,-9.417l-12.278,-2.446l-3.22,7.815l0.114,5.504l0.045,2.182l4.698,7.216l7.355,4.379Zm-39.15,-10.944l6.21,-6.587l-4.114,-12.274l-9.074,-1.735l-7.964,-0.802l-2.763,4.188l-3.72,-1.191l-5.458,1.532l-1.351,4.444l6.163,3.963l4.606,2.727l8.415,4.037l9.05,1.698Zm12.935,-20.941l10.818,-2.741l10.012,-8.444l-2.664,-7.436l-5.35,-5.277l-7.762,2.587l-4.721,5.79l-3.252,6.875l2.919,8.646Zm45.289,-14.043l7.493,-11.309l-2.214,-5.782l-10.317,-18.523c0,0 -7.68,6.583 -10.235,6.868c-2.555,0.284 -7.573,5.082 -7.573,5.082l3.959,8.979l9.33,5.376l9.557,9.309Z" style="fill:#658074;fill-opacity:0.7;"/></g><path d="M0.223,98.621l107.332,53.666l0,-96.598l-107.332,42.932Z" style="fill:#4c646e;"/><path d="M215.992,4.093l-2.213,5.597l-4.26,-2.994l-3.416,5.085l-5.114,-2.81l-2.203,8.789l-5.366,-2.603l-1.676,7.494l-6.988,-0.197l-5.01,-2.861l-2.426,8.841l-12.75,2.096l-7.157,7.155l-8.542,-2.655l-2.532,13.218l-9.279,0.727l-1.21,4.762l-8.33,-4.166l-3.866,3.434l-10.733,2.113l-3.296,4.902l-4.802,-0.331l-2.635,-1.317l-5.366,2.683l-9.204,0.765l-5.856,7.805l-8.918,0.908l-8.222,4.111l-14.177,8.154l-7.289,-0.277l-5.367,4.227l-19.908,6.638l-10.934,4.426l-6.724,1.325l0,-1.846l107.332,-52.336l26.832,-9.998l34.857,-15.48l18.809,-6.549l18.955,-9.477l5.367,-2.684l3.973,0.525l-0.356,2.801" style="fill:#56bce8;"/><path d="M36.315,79.101l6.841,5.652l-2.278,12.729l-8.455,2.989l-7.519,1.91l-3.214,-3.76l-3.402,1.701l-5.435,-0.753l-1.896,-4.211l5.366,-4.787l4.042,-3.345l7.512,-5.176l8.438,-2.949Z" style="fill:#556176;"/><path d="M72.844,70.533l7.878,3.938l5.366,10.282l-2.451,9.727l-19.015,4.141l-6.893,-7.287l-1.478,-7.632l5.86,-7.803l10.733,-5.366Z" style="fill:#556176;"/><path d="M96.822,105.585l8.709,10.148l-1.338,6.035l-7.371,19.786c0,0 -8.248,-5.444 -10.734,-5.367c-2.485,0.076 -7.942,-3.971 -7.942,-3.971l2.576,-9.445l8.207,-6.63l7.893,-10.556Z" style="fill:#556176;"/><path d="M48.522,103.88l10.734,1.199l10.733,6.958l-1.544,7.736l-4.409,5.974l-7.785,-1.474l-5.307,-5.072l-4.046,-6.351l1.624,-8.97" style="fill:#556176;"/><path d="M103.86,75.102l-8.71,6.93l-10.733,-4.853l-5.367,-14.554l14.73,-3.95l6.737,5.465l3.343,10.962" style="fill:#556176;"/><path d="M92.797,108.485l8.372,9.701l-1.286,5.77l-7.086,18.914c0,0 -7.927,-5.203 -10.317,-5.13c-2.389,0.073 -7.634,-3.796 -7.634,-3.796l2.476,-9.03l7.889,-6.337l7.586,-10.092Zm-46.426,-1.63l10.317,1.147l10.317,6.652l-1.484,7.394l-4.239,5.712l-7.482,-1.41l-5.101,-4.848l-3.89,-6.072l1.562,-8.575Zm-11.734,-23.688l6.575,5.403l-2.19,12.169l-8.127,2.858l-7.227,1.825l-3.09,-3.594l-3.27,1.626l-5.224,-0.72l-1.823,-4.025l5.159,-4.577l3.885,-3.198l7.221,-4.948l8.111,-2.819Zm35.112,-8.191l7.573,3.765l5.158,9.829l-2.356,9.299l-18.278,3.959l-6.626,-6.966l-1.42,-7.296l5.632,-7.46l10.317,-5.13Zm31.42,2.168l-3.213,-10.479l-6.475,-5.225l-14.159,3.776l5.158,13.913l10.317,4.64l8.372,-6.625Z" style="fill:#311807;fill-opacity:0.5;"/></g></svg>