<?xml version="1.0" encoding="UTF-8" standalone="no"?><!DOCTYPE svg PUBLIC "-//W3C//DTD SVG 1.1//EN" "http://www.w3.org/Graphics/SVG/1.1/DTD/svg11.dtd"><svg width="100%" height="100%" viewBox="0 0 324 259" version="1.1" xmlns="http://www.w3.org/2000/svg" xmlns:xlink="http://www.w3.org/1999/xlink" xml:space="preserve" xmlns:serif="http://www.serif.com/" style="fill-rule:evenodd;clip-rule:evenodd;stroke-linejoin:round;stroke-miterlimit:1.41421;"><g id="Grass_Ramp_LeftUp_low-angle3"><g id="Grass_Ramp_LeftUp_low-angle1"><path d="M108.094,107.047l107.331,150.97l-214.662,-108.037l0,-96.598l107.331,53.665Z" style="fill:#4c646e;"/><clipPath id="_clip1"><path d="M108.094,107.047l107.331,150.97l-214.662,-108.037l0,-96.598l107.331,53.665Z"/></clipPath><g clip-path="url(#_clip1)"><path d="M90.624,173.444l11.734,-4.08l-0.235,-16.22l-6.989,-11.582l-11.749,-1.319l-5.987,4.725l-1.503,10.627l14.729,17.849" style="fill:#556176;"/><path d="M86.302,189.792l17.273,-3.671l-1.819,-6.447l-9.043,-3.989l-7.195,0.973l-8.01,3.609l-0.029,5.632l8.823,3.893Z" style="fill:#556176;"/><path d="M49.361,165.465l4.778,5.836l11.198,0.058l2.666,-4.498l2.28,-7.998l-9.769,-12.374l-3.564,4.939l-5.674,0.498l-3.859,9.848l1.944,3.691" style="fill:#556176;"/><path d="M74.451,139.597l-6.211,-6.587l4.115,-12.273l9.073,-1.736l7.964,-0.801l2.763,4.188l3.721,-1.192l5.457,1.532l1.352,4.444l-6.164,3.963l-4.606,2.727l-8.414,4.037l-9.05,1.698Z" style="fill:#556176;"/><path d="M35.3,150.542l-4.294,-4.586l-1.862,-10.647l2.871,-9.418l12.278,-2.445l3.22,7.815l-0.16,7.685l-4.698,7.216l-7.355,4.38Z" style="fill:#556176;"/><path d="M16.227,104.614l-7.494,-11.309l2.215,-5.783l10.317,-18.523c0,0 7.679,6.584 10.234,6.868c2.556,0.284 7.574,5.082 7.574,5.082l-3.96,8.979l-9.329,5.376l-9.557,9.31Z" style="fill:#556176;"/><path d="M61.516,118.657l-10.819,-2.742l-10.011,-8.444l2.663,-7.435l5.35,-5.277l7.762,2.587l4.722,5.79l3.252,6.875l-2.919,8.646" style="fill:#556176;"/><path d="M4.753,124.571l8.581,-9.593l7.678,8.655l1.217,22.864l-12.832,4.344l-4.296,-9.13l-0.348,-17.14" style="fill:#556176;"/><path d="M82.312,190.235l17.273,-3.67l-1.819,-6.448l-9.042,-3.989l-7.196,0.973l-8.01,3.609l-0.029,5.633l8.823,3.892Zm4.322,-16.347l-14.729,-17.849l1.503,-10.627l5.987,-4.726l11.749,1.32l6.989,11.581l0.236,16.221l-11.735,4.08Zm-41.263,-7.98l-1.944,-3.691l3.859,-9.847l5.674,-0.498l3.564,-4.94l9.77,12.374l-2.281,7.998l-2.666,4.498l-11.198,-0.057l-4.778,-5.837Zm-44.608,-40.894l8.581,-9.592l7.678,8.654l1.217,22.864l-12.832,4.344l-4.296,-9.129l-0.348,-17.141Zm30.547,25.971l-4.294,-4.585l-1.862,-10.648l2.871,-9.417l12.278,-2.446l3.22,7.815l-0.16,7.685l-4.698,7.217l-7.355,4.379Zm39.151,-10.944l-6.211,-6.587l4.115,-12.274l9.073,-1.735l7.964,-0.802l2.763,4.188l3.721,-1.192l5.457,1.533l1.352,4.444l-6.164,3.963l-4.606,2.727l-8.414,4.037l-9.05,1.698Zm-12.935,-20.941l-10.818,-2.741l-10.012,-8.444l2.663,-7.436l5.35,-5.277l7.762,2.587l4.722,5.79l3.252,6.875l-2.919,8.646Zm-45.289,-14.043l-7.494,-11.309l2.215,-5.782l10.317,-18.523c0,0 7.679,6.583 10.234,6.868c2.556,0.284 7.574,5.082 7.574,5.082l-3.96,8.979l-9.329,5.375l-9.557,9.31Z" style="fill:#311807;fill-opacity:0.5;"/><path d="M193.589,227.61l11.735,-4.08l-0.236,-16.22l-6.989,-11.582l-11.749,-1.32l-5.987,4.726l-1.503,10.627l14.729,17.849" style="fill:#556176;"/><path d="M189.267,243.958l17.273,-3.671l-1.819,-6.447l-9.042,-3.99l-7.196,0.973l-8.01,3.61l-0.029,5.632l8.823,3.893Z" style="fill:#556176;"/><path d="M152.326,219.63l4.778,5.837l11.198,0.057l2.666,-4.498l2.281,-7.997l-9.77,-12.374l-3.564,4.939l-5.674,0.498l-3.859,9.848l1.944,3.69" style="fill:#556176;"/><path d="M177.416,193.763l-6.21,-6.587l4.114,-12.273l9.073,-1.736l7.964,-0.801l2.764,4.187l3.72,-1.191l5.457,1.532l1.352,4.444l-6.164,3.963l-4.606,2.727l-8.414,4.037l-9.05,1.698Z" style="fill:#556176;"/><path d="M138.266,204.708l-4.295,-4.586l-1.862,-10.647l2.871,-9.418l12.278,-2.445l3.22,7.814l-0.16,7.686l-4.698,7.216l-7.354,4.38Z" style="fill:#556176;"/><path d="M119.192,158.78l-7.494,-11.309l2.215,-5.783l10.317,-18.523c0,0 7.679,6.584 10.234,6.868c2.556,0.284 7.574,5.082 7.574,5.082l-3.96,8.979l-9.329,5.376l-9.557,9.31Z" style="fill:#816b40;"/><path d="M164.481,172.822l-10.818,-2.741l-10.012,-8.444l2.663,-7.435l5.351,-5.277l7.761,2.587l4.722,5.79l3.252,6.875l-2.919,8.645" style="fill:#816b40;"/><path d="M107.718,178.737l8.581,-9.593l7.678,8.655l1.217,22.863l-12.832,4.345l-4.296,-9.13l-0.348,-17.14" style="fill:#556176;"/><path d="M185.277,244.401l17.273,-3.67l-1.819,-6.448l-9.042,-3.989l-7.196,0.973l-8.01,3.609l-0.029,5.633l8.823,3.892Zm4.322,-16.347l-14.729,-17.849l1.503,-10.628l5.987,-4.725l11.749,1.32l6.989,11.581l0.236,16.221l-11.735,4.08Zm-41.263,-7.98l-1.944,-3.691l3.859,-9.847l5.674,-0.498l3.564,-4.94l9.77,12.374l-2.281,7.998l-2.666,4.498l-11.198,-0.057l-4.778,-5.837Zm-44.608,-40.894l8.581,-9.592l7.678,8.654l1.217,22.864l-12.832,4.344l-4.296,-9.129l-0.348,-17.141Zm30.548,25.971l-4.295,-4.585l-1.861,-10.648l2.87,-9.418l12.278,-2.445l3.22,7.815l-0.16,7.685l-4.698,7.217l-7.354,4.379Zm39.15,-10.944l-6.21,-6.587l4.114,-12.274l9.073,-1.735l7.964,-0.802l2.764,4.188l3.72,-1.192l5.458,1.532l1.351,4.445l-6.164,3.962l-4.606,2.728l-8.414,4.037l-9.05,1.698Zm-12.935,-20.941l-10.818,-2.742l-10.012,-8.443l2.663,-7.436l5.351,-5.277l7.761,2.587l4.722,5.79l3.252,6.875l-2.919,8.646Zm-45.289,-14.043l-7.494,-11.309l2.215,-5.782l10.317,-18.523c0,0 7.679,6.583 10.235,6.867c2.555,0.285 7.573,5.082 7.573,5.082l-3.96,8.98l-9.329,5.375l-9.557,9.31Z" style="fill:#311807;fill-opacity:0.5;"/></g><path d="M0.763,53.382l5.366,16.472l5.367,-3.528l2.029,11.413l10.187,2.204l3.883,14.159l5.367,-6.149l1.521,9.592l9.212,-1.723l3.224,13.308l6.47,-4.296l2.074,9.835l11.477,-0.895l4.059,12.292l5.876,-0.452l3.024,8.897l6.729,-1.259l2.86,15.768l5.919,-6.584l-0.119,6.743l3.361,-3.451l1.61,6.171l7.835,1.098l-1.098,10.163l7.937,-4.159l-1.473,10.232l5.367,-1.155l-1.699,6.276l11.281,-0.066l1.151,9.453l7.198,-1.297l0.961,5.78l5.367,-2.725l1.791,8.447l6.149,-1.994l2.062,7.828l5.668,0.471l0.53,3.905l5.048,-1.327l2.792,9.337l6.367,-3.183l-2.405,5.164l6.771,-0.445l2.5,7.947l8.233,0.779l0,7.291l5.367,-0.827l2.066,6.39l4.597,-1.002l-1.297,8.675l8.197,0.142l-0.057,5.338l7.96,9.582l107.802,-54.136l-5.837,-5.612l-7.062,-8.609l-7.278,-4.186l-4.729,-6.706l-7.764,-7.931l-6.048,-4.264l-5.678,-6.917l-9.74,-6.344l-3.098,-5.928l-6.698,-4.036l-8.009,-6.119l-5.015,-7.568l-10.543,-6.625l-5.107,-7.016l-8.59,-5.199l-7.461,-10.77l-9.878,-6.783l-5.668,-6.986l-6.958,-4.007l-4.454,-5.477l-7.165,-3.528l-5.71,-7.562l-3.548,-1.774l-1.527,-4.501l-5.016,-3.187l-4.581,-5.871l-5.908,-4.242l-1.872,-4.105l-6.625,-6.959l-7.56,-4.976l-3.173,-5.757l-6.722,-3.361l-6.177,-8.455l-8.568,-5.236l-5.366,-7.097l-107.331,53.195Z" style="fill:#56bce8;"/><clipPath id="_clip2"><path d="M0.763,53.382l5.366,16.472l5.367,-3.528l2.029,11.413l10.187,2.204l3.883,14.159l5.367,-6.149l1.521,9.592l9.212,-1.723l3.224,13.308l6.47,-4.296l2.074,9.835l11.477,-0.895l4.059,12.292l5.876,-0.452l3.024,8.897l6.729,-1.259l2.86,15.768l5.919,-6.584l-0.119,6.743l3.361,-3.451l1.61,6.171l7.835,1.098l-1.098,10.163l7.937,-4.159l-1.473,10.232l5.367,-1.155l-1.699,6.276l11.281,-0.066l1.151,9.453l7.198,-1.297l0.961,5.78l5.367,-2.725l1.791,8.447l6.149,-1.994l2.062,7.828l5.668,0.471l0.53,3.905l5.048,-1.327l2.792,9.337l6.367,-3.183l-2.405,5.164l6.771,-0.445l2.5,7.947l8.233,0.779l0,7.291l5.367,-0.827l2.066,6.39l4.597,-1.002l-1.297,8.675l8.197,0.142l-0.057,5.338l7.96,9.582l107.802,-54.136l-5.837,-5.612l-7.062,-8.609l-7.278,-4.186l-4.729,-6.706l-7.764,-7.931l-6.048,-4.264l-5.678,-6.917l-9.74,-6.344l-3.098,-5.928l-6.698,-4.036l-8.009,-6.119l-5.015,-7.568l-10.543,-6.625l-5.107,-7.016l-8.59,-5.199l-7.461,-10.77l-9.878,-6.783l-5.668,-6.986l-6.958,-4.007l-4.454,-5.477l-7.165,-3.528l-5.71,-7.562l-3.548,-1.774l-1.527,-4.501l-5.016,-3.187l-4.581,-5.871l-5.908,-4.242l-1.872,-4.105l-6.625,-6.959l-7.56,-4.976l-3.173,-5.757l-6.722,-3.361l-6.177,-8.455l-8.568,-5.236l-5.366,-7.097l-107.331,53.195Z"/></clipPath><g clip-path="url(#_clip2)"><path d="M118.827,175.114l-142.424,-119.815l142.424,-71.212l222.314,226.937l-125.716,52.124l-96.598,-88.034Z" style="fill:#febc3b;fill-opacity:0.15;"/><path d="M97.607,-1.003l5.12,15.718l5.367,-3.528l2.029,11.413l10.187,2.204l3.884,14.159l5.366,-6.149l1.521,9.592l9.212,-1.723l3.224,13.308l6.47,-4.296l2.074,9.835l11.477,-0.895l4.059,12.292l5.876,-0.452l3.024,8.897l6.729,-1.259l2.86,15.768l5.919,-6.584l-0.119,6.743l3.361,-3.451l1.61,6.171l7.835,1.098l-1.098,10.163l7.938,-4.159l-1.473,10.232l5.366,-1.155l-1.699,6.276l11.282,-0.066l1.15,9.453l7.198,-1.297l0.961,5.78l5.367,-2.725l1.792,8.447l6.149,-1.994l2.061,7.828l5.668,0.471l0.53,3.905l5.048,-1.327l2.792,9.337l6.367,-3.183l-2.404,5.164l6.77,-0.445l2.501,7.947l8.232,0.779l0,7.291l5.367,-0.827l2.066,6.39l4.597,-1.002l-1.296,8.675l8.196,0.142l-0.057,5.338l10.097,19.011l21.409,-9.117l5.287,5.027l-118.535,50.483l-10.097,-19.011l0.057,-5.338l-8.197,-0.142l1.297,-8.675l-4.597,1.002l-2.066,-6.39l-5.367,0.827l0,-7.291l-8.233,-0.779l-2.5,-7.947l-6.771,0.445l2.405,-5.164l-6.367,3.183l-2.792,-9.337l-5.048,1.327l-0.53,-3.905l-5.668,-0.471l-2.062,-7.828l-6.149,1.994l-1.791,-8.447l-5.367,2.725l-0.961,-5.78l-7.198,1.297l-1.151,-9.453l-11.281,0.066l1.699,-6.276l-5.367,1.155l1.473,-10.232l-7.937,4.159l1.098,-10.164l-7.835,-1.097l-1.61,-6.171l-3.361,3.451l0.119,-6.743l-5.919,6.584l-2.86,-15.768l-6.729,1.259l-3.024,-8.898l-5.876,0.453l-4.059,-12.292l-11.477,0.895l-2.074,-9.835l-6.47,4.296l-3.224,-13.308l-9.212,1.723l-1.521,-9.592l-5.367,6.148l-3.883,-14.158l-10.187,-2.204l-2.029,-11.413l-5.367,3.528l-5.366,-16.472l92.085,-45.639Z" style="fill:#49b190;fill-opacity:0.35;"/></g></g><g id="Way_Ramp_Up_low2"><path d="M85.451,10.809l-59.904,29.953l70.601,54.709l41.731,53.065l107.335,93.653l56.084,-28.043l-215.847,-203.337" style="fill:#9f937d;"/><g><path d="M47.976,59.339l0.075,-9.126l7.588,-3.14l6.783,6.749l7.62,4.239l6.676,8.475l-4.917,14.151l-9.601,0.148l-9.552,-5.858l-4.672,-15.638Z" style="fill:#696452;"/><path d="M46.622,64.39l0.075,-9.125l7.589,-3.141l6.782,6.749l7.62,4.239l6.676,8.476l-4.916,14.15l-9.602,0.149l-9.552,-5.858l-4.672,-15.639Z" style="fill:#161510;fill-opacity:0.6;"/><path d="M54.184,47.978l-3.835,10.914l-9.647,5.592l-6.035,-5.634l-5.096,-11.537l2.927,-9.842l5.388,-7.964l6.766,6.525l5.827,6.968l3.705,4.978" style="fill:#696452;"/><path d="M52.83,53.03l-3.835,10.914l-9.646,5.592l-6.036,-5.634l-5.096,-11.537l2.927,-9.842l5.389,-7.964l6.766,6.525l5.826,6.968l3.705,4.978" style="fill:#161510;fill-opacity:0.6;"/><path d="M40.49,37.531l-2.559,5.747l-8.572,8.443l-8.157,-6.223l0.733,-9.435l3.613,-7.745l7.638,8.211l1.96,-0.96l2.844,0.545l2.5,1.417Z" style="fill:#696452;"/><path d="M39.137,42.583l-2.56,5.746l-7.168,7.067l-3.644,-3.35l0.468,-8.931l3.108,-5.034l2.492,3.499l1.959,-0.959l2.844,0.545l2.501,1.417Z" style="fill:#161510;fill-opacity:0.6;"/><path d="M97.995,107.223l-6.063,-12.77l-6.416,-7.21l0.028,-3.394l0.034,-4.211l4.794,0.794l4.796,0.485l3.347,5.728l3.66,2.792l2.484,4.758l4.708,11.244l-1.808,1.478l-6.224,2.854l-3.34,-2.548Z" style="fill:#696452;"/><path d="M96.642,112.275l-6.063,-12.77l-6.417,-7.211l0.028,-3.393l0.035,-4.211l4.793,0.794l4.797,0.485l3.347,5.727l3.659,2.792l2.485,4.759l4.708,11.244l-1.808,1.478l-6.224,2.854l-3.34,-2.548Z" style="fill:#161510;fill-opacity:0.6;"/><path d="M120.821,101.806l-3.88,-9.658l-7.289,-1.984l-7.344,-0.19l-1.13,5.432l3.513,9.646l3.09,9.974l1.946,7.607l3.544,-3.589l3.391,1.474l4.534,-1.449l1.266,-3.04l-1.641,-14.223" style="fill:#696452;"/><path d="M119.467,106.858l-3.88,-9.658l-7.288,-1.984l-7.345,-0.19l-1.129,5.431l3.512,9.647l3.091,9.974l1.946,7.607l3.543,-3.59l3.391,1.475l4.534,-1.449l1.266,-3.04l-1.641,-14.223" style="fill:#161510;fill-opacity:0.6;"/><path d="M85.708,72.001l-6.961,-6.196l-7.866,4.828l-9.133,3.454l5.915,10.794l1.73,9.311l6.628,-0.981l10.726,5.972l6.907,-7.171l1.662,-6.79l-4.838,-9.582l-4.77,-3.639Z" style="fill:#696452;"/><path d="M84.354,77.053l-6.961,-6.197l-7.866,4.829l-9.132,3.454l5.915,10.794l1.73,9.31l6.628,-0.981l10.725,5.973l6.907,-7.171l1.663,-6.79l-4.838,-9.582l-4.771,-3.639Z" style="fill:#161510;fill-opacity:0.6;"/><path d="M187.069,170.993l0.386,9.111l-3.086,10.681l-10.324,-3.994l-3.973,-5.069l-6.664,-1.632l-1.39,-7.457l8.453,-5.105l6.308,-5.331l7.924,3.437l2.366,5.359Z" style="fill:#696452;"/><path d="M185.438,175.962l0.386,9.111l-3.087,10.681l-10.324,-3.994l-3.973,-5.069l-6.664,-1.632l-1.39,-7.458l8.454,-5.104l6.307,-5.331l7.924,3.436l2.367,5.36Z" style="fill:#161510;fill-opacity:0.6;"/><path d="M177.395,163.259l-6.284,-11.686l-11.823,-6.042l-5.178,5.764l-2.828,6.633l6.341,13.689l-0.606,9.489l9.604,0.248l4.975,-2.603l3.043,-5.219l2.756,-10.273Z" style="fill:#696452;"/><path d="M175.763,168.228l-6.284,-11.686l-11.823,-6.042l-5.178,5.764l-2.828,6.633l6.341,13.688l-0.606,9.489l9.604,0.248l4.976,-2.602l3.042,-5.219l2.756,-10.273Z" style="fill:#161510;fill-opacity:0.6;"/><path d="M240.511,225.541l-2.731,7.316l-5.969,2.523l-11.005,-8.249l-8.984,-10.326l4.89,-6.622l10.314,-4.36l13.485,19.718Z" style="fill:#696452;"/><path d="M238.88,230.51l-2.732,7.316l-5.968,2.523l-10.934,-9.754l-4.371,-6.874l6.595,-6.992l6.428,-4.339l10.982,18.12Z" style="fill:#161510;fill-opacity:0.6;"/><path d="M254.169,227.826l0.386,9.111l-3.087,10.681l-10.324,-3.994l-3.973,-5.069l-6.664,-1.632l-1.39,-7.457l8.454,-5.105l6.307,-5.331l7.924,3.436l2.367,5.36Z" style="fill:#696452;"/><path d="M252.537,232.795l0.386,9.111l-3.087,10.681l-10.324,-3.994l-3.973,-5.069l-6.664,-1.632l-1.39,-7.458l8.454,-5.104l6.307,-5.331l7.924,3.436l2.367,5.36Z" style="fill:#161510;fill-opacity:0.6;"/><path d="M225.294,208.456l-6.284,-11.686l-11.823,-6.042l-5.178,5.764l-2.828,6.633l6.341,13.688l-0.606,9.489l9.603,0.248l4.976,-2.602l3.042,-5.219l2.757,-10.273Z" style="fill:#696452;"/><path d="M223.662,213.425l-6.284,-11.686l-11.823,-6.042l-5.178,5.764l-2.828,6.632l6.341,13.689l-0.606,9.489l9.604,0.248l4.975,-2.602l3.043,-5.219l2.756,-10.273Z" style="fill:#161510;fill-opacity:0.6;"/><path d="M133.303,128.573l-5.992,-13.837l-11.886,-7.759l-2.548,7.829l-0.444,6.949l7.822,14.608l0.438,6.69l6.622,-0.655l8.695,9.818l6.713,0.185l1.66,-3.726l-1.647,-5.725l-2.652,-2.267l-6.781,-12.11" style="fill:#696452;"/><path d="M131.671,133.542l-5.992,-13.837l-11.886,-7.759l-2.548,7.829l-0.444,6.949l7.822,14.608l0.438,6.69l6.622,-0.655l8.695,9.818l6.713,0.185l1.66,-3.726l-1.647,-5.725l-2.652,-2.267l-6.781,-12.11" style="fill:#161510;fill-opacity:0.6;"/><path d="M160.862,153.151c-0.916,-1.64 -12.449,-12.17 -12.449,-12.17l-11.857,-2.271l0.448,11.463l7.334,4.356l6.348,7.34c0,0 11.093,-7.078 10.176,-8.718Z" style="fill:#696452;"/><path d="M159.231,158.12c-0.917,-1.64 -12.45,-12.17 -12.45,-12.17l-11.857,-2.271l0.448,11.463l7.334,4.356l6.349,7.34c0,0 11.092,-7.078 10.176,-8.718Z" style="fill:#161510;fill-opacity:0.6;"/><path d="M206.085,197.842l-2.731,7.316l-5.969,2.523l-11.005,-8.249l-8.985,-10.326l4.891,-6.622l10.314,-4.36l13.485,19.718Z" style="fill:#696452;"/><path d="M204.453,202.811l-2.731,7.316l-5.969,2.522l-10.933,-9.753l-4.371,-6.875l6.595,-6.992l6.427,-4.338l10.982,18.12Z" style="fill:#161510;fill-opacity:0.6;"/></g><g><path d="M175.926,76.288l0.386,9.111l-3.087,10.681l-10.323,-3.994l-3.973,-5.069l-6.665,-1.632l-1.389,-7.457l8.453,-5.105l6.308,-5.331l7.923,3.436l2.367,5.36Z" style="fill:#696452;"/><path d="M174.294,81.257l0.386,9.111l-3.086,10.681l-10.324,-3.994l-3.973,-5.069l-6.665,-1.632l-1.389,-7.458l8.453,-5.104l6.308,-5.331l7.924,3.436l2.366,5.36Z" style="fill:#161510;fill-opacity:0.6;"/><path d="M163.566,65.16l-6.284,-11.686l-11.824,-6.042l-5.177,5.764l-2.829,6.633l6.341,13.688l-0.606,9.489l9.604,0.249l4.976,-2.603l3.042,-5.219l2.757,-10.273Z" style="fill:#696452;"/><path d="M161.934,70.129l-6.284,-11.686l-11.823,-6.042l-5.178,5.764l-2.829,6.633l6.341,13.688l-0.606,9.489l9.604,0.248l4.976,-2.602l3.042,-5.219l2.757,-10.273Z" style="fill:#161510;fill-opacity:0.6;"/><path d="M123.855,34.706l-5.992,-13.836l-11.886,-7.76l-2.548,7.829l-0.444,6.95l7.821,14.608l0.439,6.689l6.622,-0.654l8.695,9.817l6.713,0.186l1.66,-3.727l-1.647,-5.724l-2.653,-2.267l-6.78,-12.111" style="fill:#696452;"/><path d="M122.223,39.675l-5.992,-13.836l-11.886,-7.76l-2.548,7.829l-0.444,6.95l7.822,14.608l0.438,6.689l6.622,-0.654l8.695,9.817l6.713,0.186l1.66,-3.727l-1.647,-5.724l-2.652,-2.267l-6.781,-12.111" style="fill:#161510;fill-opacity:0.6;"/><path d="M149.018,65.194c-0.916,-1.64 -12.45,-12.169 -12.45,-12.169l-11.856,-2.272l0.448,11.463l7.333,4.357l6.349,7.339c0,0 11.093,-7.078 10.176,-8.718Z" style="fill:#696452;"/><path d="M147.386,70.163c-0.916,-1.64 -12.45,-12.17 -12.45,-12.17l-11.856,-2.271l0.448,11.463l7.333,4.356l6.349,7.34c0,0 11.093,-7.078 10.176,-8.718Z" style="fill:#161510;fill-opacity:0.6;"/><path d="M105.245,23.743l-2.732,7.316l-5.968,2.523l-11.006,-8.249l-8.984,-10.326l4.89,-6.622l10.314,-4.36l13.486,19.718Z" style="fill:#696452;"/><path d="M103.613,28.712l-2.731,7.316l-5.969,2.522l-10.934,-9.753l-4.371,-6.875l6.595,-6.992l6.428,-4.338l10.982,18.12Z" style="fill:#161510;fill-opacity:0.6;"/><path d="M202.908,103.089l0.386,9.111l-3.087,10.681l-10.323,-3.994l-3.973,-5.069l-6.665,-1.632l-1.389,-7.458l8.453,-5.104l6.308,-5.331l7.923,3.436l2.367,5.36Z" style="fill:#696452;"/><path d="M201.276,108.058l0.386,9.111l-3.086,10.681l-10.324,-3.994l-3.973,-5.069l-6.665,-1.633l-1.389,-7.457l8.453,-5.104l6.308,-5.332l7.924,3.437l2.366,5.36Z" style="fill:#161510;fill-opacity:0.6;"/><path d="M193.234,95.355l-6.284,-11.686l-11.823,-6.042l-5.178,5.764l-2.828,6.633l6.34,13.688l-0.605,9.489l9.603,0.248l4.976,-2.602l3.042,-5.219l2.757,-10.273Z" style="fill:#696452;"/><path d="M191.602,100.324l-6.284,-11.686l-11.823,-6.042l-5.178,5.764l-2.828,6.633l6.341,13.688l-0.606,9.489l9.603,0.248l4.976,-2.602l3.042,-5.219l2.757,-10.273Z" style="fill:#161510;fill-opacity:0.6;"/><path d="M281.176,189.853l-2.732,7.316l-5.968,2.522l-11.006,-8.248l-8.984,-10.326l4.89,-6.623l10.314,-4.359l13.486,19.718Z" style="fill:#696452;"/><path d="M279.544,194.821l-2.731,7.316l-5.969,2.523l-10.934,-9.753l-4.371,-6.875l6.595,-6.992l6.428,-4.338l10.982,18.119Z" style="fill:#161510;fill-opacity:0.6;"/><path d="M309.587,204.441l0.386,9.111l-3.086,10.681l-10.324,-3.994l-3.973,-5.069l-6.664,-1.632l-1.39,-7.458l8.453,-5.104l6.308,-5.331l7.924,3.436l2.366,5.36Z" style="fill:#696452;"/><path d="M307.956,209.409l0.386,9.112l-3.087,10.681l-10.324,-3.994l-3.973,-5.069l-6.664,-1.633l-1.39,-7.457l8.454,-5.104l6.307,-5.332l7.924,3.437l2.367,5.359Z" style="fill:#161510;fill-opacity:0.6;"/><path d="M299.913,196.707l-6.284,-11.686l-11.823,-6.042l-5.178,5.764l-2.828,6.633l6.341,13.688l-0.606,9.489l9.604,0.248l4.975,-2.602l3.043,-5.219l2.756,-10.273Z" style="fill:#696452;"/><path d="M298.281,201.676l-6.284,-11.686l-11.823,-6.042l-5.178,5.764l-2.828,6.632l6.341,13.689l-0.606,9.489l9.604,0.248l4.976,-2.602l3.042,-5.22l2.756,-10.272Z" style="fill:#161510;fill-opacity:0.6;"/><path d="M238.138,146.811l-5.992,-13.837l-11.886,-7.759l-2.548,7.829l-0.444,6.949l7.822,14.608l0.438,6.69l6.622,-0.655l8.695,9.818l6.713,0.185l1.66,-3.726l-1.647,-5.725l-2.652,-2.267l-6.781,-12.11" style="fill:#696452;"/><path d="M236.506,151.78l-5.992,-13.837l-11.886,-7.759l-2.548,7.829l-0.444,6.949l7.822,14.608l0.438,6.69l6.622,-0.655l8.695,9.818l6.714,0.185l1.659,-3.726l-1.647,-5.725l-2.652,-2.267l-6.781,-12.11" style="fill:#161510;fill-opacity:0.6;"/><path d="M265.698,171.389c-0.917,-1.64 -12.45,-12.17 -12.45,-12.17l-11.857,-2.271l0.448,11.463l7.334,4.356l6.348,7.34c0,0 11.093,-7.078 10.177,-8.718Z" style="fill:#696452;"/><path d="M264.066,176.358c-0.917,-1.64 -12.45,-12.17 -12.45,-12.17l-11.857,-2.271l0.448,11.463l7.334,4.356l6.349,7.339c0,0 11.092,-7.077 10.176,-8.717Z" style="fill:#161510;fill-opacity:0.6;"/><path d="M221.924,129.938l-2.731,7.316l-5.969,2.522l-11.006,-8.248l-8.984,-10.326l4.891,-6.623l10.314,-4.359l13.485,19.718Z" style="fill:#696452;"/><path d="M220.292,134.906l-2.731,7.316l-5.969,2.523l-10.933,-9.753l-4.371,-6.875l6.595,-6.992l6.427,-4.338l10.982,18.119Z" style="fill:#161510;fill-opacity:0.6;"/></g></g></g></svg>