<?xml version="1.0" encoding="UTF-8" standalone="no"?><!DOCTYPE svg PUBLIC "-//W3C//DTD SVG 1.1//EN" "http://www.w3.org/Graphics/SVG/1.1/DTD/svg11.dtd"><svg width="100%" height="100%" viewBox="0 0 215 205" version="1.1" xmlns="http://www.w3.org/2000/svg" xmlns:xlink="http://www.w3.org/1999/xlink" xml:space="preserve" xmlns:serif="http://www.serif.com/" style="fill-rule:evenodd;clip-rule:evenodd;stroke-linecap:round;stroke-linejoin:round;stroke-miterlimit:1.5;"><g id="Grass_Ramp_LeftUp_high-angle2"><path d="M107.556,108.118l0,96.599l-107.332,-53.666l0,-96.598l107.332,53.665Z" style="fill:#4c646e;"/><clipPath id="_clip1"><path d="M107.556,108.118l0,96.599l-107.332,-53.666l0,-96.598l107.332,53.665Z"/></clipPath><g clip-path="url(#_clip1)"><path d="M90.086,174.515l11.734,-4.08l-0.235,-16.22l-6.989,-11.582l-11.749,-1.319l-5.987,4.725l-1.504,10.628l14.73,17.848" style="fill:#556176;stroke:#000;stroke-width:1px;"/><path d="M85.764,190.863l17.273,-3.67l-1.819,-6.448l-9.043,-3.989l-7.195,0.973l-8.011,3.609l-0.029,5.633l8.824,3.892Z" style="fill:#556176;"/><path d="M48.823,166.536l4.777,5.836l11.198,0.058l2.667,-4.498l2.28,-7.998l-9.77,-12.374l-3.563,4.94l-5.674,0.497l-3.859,9.848l1.944,3.691" style="fill:#556176;"/><path d="M73.912,140.668l-6.21,-6.586l4.115,-12.274l9.073,-1.736l7.964,-0.801l2.763,4.188l3.721,-1.192l5.457,1.532l1.352,4.444l-6.164,3.963l-4.606,2.728l-8.414,4.036l-9.051,1.698Z" style="fill:#556176;stroke:#000;stroke-width:1px;"/><path d="M34.762,151.613l-4.294,-4.586l-1.862,-10.647l2.871,-9.418l12.278,-2.445l3.22,7.815l-0.16,7.685l-4.698,7.216l-7.355,4.38Z" style="fill:#556176;"/><path d="M15.688,105.685l-7.493,-11.309l2.215,-5.783l10.317,-18.523c0,0 7.679,6.584 10.234,6.868c2.555,0.284 7.574,5.082 7.574,5.082l-3.96,8.979l-9.33,5.376l-9.557,9.31Z" style="fill:#556176;"/><path d="M60.978,119.728l-10.819,-2.742l-10.011,-8.444l2.663,-7.435l5.35,-5.277l7.762,2.587l4.722,5.79l3.252,6.875l-2.919,8.646" style="fill:#816b40;stroke:#000;stroke-width:1px;"/><path d="M4.214,125.642l8.581,-9.593l7.679,8.655l1.217,22.864l-12.833,4.344l-4.296,-9.13l-0.348,-17.14" style="fill:#556176;"/><path d="M81.774,191.306l17.273,-3.67l-1.819,-6.448l-9.043,-3.989l-7.195,0.973l-8.011,3.609l-0.029,5.633l8.824,3.892Zm4.322,-16.347l-14.73,-17.849l1.504,-10.627l5.987,-4.726l11.749,1.32l6.989,11.581l0.235,16.221l-11.734,4.08Zm-41.263,-7.98l-1.944,-3.691l3.859,-9.847l5.674,-0.498l3.564,-4.94l9.769,12.374l-2.28,7.998l-2.667,4.498l-11.198,-0.057l-4.777,-5.837Zm-44.609,-40.894l8.582,-9.592l7.678,8.654l1.217,22.864l-12.833,4.344l-4.295,-9.129l-0.349,-17.141Zm30.548,25.971l-4.294,-4.585l-1.862,-10.648l2.871,-9.417l12.278,-2.446l3.22,7.815l-0.16,7.686l-4.698,7.216l-7.355,4.379Zm39.15,-10.944l-6.21,-6.587l4.115,-12.274l9.073,-1.735l7.964,-0.802l2.763,4.188l3.721,-1.192l5.457,1.533l1.352,4.444l-6.164,3.963l-4.606,2.727l-8.414,4.037l-9.051,1.698Zm-12.934,-20.941l-10.819,-2.741l-10.011,-8.444l2.663,-7.436l5.35,-5.277l7.762,2.587l4.722,5.79l3.252,6.875l-2.919,8.646Zm-45.289,-14.043l-7.494,-11.309l2.215,-5.782l10.317,-18.523c0,0 7.679,6.583 10.234,6.868c2.555,0.284 7.574,5.082 7.574,5.082l-3.96,8.979l-9.329,5.375l-9.557,9.31Z" style="fill:#311807;fill-opacity:0.5;"/></g><path d="M0.224,54.453l5.367,18.783l5.367,-2.684l0,10.734l6.141,-3.071l-0.775,21.854l5.367,-8.05l0,10.733l5.366,-4.525l-3.149,8.783l8.516,1.108l1.668,6.201l3.698,-4.643l1.35,11.184l4.017,-2.008l0.969,10.248l4.398,-2.199l0,9.879l3.857,-8.509l0,12.802l6.876,-1.44l-2.309,8.763l5.18,-3.959l1.241,13.624l3.889,-6.817l2.732,10.494l5.366,-1.24l1.99,8.943l2.084,-0.253l1.293,15.026l5.366,-6.33l4.298,10.645l4.757,0.927l3.155,7.671l9.257,7.59l107.331,-53.666l-6.465,-7.5l-3.648,-8.29l-7.412,-5.22l-2.908,-7.476l-6.4,-6.397l-4.061,-10.509l-8.084,-8.06l-3.955,-9.636l-7.297,-7.407l-3.436,-7.578l-4.428,-3.258l-6.305,-8.378l-3.24,-8.509l-7.493,-6.649l-2.674,-6.494l-5.955,-3.406l-6.066,-12.049l-6.771,-5.561l-2.496,-6.608l-1.979,-2.783l-3.12,-1.56l-3.138,-6.936l-107.332,53.666Z" style="fill:#56bce8;"/><clipPath id="_clip2"><path d="M0.224,54.453l5.367,18.783l5.367,-2.684l0,10.734l6.141,-3.071l-0.775,21.854l5.367,-8.05l0,10.733l5.366,-4.525l-3.149,8.783l8.516,1.108l1.668,6.201l3.698,-4.643l1.35,11.184l4.017,-2.008l0.969,10.248l4.398,-2.199l0,9.879l3.857,-8.509l0,12.802l6.876,-1.44l-2.309,8.763l5.18,-3.959l1.241,13.624l3.889,-6.817l2.732,10.494l5.366,-1.24l1.99,8.943l2.084,-0.253l1.293,15.026l5.366,-6.33l4.298,10.645l4.757,0.927l3.155,7.671l9.257,7.59l107.331,-53.666l-6.465,-7.5l-3.648,-8.29l-7.412,-5.22l-2.908,-7.476l-6.4,-6.397l-4.061,-10.509l-8.084,-8.06l-3.955,-9.636l-7.297,-7.407l-3.436,-7.578l-4.428,-3.258l-6.305,-8.378l-3.24,-8.509l-7.493,-6.649l-2.674,-6.494l-5.955,-3.406l-6.066,-12.049l-6.771,-5.561l-2.496,-6.608l-1.979,-2.783l-3.12,-1.56l-3.138,-6.936l-107.332,53.666Z"/></clipPath><g clip-path="url(#_clip2)"><path d="M0.224,108.118l-24.521,-52.137l131.853,-65.927l125.245,168.14l-146.712,57.256l-85.865,-107.332Z" style="fill:#febc3b;fill-opacity:0.15;"/><path d="M103.156,-1.988l4.4,15.399l5.366,-2.683l0,10.733l6.142,-3.071l-0.775,21.854l5.366,-8.05l0,10.734l5.367,-4.526l-3.149,8.783l8.516,1.109l1.668,6.201l3.698,-4.644l1.35,11.185l4.017,-2.009l0.969,10.249l4.397,-2.199l0,9.879l3.857,-8.51l0,12.802l6.876,-1.44l-2.309,8.763l5.181,-3.959l1.241,13.625l3.889,-6.817l2.731,10.493l5.367,-1.239l1.99,8.943l2.084,-0.254l1.293,15.026l5.366,-6.33l4.297,10.646l4.758,0.927l3.155,7.67l3.89,19.115l17.19,-8.05l3.593,5.209l-116.381,54.507l-3.89,-19.115l-3.155,-7.671l-4.758,-0.927l-4.297,-10.645l-5.367,6.33l-1.292,-15.026l-2.084,0.254l-1.99,-8.944l-5.367,1.24l-2.731,-10.494l-3.889,6.817l-1.241,-13.624l-5.181,3.959l2.309,-8.763l-6.876,1.44l0,-12.802l-3.857,8.509l0,-9.878l-4.398,2.198l-0.968,-10.248l-4.018,2.008l-1.349,-11.184l-3.699,4.643l-1.668,-6.2l-8.515,-1.109l3.149,-8.783l-5.367,4.525l0,-10.733l-5.366,8.05l0.775,-21.854l-6.142,3.071l0,-10.733l-5.366,2.683l-5.367,-18.783l96.565,-48.282Z" style="fill:#49b190;fill-opacity:0.35;"/></g><g><g><path d="M133.706,83.74l9.125,0.109l3.293,-7.523l-6.611,-6.918l-4.084,-7.704l-8.339,-6.846l-14.247,4.63l-0.342,9.597l5.664,9.668l15.541,4.987Z" style="fill:#696452;"/><path d="M135.1,89.774l9.125,0.109l3.293,-7.523l-6.61,-6.917l-4.085,-7.704l-8.339,-6.846l-14.247,4.629l-0.342,9.597l5.664,9.669l15.541,4.986Z" style="fill:#161510;fill-opacity:0.6;"/><path d="M86.841,32.764l12.645,6.319l7.08,6.561l3.393,0.041l4.211,0.05l-0.697,-4.809l-0.388,-4.805l-5.659,-3.461l-2.718,-3.716l-4.707,-2.58l-11.147,-4.934l-1.514,1.778l-2.979,6.165l2.48,3.391Z" style="fill:#696452;"/><path d="M88.235,38.798l12.645,6.32l7.08,6.56l3.393,0.041l4.211,0.05l-0.697,-4.808l-0.388,-4.805l-5.659,-3.462l-2.718,-3.715l-4.707,-2.581l-11.147,-4.933l-1.514,1.777l-2.979,6.166l2.48,3.39Z" style="fill:#161510;fill-opacity:0.6;"/><path d="M92.718,10.052l9.577,4.075l1.837,7.327l0.042,7.347l-5.454,1.019l-9.573,-3.707l-9.91,-3.291l-7.566,-2.099l3.66,-3.47l-1.406,-3.42l1.54,-4.504l3.066,-1.204l14.187,1.927" style="fill:#696452;"/><path d="M94.112,16.087l9.577,4.074l1.837,7.327l0.042,7.347l-5.454,1.02l-9.573,-3.707l-9.91,-3.291l-7.566,-2.099l3.66,-3.471l-1.405,-3.42l1.54,-4.504l3.065,-1.204l14.187,1.928" style="fill:#161510;fill-opacity:0.6;"/><path d="M121.808,45.76l6.054,7.084l-4.986,7.768l-3.637,9.06l-10.673,-6.131l-9.274,-1.918l1.115,-6.607l-5.754,-10.843l7.309,-6.761l6.822,-1.525l9.482,5.03l3.542,4.843Z" style="fill:#696452;"/><path d="M123.202,51.794l6.055,7.085l-4.987,7.767l-3.637,9.061l-10.673,-6.132l-9.273,-1.918l1.114,-6.606l-5.754,-10.844l7.309,-6.761l6.822,-1.525l9.482,5.03l3.542,4.843Z" style="fill:#161510;fill-opacity:0.6;"/><path d="M153.024,116.416l12.645,6.32l7.079,6.56l3.394,0.041l4.21,0.05l-0.697,-4.808l-0.388,-4.805l-5.659,-3.462l-2.717,-3.715l-4.708,-2.581l-11.146,-4.934l-1.514,1.778l-2.98,6.166l2.481,3.39Z" style="fill:#696452;"/><path d="M154.418,122.451l12.645,6.319l7.079,6.561l3.394,0.04l4.21,0.051l-0.697,-4.809l-0.388,-4.805l-5.658,-3.462l-2.718,-3.715l-4.708,-2.58l-11.146,-4.934l-1.514,1.778l-2.979,6.165l2.48,3.391Z" style="fill:#161510;fill-opacity:0.6;"/><path d="M185.031,125.269l6.054,7.084l-4.986,7.768l-3.637,9.06l-10.673,-6.131l-9.273,-1.918l1.114,-6.607l-5.754,-10.843l7.309,-6.761l6.822,-1.525l9.482,5.03l3.542,4.843Z" style="fill:#696452;"/><path d="M186.425,131.303l6.055,7.085l-4.987,7.767l-3.637,9.061l-10.673,-6.132l-9.273,-1.918l1.114,-6.606l-5.754,-10.844l7.309,-6.761l6.822,-1.525l9.482,5.03l3.542,4.843Z" style="fill:#161510;fill-opacity:0.6;"/><path d="M40.145,37.788l-9.043,-1.179l-10.91,2.143l3.079,10.633l4.703,4.4l1.045,6.782l7.307,2.034l5.823,-7.976l5.861,-5.818l-2.732,-8.193l-5.133,-2.826Z" style="fill:#696452;"/><path d="M41.469,43.838l-9.043,-1.179l-10.91,2.143l3.079,10.633l4.703,4.4l1.045,6.782l7.307,2.034l5.823,-7.976l5.861,-5.818l-2.732,-8.193l-5.133,-2.826Z" style="fill:#161510;fill-opacity:0.6;"/><path d="M42.982,52.866l11.094,7.28l4.987,12.305l-6.194,4.655l-6.853,2.239l-13.084,-7.51l-9.505,-0.225l0.59,-9.588l3.026,-4.73l5.465,-2.576l10.474,-1.85Z" style="fill:#696452;"/><path d="M44.306,58.917l11.094,7.279l4.987,12.305l-6.194,4.655l-6.853,2.239l-13.084,-7.51l-9.505,-0.225l0.59,-9.588l3.026,-4.73l5.465,-2.575l10.474,-1.85Z" style="fill:#161510;fill-opacity:0.6;"/><path d="M107.839,136.763l-9.044,-1.179l-10.909,2.143l3.078,10.633l4.703,4.4l1.045,6.782l7.308,2.034l5.822,-7.975l5.861,-5.819l-2.732,-8.193l-5.132,-2.826Z" style="fill:#696452;"/><path d="M109.162,142.814l-9.043,-1.18l-10.909,2.144l3.078,10.633l4.703,4.399l1.045,6.782l7.308,2.034l5.822,-7.975l5.861,-5.819l-2.732,-8.193l-5.133,-2.825Z" style="fill:#161510;fill-opacity:0.6;"/><path d="M110.676,151.842l11.093,7.279l4.988,12.305l-6.194,4.655l-6.854,2.239l-13.083,-7.51l-9.506,-0.225l0.591,-9.588l3.026,-4.73l5.465,-2.575l10.474,-1.85Z" style="fill:#696452;"/><path d="M112,157.892l11.093,7.279l4.988,12.305l-6.194,4.656l-6.854,2.239l-13.083,-7.511l-9.506,-0.224l0.591,-9.589l3.026,-4.73l5.465,-2.575l10.474,-1.85Z" style="fill:#161510;fill-opacity:0.6;"/><path d="M70.929,95.16l13.261,7.176l6.694,12.518l-8.022,1.855l-6.962,-0.164l-13.87,-9.066l-6.625,-1.02l1.229,-6.54l-9.021,-9.518l0.401,-6.704l3.857,-1.328l5.559,2.14l2.027,2.84l11.472,7.811" style="fill:#696452;"/><path d="M72.253,101.21l13.261,7.177l6.694,12.517l-8.022,1.855l-6.962,-0.164l-13.87,-9.066l-6.625,-1.02l1.229,-6.54l-9.021,-9.518l0.401,-6.704l3.857,-1.328l5.559,2.14l2.027,2.84l11.472,7.811" style="fill:#161510;fill-opacity:0.6;"/><path d="M48.849,65.561c1.554,1.056 11.037,13.465 11.037,13.465l1.229,12.009l-11.381,-1.446l-3.7,-7.686l-6.757,-6.965c0,0 8.018,-10.432 9.572,-9.377Z" style="fill:#696452;"/><path d="M50.173,71.612c1.554,1.056 11.037,13.464 11.037,13.464l1.229,12.009l-11.381,-1.446l-3.7,-7.686l-6.757,-6.964c0,0 8.018,-10.433 9.572,-9.377Z" style="fill:#161510;fill-opacity:0.6;"/><path d="M128.406,167.788c1.554,1.056 11.037,13.464 11.037,13.464l1.229,12.009l-11.381,-1.446l-3.7,-7.686l-6.757,-6.964c0,0 8.018,-10.433 9.572,-9.377Z" style="fill:#696452;"/><path d="M129.73,173.838c1.554,1.056 11.037,13.464 11.037,13.464l1.229,12.009l-11.381,-1.446l-3.7,-7.685l-6.757,-6.965c0,0 8.018,-10.433 9.572,-9.377Z" style="fill:#161510;fill-opacity:0.6;"/><path d="M145.189,77.762l-10.989,3.615l-5.785,9.531l5.511,6.148l11.432,5.328l9.899,-2.728l8.071,-5.226l-6.388,-6.897l-6.849,-5.966l-4.902,-3.805" style="fill:#696452;"/><path d="M146.583,83.797l-10.989,3.614l-5.785,9.531l5.511,6.149l11.432,5.327l9.899,-2.727l8.071,-5.227l-6.388,-6.896l-6.848,-5.967l-4.903,-3.804" style="fill:#161510;fill-opacity:0.6;"/><path d="M189.047,139.018l-10.989,3.615l-5.786,9.531l5.511,6.148l11.432,5.328l9.899,-2.727l8.071,-5.227l-6.387,-6.897l-6.849,-5.966l-4.902,-3.805" style="fill:#696452;"/><path d="M190.441,145.053l-10.989,3.614l-5.786,9.532l5.511,6.148l11.432,5.328l9.899,-2.728l8.071,-5.227l-6.387,-6.896l-6.849,-5.966l-4.902,-3.805" style="fill:#161510;fill-opacity:0.6;"/><path d="M155.358,91.664l-5.797,2.443l-8.615,8.399l6.057,8.281l9.448,-0.542l7.816,-3.456l-8.054,-7.802l0.999,-1.94l-0.488,-2.854l-1.366,-2.529Z" style="fill:#696452;"/><path d="M156.752,97.699l-5.797,2.442l-7.21,7.024l3.275,3.711l8.939,-0.287l5.096,-3.006l-3.448,-2.562l0.999,-1.939l-0.488,-2.855l-1.366,-2.528Z" style="fill:#161510;fill-opacity:0.6;"/><path d="M86.324,112.784l-7.526,2.083l-3.034,5.726l7.257,11.683l9.503,9.851l7.023,-4.295l5.243,-9.894l-18.466,-15.154Z" style="fill:#696452;"/><path d="M87.648,118.835l-7.526,2.082l-3.034,5.726l8.762,11.743l6.467,4.953l7.541,-5.959l4.882,-6.025l-17.092,-12.52Z" style="fill:#161510;fill-opacity:0.6;"/></g></g></g></svg>