<?xml version="1.0" encoding="UTF-8" standalone="no"?><!DOCTYPE svg PUBLIC "-//W3C//DTD SVG 1.1//EN" "http://www.w3.org/Graphics/SVG/1.1/DTD/svg11.dtd"><svg width="100%" height="100%" viewBox="0 0 323 258" version="1.1" xmlns="http://www.w3.org/2000/svg" xmlns:xlink="http://www.w3.org/1999/xlink" xml:space="preserve" xmlns:serif="http://www.serif.com/" style="fill-rule:evenodd;clip-rule:evenodd;stroke-linejoin:round;stroke-miterlimit:1.41421;"><g id="Sand_Ramp_RightUp_low-angle2"><path d="M215.426,107.387l107.331,-53.666l0,96.598l-107.331,53.666" style="fill:#ccc3b0;"/><clipPath id="_clip1"><path d="M215.426,107.387l107.331,-53.666l0,96.598l-107.331,53.666"/></clipPath><g clip-path="url(#_clip1)"><path d="M322.757,128.853c0,0 -32.024,3.078 -45.851,22.925c-13.827,19.848 -36.003,29.261 -61.48,30.741c-25.478,1.479 -65.459,-69.042 -107.331,-53.666c-41.872,15.376 -13.212,68.526 -13.212,68.526l160.009,19.072l73.232,-47.349l-5.367,-40.249Z" style="fill:#b3a890;"/></g><path d="M215.426,203.985l10.733,-5.367l-118.064,59.032l0,-96.598l118.064,-59.032" style="fill:#ccc3b0;"/><clipPath id="_clip2"><path d="M215.426,203.985l10.733,-5.367l-118.064,59.032l0,-96.598l118.064,-59.032"/></clipPath><g clip-path="url(#_clip2)"><path d="M217.702,182.365c0,0 -34.3,3.232 -48.127,23.079c-13.827,19.847 -36.003,29.26 -61.48,30.74c-25.478,1.48 -65.46,-69.042 -107.332,-53.665c-41.872,15.376 -13.212,68.526 -13.212,68.526l160.01,19.072l73.231,-47.349l-3.09,-40.403Z" style="fill:#b3a890;"/></g><path d="M322.757,53.721l-214.662,203.929l-107.332,-53.665l214.663,-203.93l107.331,53.666Z" style="fill:#9f937d;"/><g id="way11"><g><path d="M275.552,59.732l-0.075,-9.126l-7.588,-3.14l-6.783,6.749l-7.62,4.239l-6.676,8.475l4.917,14.151l9.601,0.149l9.552,-5.858l4.672,-15.639Z" style="fill:#696452;"/><path d="M276.906,64.783l-0.075,-9.125l-7.589,-3.14l-6.782,6.749l-7.62,4.239l-6.676,8.475l4.916,14.15l9.602,0.149l9.552,-5.858l4.672,-15.639Z" style="fill:#161510;fill-opacity:0.6;"/><path d="M269.344,48.372l3.836,10.913l9.646,5.592l6.036,-5.634l5.095,-11.537l-2.927,-9.842l-5.388,-7.964l-6.766,6.526l-5.827,6.968l-3.705,4.978" style="fill:#696452;"/><path d="M270.698,53.423l3.835,10.914l9.646,5.592l6.036,-5.634l5.096,-11.537l-2.927,-9.842l-5.388,-7.964l-6.767,6.525l-5.826,6.968l-3.705,4.978" style="fill:#161510;fill-opacity:0.6;"/><path d="M283.038,37.925l2.559,5.746l8.572,8.443l8.157,-6.223l-0.733,-9.434l-3.613,-7.746l-7.638,8.211l-1.96,-0.96l-2.844,0.546l-2.5,1.417Z" style="fill:#696452;"/><path d="M284.391,42.976l2.56,5.747l7.168,7.067l3.644,-3.35l-0.467,-8.932l-3.109,-5.033l-2.492,3.498l-1.959,-0.959l-2.844,0.545l-2.501,1.417Z" style="fill:#161510;fill-opacity:0.6;"/><path d="M225.533,107.616l6.063,-12.77l6.416,-7.21l-0.028,-3.394l-0.034,-4.211l-4.794,0.794l-4.796,0.485l-3.347,5.728l-3.66,2.792l-2.484,4.759l-4.708,11.243l1.808,1.478l6.224,2.854l3.34,-2.548Z" style="fill:#696452;"/><path d="M226.887,112.668l6.062,-12.77l6.417,-7.211l-0.028,-3.393l-0.035,-4.211l-4.793,0.794l-4.797,0.485l-3.347,5.727l-3.659,2.792l-2.485,4.759l-4.708,11.244l1.808,1.478l6.225,2.854l3.34,-2.548Z" style="fill:#161510;fill-opacity:0.6;"/><path d="M202.707,102.199l3.881,-9.658l7.288,-1.983l7.344,-0.191l1.13,5.432l-3.513,9.647l-3.09,9.973l-1.946,7.607l-3.544,-3.589l-3.391,1.474l-4.534,-1.448l-1.266,-3.041l1.641,-14.223" style="fill:#696452;"/><path d="M204.061,107.251l3.88,-9.658l7.288,-1.984l7.345,-0.19l1.129,5.432l-3.512,9.646l-3.091,9.974l-1.946,7.607l-3.543,-3.589l-3.391,1.474l-4.534,-1.449l-1.266,-3.04l1.641,-14.223" style="fill:#161510;fill-opacity:0.6;"/><path d="M237.82,72.394l6.961,-6.196l7.866,4.828l9.133,3.454l-5.915,10.794l-1.73,9.311l-6.628,-0.981l-10.726,5.972l-6.907,-7.171l-1.662,-6.79l4.838,-9.582l4.77,-3.639Z" style="fill:#696452;"/><path d="M239.174,77.446l6.961,-6.196l7.866,4.828l9.132,3.454l-5.915,10.794l-1.73,9.31l-6.628,-0.98l-10.725,5.972l-6.907,-7.171l-1.663,-6.79l4.838,-9.582l4.771,-3.639Z" style="fill:#161510;fill-opacity:0.6;"/><path d="M136.459,171.386l-0.386,9.112l3.086,10.681l10.324,-3.995l3.973,-5.069l6.665,-1.632l1.389,-7.457l-8.453,-5.105l-6.308,-5.331l-7.924,3.437l-2.366,5.359Z" style="fill:#696452;"/><path d="M138.09,176.355l-0.386,9.111l3.087,10.681l10.324,-3.994l3.973,-5.069l6.664,-1.632l1.39,-7.457l-8.453,-5.105l-6.308,-5.331l-7.924,3.437l-2.367,5.359Z" style="fill:#161510;fill-opacity:0.6;"/><path d="M146.133,163.653l6.284,-11.686l11.823,-6.042l5.178,5.764l2.828,6.632l-6.341,13.689l0.606,9.489l-9.603,0.248l-4.976,-2.602l-3.042,-5.22l-2.757,-10.272Z" style="fill:#696452;"/><path d="M147.765,168.621l6.284,-11.686l11.823,-6.042l5.178,5.764l2.828,6.633l-6.341,13.688l0.606,9.49l-9.604,0.248l-4.975,-2.603l-3.043,-5.219l-2.756,-10.273Z" style="fill:#161510;fill-opacity:0.6;"/><path d="M83.017,225.934l2.731,7.316l5.969,2.523l11.005,-8.249l8.984,-10.326l-4.89,-6.622l-10.314,-4.359l-13.485,19.717Z" style="fill:#696452;"/><path d="M84.649,230.903l2.731,7.316l5.969,2.523l10.933,-9.753l4.371,-6.875l-6.595,-6.992l-6.428,-4.339l-10.981,18.12Z" style="fill:#161510;fill-opacity:0.6;"/><path d="M69.359,228.219l-0.386,9.112l3.087,10.681l10.324,-3.995l3.973,-5.069l6.664,-1.632l1.39,-7.457l-8.454,-5.105l-6.307,-5.331l-7.924,3.437l-2.367,5.359Z" style="fill:#696452;"/><path d="M70.991,233.188l-0.386,9.111l3.087,10.681l10.324,-3.994l3.973,-5.069l6.664,-1.632l1.39,-7.458l-8.454,-5.104l-6.307,-5.331l-7.924,3.436l-2.367,5.36Z" style="fill:#161510;fill-opacity:0.6;"/><path d="M98.234,208.849l6.284,-11.686l11.823,-6.042l5.178,5.764l2.828,6.633l-6.34,13.688l0.605,9.489l-9.603,0.249l-4.976,-2.603l-3.042,-5.219l-2.757,-10.273Z" style="fill:#696452;"/><path d="M99.866,213.818l6.284,-11.686l11.823,-6.042l5.178,5.764l2.828,6.633l-6.341,13.688l0.606,9.489l-9.603,0.248l-4.976,-2.602l-3.042,-5.219l-2.757,-10.273Z" style="fill:#161510;fill-opacity:0.6;"/><path d="M190.225,128.966l5.992,-13.836l11.886,-7.76l2.548,7.829l0.444,6.95l-7.822,14.608l-0.438,6.689l-6.622,-0.654l-8.695,9.817l-6.713,0.186l-1.66,-3.727l1.647,-5.724l2.653,-2.267l6.78,-12.111" style="fill:#696452;"/><path d="M191.857,133.935l5.992,-13.837l11.886,-7.759l2.548,7.829l0.444,6.949l-7.822,14.608l-0.438,6.69l-6.622,-0.655l-8.695,9.818l-6.713,0.185l-1.66,-3.726l1.647,-5.725l2.652,-2.267l6.781,-12.11" style="fill:#161510;fill-opacity:0.6;"/><path d="M162.666,153.544c0.916,-1.64 12.449,-12.169 12.449,-12.169l11.857,-2.272l-0.448,11.463l-7.333,4.357l-6.349,7.339c0,0 -11.093,-7.077 -10.176,-8.718Z" style="fill:#696452;"/><path d="M164.297,158.513c0.917,-1.64 12.45,-12.17 12.45,-12.17l11.857,-2.271l-0.448,11.463l-7.334,4.356l-6.348,7.34c0,0 -11.093,-7.078 -10.177,-8.718Z" style="fill:#161510;fill-opacity:0.6;"/><path d="M117.443,198.235l2.731,7.316l5.969,2.523l11.005,-8.249l8.985,-10.326l-4.891,-6.622l-10.314,-4.36l-13.485,19.718Z" style="fill:#696452;"/><path d="M119.075,203.204l2.731,7.316l5.969,2.523l10.933,-9.754l4.371,-6.874l-6.595,-6.992l-6.427,-4.339l-10.982,18.12Z" style="fill:#161510;fill-opacity:0.6;"/></g><g><path d="M147.602,76.681l-0.386,9.112l3.087,10.681l10.323,-3.995l3.973,-5.069l6.665,-1.632l1.389,-7.457l-8.453,-5.105l-6.308,-5.331l-7.923,3.437l-2.367,5.359Z" style="fill:#696452;"/><path d="M149.234,81.65l-0.386,9.111l3.086,10.681l10.324,-3.994l3.973,-5.069l6.665,-1.632l1.389,-7.458l-8.453,-5.104l-6.308,-5.331l-7.923,3.436l-2.367,5.36Z" style="fill:#161510;fill-opacity:0.6;"/><path d="M159.962,65.553l6.284,-11.686l11.824,-6.042l5.177,5.765l2.829,6.632l-6.341,13.689l0.606,9.489l-9.604,0.248l-4.976,-2.602l-3.042,-5.22l-2.757,-10.273Z" style="fill:#696452;"/><path d="M161.594,70.522l6.284,-11.686l11.824,-6.042l5.177,5.764l2.829,6.633l-6.341,13.688l0.606,9.489l-9.604,0.249l-4.976,-2.603l-3.042,-5.219l-2.757,-10.273Z" style="fill:#161510;fill-opacity:0.6;"/><path d="M199.673,35.1l5.992,-13.837l11.886,-7.759l2.548,7.829l0.444,6.949l-7.821,14.608l-0.439,6.69l-6.622,-0.655l-8.694,9.818l-6.714,0.185l-1.66,-3.726l1.648,-5.725l2.652,-2.267l6.78,-12.11" style="fill:#696452;"/><path d="M201.305,40.068l5.992,-13.836l11.886,-7.76l2.548,7.829l0.444,6.95l-7.822,14.608l-0.438,6.689l-6.622,-0.654l-8.695,9.817l-6.713,0.186l-1.66,-3.727l1.647,-5.724l2.653,-2.267l6.78,-12.111" style="fill:#161510;fill-opacity:0.6;"/><path d="M174.51,65.588c0.916,-1.641 12.45,-12.17 12.45,-12.17l11.856,-2.272l-0.447,11.464l-7.334,4.356l-6.349,7.339c0,0 -11.093,-7.077 -10.176,-8.717Z" style="fill:#696452;"/><path d="M176.142,70.556c0.916,-1.64 12.45,-12.169 12.45,-12.169l11.856,-2.272l-0.448,11.463l-7.333,4.357l-6.349,7.339c0,0 -11.093,-7.078 -10.176,-8.718Z" style="fill:#161510;fill-opacity:0.6;"/><path d="M218.284,24.136l2.731,7.316l5.968,2.523l11.006,-8.249l8.984,-10.326l-4.89,-6.622l-10.314,-4.36l-13.485,19.718Z" style="fill:#696452;"/><path d="M219.915,29.105l2.732,7.316l5.968,2.523l10.934,-9.754l4.371,-6.874l-6.595,-6.992l-6.428,-4.339l-10.982,18.12Z" style="fill:#161510;fill-opacity:0.6;"/><path d="M120.62,103.482l-0.386,9.111l3.087,10.681l10.324,-3.994l3.972,-5.069l6.665,-1.632l1.389,-7.457l-8.453,-5.105l-6.308,-5.331l-7.923,3.437l-2.367,5.359Z" style="fill:#696452;"/><path d="M122.252,108.451l-0.386,9.111l3.086,10.681l10.324,-3.994l3.973,-5.069l6.665,-1.632l1.389,-7.458l-8.453,-5.104l-6.308,-5.331l-7.923,3.436l-2.367,5.36Z" style="fill:#161510;fill-opacity:0.6;"/><path d="M130.294,95.748l6.284,-11.686l11.823,-6.042l5.178,5.765l2.828,6.632l-6.34,13.689l0.605,9.489l-9.603,0.248l-4.976,-2.602l-3.042,-5.22l-2.757,-10.273Z" style="fill:#696452;"/><path d="M131.926,100.717l6.284,-11.686l11.823,-6.042l5.178,5.764l2.828,6.633l-6.341,13.688l0.606,9.489l-9.603,0.248l-4.976,-2.602l-3.042,-5.219l-2.757,-10.273Z" style="fill:#161510;fill-opacity:0.6;"/><path d="M42.353,190.246l2.731,7.316l5.968,2.523l11.006,-8.249l8.984,-10.326l-4.89,-6.622l-10.314,-4.36l-13.485,19.718Z" style="fill:#696452;"/><path d="M43.984,195.215l2.732,7.316l5.968,2.522l10.934,-9.753l4.371,-6.875l-6.595,-6.991l-6.428,-4.339l-10.982,18.12Z" style="fill:#161510;fill-opacity:0.6;"/><path d="M13.941,204.834l-0.386,9.111l3.086,10.681l10.324,-3.994l3.973,-5.069l6.665,-1.632l1.389,-7.457l-8.453,-5.105l-6.308,-5.331l-7.924,3.436l-2.366,5.36Z" style="fill:#696452;"/><path d="M15.572,209.803l-0.386,9.111l3.087,10.681l10.324,-3.994l3.973,-5.069l6.664,-1.632l1.39,-7.458l-8.454,-5.104l-6.307,-5.331l-7.924,3.436l-2.367,5.36Z" style="fill:#161510;fill-opacity:0.6;"/><path d="M23.615,197.1l6.284,-11.686l11.823,-6.042l5.178,5.764l2.828,6.633l-6.341,13.688l0.606,9.489l-9.604,0.249l-4.975,-2.603l-3.042,-5.219l-2.757,-10.273Z" style="fill:#696452;"/><path d="M25.247,202.069l6.284,-11.686l11.823,-6.042l5.178,5.764l2.828,6.633l-6.341,13.688l0.606,9.489l-9.604,0.248l-4.976,-2.602l-3.042,-5.219l-2.756,-10.273Z" style="fill:#161510;fill-opacity:0.6;"/><path d="M85.39,147.204l5.992,-13.836l11.886,-7.76l2.548,7.829l0.444,6.95l-7.822,14.608l-0.438,6.689l-6.622,-0.654l-8.695,9.817l-6.713,0.185l-1.66,-3.726l1.647,-5.724l2.652,-2.267l6.781,-12.111" style="fill:#696452;"/><path d="M87.022,152.173l5.992,-13.837l11.886,-7.759l2.548,7.829l0.444,6.949l-7.822,14.608l-0.438,6.69l-6.622,-0.655l-8.695,9.818l-6.713,0.185l-1.66,-3.726l1.647,-5.725l2.652,-2.267l6.781,-12.11" style="fill:#161510;fill-opacity:0.6;"/><path d="M57.831,171.782c0.916,-1.64 12.449,-12.169 12.449,-12.169l11.857,-2.272l-0.448,11.463l-7.334,4.357l-6.348,7.339c0,0 -11.093,-7.078 -10.176,-8.718Z" style="fill:#696452;"/><path d="M59.462,176.751c0.917,-1.64 12.45,-12.17 12.45,-12.17l11.857,-2.271l-0.448,11.463l-7.334,4.356l-6.348,7.34c0,0 -11.093,-7.078 -10.177,-8.718Z" style="fill:#161510;fill-opacity:0.6;"/><path d="M101.604,130.331l2.731,7.316l5.969,2.523l11.006,-8.249l8.984,-10.326l-4.891,-6.622l-10.314,-4.36l-13.485,19.718Z" style="fill:#696452;"/><path d="M103.236,135.3l2.731,7.316l5.969,2.522l10.933,-9.753l4.371,-6.875l-6.595,-6.992l-6.427,-4.338l-10.982,18.12Z" style="fill:#161510;fill-opacity:0.6;"/></g></g></g></svg>