<?xml version="1.0" encoding="UTF-8" standalone="no"?><!DOCTYPE svg PUBLIC "-//W3C//DTD SVG 1.1//EN" "http://www.w3.org/Graphics/SVG/1.1/DTD/svg11.dtd"><svg width="100%" height="100%" viewBox="0 0 323 259" version="1.1" xmlns="http://www.w3.org/2000/svg" xmlns:xlink="http://www.w3.org/1999/xlink" xml:space="preserve" xmlns:serif="http://www.serif.com/" style="fill-rule:evenodd;clip-rule:evenodd;stroke-linejoin:round;stroke-miterlimit:1.41421;"><g id="Sand_Ramp_RightUp_low-angle1"><path d="M215.426,108.014l107.331,-53.666l0,96.598l-107.331,53.666" style="fill:#ccc3b0;"/><clipPath id="_clip1"><path d="M215.426,108.014l107.331,-53.666l0,96.598l-107.331,53.666"/></clipPath><g clip-path="url(#_clip1)"><path d="M322.757,129.48c0,0 -32.024,3.078 -45.851,22.925c-13.827,19.848 -36.003,29.261 -61.48,30.74c-25.478,1.48 -65.459,-69.042 -107.331,-53.665c-41.872,15.376 -13.212,68.526 -13.212,68.526l160.009,19.072l73.232,-47.349l-5.367,-40.249Z" style="fill:#b3a890;"/></g><path d="M215.426,204.612l10.733,-5.367l-118.064,59.032l0,-96.598l118.064,-59.032" style="fill:#ccc3b0;"/><clipPath id="_clip2"><path d="M215.426,204.612l10.733,-5.367l-118.064,59.032l0,-96.598l118.064,-59.032"/></clipPath><g clip-path="url(#_clip2)"><path d="M217.702,182.991c0,0 -34.3,3.232 -48.127,23.08c-13.827,19.847 -36.003,29.26 -61.48,30.74c-25.478,1.48 -65.46,-69.042 -107.332,-53.666c-41.872,15.377 -13.212,68.526 -13.212,68.526l160.01,19.073l73.231,-47.349l-3.09,-40.404Z" style="fill:#b3a890;"/></g><path d="M322.757,54.348l-214.662,203.929l-107.332,-53.665l214.663,-203.93l107.331,53.666Z" style="fill:#9f937d;"/></g></svg>