<?xml version="1.0" encoding="UTF-8" standalone="no"?><!DOCTYPE svg PUBLIC "-//W3C//DTD SVG 1.1//EN" "http://www.w3.org/Graphics/SVG/1.1/DTD/svg11.dtd"><svg width="100%" height="100%" viewBox="0 0 223 151" version="1.1" xmlns="http://www.w3.org/2000/svg" xmlns:xlink="http://www.w3.org/1999/xlink" xml:space="preserve" xmlns:serif="http://www.serif.com/" style="fill-rule:evenodd;clip-rule:evenodd;stroke-linejoin:round;stroke-miterlimit:1.41421;"><g id="Stone_Ramp_RightDown_high-angle1"><g><g><path d="M108.11,54.26l-107.509,42.774l107.509,53.824c30.26,-40.834 0,-96.598 0,-96.598Z" style="fill:#413528;"/><clipPath id="_clip1"><path d="M108.11,54.26l-107.509,42.774l107.509,53.824c30.26,-40.834 0,-96.598 0,-96.598Z"/></clipPath><g clip-path="url(#_clip1)"><g><path d="M102.582,181.748l7.471,-8.393l-0.629,-15.38l-4.861,-8.365l-7.639,3.249l-3.734,6.804l-0.661,10.712l10.053,11.373" style="fill:#857c6c;"/><path d="M79.041,151.464l-6.48,-6.062l3.057,-12.565l8.623,-2.463l7.622,-1.443l2.977,3.95l3.5,-1.489l5.378,1.086l1.634,4.319l-5.651,4.448l-4.24,3.091l-7.816,4.704l-8.604,2.424Z" style="fill:#857c6c;"/><path d="M42.055,157.769l-7.621,-4.416l-4.724,-10.592l3.045,-9.558l19.234,-2.963l6.432,7.697l1.005,7.708l-6.328,7.428l-11.043,4.696Z" style="fill:#857c6c;"/><path d="M20.279,121.309l-8.069,-10.665l1.707,-5.942l8.574,-19.294c0,0 7.897,5.94 10.383,6.016c2.486,0.077 7.683,4.453 7.683,4.453l-3.152,9.269l-8.6,6.112l-8.526,10.051Z" style="fill:#857c6c;"/><path d="M68.382,125.981l-10.639,-1.857l-10.285,-7.605l2.016,-7.626l4.769,-5.692l7.679,1.95l4.985,5.389l3.648,6.588l-2.173,8.853" style="fill:#857c6c;"/><path d="M9.569,153.495l9.12,-6.381l10.414,5.504l4.461,14.856l-14.945,3.037l-6.387,-5.869l-2.663,-11.147" style="fill:#857c6c;"/><path d="M97.215,95.683l7.471,-8.393l-0.629,-15.38l-4.861,-8.365l-7.639,3.249l-3.734,6.804l-0.66,10.712l10.052,11.373" style="fill:#857c6c;"/><path d="M84.797,114.215l9.713,-5.466l-1.146,-6.212l-5.191,-3.008l-4.056,1.725l-4.471,4.429l0.085,5.597l5.066,2.935Z" style="fill:#857c6c;"/><path d="M54.513,90.62l5.042,5.431l10.806,-0.849l2.238,-4.698l1.605,-8.155l-10.343,-11.542l-3.071,5.211l-5.436,0.955l-2.99,10.126l2.149,3.521" style="fill:#857c6c;"/><path d="M68.694,67.6l-6.48,-6.062l3.057,-12.565l8.623,-2.463l7.622,-1.443l2.977,3.95l3.5,-1.489l5.378,1.086l1.634,4.32l-5.651,4.448l-4.24,3.09l-7.816,4.704l-8.604,2.424Z" style="fill:#857c6c;"/><path d="M39.956,79.215l-7.621,-4.416l-4.724,-10.592l3.046,-9.558l19.233,-2.964l6.432,7.697l1.006,7.709l-6.329,7.428l-11.043,4.696Z" style="fill:#857c6c;"/><path d="M12.271,45.071l-8.068,-10.664l1.706,-5.942l8.575,-19.295c0,0 7.897,5.94 10.383,6.017c2.485,0.077 7.683,4.452 7.683,4.452l-3.152,9.269l-8.6,6.112l-8.527,10.051Z" style="fill:#857c6c;"/><path d="M59.268,49.162l-10.639,-1.857l-10.284,-7.605l2.016,-7.626l4.769,-5.691l7.679,1.95l4.985,5.388l3.648,6.589l-2.174,8.852" style="fill:#857c6c;"/><path d="M4.203,67.43l9.119,-6.381l10.414,5.504l4.461,14.856l-14.945,3.037l-6.387,-5.869l-2.662,-11.147" style="fill:#857c6c;"/><path d="M91.696,205.551l9.713,-5.466l-1.146,-6.212l-5.191,-3.008l-4.056,1.725l-4.471,4.429l0.085,5.597l5.066,2.935Zm-30.284,-23.595l5.043,5.431l10.805,-0.849l2.238,-4.698l1.605,-8.155l-10.343,-11.542l-3.071,5.211l-5.435,0.955l-2.991,10.126l2.149,3.521Zm42.702,5.063l7.471,-8.393l-0.629,-15.38l-4.861,-8.365l-7.639,3.249l-3.734,6.804l-0.66,10.712l10.052,11.373Zm-93.012,-28.253l2.662,11.147l6.387,5.869l14.945,-3.037l-4.461,-14.856l-10.414,-5.504l-9.119,6.381Zm32.485,4.274l-7.62,-4.416l-4.724,-10.592l3.045,-9.558l19.233,-2.963l6.432,7.697l1.006,7.708l-6.329,7.428l-11.043,4.696Zm36.987,-6.305l-6.48,-6.062l3.057,-12.565l8.623,-2.464l7.622,-1.443l2.977,3.951l3.5,-1.489l5.378,1.086l1.634,4.319l-5.651,4.448l-4.24,3.091l-7.816,4.704l-8.604,2.424Zm-10.66,-25.483l-10.639,-1.857l-10.285,-7.605l2.017,-7.626l4.768,-5.692l7.68,1.95l4.984,5.389l3.648,6.588l-2.173,8.853Zm-48.103,-4.672l-8.068,-10.665l1.706,-5.942l8.575,-19.294c0,0 7.897,5.94 10.383,6.016c2.485,0.077 7.683,4.453 7.683,4.453l-3.152,9.269l-8.6,6.111l-8.527,10.052Zm64.518,-7.094l9.714,-5.466l-1.146,-6.212l-5.191,-3.008l-4.057,1.725l-4.47,4.429l0.085,5.597l5.065,2.935Zm-30.283,-23.595l5.042,5.431l10.806,-0.849l2.238,-4.698l1.605,-8.155l-10.344,-11.542l-3.07,5.211l-5.436,0.955l-2.991,10.126l2.15,3.521Zm42.702,5.063l7.471,-8.393l-0.629,-15.38l-4.861,-8.365l-7.639,3.248l-3.734,6.805l-0.661,10.712l10.053,11.373Zm-93.013,-28.253l2.662,11.147l6.388,5.869l14.945,-3.037l-4.461,-14.856l-10.415,-5.504l-9.119,6.381Zm35.753,11.785l-7.62,-4.416l-4.724,-10.593l3.045,-9.557l19.234,-2.964l6.431,7.697l1.006,7.709l-6.329,7.428l-11.043,4.696Zm28.739,-11.615l-6.48,-6.062l3.056,-12.565l8.623,-2.463l7.623,-1.443l2.976,3.95l3.5,-1.489l5.379,1.086l1.633,4.32l-5.65,4.447l-4.241,3.091l-7.816,4.704l-8.603,2.424Zm-9.426,-18.438l-10.639,-1.857l-10.285,-7.605l2.017,-7.626l4.768,-5.692l7.679,1.951l4.985,5.388l3.648,6.589l-2.173,8.852Zm-46.997,-4.091l-8.069,-10.664l1.707,-5.942l8.574,-19.295c0,0 7.897,5.94 10.383,6.017c2.486,0.077 7.683,4.452 7.683,4.452l-3.152,9.269l-8.599,6.112l-8.527,10.051Z" style="fill:#161510;fill-opacity:0.6;"/></g></g></g><path d="M215.441,0.594l-107.331,53.666l5.366,29.516l-8.588,33.271l3.222,33.811l107.331,-53.666l3.551,-23.242l-5.44,-36.735l1.889,-36.621" style="fill:#6e6861;"/><clipPath id="_clip2"><path d="M215.441,0.594l-107.331,53.666l5.366,29.516l-8.588,33.271l3.222,33.811l107.331,-53.666l3.551,-23.242l-5.44,-36.735l1.889,-36.621"/></clipPath><g clip-path="url(#_clip2)"><g><path d="M209.949,172.571l7.47,-8.946l-0.628,-16.394l-4.862,-8.916l-7.638,3.463l-3.735,7.252l-0.66,11.418l10.053,12.123" style="fill:#797263;"/><path d="M167.247,167.174l5.042,5.788l10.806,-0.904l2.237,-5.008l1.606,-8.692l-10.344,-12.302l-3.07,5.554l-5.436,1.018l-2.991,10.793l2.15,3.753" style="fill:#797263;"/><path d="M186.408,140.291l-6.48,-6.461l3.057,-13.392l8.623,-2.626l7.622,-1.538l2.977,4.21l3.5,-1.587l5.378,1.158l1.634,4.604l-5.651,4.741l-4.24,3.294l-7.816,5.013l-8.604,2.584Z" style="fill:#797263;"/><path d="M149.422,147.012l-7.621,-4.707l-4.724,-11.29l3.045,-10.187l19.234,-3.159l6.431,8.204l1.006,8.216l-6.329,7.917l-11.042,5.006Z" style="fill:#797263;"/><path d="M127.413,115.797l-8.068,-11.367l1.706,-6.333l8.575,-20.566c0,0 7.897,6.331 10.383,6.413c2.485,0.082 7.683,4.745 7.683,4.745l-3.152,9.88l-8.6,6.514l-8.527,10.714Z" style="fill:#797263;"/><path d="M175.749,113.13l-10.64,-1.98l-10.284,-8.106l2.016,-8.128l4.769,-6.067l7.679,2.079l4.985,5.743l3.648,7.023l-2.173,9.436" style="fill:#797263;"/><path d="M109.75,130.375l9.093,-6.35l10.433,5.551l4.516,14.884l-14.931,2.979l-6.407,-5.899l-2.704,-11.165" style="fill:#797263;"/><path d="M204.582,80.837l7.471,-8.946l-0.629,-16.394l-4.861,-8.916l-7.639,3.463l-3.734,7.252l-0.66,11.418l10.052,12.123" style="fill:#797263;"/><path d="M192.164,100.589l9.713,-5.827l-1.146,-6.62l-5.191,-3.207l-4.057,1.839l-4.47,4.721l0.085,5.965l5.066,3.129Z" style="fill:#797263;"/><path d="M168.431,79.583l5.043,5.788l10.805,-0.904l2.238,-5.008l1.605,-8.692l-10.343,-12.302l-3.071,5.554l-5.435,1.018l-2.991,10.793l2.149,3.753" style="fill:#797263;"/><path d="M198.734,42.977l-9.014,-1.578l-5.175,-12.724l5.559,-7.096l5.363,-5.631l4.853,1.742l1.957,-3.306l5.07,-2.136l3.979,2.835l-1.911,7.124l-1.585,5.13l-3.529,8.59l-5.567,7.05Z" style="fill:#797263;"/><path d="M158.02,61.545l-7.62,-4.707l-4.724,-11.29l3.045,-10.187l19.234,-3.159l6.431,8.204l1.006,8.216l-6.329,7.917l-11.043,5.006Z" style="fill:#797263;"/><path d="M122.279,16.416l-8.069,-11.367l1.707,-6.333l8.575,-20.566c0,0 7.897,6.331 10.382,6.413c2.486,0.082 7.683,4.745 7.683,4.745l-3.151,9.88l-8.6,6.514l-8.527,10.714Z" style="fill:#797263;"/><path d="M170.382,21.396l-10.639,-1.98l-10.285,-8.106l2.017,-8.128l4.768,-6.067l7.679,2.079l4.985,5.743l3.648,7.023l-2.173,9.436" style="fill:#797263;"/><path d="M118.843,54.195l9.119,-6.802l10.415,5.868l4.461,15.834l-14.945,3.237l-6.388,-6.256l-2.662,-11.881" style="fill:#797263;"/></g><path d="M201.257,193.325l9.713,-5.827l-1.146,-6.62l-5.191,-3.207l-4.056,1.839l-4.471,4.721l0.085,5.965l5.066,3.129Zm-30.284,-25.149l5.043,5.788l10.805,-0.905l2.238,-5.007l1.605,-8.693l-10.343,-12.301l-3.071,5.554l-5.435,1.018l-2.991,10.793l2.149,3.753Zm42.702,5.396l7.471,-8.945l-0.629,-16.394l-4.861,-8.916l-7.639,3.463l-3.734,7.252l-0.66,11.418l10.052,12.122Zm-100.199,-42.195l2.704,11.165l6.408,5.899l14.93,-2.979l-4.516,-14.885l-10.432,-5.55l-9.094,6.35Zm39.672,16.637l-7.62,-4.707l-4.724,-11.29l3.045,-10.188l19.233,-3.158l6.432,8.204l1.006,8.216l-6.329,7.917l-11.043,5.006Zm36.987,-6.721l-6.48,-6.461l3.057,-13.393l8.623,-2.625l7.622,-1.539l2.977,4.211l3.5,-1.587l5.378,1.157l1.634,4.605l-5.651,4.74l-4.24,3.295l-7.817,5.013l-8.603,2.584Zm-58.995,-24.495l-8.069,-11.366l1.707,-6.334l8.575,-20.565c0,0 7.896,6.331 10.382,6.413c2.486,0.081 7.683,4.745 7.683,4.745l-3.152,9.88l-8.599,6.514l-8.527,10.713Zm48.335,-2.666l-10.639,-1.98l-10.285,-8.106l2.017,-8.128l4.768,-6.067l7.68,2.079l4.984,5.743l3.648,7.023l-2.173,9.436Zm16.415,-12.541l9.714,-5.827l-1.146,-6.62l-5.191,-3.207l-4.057,1.839l-4.47,4.721l0.085,5.965l5.065,3.129Zm-23.732,-21.006l5.042,5.788l10.806,-0.905l2.238,-5.007l1.605,-8.693l-10.344,-12.301l-3.07,5.554l-5.436,1.018l-2.99,10.793l2.149,3.753Zm36.151,1.253l7.47,-8.945l-0.628,-16.394l-4.861,-8.916l-7.639,3.463l-3.734,7.252l-0.661,11.418l10.053,12.122Zm-85.739,-26.641l2.662,11.881l6.387,6.256l14.945,-3.237l-4.461,-15.834l-10.414,-5.868l-9.119,6.802Zm39.177,7.35l-7.621,-4.707l-4.724,-11.29l3.046,-10.187l19.233,-3.159l6.432,8.204l1.006,8.216l-6.329,7.917l-11.043,5.006Zm40.713,-18.568l-9.013,-1.578l-5.175,-12.725l5.558,-7.096l5.363,-5.63l4.853,1.742l1.958,-3.307l5.07,-2.136l3.978,2.836l-1.911,7.124l-1.585,5.13l-3.528,8.59l-5.568,7.05Zm-32.928,-25.797l-6.062,2.236l-10.285,-8.106l2.016,-8.128l4.769,-6.067l7.679,2.079l4.985,5.743l3.648,7.023l-6.75,5.22Zm-43.526,-0.764l-8.069,-11.367l1.707,-6.334l8.574,-20.565c0,0 7.897,6.331 10.383,6.413c2.486,0.081 7.683,4.745 7.683,4.745l-3.152,9.88l-8.6,6.514l-8.526,10.714Z" style="fill:#161510;fill-opacity:0.2;"/></g></g><path d="M0.601,97.034l107.331,-53.665l107.509,-42.843l-10.733,7.116l-32.377,17.571l-33.71,15.631l-30.511,13.348l-107.509,42.842Z" style="fill:#696452;"/><g><g><path d="M179.148,20.431l8.845,-3.116l2.857,-4.297l-6.71,-0.612l-4.297,-1.816l-8.382,0.017l-13.596,6.879l0.092,4.144l5.915,2.093l15.276,-3.292Z" style="fill:#5d5348;"/><path d="M146.793,22.356l11.476,-3.956l-9.843,14.85l-9.889,4.005l-8.054,4.813l-0.113,-3.252l-6.525,-0.788l5.04,-7.029l5.461,-4.69l8.721,-3.721l3.726,-0.232Z" style="fill:#5d5348;"/><path d="M107.294,38.552l-7.74,5.013l-8.737,7.417l4.351,2.223l4.66,-1.152l2.009,1.973l6.436,-3.636l3.517,-6.583l3.911,-5.777l-3.653,-1.496l-4.754,2.018Z" style="fill:#5d5348;"/><path d="M71.462,54.208l10.472,-3.909l6.224,1.711l-4.384,5.532l-5.339,5.003l-12.171,5.023l-7.965,5.66l-1.116,-4.04l1.73,-3.646l4.125,-4.292l8.424,-7.042Z" style="fill:#5d5348;"/><path d="M33.361,73.264c1.473,-0.534 11.463,-1.501 11.463,-1.501l3.04,3.87l-9.733,6.324l-4.375,-0.716l-6.804,1.41c0,0 4.936,-8.854 6.409,-9.387Z" style="fill:#5d5348;"/><path d="M113.908,43.519l-8.613,8.006l-3.329,7.199l5.578,-0.902l10.398,-4.776l7.842,-7.005l5.919,-6.886l-6.429,1.135l-6.667,1.775l-4.699,1.454" style="fill:#5d5348;"/></g><g><g opacity="0.3"><path d="M181.296,22.171l8.845,-3.116l1.728,-3.684l-5.582,-1.224l-4.297,-1.817l-8.382,0.017l-13.596,6.879l0.092,4.144l5.915,2.094l15.277,-3.293Z" style="fill:#161510;"/><path d="M149.337,23.438l11.475,-3.957l-9.842,14.85l-9.89,4.005l-8.054,4.814l-0.113,-3.253l-6.524,-0.788l5.04,-7.029l5.461,-4.689l8.72,-3.722l3.727,-0.231Z" style="fill:#161510;"/><path d="M109.837,39.633l-7.739,5.013l-8.738,7.418l1.807,1.135l4.395,-0.981l4.819,2.889l6.435,-3.636l3.517,-6.583l3.912,-5.777l-3.654,-1.495l-4.754,2.017Z" style="fill:#161510;"/><path d="M74.005,55.29l10.473,-3.91l6.224,1.711l-4.384,5.532l-5.34,5.003l-12.171,5.024l-7.964,5.659l-1.117,-4.039l1.73,-3.646l4.125,-4.293l8.424,-7.041Z" style="fill:#161510;"/><path d="M36.009,75.15c1.473,-0.533 11.359,-2.305 11.359,-2.305l3.039,3.869l-9.733,6.324l-4.375,-0.715l-6.804,1.409c0,0 5.041,-8.048 6.514,-8.582Z" style="fill:#161510;"/><path d="M120.918,44.595l-8.613,8.007l-3.328,7.198l5.578,-0.902l10.397,-4.775l7.843,-7.006l5.919,-6.886l-6.429,1.135l-6.668,1.776l-4.699,1.453" style="fill:#161510;"/></g></g></g><g><g><path d="M164.805,124.267l-11.496,4.495l-1.806,-6.306l-3.268,-22.04c0,0 10.032,1.348 12.203,0.135c2.171,-1.213 9.03,0.1 9.03,0.1l2.398,10.089l-4.004,10.018l-3.057,3.509Z" style="fill:#797263;"/><path d="M206.113,107.107l-10.135,3.795l-12.993,-1.636l-2.467,-8.003l0.954,-7.657l7.651,-2.183l7.233,2.348l6.749,4.132l3.008,9.204" style="fill:#797263;"/><path d="M214.146,64.566l1.782,-11.517l-8.998,-13.718l-8.765,-5.128l-4.756,6.907l0.544,8.139l5.326,10.122l14.867,5.195" style="fill:#797263;"/><path d="M213.702,87.894l5.313,-10.003l-4.398,-5.08l-6.101,-0.068l-2.526,3.669l-1.393,6.35l3.151,5.066l5.954,0.066Z" style="fill:#797263;"/><path d="M182.534,82.148l7.305,2.356l8.789,-6.351l-0.667,-5.444l-3.111,-8.274l-15.208,-5.2l0.236,6.343l-4.13,3.677l3.008,10.788l3.778,2.105" style="fill:#797263;"/><path d="M193.621,44.834l-8.535,3.3l-10.999,-8.229l1.1,-8.947l1.687,-7.59l5.056,-1.012l-0.029,-3.843l3.24,-4.445l4.871,0.375l2.04,7.089l1.29,5.212l1.41,9.178l-1.131,8.912Z" style="fill:#797263;"/><path d="M164.307,72.07l-8.956,-0.099l-9.873,-7.233l-2.648,-10.298l14.844,-12.63l9.743,3.708l5.102,6.518l-1.336,10.048l-6.876,9.986Z" style="fill:#797263;"/><path d="M126.957,85.992l4.301,-10.532l11.948,-0.349l11.993,11.261l-11.131,10.485l-8.7,-2.063l-8.411,-8.802" style="fill:#797263;"/></g><path d="M171.374,119.226l-14.868,7.519l-1.294,-5.354l-3.268,-22.04c0,0 10.032,1.348 12.203,0.135c2.171,-1.213 9.03,0.1 9.03,0.1l2.398,10.089l-4.201,9.551Zm38.448,-13.184l-10.135,3.795l-12.993,-1.636l-2.467,-8.003l0.954,-7.657l7.651,-2.183l7.233,2.348l6.749,4.132l3.008,9.204Zm7.589,-19.213l5.313,-10.003l-4.398,-5.08l-6.101,-0.068l-2.526,3.669l-1.393,6.35l3.151,5.066l5.954,0.066Zm-31.168,-5.746l7.305,2.356l8.789,-6.351l-0.667,-5.444l-3.111,-8.274l-15.208,-5.2l0.236,6.343l-4.13,3.677l3.008,10.788l3.778,2.105Zm31.612,-17.582l1.782,-11.517l-8.998,-13.718l-8.765,-5.128l-4.756,6.907l0.544,8.139l5.327,10.122l14.866,5.195Zm-87.189,21.426l8.411,8.802l8.7,2.063l11.131,-10.485l-11.993,-11.261l-11.948,0.349l-4.301,10.532Zm37.35,-13.922l-8.956,-0.099l-9.873,-7.233l-2.648,-10.298l14.844,-12.63l9.743,3.708l5.102,6.518l-1.336,10.048l-6.876,9.986Zm27.389,-20.738l-8.535,3.3l-10.999,-8.229l1.099,-8.947l1.688,-7.59l5.056,-1.012l-0.029,-3.843l3.24,-4.446l4.871,0.376l2.04,7.088l1.289,5.212l1.41,9.179l-1.13,8.912Z" style="fill:#161510;fill-opacity:0.2;"/></g><g><path d="M159.242,109.943l-0.716,-11.213l-11.38,-10.366l-9.366,-2.424l-3.061,7.716l2.214,7.439l7.154,8.001l15.155,0.847" style="fill:#797263;"/><path d="M125.62,136.751l7.407,0.232l6.993,-8.281l-1.768,-4.894l-4.671,-6.875l-15.479,-0.759l1.547,5.847l-3.143,4.537l5.099,9.246l4.015,0.947" style="fill:#797263;"/><path d="M117.031,107.382l-8.867,0.346l-6.786,-11.007l4.311,-7.864l4.332,-6.435l4.902,0.66l1.402,-3.535l4.554,-3.062l4.22,1.875l-0.81,7.146l-0.783,5.188l-2.15,8.865l-4.325,7.823Z" style="fill:#857c6c;"/><path d="M99.636,136.128l-8.498,2.315l-10.854,-4.088l-4.656,-8.885l11.415,-15.761l9.995,0.837l6.189,4.705l0.833,9.722l-4.424,11.155Z" style="fill:#857c6c;"/><path d="M58.398,125.98l-13.257,-1.759l-3.026,-5.391l-7.692,-19.663c0,0 9.776,-1.44 11.578,-3.154c1.802,-1.714 8.568,-2.333 8.568,-2.333l4.375,8.758l-1.699,10.412l1.153,13.13Z" style="fill:#857c6c;"/><path d="M95.539,95.057l-8.8,6.26l-12.639,1.968l-4.006,-6.796l-0.695,-7.392l6.786,-4.09l7.336,0.243l7.25,2.038l4.768,7.769" style="fill:#857c6c;"/><path d="M98.713,75.112l2.941,-10.751l-5.223,-3.552l-5.789,1.577l-1.625,4.097l0.007,6.293l4.04,3.875l5.649,-1.539Z" style="fill:#857c6c;"/><path d="M68.747,83.851l7.407,0.232l6.993,-8.281l-1.768,-4.894l-4.671,-6.875l-15.479,-0.759l1.547,5.847l-3.143,4.537l5.099,9.246l4.015,0.947" style="fill:#857c6c;"/><path d="M54.22,92.208l-8.498,2.314l-10.854,-4.087l-4.656,-8.886l11.415,-15.761l9.995,0.838l6.189,4.704l0.833,9.723l-4.424,11.155Z" style="fill:#857c6c;"/><path d="M8.78,99.534l1.873,-10.972l11.237,-3.536l13.701,7.272l-8.348,12.763l-8.664,0.416l-9.799,-5.943" style="fill:#857c6c;"/><path d="M126.431,138.42l18.415,-7.102l-1.768,-4.894l-4.671,-6.875l-15.48,-0.759l1.547,5.847l-3.142,4.537l5.099,9.246Zm37.637,-25.861l-0.716,-11.213l-11.38,-10.366l-9.366,-2.424l-3.061,7.716l2.214,7.439l7.154,8.001l15.155,0.847Zm-59.606,26.185l-8.498,2.315l-10.854,-4.088l-4.656,-8.885l11.415,-15.761l9.995,0.837l6.189,4.704l0.833,9.723l-4.424,11.155Zm21.519,-30.736l-8.867,0.347l-6.786,-11.008l4.311,-7.864l4.332,-6.435l4.902,0.66l1.402,-3.535l4.554,-3.062l4.22,1.875l-0.81,7.146l-0.783,5.188l-2.15,8.866l-4.325,7.822Zm-25.616,-10.335l-8.801,6.26l-12.639,1.967l-4.005,-6.795l-0.695,-7.392l6.786,-4.09l7.336,0.243l7.25,2.038l4.768,7.769Zm-37.141,30.923l-13.257,-1.759l-3.026,-5.392l-7.692,-19.662c0,0 9.776,-1.44 11.578,-3.154c1.802,-1.714 8.568,-2.334 8.568,-2.334l4.375,8.758l-1.7,10.413l1.154,13.13Zm40.315,-50.868l2.941,-10.751l-5.223,-3.552l-5.789,1.577l-1.625,4.097l0.007,6.293l4.04,3.875l5.649,-1.539Zm-32.387,8.166l7.406,0.232l6.994,-8.281l-1.768,-4.895l-4.671,-6.875l-15.48,-0.758l1.547,5.847l-3.142,4.537l5.099,9.246l4.015,0.947Zm-57.546,16.255l9.798,5.943l8.665,-0.415l8.348,-12.763l-8.018,-4.054l-16.92,0.318l-1.873,10.971Zm45.301,-6.235l-8.498,2.314l-10.854,-4.087l-5.495,-13.836l12.254,-10.811l9.995,0.838l6.189,4.704l0.833,9.723l-4.424,11.155Z" style="fill:#161510;fill-opacity:0.6;"/></g></g></svg>