<?xml version="1.0" encoding="UTF-8" standalone="no"?><!DOCTYPE svg PUBLIC "-//W3C//DTD SVG 1.1//EN" "http://www.w3.org/Graphics/SVG/1.1/DTD/svg11.dtd"><svg width="100%" height="100%" viewBox="0 0 331 163" version="1.1" xmlns="http://www.w3.org/2000/svg" xmlns:xlink="http://www.w3.org/1999/xlink" xml:space="preserve" xmlns:serif="http://www.serif.com/" style="fill-rule:evenodd;clip-rule:evenodd;stroke-linejoin:round;stroke-miterlimit:1.41421;"><g id="Stone_Ramp_LeftDown_low-angle1"><g><g><path d="M115.41,65.769l214.683,-10.744l-214.683,107.342c-30.26,-40.833 0,-96.598 0,-96.598Z" style="fill:#6e6861;"/><clipPath id="_clip1"><path d="M115.41,65.769l214.683,-10.744l-214.683,107.342c-30.26,-40.833 0,-96.598 0,-96.598Z"/></clipPath><g clip-path="url(#_clip1)"><g><path d="M120.938,193.258l-7.471,-8.393l0.629,-15.381l4.861,-8.365l7.639,3.249l3.734,6.804l0.66,10.713l-10.052,11.373" style="fill:#797263;"/><path d="M144.478,162.973l6.48,-6.062l-3.057,-12.565l-8.623,-2.463l-7.622,-1.443l-2.977,3.95l-3.5,-1.489l-5.378,1.086l-1.634,4.32l5.651,4.448l4.24,3.09l7.817,4.704l8.603,2.424Z" style="fill:#797263;"/><path d="M181.465,169.278l7.62,-4.416l4.724,-10.592l-3.045,-9.558l-19.233,-2.963l-6.432,7.697l-1.006,7.708l6.329,7.428l11.043,4.696Z" style="fill:#797263;"/><path d="M203.241,132.818l8.068,-10.665l-1.706,-5.941l-8.575,-19.295c0,0 -7.897,5.94 -10.383,6.017c-2.485,0.076 -7.683,4.452 -7.683,4.452l3.152,9.269l8.6,6.112l8.527,10.051Z" style="fill:#797263;"/><path d="M155.138,137.49l10.639,-1.857l10.285,-7.605l-2.017,-7.626l-4.768,-5.692l-7.679,1.951l-4.985,5.388l-3.648,6.589l2.173,8.852" style="fill:#797263;"/><path d="M213.95,165.005l-9.119,-6.382l-10.414,5.505l-4.461,14.856l14.945,3.036l6.387,-5.869l2.662,-11.146" style="fill:#797263;"/><path d="M126.304,107.193l-7.47,-8.393l0.628,-15.381l4.862,-8.365l7.638,3.249l3.735,6.804l0.66,10.713l-10.053,11.373" style="fill:#797263;"/><path d="M138.723,125.725l-9.713,-5.467l1.145,-6.212l5.192,-3.008l4.056,1.725l4.47,4.429l-0.085,5.597l-5.065,2.936Z" style="fill:#797263;"/><path d="M169.006,102.13l-5.042,5.43l-10.806,-0.849l-2.237,-4.698l-1.606,-8.155l10.344,-11.542l3.07,5.211l5.436,0.956l2.991,10.126l-2.15,3.521" style="fill:#797263;"/><path d="M154.826,79.109l6.479,-6.062l-3.056,-12.564l-8.623,-2.464l-7.623,-1.443l-2.976,3.95l-3.5,-1.488l-5.379,1.085l-1.633,4.32l5.651,4.448l4.24,3.09l7.816,4.704l8.604,2.424Z" style="fill:#797263;"/><path d="M183.564,90.724l7.62,-4.416l4.724,-10.592l-3.045,-9.558l-19.234,-2.963l-6.431,7.697l-1.006,7.708l6.329,7.428l11.043,4.696Z" style="fill:#797263;"/><path d="M211.248,56.581l8.069,-10.665l-1.707,-5.942l-8.574,-19.294c0,0 -7.897,5.94 -10.383,6.016c-2.486,0.077 -7.683,4.453 -7.683,4.453l3.152,9.268l8.6,6.112l8.526,10.052Z" style="fill:#797263;"/><path d="M164.251,60.672l10.639,-1.857l10.285,-7.606l-2.017,-7.625l-4.768,-5.692l-7.679,1.95l-4.985,5.388l-3.648,6.589l2.173,8.853" style="fill:#797263;"/><path d="M219.317,78.94l-9.119,-6.382l-10.415,5.505l-4.461,14.855l14.945,3.037l6.388,-5.869l2.662,-11.146" style="fill:#797263;"/><path d="M131.824,217.061l-9.714,-5.467l1.146,-6.212l5.191,-3.008l4.057,1.725l4.47,4.429l-0.085,5.597l-5.065,2.936Zm30.283,-23.595l-5.042,5.43l-10.806,-0.849l-2.238,-4.698l-1.605,-8.155l10.344,-11.542l3.07,5.211l5.436,0.956l2.991,10.126l-2.15,3.521Zm-42.702,5.063l-7.471,-8.393l0.629,-15.381l4.861,-8.365l7.639,3.249l3.734,6.804l0.661,10.713l-10.053,11.373Zm93.013,-28.253l-2.662,11.146l-6.388,5.869l-14.945,-3.037l4.461,-14.855l10.415,-5.505l9.119,6.382Zm-32.486,4.273l7.621,-4.416l4.724,-10.592l-3.045,-9.558l-19.234,-2.963l-6.431,7.697l-1.006,7.708l6.329,7.428l11.042,4.696Zm-36.986,-6.305l6.48,-6.062l-3.057,-12.565l-8.623,-2.463l-7.622,-1.443l-2.977,3.95l-3.5,-1.489l-5.378,1.086l-1.634,4.32l5.651,4.448l4.24,3.09l7.816,4.704l8.604,2.424Zm10.659,-25.483l10.639,-1.857l10.285,-7.605l-2.016,-7.626l-4.769,-5.692l-7.679,1.951l-4.985,5.388l-3.648,6.589l2.173,8.852Zm48.103,-4.672l8.069,-10.665l-1.707,-5.941l-8.574,-19.295c0,0 -7.897,5.94 -10.383,6.017c-2.486,0.076 -7.683,4.452 -7.683,4.452l3.152,9.269l8.6,6.112l8.526,10.051Zm-64.518,-7.093l-9.713,-5.467l1.146,-6.212l5.191,-3.008l4.056,1.725l4.471,4.429l-0.085,5.597l-5.066,2.936Zm30.284,-23.595l-5.042,5.43l-10.806,-0.849l-2.238,-4.698l-1.605,-8.155l10.343,-11.542l3.071,5.211l5.436,0.956l2.99,10.126l-2.149,3.521Zm-42.702,5.063l-7.471,-8.393l0.629,-15.381l4.861,-8.365l7.639,3.249l3.734,6.804l0.66,10.713l-10.052,11.373Zm93.012,-28.253l-2.662,11.146l-6.387,5.869l-14.945,-3.037l4.461,-14.855l10.414,-5.505l9.119,6.382Zm-35.753,11.784l7.621,-4.416l4.724,-10.592l-3.046,-9.558l-19.233,-2.963l-6.432,7.697l-1.006,7.708l6.329,7.428l11.043,4.696Zm-28.738,-11.615l6.48,-6.062l-3.057,-12.564l-8.623,-2.464l-7.622,-1.443l-2.977,3.95l-3.5,-1.488l-5.378,1.085l-1.634,4.32l5.651,4.448l4.24,3.09l7.816,4.704l8.604,2.424Zm9.426,-18.437l10.639,-1.858l10.284,-7.605l-2.016,-7.625l-4.769,-5.692l-7.679,1.95l-4.985,5.388l-3.647,6.589l2.173,8.853Zm46.997,-4.091l8.068,-10.665l-1.706,-5.942l-8.575,-19.294c0,0 -7.897,5.94 -10.383,6.016c-2.485,0.077 -7.683,4.452 -7.683,4.452l3.152,9.269l8.6,6.112l8.527,10.052Z" style="fill:#161510;fill-opacity:0.2;"/></g><g><path d="M210.18,177.654l-7.47,-8.393l0.628,-15.381l4.862,-8.364l7.638,3.248l3.735,6.804l0.66,10.713l-10.053,11.373" style="fill:#797263;"/><path d="M252.882,172.591l-5.042,5.43l-10.806,-0.848l-2.237,-4.699l-1.606,-8.155l10.344,-11.541l3.071,5.211l5.435,0.955l2.991,10.126l-2.15,3.521" style="fill:#797263;"/><path d="M233.721,147.369l6.48,-6.062l-3.057,-12.564l-8.623,-2.464l-7.622,-1.443l-2.977,3.95l-3.5,-1.488l-5.378,1.085l-1.634,4.32l5.651,4.448l4.24,3.09l7.816,4.704l8.604,2.424Z" style="fill:#797263;"/><path d="M270.708,153.675l7.62,-4.416l4.724,-10.593l-3.045,-9.557l-19.234,-2.964l-6.431,7.697l-1.006,7.709l6.329,7.427l11.043,4.697Z" style="fill:#797263;"/><path d="M292.483,117.214l8.069,-10.664l-1.707,-5.942l-8.574,-19.295c0,0 -7.897,5.94 -10.383,6.017c-2.486,0.077 -7.683,4.452 -7.683,4.452l3.152,9.269l8.6,6.112l8.526,10.051Z" style="fill:#797263;"/><path d="M244.381,121.886l10.639,-1.857l10.284,-7.605l-2.016,-7.626l-4.769,-5.691l-7.679,1.95l-4.985,5.388l-3.648,6.589l2.174,8.852" style="fill:#797263;"/><path d="M303.193,149.401l-9.119,-6.382l-10.415,5.505l-4.461,14.856l14.945,3.036l6.388,-5.869l2.662,-11.146" style="fill:#797263;"/><path d="M215.547,91.589l-7.471,-8.393l0.629,-15.381l4.861,-8.364l7.639,3.248l3.734,6.804l0.66,10.713l-10.052,11.373" style="fill:#797263;"/><path d="M227.965,110.121l-9.713,-5.467l1.146,-6.211l5.191,-3.009l4.057,1.725l4.47,4.43l-0.085,5.596l-5.066,2.936Z" style="fill:#797263;"/><path d="M258.249,86.526l-5.042,5.43l-10.806,-0.848l-2.238,-4.699l-1.605,-8.155l10.344,-11.541l3.07,5.211l5.436,0.955l2.99,10.126l-2.149,3.521" style="fill:#797263;"/><path d="M244.068,63.506l6.48,-6.063l-3.057,-12.564l-8.623,-2.464l-7.622,-1.443l-2.977,3.95l-3.5,-1.488l-5.378,1.085l-1.634,4.32l5.651,4.448l4.24,3.091l7.816,4.703l8.604,2.425Z" style="fill:#797263;"/><path d="M272.806,75.12l7.621,-4.416l4.724,-10.592l-3.045,-9.558l-19.234,-2.963l-6.432,7.697l-1.005,7.708l6.328,7.428l11.043,4.696Z" style="fill:#797263;"/><path d="M300.491,40.977l8.069,-10.665l-1.707,-5.942l-8.575,-19.294c0,0 -7.897,5.94 -10.382,6.017c-2.486,0.076 -7.683,4.452 -7.683,4.452l3.151,9.269l8.6,6.112l8.527,10.051Z" style="fill:#797263;"/><path d="M253.494,45.068l10.639,-1.857l10.285,-7.605l-2.017,-7.626l-4.768,-5.692l-7.68,1.95l-4.984,5.389l-3.648,6.588l2.173,8.853" style="fill:#797263;"/><path d="M308.56,63.336l-9.12,-6.382l-10.414,5.505l-4.461,14.856l14.945,3.036l6.387,-5.869l2.663,-11.146" style="fill:#797263;"/><path d="M221.066,201.457l-9.713,-5.467l1.146,-6.211l5.191,-3.009l4.057,1.725l4.47,4.43l-0.085,5.596l-5.066,2.936Zm30.284,-23.595l-5.042,5.43l-10.806,-0.848l-2.238,-4.699l-1.605,-8.155l10.343,-11.541l3.071,5.211l5.436,0.955l2.99,10.126l-2.149,3.521Zm-42.702,5.063l-7.471,-8.393l0.629,-15.381l4.861,-8.364l7.639,3.248l3.734,6.804l0.66,10.713l-10.052,11.373Zm93.012,-28.253l-2.662,11.146l-6.387,5.869l-14.945,-3.036l4.461,-14.856l10.414,-5.505l9.119,6.382Zm-32.485,4.274l7.62,-4.416l4.724,-10.593l-3.045,-9.557l-19.233,-2.964l-6.432,7.697l-1.006,7.709l6.329,7.427l11.043,4.697Zm-36.987,-6.306l6.48,-6.062l-3.056,-12.564l-8.623,-2.464l-7.623,-1.443l-2.976,3.95l-3.5,-1.488l-5.379,1.085l-1.634,4.32l5.651,4.448l4.24,3.09l7.817,4.704l8.603,2.424Zm10.66,-25.483l10.639,-1.857l10.285,-7.605l-2.017,-7.626l-4.768,-5.691l-7.679,1.95l-4.985,5.388l-3.648,6.589l2.173,8.852Zm48.103,-4.672l8.069,-10.664l-1.707,-5.942l-8.575,-19.295c0,0 -7.897,5.94 -10.382,6.017c-2.486,0.076 -7.683,4.452 -7.683,4.452l3.151,9.269l8.6,6.112l8.527,10.051Zm-64.518,-7.093l-9.713,-5.467l1.145,-6.211l5.192,-3.009l4.056,1.725l4.47,4.43l-0.084,5.596l-5.066,2.936Zm30.283,-23.595l-5.042,5.43l-10.806,-0.848l-2.237,-4.699l-1.606,-8.155l10.344,-11.541l3.071,5.211l5.435,0.955l2.991,10.126l-2.15,3.521Zm-42.702,5.063l-7.47,-8.393l0.628,-15.381l4.862,-8.365l7.638,3.249l3.735,6.804l0.66,10.713l-10.053,11.373Zm93.013,-28.253l-2.662,11.146l-6.388,5.869l-14.945,-3.036l4.461,-14.856l10.415,-5.505l9.119,6.382Zm-35.753,11.784l7.62,-4.416l4.724,-10.592l-3.045,-9.558l-19.233,-2.963l-6.432,7.697l-1.006,7.708l6.329,7.428l11.043,4.696Zm-28.738,-11.614l6.479,-6.063l-3.056,-12.564l-8.623,-2.464l-7.622,-1.443l-2.977,3.95l-3.5,-1.488l-5.378,1.085l-1.634,4.32l5.651,4.448l4.24,3.091l7.816,4.703l8.604,2.425Zm9.425,-18.438l10.639,-1.857l10.285,-7.606l-2.017,-7.625l-4.768,-5.692l-7.679,1.95l-4.985,5.389l-3.648,6.588l2.173,8.853Zm46.997,-4.091l8.069,-10.665l-1.707,-5.942l-8.574,-19.294c0,0 -7.897,5.94 -10.383,6.016c-2.486,0.077 -7.683,4.453 -7.683,4.453l3.152,9.269l8.6,6.112l8.526,10.051Z" style="fill:#161510;fill-opacity:0.2;"/></g></g></g><path d="M8.078,12.103l107.332,53.666l-5.367,29.516l8.588,33.272l-3.221,33.81l-107.332,-53.666l-3.551,-23.241l5.441,-36.735l-1.89,-36.622" style="fill:#413528;"/><clipPath id="_clip2"><path d="M8.078,12.103l107.332,53.666l-5.367,29.516l8.588,33.272l-3.221,33.81l-107.332,-53.666l-3.551,-23.241l5.441,-36.735l-1.89,-36.622"/></clipPath><g clip-path="url(#_clip2)"><g><path d="M13.571,184.08l-7.471,-8.946l0.629,-16.394l4.861,-8.915l7.639,3.462l3.734,7.252l0.66,11.419l-10.052,12.122" style="fill:#857c6c;"/><path d="M56.273,178.683l-5.042,5.789l-10.806,-0.905l-2.238,-5.008l-1.605,-8.692l10.344,-12.302l3.07,5.554l5.436,1.018l2.99,10.794l-2.149,3.752" style="fill:#857c6c;"/><path d="M37.111,151.801l6.48,-6.462l-3.056,-13.392l-8.623,-2.626l-7.623,-1.538l-2.976,4.21l-3.5,-1.586l-5.379,1.157l-1.634,4.604l5.651,4.741l4.24,3.294l7.817,5.014l8.603,2.584Z" style="fill:#857c6c;"/><path d="M74.098,158.521l7.62,-4.707l4.724,-11.29l-3.045,-10.187l-19.233,-3.159l-6.432,8.204l-1.006,8.216l6.329,7.918l11.043,5.005Z" style="fill:#857c6c;"/><path d="M96.106,127.306l8.069,-11.367l-1.707,-6.333l-8.574,-20.566c0,0 -7.897,6.332 -10.383,6.413c-2.486,0.082 -7.683,4.746 -7.683,4.746l3.152,9.879l8.6,6.515l8.526,10.713Z" style="fill:#857c6c;"/><path d="M47.771,124.639l10.639,-1.979l10.285,-8.107l-2.017,-8.128l-4.768,-6.066l-7.679,2.079l-4.985,5.743l-3.648,7.022l2.173,9.436" style="fill:#857c6c;"/><path d="M113.77,141.884l-9.093,-6.35l-10.433,5.551l-4.516,14.884l14.93,2.979l6.408,-5.899l2.704,-11.165" style="fill:#857c6c;"/><path d="M18.937,92.346l-7.47,-8.946l0.628,-16.394l4.862,-8.915l7.638,3.462l3.735,7.252l0.66,11.419l-10.053,12.122" style="fill:#857c6c;"/><path d="M31.356,112.098l-9.713,-5.826l1.145,-6.621l5.192,-3.206l4.056,1.838l4.47,4.721l-0.084,5.966l-5.066,3.128Z" style="fill:#857c6c;"/><path d="M55.088,91.093l-5.042,5.788l-10.806,-0.905l-2.237,-5.008l-1.606,-8.692l10.344,-12.302l3.07,5.554l5.436,1.018l2.991,10.794l-2.15,3.753" style="fill:#857c6c;"/><path d="M24.786,54.486l9.014,-1.578l5.175,-12.724l-5.559,-7.096l-5.363,-5.631l-4.853,1.743l-1.958,-3.307l-5.069,-2.136l-3.979,2.835l1.911,7.124l1.585,5.131l3.529,8.589l5.567,7.05Z" style="fill:#857c6c;"/><path d="M65.499,73.054l7.621,-4.707l4.724,-11.29l-3.045,-10.187l-19.234,-3.158l-6.432,8.203l-1.005,8.217l6.328,7.917l11.043,5.005Z" style="fill:#857c6c;"/><path d="M101.24,27.925l8.069,-11.367l-1.706,-6.333l-8.575,-20.566c0,0 -7.897,6.332 -10.383,6.413c-2.486,0.082 -7.683,4.746 -7.683,4.746l3.152,9.879l8.6,6.515l8.526,10.713Z" style="fill:#857c6c;"/><path d="M53.138,32.905l10.639,-1.979l10.284,-8.107l-2.016,-8.128l-4.769,-6.066l-7.679,2.078l-4.985,5.744l-3.647,7.022l2.173,9.436" style="fill:#857c6c;"/><path d="M104.677,65.705l-9.12,-6.802l-10.414,5.867l-4.461,15.834l14.945,3.237l6.387,-6.256l2.663,-11.88" style="fill:#857c6c;"/></g><path d="M22.263,204.834l-9.714,-5.826l1.146,-6.621l5.191,-3.207l4.057,1.839l4.47,4.721l-0.085,5.966l-5.065,3.128Zm30.283,-25.149l-5.042,5.788l-10.806,-0.904l-2.238,-5.008l-1.605,-8.692l10.344,-12.302l3.07,5.554l5.436,1.018l2.991,10.793l-2.15,3.753Zm-42.702,5.397l-7.47,-8.946l0.628,-16.394l4.861,-8.916l7.639,3.463l3.735,7.252l0.66,11.419l-10.053,12.122Zm100.199,-42.196l-2.704,11.165l-6.408,5.899l-14.93,-2.979l4.516,-14.884l10.433,-5.551l9.093,6.35Zm-39.672,16.637l7.621,-4.707l4.724,-11.29l-3.045,-10.187l-19.234,-3.159l-6.431,8.204l-1.006,8.216l6.329,7.917l11.042,5.006Zm-36.986,-6.721l6.48,-6.461l-3.057,-13.392l-8.623,-2.626l-7.622,-1.538l-2.977,4.21l-3.5,-1.586l-5.378,1.157l-1.634,4.604l5.651,4.741l4.24,3.294l7.816,5.013l8.604,2.584Zm58.995,-24.494l8.068,-11.367l-1.706,-6.333l-8.575,-20.566c0,0 -7.897,6.331 -10.383,6.413c-2.485,0.082 -7.683,4.746 -7.683,4.746l3.152,9.879l8.6,6.515l8.527,10.713Zm-48.336,-2.667l10.639,-1.98l10.285,-8.106l-2.016,-8.128l-4.769,-6.066l-7.679,2.078l-4.985,5.744l-3.648,7.022l2.173,9.436Zm-16.415,-12.541l-9.713,-5.826l1.146,-6.621l5.191,-3.207l4.057,1.839l4.47,4.721l-0.085,5.965l-5.066,3.129Zm23.732,-21.006l-5.042,5.788l-10.805,-0.904l-2.238,-5.008l-1.605,-8.692l10.343,-12.302l3.071,5.554l5.435,1.018l2.991,10.793l-2.15,3.753Zm-36.15,1.254l-7.471,-8.946l0.629,-16.394l4.861,-8.916l7.639,3.463l3.734,7.252l0.66,11.419l-10.052,12.122Zm85.739,-26.641l-2.662,11.88l-6.388,6.256l-14.945,-3.237l4.461,-15.834l10.415,-5.867l9.119,6.802Zm-39.177,7.349l7.62,-4.707l4.724,-11.29l-3.045,-10.187l-19.234,-3.159l-6.431,8.204l-1.006,8.216l6.329,7.918l11.043,5.005Zm-40.714,-18.568l9.014,-1.578l5.175,-12.724l-5.559,-7.096l-5.363,-5.631l-4.853,1.742l-1.957,-3.306l-5.07,-2.136l-3.979,2.835l1.911,7.124l1.585,5.13l3.529,8.59l5.567,7.05Zm32.929,-25.797l6.062,2.236l10.285,-8.106l-2.017,-8.128l-4.768,-6.066l-7.679,2.078l-4.985,5.744l-3.648,7.022l6.75,5.22Zm43.526,-0.764l8.069,-11.367l-1.707,-6.333l-8.575,-20.566c0,0 -7.897,6.332 -10.382,6.413c-2.486,0.082 -7.684,4.746 -7.684,4.746l3.152,9.879l8.6,6.515l8.527,10.713Z" style="fill:#161510;fill-opacity:0.6;"/></g></g><path d="M330.026,55.059l-107.331,-53.733l-214.617,10.71l10.734,7.115l32.376,17.571l33.71,15.631l30.512,13.348l214.616,-10.642Z" style="fill:#5d5348;"/><g><g><path d="M58.714,135.776l11.496,4.495l1.806,-6.305l3.268,-22.041c0,0 -10.031,1.348 -12.202,0.135c-2.172,-1.213 -9.03,0.1 -9.03,0.1l-2.399,10.089l4.005,10.018l3.056,3.509Z" style="fill:#857c6c;"/><path d="M17.407,118.616l10.134,3.795l12.993,-1.636l2.467,-8.003l-0.954,-7.657l-7.65,-2.182l-7.233,2.347l-6.749,4.133l-3.008,9.203" style="fill:#857c6c;"/><path d="M9.374,76.076l-1.783,-11.518l8.999,-13.718l8.765,-5.128l4.756,6.908l-0.544,8.139l-5.327,10.121l-14.866,5.196" style="fill:#857c6c;"/><path d="M9.818,99.404l-5.313,-10.004l4.398,-5.08l6.101,-0.067l2.526,3.668l1.393,6.351l-3.151,5.066l-5.954,0.066Z" style="fill:#857c6c;"/><path d="M40.986,93.658l-7.306,2.355l-8.789,-6.351l0.668,-5.444l3.11,-8.274l15.209,-5.199l-0.237,6.342l4.131,3.677l-3.008,10.788l-3.778,2.106" style="fill:#857c6c;"/><path d="M29.898,56.343l8.535,3.3l11,-8.229l-1.1,-8.946l-1.688,-7.591l-5.056,-1.012l0.03,-3.842l-3.241,-4.446l-4.871,0.375l-2.039,7.089l-1.29,5.212l-1.41,9.178l1.13,8.912Z" style="fill:#857c6c;"/><path d="M59.212,83.579l8.957,-0.099l9.872,-7.233l2.649,-10.297l-14.845,-12.631l-9.742,3.708l-5.102,6.519l1.336,10.047l6.875,9.986Z" style="fill:#857c6c;"/><path d="M96.563,97.501l-4.301,-10.532l-11.949,-0.349l-11.992,11.261l11.131,10.485l8.699,-2.062l8.412,-8.803" style="fill:#857c6c;"/></g><path d="M52.146,130.735l14.868,7.519l1.293,-5.353l3.268,-22.041c0,0 -10.031,1.348 -12.202,0.135c-2.172,-1.213 -9.03,0.1 -9.03,0.1l-2.399,10.089l4.202,9.551Zm-38.448,-13.184l10.134,3.795l12.993,-1.636l2.467,-8.003l-0.954,-7.657l-7.65,-2.182l-7.234,2.347l-6.748,4.133l-3.008,9.203Zm-7.589,-19.212l-5.313,-10.004l4.398,-5.08l6.101,-0.067l2.526,3.668l1.393,6.351l-3.151,5.066l-5.954,0.066Zm31.168,-5.746l-7.306,2.355l-8.789,-6.351l0.668,-5.444l3.11,-8.274l15.209,-5.199l-0.237,6.342l4.131,3.677l-3.008,10.788l-3.778,2.106Zm-31.612,-17.582l-1.783,-11.518l8.999,-13.718l8.764,-5.128l4.757,6.908l-0.544,8.139l-5.327,10.121l-14.866,5.196Zm87.189,21.425l-8.412,8.803l-8.699,2.062l-11.131,-10.485l11.992,-11.261l11.949,0.349l4.301,10.532Zm-37.351,-13.922l8.957,-0.099l9.872,-7.233l2.649,-10.297l-14.845,-12.631l-9.742,3.708l-5.102,6.519l1.335,10.047l6.876,9.986Zm-27.388,-20.738l8.535,3.3l10.999,-8.229l-1.1,-8.947l-1.688,-7.59l-5.056,-1.012l0.03,-3.843l-3.24,-4.445l-4.871,0.375l-2.04,7.089l-1.29,5.212l-1.41,9.178l1.131,8.912Z" style="fill:#161510;fill-opacity:0.6;"/></g><g><path d="M64.277,121.453l0.717,-11.214l11.38,-10.366l9.366,-2.424l3.06,7.716l-2.213,7.44l-7.154,8.001l-15.156,0.847" style="fill:#857c6c;"/><path d="M97.9,148.26l-7.407,0.233l-6.993,-8.282l1.767,-4.894l4.671,-6.875l15.48,-0.759l-1.547,5.848l3.142,4.537l-5.098,9.245l-4.015,0.947" style="fill:#857c6c;"/><path d="M106.488,118.892l8.867,0.346l6.786,-11.008l-4.31,-7.864l-4.333,-6.435l-4.902,0.66l-1.402,-3.535l-4.553,-3.062l-4.221,1.876l0.81,7.145l0.783,5.188l2.151,8.866l4.324,7.823Z" style="fill:#857c6c;"/><path d="M123.884,147.637l8.498,2.315l10.854,-4.088l4.656,-8.885l-11.415,-15.761l-9.995,0.838l-6.19,4.704l-0.832,9.723l4.424,11.154Z" style="fill:#797263;"/><path d="M165.122,137.49l13.257,-1.76l3.025,-5.391l7.693,-19.663c0,0 -9.776,-1.44 -11.578,-3.154c-1.803,-1.713 -8.568,-2.333 -8.568,-2.333l-4.376,8.758l1.7,10.412l-1.153,13.131Z" style="fill:#797263;"/><path d="M127.981,106.567l8.8,6.26l12.639,1.967l4.005,-6.796l0.695,-7.392l-6.785,-4.09l-7.337,0.243l-7.25,2.038l-4.767,7.77" style="fill:#797263;"/><path d="M124.807,86.621l-2.942,-10.751l5.223,-3.552l5.789,1.577l1.625,4.097l-0.007,6.293l-4.039,3.875l-5.649,-1.539Z" style="fill:#797263;"/><path d="M154.773,95.36l-7.407,0.233l-6.994,-8.282l1.768,-4.894l4.671,-6.875l15.48,-0.759l-1.547,5.848l3.142,4.537l-5.098,9.246l-4.015,0.946" style="fill:#797263;"/><path d="M169.3,103.717l8.497,2.314l10.854,-4.087l4.656,-8.885l-11.415,-15.761l-9.995,0.837l-6.189,4.704l-0.833,9.723l4.425,11.155Z" style="fill:#797263;"/><path d="M214.739,111.043l-1.873,-10.972l-11.236,-3.536l-13.701,7.272l8.347,12.763l8.665,0.416l9.798,-5.943" style="fill:#797263;"/><path d="M97.089,149.929l-18.415,-7.102l1.768,-4.894l4.67,-6.875l15.48,-0.759l-1.547,5.847l3.142,4.537l-5.098,9.246Zm-37.637,-25.86l0.716,-11.214l11.38,-10.366l9.366,-2.424l3.06,7.716l-2.213,7.44l-7.154,8.001l-15.155,0.847Zm59.606,26.184l8.498,2.315l10.854,-4.088l4.656,-8.885l-11.415,-15.761l-9.995,0.838l-6.189,4.704l-0.833,9.723l4.424,11.154Zm-21.52,-30.735l8.867,0.346l6.786,-11.007l-4.31,-7.865l-4.333,-6.435l-4.902,0.661l-1.402,-3.536l-4.553,-3.061l-4.221,1.875l0.81,7.145l0.783,5.189l2.151,8.865l4.324,7.823Zm25.617,-10.336l8.8,6.261l12.639,1.967l4.005,-6.796l0.696,-7.392l-6.786,-4.09l-7.337,0.243l-7.25,2.038l-4.767,7.769Zm37.141,30.923l13.257,-1.759l3.025,-5.391l7.693,-19.663c0,0 -9.776,-1.44 -11.578,-3.154c-1.802,-1.714 -8.568,-2.333 -8.568,-2.333l-4.376,8.758l1.7,10.412l-1.153,13.13Zm-40.315,-50.868l-2.941,-10.751l5.222,-3.552l5.789,1.577l1.626,4.097l-0.007,6.293l-4.04,3.875l-5.649,-1.539Zm32.387,8.166l-7.407,0.232l-6.993,-8.281l1.768,-4.894l4.67,-6.875l15.48,-0.759l-1.547,5.847l3.142,4.537l-5.098,9.246l-4.015,0.947Zm57.545,16.256l-9.798,5.943l-8.664,-0.416l-8.348,-12.763l8.018,-4.053l16.919,0.317l1.873,10.972Zm-45.301,-6.236l8.498,2.315l10.854,-4.088l5.495,-13.836l-12.254,-10.81l-9.995,0.837l-6.189,4.704l-0.833,9.723l4.424,11.155Z" style="fill:#161510;fill-opacity:0.2;"/></g><g><path d="M281.043,77.187l-1.698,-11.107l8.901,-12.56l8.632,-4.37l4.639,6.884l-0.572,7.74l-5.278,9.346l-14.624,4.067" style="fill:#797263;"/><path d="M180.508,104.337l8.736,-1.557l4.276,-12.204l-5.892,-6.761l-5.608,-5.36l-4.647,1.693l-2.126,-3.154l-5.102,-2.017l-3.723,2.734l2.319,6.807l1.874,4.901l3.996,8.201l5.897,6.717Z" style="fill:#797263;"/><path d="M226.826,101.403l8.797,0.444l9.729,-6.313l2.649,-9.675l-14.521,-12.957l-9.585,2.955l-5.04,5.919l1.265,9.676l6.706,9.951Z" style="fill:#797263;"/><path d="M198.869,87.702l9.935,4.235l12.767,-0.781l2.46,-7.494l-0.901,-7.371l-7.503,-2.544l-7.115,1.806l-6.647,3.541l-2.996,8.608" style="fill:#797263;"/><path d="M183.232,71.504l-5.172,-9.874l4.343,-4.587l5.992,0.303l2.464,3.656l1.338,6.148l-3.118,4.649l-5.847,-0.295Z" style="fill:#797263;"/><path d="M222.646,71.028l-7.186,1.81l-8.602,-6.595l0.68,-5.159l3.094,-7.714l14.959,-4.051l-0.261,6.043l4.04,3.76l-3.004,10.122l-3.72,1.784" style="fill:#797263;"/><path d="M238.623,76.085l8.796,0.445l9.729,-6.314l2.649,-9.675l-14.52,-12.956l-9.585,2.955l-5.04,5.918l1.265,9.676l6.706,9.951Z" style="fill:#797263;"/><path d="M284.579,73.528l-4.176,-10.318l-11.732,-1.052l-11.83,10.033l10.883,10.683l8.553,-1.446l8.302,-7.9" style="fill:#797263;"/><path d="M285.885,78.054l-1.697,-11.107l8.901,-12.559l8.631,-4.37l4.639,6.883l-0.571,7.74l-5.279,9.346l-14.624,4.067Zm-53.801,26.432l8.796,0.445l9.729,-6.314l2.649,-9.675l-14.52,-12.956l-9.585,2.955l-5.041,5.918l1.265,9.676l6.707,9.951Zm-48.438,2.229l8.736,-1.557l3.48,-13.839l-5.096,-5.126l-5.608,-5.36l-4.648,1.693l-2.125,-3.154l-5.103,-2.017l-3.722,2.734l2.319,6.807l1.874,4.901l3.996,8.201l5.897,6.717Zm13.75,-16.539l9.936,4.235l12.767,-0.781l2.46,-7.494l-0.901,-7.371l-7.504,-2.544l-7.114,1.806l-6.647,3.541l-2.997,8.608Zm-10.945,-17.063l-5.172,-9.873l4.343,-4.587l5.992,0.303l2.464,3.655l1.338,6.149l-3.118,4.649l-5.847,-0.296Zm38.724,1.476l-7.185,1.81l-8.602,-6.595l0.68,-5.159l3.093,-7.715l14.96,-4.05l-0.261,6.043l1.961,4.875l-0.926,9.007l-3.72,1.784Zm57.931,1.413l-8.301,7.9l-8.553,1.446l-10.883,-10.683l6.966,-5.674l16.596,-3.307l4.175,10.318Zm-44.368,-0.016l7.578,4.053l9.729,-6.313l2.41,-14.691l-14.281,-7.941l-9.586,2.955l-3.127,5.325c1.548,3.285 -0.873,7.055 -0.648,10.27l7.925,6.342Z" style="fill:#161510;fill-opacity:0.2;"/></g><g><path d="M231.892,43.825l0.654,-8.5l-13.517,-8.091l-11.996,-2.039l-5.132,5.772l1.857,5.676l8.286,6.21l19.848,0.972" style="fill:#5d5348;"/><path d="M183.773,63.373l9.725,0.338l10.395,-6.113l-1.632,-3.742l-5.175,-5.303l-20.288,-0.912l1.205,4.457l-4.786,3.364l5.4,7.107l5.156,0.804" style="fill:#5d5348;"/><path d="M176.64,40.965l-11.732,0.069l-7.373,-8.477l6.8,-5.856l6.625,-4.774l6.365,0.607l2.351,-2.644l6.435,-2.217l5.294,1.511l-2.085,5.388l-1.771,3.909l-4.096,6.66l-6.813,5.824Z" style="fill:#5d5348;"/><path d="M149.934,66.91l-18.471,1.498l-8.646,-3.402l-14.101,-3.962l-7.802,-10.025l22.154,-15.81l18.218,1.904l10.944,5.681l6.066,12.197l-8.362,11.919Z" style="fill:#5d5348;"/><path d="M96.736,53.756l-17.217,-1.621l-3.218,-4.145l-7.335,-15.045c0,0 13.086,-0.875 15.705,-2.133c2.618,-1.257 11.621,-1.578 11.621,-1.578l4.518,6.722l-3.723,7.841l-0.351,9.959Z" style="fill:#5d5348;"/><path d="M150.078,31.171l-12.487,4.544l-16.934,1.212l-4.309,-5.228l0.138,-5.609l9.523,-2.946l9.632,0.344l9.262,1.701l5.175,5.982" style="fill:#5d5348;"/><path d="M157.101,16.15l5.407,-8.07l-6.375,-2.802l-7.852,1.067l-2.725,3.064l-0.888,4.762l4.771,3.019l7.662,-1.04Z" style="fill:#5d5348;"/><path d="M116.374,22.107l9.725,0.338l10.395,-6.113l-1.632,-3.742l-5.175,-5.303l-20.288,-0.912l1.205,4.457l-4.786,3.364l5.4,7.107l5.156,0.804" style="fill:#5d5348;"/><path d="M96.042,28.112l-11.526,1.566l-13.719,-3.33l-4.869,-6.824l17.286,-11.675l13.05,0.852l7.485,3.694l-0.288,7.374l-7.419,8.343Z" style="fill:#5d5348;"/><path d="M35.128,32.663l4.031,-8.26l15.308,-2.43l17.017,5.801l-12.817,9.474l-11.476,0.125l-12.063,-4.71" style="fill:#5d5348;"/><path d="M184.603,64.654l25.276,-4.971l-1.632,-3.742l-5.175,-5.304l-20.288,-0.912l1.205,4.458l-4.787,3.364l5.401,7.107Zm53.275,-18.744l0.653,-8.5l-13.517,-8.092l-11.995,-2.038l-5.132,5.771l1.857,5.677l8.286,6.21l19.848,0.972Zm-86.809,23.428l-18.191,-3.752l-20.432,-7.664l-4.869,-6.824l21.694,-12.274l14.306,-1.024l9.352,2.101l3.724,3.536l3.267,14.051l-8.851,11.85Zm37.274,-27.703l-11.732,0.068l-7.373,-8.476l6.8,-5.856l6.625,-4.774l6.365,0.606l2.351,-2.644l6.435,-2.217l5.294,1.511l-2.085,5.389l-1.771,3.908l-4.096,6.66l-6.813,5.825Zm-32.279,-8.379l-12.487,4.544l-16.934,1.212l-4.309,-5.229l0.137,-5.608l9.524,-2.946l9.632,0.344l9.262,1.7l5.175,5.983Zm-53.343,22.585l-17.216,-1.621l-3.218,-4.145l-7.335,-15.045c0,0 13.086,-0.876 15.705,-2.133c2.618,-1.258 11.621,-1.579 11.621,-1.579l4.517,6.722l-3.722,7.841l-0.352,9.96Zm60.366,-37.607l5.407,-8.069l-6.375,-2.802l-7.853,1.066l-2.725,3.065l-0.887,4.761l4.771,3.02l7.662,-1.041Zm-43.836,5.471l9.726,0.338l10.394,-6.113l-1.632,-3.742l-5.175,-5.303l-20.288,-0.913l1.206,4.458l-4.787,3.364l5.401,7.107l5.155,0.804Zm-78.138,11.042l12.064,4.711l11.475,-0.125l12.818,-9.475l-9.987,-3.241l-22.339,-0.13l-4.031,8.26Zm60.577,-3.728l-11.526,1.566l-13.719,-3.33l-5.269,-10.588l17.685,-7.912l13.051,0.852l7.484,3.694l-0.288,7.375l-7.418,8.343Z" style="fill:#161510;fill-opacity:0.3;"/></g><g><path d="M283.55,57.907l9.726,0.337l10.395,-6.112l-1.632,-3.742l-5.175,-5.304l-20.288,-0.912l1.205,4.458l-4.787,3.364l5.401,7.107l5.155,0.804" style="fill:#5d5348;"/><path d="M281.727,38.665l-11.732,0.068l-7.374,-8.476l6.8,-5.856l10.493,7.347l1.813,6.917Z" style="fill:#5d5348;"/><path d="M249.402,56.868l-11.526,1.566l-13.719,-3.33l-4.869,-6.824l17.286,-11.676l13.05,0.852l7.485,3.695l-0.288,7.374l-7.419,8.343Z" style="fill:#5d5348;"/><path d="M196.513,48.29l-17.216,-1.621l-3.218,-4.145l-7.335,-15.045c0,0 13.086,-0.876 15.705,-2.133c2.618,-1.258 11.621,-1.579 11.621,-1.579l4.517,6.722l-3.722,7.841l-0.352,9.96Z" style="fill:#5d5348;"/><path d="M249.856,25.705l-12.487,4.544l-16.934,1.212l-4.309,-5.229l0.137,-5.608l9.524,-2.946l9.632,0.344l9.262,1.7l5.175,5.983" style="fill:#5d5348;"/><path d="M274.506,46.282l5.408,-8.07l-6.376,-2.801l-7.852,1.066l-2.725,3.065l-0.887,4.761l4.77,3.02l7.662,-1.041Z" style="fill:#5d5348;"/><path d="M216.151,16.641l9.726,0.337l10.395,-6.112l-1.633,-3.742l-5.174,-5.304l-20.288,-0.912l1.205,4.458l-4.787,3.364l5.401,7.107l5.155,0.804" style="fill:#5d5348;"/><path d="M195.82,22.646l-11.526,1.566l-13.719,-3.33l-4.869,-6.824l17.286,-11.676l13.05,0.852l7.485,3.695l-0.288,7.374l-7.419,8.343Z" style="fill:#5d5348;"/><path d="M134.905,27.196l4.031,-8.26l15.309,-2.43l17.017,5.801l-12.818,9.475l-11.475,0.125l-12.064,-4.711" style="fill:#5d5348;"/><path d="M284.381,59.187l25.275,-4.971l-1.632,-3.742l-5.175,-5.303l-20.288,-0.912l1.206,4.458l-4.787,3.364l5.401,7.106Zm-28.993,-0.234l-11.526,1.565l-13.719,-3.329l-4.869,-6.824l17.286,-11.676l13.05,0.852l7.485,3.694l-0.288,7.375l-7.419,8.343Zm20.972,-30.794l6.361,6.908l-6.332,1.169l-7.373,-8.476l3.774,-1.386l3.57,1.785Zm-20.518,-0.37l-12.488,4.544l-16.933,1.213l-4.309,-5.229l0.137,-5.609l9.524,-2.946l9.631,0.345l9.263,1.7l5.175,5.982Zm-53.343,22.585l-17.216,-1.621l-3.219,-4.145l-7.334,-15.044c0,0 13.086,-0.876 15.705,-2.134c2.618,-1.257 11.621,-1.578 11.621,-1.578l4.517,6.722l-3.723,7.841l-0.351,9.959Zm75.561,-2.985l5.407,-8.07l-6.375,-2.802l-7.853,1.067l-2.725,3.064l-0.887,4.762l4.771,3.019l7.662,-1.04Zm-59.031,-29.15l9.726,0.337l10.394,-6.113l-1.632,-3.741l-5.175,-5.304l-20.288,-0.912l1.205,4.458l-4.786,3.364l5.4,7.107l5.156,0.804Zm-78.138,11.042l12.064,4.711l11.475,-0.126l12.817,-9.474l-9.986,-3.242l-22.339,-0.129l-4.031,8.26Zm60.577,-3.729l-11.527,1.566l-13.718,-3.33l-5.269,-10.588l17.685,-7.911l13.051,0.852l7.484,3.694l-0.288,7.374l-7.418,8.343Z" style="fill:#161510;fill-opacity:0.3;"/></g><g><path d="M231.892,43.825l0.654,-8.5l-13.517,-8.091l-11.996,-2.039l-5.132,5.772l1.857,5.676l8.286,6.21l19.848,0.972" style="fill:#5d5348;"/><path d="M183.773,63.373l9.725,0.338l10.395,-6.113l-1.632,-3.742l-5.175,-5.303l-20.288,-0.912l1.205,4.457l-4.786,3.364l5.4,7.107l5.156,0.804" style="fill:#5d5348;"/><path d="M176.64,40.965l-11.732,0.069l-7.373,-8.477l6.8,-5.856l6.625,-4.774l6.365,0.607l2.351,-2.644l6.435,-2.217l5.294,1.511l-2.085,5.388l-1.771,3.909l-4.096,6.66l-6.813,5.824Z" style="fill:#5d5348;"/><path d="M149.625,62.335l-11.527,1.565l-13.718,-3.329l-4.869,-6.825l17.285,-11.675l13.051,0.852l7.484,3.694l-0.288,7.375l-7.418,8.343Z" style="fill:#5d5348;"/><path d="M96.736,53.756l-17.217,-1.621l-3.218,-4.145l-7.335,-15.045c0,0 13.086,-0.875 15.705,-2.133c2.618,-1.257 11.621,-1.578 11.621,-1.578l4.518,6.722l-3.723,7.841l-0.351,9.959Z" style="fill:#5d5348;"/><path d="M150.078,31.171l-12.487,4.544l-16.934,1.212l-4.309,-5.228l0.138,-5.609l9.523,-2.946l9.632,0.344l9.262,1.701l5.175,5.982" style="fill:#5d5348;"/><path d="M157.101,16.15l5.407,-8.07l-6.375,-2.802l-7.852,1.067l-2.725,3.064l-0.888,4.762l4.771,3.019l7.662,-1.04Z" style="fill:#5d5348;"/><path d="M116.374,22.107l9.725,0.338l10.395,-6.113l-1.632,-3.742l-5.175,-5.303l-20.288,-0.912l1.205,4.457l-4.786,3.364l5.4,7.107l5.156,0.804" style="fill:#5d5348;"/><path d="M96.042,28.112l-11.526,1.566l-13.719,-3.33l-4.869,-6.824l17.286,-11.675l13.05,0.852l7.485,3.694l-0.288,7.374l-7.419,8.343Z" style="fill:#5d5348;"/><path d="M35.128,32.663l4.031,-8.26l15.308,-2.43l17.017,5.801l-12.817,9.474l-11.476,0.125l-12.063,-4.71" style="fill:#5d5348;"/><path d="M184.603,64.654l25.276,-4.971l-1.632,-3.742l-5.175,-5.304l-20.288,-0.912l1.205,4.458l-4.787,3.364l5.401,7.107Zm53.275,-18.744l0.653,-8.5l-13.517,-8.092l-11.995,-2.038l-5.132,5.771l1.857,5.677l8.286,6.21l19.848,0.972Zm-82.268,18.509l-11.526,1.566l-13.719,-3.33l-4.869,-6.824l17.286,-11.676l13.05,0.852l7.485,3.695l-0.288,7.374l-7.419,8.343Zm32.733,-22.784l-11.732,0.068l-7.373,-8.476l6.8,-5.856l6.625,-4.774l6.365,0.606l2.351,-2.644l6.435,-2.217l5.294,1.511l-2.085,5.389l-1.771,3.908l-4.096,6.66l-6.813,5.825Zm-32.279,-8.379l-12.487,4.544l-16.934,1.212l-4.309,-5.229l0.137,-5.608l9.524,-2.946l9.632,0.344l9.262,1.7l5.175,5.983Zm-53.343,22.585l-17.216,-1.621l-3.218,-4.145l-7.335,-15.045c0,0 13.086,-0.876 15.705,-2.133c2.618,-1.258 11.621,-1.579 11.621,-1.579l4.517,6.722l-3.722,7.841l-0.352,9.96Zm60.366,-37.607l5.407,-8.069l-6.375,-2.802l-7.853,1.066l-2.725,3.065l-0.887,4.761l4.771,3.02l7.662,-1.041Zm-43.836,5.471l9.726,0.338l10.394,-6.113l-1.632,-3.742l-5.175,-5.303l-20.288,-0.913l1.206,4.458l-4.787,3.364l5.401,7.107l5.155,0.804Zm-78.138,11.042l12.064,4.711l11.475,-0.125l12.818,-9.475l-9.987,-3.241l-22.339,-0.13l-4.031,8.26Zm60.577,-3.728l-11.526,1.566l-13.719,-3.33l-5.269,-10.588l17.685,-7.912l13.051,0.852l7.484,3.694l-0.288,7.375l-7.418,8.343Z" style="fill:#161510;fill-opacity:0.3;"/></g></g></svg>