<?xml version="1.0" encoding="UTF-8" standalone="no"?><!DOCTYPE svg PUBLIC "-//W3C//DTD SVG 1.1//EN" "http://www.w3.org/Graphics/SVG/1.1/DTD/svg11.dtd"><svg width="100%" height="100%" viewBox="0 0 224 204" version="1.1" xmlns="http://www.w3.org/2000/svg" xmlns:xlink="http://www.w3.org/1999/xlink" xml:space="preserve" xmlns:serif="http://www.serif.com/" style="fill-rule:evenodd;clip-rule:evenodd;stroke-linejoin:round;stroke-miterlimit:1.41421;"><g id="Stone_Ramp_LeftUp_high-angle2"><g id="Stone_Ramp_LeftUp_high-angle1"><path d="M4.218,53.72l18.528,-12.134l20.978,-5.611l21.367,-12.624l15.817,-7.931l14.541,-1.881l16.1,-13.484l106.242,149.709l-107.331,53.666c-52.311,-40.103 -85.664,-91.201 -106.242,-149.71Z" style="fill:#6e6861;"/><clipPath id="_clip1"><path d="M4.218,53.72l18.528,-12.134l20.978,-5.611l21.367,-12.624l15.817,-7.931l14.541,-1.881l16.1,-13.484l106.242,149.709l-107.331,53.666c-52.311,-40.103 -85.664,-91.201 -106.242,-149.71Z"/></clipPath><g clip-path="url(#_clip1)"><g><g><path d="M25.981,68.547l-8.162,-4.081l0.518,-8.196l9.044,-3.123l7.158,-4.979l10.549,-2.267l10.545,10.639l-4.089,8.688l-9.463,6.002l-16.1,-2.683Z" style="fill:#797263;"/><path d="M74.28,40.442l-14.664,1.99l5.999,20.445l12.296,-0.565l9.122,2.542l2.035,-6.384l10.081,-7.005l-3.402,-9.357l-5.367,-4.48l-10.733,0.13l-5.367,2.684Z" style="fill:#797263;"/><path d="M99.149,31.963l-14.135,-0.172l-9.298,2.591l-3.036,-1.518l-3.766,-1.883l2.821,-3.956l2.545,-4.094l6.616,-0.486l4.118,-2.059l5.366,-0.138l12.169,0.718l0.532,2.273l-0.175,6.846l-3.757,1.878Z" style="fill:#797263;"/><path d="M130.598,16.239l-10.989,-2.843l-6.619,4.549l-5.099,5.692l3.955,4.218l10.734,3.126l10.733,3.661l7.91,3.117l-0.735,-4.999l3.558,-1.779l1.788,-4.472l-1.788,-2.862l-13.448,-7.408" style="fill:#797263;"/><path d="M121.5,45.539l8.543,3.192l8.636,7.002l-7.698,7.954l-6.216,1.686l-4.098,5.503l-7.41,-1.624l-1.411,-9.773l-2.455,-7.885l6.251,-5.961l5.858,-0.094Z" style="fill:#797263;"/><path d="M170.879,39.031l-13.211,1.239l-10.168,8.538l3.293,7.013l5.008,5.188l15.078,-0.512l8.504,4.253l3.968,-8.75l-0.46,-5.596l-3.623,-4.834l-8.389,-6.539Z" style="fill:#797263;"/><path d="M151.717,75.445l-15.077,0.132l-11.775,7.927l6.219,5.395l6.229,3.114l16.5,-1.517l6.332,2.201l1.976,-6.354l12.428,-4.187l2.784,-6.112l-2.786,-2.979l-5.914,-0.712l-3.121,1.561l-13.795,1.531" style="fill:#797263;"/><path d="M99.32,72.326l8.114,8.245l0.779,11.122l-7.715,2.943l-12.602,-0.498l-7.552,-6.958l-4.782,-8.342l8.837,-3.206l8.82,-2.168l6.101,-1.138" style="fill:#797263;"/><path d="M56.927,70.479l4.035,4.825l3.813,11.412l-9.176,4.589l-8.151,-4.809l-5.367,-6.651l10.733,-3.248l0,-2.182l1.741,-2.314l2.372,-1.622Z" style="fill:#797263;"/><path d="M126.094,95.197l4.634,4.875l0,5.89l-9.702,6.295l-10.623,3.868l-3.426,-6.438l0,-10.178l19.117,-4.312Z" style="fill:#797263;"/></g><g><g opacity="0.2"><path d="M21.607,72.775l-8.163,-4.082l1.353,-7.224l8.209,-4.094l7.159,-4.979l10.548,-2.268l10.546,10.64l-4.09,8.688l-9.462,6.002l-16.1,-2.683Z" style="fill:#161510;"/><path d="M69.906,44.669l-14.664,1.99l5.999,20.445l12.295,-0.564l9.123,2.541l2.034,-6.383l10.081,-7.005l-3.402,-9.358l-5.366,-4.479l-10.733,0.13l-5.367,2.683Z" style="fill:#161510;"/><path d="M94.774,36.191l-14.135,-0.172l-9.298,2.591l-3.035,-1.518l-3.039,-1.54l6.394,-3.197l-2.747,-1.374l7.608,-4.309l4.117,-2.058l5.367,-0.138l12.168,0.717l0.532,2.274l-0.174,6.845l-3.758,1.879Z" style="fill:#161510;"/><path d="M126.224,20.466l-10.99,-2.843l-6.618,4.55l-5.1,5.691l3.956,4.218l10.733,3.127l10.733,3.66l7.91,3.118l4.671,-3.022l-0.684,-5.708l-4.64,-2.677l1.788,-6.26l-11.759,-3.854" style="fill:#161510;"/><path d="M117.125,49.767l8.543,3.191l8.637,7.002l-3.32,3.715l-5.923,1.795l-8.769,9.633l-7.41,-1.623l-1.411,-9.774l-2.455,-7.885l6.25,-5.961l5.858,-0.093Z" style="fill:#161510;"/><path d="M166.504,43.258l-13.21,1.239l-10.169,8.538l3.294,7.014l5.008,5.187l15.077,-0.511l8.505,4.252l3.967,-8.749l-0.46,-5.597l-3.623,-4.834l-8.389,-6.539Z" style="fill:#161510;"/><path d="M147.343,79.672l-15.078,0.133l-11.775,7.927l6.22,5.395l6.228,3.114l16.501,-1.517l6.332,2.2l4.593,-4.118l1.769,-5.968l9.05,-3.08l1.776,-3.486l-2.787,-2.98l-5.914,-0.711l-3.12,1.56l-13.795,1.531" style="fill:#161510;"/><path d="M200.593,62.335c-1.867,0.205 -15.438,5.084 -15.438,5.084l-6.709,10.036l10.734,4.051l6.867,-5.059l9.232,-2.991c0,0 -2.818,-11.327 -4.686,-11.121Z" style="fill:#161510;"/><path d="M94.945,76.553l8.114,8.245l0.779,11.123l-7.714,2.942l-12.603,-0.498l-7.551,-6.958l-4.782,-8.342l8.836,-3.206l8.821,-2.168l6.1,-1.138" style="fill:#161510;"/><path d="M52.553,74.706l4.035,4.826l3.812,11.412l-5.113,0.424l-7.559,-4.377l-5.647,-6.513l4.233,-1.739l2.016,-0.503l4.214,-1.769l0.009,-1.761Z" style="fill:#161510;"/><path d="M121.719,99.424l4.635,4.876l0,5.889l-9.973,5.43l-8.784,2.916l-4.995,-4.621l0,-10.177l19.117,-4.313Z" style="fill:#161510;"/></g></g></g><g><g><path d="M115.237,225.596l-6.581,6.322l-7.549,-3.235l0.09,-9.568l-2.292,-8.413l1.399,-10.698l13.559,-6.369l6.815,6.765l2.483,10.927l-7.924,14.269Z" style="fill:#797263;"/><path d="M104.946,170.67l-3.04,14.483l21.273,1.201l3.589,-11.773l5.453,-7.743l-5.333,-4.057l-3.221,-11.846l-9.956,0.069l-6.019,3.555l-3.475,10.156l0.729,5.955Z" style="fill:#797263;"/><path d="M105.294,144.399l-4.901,13.259l-0.675,9.629l-2.447,2.351l-3.037,2.917l-2.781,-3.984l-3.004,-3.77l1.759,-6.396l-0.56,-4.569l1.669,-5.103l4.755,-11.224l2.32,0.261l6.391,2.459l0.511,4.17Z" style="fill:#797263;"/><path d="M101.02,109.498l-6.362,9.401l2.068,7.76l3.653,6.713l5.299,-2.314l6.544,-9.064l7.046,-8.885l5.589,-6.408l-4.957,-0.983l-0.483,-3.948l-3.614,-3.185l-3.297,0.726l-11.486,10.187" style="fill:#797263;"/><path d="M125.576,127.891l5.87,-6.979l9.492,-5.79l4.914,9.919l-0.495,6.421l3.811,5.706l-4.014,6.437l-9.681,-1.947l-8.252,-0.33l-3.521,-7.886l1.876,-5.551Z" style="fill:#797263;"/><path d="M135.995,79.187l-3.261,12.862l4.636,12.442l7.712,-0.753l6.565,-2.979l4.572,-14.377l6.857,-6.587l-6.913,-6.671l-5.427,-1.442l-5.769,1.793l-8.972,5.712Z" style="fill:#797263;"/><path d="M163.879,109.446l-4.928,14.249l3.521,13.751l7.168,-4.051l5.022,-4.825l4.101,-16.054l4.196,-5.229l-5.325,-3.991l0.221,-13.112l-4.825,-4.672l-3.741,1.626l-2.652,5.334l0.424,3.463l-3.182,13.511" style="fill:#797263;"/><path d="M143.378,157.766l10.488,-4.881l10.741,2.994l0.186,8.255l-4.694,11.707l-9.086,4.782l-9.462,1.709l-0.059,-9.4l0.913,-9.037l0.973,-6.129" style="fill:#797263;"/><path d="M127.429,197.087l5.899,-2.184l12.03,0.233l1.247,10.184l-7.262,6.068l-8.066,2.826l0.538,-11.201l-2.056,-0.731l-1.597,-2.416l-0.733,-2.779Z" style="fill:#797263;"/><path d="M173.901,140.207l6.146,-2.732l5.549,1.974l2.679,11.251l0.083,11.305l-7.213,1.07l-9.589,-3.411l2.345,-19.457Z" style="fill:#797263;"/></g><g><g opacity="0.2"><path d="M117.753,231.134l-6.581,6.322l-6.353,-3.695l-1.106,-9.107l-2.291,-8.413l1.399,-10.698l13.559,-6.37l6.815,6.765l2.483,10.927l-7.925,14.269Z" style="fill:#161510;"/><path d="M107.463,176.209l-3.041,14.483l21.273,1.201l3.59,-11.774l5.452,-7.743l-5.332,-4.056l-3.221,-11.846l-9.956,0.069l-6.02,3.554l-3.475,10.156l0.73,5.956Z" style="fill:#161510;"/><path d="M107.81,149.937l-4.9,13.26l-0.675,9.628l-2.448,2.351l-2.469,2.347l-0.869,-7.096l-2.215,2.128l-1.51,-8.612l-0.559,-4.569l1.668,-5.102l4.755,-11.224l2.321,0.26l6.391,2.459l0.51,4.17Z" style="fill:#161510;"/><path d="M103.536,115.036l-6.361,9.401l2.067,7.761l3.653,6.712l5.3,-2.313l6.543,-9.065l7.047,-8.885l5.588,-6.407l-1.281,-5.413l-5.607,-1.27l-4.077,3.475l-5.3,-3.783l-7.572,9.787" style="fill:#161510;"/><path d="M128.092,133.429l5.871,-6.979l9.491,-5.79l2.387,4.373l-0.293,6.182l6.136,11.491l-4.013,6.437l-9.681,-1.946l-8.252,-0.33l-3.521,-7.887l1.875,-5.551Z" style="fill:#161510;"/><path d="M138.512,84.726l-3.261,12.861l4.636,12.442l7.711,-0.752l6.566,-2.98l4.572,-14.376l6.857,-6.588l-6.914,-6.67l-5.426,-1.443l-5.769,1.793l-8.972,5.713Z" style="fill:#161510;"/><path d="M166.396,114.984l-4.929,14.25l3.522,13.75l7.167,-4.051l5.022,-4.824l4.102,-16.055l4.195,-5.228l-2.34,-5.708l-5.03,-3.667l0.132,-9.559l-2.69,-2.841l-3.741,1.626l-2.653,5.334l0.425,3.463l-3.182,13.51" style="fill:#161510;"/><path d="M167.91,59.002c-0.432,1.829 -0.384,16.25 -0.384,16.25l7.207,9.684l7.414,-8.754l-2.465,-8.166l0.277,-9.701c0,0 -11.616,-1.141 -12.049,0.687Z" style="fill:#161510;"/><path d="M145.895,163.305l10.488,-4.881l10.74,2.994l0.187,8.254l-4.694,11.707l-9.086,4.782l-9.463,1.71l-0.059,-9.4l0.914,-9.037l0.973,-6.129" style="fill:#161510;"/><path d="M129.946,202.626l5.899,-2.184l12.029,0.233l-1.314,4.96l-6.657,5.655l-8.029,3.136l-0.22,-4.57l0.202,-2.069l-0.254,-4.562l-1.656,-0.599Z" style="fill:#161510;"/><path d="M176.417,145.745l6.147,-2.732l5.549,1.974l1.773,11.216l-0.197,9.253l-6.028,3.157l-9.588,-3.411l2.344,-19.457Z" style="fill:#161510;"/></g></g></g><g><g><path d="M153.725,208.128l-7.53,5.154l-6.914,-4.431l1.66,-9.423l-0.877,-8.675l3.138,-10.323l14.421,-4.055l5.61,7.794l0.654,11.186l-10.162,12.773Z" style="fill:#797263;"/><path d="M152.601,152.258l-5.379,13.786l20.787,4.681l5.475,-11.024l6.651,-6.741l-4.593,-4.878l-1.231,-12.214l-9.832,-1.569l-6.522,2.518l-5.096,9.446l-0.26,5.995Z" style="fill:#797263;"/><path d="M157.262,126.401l-7.013,12.274l-2.249,9.386l-2.8,1.917l-3.475,2.379l-2.089,-4.387l-2.343,-4.213l2.786,-6.02l0.199,-4.599l2.485,-4.759l6.534,-10.29l2.246,0.639l5.9,3.476l-0.181,4.197Z" style="fill:#797263;"/><path d="M158.782,91.272l-7.821,8.228l0.765,7.994l2.5,7.222l5.608,-1.411l7.944,-7.866l8.411,-7.606l6.565,-5.402l-4.727,-1.785l0.172,-3.974l-3.042,-3.735l-3.371,0.174l-13.004,8.161" style="fill:#797263;"/><path d="M179.981,113.45l6.938,-5.919l10.314,-4.151l3.217,10.592l-1.544,6.252l2.822,6.255l-5.017,5.69l-9.229,-3.512l-8.086,-1.682l-2.177,-8.358l2.762,-5.167Z" style="fill:#797263;"/><path d="M198.263,67.121l-5.331,12.151l2.529,13.035l7.73,0.525l6.966,-1.86l6.873,-13.43l7.846,-5.371l-5.723,-7.716l-5.116,-2.315l-5.985,0.821l-9.789,4.16Z" style="fill:#797263;"/><path d="M220.795,101.551l-7.203,13.246l1.214,14.142l7.736,-2.818l5.746,-3.934l6.684,-15.162l4.998,-4.468l-4.596,-4.811l2.373,-12.898l-3.992,-5.401l-3.957,0.989l-3.493,4.825l-0.151,3.486l-5.359,12.804" style="fill:#797263;"/><path d="M192.632,145.846l11.147,-3.092l10.102,4.719l-1.172,8.173l-6.554,10.776l-9.749,3.224l-9.614,0.131l1.486,-9.282l2.387,-8.764l1.967,-5.885" style="fill:#797263;"/><path d="M170.437,182.01l6.178,-1.184l11.828,2.207l-0.444,10.249l-8.16,4.792l-8.421,1.463l2.371,-10.96l-1.907,-1.059l-1.178,-2.646l-0.267,-2.862Z" style="fill:#797263;"/><path d="M225.625,133.541l6.512,-1.685l5.149,2.859l0.793,11.539l-1.775,11.164l-7.292,-0.13l-8.898,-4.94l5.511,-18.807Z" style="fill:#797263;"/></g><g><g opacity="0.2"><path d="M155.298,214.004l-7.531,5.155l-5.659,-4.689l0.406,-9.165l-0.878,-8.676l3.138,-10.322l14.421,-4.055l5.611,7.793l0.653,11.187l-10.161,12.772Z" style="fill:#161510;"/><path d="M154.174,158.134l-5.379,13.787l20.786,4.681l5.476,-11.024l6.65,-6.742l-4.593,-4.877l-1.231,-12.214l-9.832,-1.569l-6.521,2.517l-5.097,9.447l-0.259,5.994Z" style="fill:#161510;"/><path d="M158.834,132.277l-7.013,12.274l-2.248,9.387l-2.801,1.917l-2.821,1.909l0.309,-7.142l-2.535,1.735l-0.074,-8.743l0.199,-4.599l2.485,-4.759l6.535,-10.29l2.246,0.638l5.9,3.476l-0.182,4.197Z" style="fill:#161510;"/><path d="M160.354,97.149l-7.82,8.227l0.764,7.995l2.5,7.221l5.608,-1.41l7.944,-7.866l8.411,-7.607l6.565,-5.402l-0.374,-5.55l-5.323,-2.173l-4.592,2.757l-4.605,-4.603l-9.078,8.411" style="fill:#161510;"/><path d="M181.553,119.327l6.938,-5.919l10.314,-4.152l1.636,4.706l-1.306,6.05l4.165,12.343l-5.017,5.69l-9.229,-3.511l-8.086,-1.682l-2.177,-8.358l2.762,-5.167Z" style="fill:#161510;"/><path d="M199.835,72.998l-5.33,12.15l2.528,13.035l7.73,0.525l6.967,-1.86l6.872,-13.429l7.846,-5.371l-5.723,-7.716l-5.116,-2.315l-5.985,0.821l-9.789,4.16Z" style="fill:#161510;"/><path d="M222.368,107.427l-7.204,13.246l1.214,14.143l7.736,-2.818l5.746,-3.934l6.684,-15.162l4.998,-4.468l-1.371,-6.015l-4.358,-4.443l1.7,-9.407l-2.186,-3.246l-3.957,0.99l-3.493,4.825l-0.151,3.486l-5.358,12.803" style="fill:#161510;"/><path d="M233.062,52.456c-0.727,1.732 -3.051,15.965 -3.051,15.965l5.518,10.738l8.752,-7.418l-1.089,-8.46l1.867,-9.523c0,0 -11.27,-3.035 -11.997,-1.302Z" style="fill:#161510;"/><path d="M194.204,151.722l11.147,-3.091l10.103,4.718l-1.173,8.173l-6.554,10.777l-9.748,3.224l-9.615,0.13l1.487,-9.281l2.386,-8.764l1.967,-5.886" style="fill:#161510;"/><path d="M172.009,187.887l6.178,-1.185l11.828,2.207l-2.112,4.677l-7.496,4.484l-8.435,1.774l0.535,-4.544l0.538,-2.007l0.5,-4.543l-1.536,-0.863Z" style="fill:#161510;"/><path d="M227.197,139.418l6.512,-1.685l5.149,2.859l-0.094,11.354l-1.715,9.096l-6.465,2.123l-8.897,-4.941l5.51,-18.806Z" style="fill:#161510;"/></g></g></g></g><g><path d="M4.218,53.788l-3.393,25.136l3.393,25.229l-2.264,34.368l2.264,11.865l106.165,53.082l-8.626,-18.821l-20.241,-15.045l-6.871,-21.645l-16.081,-8.041l0.759,-18.249l-15.208,-8.496l-3.42,-14.389l-13.918,-9.141l-6.382,-22.475l-16.177,-13.378Z" style="fill:#413528;"/><clipPath id="_clip2"><path d="M4.218,53.788l-3.393,25.136l3.393,25.229l-2.264,34.368l2.264,11.865l106.165,53.082l-8.626,-18.821l-20.241,-15.045l-6.871,-21.645l-16.081,-8.041l0.759,-18.249l-15.208,-8.496l-3.42,-14.389l-13.918,-9.141l-6.382,-22.475l-16.177,-13.378Z"/></clipPath><g clip-path="url(#_clip2)"><g><path d="M106.021,234.942l7.471,-8.393l-0.629,-15.38l-4.861,-8.365l-7.639,3.248l-3.734,6.805l-0.661,10.712l10.053,11.373" style="fill:#857c6c;"/><path d="M82.48,204.658l-6.479,-6.062l3.056,-12.565l8.623,-2.464l7.623,-1.443l2.976,3.951l3.5,-1.489l5.379,1.086l1.633,4.319l-5.65,4.448l-4.241,3.091l-7.816,4.704l-8.604,2.424Z" style="fill:#857c6c;"/><path d="M45.494,210.963l-7.621,-4.416l-4.724,-10.592l3.046,-9.558l19.233,-2.963l6.432,7.696l1.006,7.709l-6.329,7.428l-11.043,4.696Z" style="fill:#857c6c;"/><path d="M23.718,174.503l-8.069,-10.665l1.707,-5.942l8.575,-19.294c0,0 7.896,5.94 10.382,6.016c2.486,0.077 7.683,4.453 7.683,4.453l-3.152,9.268l-8.599,6.112l-8.527,10.052Z" style="fill:#857c6c;"/><path d="M71.821,179.175l-10.639,-1.857l-10.285,-7.606l2.017,-7.625l4.768,-5.692l7.679,1.95l4.985,5.389l3.648,6.588l-2.173,8.853" style="fill:#857c6c;"/><path d="M13.008,206.689l9.12,-6.381l10.414,5.504l4.461,14.856l-14.945,3.037l-6.387,-5.869l-2.663,-11.147" style="fill:#857c6c;"/><path d="M100.654,148.877l7.471,-8.393l-0.629,-15.38l-4.861,-8.365l-7.639,3.248l-3.734,6.804l-0.66,10.713l10.052,11.373" style="fill:#857c6c;"/><path d="M88.236,167.409l9.713,-5.466l-1.145,-6.212l-5.192,-3.008l-4.056,1.725l-4.471,4.429l0.085,5.597l5.066,2.935Z" style="fill:#857c6c;"/><path d="M57.953,143.814l5.042,5.431l10.805,-0.849l2.238,-4.698l1.605,-8.155l-10.343,-11.542l-3.071,5.211l-5.435,0.955l-2.991,10.126l2.15,3.521" style="fill:#857c6c;"/><path d="M72.133,120.794l-6.48,-6.062l3.057,-12.565l8.623,-2.463l7.622,-1.443l2.977,3.95l3.5,-1.489l5.378,1.086l1.634,4.32l-5.651,4.447l-4.24,3.091l-7.816,4.704l-8.604,2.424Z" style="fill:#857c6c;"/><path d="M43.395,132.409l-7.62,-4.416l-4.724,-10.593l3.045,-9.557l19.233,-2.964l6.432,7.697l1.006,7.709l-6.329,7.428l-11.043,4.696Z" style="fill:#857c6c;"/><path d="M15.711,98.265l-8.069,-10.664l1.706,-5.942l8.575,-19.295c0,0 7.897,5.94 10.383,6.017c2.486,0.076 7.683,4.452 7.683,4.452l-3.152,9.269l-8.6,6.112l-8.526,10.051Z" style="fill:#857c6c;"/><path d="M62.708,102.356l-10.639,-1.857l-10.285,-7.605l2.016,-7.626l4.769,-5.692l7.679,1.951l4.985,5.388l3.648,6.589l-2.173,8.852" style="fill:#857c6c;"/><path d="M7.642,120.624l9.119,-6.382l10.414,5.505l4.462,14.856l-14.946,3.037l-6.387,-5.87l-2.662,-11.146" style="fill:#857c6c;"/><path d="M95.135,258.745l9.713,-5.466l-1.145,-6.212l-5.192,-3.008l-4.056,1.725l-4.47,4.429l0.084,5.597l5.066,2.935Zm-30.283,-23.595l5.042,5.431l10.806,-0.849l2.237,-4.698l1.605,-8.155l-10.343,-11.542l-3.071,5.211l-5.435,0.955l-2.991,10.126l2.15,3.521Zm42.702,5.063l7.47,-8.393l-0.629,-15.38l-4.861,-8.365l-7.639,3.248l-3.734,6.804l-0.66,10.713l10.053,11.373Zm-93.013,-28.253l2.662,11.146l6.387,5.87l14.946,-3.037l-4.462,-14.856l-10.414,-5.504l-9.119,6.381Zm32.485,4.274l-7.62,-4.416l-4.724,-10.592l3.045,-9.558l19.234,-2.963l6.431,7.696l1.006,7.709l-6.329,7.428l-11.043,4.696Zm36.987,-6.305l-6.48,-6.062l3.057,-12.565l8.623,-2.464l7.622,-1.443l2.977,3.95l3.5,-1.488l5.378,1.086l1.634,4.319l-5.651,4.448l-4.24,3.091l-7.816,4.704l-8.604,2.424Zm-10.66,-25.483l-10.639,-1.857l-10.285,-7.606l2.017,-7.625l4.768,-5.692l7.68,1.95l4.984,5.389l3.648,6.588l-2.173,8.853Zm-48.102,-4.672l-8.069,-10.665l1.706,-5.942l8.575,-19.294c0,0 7.897,5.94 10.383,6.016c2.486,0.077 7.683,4.453 7.683,4.453l-3.152,9.268l-8.6,6.112l-8.526,10.052Zm64.517,-7.094l9.714,-5.466l-1.146,-6.212l-5.191,-3.008l-4.057,1.725l-4.47,4.429l0.085,5.597l5.065,2.935Zm-30.283,-23.595l5.042,5.431l10.806,-0.849l2.238,-4.698l1.605,-8.155l-10.344,-11.542l-3.07,5.211l-5.436,0.955l-2.99,10.126l2.149,3.521Zm42.702,5.063l7.471,-8.393l-0.629,-15.38l-4.861,-8.365l-7.639,3.248l-3.734,6.804l-0.661,10.713l10.053,11.373Zm-93.013,-28.253l2.663,11.146l6.387,5.87l14.945,-3.037l-4.461,-14.856l-10.414,-5.505l-9.12,6.382Zm35.754,11.785l-7.621,-4.416l-4.724,-10.593l3.045,-9.557l19.234,-2.964l6.431,7.697l1.006,7.709l-6.329,7.427l-11.042,4.697Zm28.738,-11.615l-6.48,-6.062l3.056,-12.565l8.624,-2.463l7.622,-1.443l2.977,3.95l3.5,-1.489l5.378,1.086l1.634,4.32l-5.651,4.447l-4.24,3.091l-7.817,4.704l-8.603,2.424Zm-9.426,-18.438l-10.639,-1.857l-10.285,-7.605l2.017,-7.626l4.768,-5.692l7.68,1.951l4.984,5.388l3.648,6.589l-2.173,8.852Zm-46.997,-4.091l-8.069,-10.664l1.707,-5.942l8.575,-19.295c0,0 7.897,5.94 10.382,6.017c2.486,0.076 7.683,4.452 7.683,4.452l-3.152,9.269l-8.599,6.112l-8.527,10.051Z" style="fill:#161510;fill-opacity:0.59;"/></g></g></g><g><path d="M103.075,189.322l-8.498,2.315l-10.854,-4.088l-4.656,-8.885l11.415,-15.761l9.995,0.837l6.189,4.704l0.833,9.723l-4.424,11.155Z" style="fill:#857c6c;"/><path d="M61.837,179.174l-13.257,-1.759l-3.025,-5.392l-7.693,-19.662c0,0 9.776,-1.44 11.578,-3.154c1.802,-1.714 8.568,-2.334 8.568,-2.334l4.375,8.758l-1.699,10.413l1.153,13.13Z" style="fill:#857c6c;"/><path d="M98.978,148.251l-8.8,6.26l-12.639,1.967l-4.006,-6.795l-0.695,-7.392l6.786,-4.09l7.336,0.243l7.251,2.038l4.767,7.769" style="fill:#857c6c;"/><path d="M64.082,133.253l7.406,0.232l6.994,-8.281l-1.768,-4.894l-4.671,-6.875l-15.48,-0.759l1.547,5.847l-3.142,4.537l5.099,9.246l4.015,0.947" style="fill:#857c6c;"/><path d="M45.736,135.587l-8.498,2.314l-10.853,-4.087l-4.657,-8.885l11.415,-15.761l9.996,0.837l6.189,4.704l0.832,9.723l-4.424,11.155Z" style="fill:#857c6c;"/><path d="M37.942,100.725l-8.8,6.26l-12.639,1.967l-4.005,-6.796l-0.696,-7.392l6.786,-4.09l7.337,0.243l7.25,2.038l4.767,7.77" style="fill:#857c6c;"/><path d="M12.219,152.727l1.874,-10.971l11.236,-3.536l13.701,7.272l-8.348,12.763l-8.664,0.415l-9.799,-5.943" style="fill:#857c6c;"/><path d="M107.901,191.938l-8.498,2.315l-10.854,-4.088l-4.656,-8.885l11.415,-15.761l9.995,0.837l6.189,4.704l0.833,9.723l-4.424,11.155Zm-4.097,-41.071l-8.8,6.26l-12.639,1.967l-4.006,-6.795l-0.695,-7.393l6.786,-4.089l7.336,0.243l7.25,2.038l4.768,7.769Zm-37.141,30.923l-13.257,-1.76l-3.026,-5.391l-7.692,-19.663c0,0 9.776,-1.439 11.578,-3.153c1.802,-1.714 8.568,-2.334 8.568,-2.334l4.375,8.758l-1.699,10.413l1.153,13.13Zm2.245,-45.921l7.406,0.232l6.994,-8.281l-1.768,-4.894l-4.671,-6.875l-15.48,-0.759l1.547,5.847l-3.142,4.537l5.099,9.246l4.015,0.947Zm-51.863,19.474l9.799,5.943l8.664,-0.415l8.348,-12.764l-13.701,-7.271l-11.237,3.536l-1.873,10.971Zm33.517,-17.14l-8.498,2.314l-10.854,-4.087l-4.656,-8.885l11.415,-15.761l9.995,0.837l6.189,4.704l0.833,9.723l-4.424,11.155Zm-7.794,-34.863l-8.8,6.261l-12.639,1.967l-4.006,-6.796l-0.695,-7.392l6.786,-4.09l7.337,0.243l7.25,2.038l4.767,7.769Z" style="fill:#161510;fill-opacity:0.6;"/></g><g><g><path d="M169.301,104.554l9.096,0.734l3.801,-7.281l-6.122,-7.353l-3.547,-7.966l-7.851,-7.4l-14.531,3.643l-0.998,9.551l4.989,10.033l15.163,6.039Z" style="fill:#797263;"/><path d="M142.527,55.505l11.516,9.294l-15.716,14.386l-10.228,-6.848l-9.121,-2.548l1.565,-6.515l-4.999,-11.212l7.754,-6.245l6.911,-1.054l9.116,5.668l3.202,5.074Z" style="fill:#797263;"/><path d="M125.639,35.377l12.183,7.17l6.614,7.03l3.383,0.273l4.197,0.338l-0.366,-4.845l-0.058,-4.82l-5.409,-3.841l-2.457,-3.893l-4.52,-2.896l-10.782,-5.685l-1.633,1.669l-3.394,5.947l2.242,3.553Z" style="fill:#797263;"/><path d="M106.872,5.643l10.874,3.257l3.308,7.318l1.416,7.509l-5.568,1.561l-10.801,-2.881l-11.078,-2.424l-8.382,-1.428l3.217,-3.897l-2.123,-3.364l0.785,-4.752l3.012,-1.523l15.34,0.624" style="fill:#797263;"/><path d="M99.488,35.422l-8.961,-1.692l-11.014,1.519l2.469,10.791l4.445,4.66l0.658,6.83l7.18,2.447l6.266,-7.632l6.183,-5.475l-2.262,-8.336l-4.964,-3.112Z" style="fill:#797263;"/><path d="M104.605,125.37l10.661,7.899l4.28,12.569l-6.449,4.295l-6.97,1.846l-12.635,-8.243l-9.477,-0.764l1.134,-9.54l3.291,-4.55l5.602,-2.26l10.563,-1.252Z" style="fill:#797263;"/><path d="M58.154,45.365l12.831,7.919l5.971,12.877l-8.114,1.397l-6.941,-0.56l-13.332,-9.84l-6.557,-1.396l1.599,-6.458l-8.466,-10.016l0.782,-6.671l3.926,-1.107l5.429,2.454l1.862,2.95l11.01,8.451" style="fill:#797263;"/><path d="M65.887,122.316c1.491,1.143 10.254,14.07 10.254,14.07l0.543,12.06l-11.28,-2.091l-3.256,-7.883l-6.351,-7.338c0,0 8.598,-9.96 10.09,-8.818Z" style="fill:#797263;"/><path d="M104.598,69.822l-11.21,2.853l-6.425,9.113l5.078,6.511l11.04,6.098l10.063,-2.043l8.409,-4.662l-5.9,-7.318l-6.424,-6.421l-4.631,-4.131" style="fill:#797263;"/><path d="M141.825,90.187l-5.951,2.04l-9.169,7.79l5.475,8.676l9.463,0.106l8.035,-2.913l-7.502,-8.335l1.13,-1.867l-0.292,-2.881l-1.189,-2.616Z" style="fill:#797263;"/><path d="M69.851,75.529l-6.489,1.772l-3.049,5.039l5.043,10.409l7.086,8.808l6.264,-3.734l5.269,-8.708l-14.124,-13.586Z" style="fill:#797263;"/></g><g><g opacity="0.2"><path d="M170.855,110.436l9.097,0.733l2.583,-6.881l-4.905,-7.753l-3.547,-7.965l-7.851,-7.401l-14.53,3.644l-0.999,9.55l4.989,10.034l15.163,6.039Z" style="fill:#161510;"/><path d="M144.081,61.386l11.517,9.294l-15.717,14.387l-10.228,-6.848l-9.12,-2.548l1.564,-6.515l-4.999,-11.212l7.755,-6.245l6.91,-1.055l9.116,5.668l3.202,5.074Z" style="fill:#161510;"/><path d="M127.194,41.259l12.182,7.17l6.614,7.029l3.383,0.273l3.397,0.256l-3.816,-6.046l3.062,0.247l-4.279,-7.625l-2.457,-3.892l-4.519,-2.897l-10.783,-5.685l-1.632,1.67l-3.395,5.947l2.243,3.553Z" style="fill:#161510;"/><path d="M108.426,11.524l10.875,3.257l3.307,7.319l1.417,7.509l-5.568,1.561l-10.802,-2.882l-11.078,-2.424l-8.381,-1.427l-2.432,-5.003l3.54,-4.53l5.356,0.112l1.71,-6.283l12.056,2.791" style="fill:#161510;"/><path d="M101.043,41.303l-8.962,-1.692l-11.014,1.52l0.918,4.897l4.138,4.602l2.516,12.782l7.18,2.447l6.267,-7.632l6.182,-5.476l-2.262,-8.335l-4.963,-3.113Z" style="fill:#161510;"/><path d="M106.159,131.252l10.661,7.898l4.28,12.569l-6.449,4.296l-6.97,1.845l-12.635,-8.242l-9.477,-0.765l1.135,-9.539l3.29,-4.551l5.603,-2.26l10.562,-1.251Z" style="fill:#161510;"/><path d="M59.708,51.247l12.832,7.918l5.97,12.878l-8.114,1.396l-6.941,-0.56l-13.332,-9.84l-6.557,-1.395l-1.798,-5.901l1.576,-6.022l-6.148,-7.32l0.285,-3.902l3.927,-1.107l5.428,2.453l1.862,2.95l11.01,8.452" style="fill:#161510;"/><path d="M67.118,129.926c1.491,1.142 10.577,12.342 10.577,12.342l0.544,12.06l-11.28,-2.091l-3.257,-7.884l-6.351,-7.338c0,0 8.275,-8.232 9.767,-7.089Z" style="fill:#161510;"/><path d="M106.153,75.703l-11.211,2.854l-6.424,9.113l5.077,6.511l11.041,6.098l10.062,-2.044l8.41,-4.662l-5.9,-7.317l-6.425,-6.421l-4.63,-4.132" style="fill:#161510;"/><path d="M143.379,96.068l-5.951,2.04l-9.169,7.79l4.155,3.01l8.733,0.169l8.203,-2.65l-2.721,-3.678l-1.465,-1.475l-2.689,-3.694l0.904,-1.512Z" style="fill:#161510;"/><path d="M71.406,81.411l-6.489,1.772l-3.049,5.039l5.721,9.808l6.006,7.042l6.666,-1.368l5.268,-8.707l-14.123,-13.586Z" style="fill:#161510;"/></g></g></g><g><g><path d="M88.58,131.202l9.097,0.733l3.8,-7.28l-6.122,-7.354l-3.547,-7.965l-7.851,-7.401l-14.53,3.644l-0.999,9.55l4.989,10.034l15.163,6.039Z" style="fill:#797263;"/><path d="M61.806,82.152l11.516,9.294l-15.716,14.387l-10.228,-6.848l-9.121,-2.548l1.565,-6.515l-4.999,-11.212l7.755,-6.245l6.91,-1.054l9.116,5.667l3.202,5.074Z" style="fill:#797263;"/><path d="M44.918,62.025l12.183,7.17l6.614,7.03l3.383,0.272l4.197,0.339l-0.366,-4.845l-0.058,-4.82l-5.409,-3.841l-2.457,-3.893l-4.52,-2.897l-10.782,-5.685l-1.632,1.67l-3.395,5.947l2.242,3.553Z" style="fill:#797263;"/><path d="M206.7,133.5l10.874,3.257l3.308,7.319l1.416,7.509l-5.568,1.561l-10.801,-2.881l-11.078,-2.424l-8.382,-1.428l3.217,-3.897l-2.123,-3.364l0.785,-4.752l3.012,-1.523l15.34,0.623" style="fill:#797263;"/><path d="M23.104,47.972l-8.962,-1.692l-11.013,1.519l2.468,10.791l4.446,4.66l0.657,6.83l7.18,2.447l6.267,-7.632l6.182,-5.475l-2.262,-8.336l-4.963,-3.112Z" style="fill:#797263;"/><path d="M117.153,175.646l12.831,7.918l5.971,12.878l-8.114,1.396l-6.942,-0.56l-13.332,-9.839l-6.557,-1.396l1.6,-6.459l-8.466,-10.016l0.782,-6.67l3.926,-1.107l5.428,2.453l1.862,2.95l11.011,8.452" style="fill:#797263;"/><path d="M155.323,51.58c1.491,1.142 10.254,14.069 10.254,14.069l0.544,12.06l-11.28,-2.09l-3.257,-7.884l-6.351,-7.338c0,0 8.599,-9.96 10.09,-8.817Z" style="fill:#797263;"/><path d="M61.104,116.834l-5.951,2.04l-9.169,7.79l5.476,8.676l9.462,0.106l8.035,-2.913l-7.502,-8.335l1.13,-1.866l-0.292,-2.882l-1.189,-2.616Z" style="fill:#797263;"/><path d="M192.88,107.373l-6.489,1.773l-3.049,5.039l5.043,10.408l7.086,8.809l6.264,-3.735l5.269,-8.707l-14.124,-13.587Z" style="fill:#797263;"/></g><g><g opacity="0.2"><path d="M90.134,137.083l9.097,0.734l2.583,-6.881l-4.905,-7.753l-3.547,-7.966l-7.851,-7.4l-14.53,3.643l-0.999,9.551l4.989,10.033l15.163,6.039Z" style="fill:#161510;"/><path d="M63.36,88.034l11.517,9.294l-15.717,14.386l-10.228,-6.848l-9.12,-2.548l1.564,-6.515l-4.999,-11.212l7.755,-6.244l6.91,-1.055l9.116,5.668l3.202,5.074Z" style="fill:#161510;"/><path d="M46.473,67.906l12.182,7.17l6.614,7.03l3.383,0.273l3.397,0.255l-3.816,-6.045l3.062,0.247l-4.279,-7.625l-2.456,-3.893l-4.52,-2.896l-10.783,-5.685l-1.632,1.669l-3.395,5.948l2.243,3.552Z" style="fill:#161510;"/><path d="M208.254,139.382l10.874,3.257l3.308,7.318l1.417,7.51l-5.568,1.561l-10.802,-2.882l-11.078,-2.424l-8.381,-1.428l-2.432,-5.003l3.54,-4.53l5.355,0.113l1.711,-6.283l12.056,2.791" style="fill:#161510;"/><path d="M24.658,53.853l-8.961,-1.692l-11.014,1.52l0.917,4.897l4.138,4.602l2.516,12.782l7.181,2.447l6.266,-7.632l6.183,-5.476l-2.262,-8.335l-4.964,-3.113Z" style="fill:#161510;"/><path d="M118.707,181.527l12.831,7.919l5.971,12.877l-8.114,1.397l-6.941,-0.56l-13.332,-9.84l-6.557,-1.396l-1.798,-5.901l1.576,-6.021l-6.148,-7.32l0.285,-3.903l3.926,-1.107l5.429,2.454l1.862,2.95l11.01,8.451" style="fill:#161510;"/><path d="M156.554,59.189c1.491,1.142 10.577,12.342 10.577,12.342l0.544,12.06l-11.28,-2.091l-3.257,-7.884l-6.35,-7.338c0,0 8.275,-8.232 9.766,-7.089Z" style="fill:#161510;"/><path d="M62.658,122.716l-5.951,2.04l-9.169,7.79l4.155,3.01l8.733,0.169l8.203,-2.65l-2.721,-3.679l-1.465,-1.474l-2.689,-3.695l0.904,-1.511Z" style="fill:#161510;"/><path d="M194.435,113.255l-6.489,1.772l-3.049,5.039l5.721,9.808l6.006,7.042l6.666,-1.367l5.268,-8.708l-14.123,-13.586Z" style="fill:#161510;"/></g></g></g></g><g><path d="M33.573,37.977l112.698,147.581l53.666,-26.833l-112.698,-147.581l-53.666,26.833Z" style="fill:#9f937d;"/><g><path d="M141.163,80.21l9.126,0.109l3.292,-7.523l-6.61,-6.918l-4.085,-7.704l-8.339,-6.845l-14.246,4.629l-0.343,9.597l5.664,9.668l15.541,4.987Z" style="fill:#696452;"/><path d="M142.557,86.244l9.126,0.11l3.292,-7.524l-6.61,-6.917l-4.084,-7.704l-8.339,-6.846l-14.247,4.63l-0.343,9.596l5.664,9.669l15.541,4.986Z" style="fill:#161510;fill-opacity:0.6;"/><path d="M94.298,29.234l12.645,6.32l7.08,6.56l3.393,0.041l4.211,0.05l-0.697,-4.808l-0.388,-4.805l-5.659,-3.462l-2.717,-3.716l-4.708,-2.58l-11.146,-4.934l-1.515,1.778l-2.979,6.166l2.48,3.39Z" style="fill:#696452;"/><path d="M95.692,35.269l12.645,6.319l7.08,6.561l3.394,0.04l4.21,0.051l-0.697,-4.809l-0.388,-4.805l-5.659,-3.462l-2.717,-3.715l-4.708,-2.58l-11.146,-4.934l-1.514,1.777l-2.98,6.166l2.48,3.391Z" style="fill:#161510;fill-opacity:0.6;"/><path d="M100.175,6.523l9.578,4.074l1.836,7.327l0.042,7.347l-5.453,1.02l-9.574,-3.707l-9.909,-3.292l-7.567,-2.098l3.661,-3.471l-1.406,-3.42l1.54,-4.504l3.065,-1.204l14.187,1.928" style="fill:#696452;"/><path d="M101.569,12.557l9.578,4.074l1.836,7.327l0.042,7.347l-5.453,1.02l-9.574,-3.707l-9.909,-3.291l-7.566,-2.099l3.66,-3.47l-1.406,-3.42l1.54,-4.504l3.065,-1.205l14.187,1.928" style="fill:#161510;fill-opacity:0.6;"/><path d="M129.265,42.23l6.055,7.085l-4.987,7.767l-3.637,9.061l-10.672,-6.132l-9.274,-1.918l1.114,-6.606l-5.754,-10.844l7.309,-6.761l6.822,-1.525l9.482,5.03l3.542,4.843Z" style="fill:#696452;"/><path d="M130.659,48.264l6.055,7.085l-4.986,7.767l-3.638,9.061l-10.672,-6.132l-9.274,-1.917l1.114,-6.607l-5.754,-10.844l7.309,-6.761l6.822,-1.525l9.482,5.031l3.542,4.842Z" style="fill:#161510;fill-opacity:0.6;"/><path d="M160.481,112.887l12.645,6.319l7.079,6.561l3.394,0.04l4.211,0.051l-0.697,-4.809l-0.388,-4.805l-5.659,-3.462l-2.718,-3.715l-4.707,-2.58l-11.147,-4.934l-1.514,1.777l-2.979,6.166l2.48,3.391Z" style="fill:#696452;"/><path d="M161.875,118.921l12.645,6.319l7.08,6.561l3.393,0.041l4.211,0.05l-0.697,-4.809l-0.388,-4.805l-5.659,-3.461l-2.718,-3.716l-4.707,-2.58l-11.147,-4.934l-1.514,1.778l-2.979,6.165l2.48,3.391Z" style="fill:#161510;fill-opacity:0.6;"/><path d="M192.488,121.739l6.055,7.085l-4.987,7.767l-3.637,9.061l-10.672,-6.132l-9.274,-1.918l1.114,-6.606l-5.754,-10.844l7.309,-6.761l6.822,-1.525l9.482,5.03l3.542,4.843Z" style="fill:#696452;"/><path d="M193.883,127.773l6.054,7.085l-4.986,7.767l-3.638,9.061l-10.672,-6.132l-9.274,-1.917l1.115,-6.607l-5.755,-10.844l7.309,-6.761l6.822,-1.525l9.482,5.031l3.543,4.842Z" style="fill:#161510;fill-opacity:0.6;"/><path d="M47.602,34.259l-9.043,-1.18l-10.909,2.144l3.078,10.633l4.703,4.399l1.045,6.782l7.308,2.034l5.822,-7.975l5.861,-5.819l-2.732,-8.193l-5.133,-2.825Z" style="fill:#696452;"/><path d="M48.926,40.309l-9.043,-1.18l-10.909,2.144l3.078,10.633l4.703,4.4l1.045,6.781l7.308,2.035l5.822,-7.976l5.861,-5.819l-2.732,-8.193l-5.133,-2.825Z" style="fill:#161510;fill-opacity:0.6;"/><path d="M50.44,49.337l11.093,7.279l4.988,12.305l-6.194,4.656l-6.854,2.239l-13.083,-7.511l-9.506,-0.224l0.59,-9.589l3.027,-4.73l5.465,-2.575l10.474,-1.85Z" style="fill:#696452;"/><path d="M51.764,55.387l11.093,7.279l4.988,12.306l-6.194,4.655l-6.854,2.239l-13.083,-7.511l-9.506,-0.224l0.59,-9.589l3.027,-4.73l5.465,-2.575l10.474,-1.85Z" style="fill:#161510;fill-opacity:0.6;"/><path d="M115.296,133.234l-9.043,-1.18l-10.91,2.144l3.079,10.633l4.703,4.4l1.044,6.781l7.308,2.035l5.823,-7.976l5.861,-5.819l-2.733,-8.193l-5.132,-2.825Z" style="fill:#696452;"/><path d="M116.62,139.284l-9.043,-1.179l-10.91,2.143l3.079,10.633l4.703,4.4l1.044,6.781l7.308,2.035l5.823,-7.976l5.861,-5.818l-2.733,-8.194l-5.132,-2.825Z" style="fill:#161510;fill-opacity:0.6;"/><path d="M118.133,148.312l11.093,7.279l4.988,12.306l-6.194,4.655l-6.854,2.239l-13.083,-7.511l-9.506,-0.224l0.591,-9.589l3.026,-4.73l5.465,-2.575l10.474,-1.85Z" style="fill:#696452;"/><path d="M119.457,154.362l11.093,7.279l4.988,12.306l-6.194,4.655l-6.854,2.239l-13.083,-7.511l-9.506,-0.224l0.591,-9.589l3.026,-4.73l5.465,-2.575l10.474,-1.85Z" style="fill:#161510;fill-opacity:0.6;"/><path d="M78.387,91.631l13.261,7.176l6.693,12.517l-8.021,1.855l-6.962,-0.164l-13.87,-9.066l-6.626,-1.02l1.23,-6.54l-9.022,-9.518l0.401,-6.704l3.857,-1.328l5.559,2.14l2.027,2.84l11.473,7.812" style="fill:#696452;"/><path d="M79.711,97.681l13.261,7.176l6.693,12.517l-8.021,1.856l-6.962,-0.165l-13.87,-9.065l-6.626,-1.021l1.23,-6.539l-9.022,-9.518l0.401,-6.705l3.857,-1.328l5.559,2.141l2.027,2.839l11.473,7.812" style="fill:#161510;fill-opacity:0.6;"/><path d="M56.306,62.032c1.554,1.056 11.038,13.464 11.038,13.464l1.228,12.009l-11.38,-1.446l-3.7,-7.685l-6.758,-6.965c0,0 8.018,-10.433 9.572,-9.377Z" style="fill:#696452;"/><path d="M57.63,68.082c1.554,1.056 11.038,13.464 11.038,13.464l1.228,12.009l-11.38,-1.445l-3.7,-7.686l-6.758,-6.965c0,0 8.018,-10.433 9.572,-9.377Z" style="fill:#161510;fill-opacity:0.6;"/><path d="M135.863,164.258c1.554,1.056 11.037,13.464 11.037,13.464l1.229,12.009l-11.381,-1.445l-3.699,-7.686l-6.758,-6.965c0,0 8.018,-10.433 9.572,-9.377Z" style="fill:#696452;"/><path d="M137.187,170.308c1.554,1.056 11.037,13.464 11.037,13.464l1.229,12.01l-11.381,-1.446l-3.699,-7.686l-6.758,-6.965c0,0 8.018,-10.433 9.572,-9.377Z" style="fill:#161510;fill-opacity:0.6;"/><path d="M152.646,74.232l-10.989,3.615l-5.785,9.531l5.511,6.148l11.432,5.328l9.899,-2.727l8.071,-5.227l-6.387,-6.896l-6.849,-5.967l-4.903,-3.805" style="fill:#696452;"/><path d="M154.041,80.267l-10.989,3.614l-5.786,9.532l5.511,6.148l11.432,5.328l9.899,-2.728l8.071,-5.227l-6.387,-6.896l-6.849,-5.966l-4.902,-3.805" style="fill:#161510;fill-opacity:0.6;"/><path d="M196.504,135.489l-10.989,3.614l-5.786,9.531l5.511,6.149l11.433,5.327l9.898,-2.727l8.071,-5.227l-6.387,-6.896l-6.849,-5.967l-4.902,-3.804" style="fill:#696452;"/><path d="M197.898,141.523l-10.989,3.614l-5.785,9.532l5.511,6.148l11.432,5.328l9.899,-2.728l8.071,-5.226l-6.388,-6.897l-6.849,-5.966l-4.902,-3.805" style="fill:#161510;fill-opacity:0.6;"/><path d="M162.815,88.134l-5.797,2.443l-8.615,8.4l6.057,8.28l9.448,-0.542l7.817,-3.456l-8.055,-7.802l0.999,-1.94l-0.488,-2.854l-1.366,-2.529Z" style="fill:#696452;"/><path d="M164.209,94.169l-5.797,2.443l-7.21,7.023l3.276,3.711l8.939,-0.286l5.095,-3.006l-3.448,-2.562l0.999,-1.94l-0.488,-2.855l-1.366,-2.528Z" style="fill:#161510;fill-opacity:0.6;"/><path d="M93.781,109.255l-7.526,2.082l-3.034,5.726l7.257,11.683l9.503,9.851l7.024,-4.294l5.242,-9.895l-18.466,-15.153Z" style="fill:#696452;"/><path d="M95.105,115.305l-7.526,2.082l-3.034,5.726l8.762,11.743l6.468,4.954l7.54,-5.96l4.883,-6.025l-17.093,-12.52Z" style="fill:#161510;fill-opacity:0.6;"/></g></g></g></svg>