<?xml version="1.0" encoding="UTF-8" standalone="no"?><!DOCTYPE svg PUBLIC "-//W3C//DTD SVG 1.1//EN" "http://www.w3.org/Graphics/SVG/1.1/DTD/svg11.dtd"><svg width="100%" height="100%" viewBox="0 0 224 205" version="1.1" xmlns="http://www.w3.org/2000/svg" xmlns:xlink="http://www.w3.org/1999/xlink" xml:space="preserve" xmlns:serif="http://www.serif.com/" style="fill-rule:evenodd;clip-rule:evenodd;stroke-linejoin:round;stroke-miterlimit:1.41421;"><g id="Stone_Ramp_LeftUp_high-angle1"><path d="M3.445,54.116l18.529,-12.134l20.977,-5.611l21.367,-12.624l15.817,-7.931l14.542,-1.882l16.099,-13.484l106.242,149.71l-107.331,53.666c-52.31,-40.103 -85.664,-91.201 -106.242,-149.71Z" style="fill:#6e6861;"/><clipPath id="_clip1"><path d="M3.445,54.116l18.529,-12.134l20.977,-5.611l21.367,-12.624l15.817,-7.931l14.542,-1.882l16.099,-13.484l106.242,149.71l-107.331,53.666c-52.31,-40.103 -85.664,-91.201 -106.242,-149.71Z"/></clipPath><g clip-path="url(#_clip1)"><g><g><path d="M25.209,68.943l-8.163,-4.081l0.518,-8.196l9.044,-3.123l7.159,-4.979l10.548,-2.267l10.545,10.639l-4.089,8.688l-9.463,6.002l-16.099,-2.683Z" style="fill:#797263;"/><path d="M73.508,40.838l-14.665,1.99l5.999,20.445l12.296,-0.565l9.123,2.542l2.034,-6.384l10.081,-7.005l-3.402,-9.357l-5.367,-4.48l-10.733,0.13l-5.366,2.684Z" style="fill:#797263;"/><path d="M98.376,32.359l-14.135,-0.172l-9.298,2.591l-3.035,-1.518l-3.767,-1.883l2.822,-3.956l2.545,-4.094l6.616,-0.486l4.117,-2.059l5.366,-0.138l12.169,0.717l0.532,2.274l-0.175,6.846l-3.757,1.878Z" style="fill:#797263;"/><path d="M129.825,16.635l-10.989,-2.843l-6.619,4.549l-5.099,5.691l3.956,4.218l10.733,3.127l10.733,3.661l7.91,3.117l-0.735,-4.999l3.558,-1.779l1.789,-4.472l-1.789,-2.863l-13.448,-7.407" style="fill:#797263;"/><path d="M120.727,45.935l8.543,3.192l8.636,7.001l-7.698,7.955l-6.216,1.686l-4.098,5.503l-7.41,-1.624l-1.41,-9.773l-2.455,-7.886l6.25,-5.96l5.858,-0.094Z" style="fill:#797263;"/><path d="M170.106,39.427l-13.211,1.238l-10.168,8.539l3.294,7.013l5.008,5.187l15.077,-0.511l8.504,4.252l3.968,-8.749l-0.46,-5.596l-3.623,-4.835l-8.389,-6.538Z" style="fill:#797263;"/><path d="M150.944,75.84l-15.077,0.133l-11.775,7.927l6.219,5.395l6.229,3.114l16.5,-1.517l6.333,2.2l1.975,-6.354l12.428,-4.186l2.784,-6.112l-2.786,-2.98l-5.914,-0.711l-3.121,1.56l-13.795,1.531" style="fill:#797263;"/><path d="M98.547,72.722l8.114,8.245l0.779,11.122l-7.714,2.943l-12.603,-0.499l-7.551,-6.957l-4.782,-8.342l8.836,-3.207l8.82,-2.168l6.101,-1.137" style="fill:#797263;"/><path d="M56.155,70.874l4.035,4.826l3.812,11.412l-9.176,4.588l-8.151,-4.808l-5.367,-6.651l10.733,-3.248l0,-2.182l1.741,-2.314l2.373,-1.623Z" style="fill:#797263;"/><path d="M125.321,95.593l4.635,4.875l0,5.89l-9.703,6.294l-10.623,3.868l-3.426,-6.437l0,-10.178l19.117,-4.312Z" style="fill:#797263;"/></g><g><g opacity="0.2"><path d="M20.834,73.17l-8.162,-4.081l1.352,-7.224l8.21,-4.095l7.158,-4.978l10.548,-2.268l10.546,10.639l-4.09,8.689l-9.462,6.002l-16.1,-2.684Z" style="fill:#161510;"/><path d="M69.133,45.065l-14.664,1.99l5.999,20.445l12.295,-0.564l9.123,2.541l2.034,-6.383l10.081,-7.006l-3.402,-9.357l-5.366,-4.479l-10.733,0.13l-5.367,2.683Z" style="fill:#161510;"/><path d="M94.001,36.587l-14.135,-0.172l-9.297,2.59l-3.036,-1.517l-3.039,-1.54l6.394,-3.197l-2.747,-1.374l7.608,-4.309l4.117,-2.058l5.367,-0.139l12.168,0.718l0.532,2.274l-0.174,6.845l-3.758,1.879Z" style="fill:#161510;"/><path d="M125.451,20.862l-10.99,-2.843l-6.618,4.55l-5.1,5.691l3.956,4.218l10.733,3.126l10.733,3.661l7.91,3.118l4.671,-3.022l-0.684,-5.708l-4.64,-2.677l1.789,-6.261l-11.76,-3.853" style="fill:#161510;"/><path d="M116.353,50.163l8.542,3.191l8.637,7.002l-3.32,3.715l-5.923,1.795l-8.769,9.633l-7.41,-1.623l-1.411,-9.774l-2.455,-7.885l6.25,-5.961l5.859,-0.093Z" style="fill:#161510;"/><path d="M165.731,43.654l-13.21,1.239l-10.168,8.538l3.293,7.013l5.008,5.188l15.077,-0.511l8.505,4.252l3.967,-8.75l-0.459,-5.596l-3.624,-4.834l-8.389,-6.539Z" style="fill:#161510;"/><path d="M146.57,80.068l-15.078,0.132l-11.774,7.927l6.219,5.395l6.228,3.115l16.501,-1.517l6.332,2.2l4.593,-4.118l1.769,-5.968l9.05,-3.08l1.776,-3.487l-2.786,-2.979l-5.915,-0.711l-3.12,1.56l-13.795,1.531" style="fill:#161510;"/><path d="M199.821,62.731c-1.868,0.205 -15.439,5.084 -15.439,5.084l-6.708,10.036l10.733,4.051l6.867,-5.059l9.232,-2.991c0,0 -2.818,-11.327 -4.685,-11.121Z" style="fill:#161510;"/><path d="M94.172,76.949l8.115,8.245l0.779,11.123l-7.715,2.942l-12.603,-0.498l-7.551,-6.958l-4.782,-8.342l8.836,-3.206l8.821,-2.168l6.1,-1.138" style="fill:#161510;"/><path d="M51.78,75.102l4.035,4.826l3.813,11.412l-5.114,0.424l-7.559,-4.377l-5.647,-6.513l4.233,-1.739l2.016,-0.503l4.214,-1.769l0.009,-1.761Z" style="fill:#161510;"/><path d="M120.947,99.82l4.634,4.875l0,5.89l-9.972,5.43l-8.784,2.916l-4.995,-4.621l0,-10.177l19.117,-4.313Z" style="fill:#161510;"/></g></g></g><g><g><path d="M114.464,225.992l-6.581,6.322l-7.549,-3.235l0.09,-9.568l-2.292,-8.413l1.4,-10.698l13.558,-6.369l6.815,6.765l2.483,10.927l-7.924,14.269Z" style="fill:#797263;"/><path d="M104.173,171.066l-3.04,14.483l21.273,1.201l3.59,-11.774l5.452,-7.743l-5.333,-4.056l-3.221,-11.846l-9.956,0.069l-6.019,3.555l-3.475,10.155l0.729,5.956Z" style="fill:#797263;"/><path d="M104.521,144.795l-4.9,13.259l-0.676,9.629l-2.447,2.351l-3.037,2.917l-2.781,-3.984l-3.004,-3.77l1.759,-6.396l-0.56,-4.569l1.669,-5.103l4.755,-11.224l2.32,0.261l6.391,2.459l0.511,4.17Z" style="fill:#797263;"/><path d="M100.247,109.894l-6.362,9.401l2.068,7.76l3.653,6.712l5.3,-2.313l6.543,-9.064l7.046,-8.885l5.589,-6.408l-4.956,-0.983l-0.484,-3.949l-3.614,-3.184l-3.296,0.726l-11.487,10.187" style="fill:#797263;"/><path d="M124.803,128.287l5.87,-6.979l9.492,-5.79l4.914,9.919l-0.495,6.421l3.811,5.706l-4.013,6.437l-9.681,-1.947l-8.253,-0.33l-3.52,-7.887l1.875,-5.55Z" style="fill:#797263;"/><path d="M135.222,79.583l-3.261,12.861l4.636,12.442l7.712,-0.752l6.566,-2.98l4.572,-14.376l6.856,-6.587l-6.913,-6.671l-5.427,-1.443l-5.769,1.794l-8.972,5.712Z" style="fill:#797263;"/><path d="M163.107,109.841l-4.929,14.25l3.522,13.751l7.167,-4.052l5.022,-4.824l4.101,-16.054l4.196,-5.229l-5.325,-3.991l0.222,-13.112l-4.826,-4.672l-3.741,1.626l-2.652,5.334l0.424,3.463l-3.181,13.51" style="fill:#797263;"/><path d="M142.606,158.162l10.487,-4.881l10.741,2.994l0.186,8.255l-4.694,11.706l-9.086,4.783l-9.462,1.709l-0.059,-9.4l0.914,-9.037l0.973,-6.129" style="fill:#797263;"/><path d="M126.656,197.483l5.899,-2.184l12.03,0.233l1.247,10.184l-7.262,6.067l-8.066,2.827l0.538,-11.201l-2.056,-0.731l-1.597,-2.416l-0.733,-2.779Z" style="fill:#797263;"/><path d="M173.128,140.603l6.146,-2.733l5.55,1.975l2.678,11.251l0.084,11.305l-7.214,1.07l-9.589,-3.412l2.345,-19.456Z" style="fill:#797263;"/></g><g><g opacity="0.2"><path d="M116.98,231.53l-6.581,6.322l-6.353,-3.695l-1.106,-9.107l-2.291,-8.414l1.399,-10.698l13.559,-6.369l6.815,6.765l2.483,10.927l-7.925,14.269Z" style="fill:#161510;"/><path d="M106.69,176.604l-3.04,14.484l21.273,1.2l3.589,-11.773l5.452,-7.743l-5.332,-4.057l-3.221,-11.845l-9.956,0.068l-6.019,3.555l-3.475,10.156l0.729,5.955Z" style="fill:#161510;"/><path d="M107.037,150.333l-4.9,13.26l-0.675,9.628l-2.448,2.351l-2.469,2.347l-0.869,-7.096l-2.215,2.128l-1.509,-8.612l-0.56,-4.569l1.669,-5.103l4.754,-11.224l2.321,0.261l6.391,2.459l0.51,4.17Z" style="fill:#161510;"/><path d="M102.764,115.432l-6.362,9.401l2.068,7.761l3.652,6.712l5.3,-2.313l6.544,-9.065l7.046,-8.885l5.588,-6.407l-1.281,-5.414l-5.607,-1.269l-4.077,3.475l-5.299,-3.784l-7.572,9.788" style="fill:#161510;"/><path d="M127.32,133.825l5.87,-6.979l9.492,-5.79l2.387,4.373l-0.294,6.182l6.137,11.491l-4.014,6.437l-9.681,-1.947l-8.252,-0.33l-3.521,-7.886l1.876,-5.551Z" style="fill:#161510;"/><path d="M137.739,85.121l-3.261,12.862l4.636,12.442l7.712,-0.753l6.565,-2.979l4.572,-14.377l6.857,-6.587l-6.913,-6.67l-5.427,-1.443l-5.769,1.793l-8.972,5.712Z" style="fill:#161510;"/><path d="M165.623,115.38l-4.929,14.249l3.522,13.751l7.168,-4.051l5.022,-4.825l4.101,-16.054l4.195,-5.229l-2.34,-5.707l-5.029,-3.667l0.131,-9.559l-2.69,-2.842l-3.741,1.627l-2.652,5.333l0.424,3.463l-3.182,13.511" style="fill:#161510;"/><path d="M167.138,59.398c-0.433,1.828 -0.385,16.25 -0.385,16.25l7.207,9.684l7.414,-8.754l-2.464,-8.167l0.276,-9.7c0,0 -11.616,-1.141 -12.048,0.687Z" style="fill:#161510;"/><path d="M145.122,163.701l10.488,-4.882l10.74,2.995l0.187,8.254l-4.694,11.707l-9.086,4.782l-9.462,1.709l-0.059,-9.399l0.913,-9.037l0.973,-6.129" style="fill:#161510;"/><path d="M129.173,203.021l5.899,-2.184l12.03,0.234l-1.315,4.959l-6.657,5.655l-8.029,3.137l-0.219,-4.57l0.201,-2.069l-0.254,-4.563l-1.656,-0.599Z" style="fill:#161510;"/><path d="M175.644,146.141l6.147,-2.732l5.549,1.974l1.773,11.216l-0.197,9.253l-6.027,3.157l-9.589,-3.411l2.344,-19.457Z" style="fill:#161510;"/></g></g></g><g><g><path d="M152.953,208.523l-7.531,5.155l-6.914,-4.431l1.66,-9.423l-0.877,-8.676l3.138,-10.322l14.421,-4.055l5.611,7.793l0.653,11.187l-10.161,12.772Z" style="fill:#797263;"/><path d="M151.829,152.653l-5.379,13.787l20.786,4.681l5.476,-11.024l6.65,-6.742l-4.593,-4.877l-1.231,-12.214l-9.832,-1.569l-6.521,2.517l-5.097,9.447l-0.259,5.994Z" style="fill:#797263;"/><path d="M156.489,126.796l-7.013,12.274l-2.248,9.387l-2.801,1.917l-3.475,2.378l-2.088,-4.387l-2.344,-4.212l2.786,-6.02l0.199,-4.599l2.485,-4.759l6.535,-10.29l2.246,0.639l5.9,3.475l-0.182,4.197Z" style="fill:#797263;"/><path d="M158.009,91.668l-7.82,8.227l0.764,7.995l2.5,7.221l5.608,-1.41l7.944,-7.866l8.411,-7.606l6.565,-5.402l-4.727,-1.785l0.172,-3.974l-3.042,-3.735l-3.37,0.174l-13.005,8.161" style="fill:#797263;"/><path d="M179.208,113.846l6.938,-5.919l10.314,-4.152l3.217,10.592l-1.544,6.253l2.822,6.254l-5.017,5.69l-9.229,-3.511l-8.086,-1.682l-2.177,-8.358l2.762,-5.167Z" style="fill:#797263;"/><path d="M197.49,67.517l-5.33,12.151l2.528,13.034l7.73,0.526l6.967,-1.861l6.872,-13.429l7.846,-5.371l-5.723,-7.716l-5.116,-2.315l-5.985,0.821l-9.789,4.16Z" style="fill:#797263;"/><path d="M220.023,101.947l-7.204,13.245l1.214,14.143l7.736,-2.818l5.746,-3.934l6.684,-15.162l4.998,-4.468l-4.596,-4.811l2.373,-12.898l-3.992,-5.402l-3.957,0.99l-3.493,4.825l-0.151,3.486l-5.358,12.804" style="fill:#797263;"/><path d="M191.859,146.241l11.147,-3.091l10.103,4.719l-1.173,8.172l-6.554,10.777l-9.748,3.224l-9.615,0.131l1.487,-9.282l2.386,-8.764l1.967,-5.886" style="fill:#797263;"/><path d="M169.664,182.406l6.178,-1.185l11.828,2.207l-0.444,10.25l-8.16,4.792l-8.42,1.463l2.371,-10.961l-1.908,-1.059l-1.178,-2.645l-0.267,-2.862Z" style="fill:#797263;"/><path d="M224.852,133.937l6.512,-1.685l5.149,2.859l0.793,11.539l-1.775,11.164l-7.292,-0.13l-8.897,-4.941l5.51,-18.806Z" style="fill:#797263;"/></g><g><g opacity="0.2"><path d="M154.525,214.4l-7.531,5.155l-5.659,-4.689l0.406,-9.166l-0.878,-8.675l3.138,-10.323l14.421,-4.054l5.611,7.793l0.653,11.186l-10.161,12.773Z" style="fill:#161510;"/><path d="M153.401,158.53l-5.379,13.787l20.786,4.68l5.476,-11.023l6.65,-6.742l-4.593,-4.877l-1.23,-12.215l-9.833,-1.568l-6.521,2.517l-5.097,9.447l-0.259,5.994Z" style="fill:#161510;"/><path d="M158.061,132.673l-7.012,12.274l-2.249,9.387l-2.801,1.917l-2.821,1.909l0.309,-7.143l-2.535,1.735l-0.073,-8.743l0.199,-4.599l2.484,-4.758l6.535,-10.29l2.246,0.638l5.9,3.476l-0.182,4.197Z" style="fill:#161510;"/><path d="M159.581,97.544l-7.82,8.228l0.764,7.995l2.5,7.221l5.608,-1.411l7.944,-7.865l8.411,-7.607l6.566,-5.402l-0.375,-5.55l-5.322,-2.173l-4.593,2.757l-4.605,-4.603l-9.078,8.41" style="fill:#161510;"/><path d="M180.781,119.723l6.937,-5.919l10.314,-4.152l1.636,4.706l-1.306,6.049l4.165,12.344l-5.016,5.69l-9.23,-3.511l-8.086,-1.682l-2.176,-8.358l2.762,-5.167Z" style="fill:#161510;"/><path d="M199.062,73.394l-5.33,12.15l2.528,13.035l7.731,0.525l6.966,-1.86l6.872,-13.429l7.846,-5.371l-5.723,-7.716l-5.116,-2.315l-5.985,0.821l-9.789,4.16Z" style="fill:#161510;"/><path d="M221.595,107.823l-7.204,13.246l1.214,14.143l7.736,-2.819l5.746,-3.933l6.684,-15.162l4.998,-4.468l-1.37,-6.015l-4.359,-4.444l1.701,-9.407l-2.186,-3.245l-3.958,0.99l-3.493,4.825l-0.151,3.486l-5.358,12.803" style="fill:#161510;"/><path d="M232.289,52.852c-0.727,1.732 -3.05,15.965 -3.05,15.965l5.518,10.737l8.751,-7.417l-1.089,-8.46l1.868,-9.523c0,0 -11.271,-3.035 -11.998,-1.302Z" style="fill:#161510;"/><path d="M193.431,152.118l11.148,-3.091l10.102,4.718l-1.173,8.173l-6.554,10.776l-9.748,3.224l-9.615,0.131l1.487,-9.281l2.386,-8.764l1.967,-5.886" style="fill:#161510;"/><path d="M171.236,188.283l6.178,-1.185l11.828,2.207l-2.112,4.676l-7.496,4.484l-8.435,1.775l0.535,-4.544l0.539,-2.008l0.499,-4.542l-1.536,-0.863Z" style="fill:#161510;"/><path d="M226.424,139.813l6.512,-1.685l5.15,2.86l-0.095,11.354l-1.715,9.095l-6.464,2.124l-8.898,-4.941l5.51,-18.807Z" style="fill:#161510;"/></g></g></g></g><g><path d="M3.445,54.184l-3.393,25.136l3.393,25.229l-2.263,34.368l2.263,11.865l106.165,53.082l-8.625,-18.821l-20.241,-15.045l-6.871,-21.646l-16.082,-8.04l0.759,-18.249l-15.208,-8.496l-3.42,-14.389l-13.918,-9.141l-6.382,-22.476l-16.177,-13.377Z" style="fill:#413528;"/><clipPath id="_clip2"><path d="M3.445,54.184l-3.393,25.136l3.393,25.229l-2.263,34.368l2.263,11.865l106.165,53.082l-8.625,-18.821l-20.241,-15.045l-6.871,-21.646l-16.082,-8.04l0.759,-18.249l-15.208,-8.496l-3.42,-14.389l-13.918,-9.141l-6.382,-22.476l-16.177,-13.377Z"/></clipPath><g clip-path="url(#_clip2)"><g><path d="M105.248,235.338l7.471,-8.393l-0.629,-15.381l-4.861,-8.364l-7.639,3.248l-3.734,6.804l-0.66,10.713l10.052,11.373" style="fill:#857c6c;"/><path d="M81.708,205.054l-6.48,-6.063l3.056,-12.564l8.624,-2.464l7.622,-1.443l2.976,3.95l3.501,-1.488l5.378,1.085l1.634,4.32l-5.651,4.448l-4.24,3.091l-7.817,4.703l-8.603,2.425Z" style="fill:#857c6c;"/><path d="M44.721,211.359l-7.62,-4.416l-4.724,-10.592l3.045,-9.558l19.233,-2.964l6.432,7.697l1.006,7.709l-6.329,7.428l-11.043,4.696Z" style="fill:#857c6c;"/><path d="M22.945,174.898l-8.069,-10.664l1.707,-5.942l8.575,-19.294c0,0 7.897,5.94 10.382,6.016c2.486,0.077 7.684,4.452 7.684,4.452l-3.152,9.269l-8.6,6.112l-8.527,10.051Z" style="fill:#857c6c;"/><path d="M71.048,179.571l-10.639,-1.858l-10.285,-7.605l2.017,-7.625l4.768,-5.692l7.679,1.95l4.985,5.388l3.648,6.589l-2.173,8.853" style="fill:#857c6c;"/><path d="M12.236,207.085l9.119,-6.382l10.414,5.505l4.461,14.856l-14.945,3.037l-6.387,-5.87l-2.662,-11.146" style="fill:#857c6c;"/><path d="M99.882,149.273l7.47,-8.393l-0.628,-15.381l-4.862,-8.364l-7.638,3.248l-3.735,6.804l-0.66,10.713l10.053,11.373" style="fill:#857c6c;"/><path d="M87.463,167.805l9.713,-5.467l-1.145,-6.211l-5.192,-3.009l-4.056,1.726l-4.47,4.429l0.084,5.597l5.066,2.935Z" style="fill:#857c6c;"/><path d="M57.18,144.21l5.042,5.43l10.806,-0.848l2.237,-4.698l1.606,-8.156l-10.344,-11.541l-3.071,5.211l-5.435,0.955l-2.991,10.126l2.15,3.521" style="fill:#857c6c;"/><path d="M71.36,121.19l-6.479,-6.062l3.056,-12.565l8.623,-2.464l7.622,-1.443l2.977,3.95l3.5,-1.488l5.378,1.086l1.634,4.319l-5.651,4.448l-4.24,3.091l-7.816,4.704l-8.604,2.424Z" style="fill:#857c6c;"/><path d="M42.622,132.804l-7.62,-4.415l-4.724,-10.593l3.045,-9.558l19.234,-2.963l6.431,7.697l1.006,7.708l-6.329,7.428l-11.043,4.696Z" style="fill:#857c6c;"/><path d="M14.938,98.661l-8.069,-10.665l1.707,-5.941l8.574,-19.295c0,0 7.897,5.94 10.383,6.017c2.486,0.076 7.683,4.452 7.683,4.452l-3.152,9.269l-8.6,6.112l-8.526,10.051Z" style="fill:#857c6c;"/><path d="M61.935,102.752l-10.639,-1.857l-10.285,-7.605l2.017,-7.626l4.768,-5.692l7.679,1.951l4.985,5.388l3.648,6.588l-2.173,8.853" style="fill:#857c6c;"/><path d="M6.869,121.02l9.119,-6.382l10.415,5.505l4.461,14.856l-14.945,3.037l-6.388,-5.87l-2.662,-11.146" style="fill:#857c6c;"/><path d="M94.362,259.141l9.714,-5.467l-1.146,-6.211l-5.191,-3.009l-4.057,1.726l-4.47,4.429l0.085,5.597l5.065,2.935Zm-30.283,-23.595l5.042,5.431l10.806,-0.849l2.237,-4.698l1.606,-8.156l-10.344,-11.541l-3.07,5.211l-5.436,0.955l-2.991,10.126l2.15,3.521Zm42.702,5.063l7.47,-8.393l-0.628,-15.381l-4.862,-8.364l-7.638,3.248l-3.735,6.804l-0.66,10.713l10.053,11.373Zm-93.013,-28.253l2.662,11.146l6.388,5.87l14.945,-3.037l-4.461,-14.856l-10.415,-5.505l-9.119,6.382Zm32.486,4.274l-7.621,-4.416l-4.724,-10.593l3.045,-9.557l19.234,-2.964l6.431,7.697l1.006,7.709l-6.329,7.428l-11.042,4.696Zm36.986,-6.305l-6.48,-6.063l3.057,-12.564l8.623,-2.464l7.622,-1.443l2.977,3.95l3.5,-1.488l5.378,1.085l1.634,4.32l-5.651,4.448l-4.24,3.091l-7.816,4.703l-8.604,2.425Zm-10.659,-25.483l-10.64,-1.858l-10.284,-7.605l2.016,-7.626l4.769,-5.691l7.679,1.95l4.985,5.388l3.648,6.589l-2.173,8.853Zm-48.103,-4.673l-8.069,-10.664l1.707,-5.942l8.574,-19.295c0,0 7.897,5.941 10.383,6.017c2.486,0.077 7.683,4.452 7.683,4.452l-3.152,9.269l-8.6,6.112l-8.526,10.051Zm64.518,-7.093l9.713,-5.467l-1.146,-6.211l-5.191,-3.009l-4.057,1.726l-4.47,4.429l0.085,5.597l5.066,2.935Zm-30.284,-23.595l5.042,5.43l10.806,-0.848l2.238,-4.699l1.605,-8.155l-10.343,-11.541l-3.071,5.211l-5.436,0.955l-2.99,10.126l2.149,3.521Zm42.702,5.063l7.471,-8.393l-0.629,-15.381l-4.861,-8.364l-7.639,3.248l-3.734,6.804l-0.66,10.713l10.052,11.373Zm-93.012,-28.253l2.662,11.146l6.387,5.87l14.945,-3.037l-4.461,-14.856l-10.414,-5.505l-9.119,6.382Zm35.753,11.784l-7.621,-4.416l-4.724,-10.592l3.045,-9.558l19.234,-2.963l6.432,7.697l1.006,7.708l-6.329,7.428l-11.043,4.696Zm28.738,-11.614l-6.48,-6.062l3.057,-12.565l8.623,-2.464l7.622,-1.443l2.977,3.95l3.5,-1.488l5.378,1.086l1.634,4.319l-5.651,4.448l-4.24,3.091l-7.816,4.704l-8.604,2.424Zm-9.426,-18.438l-10.639,-1.857l-10.284,-7.605l2.016,-7.626l4.769,-5.692l7.679,1.95l4.984,5.389l3.648,6.588l-2.173,8.853Zm-46.997,-4.091l-8.068,-10.665l1.706,-5.941l8.575,-19.295c0,0 7.897,5.94 10.383,6.017c2.485,0.076 7.683,4.452 7.683,4.452l-3.152,9.269l-8.6,6.112l-8.527,10.051Z" style="fill:#161510;fill-opacity:0.59;"/></g></g></g><g><path d="M102.302,189.718l-8.498,2.314l-10.854,-4.087l-4.656,-8.885l11.415,-15.761l9.995,0.837l6.189,4.704l0.833,9.723l-4.424,11.155Z" style="fill:#857c6c;"/><path d="M61.064,179.57l-13.257,-1.76l-3.025,-5.391l-7.693,-19.663c0,0 9.776,-1.439 11.578,-3.153c1.802,-1.714 8.568,-2.334 8.568,-2.334l4.376,8.758l-1.7,10.413l1.153,13.13Z" style="fill:#857c6c;"/><path d="M98.205,148.647l-8.8,6.26l-12.639,1.967l-4.005,-6.795l-0.695,-7.393l6.785,-4.09l7.337,0.244l7.25,2.038l4.767,7.769" style="fill:#857c6c;"/><path d="M63.309,133.649l7.407,0.232l6.993,-8.281l-1.768,-4.894l-4.671,-6.875l-15.479,-0.759l1.547,5.847l-3.143,4.537l5.099,9.246l4.015,0.947" style="fill:#857c6c;"/><path d="M44.963,135.983l-8.497,2.314l-10.854,-4.087l-4.656,-8.885l11.414,-15.762l9.996,0.838l6.189,4.704l0.832,9.723l-4.424,11.155Z" style="fill:#857c6c;"/><path d="M37.17,101.12l-8.801,6.261l-12.639,1.967l-4.005,-6.796l-0.695,-7.392l6.786,-4.09l7.336,0.243l7.25,2.038l4.768,7.769" style="fill:#857c6c;"/><path d="M11.447,153.123l1.873,-10.972l11.236,-3.535l13.701,7.271l-8.348,12.763l-8.664,0.416l-9.798,-5.943" style="fill:#857c6c;"/><path d="M107.128,192.334l-8.498,2.314l-10.854,-4.087l-4.656,-8.885l11.415,-15.761l9.995,0.837l6.189,4.704l0.833,9.723l-4.424,11.155Zm-4.097,-41.071l-8.8,6.26l-12.639,1.967l-4.005,-6.795l-0.696,-7.393l6.786,-4.09l7.337,0.244l7.25,2.038l4.767,7.769Zm-37.141,30.923l-13.257,-1.76l-3.025,-5.391l-7.693,-19.663c0,0 9.776,-1.439 11.578,-3.153c1.802,-1.714 8.568,-2.334 8.568,-2.334l4.375,8.758l-1.699,10.413l1.153,13.13Zm2.245,-45.921l7.407,0.232l6.993,-8.281l-1.768,-4.894l-4.671,-6.875l-15.48,-0.759l1.548,5.847l-3.143,4.537l5.099,9.246l4.015,0.947Zm-51.862,19.474l9.798,5.943l8.664,-0.416l8.348,-12.763l-13.701,-7.272l-11.236,3.536l-1.873,10.972Zm33.516,-17.14l-8.498,2.314l-10.853,-4.087l-4.656,-8.885l11.414,-15.762l9.996,0.838l6.189,4.704l0.832,9.723l-4.424,11.155Zm-7.794,-34.863l-8.8,6.26l-12.639,1.968l-4.005,-6.796l-0.695,-7.392l6.785,-4.09l7.337,0.243l7.25,2.038l4.767,7.769Z" style="fill:#161510;fill-opacity:0.6;"/></g><g><g><path d="M168.528,104.95l9.097,0.734l3.8,-7.281l-6.122,-7.353l-3.547,-7.966l-7.851,-7.401l-14.53,3.644l-0.999,9.551l4.989,10.033l15.163,6.039Z" style="fill:#797263;"/><path d="M141.754,55.9l11.516,9.294l-15.716,14.387l-10.228,-6.848l-9.12,-2.548l1.564,-6.515l-4.999,-11.212l7.755,-6.245l6.91,-1.054l9.116,5.667l3.202,5.074Z" style="fill:#797263;"/><path d="M124.867,35.773l12.182,7.17l6.614,7.03l3.383,0.273l4.197,0.338l-0.366,-4.845l-0.058,-4.82l-5.409,-3.841l-2.457,-3.893l-4.52,-2.896l-10.782,-5.686l-1.632,1.67l-3.395,5.947l2.243,3.553Z" style="fill:#797263;"/><path d="M106.099,6.039l10.874,3.256l3.308,7.319l1.417,7.509l-5.568,1.561l-10.802,-2.881l-11.078,-2.424l-8.381,-1.428l3.216,-3.897l-2.123,-3.364l0.785,-4.752l3.012,-1.523l15.34,0.624" style="fill:#797263;"/><path d="M98.716,35.817l-8.962,-1.691l-11.014,1.519l2.469,10.791l4.445,4.66l0.658,6.83l7.18,2.447l6.267,-7.632l6.182,-5.476l-2.262,-8.335l-4.963,-3.113Z" style="fill:#797263;"/><path d="M103.832,125.766l10.661,7.899l4.28,12.569l-6.449,4.295l-6.97,1.846l-12.635,-8.243l-9.477,-0.764l1.135,-9.54l3.29,-4.55l5.603,-2.26l10.562,-1.252Z" style="fill:#797263;"/><path d="M57.381,45.761l12.832,7.919l5.97,12.877l-8.114,1.396l-6.941,-0.559l-13.332,-9.84l-6.557,-1.396l1.6,-6.459l-8.466,-10.015l0.781,-6.671l3.927,-1.107l5.428,2.453l1.862,2.951l11.01,8.451" style="fill:#797263;"/><path d="M65.114,122.712c1.491,1.143 10.254,14.07 10.254,14.07l0.543,12.06l-11.279,-2.091l-3.257,-7.884l-6.351,-7.337c0,0 8.599,-9.96 10.09,-8.818Z" style="fill:#797263;"/><path d="M103.826,70.217l-11.211,2.854l-6.424,9.113l5.077,6.511l11.041,6.098l10.062,-2.044l8.41,-4.661l-5.901,-7.318l-6.424,-6.421l-4.63,-4.132" style="fill:#797263;"/><path d="M141.052,90.582l-5.951,2.04l-9.169,7.791l5.476,8.676l9.462,0.105l8.035,-2.912l-7.501,-8.336l1.129,-1.866l-0.291,-2.882l-1.19,-2.616Z" style="fill:#797263;"/><path d="M69.078,75.925l-6.488,1.772l-3.049,5.039l5.042,10.409l7.086,8.808l6.265,-3.734l5.268,-8.708l-14.124,-13.586Z" style="fill:#797263;"/></g><g><g opacity="0.2"><path d="M170.083,110.831l9.096,0.734l2.583,-6.881l-4.905,-7.753l-3.547,-7.966l-7.851,-7.4l-14.53,3.643l-0.999,9.551l4.989,10.034l15.164,6.038Z" style="fill:#161510;"/><path d="M143.308,61.782l11.517,9.294l-15.717,14.387l-10.227,-6.849l-9.121,-2.547l1.564,-6.515l-4.999,-11.213l7.755,-6.244l6.91,-1.055l9.116,5.668l3.202,5.074Z" style="fill:#161510;"/><path d="M126.421,41.654l12.183,7.17l6.613,7.03l3.383,0.273l3.397,0.256l-3.815,-6.046l3.061,0.247l-4.278,-7.625l-2.457,-3.893l-4.52,-2.896l-10.783,-5.685l-1.632,1.67l-3.394,5.947l2.242,3.552Z" style="fill:#161510;"/><path d="M107.654,11.92l10.874,3.257l3.307,7.318l1.417,7.51l-5.568,1.561l-10.802,-2.882l-11.078,-2.424l-8.381,-1.428l-2.432,-5.003l3.54,-4.53l5.356,0.113l1.711,-6.283l12.056,2.791" style="fill:#161510;"/><path d="M100.27,41.699l-8.962,-1.692l-11.013,1.52l0.917,4.896l4.138,4.602l2.516,12.782l7.18,2.447l6.267,-7.631l6.182,-5.476l-2.262,-8.336l-4.963,-3.112Z" style="fill:#161510;"/><path d="M105.386,131.647l10.661,7.899l4.28,12.569l-6.448,4.295l-6.97,1.846l-12.635,-8.242l-9.478,-0.765l1.135,-9.54l3.29,-4.55l5.603,-2.26l10.562,-1.252Z" style="fill:#161510;"/><path d="M58.935,51.642l12.832,7.919l5.97,12.878l-8.114,1.396l-6.941,-0.56l-13.332,-9.84l-6.557,-1.395l-1.797,-5.901l1.575,-6.022l-6.148,-7.32l0.286,-3.902l3.926,-1.107l5.428,2.453l1.862,2.95l11.01,8.451" style="fill:#161510;"/><path d="M66.345,130.322c1.491,1.142 10.577,12.342 10.577,12.342l0.544,12.059l-11.28,-2.09l-3.257,-7.884l-6.351,-7.338c0,0 8.275,-8.232 9.767,-7.089Z" style="fill:#161510;"/><path d="M105.38,76.099l-11.211,2.854l-6.424,9.113l5.077,6.511l11.041,6.098l10.062,-2.044l8.41,-4.662l-5.9,-7.318l-6.425,-6.421l-4.63,-4.131" style="fill:#161510;"/><path d="M142.606,96.464l-5.95,2.04l-9.17,7.79l4.156,3.01l8.733,0.169l8.202,-2.65l-2.721,-3.679l-1.465,-1.474l-2.689,-3.694l0.904,-1.512Z" style="fill:#161510;"/><path d="M70.633,81.806l-6.489,1.772l-3.049,5.04l5.721,9.808l6.006,7.042l6.666,-1.368l5.268,-8.707l-14.123,-13.587Z" style="fill:#161510;"/></g></g></g><g><g><path d="M87.807,131.597l9.097,0.734l3.8,-7.28l-6.122,-7.354l-3.547,-7.965l-7.851,-7.401l-14.53,3.644l-0.999,9.55l4.989,10.034l15.163,6.038Z" style="fill:#797263;"/><path d="M61.033,82.548l11.517,9.294l-15.717,14.387l-10.228,-6.848l-9.12,-2.548l1.564,-6.515l-4.999,-11.212l7.755,-6.245l6.91,-1.055l9.116,5.668l3.202,5.074Z" style="fill:#797263;"/><path d="M44.146,62.42l12.182,7.17l6.614,7.03l3.383,0.273l4.197,0.339l-0.366,-4.845l-0.058,-4.821l-5.409,-3.841l-2.457,-3.892l-4.519,-2.897l-10.783,-5.685l-1.632,1.67l-3.395,5.947l2.243,3.552Z" style="fill:#797263;"/><path d="M205.927,133.896l10.874,3.257l3.308,7.319l1.417,7.509l-5.568,1.561l-10.802,-2.881l-11.078,-2.425l-8.381,-1.427l3.216,-3.897l-2.123,-3.364l0.785,-4.752l3.012,-1.523l15.34,0.623" style="fill:#797263;"/><path d="M22.331,48.367l-8.961,-1.691l-11.014,1.519l2.469,10.791l4.445,4.66l0.657,6.83l7.18,2.447l6.267,-7.632l6.183,-5.475l-2.262,-8.336l-4.964,-3.113Z" style="fill:#797263;"/><path d="M116.38,176.042l12.831,7.918l5.971,12.878l-8.114,1.396l-6.941,-0.56l-13.332,-9.84l-6.557,-1.395l1.599,-6.459l-8.466,-10.016l0.782,-6.67l3.926,-1.107l5.429,2.453l1.862,2.95l11.01,8.452" style="fill:#797263;"/><path d="M154.55,51.975c1.492,1.143 10.254,14.07 10.254,14.07l0.544,12.06l-11.28,-2.091l-3.257,-7.883l-6.35,-7.338c0,0 8.598,-9.96 10.089,-8.818Z" style="fill:#797263;"/><path d="M60.331,117.23l-5.951,2.04l-9.169,7.79l5.476,8.676l9.462,0.106l8.035,-2.913l-7.501,-8.335l1.129,-1.867l-0.291,-2.881l-1.19,-2.616Z" style="fill:#797263;"/><path d="M192.108,107.769l-6.489,1.772l-3.049,5.039l5.042,10.409l7.087,8.808l6.264,-3.734l5.268,-8.708l-14.123,-13.586Z" style="fill:#797263;"/></g><g><g opacity="0.2"><path d="M89.362,137.479l9.096,0.734l2.583,-6.881l-4.905,-7.753l-3.547,-7.966l-7.851,-7.401l-14.53,3.644l-0.999,9.551l4.989,10.033l15.164,6.039Z" style="fill:#161510;"/><path d="M62.588,88.429l11.516,9.295l-15.717,14.386l-10.227,-6.848l-9.121,-2.548l1.564,-6.515l-4.999,-11.212l7.755,-6.245l6.91,-1.054l9.116,5.668l3.203,5.073Z" style="fill:#161510;"/><path d="M45.7,68.302l12.183,7.17l6.614,7.03l3.382,0.273l3.397,0.255l-3.815,-6.045l3.061,0.247l-4.278,-7.625l-2.457,-3.893l-4.52,-2.896l-10.783,-5.686l-1.632,1.67l-3.394,5.947l2.242,3.553Z" style="fill:#161510;"/><path d="M207.482,139.778l10.874,3.257l3.307,7.318l1.417,7.509l-5.568,1.561l-10.802,-2.881l-11.078,-2.424l-8.381,-1.428l-2.432,-5.003l3.54,-4.53l5.356,0.112l1.71,-6.282l12.057,2.791" style="fill:#161510;"/><path d="M23.885,54.249l-8.961,-1.692l-11.014,1.52l0.917,4.897l4.139,4.602l2.516,12.782l7.18,2.446l6.266,-7.631l6.183,-5.476l-2.262,-8.335l-4.964,-3.113Z" style="fill:#161510;"/><path d="M117.934,181.923l12.832,7.919l5.97,12.877l-8.114,1.396l-6.941,-0.559l-13.332,-9.84l-6.557,-1.396l-1.798,-5.901l1.576,-6.021l-6.148,-7.321l0.285,-3.902l3.927,-1.107l5.428,2.453l1.862,2.951l11.01,8.451" style="fill:#161510;"/><path d="M155.781,59.585c1.491,1.142 10.577,12.342 10.577,12.342l0.544,12.059l-11.28,-2.09l-3.257,-7.884l-6.35,-7.338c0,0 8.275,-8.232 9.766,-7.089Z" style="fill:#161510;"/><path d="M61.885,123.111l-5.95,2.041l-9.17,7.79l4.156,3.01l8.733,0.168l8.203,-2.649l-2.722,-3.679l-1.464,-1.474l-2.69,-3.695l0.904,-1.512Z" style="fill:#161510;"/><path d="M193.662,113.651l-6.489,1.772l-3.049,5.039l5.721,9.808l6.006,7.042l6.666,-1.368l5.268,-8.707l-14.123,-13.586Z" style="fill:#161510;"/></g></g></g></g></svg>