<?xml version="1.0" encoding="UTF-8" standalone="no"?><!DOCTYPE svg PUBLIC "-//W3C//DTD SVG 1.1//EN" "http://www.w3.org/Graphics/SVG/1.1/DTD/svg11.dtd"><svg width="100%" height="100%" viewBox="0 0 290 249" version="1.1" xmlns="http://www.w3.org/2000/svg" xmlns:xlink="http://www.w3.org/1999/xlink" xml:space="preserve" xmlns:serif="http://www.serif.com/" style="fill-rule:evenodd;clip-rule:evenodd;stroke-linejoin:round;stroke-miterlimit:1.41421;"><g id="Way_Ramp_Up_low2"><path d="M64.831,7.027l-59.904,29.952l70.601,54.71l41.731,53.064l107.335,93.653l56.085,-28.042l-215.848,-203.337" style="fill:#9f937d;"/><g><path d="M27.356,55.556l0.075,-9.126l7.588,-3.14l6.783,6.749l7.62,4.239l6.676,8.475l-4.916,14.151l-9.602,0.149l-9.552,-5.858l-4.672,-15.639Z" style="fill:#696452;"/><path d="M26.003,60.607l0.074,-9.125l7.589,-3.14l6.782,6.749l7.62,4.239l6.676,8.475l-4.916,14.151l-9.602,0.148l-9.552,-5.858l-4.671,-15.639Z" style="fill:#161510;fill-opacity:0.6;"/><path d="M33.564,44.196l-3.835,10.913l-9.647,5.592l-6.035,-5.634l-5.096,-11.537l2.927,-9.842l5.388,-7.964l6.766,6.526l5.827,6.968l3.705,4.978" style="fill:#696452;"/><path d="M32.211,49.247l-3.836,10.914l-9.646,5.592l-6.036,-5.634l-5.096,-11.537l2.927,-9.842l5.389,-7.964l6.766,6.525l5.827,6.968l3.705,4.978" style="fill:#161510;fill-opacity:0.6;"/><path d="M19.87,33.749l-2.559,5.746l-8.572,8.443l-8.156,-6.223l0.732,-9.434l3.613,-7.746l7.638,8.211l1.96,-0.96l2.844,0.546l2.5,1.417Z" style="fill:#696452;"/><path d="M18.517,38.8l-2.559,5.747l-7.168,7.067l-3.644,-3.35l0.467,-8.932l3.108,-5.033l2.492,3.499l1.959,-0.96l2.844,0.545l2.501,1.417Z" style="fill:#161510;fill-opacity:0.6;"/><path d="M77.375,103.44l-6.063,-12.77l-6.416,-7.21l0.028,-3.394l0.035,-4.211l4.793,0.794l4.796,0.485l3.347,5.728l3.66,2.792l2.485,4.759l4.707,11.243l-1.807,1.478l-6.225,2.854l-3.34,-2.548Z" style="fill:#696452;"/><path d="M76.022,108.492l-6.063,-12.77l-6.416,-7.21l0.027,-3.394l0.035,-4.211l4.794,0.794l4.796,0.485l3.347,5.727l3.659,2.793l2.485,4.758l4.708,11.244l-1.808,1.478l-6.224,2.854l-3.34,-2.548Z" style="fill:#161510;fill-opacity:0.6;"/><path d="M100.201,98.023l-3.88,-9.657l-7.289,-1.984l-7.344,-0.191l-1.13,5.432l3.513,9.647l3.091,9.973l1.945,7.607l3.544,-3.589l3.391,1.474l4.534,-1.448l1.266,-3.041l-1.641,-14.223" style="fill:#696452;"/><path d="M98.847,103.075l-3.88,-9.658l-7.288,-1.984l-7.345,-0.19l-1.129,5.432l3.513,9.646l3.09,9.974l1.946,7.607l3.543,-3.589l3.391,1.474l4.534,-1.449l1.266,-3.04l-1.641,-14.223" style="fill:#161510;fill-opacity:0.6;"/><path d="M65.088,68.218l-6.961,-6.196l-7.866,4.828l-9.133,3.454l5.916,10.794l1.73,9.311l6.627,-0.981l10.726,5.972l6.907,-7.171l1.662,-6.79l-4.838,-9.582l-4.77,-3.639Z" style="fill:#696452;"/><path d="M63.735,73.27l-6.962,-6.196l-7.866,4.828l-9.132,3.454l5.915,10.794l1.73,9.311l6.628,-0.981l10.725,5.972l6.907,-7.171l1.663,-6.79l-4.838,-9.582l-4.77,-3.639Z" style="fill:#161510;fill-opacity:0.6;"/><path d="M166.45,167.21l0.386,9.112l-3.087,10.681l-10.324,-3.994l-3.973,-5.069l-6.664,-1.633l-1.39,-7.457l8.454,-5.105l6.307,-5.331l7.924,3.437l2.367,5.359Z" style="fill:#696452;"/><path d="M164.818,172.179l0.386,9.111l-3.087,10.681l-10.324,-3.994l-3.973,-5.069l-6.664,-1.632l-1.39,-7.457l8.454,-5.105l6.307,-5.331l7.924,3.437l2.367,5.359Z" style="fill:#161510;fill-opacity:0.6;"/><path d="M156.775,159.477l-6.284,-11.686l-11.823,-6.042l-5.178,5.764l-2.828,6.632l6.341,13.689l-0.606,9.489l9.604,0.248l4.976,-2.602l3.042,-5.22l2.756,-10.272Z" style="fill:#696452;"/><path d="M155.144,164.445l-6.284,-11.686l-11.824,-6.042l-5.178,5.765l-2.828,6.632l6.341,13.689l-0.606,9.489l9.604,0.248l4.976,-2.602l3.042,-5.22l2.757,-10.273Z" style="fill:#161510;fill-opacity:0.6;"/><path d="M219.892,221.758l-2.732,7.316l-5.968,2.523l-11.006,-8.249l-8.984,-10.326l4.89,-6.622l10.314,-4.359l13.486,19.717Z" style="fill:#696452;"/><path d="M218.26,226.727l-2.731,7.316l-5.969,2.523l-10.934,-9.753l-4.371,-6.875l6.595,-6.992l6.428,-4.339l10.982,18.12Z" style="fill:#161510;fill-opacity:0.6;"/><path d="M233.549,224.043l0.386,9.112l-3.087,10.681l-10.324,-3.995l-3.973,-5.069l-6.664,-1.632l-1.39,-7.457l8.454,-5.105l6.307,-5.331l7.924,3.437l2.367,5.359Z" style="fill:#696452;"/><path d="M231.917,229.012l0.386,9.111l-3.087,10.681l-10.324,-3.994l-3.973,-5.069l-6.664,-1.632l-1.389,-7.457l8.453,-5.105l6.307,-5.331l7.924,3.436l2.367,5.36Z" style="fill:#161510;fill-opacity:0.6;"/><path d="M204.674,204.673l-6.284,-11.686l-11.823,-6.042l-5.178,5.764l-2.828,6.633l6.341,13.688l-0.606,9.489l9.604,0.249l4.975,-2.603l3.043,-5.219l2.756,-10.273Z" style="fill:#696452;"/><path d="M203.042,209.642l-6.284,-11.686l-11.823,-6.042l-5.178,5.764l-2.828,6.633l6.341,13.688l-0.606,9.489l9.604,0.248l4.976,-2.602l3.042,-5.219l2.756,-10.273Z" style="fill:#161510;fill-opacity:0.6;"/><path d="M112.683,124.79l-5.992,-13.836l-11.886,-7.76l-2.548,7.829l-0.444,6.95l7.822,14.608l0.438,6.689l6.622,-0.654l8.695,9.817l6.714,0.186l1.659,-3.727l-1.647,-5.724l-2.652,-2.267l-6.781,-12.111" style="fill:#696452;"/><path d="M111.051,129.759l-5.992,-13.836l-11.886,-7.76l-2.548,7.829l-0.443,6.949l7.821,14.608l0.438,6.69l6.622,-0.655l8.695,9.818l6.714,0.185l1.659,-3.726l-1.647,-5.725l-2.652,-2.266l-6.781,-12.111" style="fill:#161510;fill-opacity:0.6;"/><path d="M140.243,149.368c-0.917,-1.64 -12.45,-12.169 -12.45,-12.169l-11.857,-2.272l0.448,11.463l7.334,4.357l6.349,7.339c0,0 11.092,-7.077 10.176,-8.718Z" style="fill:#696452;"/><path d="M138.611,154.337c-0.917,-1.64 -12.45,-12.17 -12.45,-12.17l-11.857,-2.271l0.448,11.463l7.334,4.356l6.349,7.34c0,0 11.092,-7.078 10.176,-8.718Z" style="fill:#161510;fill-opacity:0.6;"/><path d="M185.465,194.059l-2.731,7.316l-5.969,2.523l-11.005,-8.249l-8.985,-10.326l4.891,-6.622l10.314,-4.359l13.485,19.717Z" style="fill:#696452;"/><path d="M183.833,199.028l-2.731,7.316l-5.969,2.523l-10.933,-9.754l-4.371,-6.874l6.595,-6.992l6.428,-4.339l10.981,18.12Z" style="fill:#161510;fill-opacity:0.6;"/></g><g><path d="M155.306,72.505l0.386,9.112l-3.086,10.681l-10.324,-3.995l-3.973,-5.069l-6.665,-1.632l-1.389,-7.457l8.453,-5.105l6.308,-5.331l7.924,3.437l2.366,5.359Z" style="fill:#696452;"/><path d="M153.675,77.474l0.386,9.111l-3.087,10.681l-10.324,-3.994l-3.973,-5.069l-6.664,-1.632l-1.39,-7.457l8.454,-5.105l6.307,-5.331l7.924,3.436l2.367,5.36Z" style="fill:#161510;fill-opacity:0.6;"/><path d="M142.946,61.377l-6.284,-11.686l-11.823,-6.042l-5.178,5.765l-2.829,6.632l6.341,13.689l-0.606,9.489l9.604,0.248l4.976,-2.602l3.042,-5.22l2.757,-10.273Z" style="fill:#696452;"/><path d="M141.314,66.346l-6.284,-11.686l-11.823,-6.042l-5.178,5.764l-2.828,6.633l6.34,13.688l-0.606,9.489l9.604,0.249l4.976,-2.603l3.042,-5.219l2.757,-10.273Z" style="fill:#161510;fill-opacity:0.6;"/><path d="M103.235,30.924l-5.992,-13.837l-11.886,-7.759l-2.548,7.829l-0.444,6.949l7.822,14.608l0.438,6.69l6.622,-0.655l8.695,9.818l6.713,0.185l1.66,-3.726l-1.647,-5.725l-2.652,-2.267l-6.781,-12.11" style="fill:#696452;"/><path d="M101.603,35.892l-5.992,-13.836l-11.886,-7.76l-2.548,7.829l-0.444,6.95l7.822,14.608l0.438,6.689l6.622,-0.654l8.695,9.817l6.713,0.186l1.66,-3.727l-1.647,-5.724l-2.652,-2.267l-6.781,-12.111" style="fill:#161510;fill-opacity:0.6;"/><path d="M128.398,61.412c-0.916,-1.64 -12.449,-12.17 -12.449,-12.17l-11.857,-2.272l0.448,11.464l7.333,4.356l6.349,7.339c0,0 11.093,-7.077 10.176,-8.717Z" style="fill:#696452;"/><path d="M126.767,66.38c-0.917,-1.64 -12.45,-12.169 -12.45,-12.169l-11.857,-2.272l0.448,11.463l7.334,4.357l6.348,7.339c0,0 11.093,-7.078 10.177,-8.718Z" style="fill:#161510;fill-opacity:0.6;"/><path d="M84.625,19.96l-2.731,7.316l-5.969,2.523l-11.006,-8.249l-8.984,-10.326l4.891,-6.622l10.314,-4.359l13.485,19.717Z" style="fill:#696452;"/><path d="M82.993,24.929l-2.731,7.316l-5.969,2.523l-10.934,-9.754l-4.37,-6.874l6.595,-6.992l6.427,-4.339l10.982,18.12Z" style="fill:#161510;fill-opacity:0.6;"/><path d="M182.288,99.306l0.386,9.112l-3.086,10.681l-10.324,-3.995l-3.973,-5.069l-6.665,-1.632l-1.389,-7.457l8.453,-5.105l6.308,-5.331l7.924,3.437l2.366,5.359Z" style="fill:#696452;"/><path d="M180.657,104.275l0.386,9.111l-3.087,10.681l-10.324,-3.994l-3.973,-5.069l-6.664,-1.632l-1.39,-7.458l8.454,-5.104l6.307,-5.331l7.924,3.436l2.367,5.36Z" style="fill:#161510;fill-opacity:0.6;"/><path d="M172.614,91.572l-6.284,-11.686l-11.823,-6.042l-5.178,5.765l-2.828,6.632l6.341,13.689l-0.606,9.489l9.603,0.248l4.976,-2.602l3.042,-5.22l2.757,-10.273Z" style="fill:#696452;"/><path d="M170.982,96.541l-6.284,-11.686l-11.823,-6.042l-5.178,5.764l-2.828,6.633l6.341,13.688l-0.606,9.489l9.604,0.249l4.975,-2.603l3.043,-5.219l2.756,-10.273Z" style="fill:#161510;fill-opacity:0.6;"/><path d="M260.556,186.07l-2.731,7.316l-5.969,2.523l-11.006,-8.249l-8.984,-10.326l4.891,-6.622l10.314,-4.36l13.485,19.718Z" style="fill:#696452;"/><path d="M258.924,191.039l-2.731,7.316l-5.969,2.523l-10.934,-9.754l-4.37,-6.874l6.595,-6.992l6.427,-4.339l10.982,18.12Z" style="fill:#161510;fill-opacity:0.6;"/><path d="M288.968,200.658l0.386,9.111l-3.087,10.681l-10.324,-3.994l-3.973,-5.069l-6.664,-1.632l-1.39,-7.457l8.454,-5.105l6.307,-5.331l7.924,3.436l2.367,5.36Z" style="fill:#696452;"/><path d="M287.336,205.627l0.386,9.111l-3.087,10.681l-10.324,-3.994l-3.973,-5.069l-6.664,-1.632l-1.39,-7.458l8.454,-5.104l6.307,-5.331l7.924,3.436l2.367,5.36Z" style="fill:#161510;fill-opacity:0.6;"/><path d="M279.293,192.924l-6.284,-11.686l-11.823,-6.042l-5.178,5.764l-2.828,6.633l6.341,13.688l-0.606,9.489l9.604,0.249l4.976,-2.603l3.042,-5.219l2.756,-10.273Z" style="fill:#696452;"/><path d="M277.662,197.893l-6.284,-11.686l-11.824,-6.042l-5.177,5.764l-2.829,6.633l6.341,13.688l-0.606,9.489l9.604,0.248l4.976,-2.602l3.042,-5.219l2.757,-10.273Z" style="fill:#161510;fill-opacity:0.6;"/><path d="M217.518,143.028l-5.992,-13.836l-11.886,-7.76l-2.548,7.829l-0.443,6.95l7.821,14.608l0.438,6.689l6.622,-0.654l8.695,9.817l6.714,0.186l1.659,-3.727l-1.647,-5.724l-2.652,-2.267l-6.781,-12.111" style="fill:#696452;"/><path d="M215.886,147.997l-5.992,-13.837l-11.886,-7.759l-2.548,7.829l-0.443,6.949l7.821,14.608l0.438,6.69l6.622,-0.655l8.695,9.818l6.714,0.185l1.659,-3.726l-1.647,-5.725l-2.652,-2.267l-6.781,-12.11" style="fill:#161510;fill-opacity:0.6;"/><path d="M245.078,167.606c-0.917,-1.64 -12.45,-12.169 -12.45,-12.169l-11.857,-2.272l0.448,11.463l7.334,4.357l6.349,7.339c0,0 11.092,-7.077 10.176,-8.718Z" style="fill:#696452;"/><path d="M243.446,172.575c-0.917,-1.64 -12.45,-12.17 -12.45,-12.17l-11.856,-2.271l0.447,11.463l7.334,4.356l6.349,7.34c0,0 11.092,-7.078 10.176,-8.718Z" style="fill:#161510;fill-opacity:0.6;"/><path d="M201.304,126.155l-2.731,7.316l-5.969,2.523l-11.005,-8.249l-8.985,-10.326l4.891,-6.622l10.314,-4.36l13.485,19.718Z" style="fill:#696452;"/><path d="M199.672,131.124l-2.731,7.316l-5.969,2.522l-10.933,-9.753l-4.371,-6.875l6.595,-6.991l6.427,-4.339l10.982,18.12Z" style="fill:#161510;fill-opacity:0.6;"/></g></g></svg>