<?xml version="1.0" encoding="UTF-8" standalone="no"?><!DOCTYPE svg PUBLIC "-//W3C//DTD SVG 1.1//EN" "http://www.w3.org/Graphics/SVG/1.1/DTD/svg11.dtd"><svg width="100%" height="100%" viewBox="0 0 216 205" version="1.1" xmlns="http://www.w3.org/2000/svg" xmlns:xlink="http://www.w3.org/1999/xlink" xml:space="preserve" xmlns:serif="http://www.serif.com/" style="fill-rule:evenodd;clip-rule:evenodd;stroke-linejoin:round;stroke-miterlimit:1.41421;"><g id="Dirt_Ramp_LeftUp_high-angle3"><g id="Dirt_Ramp_LeftUp_high-angle1"><path d="M0.641,53.853l0,96.598l107.331,53.665l0,-96.598l-107.331,-53.665Z" style="fill:#625443;"/><clipPath id="_clip1"><path d="M0.641,53.853l0,96.598l107.331,53.665l0,-96.598l-107.331,-53.665Z"/></clipPath><g clip-path="url(#_clip1)"><path d="M102.444,235.007l7.471,-8.393l-0.629,-15.381l-4.861,-8.364l-7.639,3.248l-3.734,6.804l-0.661,10.713l10.053,11.373" style="fill:#e1c080;"/><path d="M78.903,204.722l-6.48,-6.062l3.057,-12.564l8.623,-2.464l7.622,-1.443l2.977,3.95l3.5,-1.488l5.378,1.085l1.634,4.32l-5.651,4.448l-4.24,3.09l-7.816,4.704l-8.604,2.424Z" style="fill:#bfac80;"/><path d="M41.917,211.028l-7.621,-4.416l-4.724,-10.593l3.045,-9.557l19.234,-2.964l6.432,7.697l1.005,7.709l-6.328,7.427l-11.043,4.697Z" style="fill:#e1c080;"/><path d="M20.141,174.567l-8.069,-10.664l1.707,-5.942l8.574,-19.295c0,0 7.897,5.94 10.383,6.017c2.486,0.077 7.683,4.452 7.683,4.452l-3.152,9.269l-8.6,6.112l-8.526,10.051Z" style="fill:#bfac80;"/><path d="M68.244,179.239l-10.639,-1.857l-10.285,-7.605l2.016,-7.626l4.769,-5.691l7.679,1.95l4.985,5.388l3.648,6.589l-2.173,8.852" style="fill:#bfac80;"/><path d="M9.431,206.754l9.12,-6.382l10.414,5.505l4.461,14.856l-14.945,3.036l-6.387,-5.869l-2.663,-11.146" style="fill:#e1c080;"/><path d="M97.077,148.942l7.471,-8.393l-0.629,-15.381l-4.861,-8.364l-7.639,3.248l-3.734,6.804l-0.66,10.713l10.052,11.373" style="fill:#e1c080;"/><path d="M84.659,167.474l9.713,-5.467l-1.146,-6.211l-5.191,-3.009l-4.056,1.725l-4.471,4.43l0.085,5.596l5.066,2.936Z" style="fill:#68583f;"/><path d="M54.375,143.879l5.042,5.43l10.806,-0.848l2.238,-4.699l1.605,-8.155l-10.343,-11.541l-3.071,5.211l-5.436,0.955l-2.99,10.126l2.149,3.521" style="fill:#68583f;"/><path d="M68.556,120.859l-6.48,-6.063l3.057,-12.564l8.623,-2.464l7.622,-1.443l2.977,3.95l3.5,-1.488l5.378,1.085l1.634,4.32l-5.651,4.448l-4.24,3.091l-7.816,4.703l-8.604,2.425Z" style="fill:#e1c080;"/><path d="M39.818,132.473l-7.621,-4.416l-4.724,-10.592l3.046,-9.558l19.233,-2.963l6.432,7.697l1.006,7.708l-6.329,7.428l-11.043,4.696Z" style="fill:#bfac80;"/><path d="M12.133,98.33l-8.068,-10.665l1.706,-5.942l8.575,-19.294c0,0 7.897,5.94 10.383,6.017c2.485,0.076 7.683,4.452 7.683,4.452l-3.152,9.269l-8.6,6.112l-8.527,10.051Z" style="fill:#e1c080;"/><path d="M59.13,102.421l-10.639,-1.857l-10.284,-7.605l2.016,-7.626l4.769,-5.692l7.679,1.95l4.985,5.389l3.648,6.588l-2.174,8.853" style="fill:#68583f;"/><path d="M4.065,120.689l9.119,-6.382l10.414,5.505l4.461,14.856l-14.945,3.036l-6.387,-5.869l-2.662,-11.146" style="fill:#68583f;"/><path d="M86.601,172.328l9.714,-5.466l-1.146,-6.212l-5.191,-3.008l-4.057,1.725l-4.47,4.429l0.085,5.597l5.065,2.935Zm-30.283,-23.594l5.042,5.43l10.806,-0.849l2.238,-4.698l1.605,-8.155l-10.344,-11.542l-3.07,5.211l-5.436,0.955l-2.99,10.127l2.149,3.521Zm-50.311,-23.19l2.663,11.146l6.387,5.869l14.945,-3.037l-4.461,-14.855l-10.414,-5.505l-9.12,6.382Zm55.066,-18.269l-10.639,-1.857l-10.285,-7.605l2.017,-7.626l4.768,-5.691l7.679,1.95l4.985,5.388l3.648,6.589l-2.173,8.852Z" style="fill:#0a0500;fill-opacity:0.3;"/><path d="M81.846,209.428l-6.48,-6.062l3.057,-12.564l8.623,-2.464l7.622,-1.443l2.977,3.95l3.5,-1.488l5.378,1.085l1.634,4.32l-5.651,4.448l-4.24,3.09l-7.816,4.704l-8.604,2.424Zm-10.66,-25.483l-10.639,-1.857l-10.285,-7.605l2.017,-7.626l4.768,-5.691l7.68,1.95l4.984,5.388l3.648,6.589l-2.173,8.852Zm-48.103,-4.672l-8.068,-10.664l1.706,-5.942l8.575,-19.295c0,0 7.897,5.94 10.383,6.017c2.486,0.077 7.683,4.452 7.683,4.452l-3.152,9.269l-8.6,6.112l-8.527,10.051Zm76.937,-25.625l7.471,-8.393l-0.629,-15.381l-4.861,-8.364l-7.639,3.248l-3.734,6.804l-0.661,10.713l10.053,11.373Zm-57.26,-16.469l-7.62,-4.416l-4.724,-10.592l3.045,-9.558l19.234,-2.963l6.431,7.697l1.006,7.708l-6.329,7.428l-11.043,4.696Zm28.739,-11.614l-6.48,-6.063l3.056,-12.564l8.623,-2.464l7.623,-1.443l2.976,3.95l3.5,-1.488l5.379,1.085l1.634,4.32l-5.651,4.448l-4.24,3.091l-7.817,4.703l-8.603,2.425Z" style="fill:#0a0500;fill-opacity:0.3;"/></g><path d="M0.641,53.853l107.331,-53.666l107.331,150.264l-107.331,53.665l-107.331,-150.263Z" style="fill:#84775b;"/><path d="M96.696,184.283l-10.639,-1.857l-10.284,-7.605l2.016,-7.626l4.769,-5.692l7.679,1.95l4.985,5.389l3.647,6.588l-2.173,8.853" style="fill:#bfac80;"/><path d="M97.07,189.232l-10.639,-1.857l-10.284,-7.605l2.016,-7.626l4.769,-5.691l7.679,1.95l4.985,5.388l3.648,6.589l-2.174,8.852" style="fill:#0a0500;fill-opacity:0.3;"/><path d="M54.375,143.879l5.042,5.43l10.806,-0.848l2.238,-4.699l1.605,-8.155l-10.343,-11.541l-3.071,5.211l-5.436,0.955l-2.99,10.126l2.149,3.521" style="fill:#68583f;"/><path d="M56.456,148.416l5.042,5.43l10.806,-0.848l2.237,-4.699l1.606,-8.155l-10.344,-11.541l-3.07,5.211l-5.436,0.955l-2.991,10.126l2.15,3.521" style="fill:#0a0500;fill-opacity:0.3;"/><path d="M12.135,98.302l-8.069,-10.665l1.707,-5.942l8.575,-19.294c0,0 7.897,5.94 10.382,6.017c2.486,0.076 7.683,4.452 7.683,4.452l-3.151,9.269l-8.6,6.112l-8.527,10.051Z" style="fill:#bfac80;"/><path d="M14.076,103.503l-8.069,-10.665l1.707,-5.942l8.575,-19.294c0,0 7.896,5.94 10.382,6.016c2.486,0.077 7.683,4.453 7.683,4.453l-3.152,9.269l-8.599,6.112l-8.527,10.051Z" style="fill:#0a0500;fill-opacity:0.3;"/><path d="M27.837,102.4l9.119,-6.381l10.414,5.505l4.461,14.855l-14.945,3.037l-6.387,-5.869l-2.662,-11.147" style="fill:#68583f;"/><path d="M28.475,107.522l9.119,-6.381l10.414,5.504l4.462,14.856l-14.946,3.037l-6.387,-5.869l-2.662,-11.147" style="fill:#0a0500;fill-opacity:0.3;"/></g><g><path d="M26.087,40.814l112.698,147.581l53.666,-26.833l-112.698,-147.581l-53.666,26.833Z" style="fill:#84775b;"/><g><path d="M133.677,83.047l9.126,0.109l3.292,-7.523l-6.61,-6.918l-4.085,-7.704l-8.339,-6.846l-14.246,4.63l-0.343,9.597l5.664,9.668l15.541,4.987Z" style="fill:#a3bac5;"/><path d="M135.071,89.081l9.126,0.109l3.292,-7.523l-6.61,-6.917l-4.084,-7.704l-8.34,-6.846l-14.246,4.63l-0.343,9.596l5.664,9.669l15.541,4.986Z" style="fill:#273f4b;fill-opacity:0.6;"/><path d="M86.812,32.071l12.645,6.319l7.08,6.561l3.393,0.041l4.211,0.05l-0.697,-4.809l-0.388,-4.805l-5.659,-3.461l-2.718,-3.716l-4.707,-2.58l-11.147,-4.934l-1.514,1.778l-2.979,6.165l2.48,3.391Z" style="fill:#a3bac5;"/><path d="M88.206,38.106l12.645,6.319l7.08,6.56l3.393,0.041l4.211,0.051l-0.697,-4.809l-0.388,-4.805l-5.659,-3.462l-2.717,-3.715l-4.708,-2.581l-11.146,-4.933l-1.515,1.777l-2.979,6.166l2.48,3.391Z" style="fill:#273f4b;fill-opacity:0.6;"/><path d="M92.689,9.359l9.577,4.075l1.837,7.327l0.042,7.347l-5.454,1.019l-9.573,-3.707l-9.909,-3.291l-7.567,-2.099l3.66,-3.47l-1.405,-3.42l1.54,-4.504l3.065,-1.204l14.187,1.927" style="fill:#a3bac5;"/><path d="M94.083,15.394l9.578,4.074l1.836,7.327l0.042,7.347l-5.453,1.02l-9.574,-3.707l-9.909,-3.291l-7.566,-2.099l3.66,-3.471l-1.406,-3.42l1.54,-4.504l3.065,-1.204l14.187,1.928" style="fill:#273f4b;fill-opacity:0.6;"/><path d="M121.779,45.067l6.055,7.085l-4.987,7.767l-3.637,9.061l-10.673,-6.132l-9.273,-1.918l1.114,-6.607l-5.754,-10.843l7.309,-6.761l6.822,-1.525l9.482,5.03l3.542,4.843Z" style="fill:#a3bac5;"/><path d="M123.173,51.101l6.055,7.085l-4.986,7.767l-3.638,9.061l-10.672,-6.132l-9.274,-1.918l1.114,-6.606l-5.754,-10.844l7.309,-6.761l6.822,-1.525l9.482,5.03l3.542,4.843Z" style="fill:#273f4b;fill-opacity:0.6;"/><path d="M152.995,115.723l12.645,6.32l7.079,6.56l3.394,0.041l4.21,0.05l-0.697,-4.808l-0.387,-4.805l-5.659,-3.462l-2.718,-3.715l-4.708,-2.581l-11.146,-4.933l-1.514,1.777l-2.979,6.166l2.48,3.39Z" style="fill:#a3bac5;"/><path d="M154.389,121.758l12.645,6.319l7.079,6.561l3.394,0.04l4.211,0.051l-0.697,-4.809l-0.388,-4.805l-5.659,-3.462l-2.718,-3.715l-4.707,-2.58l-11.147,-4.934l-1.514,1.778l-2.979,6.165l2.48,3.391Z" style="fill:#273f4b;fill-opacity:0.6;"/><path d="M185.002,124.576l6.055,7.085l-4.987,7.767l-3.637,9.061l-10.672,-6.132l-9.274,-1.918l1.114,-6.607l-5.754,-10.843l7.309,-6.761l6.822,-1.525l9.482,5.03l3.542,4.843Z" style="fill:#a3bac5;"/><path d="M186.396,130.61l6.055,7.085l-4.986,7.767l-3.638,9.061l-10.672,-6.132l-9.274,-1.918l1.114,-6.606l-5.754,-10.844l7.309,-6.761l6.822,-1.525l9.482,5.03l3.542,4.843Z" style="fill:#273f4b;fill-opacity:0.6;"/><path d="M40.116,37.095l-9.043,-1.179l-10.909,2.143l3.078,10.633l4.703,4.4l1.045,6.782l7.308,2.034l5.822,-7.976l5.861,-5.818l-2.732,-8.193l-5.133,-2.826Z" style="fill:#a3bac5;"/><path d="M41.44,43.146l-9.043,-1.18l-10.909,2.143l3.078,10.633l4.703,4.4l1.045,6.782l7.307,2.034l5.823,-7.975l5.861,-5.819l-2.732,-8.193l-5.133,-2.825Z" style="fill:#273f4b;fill-opacity:0.6;"/><path d="M42.954,52.173l11.093,7.28l4.988,12.305l-6.194,4.655l-6.854,2.239l-13.084,-7.51l-9.505,-0.225l0.59,-9.588l3.027,-4.73l5.465,-2.575l10.474,-1.851Z" style="fill:#a3bac5;"/><path d="M44.278,58.224l11.093,7.279l4.987,12.305l-6.193,4.656l-6.854,2.238l-13.084,-7.51l-9.505,-0.224l0.59,-9.589l3.027,-4.73l5.465,-2.575l10.474,-1.85Z" style="fill:#273f4b;fill-opacity:0.6;"/><path d="M107.81,136.071l-9.043,-1.18l-10.91,2.143l3.078,10.633l4.704,4.4l1.044,6.782l7.308,2.034l5.822,-7.975l5.862,-5.819l-2.733,-8.193l-5.132,-2.825Z" style="fill:#a3bac5;"/><path d="M109.134,142.121l-9.043,-1.18l-10.91,2.144l3.078,10.633l4.704,4.4l1.044,6.781l7.308,2.035l5.822,-7.976l5.862,-5.819l-2.733,-8.193l-5.132,-2.825Z" style="fill:#273f4b;fill-opacity:0.6;"/><path d="M110.647,151.149l11.093,7.279l4.988,12.305l-6.194,4.656l-6.854,2.238l-13.083,-7.51l-9.506,-0.224l0.591,-9.589l3.026,-4.73l5.465,-2.575l10.474,-1.85Z" style="fill:#a3bac5;"/><path d="M111.971,157.199l11.093,7.279l4.988,12.305l-6.194,4.656l-6.854,2.239l-13.083,-7.511l-9.506,-0.224l0.591,-9.589l3.026,-4.73l5.465,-2.575l10.474,-1.85Z" style="fill:#273f4b;fill-opacity:0.6;"/><path d="M70.901,94.467l13.261,7.176l6.693,12.518l-8.022,1.855l-6.961,-0.164l-13.87,-9.066l-6.626,-1.02l1.23,-6.54l-9.022,-9.518l0.401,-6.704l3.857,-1.328l5.559,2.14l2.027,2.84l11.473,7.811" style="fill:#a3bac5;"/><path d="M72.225,100.518l13.261,7.176l6.693,12.517l-8.022,1.855l-6.961,-0.164l-13.87,-9.066l-6.626,-1.02l1.23,-6.54l-9.022,-9.518l0.401,-6.704l3.857,-1.328l5.559,2.14l2.027,2.84l11.473,7.812" style="fill:#273f4b;fill-opacity:0.6;"/><path d="M48.82,64.869c1.554,1.055 11.037,13.464 11.037,13.464l1.229,12.009l-11.38,-1.446l-3.7,-7.686l-6.758,-6.965c0,0 8.018,-10.432 9.572,-9.376Z" style="fill:#a3bac5;"/><path d="M50.144,70.919c1.554,1.056 11.037,13.464 11.037,13.464l1.229,12.009l-11.38,-1.446l-3.7,-7.686l-6.758,-6.964c0,0 8.018,-10.433 9.572,-9.377Z" style="fill:#273f4b;fill-opacity:0.6;"/><path d="M128.377,167.095c1.554,1.056 11.037,13.464 11.037,13.464l1.229,12.009l-11.381,-1.446l-3.7,-7.686l-6.757,-6.964c0,0 8.018,-10.433 9.572,-9.377Z" style="fill:#a3bac5;"/><path d="M129.701,173.145c1.554,1.056 11.037,13.464 11.037,13.464l1.229,12.009l-11.381,-1.446l-3.7,-7.685l-6.757,-6.965c0,0 8.018,-10.433 9.572,-9.377Z" style="fill:#273f4b;fill-opacity:0.6;"/><path d="M145.16,77.069l-10.989,3.615l-5.785,9.531l5.511,6.148l11.432,5.328l9.899,-2.728l8.071,-5.226l-6.387,-6.897l-6.849,-5.966l-4.903,-3.805" style="fill:#a3bac5;"/><path d="M146.554,83.104l-10.988,3.614l-5.786,9.531l5.511,6.149l11.432,5.327l9.899,-2.727l8.071,-5.227l-6.387,-6.896l-6.849,-5.967l-4.903,-3.804" style="fill:#273f4b;fill-opacity:0.6;"/><path d="M189.018,138.325l-10.989,3.615l-5.786,9.531l5.511,6.148l11.432,5.328l9.899,-2.727l8.071,-5.227l-6.387,-6.897l-6.849,-5.966l-4.902,-3.805" style="fill:#a3bac5;"/><path d="M190.412,144.36l-10.989,3.614l-5.786,9.532l5.511,6.148l11.433,5.328l9.898,-2.728l8.071,-5.227l-6.387,-6.896l-6.849,-5.966l-4.902,-3.805" style="fill:#273f4b;fill-opacity:0.6;"/><path d="M155.329,90.971l-5.797,2.443l-8.615,8.399l6.057,8.281l9.448,-0.542l7.817,-3.456l-8.055,-7.802l0.999,-1.94l-0.488,-2.854l-1.366,-2.529Z" style="fill:#a3bac5;"/><path d="M156.723,97.006l-5.797,2.442l-7.21,7.024l3.276,3.711l8.939,-0.287l5.095,-3.006l-3.448,-2.562l0.999,-1.939l-0.488,-2.855l-1.366,-2.528Z" style="fill:#273f4b;fill-opacity:0.6;"/><path d="M86.295,112.091l-7.526,2.083l-3.034,5.726l7.257,11.683l9.503,9.851l7.024,-4.294l5.242,-9.895l-18.466,-15.154Z" style="fill:#a3bac5;"/><path d="M87.619,118.142l-7.526,2.082l-3.034,5.726l8.762,11.743l6.467,4.954l7.541,-5.96l4.883,-6.025l-17.093,-12.52Z" style="fill:#273f4b;fill-opacity:0.6;"/></g></g><g id="GrassBlank04"><path d="M188.401,130.885c0,0.102 0.175,0.245 0.739,0.444c1.462,0.513 1.848,5.812 2.853,4.503c1.005,-1.31 0.158,-5.34 0.664,-5.905c0.506,-0.566 -1.577,-1.582 -1.577,-1.582l3.311,-1.398l5.621,-0.826l-4.377,-2.283l0.91,-3.197l-3.063,-1.453l-3.969,3.034l-3.848,1.601l2.58,-4.55l3.449,-1.009l1.246,-3.636l3.736,-4.264l-7.047,0.503l-2.464,0.423l4.079,-4.107l-1.512,-3.267l-4.171,0.076l-2.607,3.943l-3.017,-0.459l0.325,-5.713c0,0 1.076,-1.708 -0.434,-0.727c-1.509,0.981 -4.971,4.632 -4.971,4.632l-1.443,1.991l0.226,-5.597c0,0 -0.792,-0.417 -1.167,0.441c-0.375,0.858 -3.771,6.201 -3.771,6.201l-1.873,-0.164l-1.866,-0.741l-4.666,-0.167c0,0 -0.729,2.464 0.52,3.574c1.248,1.111 4.034,5.404 4.034,5.404c0,0 0.209,0.711 0.735,1.522l1.19,1.339c0.128,0.102 0.262,0.2 0.405,0.291c1.728,1.103 5.469,2.774 5.469,2.774c0,0 2.316,0.995 4.161,0.885c1.845,-0.11 2.341,-2.297 3.417,-0.214c1.076,2.083 1.577,6.623 1.577,6.623c0,0 0.034,1.187 2.543,1.34c2.51,0.152 3.506,-0.011 3.506,-0.011l0.547,-0.274c-0.002,-0.162 0.433,-0.218 0.433,-0.218l-0.433,0.218Zm11.04,22.533l-2.361,-0.414l9.056,-7.662l-8.533,3.427l0.325,-5.264l-3.851,3.019l-0.408,-4.806l-0.699,-2.623l-7.088,6.345l-1.201,-2.598l-3.949,6.182l-3.575,2.062c0,0 1.211,2.227 1.243,3.236c0.031,1.01 -2.385,1.654 -0.004,2.548c2.381,0.895 2.917,1.779 4.665,1.351c1.748,-0.428 3.354,-0.782 3.354,-0.782l2.453,2.546c0,0 2.753,-1.779 1.22,1.265c-1.534,3.044 4.039,-0.262 4.039,-0.262l5.476,-2.872l-0.162,-4.698Zm-64.319,-83.157c0,0 -2.573,-2.868 0.482,1.573c3.055,4.441 2.959,2.756 6.112,6.172c3.153,3.417 0.043,2.754 4.685,5.796c4.641,3.042 4.621,-0.188 5.102,3.447c0.48,3.635 -0.339,2.457 0.217,5.546c0.556,3.089 2.724,1.304 5.758,0.229c3.034,-1.076 7.483,-1.885 7.351,0.204c-0.133,2.088 -3.663,-1.165 0.308,2.629c3.971,3.793 3.421,10.781 5.414,3.44c1.992,-7.341 2.319,-6.135 2.319,-6.135l10.858,-0.519l-11.196,-7.735l5.106,-5.417l-11.361,-2.831l2.127,-11.903l-11.458,3.595l0.963,-8.863l-3.353,2.593l1.935,-5.951l-5.379,4.119l-3.874,3.974l3.985,-9.047l-2.383,1.917l-2.236,-3.832l-1.858,2.751l1.768,-8.651l-5.497,7.666l-3.647,0.988c0,0 -3.674,2.985 -3.471,5.107c0.113,1.179 0.478,3.87 0.78,6.028l-0.423,2.593l0.866,0.517Zm-0.178,-1.237c0.107,0.753 0.178,1.237 0.178,1.237c0,0 -0.365,-0.407 -0.657,-0.677l0.479,-0.56Z" style="fill:#0a0500;fill-opacity:0.3;"/><path d="M197.487,152.064l-2.207,-0.168l7.605,-9.977l-7.518,5.045l-0.191,-6.086l-3.256,3.967l-0.821,-5.465l-0.886,-2.919l-5.92,8.207l-1.344,-2.826l-3.052,7.611l-3.092,2.833c0,0 1.319,2.4 1.442,3.555c0.124,1.155 -2.036,2.208 0.234,2.926c2.269,0.717 2.844,1.663 4.41,0.943c1.566,-0.719 3.007,-1.334 3.007,-1.334l2.49,2.604c0,0 2.363,-2.402 1.237,1.293c-1.125,3.695 3.686,-0.827 3.686,-0.827l4.762,-4.01l-0.586,-5.372Z" style="fill:#33653a;"/><clipPath id="_clip2"><path d="M197.487,152.064l-2.207,-0.168l7.605,-9.977l-7.518,5.045l-0.191,-6.086l-3.256,3.967l-0.821,-5.465l-0.886,-2.919l-5.92,8.207l-1.344,-2.826l-3.052,7.611l-3.092,2.833c0,0 1.319,2.4 1.442,3.555c0.124,1.155 -2.036,2.208 0.234,2.926c2.269,0.717 2.844,1.663 4.41,0.943c1.566,-0.719 3.007,-1.334 3.007,-1.334l2.49,2.604c0,0 2.363,-2.402 1.237,1.293c-1.125,3.695 3.686,-0.827 3.686,-0.827l4.762,-4.01l-0.586,-5.372Z"/></clipPath><g clip-path="url(#_clip2)"><path d="M183.238,139.307l-1.65,9.028l3.788,1.351l-0.522,-8.69l5.5,-5.439l-2.285,12.935l2.153,2.05l1.747,-5.807l4.385,-5.816l-4.487,12.349l3.696,-4.745l2.369,-2.406l4.615,-3.423l-8.824,11.972l0.896,0.533l0.351,1.153l1.843,3.643l1.244,4.949c0,0 -4.657,-1.782 -7.875,-4.331c-2.386,-1.89 -3.455,-4.725 -4.007,-4.82c-0.6,-0.103 -2.853,5.022 -5.398,6.228c-2.953,1.399 -6.203,-1.082 -6.203,-1.082l2.337,-9.958l6.327,-9.674" style="fill:#96e54d;"/></g><path d="M167.485,86.336l9.923,-2.009l-11.001,-7.424l4.186,-6.884l-10.697,-1.772l0.847,-13.944l-10.189,5.619l0.061,-10.303l-2.838,3.415l1.224,-7.085l-4.558,5.429l-3.188,5.068l2.819,-10.907l-2.01,2.511l-2.41,-4.109l-1.451,3.4l0.82,-10.162l-4.336,9.517l-3.258,1.61c0,0 -3.096,3.905 -2.713,6.315c0.384,2.41 1.973,10.333 1.973,10.333c0,0 -2.629,-2.958 0.589,1.743c3.218,4.702 2.974,2.78 6.187,6.292c3.213,3.513 0.295,3.157 4.841,6.045c4.545,2.889 4.227,-0.818 5.006,3.294c0.779,4.111 -0.083,2.865 0.715,6.339c0.797,3.475 2.622,1.143 5.309,-0.487c2.687,-1.629 6.697,-3.138 6.77,-0.722c0.072,2.415 -3.472,-0.86 0.527,2.979c3.999,3.838 4.144,11.934 5.292,3.245c1.147,-8.688 1.56,-7.346 1.56,-7.346Z" style="fill:#33653a;"/><clipPath id="_clip3"><path d="M167.485,86.336l9.923,-2.009l-11.001,-7.424l4.186,-6.884l-10.697,-1.772l0.847,-13.944l-10.189,5.619l0.061,-10.303l-2.838,3.415l1.224,-7.085l-4.558,5.429l-3.188,5.068l2.819,-10.907l-2.01,2.511l-2.41,-4.109l-1.451,3.4l0.82,-10.162l-4.336,9.517l-3.258,1.61c0,0 -3.096,3.905 -2.713,6.315c0.384,2.41 1.973,10.333 1.973,10.333c0,0 -2.629,-2.958 0.589,1.743c3.218,4.702 2.974,2.78 6.187,6.292c3.213,3.513 0.295,3.157 4.841,6.045c4.545,2.889 4.227,-0.818 5.006,3.294c0.779,4.111 -0.083,2.865 0.715,6.339c0.797,3.475 2.622,1.143 5.309,-0.487c2.687,-1.629 6.697,-3.138 6.77,-0.722c0.072,2.415 -3.472,-0.86 0.527,2.979c3.999,3.838 4.144,11.934 5.292,3.245c1.147,-8.688 1.56,-7.346 1.56,-7.346Z"/></clipPath><g clip-path="url(#_clip3)"><path d="M137.552,36.909l-0.562,13.277l-3.577,3.386l0.71,3.334l7.759,-12.737l3.093,-0.741l-7.031,14.179l-3.305,4.55l4.06,0.745c0,0 1.587,-5.252 2.331,-2.248c0.745,3.004 3.819,-13.227 3.819,-13.227l5.331,-2.136l-2.898,12.046l-3.777,13.454l3.525,-8.262l2.343,2.332l3.907,-13.062l8.58,-0.116l-4.08,9.565l1.058,2.222l-2.098,2.744l-3.989,6.822l12.209,-8.86l-4.346,7.905l7.778,-3.729l2.33,0.428l-9.47,12.637l14.85,-1.337l-10.372,4.617l0.775,3.935c0,0 4.666,9.199 2.355,9.389c-2.31,0.191 -1.614,6.217 -1.614,6.217c0,0 -3.184,-4.128 -4.822,-6.041c-1.637,-1.914 -2.339,1.469 -4.731,-6.025c-2.391,-7.495 1.044,-4.864 -2.924,-10.049c-3.968,-5.184 -5.231,-4.597 -5.231,-4.597c0,0 -2.524,4.965 -2.646,0.026c-0.122,-4.938 3.95,-7.264 3.95,-7.264c0,0 -2.872,-0.014 -4.894,0.691c-2.023,0.704 -0.291,4.053 -3.213,1.617c-2.923,-2.436 -1.312,-0.63 -3.955,-2.69c-2.642,-2.059 0.43,0.191 -4.006,-2.567c-4.436,-2.759 -2.259,-1.846 -2.311,-4.852c-0.052,-3.005 0.932,-1.749 -0.177,-3.898c-1.11,-2.15 -0.991,-1.15 -2.895,-2.551c-1.903,-1.402 -3.312,-3.878 -2.691,-5.651c0.621,-1.773 3.191,-7.48 3.191,-7.48l7.661,-5.998Z" style="fill:#96e54d;"/></g><path d="M187.911,108.371l3.035,-5.382l-6.425,1.494l-2.224,0.807l3.365,-5.247l-1.693,-3.553l-3.823,0.629l-2.027,4.867l-2.814,-0.134l-0.233,-6.603c0,0 0.83,-2.101 -0.465,-0.778c-1.296,1.324 -4.136,5.966 -4.136,5.966l-1.139,2.473l-0.313,-6.455c0,0 -0.767,-0.376 -1.031,0.658c-0.264,1.034 -2.886,7.611 -2.886,7.611l-1.736,0.056l-1.783,-0.609l-4.301,0.416c0,0 -0.44,2.924 0.81,4.036c1.25,1.113 4.208,5.679 4.208,5.679c0,0 0.742,2.274 2.432,3.316c1.689,1.042 5.281,2.474 5.281,2.474c0,0 2.219,0.841 3.903,0.475c1.684,-0.367 1.937,-2.943 3.118,-0.691c1.182,2.252 2.064,7.399 2.064,7.399c0,0 0.141,1.359 2.461,1.207c2.319,-0.151 3.218,-0.469 3.218,-0.469l0.855,-0.691c0,0 -1.048,0.32 0.342,0.719c1.39,0.399 2.237,6.433 3.038,4.799c0.801,-1.634 -0.351,-6.151 0.062,-6.866c0.412,-0.716 -1.596,-1.611 -1.596,-1.611l2.911,-2.036l5.086,-1.681l-4.233,-2.05l0.539,-3.79l-2.948,-1.269l-3.363,3.999l-3.385,2.34l1.947,-5.561l3.073,-1.607l0.806,-4.337Z" style="fill:#33653a;"/><clipPath id="_clip4"><path d="M187.911,108.371l3.035,-5.382l-6.425,1.494l-2.224,0.807l3.365,-5.247l-1.693,-3.553l-3.823,0.629l-2.027,4.867l-2.814,-0.134l-0.233,-6.603c0,0 0.83,-2.101 -0.465,-0.778c-1.296,1.324 -4.136,5.966 -4.136,5.966l-1.139,2.473l-0.313,-6.455c0,0 -0.767,-0.376 -1.031,0.658c-0.264,1.034 -2.886,7.611 -2.886,7.611l-1.736,0.056l-1.783,-0.609l-4.301,0.416c0,0 -0.44,2.924 0.81,4.036c1.25,1.113 4.208,5.679 4.208,5.679c0,0 0.742,2.274 2.432,3.316c1.689,1.042 5.281,2.474 5.281,2.474c0,0 2.219,0.841 3.903,0.475c1.684,-0.367 1.937,-2.943 3.118,-0.691c1.182,2.252 2.064,7.399 2.064,7.399c0,0 0.141,1.359 2.461,1.207c2.319,-0.151 3.218,-0.469 3.218,-0.469l0.855,-0.691c0,0 -1.048,0.32 0.342,0.719c1.39,0.399 2.237,6.433 3.038,4.799c0.801,-1.634 -0.351,-6.151 0.062,-6.866c0.412,-0.716 -1.596,-1.611 -1.596,-1.611l2.911,-2.036l5.086,-1.681l-4.233,-2.05l0.539,-3.79l-2.948,-1.269l-3.363,3.999l-3.385,2.34l1.947,-5.561l3.073,-1.607l0.806,-4.337Z"/></clipPath><g clip-path="url(#_clip4)"><path d="M169.001,95.073l-2.717,16.012c-2.024,-2.031 -3.858,-2.785 -5.501,-2.245l-3.678,-4.286l-0.822,5.818l5.749,4.557c0,0 4.198,-4.144 3.42,-2.635c-0.778,1.509 -2.479,4.445 -1.652,7.509c0.827,3.064 2.856,3.427 2.961,2.076c0.105,-1.351 1.538,-3.606 1.538,-3.606l0.743,-1.741l2.436,-1.564l-0.211,5.364l-0.939,2.201l3.128,-3.314l0.665,-2.394l1.484,-3.72c0,0 0.852,-6.258 1.201,-4.313c0.349,1.945 2.779,11.552 2.779,11.552l-1.575,4.647l0.278,5.937l3.016,-7.072l2.917,-1.253l3.138,5.094l0.91,8.92l1.352,-0.918l0.995,-6.618l1.472,-11.391l-6.811,4.922l-0.91,-1.39l-1.798,-0.33l-0.887,-1.862l0.291,-9.912l-1.741,3.569l-0.183,-3.922l-1.074,-2.256l-0.276,5.42l-2.497,-7.758l-0.806,1.659l-2.409,3.708l-1.611,1.523l-1.7,-0.312l-1.209,1.04l-0.957,2.451l1.025,-5.536l1.488,-7.318l0.385,-3.711l5.092,-5.297l-4.154,14.79l5.181,-8.18l2.379,-3.325l4.398,-1.853l0.172,3.92l-5.456,6.775l8.037,-2.413l2.265,-0.743l2.567,0.04l-6.804,9.015l-1.262,4.186l1.284,2.696l0.917,-2.148l5.382,-3.599l1.241,3.243l-6.702,7.322l0.332,0.508l16.759,4.975l-23.792,15.839l-30.116,-28.855l3.78,-11.979l17.093,-7.519Z" style="fill:#96e54d;"/></g></g><path d="M114.42,158.9l-3.486,12.47l-3.061,-5.74l0.588,10.278l-3.397,-12.678l-1.342,7.031l-3.371,-9.931l0.037,5.324c0,0 -1.419,3.231 -2.433,1.543c-4.199,-6.995 -2.011,0.922 -2.241,1.261c-0.99,1.456 0.017,2.463 0.017,2.463l-0.754,2.063c0,0 1.798,-0.762 0.778,1.567c-1.019,2.328 -2.966,4.253 -1.601,4.684c1.365,0.431 3.09,-1.123 5.22,3.632c0.322,0.719 1.143,1.784 1.143,1.784c0,0 2.434,2.136 3.606,2.68c1.172,0.545 0.799,1.505 2.624,1.068c1.825,-0.437 2.773,-1.823 3.179,-0.244c0.406,1.579 1.864,2.6 1.864,2.6l3.803,1.755l0.566,-1.087c0,0 2.634,0.147 5.087,2.34c2.452,2.194 3.893,5.313 3.871,2.046c-0.022,-3.267 0.359,-3.03 0.359,-3.03c0,0 -0.021,-2.645 1.377,-2.384c1.397,0.262 4.294,1.065 4.294,1.065l-2.448,-3.074c0,0 4.131,-1.861 5.595,-1.85c1.464,0.011 3.79,1.845 3.79,1.845l-2.052,1.943c0,0 1.315,-1.07 2.062,-0.48c0.748,0.591 3.588,0.657 3.588,0.657l1.098,-1.746c0,0 -0.35,-0.67 -1.455,-2.594c-1.105,-1.924 -1.768,-2.982 -1.768,-2.982l-0.118,-1.366l1.6,-4.91l0.447,-4.78l-5.784,7.863l-0.068,-7.788l-3.217,4.946l-0.83,-9.684l-2.961,10.278c0,0 -1.123,2.134 -1.463,-0.973c-0.34,-3.107 -1.507,-10.064 -1.507,-10.064l-2.723,-5.559l0.999,16.374l-3.657,-3.183l-1.17,-16.523l-1.518,19.351l-1.587,-5.046l-1.474,2.382l-0.106,-15.597Zm-20.029,-14.152l-2.109,0.671l3.312,-12.099l-5.079,7.495l-2.458,-5.572l-1.532,4.899l-2.809,-4.76l-1.916,-2.374l-2.413,9.827l-2.305,-2.117l0.023,8.201l-1.805,3.785c0,0 2.122,1.73 2.669,2.755c0.547,1.025 -1.06,2.811 1.313,2.625c2.372,-0.185 3.26,0.476 4.442,-0.777c1.182,-1.254 2.288,-2.364 2.288,-2.364l3.284,1.481c0,0 1.291,-3.112 1.632,0.736c0.341,3.847 3.107,-2.148 3.107,-2.148l2.913,-5.502l-2.557,-4.762Zm-10.913,-20.227c0.011,0.117 0.184,0.259 0.721,0.414c1.39,0.398 2.237,6.433 3.038,4.799c0.801,-1.635 -0.351,-6.151 0.061,-6.867c0.413,-0.716 -1.595,-1.611 -1.595,-1.611l2.911,-2.036l5.086,-1.68l-4.233,-2.051l0.539,-3.789l-2.948,-1.27l-3.363,4l-3.385,2.339l1.947,-5.56l3.073,-1.608l0.806,-4.337l3.035,-5.382l-6.425,1.495l-2.224,0.806l3.365,-5.246l-1.693,-3.554l-3.823,0.629l-2.027,4.867l-2.814,-0.134l-0.233,-6.602c0,0 0.83,-2.102 -0.465,-0.778c-1.296,1.323 -4.136,5.966 -4.136,5.966l-1.139,2.472l-0.313,-6.455c0,0 -0.767,-0.376 -1.031,0.658c-0.264,1.035 -2.886,7.611 -2.886,7.611l-1.736,0.056l-1.783,-0.608l-4.301,0.415c0,0 -0.44,2.924 0.81,4.037c1.25,1.112 4.208,5.679 4.208,5.679c0,0 0.742,2.273 2.432,3.315c1.689,1.043 5.28,2.474 5.28,2.474c0,0 2.22,0.842 3.904,0.475c1.684,-0.366 1.937,-2.943 3.118,-0.691c1.182,2.252 2.064,7.4 2.064,7.4c0,0 0.141,1.358 2.46,1.207c2.32,-0.152 3.219,-0.469 3.219,-0.469l0.476,-0.386c-0.016,-0.185 0.379,-0.306 0.379,-0.306l-0.379,0.306Zm-58.69,-22.331c0.174,0.167 0.475,0.553 0.989,1.335c1.548,2.359 3.597,4.358 4.712,5.463c1.114,1.105 0.74,1.196 2.864,1.782c2.124,0.587 1.581,0.541 4.486,1.154c2.905,0.612 2.04,3.839 4.54,0.837c2.499,-3.003 -0.915,-7.424 2.427,-3.02c3.341,4.403 4.057,5.245 5.02,6.481c0.964,1.236 1.505,0.612 1.505,0.612c0,0 0.5,-0.466 1.096,-1.077c0.596,-0.611 0.851,-0.131 1.158,-0.979c0.308,-0.848 0.138,-1.969 0.138,-1.969c0,0 0.822,-0.609 -1.532,-3.121c-2.355,-2.511 -2.107,-2.116 -0.075,-2.299c2.031,-0.183 2.71,-0.641 2.71,-0.641l-2.125,-2.067l-0.177,-6.074l2.908,-4.915l-4.596,1.411l-0.092,7.433l-2.813,-6.47l0.196,-4.586l-2.909,1.993l1.277,5.994l-1.908,2.312l-1.927,-5.979l0.985,-0.16l-3.57,-3.704l-0.686,1.977l0.902,7.876l-3.337,-8.088l-0.14,-1.709l-2.222,2.064l0.496,4.052l0.132,3.627l-3.902,-8.61l1.165,7.266l-2.66,-0.981l-1.077,-4.808l1.559,-2.328l-2.546,0.562l-0.18,5.989l-2.791,3.365Zm0,0c-0.35,-0.337 -0.18,0.217 -0.18,0.217l0.18,-0.217Zm36.285,-22.297l8.86,-4.899l-12.723,-3.774l1.923,-7.824l-10.735,1.525l-3.383,-13.554l-8.029,8.421l-3.039,-9.844l-1.68,4.11l-0.962,-7.125l-2.715,6.548l-1.517,5.791l-0.59,-11.25l-1.163,3l-3.533,-3.195l-0.362,3.679l-2.272,-9.939l-1.275,10.381l-2.624,2.514c0,0 -1.779,4.655 -0.689,6.838c1.09,2.184 4.987,9.263 4.987,9.263c0,0 -3.397,-2.032 1.086,1.485c4.482,3.517 3.672,1.758 7.792,4.142c4.12,2.384 1.23,2.922 6.434,4.311c5.203,1.389 3.785,-2.051 5.764,1.636c1.979,3.687 0.783,2.757 2.588,5.832c1.805,3.074 2.844,0.301 4.917,-2.06c0.533,-0.608 1.151,-1.233 1.79,-1.789c1.846,-1.607 3.859,-2.631 4.449,-0.935c0.795,2.282 -3.569,0.223 1.399,2.682c4.968,2.46 7.539,10.137 6.022,1.506c-1.517,-8.632 -0.72,-7.476 -0.72,-7.476Zm27.283,-61.87l0.316,-11.408l-4.502,8.081l-6.64,-7.107l1.666,12.839l0.992,8.591c0,0 6.168,-1.071 7.943,-2.086c1.775,-1.015 2.332,-0.829 4.099,-0.003c1.767,0.826 4.863,2.587 7.935,3.763c3.072,1.176 7.707,4.332 7.707,4.332l5.094,0.47c2.964,-1.749 5.089,-3.145 5.089,-3.145l6.11,-1.604l-5.543,-1.59l-3.494,-4.888l5.99,-13.795l-12.825,9.365l-3.784,-9.097l-1.617,10.142l-1.6,-12.624l-4.072,7.436l-2.725,-10.281l-6.139,12.609Z" style="fill:#0a0500;fill-opacity:0.3;"/><g id="GrassBlank041" serif:id="GrassBlank04"><path d="M94.864,139.826l-2.109,0.672l3.312,-12.099l-5.079,7.494l-2.458,-5.571l-1.532,4.898l-2.809,-4.759l-1.916,-2.375l-2.413,9.827l-2.305,-2.116l0.022,8.2l-1.804,3.785c0,0 2.122,1.731 2.669,2.756c0.547,1.024 -1.06,2.81 1.312,2.625c2.373,-0.186 3.261,0.476 4.443,-0.778c1.182,-1.253 2.288,-2.363 2.288,-2.363l3.284,1.48c0,0 1.291,-3.111 1.632,0.736c0.341,3.847 3.107,-2.148 3.107,-2.148l2.912,-5.502l-2.556,-4.762Z" style="fill:#33653a;"/><clipPath id="_clip5"><path d="M94.864,139.826l-2.109,0.672l3.312,-12.099l-5.079,7.494l-2.458,-5.571l-1.532,4.898l-2.809,-4.759l-1.916,-2.375l-2.413,9.827l-2.305,-2.116l0.022,8.2l-1.804,3.785c0,0 2.122,1.731 2.669,2.756c0.547,1.024 -1.06,2.81 1.312,2.625c2.373,-0.186 3.261,0.476 4.443,-0.778c1.182,-1.253 2.288,-2.363 2.288,-2.363l3.284,1.48c0,0 1.291,-3.111 1.632,0.736c0.341,3.847 3.107,-2.148 3.107,-2.148l2.912,-5.502l-2.556,-4.762Z"/></clipPath><g clip-path="url(#_clip5)"><path d="M76.873,133.338l1.853,8.989l4.019,-0.167l-3.74,-7.861l3.06,-7.104l2.728,12.849l2.765,1.094l-0.556,-6.039l1.886,-7.035l0.467,13.131l1.649,-5.785l1.294,-3.118l2.997,-4.903l-3.695,14.406l1.03,0.158l0.758,0.938l3.074,2.687l3.007,4.122c0,0 -4.985,0.093 -8.923,-1.065c-2.921,-0.858 -4.975,-3.086 -5.522,-2.967c-0.595,0.13 -0.764,5.726 -2.671,7.797c-2.214,2.404 -6.156,1.322 -6.156,1.322l-1.565,-10.109l2.241,-11.34" style="fill:#96e54d;"/></g><path d="M57.207,75.799l8.86,-4.898l-12.723,-3.774l0.351,-1.426l1.572,-6.399l-10.735,1.526l-3.383,-13.554l-8.028,8.421l-3.039,-9.844l-1.68,4.11l-0.963,-7.126l-2.714,6.548l-1.518,5.792l-0.59,-11.25l-1.162,2.999l-3.534,-3.194l-0.362,3.679l-2.272,-9.939l-1.275,10.38l-2.623,2.514c0,0 -1.78,4.655 -0.69,6.839c1.091,2.183 4.988,9.263 4.988,9.263c0,0 -3.397,-2.032 1.085,1.485c4.483,3.517 3.672,1.757 7.792,4.142c4.121,2.384 1.23,2.921 6.434,4.31c5.204,1.389 3.786,-2.05 5.765,1.637c1.978,3.687 0.782,2.757 2.587,5.831c1.805,3.075 2.845,0.302 4.917,-2.06c2.073,-2.362 5.445,-5.006 6.24,-2.724c0.794,2.283 -3.57,0.224 1.398,2.683c4.968,2.459 7.54,10.137 6.023,1.505c-1.517,-8.631 -0.721,-7.476 -0.721,-7.476Z" style="fill:#33653a;"/><clipPath id="_clip6"><path d="M57.207,75.799l8.86,-4.898l-12.723,-3.774l0.351,-1.426l1.572,-6.399l-10.735,1.526l-3.383,-13.554l-8.028,8.421l-3.039,-9.844l-1.68,4.11l-0.963,-7.126l-2.714,6.548l-1.518,5.792l-0.59,-11.25l-1.162,2.999l-3.534,-3.194l-0.362,3.679l-2.272,-9.939l-1.275,10.38l-2.623,2.514c0,0 -1.78,4.655 -0.69,6.839c1.091,2.183 4.988,9.263 4.988,9.263c0,0 -3.397,-2.032 1.085,1.485c4.483,3.517 3.672,1.757 7.792,4.142c4.121,2.384 1.23,2.921 6.434,4.31c5.204,1.389 3.786,-2.05 5.765,1.637c1.978,3.687 0.782,2.757 2.587,5.831c1.805,3.075 2.845,0.302 4.917,-2.06c2.073,-2.362 5.445,-5.006 6.24,-2.724c0.794,2.283 -3.57,0.224 1.398,2.683c4.968,2.459 7.54,10.137 6.023,1.505c-1.517,-8.631 -0.721,-7.476 -0.721,-7.476Z"/></clipPath><g clip-path="url(#_clip6)"><path d="M13.803,37.654l3.454,12.833l-2.394,4.305l1.679,2.965l3.573,-14.48l2.727,-1.636l-2.444,15.637l-1.785,5.333l4.096,-0.51c0,0 -0.065,-5.486 1.548,-2.845c1.614,2.642 -0.333,-13.763 -0.333,-13.763l4.442,-3.64l0.856,12.361l0.442,13.967l0.879,-8.94l2.936,1.521l-0.2,-13.633l8.149,-2.689l-1.017,10.348l1.677,1.802l-1.177,3.247l-1.754,7.706l8.982,-12.12l-1.769,8.846l6.297,-5.894l2.351,-0.293l-5.233,14.899l13.761,-5.738l-8.505,7.52l1.922,3.521c0,0 7.215,7.371 5.069,8.247c-2.147,0.876 0.328,6.415 0.328,6.415c0,0 -4.277,-2.981 -6.414,-4.313c-2.137,-1.333 -1.79,2.104 -6.323,-4.325c-4.534,-6.429 -0.467,-4.952 -5.81,-8.704c-5.342,-3.753 -6.371,-2.813 -6.371,-2.813c0,0 -0.914,5.494 -2.515,0.821c-1.601,-4.674 1.583,-8.117 1.583,-8.117c0,0 -2.742,0.851 -4.46,2.13c-1.718,1.28 0.942,3.954 -2.578,2.509c-3.52,-1.446 -1.441,-0.207 -4.58,-1.377c-3.139,-1.17 0.467,0.053 -4.593,-1.245c-5.06,-1.297 -2.709,-1.082 -3.662,-3.932c-0.952,-2.851 0.364,-1.949 -1.341,-3.666c-1.704,-1.716 -1.29,-0.798 -3.527,-1.563c-2.237,-0.765 -4.325,-2.703 -4.265,-4.58c0.059,-1.878 0.795,-8.093 0.795,-8.093l5.504,-8.024Z" style="fill:#96e54d;"/></g><g><path d="M131.574,25.952l-4.234,9.206l-1.364,5.677l3.78,1.861l1.818,-16.744Z" style="fill:#96e54d;"/><path d="M132.9,40.492l-3.144,2.204l1.857,-16.644l1.287,14.44Z" style="fill:#33653a;"/></g><path d="M114.893,153.978l-3.486,12.471l-3.061,-5.741l0.587,10.278l-3.396,-12.678l-1.342,7.031l-3.371,-9.93l0.036,5.324c0,0 -1.418,3.231 -2.432,1.542c-4.199,-6.995 -2.011,0.922 -2.241,1.261c-0.99,1.456 0.016,2.463 0.016,2.463l-0.753,2.064c0,0 1.798,-0.763 0.778,1.566c-1.02,2.329 -2.966,4.253 -1.601,4.685c1.365,0.431 3.09,-1.124 5.22,3.632c0.322,0.719 1.142,1.784 1.142,1.784c0,0 2.435,2.135 3.607,2.68c1.172,0.544 0.799,1.504 2.624,1.067c1.825,-0.437 2.773,-1.823 3.179,-0.244c0.406,1.579 1.864,2.601 1.864,2.601l3.803,1.754l0.566,-1.086c0,0 2.633,0.146 5.086,2.34c2.453,2.193 3.894,5.312 3.872,2.045c-0.022,-3.267 0.359,-3.029 0.359,-3.029c0,0 -0.021,-2.646 1.376,-2.384c1.397,0.261 4.295,1.065 4.295,1.065l-2.448,-3.074c0,0 4.131,-1.861 5.595,-1.85c1.463,0.01 3.79,1.844 3.79,1.844l-2.052,1.944c0,0 1.314,-1.071 2.062,-0.48c0.748,0.59 3.588,0.657 3.588,0.657l1.098,-1.747c0,0 -0.35,-0.669 -1.455,-2.593c-1.105,-1.925 -1.768,-2.983 -1.768,-2.983l-0.118,-1.366l1.6,-4.91l0.447,-4.779l-5.784,7.863l-0.068,-7.789l-3.217,4.946l-0.83,-9.684l-2.961,10.279c0,0 -1.124,2.134 -1.463,-0.974c-0.34,-3.107 -1.507,-10.064 -1.507,-10.064l-2.723,-5.559l0.999,16.375l-3.657,-3.184l-1.17,-16.523l-1.518,19.352l-1.587,-5.046l-1.474,2.381l-0.106,-15.597Z" style="fill:#33653a;"/><clipPath id="_clip7"><path d="M114.893,153.978l-3.486,12.471l-3.061,-5.741l0.587,10.278l-3.396,-12.678l-1.342,7.031l-3.371,-9.93l0.036,5.324c0,0 -1.418,3.231 -2.432,1.542c-4.199,-6.995 -2.011,0.922 -2.241,1.261c-0.99,1.456 0.016,2.463 0.016,2.463l-0.753,2.064c0,0 1.798,-0.763 0.778,1.566c-1.02,2.329 -2.966,4.253 -1.601,4.685c1.365,0.431 3.09,-1.124 5.22,3.632c0.322,0.719 1.142,1.784 1.142,1.784c0,0 2.435,2.135 3.607,2.68c1.172,0.544 0.799,1.504 2.624,1.067c1.825,-0.437 2.773,-1.823 3.179,-0.244c0.406,1.579 1.864,2.601 1.864,2.601l3.803,1.754l0.566,-1.086c0,0 2.633,0.146 5.086,2.34c2.453,2.193 3.894,5.312 3.872,2.045c-0.022,-3.267 0.359,-3.029 0.359,-3.029c0,0 -0.021,-2.646 1.376,-2.384c1.397,0.261 4.295,1.065 4.295,1.065l-2.448,-3.074c0,0 4.131,-1.861 5.595,-1.85c1.463,0.01 3.79,1.844 3.79,1.844l-2.052,1.944c0,0 1.314,-1.071 2.062,-0.48c0.748,0.59 3.588,0.657 3.588,0.657l1.098,-1.747c0,0 -0.35,-0.669 -1.455,-2.593c-1.105,-1.925 -1.768,-2.983 -1.768,-2.983l-0.118,-1.366l1.6,-4.91l0.447,-4.779l-5.784,7.863l-0.068,-7.789l-3.217,4.946l-0.83,-9.684l-2.961,10.279c0,0 -1.124,2.134 -1.463,-0.974c-0.34,-3.107 -1.507,-10.064 -1.507,-10.064l-2.723,-5.559l0.999,16.375l-3.657,-3.184l-1.17,-16.523l-1.518,19.352l-1.587,-5.046l-1.474,2.381l-0.106,-15.597Z"/></clipPath><g clip-path="url(#_clip7)"><path d="M94.002,156.466l3.65,7.495l3.238,1.163l-1.624,-10.536l1.551,-0.182l3.213,15.957l1.567,-3.233l-2.174,-9.785l3.128,-0.292l1.013,17.199l2.068,0.988l-0.469,-14.722l2.208,-2.044l0.114,11.919l7.079,-14.864l-2.313,21.635l-10.523,9.233l-13.136,-11.61l1.41,-18.321Z" style="fill:#96e54d;"/><path d="M122.697,160.124l2.216,5.224l1.294,8.815l3.92,1.389l-1.032,-3.298l-1.234,-9.236l2.897,-1.543l1.537,14.492l1.506,-1.77l-0.505,-9.368l1.552,1.352l0.598,10.275l1.783,-0.911l0.716,-11.307l2.474,3.429l-1.395,8.702l2.461,2.668l7.504,8.669c0,0 -9.657,2.22 -10.965,2.551c-1.308,0.33 -7.709,4.704 -7.709,4.704l-11.528,-1.415l-3.671,-6.678l7.534,-0.296l1.111,-1.558l-1.473,-1.948l-3.963,-2.134l2.98,-3.452l-4.776,2.154l-0.834,3.402l-0.636,-4.594l2.938,-2.271l1.719,-3.034l-1.55,-13.169l-0.463,-8.712l2.365,1.518l1.174,11.899l-0.366,7.23l1.403,1.186l0.418,-12.965Z" style="fill:#96e54d;"/></g><path d="M81.976,111.44l3.035,-5.382l-6.425,1.494l-2.224,0.807l3.365,-5.247l-1.693,-3.553l-3.823,0.629l-2.027,4.867l-2.814,-0.134l-0.233,-6.603c0,0 0.83,-2.101 -0.465,-0.778c-1.296,1.324 -4.136,5.966 -4.136,5.966l-1.139,2.473l-0.313,-6.455c0,0 -0.767,-0.376 -1.031,0.658c-0.264,1.035 -2.886,7.611 -2.886,7.611l-1.736,0.056l-1.783,-0.608l-4.301,0.415c0,0 -0.44,2.924 0.81,4.037c1.25,1.112 4.208,5.678 4.208,5.678c0,0 0.742,2.274 2.432,3.316c1.689,1.042 5.281,2.474 5.281,2.474c0,0 2.219,0.841 3.903,0.475c1.685,-0.367 1.937,-2.943 3.118,-0.691c1.182,2.252 2.064,7.399 2.064,7.399c0,0 0.142,1.359 2.461,1.208c2.319,-0.152 3.218,-0.469 3.218,-0.469l0.855,-0.692c0,0 -1.048,0.32 0.342,0.719c1.391,0.399 2.237,6.434 3.038,4.799c0.801,-1.634 -0.351,-6.151 0.062,-6.866c0.412,-0.716 -1.596,-1.611 -1.596,-1.611l2.911,-2.036l5.086,-1.68l-4.233,-2.051l0.539,-3.79l-2.948,-1.269l-3.363,3.999l-3.385,2.34l1.947,-5.56l3.073,-1.608l0.806,-4.337Z" style="fill:#33653a;"/><clipPath id="_clip8"><path d="M81.976,111.44l3.035,-5.382l-6.425,1.494l-2.224,0.807l3.365,-5.247l-1.693,-3.553l-3.823,0.629l-2.027,4.867l-2.814,-0.134l-0.233,-6.603c0,0 0.83,-2.101 -0.465,-0.778c-1.296,1.324 -4.136,5.966 -4.136,5.966l-1.139,2.473l-0.313,-6.455c0,0 -0.767,-0.376 -1.031,0.658c-0.264,1.035 -2.886,7.611 -2.886,7.611l-1.736,0.056l-1.783,-0.608l-4.301,0.415c0,0 -0.44,2.924 0.81,4.037c1.25,1.112 4.208,5.678 4.208,5.678c0,0 0.742,2.274 2.432,3.316c1.689,1.042 5.281,2.474 5.281,2.474c0,0 2.219,0.841 3.903,0.475c1.685,-0.367 1.937,-2.943 3.118,-0.691c1.182,2.252 2.064,7.399 2.064,7.399c0,0 0.142,1.359 2.461,1.208c2.319,-0.152 3.218,-0.469 3.218,-0.469l0.855,-0.692c0,0 -1.048,0.32 0.342,0.719c1.391,0.399 2.237,6.434 3.038,4.799c0.801,-1.634 -0.351,-6.151 0.062,-6.866c0.412,-0.716 -1.596,-1.611 -1.596,-1.611l2.911,-2.036l5.086,-1.68l-4.233,-2.051l0.539,-3.79l-2.948,-1.269l-3.363,3.999l-3.385,2.34l1.947,-5.56l3.073,-1.608l0.806,-4.337Z"/></clipPath><g clip-path="url(#_clip8)"><path d="M63.066,98.142l-2.717,16.012c-2.023,-2.031 -3.858,-2.785 -5.501,-2.245l-3.678,-4.286l-0.822,5.818l5.749,4.557c0,0 4.198,-4.143 3.42,-2.635c-0.778,1.509 -2.479,4.445 -1.652,7.509c0.827,3.064 2.856,3.427 2.961,2.076c0.105,-1.351 1.538,-3.606 1.538,-3.606l0.743,-1.741l2.436,-1.564l-0.21,5.364l-0.939,2.201l3.127,-3.314l0.665,-2.393l1.484,-3.721c0,0 0.852,-6.258 1.201,-4.313c0.349,1.945 2.779,11.552 2.779,11.552l-1.575,4.647l0.278,5.937l3.017,-7.072l2.916,-1.253l3.138,5.094l0.91,8.92l1.352,-0.918l0.995,-6.618l1.472,-11.391l-6.811,4.922l-0.91,-1.39l-1.798,-0.33l-0.887,-1.862l0.291,-9.912l-1.74,3.569l-0.184,-3.922l-1.074,-2.255l-0.276,5.419l-2.497,-7.758l-0.806,1.659l-2.409,3.708l-1.611,1.524l-1.7,-0.312l-1.209,1.039l-0.957,2.451l1.025,-5.536l1.488,-7.318l0.385,-3.711l5.092,-5.297l-4.154,14.79l5.181,-8.18l2.379,-3.325l4.398,-1.853l0.172,3.92l-5.456,6.775l8.037,-2.413l2.265,-0.743l2.567,0.04l-6.804,9.015l-1.262,4.186l1.284,2.696l0.917,-2.148l5.382,-3.599l1.241,3.243l-6.702,7.322l0.332,0.508l16.759,4.975l-23.792,15.84l-30.116,-28.856l3.78,-11.979l17.093,-7.519Z" style="fill:#96e54d;"/></g><path d="M112.385,19.184l5.99,-13.796l-12.825,9.366l-3.784,-9.097l-1.617,10.141l-1.6,-12.623l-4.072,7.435l-2.725,-10.28l-6.139,12.609l0.316,-11.408l-4.502,8.081l-6.64,-7.107l1.666,12.839l0.992,8.591c0,0 6.168,-1.072 7.943,-2.086c1.775,-1.015 2.332,-0.829 4.099,-0.003c1.767,0.826 4.863,2.587 7.935,3.763c3.071,1.176 7.707,4.332 7.707,4.332l5.094,0.47c0,0 -2.965,1.749 0,0c2.964,-1.749 5.089,-3.145 5.089,-3.145l6.11,-1.605l-5.543,-1.589l-3.494,-4.888Z" style="fill:#33653a;"/><clipPath id="_clip9"><path d="M112.385,19.184l5.99,-13.796l-12.825,9.366l-3.784,-9.097l-1.617,10.141l-1.6,-12.623l-4.072,7.435l-2.725,-10.28l-6.139,12.609l0.316,-11.408l-4.502,8.081l-6.64,-7.107l1.666,12.839l0.992,8.591c0,0 6.168,-1.072 7.943,-2.086c1.775,-1.015 2.332,-0.829 4.099,-0.003c1.767,0.826 4.863,2.587 7.935,3.763c3.071,1.176 7.707,4.332 7.707,4.332l5.094,0.47c0,0 -2.965,1.749 0,0c2.964,-1.749 5.089,-3.145 5.089,-3.145l6.11,-1.605l-5.543,-1.589l-3.494,-4.888Z"/></clipPath><g clip-path="url(#_clip9)"><path d="M73.474,1.456l4.647,9.025l1.979,3.906c0,0 2.29,-7.836 2.184,-7.856c-0.106,-0.021 4.163,-7.088 4.163,-7.088l-3.477,14.19l1.988,1.663l2.359,-8.488l5.239,-8.97l-2.075,15.972l4.709,-3.387l0.128,-8.884l3.568,0.424l-1.036,12.187l1.647,3.993l0.218,-11.485l2.133,-2.409l0.857,10.614l1.773,3.749l-0.225,-10.569l14.438,-3.792l-10.532,16.043l8.063,-0.519l13.001,7.23l-10.934,8.33l-10.144,-1.761l-3.493,-11.335c0,0 0.536,0.284 -3.214,-0.18c-3.749,-0.464 -10.195,-1.748 -10.195,-1.748l-1.408,1.812l-8.98,4.522l-11.506,-3.315l4.125,-21.874Z" style="fill:#96e54d;"/></g><path d="M55.905,88.77l-4.597,1.411l-0.091,7.434l-2.814,-6.47l0.197,-4.586l-2.909,1.992l1.277,5.995l-1.908,2.311l-1.927,-5.978l0.985,-0.16l-3.57,-3.704l-0.686,1.976l0.902,7.876l-3.337,-8.088l-0.14,-1.709l-2.222,2.064l0.496,4.052l0.132,3.628l-3.903,-8.611l1.166,7.266l-2.66,-0.981l-1.077,-4.807l1.559,-2.328l-2.546,0.562l-0.181,5.988l-2.971,3.583c0,0 -0.378,-1.241 1.17,1.118c1.548,2.359 3.597,4.358 4.711,5.463c1.115,1.105 0.741,1.195 2.865,1.782c2.124,0.587 1.581,0.54 4.486,1.153c2.905,0.613 2.04,3.84 4.539,0.837c2.5,-3.003 -0.914,-7.423 2.427,-3.02c3.342,4.403 4.058,5.245 5.021,6.481c0.964,1.237 1.505,0.612 1.505,0.612c0,0 0.5,-0.466 1.096,-1.077c0.596,-0.611 0.851,-0.131 1.158,-0.979c0.308,-0.848 0.137,-1.968 0.137,-1.968c0,0 0.823,-0.61 -1.531,-3.121c-2.355,-2.511 -2.107,-2.117 -0.075,-2.3c2.031,-0.183 2.71,-0.64 2.71,-0.64l-2.125,-2.068l-0.177,-6.074l2.908,-4.915Z" style="fill:#33653a;"/><clipPath id="_clip10"><path d="M55.905,88.77l-4.597,1.411l-0.091,7.434l-2.814,-6.47l0.197,-4.586l-2.909,1.992l1.277,5.995l-1.908,2.311l-1.927,-5.978l0.985,-0.16l-3.57,-3.704l-0.686,1.976l0.902,7.876l-3.337,-8.088l-0.14,-1.709l-2.222,2.064l0.496,4.052l0.132,3.628l-3.903,-8.611l1.166,7.266l-2.66,-0.981l-1.077,-4.807l1.559,-2.328l-2.546,0.562l-0.181,5.988l-2.971,3.583c0,0 -0.378,-1.241 1.17,1.118c1.548,2.359 3.597,4.358 4.711,5.463c1.115,1.105 0.741,1.195 2.865,1.782c2.124,0.587 1.581,0.54 4.486,1.153c2.905,0.613 2.04,3.84 4.539,0.837c2.5,-3.003 -0.914,-7.423 2.427,-3.02c3.342,4.403 4.058,5.245 5.021,6.481c0.964,1.237 1.505,0.612 1.505,0.612c0,0 0.5,-0.466 1.096,-1.077c0.596,-0.611 0.851,-0.131 1.158,-0.979c0.308,-0.848 0.137,-1.968 0.137,-1.968c0,0 0.823,-0.61 -1.531,-3.121c-2.355,-2.511 -2.107,-2.117 -0.075,-2.3c2.031,-0.183 2.71,-0.64 2.71,-0.64l-2.125,-2.068l-0.177,-6.074l2.908,-4.915Z"/></clipPath><g clip-path="url(#_clip10)"><path d="M27.346,85.33l1.873,4.351l0.049,5.398l0.708,4.234l1.341,-5.411l0.675,-5.815l2.203,8.566l-0.077,2.313l2.249,2.202l-0.985,-4.847l-1.229,-7.64l3.305,0.471l-0.1,1.741l2.709,7.919l-0.906,1.953l0.924,0.758l1.627,-0.36l-0.814,-3.998l-1.422,-5.974l0.443,-2.233l3.55,2.243l1.575,5.666l-0.933,3.316l2.962,0.944l-0.161,-6.635l-2.451,-7.117l4.061,3.883l0.357,8.252l2.357,-1.663l-0.592,-7.195l0.635,-0.545l1.699,3.892l-1.202,6.911l1.038,1.574c0,0 4.027,8.992 3.848,9.413c-0.178,0.421 0.439,4.526 -2.234,4.105c-2.674,-0.422 -6.494,-2.93 -7.378,-4.008c-0.884,-1.078 -2.017,-7.73 -3.66,-7.588c-1.643,0.143 -3.498,-0.463 -4.735,-0.706c-1.238,-0.243 -3.323,-0.69 -3.323,-0.69c0,0 3.712,3.464 0.422,1.603c-3.289,-1.861 -3.767,-2.565 -3.767,-2.565l-0.081,-0.985l-3.281,-0.188l-5.142,-1.296l-0.483,-6.324l4.346,-7.925" style="fill:#96e54d;"/></g></g></g></svg>