<?xml version="1.0" encoding="UTF-8" standalone="no"?><!DOCTYPE svg PUBLIC "-//W3C//DTD SVG 1.1//EN" "http://www.w3.org/Graphics/SVG/1.1/DTD/svg11.dtd"><svg width="100%" height="100%" viewBox="0 0 216 168" version="1.1" xmlns="http://www.w3.org/2000/svg" xmlns:xlink="http://www.w3.org/1999/xlink" xml:space="preserve" xmlns:serif="http://www.serif.com/" style="fill-rule:evenodd;clip-rule:evenodd;stroke-linecap:round;stroke-linejoin:round;stroke-miterlimit:1.5;"><g id="Dirt_Block_Half01"><g><path d="M215.171,53.687l0,59.755l-107.331,53.666l0,-96.599l107.331,-16.822Z" style="fill:#bfac80;"/><clipPath id="_clip1"><path d="M215.171,53.687l0,59.755l-107.331,53.666l0,-96.599l107.331,-16.822Z"/></clipPath><g clip-path="url(#_clip1)"><path d="M113.368,197.998l-7.47,-8.393l0.628,-15.38l4.862,-8.365l7.638,3.248l3.735,6.804l0.66,10.713l-10.053,11.373" style="fill:#e1c080;stroke:#000;stroke-width:1px;"/><path d="M136.909,167.714l6.48,-6.062l-3.057,-12.565l-8.623,-2.464l-7.622,-1.443l-2.977,3.95l-3.5,-1.488l-5.378,1.086l-1.634,4.319l5.651,4.448l4.24,3.091l7.816,4.704l8.604,2.424Z" style="fill:#b2a386;"/><path d="M173.895,174.019l7.621,-4.416l4.724,-10.592l-3.045,-9.558l-19.234,-2.963l-6.431,7.696l-1.006,7.709l6.329,7.428l11.042,4.696Z" style="fill:#e1c080;stroke:#000;stroke-width:1px;"/><path d="M195.671,137.559l8.069,-10.665l-1.707,-5.942l-8.574,-19.294c0,0 -7.897,5.94 -10.383,6.016c-2.486,0.077 -7.683,4.452 -7.683,4.452l3.152,9.269l8.6,6.112l8.526,10.052Z" style="fill:#b2a386;"/><path d="M147.568,142.231l10.64,-1.857l10.284,-7.606l-2.016,-7.625l-4.769,-5.692l-7.679,1.95l-4.985,5.389l-3.648,6.588l2.173,8.853" style="fill:#b2a386;"/><path d="M206.381,169.745l-9.119,-6.382l-10.415,5.505l-4.461,14.856l14.945,3.037l6.388,-5.87l2.662,-11.146" style="fill:#e1c080;stroke:#000;stroke-width:1px;"/><path d="M118.735,111.933l-7.471,-8.393l0.629,-15.38l4.861,-8.365l7.639,3.248l3.734,6.804l0.66,10.713l-10.052,11.373" style="fill:#b2a386;"/><path d="M131.153,130.465l-9.713,-5.466l1.146,-6.212l5.191,-3.008l4.057,1.725l4.47,4.429l-0.085,5.597l-5.066,2.935Z" style="fill:#68583f;"/><path d="M161.437,106.87l-5.042,5.431l-10.806,-0.849l-2.238,-4.698l-1.605,-8.155l10.343,-11.542l3.071,5.211l5.436,0.955l2.99,10.126l-2.149,3.521" style="fill:#68583f;"/><path d="M147.256,83.85l6.48,-6.062l-3.057,-12.565l-8.623,-2.463l-7.622,-1.443l-2.977,3.95l-3.5,-1.489l-5.378,1.086l-1.634,4.319l5.651,4.448l4.24,3.091l7.816,4.704l8.604,2.424Z" style="fill:#e1c080;stroke:#000;stroke-width:1px;"/><path d="M176.094,100.93l7.62,-4.416l4.724,-10.592l-3.045,-9.558l-19.234,-2.963l-6.431,7.696l-1.006,7.709l6.329,7.428l11.043,4.696Z" style="fill:#b2a386;"/><path d="M156.682,65.412l10.639,-1.857l10.284,-7.605l-2.016,-7.626l-4.769,-5.692l-7.679,1.951l-4.984,5.388l-3.648,6.589l2.173,8.852" style="fill:#68583f;stroke:#000;stroke-width:1px;"/><path d="M211.747,83.68l-9.119,-6.382l-10.414,5.505l-4.461,14.856l14.945,3.037l6.387,-5.87l2.662,-11.146" style="fill:#68583f;"/><path d="M129.211,135.32l-9.714,-5.467l1.146,-6.211l5.191,-3.009l4.057,1.725l4.47,4.43l-0.085,5.596l-5.065,2.936Zm30.283,-23.595l-5.042,5.43l-10.806,-0.848l-2.238,-4.699l-1.605,-8.155l10.344,-11.541l3.07,5.211l5.436,0.955l2.991,10.126l-2.15,3.521Zm50.311,-23.19l-2.662,11.146l-6.388,5.869l-14.945,-3.036l4.461,-14.856l10.415,-5.505l9.119,6.382Zm-55.066,-18.268l10.639,-1.857l10.285,-7.606l-2.017,-7.625l-4.768,-5.692l-7.679,1.95l-4.985,5.389l-3.648,6.588l2.173,8.853Z" style="fill:#0a0500;fill-opacity:0.3;"/><path d="M133.966,172.42l6.48,-6.062l-3.057,-12.565l-8.623,-2.464l-7.622,-1.443l-2.977,3.95l-3.5,-1.488l-5.378,1.086l-1.634,4.319l5.651,4.448l4.24,3.091l7.816,4.704l8.604,2.424Zm10.66,-25.483l10.639,-1.857l10.285,-7.606l-2.017,-7.625l-4.768,-5.692l-7.68,1.95l-4.984,5.389l-3.648,6.588l2.173,8.853Zm48.103,-4.672l8.068,-10.665l-1.706,-5.942l-8.575,-19.294c0,0 -7.897,5.94 -10.383,6.016c-2.485,0.077 -7.683,4.453 -7.683,4.453l3.152,9.268l8.6,6.112l8.527,10.052Zm-76.937,-25.626l-7.471,-8.393l0.629,-15.38l4.861,-8.365l7.639,3.248l3.734,6.804l0.661,10.713l-10.053,11.373Zm57.26,-16.468l7.62,-4.416l4.724,-10.593l-3.045,-9.557l-19.234,-2.964l-6.431,7.697l-1.006,7.709l6.329,7.427l11.043,4.697Zm-28.739,-11.615l6.48,-6.062l-3.056,-12.565l-8.623,-2.463l-7.623,-1.443l-2.976,3.95l-3.5,-1.489l-5.379,1.086l-1.633,4.319l5.65,4.448l4.241,3.091l7.816,4.704l8.603,2.424Zm47.896,-32.58l14.889,-6.555l-8.574,-19.295c0,0 -7.897,5.94 -10.383,6.017c-2.486,0.076 -7.683,4.452 -7.683,4.452l3.152,9.269l8.599,6.112Z" style="fill:#584224;fill-opacity:0.5;"/></g><path d="M0.509,53.687l107.331,16.822l0,96.599l-107.331,-53.666l0,-59.755Z" style="fill:#625443;"/><clipPath id="_clip2"><path d="M0.509,53.687l107.331,16.822l0,96.599l-107.331,-53.666l0,-59.755Z"/></clipPath><g clip-path="url(#_clip2)"><path d="M6.001,188.82l-7.47,-8.945l0.628,-16.394l4.862,-8.916l7.638,3.463l3.735,7.252l0.66,11.418l-10.053,12.122" style="fill:#816b40;stroke:#000;stroke-width:1px;"/><path d="M48.703,183.424l-5.042,5.788l-10.806,-0.905l-2.237,-5.007l-1.606,-8.693l10.344,-12.301l3.071,5.554l5.435,1.018l2.991,10.793l-2.15,3.753" style="fill:#816b40;stroke:#000;stroke-width:1px;"/><path d="M29.542,156.541l6.48,-6.461l-3.057,-13.393l-8.623,-2.625l-7.622,-1.539l-2.977,4.211l-3.5,-1.587l-5.378,1.157l-1.634,4.605l5.651,4.74l4.24,3.295l7.816,5.013l8.604,2.584Z" style="fill:#816b40;stroke:#000;stroke-width:1px;"/><path d="M66.529,163.262l7.62,-4.707l4.724,-11.29l-3.045,-10.188l-19.234,-3.158l-6.431,8.204l-1.006,8.216l6.329,7.917l11.043,5.006Z" style="fill:#bfac80;"/><path d="M88.537,132.046l8.069,-11.366l-1.707,-6.334l-8.575,-20.565c0,0 -7.897,6.331 -10.383,6.413c-2.485,0.081 -7.683,4.745 -7.683,4.745l3.152,9.88l8.6,6.514l8.527,10.713Z" style="fill:#68583f;"/><path d="M40.202,129.38l10.639,-1.98l10.284,-8.106l-2.016,-8.128l-4.769,-6.067l-7.679,2.079l-4.985,5.743l-3.648,7.023l2.174,9.436" style="fill:#68583f;"/><path d="M106.2,146.625l-9.093,-6.35l-10.433,5.55l-4.516,14.885l14.931,2.979l6.408,-5.899l2.703,-11.165" style="fill:#68583f;"/><path d="M11.368,97.086l-7.471,-8.945l0.629,-16.394l4.861,-8.916l7.639,3.463l3.734,7.252l0.66,11.418l-10.052,12.122" style="fill:#bfac80;"/><path d="M23.787,116.839l-9.714,-5.827l1.146,-6.62l5.191,-3.207l4.057,1.839l4.47,4.721l-0.085,5.965l-5.065,3.129Z" style="fill:#bfac80;"/><path d="M47.519,95.833l-5.042,5.788l-10.806,-0.905l-2.238,-5.007l-1.605,-8.692l10.343,-12.302l3.071,5.554l5.436,1.018l2.99,10.793l-2.149,3.753" style="fill:#68583f;"/><path d="M17.216,59.227l9.014,-1.578l5.175,-12.725l-5.559,-7.095l-5.362,-5.631l-4.853,1.742l-1.958,-3.307l-5.07,-2.136l-3.979,2.836l1.912,7.124l1.584,5.13l3.529,8.59l5.567,7.05Z" style="fill:#68583f;stroke:#000;stroke-width:1px;"/><path d="M57.93,77.795l7.62,-4.707l4.724,-11.29l-3.045,-10.187l-19.233,-3.159l-6.432,8.204l-1.006,8.216l6.329,7.917l11.043,5.006Z" style="fill:#bfac80;stroke:#000;stroke-width:1px;"/><path d="M93.671,32.666l8.069,-11.367l-1.707,-6.334l-8.575,-20.565c0,0 -7.897,6.331 -10.382,6.413c-2.486,0.081 -7.683,4.745 -7.683,4.745l3.152,9.88l8.599,6.514l8.527,10.714Z" style="fill:#816b40;stroke:#000;stroke-width:1px;"/><path d="M45.568,37.645l10.639,-1.979l10.285,-8.106l-2.017,-8.128l-4.768,-6.067l-7.679,2.079l-4.985,5.743l-3.648,7.023l2.173,9.435" style="fill:#816b40;stroke:#000;stroke-width:1px;"/><path d="M97.107,70.445l-9.119,-6.802l-10.415,5.868l-4.461,15.834l14.945,3.237l6.388,-6.256l2.662,-11.881" style="fill:#68583f;stroke:#000;stroke-width:1px;"/><path d="M14.693,209.575l-9.713,-5.827l1.146,-6.621l5.191,-3.206l4.056,1.839l4.471,4.721l-0.085,5.965l-5.066,3.129Zm30.284,-25.149l-5.042,5.788l-10.806,-0.905l-2.238,-5.007l-1.605,-8.693l10.343,-12.302l3.071,5.555l5.436,1.018l2.99,10.793l-2.149,3.753Zm-42.702,5.396l-7.471,-8.946l0.629,-16.393l4.861,-8.916l7.639,3.462l3.734,7.253l0.66,11.418l-10.052,12.122Zm100.199,-42.196l-2.704,11.165l-6.408,5.9l-14.93,-2.979l4.516,-14.885l10.432,-5.55l9.094,6.349Zm-39.672,16.637l7.62,-4.706l4.724,-11.29l-3.045,-10.188l-19.233,-3.158l-6.432,8.204l-1.006,8.216l6.329,7.917l11.043,5.005Zm-36.987,-6.72l6.48,-6.462l-3.057,-13.392l-8.623,-2.626l-7.622,-1.538l-2.977,4.211l-3.5,-1.587l-5.378,1.157l-1.634,4.604l5.651,4.741l4.24,3.294l7.817,5.014l8.603,2.584Zm58.995,-24.495l8.069,-11.367l-1.707,-6.333l-8.574,-20.565c0,0 -7.897,6.331 -10.383,6.413c-2.486,0.081 -7.683,4.745 -7.683,4.745l3.152,9.88l8.599,6.514l8.527,10.713Zm-48.335,-2.667l10.639,-1.979l10.285,-8.106l-2.017,-8.128l-4.768,-6.067l-7.679,2.079l-4.985,5.743l-3.648,7.023l2.173,9.435Zm-16.415,-12.54l-9.713,-5.827l1.145,-6.621l5.192,-3.206l4.056,1.839l4.47,4.721l-0.085,5.965l-5.065,3.129Zm23.732,-21.006l-5.042,5.788l-10.806,-0.905l-2.238,-5.007l-1.605,-8.693l10.344,-12.302l3.07,5.555l5.436,1.018l2.991,10.793l-2.15,3.753Zm-36.151,1.253l-7.47,-8.946l0.628,-16.393l4.862,-8.916l7.638,3.462l3.735,7.253l0.66,11.418l-10.053,12.122Zm85.739,-26.641l-2.662,11.881l-6.387,6.255l-14.945,-3.236l4.461,-15.835l10.414,-5.867l9.119,6.802Zm-39.177,7.35l7.621,-4.707l4.724,-11.29l-3.046,-10.188l-19.233,-3.158l-6.432,8.204l-1.006,8.216l6.329,7.917l11.043,5.006Zm-40.713,-18.568l9.013,-1.578l5.176,-12.725l-5.559,-7.096l-5.363,-5.63l-4.853,1.742l-1.958,-3.307l-5.069,-2.136l-3.979,2.836l1.911,7.124l1.585,5.13l3.529,8.589l5.567,7.051Zm28.352,-21.582l10.639,-1.979l10.284,-8.106l-2.016,-8.128l-4.769,-6.067l-7.679,2.079l-4.985,5.743l-3.648,7.023l2.174,9.435Zm48.102,-4.98l8.069,-11.367l-1.707,-6.333l-8.574,-20.565c0,0 -7.897,6.331 -10.383,6.413c-2.486,0.081 -7.683,4.745 -7.683,4.745l3.152,9.88l8.6,6.514l8.526,10.713Z" style="fill:#0a0500;fill-opacity:0.3;"/></g></g><path d="M215.171,53.687l-107.331,-53.665l-107.331,53.665l107.331,53.666l107.331,-53.666Z" style="fill:#84775b;"/><g id="GrassBlank04"><path d="M105.732,93.087l3.65,3.111l-2.942,-14.901l-0.708,11.79Zm5.98,-2.36l1.825,5.369l-4.155,0.102l-2.902,-14.971l5.232,9.5Zm-25.855,-19.881l8.318,13.903l-3.087,2.428l-4.798,-0.195l-4.901,2.537l-4.067,-2.232l-2.903,-1.472l-6.054,-10.617l3.416,2.346l4.234,3.248l-1.913,-6.056l4.024,5.294l2.642,3.996l-0.642,-8.162l-2.207,-3.603l6.076,7.414l1.5,4.161l1.349,-0.722l-0.987,-12.268Zm70.787,3.886c-0.218,0.115 -0.569,0.401 -1.127,1.002c-1.683,1.812 -4.258,3.187 -5.652,3.951c-1.394,0.764 -0.784,0.928 -3.909,0.998c-3.125,0.071 -2.295,0.148 -6.628,0.071c-4.333,-0.076 -1.992,3.055 -6.808,-0.229c-4.815,-3.284 -0.862,-6.568 -4.707,-3.284c-3.846,3.284 -4.701,3.895 -5.819,4.812c-1.119,0.916 -2.154,0.229 -2.154,0.229c0,0 -0.922,-0.535 -2.038,-1.222c-1.116,-0.688 -1.365,-0.306 -2.104,-1.146c-0.739,-0.84 -0.82,-1.825 -0.82,-1.825c0,0 -1.468,-0.735 1.424,-2.51c2.891,-1.775 2.627,-1.47 -0.592,-2.081c-3.218,-0.611 -4.415,-1.176 -4.415,-1.176l2.671,-1.42l-1.596,-5.5l-6.039,-5.117l7.589,2.292l2.431,6.797l2.387,-5.284l-1.718,-4.224l5.141,2.452l-0.141,5.187l3.681,2.524l1.159,-5.029l-1.583,-0.361l4.417,-2.597l1.676,1.952l1.021,6.984l2.703,-6.645l-0.307,-1.527l4.093,2.367l0.476,3.586l0.911,3.278l3.423,-6.997l0.423,6.37l3.838,-0.313l0.196,-4.148l-3.143,-2.463l4.136,1.069l2.125,5.499l5.379,3.678Zm0,0c0.441,-0.23 0.349,0.238 0.349,0.238l-0.349,-0.238Zm-120.168,-31.381c-0.043,0.076 -0.271,0.069 -0.9,-0.155c-1.627,-0.579 -4.189,3.149 -4.621,1.502c-0.432,-1.647 2.052,-4.117 1.795,-4.876c-0.256,-0.759 2.181,-0.147 2.181,-0.147l-2.629,-3.236l-5.101,-4.33l5.181,1.174l0.439,-3.003l3.566,0.93l2.589,4.898l3.064,3.742l-0.618,-5.121l-2.922,-3.034l0.296,-3.554l-1.856,-5.669l6.615,5.028l2.211,1.944l-2.254,-5.778l2.814,-1.456l4.006,2.808l0.895,4.683l3.112,1.647l2.045,-4.508c0,0 -0.337,-1.993 0.719,-0.26c1.057,1.734 2.901,6.762 2.901,6.762l0.574,2.447l2.093,-4.354c0,0 0.939,0.209 0.948,1.101c0.008,0.893 1.089,7.148 1.089,7.148l1.881,1.113l2.114,0.675l4.586,2.953c0,0 -0.312,2.332 -1.98,2.343c-1.667,0.01 -6.138,1.397 -6.138,1.397c0,0 -0.496,0.397 -1.34,0.659l9.457,8.543l4.553,-7.699l0.774,9.624l2.659,-11.335l3.46,7.57l3.59,-8.977l5.101,12.7l0.636,-10.556l3.838,8.241l7.249,-5.358l-2.742,11.521l-1.712,7.73c0,0 -6.092,-2.085 -7.787,-3.336c-1.695,-1.25 -2.269,-1.178 -4.109,-0.733c-1.84,0.445 -5.09,1.514 -8.268,2.049c-3.177,0.535 -8.087,2.614 -8.087,2.614l-5.146,-0.475c-2.825,-2.139 -4.839,-3.803 -4.839,-3.803l-5.99,-2.566l5.689,-0.475l3.91,-3.877l-3.941,-11.181c-0.166,-0.007 -0.336,-0.023 -0.512,-0.049c-2.128,-0.311 -6.441,-1.524 -6.441,-1.524c0,0 -2.653,-0.781 -4.394,-2.081c-1.741,-1.3 -1.318,-3.271 -3.22,-2.416c-1.902,0.856 -4.262,3.936 -4.262,3.936c0,0 -0.523,0.87 -3.016,-0.672c-2.493,-1.541 -3.389,-2.322 -3.389,-2.322l-0.416,-0.566c0.068,-0.12 -0.331,-0.449 -0.331,-0.449l0.331,0.449Zm135.471,20.94l3.038,5.643l1.566,-5.093l4.088,2.936l1.691,-3.783l6.238,-1.091l-4.441,-2.815l-2.642,-11.298l-3.369,10.383l-5.435,-9.567l-1.353,5.711l-6.196,-4.45l0.667,5.691l1.35,4.011l-6.564,-1.247l7.094,4.166l-5.233,5.476l6.98,-1.267l1.371,1.489l1.15,-4.895Zm-155.467,-11.294l2.457,1.247l-5.603,-11.733l6.846,8.205l1.859,-4.169l2.481,4.809l2.38,-3.342l1.761,-1.509l4.241,9.444l2.236,-1.159l1.27,7.25l2.61,3.909c0,0 -2.092,0.874 -2.54,1.612c-0.448,0.737 1.625,2.816 -1.049,1.917c-2.674,-0.899 -3.559,-0.588 -5.075,-2.064c-1.516,-1.475 -2.924,-2.8 -2.924,-2.8l-3.427,0.293c0,0 -1.93,-3.153 -1.703,0.146c0.228,3.299 -3.802,-2.863 -3.802,-2.863l-4.116,-5.771l2.098,-3.422Zm96.618,-20.039c0,0 3.675,-0.457 -1.117,0.864c-4.791,1.321 -4.003,0.118 -8.467,0.604c-4.464,0.487 -1.179,2.041 -6.929,1.264c-5.75,-0.777 -4.397,-3.192 -6.363,-0.777c-1.967,2.414 -0.687,2.069 -2.501,4.024c-1.814,1.954 -3.176,-0.818 -5.669,-3.628c-2.494,-2.811 -6.467,-6.355 -7.201,-4.698c-0.734,1.658 4.027,1.543 -1.385,1.773c-5.411,0.229 -7.765,5.843 -6.662,-0.988c1.103,-6.83 0.288,-6.141 0.288,-6.141l-10.297,-7.554l14.034,1.576l-2.707,-7.44l12.169,5.371l2.858,-10.347l9.608,10.261l2.729,-7.295l2.174,4.162l0.585,-5.749l3.506,6.645l2.109,5.542l-0.121,-9.428l1.516,3.013l3.748,-1.403l0.662,3.293l1.861,-7.667l2.156,9.387l3.123,3.15c0,0 2.324,4.667 1.251,6.127c-0.596,0.812 -2.061,2.593 -3.245,4.015l5.714,6.284l-1.379,-6.933l4.496,5.337l-0.888,-8.407l5.207,10.024c0,0 1.647,2.227 1.443,-0.449c-0.203,-2.677 -0.206,-8.553 -0.206,-8.553l1.984,-4.182l1.949,14.331l3.466,-1.794l-1.788,-14.415l5.301,17.711l0.819,-4.05l2.081,2.548l-2.795,-13.893l6.199,12.132l2.327,-4.248l1.267,9.007l1.403,-10.344l2.803,6.661l1.887,-7.899l0.955,4.742c0,0 2.178,3.291 2.988,2.074c3.356,-5.041 2.405,1.4 2.724,1.768c1.371,1.584 0.442,2.194 0.442,2.194l1.222,2.059c0,0 -2.139,-1.196 -0.572,1.175c1.568,2.371 4.088,4.647 2.653,4.641c-1.435,-0.007 -3.64,-1.889 -5.116,1.746c-0.224,0.55 -0.936,1.265 -0.936,1.265c0,0 -2.304,1.209 -3.503,1.359c-1.2,0.15 -0.607,1.114 -2.714,0.201c-2.108,-0.913 -3.42,-2.422 -3.575,-1.129c-0.156,1.294 -1.584,1.788 -1.584,1.788l-3.894,0.476l-0.832,-1.132c0,0 -2.896,-0.624 -5.21,0.631c-2.313,1.255 -3.331,3.627 -3.916,0.716c-0.586,-2.91 -0.965,-2.807 -0.965,-2.807c0,0 -0.471,-2.355 -1.973,-2.522c-1.502,-0.167 -4.569,-0.28 -4.569,-0.28l2.144,-2.043c0,0 -4.935,-2.845 -6.558,-3.255c-1.623,-0.41 -3.863,0.56 -3.863,0.56l2.641,2.323c0,0 -1.659,-1.332 -2.379,-1.019c-0.72,0.313 -3.86,-0.441 -3.86,-0.441l-1.545,-1.874c0,0 0.263,-0.498 1.13,-1.899c0.868,-1.401 1.406,-2.155 1.406,-2.155l-0.124,-1.186l-2.569,-4.617l-1.051,-0.183Zm0.683,-0.812c-0.415,0.495 -0.683,0.812 -0.683,0.812c0,0 0.521,-0.065 0.916,-0.075l-0.233,-0.737Z" style="fill:#0a0500;fill-opacity:0.3;"/><path d="M177.668,66.797l1.902,6.018l2.591,-5.431l3.497,3.131l2.452,-4.035l6.458,-1.164l-3.874,-3.002l-0.369,-12.05l-5.458,11.075l-3.51,-10.205l-2.502,6.091l-5.3,-4.746l-0.479,6.071l0.543,4.277l-6.313,-1.33l6.256,4.443l-6.335,5.841l7.235,-1.351l1.071,1.588l2.135,-5.221" style="fill:#33653a;"/><clipPath id="_clip3"><path d="M177.668,66.797l1.902,6.018l2.591,-5.431l3.497,3.131l2.452,-4.035l6.458,-1.164l-3.874,-3.002l-0.369,-12.05l-5.458,11.075l-3.51,-10.205l-2.502,6.091l-5.3,-4.746l-0.479,6.071l0.543,4.277l-6.313,-1.33l6.256,4.443l-6.335,5.841l7.235,-1.351l1.071,1.588l2.135,-5.221"/></clipPath><g clip-path="url(#_clip3)"><path d="M190.325,50.264l-2.485,11.412l1.244,2.034l-2.995,2.26l-1.399,-4.407l1.897,-6.533l-4.187,-4.743l-1.227,-0.477l1.017,14.409l-3.487,-7.144l-1.316,-5.005l-3.673,0l3.165,11.414l-5.102,-1.04l-3.729,-4.981l-3.116,1.558l2.511,2.825l-0.346,13.076l7.714,-2.35l2.746,3.23l2.572,-1.749l0.882,-2.053l7.785,-1.047l6.908,-5.792l-3.965,-11.734l-1.414,-3.163" style="fill:#96e54d;"/></g><path d="M26.474,53.751l2.206,1.33l-3.242,-12.514l5.194,8.751l2.699,-4.447l1.513,5.129l3.053,-3.564l2.064,-1.609l2.341,10.073l2.469,-1.236l-0.189,7.732l1.823,4.169c0,0 -2.268,0.933 -2.864,1.719c-0.597,0.787 1.059,3.003 -1.435,2.045c-2.493,-0.959 -3.44,-0.628 -4.659,-2.201c-1.219,-1.574 -2.361,-2.987 -2.361,-2.987l-3.486,0.313c0,0 -1.296,-3.363 -1.732,0.155c-0.436,3.519 -3.227,-3.053 -3.227,-3.053l-2.954,-6.155l2.787,-3.65Z" style="fill:#33653a;"/><clipPath id="_clip4"><path d="M26.474,53.751l2.206,1.33l-3.242,-12.514l5.194,8.751l2.699,-4.447l1.513,5.129l3.053,-3.564l2.064,-1.609l2.341,10.073l2.469,-1.236l-0.189,7.732l1.823,4.169c0,0 -2.268,0.933 -2.864,1.719c-0.597,0.787 1.059,3.003 -1.435,2.045c-2.493,-0.959 -3.44,-0.628 -4.659,-2.201c-1.219,-1.574 -2.361,-2.987 -2.361,-2.987l-3.486,0.313c0,0 -1.296,-3.363 -1.732,0.155c-0.436,3.519 -3.227,-3.053 -3.227,-3.053l-2.954,-6.155l2.787,-3.65Z"/></clipPath><g clip-path="url(#_clip4)"><path d="M45.538,53.568l-2.131,7.872l-4.226,-1.484l4.094,-6.185l-3.077,-7.716l-3.131,11.227l-2.931,0.12l0.706,-5.517l-1.843,-7.264l-0.755,12.24l-1.619,-6.004l-1.299,-3.371l-3.055,-5.617l3.598,14.818l-1.088,-0.191l-0.815,0.635l-3.29,1.521l-3.248,2.897c0,0 5.244,1.734 9.413,1.943c3.09,0.154 5.297,-1.27 5.87,-0.978c0.624,0.319 0.689,5.657 2.655,8.242c2.281,3 6.451,3.281 6.451,3.281l1.851,-9.025l-2.13,-11.444" style="fill:#96e54d;"/></g><path d="M82.669,24.163l-8.778,-8.058l13.717,1.682l-1.209,-7.935l11.088,5.727l4.94,-11.036l7.543,10.945l4.197,-7.78l1.337,4.438l1.741,-6.131l2.17,7.087l0.994,5.911l1.775,-10.055l0.91,3.213l4.03,-1.496l0,3.511l3.404,-8.177l0.266,10.013l2.49,3.359c0,0 1.385,4.977 0.018,6.535c-1.367,1.558 -6.178,6.462 -6.178,6.462c0,0 3.767,-0.488 -1.29,0.921c-5.058,1.409 -4.027,0.127 -8.589,0.645c-4.562,0.519 -1.589,2.177 -7.183,1.348c-5.594,-0.829 -3.755,-3.404 -6.207,-0.829c-2.453,2.575 -1.104,2.207 -3.311,4.292c-2.207,2.084 -3.011,-0.872 -4.939,-3.87c-1.928,-2.997 -5.188,-6.777 -6.256,-5.01c-1.067,1.768 3.717,1.645 -1.741,1.89c-5.457,0.246 -8.941,6.233 -6.464,-1.053c2.478,-7.285 1.525,-6.549 1.525,-6.549Z" style="fill:#33653a;"/><clipPath id="_clip5"><path d="M82.669,24.163l-8.778,-8.058l13.717,1.682l-1.209,-7.935l11.088,5.727l4.94,-11.036l7.543,10.945l4.197,-7.78l1.337,4.438l1.741,-6.131l2.17,7.087l0.994,5.911l1.775,-10.055l0.91,3.213l4.03,-1.496l0,3.511l3.404,-8.177l0.266,10.013l2.49,3.359c0,0 1.385,4.977 0.018,6.535c-1.367,1.558 -6.178,6.462 -6.178,6.462c0,0 3.767,-0.488 -1.29,0.921c-5.058,1.409 -4.027,0.127 -8.589,0.645c-4.562,0.519 -1.589,2.177 -7.183,1.348c-5.594,-0.829 -3.755,-3.404 -6.207,-0.829c-2.453,2.575 -1.104,2.207 -3.311,4.292c-2.207,2.084 -3.011,-0.872 -4.939,-3.87c-1.928,-2.997 -5.188,-6.777 -6.256,-5.01c-1.067,1.768 3.717,1.645 -1.741,1.89c-5.457,0.246 -8.941,6.233 -6.464,-1.053c2.478,-7.285 1.525,-6.549 1.525,-6.549Z"/></clipPath><g clip-path="url(#_clip5)"><path d="M132.063,6.777l-4.939,10.347l2.064,4.905l-2.064,2.036l-2.252,-14.69l-2.688,-2.598l0.951,15.294l1.32,5.599l-4.238,-2.119c0,0 0.633,-4.993 -1.329,-3.227c-1.962,1.765 1.766,-12.459 1.766,-12.459l-4.278,-5.123l-2.17,10.964l-1.9,12.601l0,-8.534l-3.233,0.206l1.613,-12.392l-8.259,-5.749l0,9.879l-1.943,0.971l0.898,3.446l1.045,7.759l-8.161,-14.714l0.942,8.807l-5.99,-7.934l-2.432,-1.216l3.948,15.744l-13.825,-10.804l8.136,10.313l-2.376,2.446c0,0 -8.317,3.832 -6.159,5.5c2.158,1.668 -1.004,5.737 -1.004,5.737c0,0 4.787,-1.001 7.163,-1.358c2.376,-0.357 1.658,2.648 7.069,-1.405c5.411,-4.053 0.998,-4.343 6.981,-5.62c5.983,-1.278 6.964,-0.002 6.964,-0.002c0,0 0.392,5.395 2.55,1.765c2.159,-3.629 -0.823,-8.065 -0.823,-8.065c0,0 2.785,1.885 4.453,3.749c1.668,1.864 -1.393,3.237 2.443,3.335c3.835,0.098 1.53,0.393 4.939,0.589c3.409,0.196 -0.495,-0.14 4.939,0.715c5.435,0.854 2.95,0.103 4.241,-2.121c1.292,-2.224 -0.18,-1.929 1.782,-2.812c1.962,-0.883 1.434,-0.21 3.856,-0.007c2.422,0.203 4.809,-0.728 4.94,-2.47c0.131,-1.741 0,-7.725 0,-7.725l-4.94,-9.563Z" style="fill:#96e54d;"/></g><g><path d="M110.792,84.86l3.321,10.133l0.745,5.726l-4.176,0.109l0.11,-15.968Z" style="fill:#96e54d;"/><path d="M107.658,96.51l3.024,3.318l0.057,-15.893l-3.081,12.575Z" style="fill:#33653a;"/></g><path d="M92.259,71.788l5.52,14.829l-3.576,2.589l-4.758,-0.208l-5.412,2.706l-3.617,-2.381l-2.607,-1.569l-3.918,-11.324l2.944,2.502l3.581,3.464l-0.695,-6.459l2.959,5.647l1.838,4.261l1,-8.705l-1.482,-3.842l4.584,7.907l0.662,4.438l1.495,-0.77l1.482,-13.085Z" style="fill:#33653a;"/><clipPath id="_clip6"><path d="M92.259,71.788l5.52,14.829l-3.576,2.589l-4.758,-0.208l-5.412,2.706l-3.617,-2.381l-2.607,-1.569l-3.918,-11.324l2.944,2.502l3.581,3.464l-0.695,-6.459l2.959,5.647l1.838,4.261l1,-8.705l-1.482,-3.842l4.584,7.907l0.662,4.438l1.495,-0.77l1.482,-13.085Z"/></clipPath><g clip-path="url(#_clip6)"><path d="M92.19,69.702l2.039,15.389l-4.036,-0.511l-1.573,-11.764l-4.996,0.276l3.115,9.195l0.379,4.005l-2.6,-0.447l-1.446,-7.481l-3.654,-2.275l3.148,7.779l-0.131,3.018l-1.325,-1.893c-0.235,-1.535 -0.866,-3.102 -1.891,-4.703l-6.096,-5.156l4.478,6.633l0.639,3.115l1.462,2.657l3.377,1.689l1.439,1.61c0,0 2.329,2.652 3.52,2.761c1.19,0.108 6.494,-0.055 7.739,-0.542c1.245,-0.487 6.085,-3.578 6.085,-3.578l-2.931,-10.841l-6.741,-8.936Z" style="fill:#96e54d;"/></g><path d="M153.948,24.328l3.759,12.939l3.181,-4.53l-0.545,9.607l3.484,-11.033l1.462,7.104l3.478,-8.424l0,5.058c0,0 1.516,3.51 2.571,2.212c4.37,-5.377 2.123,1.492 2.368,1.886c1.053,1.688 0,2.339 0,2.339l0.808,2.196c0,0 -1.898,-1.276 -0.808,1.253c1.09,2.529 3.153,4.957 1.719,4.95c-1.434,-0.007 -3.26,-2.014 -5.468,1.863c-0.334,0.586 -1.19,1.349 -1.19,1.349c0,0 -2.547,1.289 -3.777,1.449c-1.23,0.16 -0.831,1.189 -2.755,0.215c-1.923,-0.974 -2.932,-2.584 -3.347,-1.204c-0.416,1.379 -1.944,1.906 -1.944,1.906l-3.99,0.508l-0.603,-1.207c0,0 -2.771,-0.666 -5.337,0.673c-2.567,1.339 -4.061,3.868 -4.061,0.764c0,-3.104 -0.4,-2.994 -0.4,-2.994c0,0 0.003,-2.512 -1.465,-2.691c-1.469,-0.178 -4.513,-0.298 -4.513,-0.298l2.555,-2.179c0,0 -4.362,-3.035 -5.902,-3.472c-1.541,-0.437 -3.977,0.598 -3.977,0.598l2.174,2.478c0,0 -1.391,-1.421 -2.174,-1.087c-0.783,0.333 -3.772,-0.471 -3.772,-0.471l-1.167,-1.999c0,0 0.363,-0.53 1.512,-2.025c1.15,-1.494 1.84,-2.299 1.84,-2.299l0.115,-1.265l-1.72,-5.163l-0.505,-4.688l6.144,9.254l0.017,-7.394l3.421,5.692l0.805,-8.966l3.189,10.691c0,0 1.198,2.375 1.533,-0.479c0.336,-2.855 1.515,-9.122 1.515,-9.122l2.826,-4.461l-0.935,15.286l3.827,-1.914l1.113,-15.375l1.737,18.89l1.633,-4.32l1.569,2.719l0,-14.819Z" style="fill:#33653a;"/><clipPath id="_clip7"><path d="M153.948,24.328l3.759,12.939l3.181,-4.53l-0.545,9.607l3.484,-11.033l1.462,7.104l3.478,-8.424l0,5.058c0,0 1.516,3.51 2.571,2.212c4.37,-5.377 2.123,1.492 2.368,1.886c1.053,1.688 0,2.339 0,2.339l0.808,2.196c0,0 -1.898,-1.276 -0.808,1.253c1.09,2.529 3.153,4.957 1.719,4.95c-1.434,-0.007 -3.26,-2.014 -5.468,1.863c-0.334,0.586 -1.19,1.349 -1.19,1.349c0,0 -2.547,1.289 -3.777,1.449c-1.23,0.16 -0.831,1.189 -2.755,0.215c-1.923,-0.974 -2.932,-2.584 -3.347,-1.204c-0.416,1.379 -1.944,1.906 -1.944,1.906l-3.99,0.508l-0.603,-1.207c0,0 -2.771,-0.666 -5.337,0.673c-2.567,1.339 -4.061,3.868 -4.061,0.764c0,-3.104 -0.4,-2.994 -0.4,-2.994c0,0 0.003,-2.512 -1.465,-2.691c-1.469,-0.178 -4.513,-0.298 -4.513,-0.298l2.555,-2.179c0,0 -4.362,-3.035 -5.902,-3.472c-1.541,-0.437 -3.977,0.598 -3.977,0.598l2.174,2.478c0,0 -1.391,-1.421 -2.174,-1.087c-0.783,0.333 -3.772,-0.471 -3.772,-0.471l-1.167,-1.999c0,0 0.363,-0.53 1.512,-2.025c1.15,-1.494 1.84,-2.299 1.84,-2.299l0.115,-1.265l-1.72,-5.163l-0.505,-4.688l6.144,9.254l0.017,-7.394l3.421,5.692l0.805,-8.966l3.189,10.691c0,0 1.198,2.375 1.533,-0.479c0.336,-2.855 1.515,-9.122 1.515,-9.122l2.826,-4.461l-0.935,15.286l3.827,-1.914l1.113,-15.375l1.737,18.89l1.633,-4.32l1.569,2.719l0,-14.819Z"/></clipPath><g clip-path="url(#_clip7)"><path d="M175.955,33.083l-3.788,6.02l-3.4,0.118l1.634,-9.535l-1.634,-0.648l-3.267,14.212l-1.673,-3.558l2.219,-8.653l-3.295,-1.233l-0.943,16.066l-2.17,0.309l0.389,-13.874l-2.339,-2.621l-0.036,11.313l-7.557,-16.316l2.59,21.306l11.142,12.008l13.743,-7.04l-1.615,-17.874Z" style="fill:#96e54d;"/><path d="M145.778,27.794l-2.295,4.297l-1.299,7.998l-4.116,0.125l1.062,-2.826l1.233,-8.416l-3.061,-2.355l-1.514,13.328l-1.597,-2.145l0.465,-8.765l-1.624,0.812l-0.556,9.601l-1.883,-1.412l-0.835,-10.985l-2.579,2.509l1.53,8.711l-2.571,1.788l-7.837,5.961c0,0 10.181,5.065 11.56,5.78c1.379,0.715 8.148,6.836 8.148,6.836l12.124,2.176l3.815,-5.236l-7.932,-2.585l-1.18,-1.823l1.536,-1.405l4.157,-0.82l-3.162,-4.197l5.043,3.51l0.902,3.494l0.636,-4.179l-3.108,-3.061l-1.831,-3.414l1.537,-12.066l0.426,-8.153l-2.479,0.723l-1.151,10.971l0.437,6.995l-1.469,0.701l-0.532,-12.473Z" style="fill:#96e54d;"/></g><path d="M53.792,28.24l-0.716,-6.046l5.603,5.362l1.82,2.074l-1.09,-6.163l3.106,-1.553l3.441,2.996l-0.047,4.994l2.78,1.757l2.952,-4.808c0,0 0.065,-2.126 0.772,-0.277c0.708,1.849 1.54,7.212 1.54,7.212l0.082,2.609l2.969,-4.644c0,0 0.897,0.224 0.726,1.175c-0.172,0.952 -0.349,7.623 -0.349,7.623l1.657,1.188l1.978,0.719l3.992,3.15c0,0 -0.782,2.488 -2.451,2.499c-1.67,0.011 -6.42,1.49 -6.42,1.49c0,0 -1.658,1.219 -3.724,0.887c-2.066,-0.332 -6.134,-1.626 -6.134,-1.626c0,0 -2.496,-0.832 -3.976,-2.219c-1.479,-1.387 -0.659,-3.489 -2.733,-2.577c-2.074,0.913 -5.054,4.198 -5.054,4.198c0,0 -0.699,0.928 -2.881,-0.717c-2.183,-1.644 -2.923,-2.476 -2.923,-2.476l-0.541,-1.083c0,0 0.882,0.932 -0.629,0.314c-1.511,-0.618 -4.823,3.358 -4.923,1.601c-0.101,-1.757 2.88,-4.39 2.776,-5.2c-0.103,-0.809 2.211,-0.157 2.211,-0.157l-1.978,-3.451l-4.23,-4.618l4.945,1.252l1.044,-3.203l3.378,0.991l1.604,5.224l2.311,3.992l0.412,-5.462l-2.312,-3.236l1.012,-3.791Z" style="fill:#33653a;"/><clipPath id="_clip8"><path d="M53.792,28.24l-0.716,-6.046l5.603,5.362l1.82,2.074l-1.09,-6.163l3.106,-1.553l3.441,2.996l-0.047,4.994l2.78,1.757l2.952,-4.808c0,0 0.065,-2.126 0.772,-0.277c0.708,1.849 1.54,7.212 1.54,7.212l0.082,2.609l2.969,-4.644c0,0 0.897,0.224 0.726,1.175c-0.172,0.952 -0.349,7.623 -0.349,7.623l1.657,1.188l1.978,0.719l3.992,3.15c0,0 -0.782,2.488 -2.451,2.499c-1.67,0.011 -6.42,1.49 -6.42,1.49c0,0 -1.658,1.219 -3.724,0.887c-2.066,-0.332 -6.134,-1.626 -6.134,-1.626c0,0 -2.496,-0.832 -3.976,-2.219c-1.479,-1.387 -0.659,-3.489 -2.733,-2.577c-2.074,0.913 -5.054,4.198 -5.054,4.198c0,0 -0.699,0.928 -2.881,-0.717c-2.183,-1.644 -2.923,-2.476 -2.923,-2.476l-0.541,-1.083c0,0 0.882,0.932 -0.629,0.314c-1.511,-0.618 -4.823,3.358 -4.923,1.601c-0.101,-1.757 2.88,-4.39 2.776,-5.2c-0.103,-0.809 2.211,-0.157 2.211,-0.157l-1.978,-3.451l-4.23,-4.618l4.945,1.252l1.044,-3.203l3.378,0.991l1.604,5.224l2.311,3.992l0.412,-5.462l-2.312,-3.236l1.012,-3.791Z"/></clipPath><g clip-path="url(#_clip8)"><path d="M77.591,30.727l-3.982,13.824c2.798,-0.191 4.885,0.453 6.253,1.943l5.331,-0.793l-1.607,4.913l-7.449,-0.369c0,0 -2.352,-5.883 -2.222,-4.236c0.13,1.647 0.564,4.975 -1.502,6.732c-2.066,1.756 -4.18,0.69 -3.724,-0.395c0.456,-1.084 0,-3.724 0,-3.724l0,-1.798l-1.712,-2.783l-2.012,4.17l0,2.273l-1.66,-4.554l0.345,-2.237l0.101,-3.775c0,0 1.759,-5.265 0.618,-4.033c-1.141,1.231 -7.462,6.846 -7.462,6.846l-0.394,4.53l-2.721,4.278l0,-7.304l-2.306,-2.866l-5.143,1.756l-4.565,6.103l-0.93,-1.583l1.771,-5.629l3.28,-9.53l4.561,8.193l1.455,-0.444l1.877,0.938l1.627,-0.814l3.812,-7.639l0.212,3.83l1.797,-2.825l1.972,-0.986l-1.972,4.254l5.622,-4.182l0.096,1.779l0.8,4.375l0.931,2.208l1.774,0.887l0.742,1.579l-0.086,2.473l1.294,-4.836l1.582,-6.48l1.16,-3.043l-2.742,-7.339l-2.087,13.853l-1.637,-9.565l-0.931,-4.068l-3.492,-4.294l-1.786,2.832l2.485,8.69l-6.785,-7.116l-1.886,-2.053l-2.502,-1.664l2.864,11.263l-0.508,3.978l-2.356,1.179l0,-2.219l-3.725,-6.255l-2.541,1.617l3.465,9.925l-0.531,0.162l-18.281,-7.321l16.492,27.601l41.076,-1.808l1.288,-11.495l-13.444,-16.929Z" style="fill:#96e54d;"/></g><path d="M74.606,61.462l-2.082,-14.683l9.879,11.633l6.102,-8.211l-1.163,10.264l4.939,-12.089l1.938,8.074l5.396,-9.575l2.545,13.546l2.761,-11.26l2.179,8.79l8.328,-5.715l-5.061,12.288l-3.267,8.245c0,0 -5.673,-2.224 -7.116,-3.558c-1.443,-1.334 -2.032,-1.257 -3.962,-0.782c-1.929,0.475 -5.395,1.615 -8.68,2.186c-3.285,0.57 -8.613,2.787 -8.613,2.787l-5.05,-0.507c0,0 2.395,2.281 0,0c-2.395,-2.28 -4.074,-4.055 -4.074,-4.055l-5.474,-2.737l5.784,-0.506l4.691,-4.135Z" style="fill:#33653a;"/><clipPath id="_clip9"><path d="M74.606,61.462l-2.082,-14.683l9.879,11.633l6.102,-8.211l-1.163,10.264l4.939,-12.089l1.938,8.074l5.396,-9.575l2.545,13.546l2.761,-11.26l2.179,8.79l8.328,-5.715l-5.061,12.288l-3.267,8.245c0,0 -5.673,-2.224 -7.116,-3.558c-1.443,-1.334 -2.032,-1.257 -3.962,-0.782c-1.929,0.475 -5.395,1.615 -8.68,2.186c-3.285,0.57 -8.613,2.787 -8.613,2.787l-5.05,-0.507c0,0 2.395,2.281 0,0c-2.395,-2.28 -4.074,-4.055 -4.074,-4.055l-5.474,-2.737l5.784,-0.506l4.691,-4.135Z"/></clipPath><g clip-path="url(#_clip9)"><path d="M116.979,51.455l-6.917,7.977l-2.962,3.458c0,0 -0.108,-8.128 0,-8.128c0.108,0 -2.119,-7.749 -2.119,-7.749l-0.453,14.591l-2.368,1.255l0,-8.781l-2.653,-9.802l-2.286,16.075l-3.641,-4.221l2.264,-8.747l-3.563,-0.262l-2.273,12.163l-2.666,3.606l2.876,-11.316l-1.414,-2.771l-3.681,10.258l-2.72,3.342l3.057,-10.333l-12.936,-6.468l5.868,17.753l-7.653,-2.042l-14.509,4.626l8.329,10.257l10.278,0.2l6.422,-10.464c0,0 -0.594,0.176 3.155,0.434c3.749,0.257 10.324,0.222 10.324,0.222l0.874,2.046l7.464,6.147l12.012,-1.066l1.891,-22.26Z" style="fill:#96e54d;"/></g><path d="M114.858,65.525l7.128,2.443l1.063,7.25l3.45,-5.635l-0.867,-4.506l4.647,2.616l-1.185,5.532l3.173,2.692l2.171,-5.364l-1.51,-0.385l4.939,-2.77l1.284,2.082l-0.384,7.449l4.04,-7.087l0,-1.629l3.617,2.525l-0.247,3.824l0.252,3.497l4.831,-7.463l-0.859,6.794l3.902,-0.334l1.031,-4.424l-2.648,-2.627l3.92,1.14l1.019,5.865l4.939,4.177c0,0 0.419,-1.118 -1.629,0.815c-2.048,1.932 -4.899,3.399 -6.446,4.213c-1.548,0.815 -0.972,0.99 -4.111,1.065c-3.139,0.076 -2.325,0.157 -6.642,0.076c-4.318,-0.082 -2.607,3.258 -6.762,-0.245c-4.154,-3.502 0.46,-7.005 -4.046,-3.502c-4.507,3.502 -5.484,4.154 -6.788,5.132c-1.303,0.977 -2.199,0.244 -2.199,0.244c0,0 -0.815,-0.57 -1.792,-1.303c-0.978,-0.734 -1.304,-0.326 -1.874,-1.222c-0.57,-0.896 -0.452,-1.947 -0.452,-1.947c0,0 -1.321,-0.784 1.928,-2.677c3.249,-1.893 2.923,-1.567 -0.173,-2.219c-3.095,-0.652 -4.178,-1.255 -4.178,-1.255l2.957,-1.515l-0.489,-5.865l-5.01,-5.457Z" style="fill:#33653a;"/><clipPath id="_clip10"><path d="M114.858,65.525l7.128,2.443l1.063,7.25l3.45,-5.635l-0.867,-4.506l4.647,2.616l-1.185,5.532l3.173,2.692l2.171,-5.364l-1.51,-0.385l4.939,-2.77l1.284,2.082l-0.384,7.449l4.04,-7.087l0,-1.629l3.617,2.525l-0.247,3.824l0.252,3.497l4.831,-7.463l-0.859,6.794l3.902,-0.334l1.031,-4.424l-2.648,-2.627l3.92,1.14l1.019,5.865l4.939,4.177c0,0 0.419,-1.118 -1.629,0.815c-2.048,1.932 -4.899,3.399 -6.446,4.213c-1.548,0.815 -0.972,0.99 -4.111,1.065c-3.139,0.076 -2.325,0.157 -6.642,0.076c-4.318,-0.082 -2.607,3.258 -6.762,-0.245c-4.154,-3.502 0.46,-7.005 -4.046,-3.502c-4.507,3.502 -5.484,4.154 -6.788,5.132c-1.303,0.977 -2.199,0.244 -2.199,0.244c0,0 -0.815,-0.57 -1.792,-1.303c-0.978,-0.734 -1.304,-0.326 -1.874,-1.222c-0.57,-0.896 -0.452,-1.947 -0.452,-1.947c0,0 -1.321,-0.784 1.928,-2.677c3.249,-1.893 2.923,-1.567 -0.173,-2.219c-3.095,-0.652 -4.178,-1.255 -4.178,-1.255l2.957,-1.515l-0.489,-5.865l-5.01,-5.457Z"/></clipPath><g clip-path="url(#_clip10)"><path d="M157.625,68.838l-2.291,3.794l0.597,5.238l-0.543,3.953l-2.702,-5.575l-1.745,-5.812l-2.265,7.816l0.404,2.268l-3.129,1.616l0.887,-4.484l0.908,-7.142l-4.939,-0.313l0.367,1.716l-3.112,7.069l1.614,2.111l-1.303,0.521l-2.506,-0.729l0.734,-3.698l1.407,-5.478l-0.948,-2.274l-5.091,1.352l-1.676,5.143l1.824,3.443l-4.363,0.227l-0.581,-6.414l2.82,-6.35l-5.659,2.829l0.487,7.942l-3.772,-2.168l0,-6.858l-1.027,-0.678l-2.086,3.389l2.678,7l-1.374,1.289c0,0 -4.972,7.805 -4.65,8.256c0.322,0.451 -0.099,4.3 3.891,4.513c3.991,0.213 9.457,-1.335 10.66,-2.177c1.203,-0.843 2.09,-7.047 4.592,-6.525c2.502,0.521 5.232,0.365 7.074,0.417c1.841,0.052 4.939,0.104 4.939,0.104c0,0 -5.183,2.503 -0.439,1.46c4.744,-1.043 5.379,-1.616 5.379,-1.616l0,-0.939l4.939,0.583l7.616,-0.061l-0.057,-6.038l-7.559,-8.72" style="fill:#96e54d;"/></g></g></g></svg>