<?xml version="1.0" encoding="UTF-8" standalone="no"?><!DOCTYPE svg PUBLIC "-//W3C//DTD SVG 1.1//EN" "http://www.w3.org/Graphics/SVG/1.1/DTD/svg11.dtd"><svg width="100%" height="100%" viewBox="0 0 216 205" version="1.1" xmlns="http://www.w3.org/2000/svg" xmlns:xlink="http://www.w3.org/1999/xlink" xml:space="preserve" xmlns:serif="http://www.serif.com/" style="fill-rule:evenodd;clip-rule:evenodd;stroke-linejoin:round;stroke-miterlimit:1.41421;"><g id="Dirt_Ramp_LeftUp_high-angle1"><path d="M0.424,54.621l0,96.598l107.331,53.666l0,-96.598l-107.331,-53.666Z" style="fill:#625443;"/><clipPath id="_clip1"><path d="M0.424,54.621l0,96.598l107.331,53.666l0,-96.598l-107.331,-53.666Z"/></clipPath><g clip-path="url(#_clip1)"><path d="M102.227,235.776l7.471,-8.393l-0.629,-15.381l-4.861,-8.365l-7.639,3.249l-3.734,6.804l-0.66,10.713l10.052,11.373" style="fill:#e1c080;"/><path d="M78.687,205.491l-6.48,-6.062l3.056,-12.565l8.623,-2.463l7.623,-1.443l2.976,3.95l3.5,-1.488l5.379,1.085l1.634,4.32l-5.651,4.448l-4.24,3.09l-7.817,4.704l-8.603,2.424Z" style="fill:#bfac80;"/><path d="M41.7,211.796l-7.62,-4.416l-4.724,-10.592l3.045,-9.558l19.233,-2.963l6.432,7.697l1.006,7.708l-6.329,7.428l-11.043,4.696Z" style="fill:#e1c080;"/><path d="M19.924,175.336l-8.069,-10.664l1.707,-5.942l8.575,-19.295c0,0 7.897,5.94 10.382,6.017c2.486,0.076 7.683,4.452 7.683,4.452l-3.151,9.269l-8.6,6.112l-8.527,10.051Z" style="fill:#bfac80;"/><path d="M68.027,180.008l-10.639,-1.857l-10.285,-7.605l2.017,-7.626l4.768,-5.692l7.679,1.951l4.985,5.388l3.648,6.589l-2.173,8.852" style="fill:#bfac80;"/><path d="M9.215,207.523l9.119,-6.382l10.414,5.505l4.461,14.856l-14.945,3.036l-6.387,-5.869l-2.662,-11.146" style="fill:#e1c080;"/><path d="M96.861,149.711l7.47,-8.393l-0.628,-15.381l-4.862,-8.365l-7.638,3.249l-3.735,6.804l-0.66,10.713l10.053,11.373" style="fill:#e1c080;"/><path d="M84.442,168.243l9.713,-5.467l-1.145,-6.212l-5.192,-3.008l-4.056,1.725l-4.47,4.429l0.084,5.597l5.066,2.936Z" style="fill:#68583f;"/><path d="M54.159,144.648l5.042,5.43l10.806,-0.849l2.237,-4.698l1.606,-8.155l-10.344,-11.542l-3.071,5.211l-5.435,0.956l-2.991,10.126l2.15,3.521" style="fill:#68583f;"/><path d="M68.339,121.627l-6.479,-6.062l3.056,-12.564l8.623,-2.464l7.622,-1.443l2.977,3.95l3.5,-1.488l5.378,1.085l1.634,4.32l-5.651,4.448l-4.24,3.09l-7.816,4.704l-8.604,2.424Z" style="fill:#e1c080;"/><path d="M39.601,133.242l-7.62,-4.416l-4.724,-10.592l3.045,-9.558l19.233,-2.963l6.432,7.697l1.006,7.708l-6.329,7.428l-11.043,4.696Z" style="fill:#bfac80;"/><path d="M11.917,99.099l-8.069,-10.665l1.707,-5.942l8.574,-19.294c0,0 7.897,5.94 10.383,6.016c2.486,0.077 7.683,4.453 7.683,4.453l-3.152,9.268l-8.6,6.112l-8.526,10.052Z" style="fill:#e1c080;"/><path d="M58.914,103.19l-10.639,-1.857l-10.285,-7.606l2.017,-7.625l4.768,-5.692l7.679,1.95l4.985,5.388l3.648,6.589l-2.173,8.853" style="fill:#68583f;"/><path d="M3.848,121.458l9.119,-6.382l10.415,5.505l4.461,14.855l-14.945,3.037l-6.388,-5.869l-2.662,-11.146" style="fill:#68583f;"/><path d="M86.385,173.097l9.713,-5.466l-1.146,-6.212l-5.191,-3.008l-4.056,1.725l-4.471,4.429l0.085,5.597l5.066,2.935Zm-30.284,-23.595l5.042,5.431l10.806,-0.849l2.238,-4.698l1.605,-8.155l-10.343,-11.542l-3.071,5.211l-5.436,0.955l-2.99,10.126l2.149,3.521Zm-50.31,-23.19l2.662,11.147l6.387,5.869l14.945,-3.037l-4.461,-14.856l-10.414,-5.504l-9.119,6.381Zm55.065,-18.268l-10.639,-1.857l-10.284,-7.605l2.016,-7.626l4.769,-5.691l7.679,1.95l4.985,5.388l3.647,6.589l-2.173,8.852Z" style="fill:#0a0500;fill-opacity:0.3;"/><path d="M81.629,210.197l-6.48,-6.062l3.057,-12.565l8.623,-2.463l7.622,-1.443l2.977,3.95l3.5,-1.488l5.378,1.085l1.634,4.32l-5.651,4.448l-4.24,3.09l-7.816,4.704l-8.604,2.424Zm-10.659,-25.483l-10.639,-1.857l-10.285,-7.605l2.016,-7.626l4.769,-5.692l7.679,1.951l4.985,5.388l3.648,6.589l-2.173,8.852Zm-48.103,-4.672l-8.069,-10.664l1.707,-5.942l8.574,-19.295c0,0 7.897,5.94 10.383,6.017c2.486,0.076 7.683,4.452 7.683,4.452l-3.152,9.269l-8.6,6.112l-8.526,10.051Zm76.936,-25.625l7.471,-8.393l-0.629,-15.381l-4.861,-8.365l-7.639,3.249l-3.734,6.804l-0.66,10.713l10.052,11.373Zm-57.259,-16.469l-7.621,-4.416l-4.724,-10.592l3.046,-9.558l19.233,-2.963l6.432,7.697l1.006,7.708l-6.329,7.428l-11.043,4.696Zm28.738,-11.615l-6.48,-6.062l3.057,-12.564l8.623,-2.464l7.622,-1.443l2.977,3.95l3.5,-1.488l5.378,1.085l1.634,4.32l-5.651,4.448l-4.24,3.09l-7.816,4.704l-8.604,2.424Z" style="fill:#0a0500;fill-opacity:0.3;"/></g><path d="M0.424,54.621l107.331,-53.665l107.332,150.263l-107.332,53.666l-107.331,-150.264Z" style="fill:#84775b;"/><path d="M96.48,185.052l-10.639,-1.857l-10.285,-7.606l2.016,-7.625l4.769,-5.692l7.679,1.95l4.985,5.389l3.648,6.588l-2.173,8.853" style="fill:#bfac80;"/><path d="M96.854,190.001l-10.639,-1.857l-10.285,-7.605l2.017,-7.626l4.768,-5.692l7.679,1.951l4.985,5.388l3.648,6.588l-2.173,8.853" style="fill:#0a0500;fill-opacity:0.3;"/><path d="M54.159,144.648l5.042,5.43l10.806,-0.849l2.237,-4.698l1.606,-8.155l-10.344,-11.542l-3.071,5.211l-5.435,0.956l-2.991,10.126l2.15,3.521" style="fill:#68583f;"/><path d="M56.239,149.185l5.042,5.43l10.806,-0.849l2.238,-4.698l1.605,-8.155l-10.344,-11.542l-3.07,5.211l-5.436,0.956l-2.99,10.126l2.149,3.521" style="fill:#0a0500;fill-opacity:0.3;"/><path d="M11.918,99.071l-8.068,-10.665l1.706,-5.942l8.575,-19.294c0,0 7.897,5.94 10.383,6.016c2.486,0.077 7.683,4.453 7.683,4.453l-3.152,9.268l-8.6,6.112l-8.527,10.052Z" style="fill:#bfac80;"/><path d="M13.859,104.272l-8.068,-10.665l1.706,-5.942l8.575,-19.294c0,0 7.897,5.94 10.383,6.016c2.485,0.077 7.683,4.452 7.683,4.452l-3.152,9.269l-8.6,6.112l-8.527,10.052Z" style="fill:#0a0500;fill-opacity:0.3;"/><path d="M27.62,103.169l9.119,-6.382l10.415,5.505l4.461,14.856l-14.945,3.037l-6.388,-5.87l-2.662,-11.146" style="fill:#68583f;"/><path d="M28.258,108.291l9.12,-6.382l10.414,5.505l4.461,14.856l-14.945,3.037l-6.387,-5.87l-2.663,-11.146" style="fill:#0a0500;fill-opacity:0.3;"/><g id="GrassBlank04"><path d="M131.122,126.487l-11.993,7.972l1.318,4.388l3.685,2.977l2.635,5.69l3.977,0.522l2.789,0.491l8.934,-6.284l-3.535,0.017l-4.523,0.35l3.939,-4.6l-5.211,2.47l-3.635,2.125l3.853,-7.478l3.147,-2.031l-7.627,3.168l-2.846,3.039l-0.716,-1.59l5.809,-11.226Zm-54.793,-42.949c0.118,0.255 0.263,0.763 0.434,1.714c0.516,2.865 1.883,5.895 2.615,7.554c0.731,1.66 0.206,1.416 2.525,3.547c2.319,2.131 1.663,1.657 4.95,4.442c3.288,2.785 0.235,4.272 5.21,4.27c4.975,-0.002 3.361,-5.79 4.894,-0.073c1.533,5.718 1.922,6.873 2.385,8.499c0.462,1.625 1.523,1.643 1.523,1.643c0,0 0.914,0.09 2.036,0.161c1.122,0.071 1.152,0.605 2.054,0.28c0.903,-0.326 1.37,-1.226 1.37,-1.226c0,0 1.407,0.257 -0.033,-3.37c-1.439,-3.626 -1.367,-3.156 1.304,-1.624c2.67,1.532 3.803,1.775 3.803,1.775l-1.42,-3.138l3.47,-4.271l6.651,-0.969l-6.648,-2.789l-4.634,4.976l0.389,-6.69l3.035,-2.957l-4.876,-1.018l-2.036,5.115l-3.808,0.015l1.206,-5.634l1.339,0.695l-2.246,-5.429l-2.066,0.784l-3.652,6.087l0.714,-8.216l0.862,-1.276l-4.054,-0.41l-1.838,3.158l-2.039,2.573l0.318,-9.034l-2.949,5.889l-2.754,-2.836l1.565,-4.145l3.38,-0.311l-3.549,-1.694l-3.868,3.922l-5.562,0.011Zm0,0c-0.236,-0.514 -0.359,0.001 -0.359,0.001l0.359,-0.001Zm103.253,48.915c0.001,0.102 0.175,0.246 0.74,0.444c1.462,0.513 1.847,5.813 2.852,4.503c1.005,-1.309 0.158,-5.339 0.664,-5.905c0.507,-0.566 -1.577,-1.582 -1.577,-1.582l3.312,-1.397l5.621,-0.827l-4.378,-2.282l0.91,-3.197l-3.063,-1.453l-3.968,3.033l-3.848,1.602l2.58,-4.55l3.448,-1.01l1.246,-3.636l3.736,-4.263l-7.047,0.502l-2.464,0.423l4.079,-4.106l-1.512,-3.267l-4.171,0.075l-2.606,3.944l-3.018,-0.459l0.325,-5.714c0,0 1.076,-1.708 -0.433,-0.726c-1.51,0.981 -4.972,4.632 -4.972,4.632l-1.442,1.99l0.225,-5.596c0,0 -0.792,-0.418 -1.167,0.441c-0.374,0.858 -3.77,6.201 -3.77,6.201l-1.873,-0.164l-1.867,-0.741l-4.666,-0.168c0,0 -0.729,2.465 0.52,3.575c1.249,1.11 4.035,5.403 4.035,5.403c0,0 0.208,0.712 0.734,1.523l-10.634,2.03l-0.241,-10.458l-4.556,8.806l2.684,-12.728l-5.727,5.046l1.011,-11.06l-9.079,8.929l3.882,-10.64l-6.287,5.446l-3.234,-9.971l-2.698,12.964l-1.907,8.614c0,0 5.439,2.001 7.229,1.909c1.79,-0.093 2.192,0.356 3.39,2.001c1.199,1.645 3.2,4.826 5.366,7.44c2.167,2.614 4.997,7.867 4.997,7.867l4.063,2.936c3.006,-0.206 5.206,-0.488 5.206,-0.488l5.561,1.468l-4.078,-4.214l-1.337,-6.333l7.58,-8.225c0.127,0.102 0.262,0.199 0.404,0.29c1.728,1.104 5.469,2.774 5.469,2.774c0,0 2.316,0.996 4.161,0.886c1.845,-0.11 2.341,-2.298 3.417,-0.214c1.076,2.083 1.577,6.623 1.577,6.623c0,0 0.034,1.187 2.544,1.339c2.509,0.153 3.505,-0.011 3.505,-0.011l0.547,-0.274c-0.002,-0.161 0.434,-0.217 0.434,-0.217l-0.434,0.217Zm-110.438,-69.122l-4.613,3.459l0.927,-5.964l-4.284,0.145l0.292,-4.778l-4.237,-5.174l4.5,0.205l6.651,-9.194l-1.757,12.276l8.035,-5.677l-1.342,6.422l6.493,-0.22l-2.851,5.071l-2.671,2.991l5.447,3.125l-7.051,-0.648l1.67,8.755l-4.722,-5.833l-1.644,0.538l1.157,-5.499Zm121.478,91.656l-2.361,-0.414l9.056,-7.662l-8.533,3.426l0.325,-5.263l-3.851,3.018l-0.408,-4.806l-0.699,-2.622l-7.088,6.344l-1.201,-2.597l-3.949,6.181l-3.575,2.062c0,0 1.211,2.228 1.243,3.237c0.032,1.01 -2.384,1.653 -0.004,2.548c2.381,0.894 2.917,1.779 4.665,1.351c1.749,-0.428 3.354,-0.782 3.354,-0.782l2.454,2.545c0,0 2.753,-1.779 1.219,1.265c-1.534,3.044 4.04,-0.262 4.04,-0.262l5.476,-2.872l-0.163,-4.697Zm-64.319,-83.157c0,0 -2.572,-2.869 0.482,1.572c3.055,4.441 2.959,2.757 6.112,6.173c3.153,3.417 0.043,2.754 4.685,5.796c4.641,3.042 4.622,-0.189 5.102,3.447c0.481,3.635 -0.338,2.457 0.217,5.546c0.556,3.089 2.724,1.304 5.758,0.228c3.034,-1.075 7.484,-1.885 7.351,0.204c-0.133,2.089 -3.663,-1.164 0.308,2.629c3.971,3.794 3.422,10.782 5.414,3.441c1.992,-7.341 2.319,-6.136 2.319,-6.136l10.858,-0.519l-11.196,-7.734l5.107,-5.417l-11.362,-2.831l2.127,-11.903l-11.458,3.595l0.963,-8.864l-3.352,2.594l1.935,-5.951l-5.38,4.119l-3.873,3.974l3.984,-9.048l-2.383,1.917l-2.236,-3.832l-1.858,2.751l1.769,-8.65l-5.497,7.666l-3.648,0.988c0,0 -3.674,2.984 -3.471,5.106c0.113,1.18 0.478,3.871 0.78,6.029l-6.889,2.313l3.9,-5.803l-5.582,2.202l4.139,-7.554l-8.053,6.269c0,0 -2.157,1.069 -0.898,-1.388c1.258,-2.457 3.687,-8.143 3.687,-8.143l0.237,-5.359l-7.384,12.589l-1.863,-4.024l7.297,-12.776l-11.298,13.648l1.058,-4.461l-2.617,1.094l7.839,-11.607l-9.669,7.655l0.007,-5.647l-4.673,7.883l3.218,-10.94l-4.857,4.599l1.845,-8.893l-2.676,3.962c0,0 -2.996,1.748 -3.102,0.035c-0.439,-7.094 -2.385,-0.232 -2.777,-0.085c-1.685,0.628 -1.238,1.832 -1.238,1.832l-1.769,1.187c0,0 2.101,0.253 -0.056,1.515c-2.157,1.261 -4.99,1.801 -3.91,2.742c1.081,0.941 3.515,0.574 3.123,5.067c-0.059,0.68 0.181,1.843 0.181,1.843c0,0 1.232,2.69 2.071,3.627c0.839,0.937 -0.005,1.479 1.956,1.986c1.961,0.507 3.57,-0.089 3.152,1.266c-0.417,1.355 0.452,2.775 0.452,2.775l2.729,3.031l1.093,-0.547c0,0 2.434,1.307 3.654,4.049c1.219,2.742 1.004,5.709 2.646,3.278c1.642,-2.431 1.885,-2.081 1.885,-2.081c0,0 1.326,-1.97 2.524,-1.141c1.198,0.83 3.548,2.744 3.548,2.744l-0.766,-3.392c0,0 4.882,0.502 6.271,1.176c1.389,0.674 2.672,3.092 2.672,3.092l-2.945,0.506c0,0 1.797,-0.195 2.209,0.583c0.412,0.778 3.083,2.12 3.083,2.12l1.935,-0.795c0,0 0.008,-0.655 -0.065,-2.584c-0.074,-1.929 -0.166,-3.014 -0.166,-3.014l0.582,-1.067l3.837,-2.774l0.866,0.517Zm-0.178,-1.237c0.108,0.753 0.178,1.237 0.178,1.237c0,0 -0.365,-0.407 -0.657,-0.677l0.479,-0.56Z" style="fill:#0a0500;fill-opacity:0.3;"/><path d="M77.189,63.404l-3.914,4.572l0.296,-6.968l-3.92,0.724l-0.177,-5.524l-4.371,-5.39l4.151,-0.35l5.254,-11.422l-0.473,14.324l6.852,-7.564l-0.636,7.548l5.943,-1.098l-2.147,6.194l-2.175,3.782l5.293,2.879l-6.536,0.174l2.348,9.835l-4.879,-6.082l-1.46,0.83l0.551,-6.464" style="fill:#33653a;"/><clipPath id="_clip2"><path d="M77.189,63.404l-3.914,4.572l0.296,-6.968l-3.92,0.724l-0.177,-5.524l-4.371,-5.39l4.151,-0.35l5.254,-11.422l-0.473,14.324l6.852,-7.564l-0.636,7.548l5.943,-1.098l-2.147,6.194l-2.175,3.782l5.293,2.879l-6.536,0.174l2.348,9.835l-4.879,-6.082l-1.46,0.83l0.551,-6.464"/></clipPath><g clip-path="url(#_clip2)"><path d="M74.508,39.046l-2.847,12.688l-1.774,1.149l1.317,4.165l2.872,-3.344l1.273,-7.577l5.104,-1.829l1.119,0.348l-6.715,13.279l5.571,-4.616l3.055,-3.977l2.76,2.424l-7.092,8.962l4.263,2.359l4.859,-2.361l1.698,3.565l-3.053,1.078l-5.142,12.888l-4.825,-7.365l-3.397,1.315l-1.21,-3.391l0.184,-2.57l-5.416,-6.151l-2.799,-10.166l7.826,-8.744l2.369,-2.129" style="fill:#96e54d;"/></g><path d="M197.27,152.833l-2.207,-0.168l7.605,-9.977l-7.518,5.045l-0.191,-6.086l-3.255,3.967l-0.822,-5.465l-0.886,-2.92l-5.919,8.207l-1.345,-2.826l-3.052,7.612l-3.091,2.833c0,0 1.319,2.399 1.442,3.554c0.123,1.156 -2.036,2.209 0.233,2.926c2.27,0.718 2.844,1.663 4.41,0.944c1.566,-0.719 3.007,-1.334 3.007,-1.334l2.49,2.603c0,0 2.363,-2.401 1.238,1.294c-1.126,3.695 3.685,-0.827 3.685,-0.827l4.762,-4.01l-0.586,-5.372Z" style="fill:#33653a;"/><clipPath id="_clip3"><path d="M197.27,152.833l-2.207,-0.168l7.605,-9.977l-7.518,5.045l-0.191,-6.086l-3.255,3.967l-0.822,-5.465l-0.886,-2.92l-5.919,8.207l-1.345,-2.826l-3.052,7.612l-3.091,2.833c0,0 1.319,2.399 1.442,3.554c0.123,1.156 -2.036,2.209 0.233,2.926c2.27,0.718 2.844,1.663 4.41,0.944c1.566,-0.719 3.007,-1.334 3.007,-1.334l2.49,2.603c0,0 2.363,-2.401 1.238,1.294c-1.126,3.695 3.685,-0.827 3.685,-0.827l4.762,-4.01l-0.586,-5.372Z"/></clipPath><g clip-path="url(#_clip3)"><path d="M183.022,140.076l-1.65,9.027l3.788,1.352l-0.522,-8.69l5.499,-5.44l-2.285,12.936l2.153,2.05l1.748,-5.807l4.385,-5.817l-4.488,12.35l3.697,-4.745l2.368,-2.406l4.616,-3.423l-8.825,11.972l0.897,0.532l0.35,1.154l1.843,3.643l1.244,4.949c0,0 -4.656,-1.782 -7.874,-4.331c-2.386,-1.891 -3.456,-4.726 -4.008,-4.82c-0.6,-0.103 -2.853,5.022 -5.398,6.228c-2.953,1.399 -6.203,-1.082 -6.203,-1.082l2.337,-9.958l6.328,-9.674" style="fill:#96e54d;"/></g><path d="M167.268,87.104l9.923,-2.009l-11.001,-7.423l4.186,-6.885l-10.697,-1.771l0.847,-13.944l-10.188,5.618l0.06,-10.302l-2.838,3.415l1.224,-7.085l-4.557,5.429l-3.188,5.067l2.818,-10.906l-2.01,2.511l-2.41,-4.109l-1.451,3.4l0.82,-10.162l-4.335,9.517l-3.258,1.609c0,0 -3.097,3.905 -2.713,6.316c0.384,2.41 1.972,10.333 1.972,10.333c0,0 -2.629,-2.959 0.589,1.743c3.219,4.701 2.974,2.78 6.187,6.292c3.214,3.512 0.296,3.156 4.841,6.045c4.546,2.889 4.227,-0.818 5.006,3.293c0.779,4.112 -0.082,2.866 0.715,6.34c0.798,3.475 2.623,1.143 5.309,-0.487c2.687,-1.63 6.698,-3.138 6.77,-0.722c0.072,2.415 -3.472,-0.86 0.527,2.978c4,3.839 4.145,11.935 5.292,3.246c1.147,-8.688 1.56,-7.347 1.56,-7.347Z" style="fill:#33653a;"/><clipPath id="_clip4"><path d="M167.268,87.104l9.923,-2.009l-11.001,-7.423l4.186,-6.885l-10.697,-1.771l0.847,-13.944l-10.188,5.618l0.06,-10.302l-2.838,3.415l1.224,-7.085l-4.557,5.429l-3.188,5.067l2.818,-10.906l-2.01,2.511l-2.41,-4.109l-1.451,3.4l0.82,-10.162l-4.335,9.517l-3.258,1.609c0,0 -3.097,3.905 -2.713,6.316c0.384,2.41 1.972,10.333 1.972,10.333c0,0 -2.629,-2.959 0.589,1.743c3.219,4.701 2.974,2.78 6.187,6.292c3.214,3.512 0.296,3.156 4.841,6.045c4.546,2.889 4.227,-0.818 5.006,3.293c0.779,4.112 -0.082,2.866 0.715,6.34c0.798,3.475 2.623,1.143 5.309,-0.487c2.687,-1.63 6.698,-3.138 6.77,-0.722c0.072,2.415 -3.472,-0.86 0.527,2.978c4,3.839 4.145,11.935 5.292,3.246c1.147,-8.688 1.56,-7.347 1.56,-7.347Z"/></clipPath><g clip-path="url(#_clip4)"><path d="M137.335,37.678l-0.562,13.277l-3.577,3.386l0.71,3.334l7.76,-12.737l3.092,-0.742l-7.031,14.18l-3.304,4.55l4.059,0.745c0,0 1.587,-5.252 2.332,-2.248c0.744,3.004 3.819,-13.227 3.819,-13.227l5.33,-2.137l-2.898,12.047l-3.777,13.454l3.525,-8.263l2.343,2.333l3.907,-13.062l8.58,-0.116l-4.08,9.565l1.059,2.222l-2.099,2.743l-3.989,6.823l12.209,-8.86l-4.346,7.905l7.778,-3.729l2.33,0.428l-9.469,12.637l14.85,-1.337l-10.373,4.616l0.775,3.936c0,0 4.666,9.199 2.356,9.389c-2.311,0.191 -1.615,6.217 -1.615,6.217c0,0 -3.184,-4.128 -4.821,-6.041c-1.638,-1.914 -2.34,1.469 -4.731,-6.025c-2.392,-7.495 1.043,-4.864 -2.925,-10.049c-3.967,-5.185 -5.231,-4.597 -5.231,-4.597c0,0 -2.523,4.964 -2.646,0.026c-0.122,-4.938 3.95,-7.265 3.95,-7.265c0,0 -2.871,-0.013 -4.894,0.691c-2.023,0.704 -0.29,4.054 -3.213,1.618c-2.922,-2.436 -1.312,-0.631 -3.954,-2.69c-2.643,-2.059 0.429,0.191 -4.007,-2.568c-4.436,-2.758 -2.259,-1.846 -2.31,-4.851c-0.052,-3.005 0.932,-1.749 -0.178,-3.899c-1.109,-2.149 -0.991,-1.149 -2.894,-2.551c-1.904,-1.402 -3.313,-3.877 -2.692,-5.65c0.621,-1.773 3.191,-7.48 3.191,-7.48l7.661,-5.998Z" style="fill:#96e54d;"/></g><g><path d="M121.48,126.343l-6.68,7.619l-2.925,5.052l3.093,2.861l6.512,-15.532Z" style="fill:#96e54d;"/><path d="M118.61,140.658l-3.642,1.217l6.521,-15.425l-2.879,14.208Z" style="fill:#33653a;"/></g><path d="M139.978,127.853l-10.272,10.714l1.617,4.867l3.661,2.939l2.949,6.191l3.702,0.081l2.606,0.201l7.621,-8.378l-3.245,0.48l-4.121,0.99l3.189,-5.794l-4.555,3.514l-3.141,2.913l2.843,-9.088l2.702,-2.742l-6.711,4.631l-2.331,3.859l-0.805,-1.732l4.291,-13.646Z" style="fill:#33653a;"/><clipPath id="_clip5"><path d="M139.978,127.853l-10.272,10.714l1.617,4.867l3.661,2.939l2.949,6.191l3.702,0.081l2.606,0.201l7.621,-8.378l-3.245,0.48l-4.121,0.99l3.189,-5.794l-4.555,3.514l-3.141,2.913l2.843,-9.088l2.702,-2.742l-6.711,4.631l-2.331,3.859l-0.805,-1.732l4.291,-13.646Z"/></clipPath><g clip-path="url(#_clip5)"><path d="M140.891,125.879l-7.888,13.554l3.244,2.169l6.041,-10.352l3.64,3.564l-6.139,6.847l-1.938,3.627l2.138,1.283l4.176,-6.289l3.685,0.208l-5.578,5.455l-1.149,3.008l1.778,-0.958c0.811,-1.331 1.932,-2.433 3.364,-3.305l6.71,-0.97l-6.105,3.467l-1.766,2.594l-2.197,1.608l-3.234,-0.594l-1.747,0.61c0,0 -2.845,1.031 -3.784,0.35c-0.94,-0.681 -4.858,-4.338 -5.592,-5.631c-0.734,-1.293 -3.094,-7.48 -3.094,-7.48l6.68,-8.562l8.755,-4.203Z" style="fill:#96e54d;"/></g><path d="M112.553,37.94l-8.168,10.047l-0.519,-6.485l-3.559,9.661l1.939,-12.981l-4.033,5.913l0.867,-10.451l-2.089,4.897c0,0 -2.589,2.398 -2.846,0.445c-1.062,-8.089 -2.211,0.044 -2.558,0.263c-1.488,0.94 -0.966,2.265 -0.966,2.265l-1.515,1.593c0,0 1.954,0.017 0.09,1.746c-1.863,1.729 -4.416,2.718 -3.336,3.658c1.08,0.94 3.282,0.202 3.339,5.412c0.009,0.788 0.337,2.092 0.337,2.092c0,0 1.382,2.928 2.239,3.895c0.858,0.967 0.134,1.699 1.981,2.025c1.848,0.327 3.27,-0.566 3.013,1.044c-0.257,1.61 0.673,3.128 0.673,3.128l2.788,3.125l0.952,-0.771c0,0 2.357,1.184 3.732,4.174c1.376,2.989 1.454,6.424 2.736,3.419c1.282,-3.005 1.537,-2.635 1.537,-2.635c0,0 1.035,-2.434 2.212,-1.638c1.177,0.797 3.514,2.689 3.514,2.689l-1.02,-3.795c0,0 4.531,-0.06 5.869,0.533c1.338,0.594 2.741,3.203 2.741,3.203l-2.657,0.964c0,0 1.632,-0.457 2.083,0.382c0.45,0.84 3.028,2.033 3.028,2.033l1.703,-1.164c0,0 -0.054,-0.753 -0.3,-2.959c-0.247,-2.205 -0.432,-3.439 -0.432,-3.439l0.436,-1.301l3.425,-3.864l2.315,-4.206l-8.439,4.906l3.042,-7.17l-4.922,3.254l3.099,-9.213l-6.812,8.246c0,0 -1.882,1.509 -0.954,-1.475c0.927,-2.985 2.629,-9.831 2.629,-9.831l-0.281,-6.184l-5.611,15.416l-2.085,-4.378l5.514,-15.619l-9.107,17.142l0.557,-5.261l-2.302,1.597l6.121,-14.347Z" style="fill:#33653a;"/><clipPath id="_clip6"><path d="M112.553,37.94l-8.168,10.047l-0.519,-6.485l-3.559,9.661l1.939,-12.981l-4.033,5.913l0.867,-10.451l-2.089,4.897c0,0 -2.589,2.398 -2.846,0.445c-1.062,-8.089 -2.211,0.044 -2.558,0.263c-1.488,0.94 -0.966,2.265 -0.966,2.265l-1.515,1.593c0,0 1.954,0.017 0.09,1.746c-1.863,1.729 -4.416,2.718 -3.336,3.658c1.08,0.94 3.282,0.202 3.339,5.412c0.009,0.788 0.337,2.092 0.337,2.092c0,0 1.382,2.928 2.239,3.895c0.858,0.967 0.134,1.699 1.981,2.025c1.848,0.327 3.27,-0.566 3.013,1.044c-0.257,1.61 0.673,3.128 0.673,3.128l2.788,3.125l0.952,-0.771c0,0 2.357,1.184 3.732,4.174c1.376,2.989 1.454,6.424 2.736,3.419c1.282,-3.005 1.537,-2.635 1.537,-2.635c0,0 1.035,-2.434 2.212,-1.638c1.177,0.797 3.514,2.689 3.514,2.689l-1.02,-3.795c0,0 4.531,-0.06 5.869,0.533c1.338,0.594 2.741,3.203 2.741,3.203l-2.657,0.964c0,0 1.632,-0.457 2.083,0.382c0.45,0.84 3.028,2.033 3.028,2.033l1.703,-1.164c0,0 -0.054,-0.753 -0.3,-2.959c-0.247,-2.205 -0.432,-3.439 -0.432,-3.439l0.436,-1.301l3.425,-3.864l2.315,-4.206l-8.439,4.906l3.042,-7.17l-4.922,3.254l3.099,-9.213l-6.812,8.246c0,0 -1.882,1.509 -0.954,-1.475c0.927,-2.985 2.629,-9.831 2.629,-9.831l-0.281,-6.184l-5.611,15.416l-2.085,-4.378l5.514,-15.619l-9.107,17.142l0.557,-5.261l-2.302,1.597l6.121,-14.347Z"/></clipPath><g clip-path="url(#_clip6)"><path d="M92.402,31.894l0.359,8.329l2.507,2.357l2.71,-10.31l1.495,0.452l-3.415,15.915l2.726,-2.341l1.907,-9.841l2.985,0.98l-5.927,16.177l1.503,1.731l5.439,-13.689l2.839,-0.994l-4.646,10.976l12.418,-10.81l-10.747,18.92l-13.331,4.272l-7.418,-15.884l8.596,-16.24Z" style="fill:#96e54d;"/><path d="M117.26,46.688l-0.05,5.674l-2.328,8.6l3.042,2.837l0.369,-3.436l2.549,-8.962l3.273,-0.26l-4.368,13.903l2.087,-1.023l3.27,-8.793l0.886,1.858l-3.549,9.662l1.999,-0.125l5.164,-10.083l0.902,4.13l-4.748,7.424l1.193,3.429l3.426,10.942c0,0 -9.741,-1.815 -11.073,-2.033c-1.331,-0.218 -8.945,1.242 -8.945,1.242l-10.008,-5.893l-0.704,-7.588l7.027,2.732l1.64,-0.986l-0.574,-2.374l-2.785,-3.537l4.11,-1.978l-5.239,0.072l-2.121,2.787l1.248,-4.466l3.6,-0.912l2.785,-2.097l3.829,-12.696l3.048,-8.175l1.564,2.336l-3.667,11.381l-3.218,6.484l0.814,1.648l5.552,-11.724Z" style="fill:#96e54d;"/></g><path d="M187.694,109.139l3.035,-5.381l-6.425,1.494l-2.224,0.806l3.365,-5.246l-1.692,-3.554l-3.823,0.63l-2.028,4.866l-2.814,-0.133l-0.233,-6.603c0,0 0.83,-2.101 -0.465,-0.778c-1.295,1.323 -4.135,5.966 -4.135,5.966l-1.14,2.473l-0.313,-6.456c0,0 -0.766,-0.376 -1.031,0.659c-0.264,1.034 -2.886,7.61 -2.886,7.61l-1.735,0.057l-1.784,-0.609l-4.3,0.415c0,0 -0.441,2.925 0.809,4.037c1.25,1.113 4.208,5.679 4.208,5.679c0,0 0.743,2.274 2.432,3.316c1.69,1.042 5.281,2.473 5.281,2.473c0,0 2.219,0.842 3.903,0.475c1.685,-0.366 1.937,-2.942 3.119,-0.69c1.181,2.252 2.063,7.399 2.063,7.399c0,0 0.142,1.359 2.461,1.207c2.319,-0.151 3.218,-0.469 3.218,-0.469l0.855,-0.691c0,0 -1.048,0.32 0.343,0.719c1.39,0.399 2.236,6.433 3.037,4.799c0.802,-1.634 -0.35,-6.151 0.062,-6.867c0.412,-0.715 -1.596,-1.61 -1.596,-1.61l2.912,-2.036l5.085,-1.681l-4.232,-2.051l0.538,-3.789l-2.948,-1.269l-3.362,3.999l-3.385,2.34l1.946,-5.561l3.073,-1.607l0.806,-4.338Z" style="fill:#33653a;"/><clipPath id="_clip7"><path d="M187.694,109.139l3.035,-5.381l-6.425,1.494l-2.224,0.806l3.365,-5.246l-1.692,-3.554l-3.823,0.63l-2.028,4.866l-2.814,-0.133l-0.233,-6.603c0,0 0.83,-2.101 -0.465,-0.778c-1.295,1.323 -4.135,5.966 -4.135,5.966l-1.14,2.473l-0.313,-6.456c0,0 -0.766,-0.376 -1.031,0.659c-0.264,1.034 -2.886,7.61 -2.886,7.61l-1.735,0.057l-1.784,-0.609l-4.3,0.415c0,0 -0.441,2.925 0.809,4.037c1.25,1.113 4.208,5.679 4.208,5.679c0,0 0.743,2.274 2.432,3.316c1.69,1.042 5.281,2.473 5.281,2.473c0,0 2.219,0.842 3.903,0.475c1.685,-0.366 1.937,-2.942 3.119,-0.69c1.181,2.252 2.063,7.399 2.063,7.399c0,0 0.142,1.359 2.461,1.207c2.319,-0.151 3.218,-0.469 3.218,-0.469l0.855,-0.691c0,0 -1.048,0.32 0.343,0.719c1.39,0.399 2.236,6.433 3.037,4.799c0.802,-1.634 -0.35,-6.151 0.062,-6.867c0.412,-0.715 -1.596,-1.61 -1.596,-1.61l2.912,-2.036l5.085,-1.681l-4.232,-2.051l0.538,-3.789l-2.948,-1.269l-3.362,3.999l-3.385,2.34l1.946,-5.561l3.073,-1.607l0.806,-4.338Z"/></clipPath><g clip-path="url(#_clip7)"><path d="M168.785,95.842l-2.718,16.012c-2.023,-2.032 -3.858,-2.785 -5.501,-2.245l-3.677,-4.286l-0.823,5.817l5.75,4.558c0,0 4.197,-4.144 3.419,-2.635c-0.778,1.509 -2.479,4.445 -1.652,7.509c0.827,3.064 2.856,3.426 2.961,2.075c0.106,-1.351 1.539,-3.605 1.539,-3.605l0.742,-1.741l2.436,-1.564l-0.21,5.364l-0.939,2.201l3.128,-3.314l0.665,-2.394l1.483,-3.72c0,0 0.853,-6.259 1.201,-4.313c0.349,1.945 2.779,11.552 2.779,11.552l-1.575,4.646l0.278,5.937l3.017,-7.071l2.916,-1.254l3.139,5.095l0.909,8.92l1.353,-0.919l0.994,-6.618l1.472,-11.391l-6.811,4.922l-0.91,-1.389l-1.798,-0.33l-0.886,-1.862l0.291,-9.912l-1.741,3.569l-0.184,-3.922l-1.074,-2.256l-0.276,5.42l-2.497,-7.758l-0.806,1.659l-2.409,3.707l-1.611,1.524l-1.7,-0.312l-1.209,1.04l-0.957,2.451l1.025,-5.537l1.489,-7.317l0.385,-3.711l5.091,-5.297l-4.154,14.79l5.181,-8.181l2.379,-3.324l4.398,-1.853l0.172,3.92l-5.456,6.774l8.037,-2.413l2.265,-0.742l2.568,0.039l-6.805,9.016l-1.261,4.186l1.284,2.696l0.916,-2.149l5.382,-3.598l1.241,3.243l-6.702,7.322l0.332,0.507l16.759,4.976l-23.792,15.839l-30.116,-28.856l3.781,-11.978l17.093,-7.519Z" style="fill:#96e54d;"/></g><path d="M157.92,128.536l7.629,-12.841l-12.227,4.744l-1.193,-11.977l-3.366,10.705l1.281,-14.964l-4.79,6.539l-0.1,-12.831l-7.507,11.435l2.576,-12.723l-5.267,7.072l-3.897,-11.029l-1.273,15.237l-0.951,10.139c0,0 5.182,1.59 6.817,1.251c1.635,-0.339 2.045,0.124 3.299,1.856c1.254,1.733 3.387,5.125 5.619,7.844c2.233,2.72 5.321,8.383 5.321,8.383l4.003,2.842c0,0 -2.741,0.628 0,0c2.742,-0.628 4.736,-1.238 4.736,-1.238l5.244,0.962l-4.137,-4.307l-1.817,-7.099Z" style="fill:#33653a;"/><clipPath id="_clip8"><path d="M157.92,128.536l7.629,-12.841l-12.227,4.744l-1.193,-11.977l-3.366,10.705l1.281,-14.964l-4.79,6.539l-0.1,-12.831l-7.507,11.435l2.576,-12.723l-5.267,7.072l-3.897,-11.029l-1.273,15.237l-0.951,10.139c0,0 5.182,1.59 6.817,1.251c1.635,-0.339 2.045,0.124 3.299,1.856c1.254,1.733 3.387,5.125 5.619,7.844c2.233,2.72 5.321,8.383 5.321,8.383l4.003,2.842c0,0 -2.741,0.628 0,0c2.742,-0.628 4.736,-1.238 4.736,-1.238l5.244,0.962l-4.137,-4.307l-1.817,-7.099Z"/></clipPath><g clip-path="url(#_clip8)"><path d="M130.216,90.887l1.902,12.287l0.797,5.303c0,0 3.439,-7.798 3.358,-7.869c-0.082,-0.071 4.792,-6.105 4.792,-6.105l-5.686,14.426l1.261,2.778l3.627,-8.502l6.042,-7.74l-4.922,17.072l4.479,-1.683l1.912,-9.962l2.785,2.097l-3.315,13.275l0.513,5.251l2.513,-12.854l2.207,-1.75l-1.471,12.361l0.663,5.031l1.971,-12.021l12.391,2.274l-11.741,13.315l6.593,3.073l8.991,14.053l-10.494,4.434l-7.805,-6.589l-0.504,-14.368c0,0 0.374,0.563 -2.549,-1.662c-2.923,-2.225 -7.849,-6.597 -7.849,-6.597l-1.502,1.404l-8.147,1.026l-8.585,-8.959l7.773,-22.799Z" style="fill:#96e54d;"/></g><path d="M127.65,102.035l-6.364,-2.337l-3.794,6.317l-0.265,-7.733l2.513,-3.789l-4.572,-0.535l-1.395,6.138l-3.496,0.513l0.585,-6.626l1.294,0.624l-2.568,-5.941l-1.824,1.169l-2.788,7.465l-0.108,-9.528l0.672,-1.577l-3.76,0.058l-1.395,3.865l-1.633,3.219l-0.548,-10.413l-2.16,7.144l-2.794,-2.897l1.053,-4.963l3.075,-0.797l-3.418,-1.483l-3.187,5.006l-5.437,0.785c0,0 0.148,-1.359 0.888,1.863c0.74,3.223 2.277,6.524 3.103,8.334c0.827,1.81 0.322,1.599 2.649,3.744c2.328,2.144 1.682,1.686 4.96,4.456c3.277,2.77 0.612,4.875 5.181,4.225c4.568,-0.65 2.548,-7.086 4.487,-0.721c1.939,6.365 2.405,7.641 2.98,9.447c0.576,1.807 1.552,1.688 1.552,1.688c0,0 0.848,-0.014 1.885,-0.079c1.037,-0.065 1.114,0.545 1.912,0.054c0.799,-0.492 1.144,-1.586 1.144,-1.586c0,0 1.316,0.111 -0.343,-3.865c-1.659,-3.977 -1.549,-3.446 1.046,-2.034c2.595,1.411 3.658,1.543 3.658,1.543l-1.596,-3.419l2.79,-5.356l6.018,-1.978Z" style="fill:#33653a;"/><clipPath id="_clip9"><path d="M127.65,102.035l-6.364,-2.337l-3.794,6.317l-0.265,-7.733l2.513,-3.789l-4.572,-0.535l-1.395,6.138l-3.496,0.513l0.585,-6.626l1.294,0.624l-2.568,-5.941l-1.824,1.169l-2.788,7.465l-0.108,-9.528l0.672,-1.577l-3.76,0.058l-1.395,3.865l-1.633,3.219l-0.548,-10.413l-2.16,7.144l-2.794,-2.897l1.053,-4.963l3.075,-0.797l-3.418,-1.483l-3.187,5.006l-5.437,0.785c0,0 0.148,-1.359 0.888,1.863c0.74,3.223 2.277,6.524 3.103,8.334c0.827,1.81 0.322,1.599 2.649,3.744c2.328,2.144 1.682,1.686 4.96,4.456c3.277,2.77 0.612,4.875 5.181,4.225c4.568,-0.65 2.548,-7.086 4.487,-0.721c1.939,6.365 2.405,7.641 2.98,9.447c0.576,1.807 1.552,1.688 1.552,1.688c0,0 0.848,-0.014 1.885,-0.079c1.037,-0.065 1.114,0.545 1.912,0.054c0.799,-0.492 1.144,-1.586 1.144,-1.586c0,0 1.316,0.111 -0.343,-3.865c-1.659,-3.977 -1.549,-3.446 1.046,-2.034c2.595,1.411 3.658,1.543 3.658,1.543l-1.596,-3.419l2.79,-5.356l6.018,-1.978Z"/></clipPath><g clip-path="url(#_clip9)"><path d="M94.148,77.022l0.155,5.186l-2.612,4.677l-1.225,4.185l4.333,-3.615l3.711,-4.475l-1.526,9.062l-1.24,1.929l1.683,3.629l1.186,-4.926l2.267,-7.514l3.841,2.956l-0.985,1.42l-0.582,8.897l-2.084,0.978l0.764,1.365l2.184,0.947l0.975,-4.064l1.206,-6.232l1.652,-1.576l3.266,4.669l-0.865,6.085l-2.792,2.129l3.184,3.099l3.087,-5.826l0.503,-8.009l3.083,6.473l-3.646,7.368l3.73,0.39l2.833,-6.64l1.052,0.022l0.167,4.657l-4.904,5.011l0.501,2.154c0,0 0.511,10.837 0.083,11.061c-0.428,0.224 -1.701,4.229 -4.787,1.802c-3.087,-2.427 -6.555,-7.533 -7.111,-9.142c-0.556,-1.61 1.341,-8.201 -0.755,-9.347c-2.095,-1.147 -4.082,-3.1 -5.487,-4.264c-1.405,-1.165 -3.754,-3.159 -3.754,-3.159c0,0 2.861,5.843 -0.273,1.703c-3.134,-4.14 -3.374,-5.114 -3.374,-5.114l0.387,-0.908l-3.952,-2.696l-5.697,-5.085l2.537,-5.808l9.281,-3.454" style="fill:#96e54d;"/></g></g><g id="GrassBlank041" serif:id="GrassBlank04"><path d="M109.695,152.452l-3.485,12.471l-3.062,-5.741l0.588,10.278l-3.397,-12.677l-1.341,7.031l-3.371,-9.931l0.036,5.324c0,0 -1.419,3.231 -2.432,1.542c-4.2,-6.995 -2.011,0.922 -2.242,1.261c-0.99,1.456 0.017,2.463 0.017,2.463l-0.754,2.064c0,0 1.798,-0.763 0.779,1.566c-1.02,2.329 -2.967,4.254 -1.602,4.685c1.365,0.431 3.09,-1.123 5.22,3.632c0.322,0.719 1.143,1.784 1.143,1.784c0,0 2.434,2.135 3.606,2.68c1.172,0.544 0.8,1.505 2.625,1.068c1.825,-0.438 2.773,-1.823 3.178,-0.244c0.406,1.579 1.865,2.6 1.865,2.6l3.802,1.754l0.566,-1.086c0,0 2.634,0.146 5.087,2.34c2.453,2.193 3.894,5.312 3.872,2.045c-0.023,-3.267 0.359,-3.029 0.359,-3.029c0,0 -0.021,-2.645 1.376,-2.384c1.397,0.261 4.294,1.065 4.294,1.065l-2.448,-3.074c0,0 4.132,-1.861 5.595,-1.85c1.464,0.011 3.791,1.844 3.791,1.844l-2.053,1.944c0,0 1.315,-1.07 2.063,-0.48c0.747,0.591 3.588,0.657 3.588,0.657l1.097,-1.747c0,0 -0.349,-0.669 -1.455,-2.593c-1.105,-1.925 -1.767,-2.982 -1.767,-2.982l-0.119,-1.367l1.601,-4.909l0.446,-4.78l-5.783,7.863l-0.069,-7.789l-3.216,4.947l-0.831,-9.684l-2.96,10.278c0,0 -1.124,2.134 -1.464,-0.973c-0.339,-3.107 -1.507,-10.064 -1.507,-10.064l-2.722,-5.559l0.999,16.374l-3.658,-3.183l-1.169,-16.523l-1.519,19.351l-1.586,-5.046l-1.475,2.382l-0.106,-15.598Zm-20.029,-14.151l-2.109,0.671l3.313,-12.099l-5.08,7.494l-2.457,-5.571l-1.532,4.898l-2.81,-4.759l-1.915,-2.375l-2.413,9.827l-2.306,-2.116l0.023,8.2l-1.805,3.786c0,0 2.122,1.73 2.669,2.755c0.547,1.025 -1.06,2.811 1.313,2.625c2.373,-0.185 3.26,0.476 4.442,-0.777c1.182,-1.254 2.289,-2.364 2.289,-2.364l3.283,1.48c0,0 1.292,-3.111 1.633,0.736c0.341,3.848 3.107,-2.147 3.107,-2.147l2.912,-5.503l-2.557,-4.761Zm-10.912,-20.227l-0.477,0.385c0,0 -0.899,0.318 -3.218,0.47c-2.319,0.151 -2.461,-1.208 -2.461,-1.208c0,0 -0.882,-5.147 -2.063,-7.399c-1.182,-2.252 -1.434,0.324 -3.119,0.691c-1.684,0.366 -3.903,-0.475 -3.903,-0.475c0,0 -3.591,-1.432 -5.281,-2.474c-1.689,-1.042 -2.432,-3.316 -2.432,-3.316c0,0 -2.958,-4.566 -4.208,-5.679c-1.25,-1.112 -0.809,-4.036 -0.809,-4.036l4.3,-0.415l1.784,0.608l1.735,-0.056c0,0 2.622,-6.576 2.886,-7.611c0.265,-1.034 1.031,-0.658 1.031,-0.658l0.313,6.455l1.14,-2.473c0,0 2.84,-4.642 4.135,-5.966c1.295,-1.323 0.465,0.778 0.465,0.778l0.233,6.603l2.814,0.134l2.028,-4.867l3.823,-0.629l1.692,3.553l-3.365,5.247l2.224,-0.807l6.425,-1.494l-3.035,5.382l-0.806,4.337l-3.073,1.608l-1.946,5.56l3.385,-2.34l3.362,-3.999l2.948,1.269l-0.538,3.79l4.232,2.051l-5.085,1.68l-2.912,2.036c0,0 2.008,0.895 1.596,1.611c-0.412,0.715 0.74,5.232 -0.062,6.866c-0.801,1.635 -1.647,-4.4 -3.037,-4.799c-0.538,-0.154 -0.711,-0.296 -0.721,-0.413l0.378,-0.306c0,0 -0.394,0.121 -0.378,0.306Zm-58.691,-22.332l2.791,-3.365l0.181,-5.988l2.546,-0.562l-1.559,2.328l1.077,4.808l2.66,0.98l-1.166,-7.266l3.903,8.611l-0.132,-3.628l-0.497,-4.051l2.222,-2.064l0.141,1.709l3.336,8.088l-0.902,-7.876l0.686,-1.977l3.571,3.704l-0.986,0.16l1.928,5.979l1.907,-2.312l-1.276,-5.995l2.909,-1.992l-0.197,4.586l2.814,6.47l0.091,-7.434l4.597,-1.41l-2.908,4.915l0.176,6.074l2.125,2.067c0,0 -0.678,0.457 -2.71,0.64c-2.031,0.183 -2.279,-0.211 0.075,2.3c2.355,2.511 1.532,3.121 1.532,3.121c0,0 0.17,1.121 -0.137,1.968c-0.307,0.848 -0.562,0.368 -1.158,0.979c-0.596,0.611 -1.097,1.078 -1.097,1.078c0,0 -0.541,0.624 -1.504,-0.612c-0.964,-1.237 -1.679,-2.078 -5.021,-6.482c-3.342,-4.403 0.073,0.018 -2.427,3.02c-2.5,3.003 -1.634,-0.224 -4.539,-0.837c-2.905,-0.612 -2.363,-0.566 -4.487,-1.153c-2.123,-0.587 -1.75,-0.677 -2.864,-1.782c-1.114,-1.105 -3.164,-3.104 -4.712,-5.463c-0.513,-0.782 -0.815,-1.169 -0.989,-1.336Zm0,0l-0.18,0.218c0,0 -0.169,-0.554 0.18,-0.218Zm36.285,-22.297l8.861,-4.898l-12.724,-3.774l1.924,-7.824l-10.735,1.525l-3.384,-13.554l-8.028,8.421l-3.039,-9.844l-1.68,4.11l-0.962,-7.125l-2.715,6.547l-1.518,5.792l-0.59,-11.25l-1.162,2.999l-3.534,-3.194l-0.361,3.679l-2.273,-9.939l-1.274,10.38l-2.624,2.514c0,0 -1.78,4.655 -0.69,6.839c1.091,2.183 4.988,9.263 4.988,9.263c0,0 -3.397,-2.032 1.085,1.485c4.483,3.517 3.672,1.757 7.792,4.142c4.121,2.384 1.231,2.921 6.434,4.31c5.204,1.389 3.786,-2.05 5.765,1.637c1.978,3.687 0.782,2.757 2.587,5.832c1.805,3.074 2.845,0.301 4.917,-2.061c2.073,-2.362 5.445,-5.006 6.24,-2.724c0.795,2.283 -3.57,0.224 1.398,2.683c4.968,2.459 7.54,10.137 6.023,1.505c-1.517,-8.631 -0.721,-7.476 -0.721,-7.476Z" style="fill:#0a0500;fill-opacity:0.3;"/><path d="M162.425,168.693l-0.611,5.988l-3.727,-5.895l-2.81,2.829l-3.293,-4.439l-6.663,-1.937l3.212,-2.653l-2.192,-12.381l7.774,12.04l1.32,-10.12l3.779,6.565l4.258,-4.289l1.765,6.314l0.368,4.347l5.99,-0.651l-5.272,3.868l7.534,6.743l-7.474,-2.218l-0.727,1.515l-3.231,-5.626" style="fill:#33653a;"/><clipPath id="_clip10"><path d="M162.425,168.693l-0.611,5.988l-3.727,-5.895l-2.81,2.829l-3.293,-4.439l-6.663,-1.937l3.212,-2.653l-2.192,-12.381l7.774,12.04l1.32,-10.12l3.779,6.565l4.258,-4.289l1.765,6.314l0.368,4.347l5.99,-0.651l-5.272,3.868l7.534,6.743l-7.474,-2.218l-0.727,1.515l-3.231,-5.626"/></clipPath><g clip-path="url(#_clip10)"><path d="M146.341,150.205l4.891,12.049l-0.803,1.955l3.456,2.672l0.454,-4.384l-3.272,-6.952l3.152,-4.412l1.118,-0.352l2.049,14.739l1.947,-6.968l0.245,-5.009l3.649,0.419l-0.72,11.406l4.847,-0.491l2.647,-4.709l3.427,1.961l-1.895,2.626l3.12,13.521l-8.162,-3.303l-2.042,3.017l-2.927,-2.097l-1.313,-2.217l-7.956,-1.967l-8.093,-6.759l1.447,-11.646l0.734,-3.099" style="fill:#96e54d;"/></g><path d="M94.647,140.595l-2.109,0.672l3.313,-12.1l-5.08,7.495l-2.458,-5.571l-1.532,4.898l-2.809,-4.759l-1.916,-2.375l-2.412,9.827l-2.306,-2.116l0.023,8.2l-1.805,3.785c0,0 2.122,1.731 2.669,2.755c0.547,1.025 -1.06,2.811 1.313,2.626c2.373,-0.186 3.26,0.476 4.442,-0.778c1.182,-1.253 2.288,-2.363 2.288,-2.363l3.284,1.48c0,0 1.291,-3.112 1.632,0.736c0.341,3.847 3.107,-2.148 3.107,-2.148l2.913,-5.502l-2.557,-4.762Z" style="fill:#33653a;"/><clipPath id="_clip11"><path d="M94.647,140.595l-2.109,0.672l3.313,-12.1l-5.08,7.495l-2.458,-5.571l-1.532,4.898l-2.809,-4.759l-1.916,-2.375l-2.412,9.827l-2.306,-2.116l0.023,8.2l-1.805,3.785c0,0 2.122,1.731 2.669,2.755c0.547,1.025 -1.06,2.811 1.313,2.626c2.373,-0.186 3.26,0.476 4.442,-0.778c1.182,-1.253 2.288,-2.363 2.288,-2.363l3.284,1.48c0,0 1.291,-3.112 1.632,0.736c0.341,3.847 3.107,-2.148 3.107,-2.148l2.913,-5.502l-2.557,-4.762Z"/></clipPath><g clip-path="url(#_clip11)"><path d="M76.657,134.107l1.853,8.988l4.018,-0.166l-3.74,-7.861l3.06,-7.104l2.729,12.849l2.765,1.094l-0.556,-6.039l1.886,-7.036l0.466,13.131l1.65,-5.784l1.294,-3.118l2.996,-4.903l-3.695,14.406l1.031,0.158l0.757,0.938l3.074,2.687l3.008,4.122c0,0 -4.985,0.093 -8.924,-1.065c-2.92,-0.858 -4.975,-3.086 -5.522,-2.967c-0.594,0.129 -0.763,5.725 -2.671,7.797c-2.213,2.404 -6.156,1.322 -6.156,1.322l-1.565,-10.109l2.242,-11.34" style="fill:#96e54d;"/></g><path d="M61.329,75.74l8.86,-4.899l-12.723,-3.774l1.923,-7.824l-10.735,1.525l-3.383,-13.553l-8.028,8.421l-3.039,-9.844l-1.681,4.109l-0.962,-7.125l-2.714,6.548l-1.518,5.791l-0.59,-11.249l-1.163,2.999l-3.533,-3.194l-0.362,3.679l-2.272,-9.94l-1.275,10.381l-2.623,2.514c0,0 -1.78,4.655 -0.69,6.838c1.091,2.184 4.988,9.263 4.988,9.263c0,0 -3.397,-2.031 1.085,1.486c4.482,3.516 3.672,1.757 7.792,4.141c4.12,2.384 1.23,2.922 6.434,4.311c5.203,1.389 3.786,-2.051 5.764,1.636c1.979,3.687 0.783,2.758 2.588,5.832c1.805,3.074 2.845,0.302 4.917,-2.06c2.073,-2.362 5.445,-5.006 6.239,-2.724c0.795,2.282 -3.569,0.223 1.399,2.682c4.968,2.46 7.54,10.137 6.022,1.506c-1.517,-8.632 -0.72,-7.476 -0.72,-7.476Z" style="fill:#33653a;"/><clipPath id="_clip12"><path d="M61.329,75.74l8.86,-4.899l-12.723,-3.774l1.923,-7.824l-10.735,1.525l-3.383,-13.553l-8.028,8.421l-3.039,-9.844l-1.681,4.109l-0.962,-7.125l-2.714,6.548l-1.518,5.791l-0.59,-11.249l-1.163,2.999l-3.533,-3.194l-0.362,3.679l-2.272,-9.94l-1.275,10.381l-2.623,2.514c0,0 -1.78,4.655 -0.69,6.838c1.091,2.184 4.988,9.263 4.988,9.263c0,0 -3.397,-2.031 1.085,1.486c4.482,3.516 3.672,1.757 7.792,4.141c4.12,2.384 1.23,2.922 6.434,4.311c5.203,1.389 3.786,-2.051 5.764,1.636c1.979,3.687 0.783,2.758 2.588,5.832c1.805,3.074 2.845,0.302 4.917,-2.06c2.073,-2.362 5.445,-5.006 6.239,-2.724c0.795,2.282 -3.569,0.223 1.399,2.682c4.968,2.46 7.54,10.137 6.022,1.506c-1.517,-8.632 -0.72,-7.476 -0.72,-7.476Z"/></clipPath><g clip-path="url(#_clip12)"><path d="M17.925,37.595l3.454,12.832l-2.394,4.305l1.679,2.966l3.573,-14.48l2.726,-1.637l-2.443,15.637l-1.785,5.333l4.096,-0.509c0,0 -0.065,-5.486 1.548,-2.845c1.614,2.641 -0.333,-13.763 -0.333,-13.763l4.442,-3.64l0.856,12.36l0.442,13.968l0.878,-8.94l2.937,1.52l-0.2,-13.632l8.149,-2.69l-1.017,10.349l1.677,1.801l-1.177,3.248l-1.754,7.706l8.982,-12.121l-1.769,8.847l6.297,-5.895l2.351,-0.292l-5.233,14.899l13.761,-5.738l-8.505,7.52l1.922,3.521c0,0 7.215,7.371 5.069,8.247c-2.147,0.876 0.328,6.414 0.328,6.414c0,0 -4.277,-2.98 -6.414,-4.313c-2.137,-1.332 -1.79,2.105 -6.323,-4.324c-4.534,-6.429 -0.467,-4.952 -5.81,-8.705c-5.342,-3.752 -6.371,-2.812 -6.371,-2.812c0,0 -0.914,5.493 -2.515,0.82c-1.601,-4.673 1.583,-8.116 1.583,-8.116c0,0 -2.742,0.85 -4.46,2.13c-1.718,1.279 0.942,3.953 -2.578,2.508c-3.52,-1.445 -1.441,-0.207 -4.58,-1.377c-3.139,-1.17 0.467,0.053 -4.593,-1.244c-5.06,-1.298 -2.709,-1.082 -3.662,-3.933c-0.953,-2.851 0.363,-1.948 -1.341,-3.665c-1.704,-1.717 -1.29,-0.798 -3.527,-1.563c-2.237,-0.765 -4.325,-2.703 -4.265,-4.581c0.059,-1.877 0.795,-8.093 0.795,-8.093l5.504,-8.023Z" style="fill:#96e54d;"/></g><g><path d="M58.129,107.961l-4.233,9.207l-1.364,5.676l3.78,1.862l1.817,-16.745Z" style="fill:#96e54d;"/><path d="M59.456,122.501l-3.144,2.205l1.857,-16.644l1.287,14.439Z" style="fill:#33653a;"/></g><g><path d="M131.357,26.721l-4.233,9.206l-1.365,5.676l3.78,1.862l1.818,-16.744Z" style="fill:#96e54d;"/><path d="M132.684,41.261l-3.145,2.204l1.858,-16.644l1.287,14.44Z" style="fill:#33653a;"/></g><path d="M51.809,22.969l0.128,14.842l4.556,2.355l4.673,-0.453l6.434,2.372l2.706,-2.526l2.006,-1.677l-0.395,-11.318l-1.987,2.609l-2.259,3.587l-1.763,-6.375l-0.807,5.697l-0.214,4.278l-4.31,-8.491l0.018,-3.849l-1.57,8.001l1.027,4.39l-1.786,-0.678l-6.457,-12.764Z" style="fill:#33653a;"/><clipPath id="_clip13"><path d="M51.809,22.969l0.128,14.842l4.556,2.355l4.673,-0.453l6.434,2.372l2.706,-2.526l2.006,-1.677l-0.395,-11.318l-1.987,2.609l-2.259,3.587l-1.763,-6.375l-0.807,5.697l-0.214,4.278l-4.31,-8.491l0.018,-3.849l-1.57,8.001l1.027,4.39l-1.786,-0.678l-6.457,-12.764Z"/></clipPath><g clip-path="url(#_clip13)"><path d="M51.084,20.918l3.818,15.21l3.837,-0.712l-2.904,-11.628l5.093,0.009l0.388,9.188l1.145,3.95l2.426,-0.575l-1.402,-7.418l2.783,-2.424l-0.184,7.8l1.278,2.955l0.604,-1.927c-0.349,-1.519 -0.316,-3.091 0.1,-4.715l4.126,-5.379l-1.949,6.744l0.546,3.09l-0.449,2.685l-2.73,1.834l-0.824,1.656c0,0 -1.317,2.724 -2.465,2.893c-1.148,0.168 -6.506,0.286 -7.934,-0.127c-1.429,-0.412 -7.439,-3.193 -7.439,-3.193l-1.196,-10.793l3.332,-9.123Z" style="fill:#96e54d;"/></g><path d="M114.676,154.747l-3.486,12.47l-3.061,-5.74l0.588,10.278l-3.397,-12.678l-1.341,7.031l-3.372,-9.93l0.037,5.324c0,0 -1.419,3.23 -2.433,1.542c-4.199,-6.995 -2.01,0.922 -2.241,1.261c-0.99,1.456 0.017,2.463 0.017,2.463l-0.754,2.064c0,0 1.798,-0.763 0.778,1.566c-1.019,2.329 -2.966,4.253 -1.601,4.684c1.365,0.432 3.09,-1.123 5.22,3.632c0.322,0.72 1.143,1.785 1.143,1.785c0,0 2.434,2.135 3.606,2.679c1.172,0.545 0.8,1.505 2.624,1.068c1.825,-0.437 2.774,-1.823 3.179,-0.244c0.406,1.579 1.864,2.6 1.864,2.6l3.803,1.755l0.566,-1.086c0,0 2.634,0.146 5.087,2.339c2.453,2.194 3.894,5.313 3.871,2.046c-0.022,-3.267 0.36,-3.03 0.36,-3.03c0,0 -0.021,-2.645 1.376,-2.384c1.397,0.262 4.294,1.066 4.294,1.066l-2.448,-3.075c0,0 4.131,-1.86 5.595,-1.85c1.464,0.011 3.791,1.845 3.791,1.845l-2.053,1.943c0,0 1.315,-1.07 2.063,-0.479c0.747,0.59 3.587,0.657 3.587,0.657l1.098,-1.747c0,0 -0.35,-0.669 -1.455,-2.594c-1.105,-1.924 -1.768,-2.982 -1.768,-2.982l-0.118,-1.366l1.6,-4.91l0.447,-4.779l-5.783,7.862l-0.069,-7.788l-3.217,4.946l-0.83,-9.684l-2.96,10.278c0,0 -1.124,2.134 -1.464,-0.973c-0.339,-3.107 -1.507,-10.064 -1.507,-10.064l-2.723,-5.559l0.999,16.375l-3.657,-3.184l-1.169,-16.523l-1.519,19.352l-1.586,-5.046l-1.475,2.381l-0.106,-15.597Z" style="fill:#33653a;"/><clipPath id="_clip14"><path d="M114.676,154.747l-3.486,12.47l-3.061,-5.74l0.588,10.278l-3.397,-12.678l-1.341,7.031l-3.372,-9.93l0.037,5.324c0,0 -1.419,3.23 -2.433,1.542c-4.199,-6.995 -2.01,0.922 -2.241,1.261c-0.99,1.456 0.017,2.463 0.017,2.463l-0.754,2.064c0,0 1.798,-0.763 0.778,1.566c-1.019,2.329 -2.966,4.253 -1.601,4.684c1.365,0.432 3.09,-1.123 5.22,3.632c0.322,0.72 1.143,1.785 1.143,1.785c0,0 2.434,2.135 3.606,2.679c1.172,0.545 0.8,1.505 2.624,1.068c1.825,-0.437 2.774,-1.823 3.179,-0.244c0.406,1.579 1.864,2.6 1.864,2.6l3.803,1.755l0.566,-1.086c0,0 2.634,0.146 5.087,2.339c2.453,2.194 3.894,5.313 3.871,2.046c-0.022,-3.267 0.36,-3.03 0.36,-3.03c0,0 -0.021,-2.645 1.376,-2.384c1.397,0.262 4.294,1.066 4.294,1.066l-2.448,-3.075c0,0 4.131,-1.86 5.595,-1.85c1.464,0.011 3.791,1.845 3.791,1.845l-2.053,1.943c0,0 1.315,-1.07 2.063,-0.479c0.747,0.59 3.587,0.657 3.587,0.657l1.098,-1.747c0,0 -0.35,-0.669 -1.455,-2.594c-1.105,-1.924 -1.768,-2.982 -1.768,-2.982l-0.118,-1.366l1.6,-4.91l0.447,-4.779l-5.783,7.862l-0.069,-7.788l-3.217,4.946l-0.83,-9.684l-2.96,10.278c0,0 -1.124,2.134 -1.464,-0.973c-0.339,-3.107 -1.507,-10.064 -1.507,-10.064l-2.723,-5.559l0.999,16.375l-3.657,-3.184l-1.169,-16.523l-1.519,19.352l-1.586,-5.046l-1.475,2.381l-0.106,-15.597Z"/></clipPath><g clip-path="url(#_clip14)"><path d="M93.786,157.235l3.649,7.495l3.239,1.163l-1.625,-10.536l1.552,-0.182l3.212,15.957l1.567,-3.234l-2.174,-9.785l3.128,-0.291l1.013,17.199l2.069,0.988l-0.47,-14.722l2.208,-2.044l0.115,11.918l7.079,-14.863l-2.314,21.635l-10.523,9.232l-13.135,-11.609l1.41,-18.321Z" style="fill:#96e54d;"/><path d="M122.48,160.893l2.217,5.224l1.293,8.815l3.921,1.389l-1.032,-3.298l-1.234,-9.236l2.897,-1.543l1.537,14.492l1.506,-1.77l-0.506,-9.368l1.552,1.351l0.598,10.276l1.783,-0.911l0.717,-11.307l2.473,3.429l-1.395,8.701l2.462,2.669l7.503,8.669c0,0 -9.657,2.22 -10.965,2.55c-1.308,0.331 -7.709,4.705 -7.709,4.705l-11.528,-1.415l-3.67,-6.678l7.534,-0.296l1.11,-1.558l-1.472,-1.949l-3.964,-2.133l2.98,-3.452l-4.776,2.154l-0.834,3.401l-0.636,-4.593l2.938,-2.271l1.719,-3.034l-1.549,-13.17l-0.464,-8.712l2.365,1.519l1.174,11.899l-0.366,7.229l1.404,1.187l0.417,-12.965Z" style="fill:#96e54d;"/></g><path d="M86.392,101.111l3.035,-5.381l-6.425,1.494l-2.224,0.806l3.365,-5.246l-1.693,-3.554l-3.823,0.629l-2.027,4.867l-2.814,-0.133l-0.233,-6.603c0,0 0.83,-2.101 -0.465,-0.778c-1.296,1.323 -4.136,5.966 -4.136,5.966l-1.139,2.473l-0.313,-6.456c0,0 -0.767,-0.376 -1.031,0.659c-0.264,1.034 -2.886,7.61 -2.886,7.61l-1.735,0.056l-1.784,-0.608l-4.301,0.415c0,0 -0.44,2.925 0.81,4.037c1.25,1.112 4.208,5.679 4.208,5.679c0,0 0.742,2.274 2.432,3.316c1.689,1.042 5.281,2.473 5.281,2.473c0,0 2.219,0.842 3.903,0.475c1.685,-0.366 1.937,-2.942 3.118,-0.69c1.182,2.252 2.064,7.399 2.064,7.399c0,0 0.142,1.359 2.461,1.207c2.319,-0.151 3.218,-0.469 3.218,-0.469l0.855,-0.691c0,0 -1.048,0.32 0.342,0.719c1.391,0.399 2.237,6.433 3.038,4.799c0.801,-1.634 -0.351,-6.151 0.062,-6.867c0.412,-0.715 -1.596,-1.611 -1.596,-1.611l2.911,-2.035l5.086,-1.681l-4.233,-2.051l0.539,-3.789l-2.948,-1.27l-3.363,4l-3.385,2.34l1.947,-5.561l3.073,-1.608l0.806,-4.337Z" style="fill:#33653a;"/><clipPath id="_clip15"><path d="M86.392,101.111l3.035,-5.381l-6.425,1.494l-2.224,0.806l3.365,-5.246l-1.693,-3.554l-3.823,0.629l-2.027,4.867l-2.814,-0.133l-0.233,-6.603c0,0 0.83,-2.101 -0.465,-0.778c-1.296,1.323 -4.136,5.966 -4.136,5.966l-1.139,2.473l-0.313,-6.456c0,0 -0.767,-0.376 -1.031,0.659c-0.264,1.034 -2.886,7.61 -2.886,7.61l-1.735,0.056l-1.784,-0.608l-4.301,0.415c0,0 -0.44,2.925 0.81,4.037c1.25,1.112 4.208,5.679 4.208,5.679c0,0 0.742,2.274 2.432,3.316c1.689,1.042 5.281,2.473 5.281,2.473c0,0 2.219,0.842 3.903,0.475c1.685,-0.366 1.937,-2.942 3.118,-0.69c1.182,2.252 2.064,7.399 2.064,7.399c0,0 0.142,1.359 2.461,1.207c2.319,-0.151 3.218,-0.469 3.218,-0.469l0.855,-0.691c0,0 -1.048,0.32 0.342,0.719c1.391,0.399 2.237,6.433 3.038,4.799c0.801,-1.634 -0.351,-6.151 0.062,-6.867c0.412,-0.715 -1.596,-1.611 -1.596,-1.611l2.911,-2.035l5.086,-1.681l-4.233,-2.051l0.539,-3.789l-2.948,-1.27l-3.363,4l-3.385,2.34l1.947,-5.561l3.073,-1.608l0.806,-4.337Z"/></clipPath><g clip-path="url(#_clip15)"><path d="M67.482,87.814l-2.717,16.011c-2.023,-2.031 -3.858,-2.784 -5.501,-2.244l-3.678,-4.286l-0.822,5.817l5.75,4.557c0,0 4.197,-4.143 3.419,-2.634c-0.778,1.509 -2.479,4.445 -1.652,7.509c0.827,3.064 2.856,3.426 2.961,2.075c0.105,-1.351 1.538,-3.606 1.538,-3.606l0.743,-1.74l2.436,-1.564l-0.21,5.364l-0.939,2.201l3.127,-3.314l0.665,-2.394l1.484,-3.721c0,0 0.852,-6.258 1.201,-4.313c0.349,1.945 2.779,11.553 2.779,11.553l-1.575,4.646l0.278,5.937l3.017,-7.071l2.916,-1.254l3.138,5.095l0.91,8.92l1.352,-0.919l0.995,-6.618l1.472,-11.391l-6.811,4.922l-0.91,-1.39l-1.798,-0.33l-0.887,-1.861l0.291,-9.912l-1.74,3.568l-0.184,-3.921l-1.074,-2.256l-0.276,5.42l-2.497,-7.758l-0.806,1.659l-2.409,3.707l-1.611,1.524l-1.7,-0.312l-1.209,1.039l-0.957,2.452l1.025,-5.537l1.488,-7.317l0.385,-3.711l5.092,-5.297l-4.154,14.789l5.181,-8.18l2.379,-3.324l4.398,-1.853l0.172,3.92l-5.456,6.774l8.037,-2.413l2.265,-0.743l2.568,0.04l-6.805,9.015l-1.262,4.187l1.284,2.696l0.917,-2.149l5.382,-3.598l1.241,3.242l-6.702,7.323l0.332,0.507l16.759,4.976l-23.792,15.839l-30.116,-28.856l3.78,-11.978l17.093,-7.519Z" style="fill:#96e54d;"/></g><path d="M115.384,20.115l5.99,-13.795l-12.824,9.365l-3.785,-9.097l-1.617,10.142l-1.6,-12.624l-4.072,7.436l-2.725,-10.281l-6.139,12.609l0.316,-11.407l-4.501,8.081l-6.641,-7.107l1.666,12.839l0.992,8.59c0,0 6.168,-1.071 7.943,-2.086c1.775,-1.015 2.333,-0.828 4.099,-0.003c1.767,0.826 4.863,2.587 7.935,3.763c3.072,1.176 7.707,4.332 7.707,4.332l5.094,0.47c0,0 -2.964,1.75 0,0c2.964,-1.749 5.089,-3.145 5.089,-3.145l6.11,-1.604l-5.543,-1.59l-3.494,-4.888Z" style="fill:#33653a;"/><clipPath id="_clip16"><path d="M115.384,20.115l5.99,-13.795l-12.824,9.365l-3.785,-9.097l-1.617,10.142l-1.6,-12.624l-4.072,7.436l-2.725,-10.281l-6.139,12.609l0.316,-11.407l-4.501,8.081l-6.641,-7.107l1.666,12.839l0.992,8.59c0,0 6.168,-1.071 7.943,-2.086c1.775,-1.015 2.333,-0.828 4.099,-0.003c1.767,0.826 4.863,2.587 7.935,3.763c3.072,1.176 7.707,4.332 7.707,4.332l5.094,0.47c0,0 -2.964,1.75 0,0c2.964,-1.749 5.089,-3.145 5.089,-3.145l6.11,-1.604l-5.543,-1.59l-3.494,-4.888Z"/></clipPath><g clip-path="url(#_clip16)"><path d="M76.474,2.387l4.646,9.025l1.979,3.906c0,0 2.291,-7.836 2.184,-7.856c-0.106,-0.021 4.163,-7.088 4.163,-7.088l-3.477,14.19l1.988,1.663l2.36,-8.487l5.239,-8.97l-2.076,15.971l4.709,-3.386l0.128,-8.885l3.568,0.424l-1.036,12.188l1.648,3.992l0.218,-11.484l2.132,-2.41l0.858,10.615l1.772,3.748l-0.225,-10.569l14.439,-3.792l-10.533,16.043l8.063,-0.518l13.001,7.229l-10.933,8.33l-10.145,-1.761l-3.493,-11.335c0,0 0.536,0.284 -3.213,-0.18c-3.75,-0.464 -10.196,-1.748 -10.196,-1.748l-1.408,1.812l-8.98,4.522l-11.506,-3.315l4.126,-21.874Z" style="fill:#96e54d;"/></g><path d="M55.688,89.539l-4.596,1.411l-0.091,7.434l-2.814,-6.47l0.196,-4.586l-2.909,1.992l1.277,5.995l-1.907,2.311l-1.928,-5.978l0.986,-0.16l-3.571,-3.705l-0.686,1.977l0.902,7.876l-3.336,-8.088l-0.141,-1.709l-2.222,2.064l0.496,4.052l0.132,3.627l-3.902,-8.61l1.165,7.266l-2.66,-0.981l-1.077,-4.808l1.56,-2.328l-2.547,0.563l-0.18,5.988l-2.971,3.583c0,0 -0.379,-1.241 1.169,1.118c1.548,2.358 3.597,4.358 4.712,5.462c1.114,1.105 0.74,1.196 2.864,1.783c2.124,0.586 1.582,0.54 4.487,1.153c2.904,0.613 2.039,3.84 4.539,0.837c2.499,-3.003 -0.915,-7.424 2.427,-3.02c3.342,4.403 4.057,5.245 5.021,6.481c0.963,1.236 1.504,0.612 1.504,0.612c0,0 0.5,-0.466 1.096,-1.077c0.596,-0.611 0.851,-0.131 1.159,-0.979c0.307,-0.848 0.137,-1.969 0.137,-1.969c0,0 0.823,-0.609 -1.532,-3.12c-2.354,-2.512 -2.107,-2.117 -0.075,-2.3c2.032,-0.183 2.71,-0.64 2.71,-0.64l-2.125,-2.068l-0.177,-6.074l2.908,-4.915Z" style="fill:#33653a;"/><clipPath id="_clip17"><path d="M55.688,89.539l-4.596,1.411l-0.091,7.434l-2.814,-6.47l0.196,-4.586l-2.909,1.992l1.277,5.995l-1.907,2.311l-1.928,-5.978l0.986,-0.16l-3.571,-3.705l-0.686,1.977l0.902,7.876l-3.336,-8.088l-0.141,-1.709l-2.222,2.064l0.496,4.052l0.132,3.627l-3.902,-8.61l1.165,7.266l-2.66,-0.981l-1.077,-4.808l1.56,-2.328l-2.547,0.563l-0.18,5.988l-2.971,3.583c0,0 -0.379,-1.241 1.169,1.118c1.548,2.358 3.597,4.358 4.712,5.462c1.114,1.105 0.74,1.196 2.864,1.783c2.124,0.586 1.582,0.54 4.487,1.153c2.904,0.613 2.039,3.84 4.539,0.837c2.499,-3.003 -0.915,-7.424 2.427,-3.02c3.342,4.403 4.057,5.245 5.021,6.481c0.963,1.236 1.504,0.612 1.504,0.612c0,0 0.5,-0.466 1.096,-1.077c0.596,-0.611 0.851,-0.131 1.159,-0.979c0.307,-0.848 0.137,-1.969 0.137,-1.969c0,0 0.823,-0.609 -1.532,-3.12c-2.354,-2.512 -2.107,-2.117 -0.075,-2.3c2.032,-0.183 2.71,-0.64 2.71,-0.64l-2.125,-2.068l-0.177,-6.074l2.908,-4.915Z"/></clipPath><g clip-path="url(#_clip17)"><path d="M27.129,86.099l1.873,4.35l0.05,5.399l0.707,4.234l1.341,-5.412l0.675,-5.814l2.203,8.566l-0.077,2.313l2.25,2.202l-0.985,-4.847l-1.229,-7.64l3.304,0.471l-0.099,1.741l2.708,7.919l-0.906,1.953l0.924,0.758l1.627,-0.361l-0.814,-3.997l-1.422,-5.975l0.444,-2.232l3.55,2.243l1.574,5.665l-0.933,3.317l2.962,0.944l-0.161,-6.635l-2.451,-7.117l4.061,3.883l0.358,8.252l2.357,-1.664l-0.592,-7.194l0.634,-0.545l1.699,3.892l-1.202,6.911l1.038,1.574c0,0 4.027,8.991 3.849,9.412c-0.179,0.421 0.438,4.527 -2.235,4.105c-2.673,-0.421 -6.493,-2.929 -7.378,-4.007c-0.884,-1.078 -2.017,-7.73 -3.66,-7.588c-1.643,0.142 -3.497,-0.463 -4.735,-0.706c-1.237,-0.243 -3.322,-0.69 -3.322,-0.69c0,0 3.712,3.464 0.422,1.603c-3.29,-1.861 -3.767,-2.566 -3.767,-2.566l-0.081,-0.984l-3.282,-0.188l-5.142,-1.296l-0.483,-6.325l4.346,-7.924" style="fill:#96e54d;"/></g></g></g></svg>