<?xml version="1.0" encoding="UTF-8" standalone="no"?><!DOCTYPE svg PUBLIC "-//W3C//DTD SVG 1.1//EN" "http://www.w3.org/Graphics/SVG/1.1/DTD/svg11.dtd"><svg width="100%" height="100%" viewBox="0 0 216 205" version="1.1" xmlns="http://www.w3.org/2000/svg" xmlns:xlink="http://www.w3.org/1999/xlink" xml:space="preserve" xmlns:serif="http://www.serif.com/" style="fill-rule:evenodd;clip-rule:evenodd;stroke-linecap:round;stroke-linejoin:round;stroke-miterlimit:1.5;"><g id="Grass_Ramp_LeftUp_high-angle3"><path d="M108.248,107.664l0,96.598l-107.331,-53.665l0,-96.598l107.331,53.665Z" style="fill:#584224;"/><clipPath id="_clip1"><path d="M108.248,107.664l0,96.598l-107.331,-53.665l0,-96.598l107.331,53.665Z"/></clipPath><g clip-path="url(#_clip1)"><path d="M90.779,174.061l11.734,-4.08l-0.235,-16.22l-6.989,-11.582l-11.749,-1.319l-5.988,4.725l-1.503,10.627l14.73,17.849" style="fill:#643636;stroke:#000;stroke-width:1px;"/><path d="M86.457,190.409l17.273,-3.671l-1.819,-6.447l-9.043,-3.99l-7.196,0.973l-8.01,3.61l-0.029,5.632l8.824,3.893Z" style="fill:#643636;"/><path d="M49.515,166.082l4.778,5.836l11.198,0.057l2.666,-4.497l2.281,-7.998l-9.77,-12.374l-3.564,4.939l-5.673,0.498l-3.86,9.848l1.944,3.691" style="fill:#643636;"/><path d="M74.605,140.214l-6.21,-6.587l4.114,-12.273l9.074,-1.736l7.963,-0.801l2.764,4.187l3.72,-1.191l5.458,1.532l1.351,4.444l-6.164,3.963l-4.606,2.727l-8.414,4.037l-9.05,1.698Z" style="fill:#643636;stroke:#000;stroke-width:1px;"/><path d="M35.455,151.159l-4.295,-4.586l-1.861,-10.647l2.87,-9.418l12.278,-2.445l3.22,7.815l-0.159,7.685l-4.699,7.216l-7.354,4.38Z" style="fill:#643636;"/><path d="M16.381,105.231l-2.402,-3.625l-5.092,-7.684l2.215,-5.783l10.317,-18.523c0,0 7.68,6.584 10.235,6.868c2.555,0.284 7.573,5.082 7.573,5.082l-3.959,8.979l-9.33,5.376l-9.557,9.31Z" style="fill:#643636;"/><path d="M61.67,119.273l-10.818,-2.741l-10.012,-8.444l2.664,-7.435l5.35,-5.277l7.762,2.587l4.721,5.79l3.252,6.875l-2.919,8.645" style="fill:#816b40;stroke:#000;stroke-width:1px;"/><path d="M4.907,125.188l8.581,-9.593l7.678,8.655l1.217,22.863l-12.832,4.345l-4.296,-9.13l-0.348,-17.14" style="fill:#643636;"/><path d="M82.467,190.852l17.273,-3.67l-1.819,-6.448l-9.043,-3.989l-7.196,0.973l-8.01,3.609l-0.029,5.633l8.824,3.892Zm4.322,-16.347l-14.73,-17.849l1.503,-10.628l5.988,-4.725l11.749,1.32l6.989,11.581l0.235,16.221l-11.734,4.08Zm-41.263,-7.98l-1.945,-3.691l3.86,-9.847l5.673,-0.498l3.564,-4.94l9.77,12.374l-2.281,7.998l-2.666,4.498l-11.198,-0.057l-4.777,-5.837Zm-44.609,-40.894l8.581,-9.592l7.678,8.654l1.217,22.864l-12.832,4.344l-4.296,-9.129l-0.348,-17.141Zm30.548,25.971l-4.295,-4.585l-1.861,-10.648l2.87,-9.418l12.278,-2.445l3.22,7.815l-0.159,7.685l-4.698,7.217l-7.355,4.379Zm39.15,-10.944l-6.21,-6.587l4.114,-12.274l9.074,-1.735l7.964,-0.802l2.763,4.188l3.72,-1.192l5.458,1.533l1.351,4.444l-6.164,3.962l-4.605,2.728l-8.415,4.037l-9.05,1.698Zm-12.935,-20.941l-10.818,-2.742l-10.012,-8.443l2.664,-7.436l5.35,-5.277l7.762,2.587l4.721,5.79l3.252,6.875l-2.919,8.646Zm-45.289,-14.043l-7.494,-11.309l2.215,-5.782l10.317,-18.523c0,0 7.68,6.583 10.235,6.867c2.555,0.285 7.573,5.082 7.573,5.082l-3.959,8.98l-9.33,5.375l-9.557,9.31Z" style="fill:#311807;fill-opacity:0.5;"/></g><path d="M0.917,53.999l5.367,18.783l5.366,-2.684l0,10.733l6.142,-3.07l-0.775,21.853l5.366,-8.049l0,10.733l5.367,-4.526l-3.149,8.783l8.515,1.109l1.668,6.201l3.699,-4.643l1.349,11.184l4.017,-2.009l0.969,10.249l4.398,-2.199l0,9.879l3.857,-8.509l0,12.801l6.876,-1.439l-2.309,8.762l5.181,-3.958l1.241,13.624l3.889,-6.817l2.731,10.494l5.367,-1.24l1.99,8.943l2.084,-0.254l1.292,15.027l5.367,-6.33l4.297,10.645l4.758,0.927l3.155,7.671l9.256,7.589l107.332,-53.665l-6.466,-7.501l-3.647,-8.289l-7.413,-5.22l-2.908,-7.476l-6.399,-6.397l-4.061,-10.51l-8.085,-8.059l-3.954,-9.637l-7.297,-7.407l-3.436,-7.577l-4.428,-3.258l-6.305,-8.378l-3.241,-8.51l-7.492,-6.649l-2.675,-6.493l-5.955,-3.406l-6.066,-12.05l-6.771,-5.56l-2.495,-6.608l-1.979,-2.783l-3.12,-1.56l-3.139,-6.936l-107.331,53.666Z" style="fill:#e18764;"/><clipPath id="_clip2"><path d="M0.917,53.999l5.367,18.783l5.366,-2.684l0,10.733l6.142,-3.07l-0.775,21.853l5.366,-8.049l0,10.733l5.367,-4.526l-3.149,8.783l8.515,1.109l1.668,6.201l3.699,-4.643l1.349,11.184l4.017,-2.009l0.969,10.249l4.398,-2.199l0,9.879l3.857,-8.509l0,12.801l6.876,-1.439l-2.309,8.762l5.181,-3.958l1.241,13.624l3.889,-6.817l2.731,10.494l5.367,-1.24l1.99,8.943l2.084,-0.254l1.292,15.027l5.367,-6.33l4.297,10.645l4.758,0.927l3.155,7.671l9.256,7.589l107.332,-53.665l-6.466,-7.501l-3.647,-8.289l-7.413,-5.22l-2.908,-7.476l-6.399,-6.397l-4.061,-10.51l-8.085,-8.059l-3.954,-9.637l-7.297,-7.407l-3.436,-7.577l-4.428,-3.258l-6.305,-8.378l-3.241,-8.51l-7.492,-6.649l-2.675,-6.493l-5.955,-3.406l-6.066,-12.05l-6.771,-5.56l-2.495,-6.608l-1.979,-2.783l-3.12,-1.56l-3.139,-6.936l-107.331,53.666Z"/></clipPath><g clip-path="url(#_clip2)"><path d="M0.917,107.664l-24.522,-52.138l131.853,-65.926l125.245,168.14l-146.711,57.256l-85.865,-107.332Z" style="fill:#febc3b;fill-opacity:0.15;"/><path d="M103.848,-2.442l4.4,15.399l5.367,-2.683l0,10.733l6.142,-3.071l-0.776,21.854l5.367,-8.05l0,10.733l5.366,-4.525l-3.148,8.783l8.515,1.109l1.668,6.2l3.699,-4.643l1.349,11.185l4.017,-2.009l0.969,10.249l4.398,-2.199l0,9.878l3.857,-8.509l0,12.802l6.876,-1.44l-2.309,8.763l5.18,-3.959l1.241,13.625l3.889,-6.817l2.732,10.493l5.367,-1.24l1.989,8.944l2.084,-0.254l1.293,15.026l5.367,-6.33l4.297,10.645l4.757,0.928l3.156,7.67l3.889,19.115l17.191,-8.051l3.593,5.21l-116.382,54.507l-3.89,-19.115l-3.155,-7.671l-4.757,-0.927l-4.297,-10.645l-5.367,6.33l-1.293,-15.026l-2.084,0.253l-1.99,-8.943l-5.366,1.24l-2.732,-10.494l-3.889,6.817l-1.241,-13.624l-5.18,3.959l2.309,-8.763l-6.876,1.44l0,-12.802l-3.857,8.509l0,-9.878l-4.398,2.198l-0.969,-10.248l-4.017,2.008l-1.35,-11.184l-3.698,4.643l-1.668,-6.2l-8.515,-1.109l3.148,-8.783l-5.366,4.525l0,-10.733l-5.367,8.05l0.775,-21.854l-6.141,3.071l0,-10.733l-5.367,2.683l-5.366,-18.783l96.564,-48.282Z" style="fill:#985736;fill-opacity:0.35;"/></g><g><path d="M26.809,41.053l112.697,147.58l53.666,-26.833l-112.698,-147.58l-53.665,26.833Z" style="fill:#84775b;"/><g><path d="M134.399,83.286l9.125,0.109l3.293,-7.524l-6.611,-6.917l-4.084,-7.704l-8.339,-6.846l-14.247,4.63l-0.343,9.596l5.664,9.669l15.542,4.987Z" style="fill:#a3bac5;"/><path d="M135.793,89.32l9.125,0.109l3.293,-7.523l-6.611,-6.918l-4.084,-7.704l-8.339,-6.845l-14.247,4.629l-0.343,9.597l5.664,9.668l15.542,4.987Z" style="fill:#273f4b;fill-opacity:0.6;"/><path d="M87.534,32.31l12.645,6.319l7.079,6.561l3.394,0.04l4.21,0.051l-0.697,-4.809l-0.388,-4.805l-5.659,-3.462l-2.717,-3.715l-4.708,-2.58l-11.146,-4.934l-1.514,1.778l-2.98,6.165l2.481,3.391Z" style="fill:#a3bac5;"/><path d="M88.928,38.344l12.645,6.32l7.079,6.56l3.394,0.041l4.21,0.05l-0.697,-4.808l-0.388,-4.805l-5.658,-3.462l-2.718,-3.716l-4.708,-2.58l-11.146,-4.934l-1.514,1.778l-2.979,6.166l2.48,3.39Z" style="fill:#273f4b;fill-opacity:0.6;"/><path d="M93.41,9.598l9.578,4.075l1.836,7.327l0.042,7.346l-5.453,1.02l-9.574,-3.707l-9.909,-3.291l-7.566,-2.099l3.66,-3.47l-1.406,-3.42l1.54,-4.504l3.066,-1.205l14.186,1.928" style="fill:#a3bac5;"/><path d="M94.805,15.633l9.577,4.074l1.836,7.327l0.042,7.347l-5.453,1.019l-9.574,-3.706l-9.909,-3.292l-7.566,-2.098l3.66,-3.471l-1.406,-3.42l1.54,-4.504l3.066,-1.204l14.187,1.928" style="fill:#273f4b;fill-opacity:0.6;"/><path d="M122.501,45.306l6.054,7.084l-4.986,7.767l-3.638,9.061l-10.672,-6.132l-9.274,-1.917l1.115,-6.607l-5.755,-10.844l7.309,-6.761l6.822,-1.525l9.482,5.031l3.543,4.843Z" style="fill:#a3bac5;"/><path d="M123.895,51.34l6.054,7.085l-4.986,7.767l-3.638,9.061l-10.672,-6.132l-9.274,-1.918l1.115,-6.607l-5.755,-10.843l7.309,-6.761l6.822,-1.525l9.482,5.03l3.543,4.843Z" style="fill:#273f4b;fill-opacity:0.6;"/><path d="M153.716,115.962l12.645,6.319l7.08,6.561l3.393,0.041l4.211,0.05l-0.697,-4.808l-0.388,-4.805l-5.659,-3.462l-2.718,-3.716l-4.707,-2.58l-11.147,-4.934l-1.514,1.778l-2.979,6.165l2.48,3.391Z" style="fill:#a3bac5;"/><path d="M155.11,121.997l12.645,6.319l7.08,6.561l3.393,0.04l4.211,0.051l-0.697,-4.809l-0.388,-4.805l-5.659,-3.462l-2.717,-3.715l-4.708,-2.58l-11.146,-4.934l-1.515,1.777l-2.979,6.166l2.48,3.391Z" style="fill:#273f4b;fill-opacity:0.6;"/><path d="M185.724,124.815l6.054,7.084l-4.986,7.767l-3.638,9.061l-10.672,-6.132l-9.274,-1.917l1.115,-6.607l-5.755,-10.844l7.309,-6.761l6.822,-1.525l9.482,5.031l3.543,4.843Z" style="fill:#a3bac5;"/><path d="M187.118,130.849l6.054,7.085l-4.986,7.767l-3.638,9.061l-10.672,-6.132l-9.274,-1.918l1.115,-6.607l-5.755,-10.843l7.309,-6.761l6.822,-1.525l9.483,5.03l3.542,4.843Z" style="fill:#273f4b;fill-opacity:0.6;"/><path d="M40.838,37.334l-9.043,-1.179l-10.91,2.143l3.078,10.633l4.703,4.4l1.045,6.781l7.308,2.035l5.822,-7.976l5.861,-5.818l-2.732,-8.193l-5.132,-2.826Z" style="fill:#a3bac5;"/><path d="M42.162,43.384l-9.043,-1.179l-10.91,2.143l3.078,10.633l4.703,4.4l1.045,6.782l7.308,2.034l5.822,-7.976l5.861,-5.818l-2.732,-8.193l-5.132,-2.826Z" style="fill:#273f4b;fill-opacity:0.6;"/><path d="M43.675,52.412l11.093,7.28l4.988,12.305l-6.194,4.655l-6.854,2.239l-13.083,-7.511l-9.506,-0.224l0.591,-9.589l3.026,-4.73l5.465,-2.575l10.474,-1.85Z" style="fill:#a3bac5;"/><path d="M44.999,58.462l11.093,7.28l4.988,12.305l-6.194,4.655l-6.854,2.239l-13.083,-7.51l-9.506,-0.225l0.591,-9.588l3.026,-4.73l5.465,-2.576l10.474,-1.85Z" style="fill:#273f4b;fill-opacity:0.6;"/><path d="M108.531,136.309l-9.043,-1.179l-10.91,2.143l3.079,10.633l4.703,4.4l1.045,6.782l7.307,2.034l5.823,-7.976l5.861,-5.818l-2.732,-8.193l-5.133,-2.826Z" style="fill:#a3bac5;"/><path d="M109.855,142.36l-9.043,-1.18l-10.91,2.143l3.079,10.633l4.703,4.4l1.045,6.782l7.307,2.034l5.823,-7.975l5.861,-5.819l-2.732,-8.193l-5.133,-2.825Z" style="fill:#273f4b;fill-opacity:0.6;"/><path d="M111.368,151.387l11.094,7.28l4.987,12.305l-6.194,4.655l-6.853,2.239l-13.084,-7.51l-9.505,-0.225l0.59,-9.588l3.027,-4.73l5.464,-2.576l10.474,-1.85Z" style="fill:#a3bac5;"/><path d="M112.692,157.438l11.094,7.279l4.987,12.305l-6.194,4.655l-6.853,2.239l-13.084,-7.51l-9.505,-0.225l0.59,-9.588l3.027,-4.73l5.464,-2.575l10.474,-1.85Z" style="fill:#273f4b;fill-opacity:0.6;"/><path d="M71.622,94.706l13.261,7.176l6.693,12.518l-8.021,1.855l-6.962,-0.164l-13.87,-9.066l-6.626,-1.021l1.23,-6.539l-9.022,-9.518l0.401,-6.704l3.857,-1.329l5.559,2.141l2.027,2.84l11.473,7.811" style="fill:#a3bac5;"/><path d="M72.946,100.756l13.261,7.176l6.693,12.518l-8.021,1.855l-6.962,-0.164l-13.87,-9.066l-6.626,-1.02l1.23,-6.54l-9.022,-9.518l0.401,-6.704l3.857,-1.328l5.559,2.14l2.027,2.84l11.473,7.811" style="fill:#273f4b;fill-opacity:0.6;"/><path d="M49.542,65.107c1.553,1.056 11.037,13.464 11.037,13.464l1.228,12.01l-11.38,-1.446l-3.7,-7.686l-6.757,-6.965c0,0 8.018,-10.433 9.572,-9.377Z" style="fill:#a3bac5;"/><path d="M50.866,71.157c1.553,1.056 11.037,13.465 11.037,13.465l1.228,12.009l-11.38,-1.446l-3.7,-7.686l-6.758,-6.965c0,0 8.019,-10.432 9.573,-9.377Z" style="fill:#273f4b;fill-opacity:0.6;"/><path d="M129.098,167.334c1.554,1.055 11.038,13.464 11.038,13.464l1.228,12.009l-11.38,-1.446l-3.7,-7.686l-6.758,-6.965c0,0 8.018,-10.432 9.572,-9.376Z" style="fill:#a3bac5;"/><path d="M130.422,173.384c1.554,1.056 11.038,13.464 11.038,13.464l1.228,12.009l-11.38,-1.446l-3.7,-7.686l-6.758,-6.964c0,0 8.018,-10.433 9.572,-9.377Z" style="fill:#273f4b;fill-opacity:0.6;"/><path d="M145.882,77.308l-10.989,3.614l-5.786,9.532l5.511,6.148l11.432,5.328l9.899,-2.728l8.071,-5.226l-6.387,-6.897l-6.849,-5.966l-4.902,-3.805" style="fill:#a3bac5;"/><path d="M147.276,83.342l-10.989,3.615l-5.786,9.531l5.511,6.148l11.432,5.328l9.899,-2.727l8.071,-5.227l-6.387,-6.897l-6.849,-5.966l-4.902,-3.805" style="fill:#273f4b;fill-opacity:0.6;"/><path d="M189.739,138.564l-10.989,3.615l-5.785,9.531l5.511,6.148l11.432,5.328l9.899,-2.728l8.071,-5.226l-6.388,-6.897l-6.848,-5.966l-4.903,-3.805" style="fill:#a3bac5;"/><path d="M191.133,144.599l-10.989,3.614l-5.785,9.531l5.511,6.149l11.432,5.327l9.899,-2.727l8.071,-5.227l-6.388,-6.896l-6.848,-5.967l-4.903,-3.804" style="fill:#273f4b;fill-opacity:0.6;"/><path d="M156.05,91.21l-5.797,2.443l-8.614,8.399l6.057,8.281l9.447,-0.542l7.817,-3.456l-8.055,-7.802l0.999,-1.94l-0.488,-2.855l-1.366,-2.528Z" style="fill:#a3bac5;"/><path d="M157.444,97.244l-5.796,2.443l-7.211,7.024l3.276,3.711l8.939,-0.287l5.095,-3.006l-3.448,-2.562l1,-1.94l-0.489,-2.854l-1.366,-2.529Z" style="fill:#273f4b;fill-opacity:0.6;"/><path d="M87.016,112.33l-7.526,2.083l-3.034,5.726l7.258,11.683l9.502,9.851l7.024,-4.295l5.242,-9.894l-18.466,-15.154Z" style="fill:#a3bac5;"/><path d="M88.34,118.38l-7.526,2.083l-3.034,5.726l8.763,11.742l6.467,4.954l7.54,-5.96l4.883,-6.024l-17.093,-12.521Z" style="fill:#273f4b;fill-opacity:0.6;"/></g></g></g></svg>