<?xml version="1.0" encoding="UTF-8" standalone="no"?><!DOCTYPE svg PUBLIC "-//W3C//DTD SVG 1.1//EN" "http://www.w3.org/Graphics/SVG/1.1/DTD/svg11.dtd"><svg width="100%" height="100%" viewBox="0 0 323 258" version="1.1" xmlns="http://www.w3.org/2000/svg" xmlns:xlink="http://www.w3.org/1999/xlink" xml:space="preserve" xmlns:serif="http://www.serif.com/" style="fill-rule:evenodd;clip-rule:evenodd;stroke-linejoin:round;stroke-miterlimit:1.41421;"><g id="Grass_Ramp_LeftUp_low-angle1"><path d="M107.846,106.991l107.332,150.969l-214.663,-108.037l0,-96.598l107.331,53.666Z" style="fill:#584224;"/><clipPath id="_clip1"><path d="M107.846,106.991l107.332,150.969l-214.663,-108.037l0,-96.598l107.331,53.666Z"/></clipPath><g clip-path="url(#_clip1)"><path d="M90.377,173.388l11.734,-4.08l-0.235,-16.221l-6.989,-11.581l-11.749,-1.32l-5.988,4.725l-1.503,10.628l14.73,17.849" style="fill:#643636;"/><path d="M86.055,189.735l17.273,-3.67l-1.819,-6.448l-9.043,-3.989l-7.196,0.973l-8.01,3.609l-0.029,5.633l8.824,3.892Z" style="fill:#643636;"/><path d="M49.114,165.408l4.777,5.837l11.198,0.057l2.667,-4.498l2.28,-7.998l-9.77,-12.374l-3.564,4.94l-5.673,0.498l-3.859,9.847l1.944,3.691" style="fill:#643636;"/><path d="M74.203,139.541l-6.21,-6.587l4.114,-12.274l9.074,-1.735l7.964,-0.802l2.763,4.188l3.72,-1.192l5.458,1.533l1.351,4.444l-6.163,3.962l-4.606,2.728l-8.415,4.037l-9.05,1.698Z" style="fill:#643636;"/><path d="M35.053,150.485l-4.295,-4.585l-1.861,-10.648l2.87,-9.418l12.278,-2.445l3.22,7.815l-0.159,7.685l-4.698,7.217l-7.355,4.379Z" style="fill:#643636;"/><path d="M15.979,104.557l-7.493,-11.309l2.214,-5.782l10.317,-18.523c0,0 7.68,6.583 10.235,6.867c2.555,0.285 7.573,5.083 7.573,5.083l-3.959,8.979l-9.33,5.375l-9.557,9.31Z" style="fill:#643636;"/><path d="M61.268,118.6l-10.818,-2.742l-10.012,-8.443l2.664,-7.436l5.35,-5.277l7.762,2.587l4.721,5.79l3.252,6.875l-2.919,8.646" style="fill:#643636;"/><path d="M4.505,124.514l8.581,-9.592l7.678,8.654l1.217,22.864l-12.832,4.344l-4.296,-9.129l-0.348,-17.141" style="fill:#643636;"/><path d="M82.065,190.179l17.273,-3.671l-1.819,-6.448l-9.043,-3.989l-7.196,0.973l-8.01,3.61l-0.029,5.632l8.824,3.893Zm4.322,-16.348l-14.73,-17.849l1.503,-10.627l5.988,-4.726l11.749,1.32l6.989,11.581l0.235,16.221l-11.734,4.08Zm-41.263,-7.98l-1.944,-3.69l3.859,-9.848l5.673,-0.498l3.564,-4.939l9.77,12.374l-2.28,7.997l-2.667,4.498l-11.198,-0.057l-4.777,-5.837Zm-44.609,-40.893l8.581,-9.593l7.678,8.654l1.217,22.864l-12.832,4.345l-4.296,-9.13l-0.348,-17.14Zm30.548,25.971l-4.295,-4.586l-1.861,-10.647l2.87,-9.418l12.278,-2.445l3.22,7.814l-0.159,7.686l-4.698,7.216l-7.355,4.38Zm39.15,-10.945l-6.21,-6.587l4.115,-12.273l9.073,-1.736l7.964,-0.802l2.763,4.188l3.72,-1.191l5.458,1.532l1.351,4.444l-6.163,3.963l-4.606,2.727l-8.415,4.037l-9.05,1.698Zm-12.935,-20.941l-10.818,-2.741l-10.012,-8.444l2.664,-7.435l5.35,-5.277l7.762,2.587l4.721,5.789l3.252,6.875l-2.919,8.646Zm-45.289,-14.043l-7.493,-11.309l2.214,-5.782l10.317,-18.523c0,0 7.68,6.584 10.235,6.868c2.555,0.284 7.573,5.082 7.573,5.082l-3.959,8.979l-9.33,5.376l-9.557,9.309Z" style="fill:#311807;fill-opacity:0.5;"/><path d="M193.342,227.554l11.734,-4.08l-0.235,-16.221l-6.989,-11.581l-11.749,-1.32l-5.988,4.725l-1.503,10.628l14.73,17.849" style="fill:#643636;"/><path d="M189.02,243.901l17.273,-3.67l-1.819,-6.448l-9.043,-3.989l-7.196,0.973l-8.01,3.609l-0.029,5.633l8.824,3.892Z" style="fill:#643636;"/><path d="M152.079,219.574l4.777,5.836l11.198,0.058l2.667,-4.498l2.28,-7.998l-9.77,-12.374l-3.564,4.94l-5.673,0.498l-3.859,9.847l1.944,3.691" style="fill:#643636;"/><path d="M177.168,193.706l-6.21,-6.586l4.115,-12.274l9.073,-1.736l7.964,-0.801l2.763,4.188l3.72,-1.192l5.458,1.532l1.351,4.444l-6.163,3.963l-4.606,2.728l-8.415,4.036l-9.05,1.698Z" style="fill:#643636;"/><path d="M138.018,204.651l-4.295,-4.586l-1.861,-10.647l2.87,-9.418l12.278,-2.445l3.22,7.815l-0.159,7.685l-4.698,7.216l-7.355,4.38Z" style="fill:#643636;"/><path d="M118.944,158.723l-7.493,-11.309l2.215,-5.782l10.316,-18.524c0,0 7.68,6.584 10.235,6.868c2.555,0.284 7.573,5.082 7.573,5.082l-3.959,8.98l-9.33,5.375l-9.557,9.31Z" style="fill:#816b40;"/><path d="M164.233,172.766l-10.818,-2.742l-10.012,-8.443l2.664,-7.436l5.35,-5.277l7.762,2.587l4.721,5.79l3.252,6.875l-2.919,8.646" style="fill:#816b40;"/><path d="M107.47,178.68l8.581,-9.593l7.679,8.655l1.216,22.864l-12.832,4.344l-4.296,-9.129l-0.348,-17.141" style="fill:#643636;"/><path d="M185.03,244.345l17.273,-3.671l-1.819,-6.448l-9.043,-3.989l-7.196,0.973l-8.01,3.61l-0.029,5.632l8.824,3.893Zm4.322,-16.348l-14.73,-17.849l1.504,-10.627l5.987,-4.726l11.749,1.32l6.989,11.581l0.235,16.221l-11.734,4.08Zm-41.263,-7.98l-1.944,-3.691l3.859,-9.847l5.673,-0.498l3.564,-4.94l9.77,12.374l-2.28,7.998l-2.667,4.498l-11.198,-0.057l-4.777,-5.837Zm-44.609,-40.894l8.581,-9.592l7.679,8.654l1.217,22.864l-12.833,4.344l-4.296,-9.129l-0.348,-17.141Zm30.548,25.971l-4.295,-4.585l-1.861,-10.648l2.871,-9.417l12.278,-2.446l3.219,7.815l-0.159,7.686l-4.698,7.216l-7.355,4.379Zm39.15,-10.944l-6.21,-6.587l4.115,-12.274l9.073,-1.735l7.964,-0.802l2.763,4.188l3.72,-1.191l5.458,1.532l1.351,4.444l-6.163,3.963l-4.606,2.727l-8.414,4.037l-9.051,1.698Zm-12.935,-20.941l-10.818,-2.741l-10.012,-8.444l2.664,-7.436l5.35,-5.277l7.762,2.587l4.721,5.79l3.253,6.875l-2.92,8.646Zm-45.289,-14.043l-7.493,-11.309l2.215,-5.782l10.316,-18.523c0,0 7.68,6.584 10.235,6.868c2.555,0.284 7.573,5.082 7.573,5.082l-3.959,8.979l-9.33,5.376l-9.557,9.309Z" style="fill:#311807;fill-opacity:0.5;"/></g><path d="M0.515,53.325l5.367,16.472l5.366,-3.527l2.029,11.412l10.188,2.205l3.883,14.158l5.366,-6.148l1.521,9.592l9.213,-1.723l3.223,13.307l6.471,-4.296l2.074,9.836l11.476,-0.896l4.059,12.292l5.876,-0.452l3.024,8.898l6.729,-1.259l2.861,15.767l5.918,-6.584l-0.118,6.743l3.36,-3.451l1.61,6.172l7.835,1.097l-1.098,10.163l7.938,-4.158l-1.473,10.232l5.367,-1.156l-1.699,6.277l11.281,-0.067l1.151,9.454l7.198,-1.298l0.96,5.78l5.367,-2.724l1.792,8.447l6.149,-1.994l2.062,7.828l5.667,0.471l0.53,3.904l5.048,-1.327l2.793,9.337l6.366,-3.183l-2.404,5.164l6.771,-0.444l2.5,7.946l8.233,0.78l0,7.291l5.366,-0.828l2.067,6.391l4.596,-1.002l-1.296,8.675l8.197,0.141l-0.058,5.338l7.961,9.582l107.801,-54.136l-5.837,-5.612l-7.061,-8.609l-7.278,-4.185l-4.73,-6.707l-7.763,-7.93l-6.048,-4.264l-5.679,-6.918l-9.74,-6.344l-3.098,-5.928l-6.698,-4.036l-8.008,-6.118l-5.015,-7.569l-10.543,-6.625l-5.107,-7.016l-8.591,-5.199l-7.461,-10.77l-9.877,-6.783l-5.669,-6.986l-6.957,-4.006l-4.454,-5.478l-7.165,-3.528l-5.71,-7.562l-3.549,-1.774l-1.527,-4.501l-5.016,-3.187l-4.581,-5.87l-5.908,-4.242l-1.872,-4.106l-6.625,-6.958l-7.56,-4.977l-3.173,-5.756l-6.722,-3.361l-6.177,-8.455l-8.567,-5.237l-5.367,-7.097l-107.331,53.195Z" style="fill:#e18764;"/><clipPath id="_clip2"><path d="M0.515,53.325l5.367,16.472l5.366,-3.527l2.029,11.412l10.188,2.205l3.883,14.158l5.366,-6.148l1.521,9.592l9.213,-1.723l3.223,13.307l6.471,-4.296l2.074,9.836l11.476,-0.896l4.059,12.292l5.876,-0.452l3.024,8.898l6.729,-1.259l2.861,15.767l5.918,-6.584l-0.118,6.743l3.36,-3.451l1.61,6.172l7.835,1.097l-1.098,10.163l7.938,-4.158l-1.473,10.232l5.367,-1.156l-1.699,6.277l11.281,-0.067l1.151,9.454l7.198,-1.298l0.96,5.78l5.367,-2.724l1.792,8.447l6.149,-1.994l2.062,7.828l5.667,0.471l0.53,3.904l5.048,-1.327l2.793,9.337l6.366,-3.183l-2.404,5.164l6.771,-0.444l2.5,7.946l8.233,0.78l0,7.291l5.366,-0.828l2.067,6.391l4.596,-1.002l-1.296,8.675l8.197,0.141l-0.058,5.338l7.961,9.582l107.801,-54.136l-5.837,-5.612l-7.061,-8.609l-7.278,-4.185l-4.73,-6.707l-7.763,-7.93l-6.048,-4.264l-5.679,-6.918l-9.74,-6.344l-3.098,-5.928l-6.698,-4.036l-8.008,-6.118l-5.015,-7.569l-10.543,-6.625l-5.107,-7.016l-8.591,-5.199l-7.461,-10.77l-9.877,-6.783l-5.669,-6.986l-6.957,-4.006l-4.454,-5.478l-7.165,-3.528l-5.71,-7.562l-3.549,-1.774l-1.527,-4.501l-5.016,-3.187l-4.581,-5.87l-5.908,-4.242l-1.872,-4.106l-6.625,-6.958l-7.56,-4.977l-3.173,-5.756l-6.722,-3.361l-6.177,-8.455l-8.567,-5.237l-5.367,-7.097l-107.331,53.195Z"/></clipPath><g clip-path="url(#_clip2)"><path d="M118.58,175.057l-142.424,-119.815l142.424,-71.212l222.313,226.937l-125.715,52.125l-96.598,-88.035Z" style="fill:#febc3b;fill-opacity:0.15;"/><path d="M97.359,-1.06l5.121,15.718l5.366,-3.527l2.029,11.412l10.188,2.205l3.883,14.158l5.367,-6.148l1.52,9.592l9.213,-1.723l3.223,13.307l6.471,-4.296l2.074,9.836l11.476,-0.896l4.059,12.292l5.877,-0.452l3.024,8.898l6.728,-1.259l2.861,15.767l5.918,-6.584l-0.118,6.743l3.36,-3.451l1.61,6.172l7.836,1.097l-1.099,10.163l7.938,-4.158l-1.473,10.232l5.367,-1.156l-1.699,6.277l11.281,-0.067l1.151,9.454l7.198,-1.298l0.96,5.78l5.368,-2.724l1.791,8.447l6.149,-1.994l2.062,7.828l5.667,0.471l0.53,3.904l5.048,-1.327l2.793,9.337l6.366,-3.183l-2.404,5.164l6.771,-0.444l2.5,7.946l8.233,0.78l0,7.291l5.367,-0.828l2.066,6.391l4.596,-1.002l-1.296,8.675l8.197,0.141l-0.058,5.338l10.098,19.012l21.408,-9.118l5.288,5.027l-118.535,50.484l-10.098,-19.012l0.058,-5.338l-8.197,-0.141l1.296,-8.675l-4.596,1.002l-2.067,-6.391l-5.366,0.828l0,-7.291l-8.233,-0.78l-2.5,-7.946l-6.771,0.444l2.404,-5.164l-6.366,3.183l-2.793,-9.337l-5.048,1.327l-0.53,-3.904l-5.667,-0.471l-2.062,-7.828l-6.149,1.994l-1.792,-8.448l-5.367,2.725l-0.96,-5.78l-7.198,1.298l-1.151,-9.454l-11.281,0.067l1.698,-6.277l-5.366,1.156l1.473,-10.232l-7.938,4.158l1.098,-10.163l-7.835,-1.097l-1.61,-6.172l-3.36,3.451l0.118,-6.743l-5.918,6.584l-2.861,-15.768l-6.729,1.26l-3.024,-8.898l-5.876,0.452l-4.059,-12.292l-11.476,0.896l-2.074,-9.836l-6.471,4.296l-3.223,-13.307l-9.213,1.722l-1.521,-9.591l-5.366,6.148l-3.883,-14.158l-10.188,-2.205l-2.029,-11.412l-5.366,3.527l-5.367,-16.472l92.085,-45.639Z" style="fill:#985736;fill-opacity:0.35;"/></g></g></svg>