<?xml version="1.0" encoding="UTF-8" standalone="no"?><!DOCTYPE svg PUBLIC "-//W3C//DTD SVG 1.1//EN" "http://www.w3.org/Graphics/SVG/1.1/DTD/svg11.dtd"><svg width="100%" height="100%" viewBox="0 0 215 173" version="1.1" xmlns="http://www.w3.org/2000/svg" xmlns:xlink="http://www.w3.org/1999/xlink" xml:space="preserve" xmlns:serif="http://www.serif.com/" style="fill-rule:evenodd;clip-rule:evenodd;stroke-linejoin:round;stroke-miterlimit:1.41421;"><g id="Grass_Block_Half01"><path d="M214.892,54.232l0,64.398l-107.331,53.666l0,-64.399l107.331,-53.665Z" style="fill:#936447;"/><clipPath id="_clip1"><path d="M214.892,54.232l0,64.398l-107.331,53.666l0,-64.399l107.331,-53.665Z"/></clipPath><g clip-path="url(#_clip1)"><path d="M204.159,102.531l6.94,8.836l-1.573,15.313l-5.367,8.05l-7.424,-3.712l-3.309,-7.021l0,-10.733l10.733,-10.733" style="fill:#dc8976;"/><path d="M192.904,83.27l9.359,6.054l-1.526,6.129l-5.367,2.683l-3.942,-1.971l-4.19,-4.696l0.429,-5.581l5.237,-2.618Z" style="fill:#dc8976;"/><path d="M161.227,104.957l5.366,-5.11l10.733,1.512l1.945,4.827l1.1,8.239l-11.034,10.883l-2.744,-5.39l-5.366,-1.288l-2.363,-10.291l2.363,-3.382" style="fill:#dc8976;"/><path d="M178.8,131.31l-6.84,5.652l2.278,12.729l8.455,2.989l7.519,1.909l3.214,-3.759l3.402,1.701l5.435,-0.753l1.896,-4.211l-5.367,-4.787l-4.042,-3.346l-7.512,-5.175l-8.438,-2.949Z" style="fill:#dc8976;"/><path d="M142.271,122.741l-7.877,3.939l-5.367,10.282l2.452,9.727l19.014,4.141l6.893,-7.287l1.478,-7.632l-5.86,-7.803l-10.733,-5.367Z" style="fill:#dc8976;"/><path d="M118.294,157.793l-8.71,10.148l1.338,6.036l7.372,19.785c0,0 8.247,-5.443 10.733,-5.366c2.486,0.076 7.942,-3.972 7.942,-3.972l-2.575,-9.445l-8.208,-6.629l-7.892,-10.557Z" style="fill:#dc8976;"/><path d="M166.593,156.089l-10.733,1.199l-10.733,6.958l1.543,7.735l4.41,5.975l7.784,-1.474l5.307,-5.072l4.046,-6.352l-1.624,-8.969" style="fill:#c7a664;"/><path d="M109.584,125.009l8.71,6.93l10.733,-4.853l5.367,-14.554l-14.73,-3.95l-6.737,5.465l-3.343,10.962" style="fill:#dc8976;"/><path d="M122.318,160.693l-8.371,9.702l1.286,5.769l7.085,18.915c0,0 7.928,-5.204 10.317,-5.13c2.39,0.073 7.635,-3.797 7.635,-3.797l-2.476,-9.029l-7.889,-6.338l-7.587,-10.092Zm46.427,-1.629l-10.317,1.146l-10.317,6.652l1.484,7.395l4.238,5.711l7.483,-1.409l5.101,-4.848l3.889,-6.072l-1.561,-8.575Zm11.734,-23.688l-6.576,5.403l2.19,12.169l8.127,2.857l7.228,1.826l3.089,-3.595l3.27,1.627l5.224,-0.72l1.823,-4.026l-5.158,-4.576l-3.885,-3.198l-7.221,-4.948l-8.111,-2.819Zm-35.113,-8.191l-7.572,3.765l-5.159,9.829l2.357,9.299l18.277,3.958l6.626,-6.965l1.421,-7.296l-5.633,-7.46l-10.317,-5.13Zm59.488,-19.321l6.672,8.447l-1.513,14.639l-5.159,7.696l-7.136,-3.549l-3.181,-6.712l0,-10.261l10.317,-10.26Zm-90.907,21.488l3.213,-10.479l6.475,-5.224l14.159,3.776l-5.159,13.913l-10.317,4.64l-8.371,-6.626Zm49.639,-19.168l5.159,-4.885l10.317,1.445l1.869,4.614l1.058,7.876l-10.606,10.404l-2.638,-5.152l-5.159,-1.231l-2.27,-9.838l2.27,-3.233Zm30.45,-20.733l8.995,5.787l-1.466,5.86l-5.158,2.565l-3.79,-1.885l-4.027,-4.489l0.412,-5.335l5.034,-2.503Z" style="fill:#86492a;fill-opacity:0.7;"/></g><path d="M0.23,54.232l107.331,53.665l0,64.399l-107.331,-53.666l0,-64.398" style="fill:#584224;"/><clipPath id="_clip2"><path d="M0.23,54.232l107.331,53.665l0,64.399l-107.331,-53.666l0,-64.398"/></clipPath><g clip-path="url(#_clip2)"><path d="M90.091,174.294l11.734,-4.08l-0.235,-16.22l-6.989,-11.582l-11.749,-1.32l-5.987,4.726l-1.504,10.627l14.73,17.849" style="fill:#643636;"/><path d="M73.917,140.447l-6.21,-6.587l4.115,-12.273l9.073,-1.736l7.964,-0.801l2.763,4.187l3.721,-1.191l5.457,1.532l1.352,4.444l-6.164,3.963l-4.606,2.727l-8.414,4.037l-9.051,1.698Z" style="fill:#643636;"/><path d="M34.767,151.392l-4.294,-4.586l-1.862,-10.647l2.871,-9.418l12.278,-2.445l3.22,7.814l-0.16,7.686l-4.698,7.216l-7.355,4.38Z" style="fill:#643636;"/><path d="M15.694,105.464l-7.494,-11.309l2.215,-5.783l10.317,-18.523c0,0 7.679,6.584 10.234,6.868c2.555,0.284 7.574,5.082 7.574,5.082l-3.96,8.979l-9.329,5.376l-9.557,9.31Z" style="fill:#643636;"/><path d="M60.983,119.506l-10.819,-2.741l-10.011,-8.444l2.663,-7.435l5.35,-5.277l7.762,2.587l4.722,5.79l3.252,6.874l-2.919,8.646" style="fill:#643636;"/><path d="M4.22,125.421l8.581,-9.593l7.678,8.654l1.217,22.864l-12.832,4.345l-4.296,-9.13l-0.348,-17.14" style="fill:#643636;"/><path d="M81.779,191.085l17.273,-3.67l-1.819,-6.448l-9.042,-3.989l-7.196,0.973l-8.01,3.609l-0.029,5.633l8.823,3.892Zm4.322,-16.347l-14.729,-17.849l1.503,-10.628l5.987,-4.725l11.749,1.32l6.989,11.581l0.235,16.221l-11.734,4.08Zm-41.263,-7.98l-1.944,-3.691l3.859,-9.847l5.674,-0.498l3.564,-4.94l9.769,12.374l-2.28,7.998l-2.666,4.498l-11.198,-0.057l-4.778,-5.837Zm-44.608,-40.894l8.581,-9.592l7.678,8.654l1.217,22.864l-12.832,4.344l-4.296,-9.129l-0.348,-17.141Zm30.547,25.971l-4.294,-4.585l-1.862,-10.648l2.871,-9.418l12.278,-2.445l3.22,7.815l-0.16,7.685l-4.698,7.216l-7.355,4.38Zm39.151,-10.944l-6.211,-6.587l4.115,-12.274l9.073,-1.735l7.964,-0.802l2.763,4.188l3.721,-1.192l5.457,1.532l1.352,4.445l-6.164,3.962l-4.606,2.728l-8.414,4.037l-9.05,1.698Zm-12.935,-20.941l-10.819,-2.742l-10.011,-8.443l2.663,-7.436l5.35,-5.277l7.762,2.587l4.722,5.79l3.252,6.875l-2.919,8.646Zm-45.289,-14.043l-7.494,-11.309l2.215,-5.782l10.317,-18.523c0,0 7.679,6.583 10.234,6.867c2.556,0.285 7.574,5.082 7.574,5.082l-3.96,8.98l-9.329,5.375l-9.557,9.31Z" style="fill:#311807;fill-opacity:0.5;"/></g><path d="M214.892,54.232l0,26.832l-10.733,-16.099l0,16.099l-8.67,-4.335l4.332,15.49l-14.974,-22.965l0.45,7.746l-5.842,0.317l3.238,11.289l-1.845,14.847l-3.522,-12.351l-4.17,-5.269l1.51,16.756l-11.172,-11.925l3.099,25.283l-6.377,-5.412l-2.981,-10l-4.79,6.386l7.771,17.581l-8.607,-1.063l-10.552,-12.529l-12.03,-5.352l3.04,22.285l-10.106,-13.941l-14.4,20.828l-7.526,-23.07l-4.833,20.348l-9.107,-22.734l-8.081,10.683l0.214,18.707l-4.131,-4.472l-4.102,-18.245l-5.367,8.05l-5.366,13.416l-1.917,-17.058l-8.816,3.427l10.733,-18.568l-8.851,9.792l-4.514,-13.843l-13.468,20.655l-5.367,-27.337l-8.823,20.511l-4.172,-24.747l5.659,-10.165l-14.13,3.668l-5.366,13.416l0,-42.932l107.331,-53.666l107.331,53.666Z" style="fill:#e18764;"/><clipPath id="_clip3"><path d="M214.892,54.232l0,26.832l-10.733,-16.099l0,16.099l-8.67,-4.335l4.332,15.49l-14.974,-22.965l0.45,7.746l-5.842,0.317l3.238,11.289l-1.845,14.847l-3.522,-12.351l-4.17,-5.269l1.51,16.756l-11.172,-11.925l3.099,25.283l-6.377,-5.412l-2.981,-10l-4.79,6.386l7.771,17.581l-8.607,-1.063l-10.552,-12.529l-12.03,-5.352l3.04,22.285l-10.106,-13.941l-14.4,20.828l-7.526,-23.07l-4.833,20.348l-9.107,-22.734l-8.081,10.683l0.214,18.707l-4.131,-4.472l-4.102,-18.245l-5.367,8.05l-5.366,13.416l-1.917,-17.058l-8.816,3.427l10.733,-18.568l-8.851,9.792l-4.514,-13.843l-13.468,20.655l-5.367,-27.337l-8.823,20.511l-4.172,-24.747l5.659,-10.165l-14.13,3.668l-5.366,13.416l0,-42.932l107.331,-53.666l107.331,53.666Z"/></clipPath><g clip-path="url(#_clip3)"><path d="M107.561,107.897l0,45.683l-72.924,-1.646l-34.407,-47.118l0,-50.656l107.331,53.737Z" style="fill:#311807;fill-opacity:0.2;"/><path d="M214.892,107.897l0,-53.665l-107.331,53.665l0,53.666l107.331,-53.666Z" style="fill:#febc3b;fill-opacity:0.2;"/><path d="M214.892,54.232l-2.246,14.976l-10.613,-8.547l-3.241,12.354l-6.985,-1.874l-12.71,-4.379l-1.771,6.253l3.709,14.245c0,0 -16.031,-13.515 -14.442,-8.879c1.589,4.636 5.367,16.209 5.367,16.209l-10.733,-8.159l2.682,22.807l-10.352,-15.909l-3.064,11.571l0,10.942l-16.099,-15.995l-7.94,1.397l-0.549,15.825l-7.611,-7.329l-5.367,14.519l-5.366,-0.262l-7.79,-14.628l-5.219,8.124l-10.143,-14.119l-14.414,12.573l-10.733,5.367l2.547,-22.74l-13.28,12.006l-7.129,-14.297l-6.252,15.621l-8.086,-17.423l-13.38,6.69l13.38,-22.79c0,0 -0.373,-1.702 -2.747,-1.374c-2.373,0.329 -18.719,1.374 -18.719,1.374l-5.366,2.683l-0.072,-26.868l107.332,-53.666l107.402,53.702Z" style="fill:#985736;fill-opacity:0.5;"/></g></g></svg>