<?xml version="1.0" encoding="UTF-8" standalone="no"?><!DOCTYPE svg PUBLIC "-//W3C//DTD SVG 1.1//EN" "http://www.w3.org/Graphics/SVG/1.1/DTD/svg11.dtd"><svg width="100%" height="100%" viewBox="0 0 98 178" version="1.1" xmlns="http://www.w3.org/2000/svg" xmlns:xlink="http://www.w3.org/1999/xlink" xml:space="preserve" xmlns:serif="http://www.serif.com/" style="fill-rule:evenodd;clip-rule:evenodd;stroke-linejoin:round;stroke-miterlimit:1.41421;"><g id="Ladder02"><path d="M22.297,6.055c2.115,6.543 5.891,7.687 10.733,5.367c5.961,4.02 9.009,0.94 10.733,-5.367c-1.213,-4.23 -5.536,-5.249 -10.733,-5.366c-5.627,-0.039 -9.362,1.609 -10.733,5.366Z" style="fill:#bcbdcd;"/><path d="M43.763,6.055l-21.466,139.531c-0.43,2.515 -3.281,4.471 -10.733,5.366l1.6,-32.999l14.62,-72.432c-1.566,-8.995 1.923,-21.606 5.246,-34.099c6.034,1.287 8.747,-1.585 10.733,-5.367Z" style="fill:#cacaca;"/><path d="M22.297,6.055l-21.466,139.531c1.392,3.269 5.344,4.804 10.733,5.366c1.61,-15.814 6.429,-47.561 8.587,-53.316c0.292,-0.773 0.501,-1.575 0.625,-2.393c1.118,-7.36 5.728,-38.035 7.269,-51.416c0.505,-11.369 2.267,-23.879 4.985,-32.405c-4.646,-0.319 -8.823,-1.285 -10.733,-5.367Z" style="fill:#bab0a9;"/><path d="M33.03,25.699c1.613,-2.415 3.955,-3.269 6.666,-3.333c15,8.731 29.219,15.376 43.211,21.409l-7.024,3.35c-14.443,-4.17 -28.737,-11.131 -42.853,-21.426Z" style="fill:#bcbdcd;"/><path d="M78.945,57.248l7.751,-15.45l-7.751,6.858c-16.09,-5.988 -31.446,-13.533 -45.915,-22.957c-0.887,1.915 -1.485,4.231 -1.278,7.664l47.193,23.885Z" style="fill:#bab0a9;"/><path d="M28.942,51.31c0.768,-2.673 2.877,-3.904 6.666,-3.333c17.134,5.654 30.976,13.095 43.21,21.41l-7.023,3.349c-11.515,-7.958 -25.716,-15.125 -42.853,-21.426Z" style="fill:#bcbdcd;"/><path d="M74.857,82.859l7.75,-15.449l-7.75,6.857c-13.669,-9.46 -28.851,-17.249 -45.915,-22.957c-0.966,2.306 -1.332,4.888 -1.278,7.664c17.176,6.483 32.619,14.739 47.193,23.885Z" style="fill:#bab0a9;"/><path d="M25.153,77.248c1.778,-2.905 4.023,-3.92 6.665,-3.333c27.129,16.052 41.752,23.342 43.211,21.41l-7.023,3.35l-16.659,-5.18l-26.194,-16.247Z" style="fill:#bcbdcd;"/><path d="M71.067,108.797l7.751,-15.449l-7.751,6.858c-15.051,-5.253 -30.393,-13.255 -45.914,-22.958c-0.069,4.644 -0.223,7.442 0.928,8.4l44.986,23.149Z" style="fill:#bab0a9;"/><path d="M21.364,103.54c1.316,-1.854 3.358,-3.112 6.665,-3.333l18.562,10.625l24.649,10.785l-7.023,3.35c-15.597,-4.827 -29.881,-11.969 -42.853,-21.427Z" style="fill:#bcbdcd;"/><path d="M67.278,135.089l7.751,-15.449l-7.751,6.858c-16.042,-5.957 -31.45,-13.372 -45.914,-22.958c-1.14,2.147 -2.095,4.399 -1.278,7.664l47.192,23.885Z" style="fill:#bab0a9;"/><path d="M17.477,128.131c0.979,-2.744 3.019,-4.095 6.665,-3.333c16.34,10.581 31.565,19.178 43.211,21.41l-7.023,3.35c1.511,6.703 -16.537,-3.738 -42.853,-21.427Z" style="fill:#bcbdcd;"/><path d="M63.391,159.68l7.751,-15.449l-7.751,6.858c-9.051,-0.725 -23.753,-7.71 -45.914,-22.958c-0.684,3.367 -1.246,5.081 -0.546,7.734l46.46,23.815Z" style="fill:#bab0a9;"/><path d="M75.963,32.888c0.582,3.481 3.424,5.685 10.733,5.366c3.7,1.279 7.306,0.198 10.733,-5.366c-1.698,-2.111 -5.66,-3.834 -10.733,-5.367c-5.716,-0.759 -8.881,1.521 -10.733,5.367Z" style="fill:#bcbdcd;"/><path d="M97.429,32.888l-21.466,139.531c-0.709,3.465 -4.026,5.333 -10.733,5.366l-1.958,-15.121c4.952,-47.185 9.987,-94.206 23.424,-124.41c5.319,0.01 8.633,-2.051 10.733,-5.366Z" style="fill:#cacaca;"/><path d="M75.963,32.888l-21.466,139.531c2.711,4.33 6.087,5.232 10.733,5.366c-0.494,-7.008 0.876,-17.196 4.912,-31.932c4.88,-19.243 7.462,-40.099 9.443,-61.377c0.61,-17.395 3.58,-32.125 7.111,-46.222c-4.55,0.001 -8.098,-1.843 -10.733,-5.366Z" style="fill:#bab0a9;"/></g></svg>