<?xml version="1.0" encoding="UTF-8" standalone="no"?><!DOCTYPE svg PUBLIC "-//W3C//DTD SVG 1.1//EN" "http://www.w3.org/Graphics/SVG/1.1/DTD/svg11.dtd"><svg width="100%" height="100%" viewBox="0 0 215 205" version="1.1" xmlns="http://www.w3.org/2000/svg" xmlns:xlink="http://www.w3.org/1999/xlink" xml:space="preserve" xmlns:serif="http://www.serif.com/" style="fill-rule:evenodd;clip-rule:evenodd;stroke-linejoin:round;stroke-miterlimit:1.41421;"><g id="Sand_Ramp_RightUp_high-angle3"><path d="M214.828,53.883l0,96.598l-107.331,53.666l107.331,-150.264Z" style="fill:#b2a386;"/><clipPath id="_clip1"><path d="M214.828,53.883l0,96.598l-107.331,53.666l107.331,-150.264Z"/></clipPath><g clip-path="url(#_clip1)"><path d="M214.828,129.015c0,0 -31.636,3.353 -45.85,22.925c-9.913,13.65 -61.556,48.96 -61.481,52.207c0.588,25.513 -65.459,-90.509 -107.331,-75.132c-41.872,15.376 -13.212,68.526 -13.212,68.526l160.009,19.072l73.232,-47.349l-5.367,-40.249Z" style="fill:#bfac80;"/></g><path d="M214.828,53.883l-107.331,150.264l-107.331,-53.666l107.331,-150.264l107.331,53.666Z" style="fill:#84775b;"/><g><path d="M189.183,40.944l-112.698,147.58l-53.666,-26.832l112.698,-147.581l53.666,26.833Z" style="fill:#84775b;"/><g><path d="M81.593,83.177l-9.125,0.109l-3.293,-7.524l6.611,-6.917l4.084,-7.704l8.339,-6.846l14.247,4.63l0.342,9.597l-5.664,9.668l-15.541,4.987Z" style="fill:#a3bac5;"/><path d="M80.199,89.211l-9.125,0.109l-3.293,-7.523l6.61,-6.918l4.085,-7.704l8.339,-6.845l14.247,4.629l0.342,9.597l-5.664,9.668l-15.541,4.987Z" style="fill:#273f4b;fill-opacity:0.6;"/><path d="M128.458,32.201l-12.645,6.319l-7.08,6.561l-3.393,0.041l-4.211,0.05l0.697,-4.809l0.388,-4.805l5.659,-3.462l2.718,-3.715l4.707,-2.58l11.147,-4.934l1.514,1.778l2.979,6.165l-2.48,3.391Z" style="fill:#a3bac5;"/><path d="M127.064,38.235l-12.645,6.32l-7.08,6.56l-3.393,0.041l-4.211,0.05l0.697,-4.808l0.388,-4.805l5.659,-3.462l2.718,-3.716l4.707,-2.58l11.147,-4.934l1.514,1.778l2.979,6.166l-2.48,3.39Z" style="fill:#273f4b;fill-opacity:0.6;"/><path d="M122.581,9.489l-9.577,4.075l-1.837,7.327l-0.042,7.346l5.454,1.02l9.573,-3.707l9.91,-3.291l7.566,-2.099l-3.66,-3.47l1.406,-3.42l-1.54,-4.504l-3.066,-1.205l-14.187,1.928" style="fill:#a3bac5;"/><path d="M121.187,15.524l-9.577,4.074l-1.837,7.327l-0.042,7.347l5.454,1.019l9.573,-3.706l9.91,-3.292l7.566,-2.098l-3.66,-3.471l1.405,-3.42l-1.54,-4.504l-3.065,-1.204l-14.187,1.928" style="fill:#273f4b;fill-opacity:0.6;"/><path d="M93.491,45.197l-6.054,7.084l4.986,7.767l3.637,9.061l10.673,-6.132l9.274,-1.917l-1.115,-6.607l5.754,-10.844l-7.309,-6.761l-6.822,-1.525l-9.482,5.031l-3.542,4.843Z" style="fill:#a3bac5;"/><path d="M92.097,51.231l-6.055,7.085l4.987,7.767l3.637,9.061l10.673,-6.132l9.273,-1.918l-1.114,-6.607l5.754,-10.843l-7.309,-6.761l-6.822,-1.525l-9.482,5.03l-3.542,4.843Z" style="fill:#273f4b;fill-opacity:0.6;"/><path d="M62.275,115.853l-12.645,6.32l-7.079,6.56l-3.394,0.041l-4.21,0.05l0.697,-4.808l0.388,-4.805l5.659,-3.462l2.717,-3.716l4.708,-2.58l11.146,-4.934l1.514,1.778l2.98,6.166l-2.481,3.39Z" style="fill:#a3bac5;"/><path d="M60.881,121.888l-12.645,6.319l-7.079,6.561l-3.394,0.04l-4.21,0.051l0.697,-4.809l0.388,-4.805l5.658,-3.462l2.718,-3.715l4.708,-2.58l11.146,-4.934l1.514,1.777l2.979,6.166l-2.48,3.391Z" style="fill:#273f4b;fill-opacity:0.6;"/><path d="M30.268,124.706l-6.054,7.084l4.986,7.767l3.637,9.061l10.673,-6.132l9.273,-1.917l-1.114,-6.607l5.754,-10.844l-7.309,-6.761l-6.822,-1.525l-9.482,5.031l-3.542,4.843Z" style="fill:#a3bac5;"/><path d="M28.874,130.74l-6.055,7.085l4.987,7.767l3.637,9.061l10.673,-6.132l9.273,-1.918l-1.114,-6.607l5.754,-10.843l-7.309,-6.761l-6.822,-1.525l-9.482,5.03l-3.542,4.843Z" style="fill:#273f4b;fill-opacity:0.6;"/><path d="M175.154,37.225l9.043,-1.179l10.91,2.143l-3.079,10.633l-4.703,4.4l-1.045,6.781l-7.307,2.035l-5.823,-7.976l-5.861,-5.818l2.732,-8.193l5.133,-2.826Z" style="fill:#a3bac5;"/><path d="M173.83,43.275l9.043,-1.179l10.91,2.143l-3.079,10.633l-4.703,4.4l-1.045,6.782l-7.307,2.034l-5.823,-7.976l-5.861,-5.818l2.732,-8.193l5.133,-2.826Z" style="fill:#273f4b;fill-opacity:0.6;"/><path d="M172.317,52.303l-11.094,7.28l-4.987,12.305l6.194,4.655l6.853,2.239l13.084,-7.511l9.505,-0.224l-0.59,-9.589l-3.026,-4.73l-5.465,-2.575l-10.474,-1.85Z" style="fill:#a3bac5;"/><path d="M170.993,58.353l-11.094,7.28l-4.987,12.305l6.194,4.655l6.853,2.239l13.084,-7.51l9.505,-0.225l-0.59,-9.588l-3.026,-4.73l-5.465,-2.575l-10.474,-1.851Z" style="fill:#273f4b;fill-opacity:0.6;"/><path d="M107.46,136.2l9.044,-1.179l10.909,2.143l-3.078,10.633l-4.703,4.4l-1.045,6.782l-7.308,2.034l-5.822,-7.976l-5.861,-5.818l2.732,-8.193l5.132,-2.826Z" style="fill:#a3bac5;"/><path d="M106.137,142.251l9.043,-1.18l10.909,2.143l-3.078,10.633l-4.703,4.4l-1.045,6.782l-7.308,2.034l-5.822,-7.975l-5.861,-5.819l2.732,-8.193l5.133,-2.825Z" style="fill:#273f4b;fill-opacity:0.6;"/><path d="M104.623,151.278l-11.093,7.28l-4.988,12.305l6.194,4.655l6.854,2.239l13.083,-7.51l9.506,-0.225l-0.591,-9.588l-3.026,-4.73l-5.465,-2.575l-10.474,-1.851Z" style="fill:#a3bac5;"/><path d="M103.299,157.329l-11.093,7.279l-4.988,12.305l6.194,4.655l6.854,2.239l13.083,-7.51l9.506,-0.224l-0.591,-9.589l-3.026,-4.73l-5.465,-2.575l-10.474,-1.85Z" style="fill:#273f4b;fill-opacity:0.6;"/><path d="M144.37,94.597l-13.261,7.176l-6.694,12.518l8.022,1.855l6.962,-0.164l13.87,-9.066l6.625,-1.021l-1.229,-6.539l9.021,-9.518l-0.401,-6.704l-3.857,-1.329l-5.559,2.141l-2.027,2.84l-11.472,7.811" style="fill:#a3bac5;"/><path d="M143.046,100.647l-13.261,7.176l-6.694,12.518l8.022,1.855l6.962,-0.164l13.87,-9.066l6.625,-1.02l-1.229,-6.54l9.021,-9.518l-0.401,-6.704l-3.857,-1.328l-5.559,2.14l-2.027,2.84l-11.472,7.811" style="fill:#273f4b;fill-opacity:0.6;"/><path d="M166.45,64.998c-1.554,1.056 -11.037,13.464 -11.037,13.464l-1.229,12.01l11.381,-1.446l3.7,-7.686l6.757,-6.965c0,0 -8.018,-10.433 -9.572,-9.377Z" style="fill:#a3bac5;"/><path d="M165.126,71.049c-1.554,1.055 -11.037,13.464 -11.037,13.464l-1.229,12.009l11.381,-1.446l3.7,-7.686l6.757,-6.965c0,0 -8.018,-10.432 -9.572,-9.376Z" style="fill:#273f4b;fill-opacity:0.6;"/><path d="M86.893,167.225c-1.554,1.055 -11.037,13.464 -11.037,13.464l-1.229,12.009l11.381,-1.446l3.7,-7.686l6.757,-6.965c0,0 -8.018,-10.432 -9.572,-9.376Z" style="fill:#a3bac5;"/><path d="M85.569,173.275c-1.554,1.056 -11.037,13.464 -11.037,13.464l-1.229,12.009l11.381,-1.446l3.7,-7.686l6.757,-6.964c0,0 -8.018,-10.433 -9.572,-9.377Z" style="fill:#273f4b;fill-opacity:0.6;"/><path d="M70.11,77.199l10.989,3.614l5.785,9.532l-5.511,6.148l-11.432,5.328l-9.899,-2.728l-8.071,-5.226l6.388,-6.897l6.849,-5.966l4.902,-3.805" style="fill:#a3bac5;"/><path d="M68.716,83.233l10.989,3.615l5.785,9.531l-5.511,6.148l-11.432,5.328l-9.899,-2.727l-8.071,-5.227l6.388,-6.896l6.848,-5.967l4.903,-3.805" style="fill:#273f4b;fill-opacity:0.6;"/><path d="M26.252,138.455l10.989,3.615l5.786,9.531l-5.511,6.148l-11.432,5.328l-9.899,-2.728l-8.071,-5.226l6.387,-6.897l6.849,-5.966l4.902,-3.805" style="fill:#a3bac5;"/><path d="M24.858,144.49l10.989,3.614l5.786,9.531l-5.511,6.149l-11.432,5.327l-9.899,-2.727l-8.071,-5.227l6.387,-6.896l6.849,-5.967l4.902,-3.804" style="fill:#273f4b;fill-opacity:0.6;"/><path d="M59.941,91.101l5.797,2.443l8.615,8.399l-6.057,8.281l-9.448,-0.542l-7.816,-3.456l8.054,-7.802l-0.999,-1.94l0.488,-2.855l1.366,-2.528Z" style="fill:#a3bac5;"/><path d="M58.547,97.135l5.797,2.443l7.21,7.024l-3.275,3.711l-8.939,-0.287l-5.096,-3.006l3.448,-2.562l-0.999,-1.94l0.488,-2.854l1.366,-2.529Z" style="fill:#273f4b;fill-opacity:0.6;"/><path d="M128.975,112.221l7.526,2.083l3.034,5.726l-7.257,11.683l-9.503,9.851l-7.023,-4.295l-5.243,-9.894l18.466,-15.154Z" style="fill:#a3bac5;"/><path d="M127.651,118.271l7.526,2.083l3.034,5.726l-8.762,11.742l-6.467,4.954l-7.541,-5.96l-4.882,-6.024l17.092,-12.521Z" style="fill:#273f4b;fill-opacity:0.6;"/></g></g></g></svg>