<?xml version="1.0" encoding="UTF-8" standalone="no"?><!DOCTYPE svg PUBLIC "-//W3C//DTD SVG 1.1//EN" "http://www.w3.org/Graphics/SVG/1.1/DTD/svg11.dtd"><svg width="100%" height="100%" viewBox="0 0 323 258" version="1.1" xmlns="http://www.w3.org/2000/svg" xmlns:xlink="http://www.w3.org/1999/xlink" xml:space="preserve" xmlns:serif="http://www.serif.com/" style="fill-rule:evenodd;clip-rule:evenodd;stroke-linejoin:round;stroke-miterlimit:1.41421;"><g id="Sand_Ramp_LeftUp_low-angle2"><path d="M108.119,107.462l-107.331,-53.665l0,96.598l107.331,53.666" style="fill:#bfac80;"/><clipPath id="_clip1"><path d="M108.119,107.462l-107.331,-53.665l0,96.598l107.331,53.666"/></clipPath><g clip-path="url(#_clip1)"><path d="M0.788,128.929c0,0 32.024,3.078 45.851,22.925c13.827,19.848 36.003,29.26 61.48,30.74c25.478,1.48 65.46,-69.042 107.332,-53.665c41.872,15.376 13.212,68.526 13.212,68.526l-160.009,19.072l-73.232,-47.349l5.366,-40.249Z" style="fill:#b39e70;"/></g><path d="M108.119,204.061l-10.733,-5.367l39.648,19.824l78.417,39.208l0,-96.598l-118.065,-59.032" style="fill:#bfac80;"/><clipPath id="_clip2"><path d="M108.119,204.061l-10.733,-5.367l39.648,19.824l78.417,39.208l0,-96.598l-118.065,-59.032"/></clipPath><g clip-path="url(#_clip2)"><path d="M105.844,182.44c0,0 34.299,3.232 48.126,23.08c13.828,19.847 36.003,29.26 61.481,30.74c25.477,1.48 65.459,-69.042 107.331,-53.666c41.872,15.377 13.212,68.526 13.212,68.526l-160.009,19.073l-73.232,-47.349l3.091,-40.404Z" style="fill:#b39e70;"/></g><path d="M0.788,53.797l214.663,203.929l107.331,-53.665l-214.663,-203.93l-107.331,53.666Z" style="fill:#b2a386;"/><g id="Way_Ramp_Up_low2"><g><path d="M48.042,59.783l0.075,-9.125l7.588,-3.141l6.782,6.749l7.621,4.239l6.676,8.476l-4.917,14.15l-9.601,0.149l-9.553,-5.858l-4.671,-15.639Z" style="fill:#a3bac5;"/><path d="M46.688,64.835l0.075,-9.126l7.588,-3.14l6.783,6.749l7.62,4.239l6.676,8.476l-4.916,14.15l-9.602,0.149l-9.552,-5.858l-4.672,-15.639Z" style="fill:#273f4b;fill-opacity:0.6;"/><path d="M54.25,48.423l-3.836,10.914l-9.646,5.592l-6.036,-5.634l-5.096,-11.538l2.927,-9.841l5.389,-7.964l6.766,6.525l5.827,6.968l3.705,4.978" style="fill:#a3bac5;"/><path d="M52.896,53.475l-3.835,10.914l-9.646,5.591l-6.036,-5.633l-5.096,-11.538l2.927,-9.842l5.388,-7.963l6.766,6.525l5.827,6.968l3.705,4.978" style="fill:#273f4b;fill-opacity:0.6;"/><path d="M40.556,37.976l-2.559,5.746l-8.572,8.444l-8.157,-6.223l0.733,-9.435l3.613,-7.745l7.638,8.21l1.959,-0.959l2.845,0.545l2.5,1.417Z" style="fill:#a3bac5;"/><path d="M39.202,43.028l-2.559,5.746l-7.168,7.067l-3.644,-3.35l0.467,-8.931l3.108,-5.034l2.492,3.499l1.96,-0.96l2.844,0.546l2.5,1.417Z" style="fill:#273f4b;fill-opacity:0.6;"/><path d="M98.061,107.668l-6.063,-12.77l-6.416,-7.211l0.028,-3.393l0.034,-4.211l4.794,0.794l4.796,0.485l3.347,5.727l3.66,2.792l2.484,4.759l4.708,11.244l-1.808,1.478l-6.224,2.854l-3.34,-2.548Z" style="fill:#a3bac5;"/><path d="M96.707,112.719l-6.062,-12.77l-6.417,-7.21l0.028,-3.394l0.035,-4.211l4.793,0.794l4.796,0.485l3.347,5.728l3.66,2.792l2.485,4.759l4.708,11.243l-1.808,1.478l-6.225,2.855l-3.34,-2.549Z" style="fill:#273f4b;fill-opacity:0.6;"/><path d="M120.887,102.251l-3.881,-9.658l-7.288,-1.984l-7.345,-0.19l-1.129,5.431l3.513,9.647l3.09,9.974l1.946,7.607l3.543,-3.59l3.391,1.475l4.534,-1.449l1.267,-3.041l-1.641,-14.222" style="fill:#a3bac5;"/><path d="M119.533,107.302l-3.88,-9.657l-7.289,-1.984l-7.344,-0.191l-1.13,5.432l3.513,9.647l3.091,9.973l1.945,7.607l3.544,-3.589l3.391,1.475l4.534,-1.449l1.266,-3.041l-1.641,-14.223" style="fill:#273f4b;fill-opacity:0.6;"/><path d="M85.774,72.445l-6.961,-6.196l-7.867,4.829l-9.132,3.454l5.915,10.794l1.73,9.31l6.628,-0.981l10.725,5.972l6.907,-7.171l1.663,-6.789l-4.838,-9.582l-4.77,-3.64Z" style="fill:#a3bac5;"/><path d="M84.42,77.497l-6.961,-6.196l-7.866,4.828l-9.133,3.454l5.916,10.794l1.73,9.311l6.628,-0.981l10.725,5.972l6.907,-7.171l1.662,-6.79l-4.838,-9.582l-4.77,-3.639Z" style="fill:#273f4b;fill-opacity:0.6;"/><path d="M187.135,171.438l0.386,9.111l-3.087,10.681l-10.323,-3.994l-3.973,-5.069l-6.665,-1.632l-1.389,-7.458l8.453,-5.104l6.308,-5.331l7.923,3.436l2.367,5.36Z" style="fill:#a3bac5;"/><path d="M185.503,176.406l0.386,9.112l-3.086,10.681l-10.324,-3.994l-3.973,-5.069l-6.665,-1.633l-1.389,-7.457l8.453,-5.104l6.308,-5.332l7.923,3.437l2.367,5.359Z" style="fill:#273f4b;fill-opacity:0.6;"/><path d="M177.461,163.704l-6.284,-11.686l-11.823,-6.042l-5.178,5.764l-2.828,6.633l6.34,13.688l-0.605,9.489l9.603,0.248l4.976,-2.602l3.042,-5.219l2.757,-10.273Z" style="fill:#a3bac5;"/><path d="M175.829,168.673l-6.284,-11.686l-11.823,-6.042l-5.178,5.764l-2.828,6.632l6.341,13.689l-0.606,9.489l9.603,0.248l4.976,-2.602l3.042,-5.22l2.757,-10.272Z" style="fill:#273f4b;fill-opacity:0.6;"/><path d="M240.577,225.986l-2.731,7.316l-5.969,2.522l-11.005,-8.248l-8.984,-10.326l4.89,-6.623l10.314,-4.359l13.485,19.718Z" style="fill:#a3bac5;"/><path d="M238.945,230.954l-2.731,7.316l-5.969,2.523l-10.933,-9.753l-4.371,-6.875l6.595,-6.992l6.428,-4.338l10.981,18.119Z" style="fill:#273f4b;fill-opacity:0.6;"/><path d="M254.234,228.271l0.386,9.111l-3.086,10.681l-10.324,-3.994l-3.973,-5.069l-6.665,-1.633l-1.389,-7.457l8.453,-5.104l6.308,-5.332l7.924,3.437l2.366,5.36Z" style="fill:#a3bac5;"/><path d="M252.603,233.239l0.386,9.112l-3.087,10.681l-10.324,-3.994l-3.973,-5.069l-6.664,-1.633l-1.39,-7.457l8.454,-5.105l6.307,-5.331l7.924,3.437l2.367,5.359Z" style="fill:#273f4b;fill-opacity:0.6;"/><path d="M225.36,208.901l-6.284,-11.686l-11.823,-6.042l-5.178,5.764l-2.828,6.632l6.34,13.689l-0.605,9.489l9.603,0.248l4.976,-2.602l3.042,-5.22l2.757,-10.272Z" style="fill:#a3bac5;"/><path d="M223.728,213.869l-6.284,-11.686l-11.823,-6.042l-5.178,5.765l-2.828,6.632l6.34,13.689l-0.605,9.489l9.603,0.248l4.976,-2.602l3.042,-5.22l2.757,-10.273Z" style="fill:#273f4b;fill-opacity:0.6;"/><path d="M133.368,129.017l-5.991,-13.836l-11.886,-7.759l-2.548,7.828l-0.444,6.95l7.821,14.608l0.439,6.69l6.622,-0.655l8.694,9.818l6.714,0.185l1.66,-3.726l-1.648,-5.725l-2.652,-2.267l-6.781,-12.111" style="fill:#a3bac5;"/><path d="M131.737,133.986l-5.992,-13.836l-11.886,-7.76l-2.548,7.829l-0.444,6.95l7.821,14.608l0.439,6.689l6.622,-0.654l8.695,9.817l6.713,0.186l1.66,-3.727l-1.647,-5.724l-2.653,-2.267l-6.78,-12.111" style="fill:#273f4b;fill-opacity:0.6;"/><path d="M160.928,153.596c-0.916,-1.64 -12.45,-12.17 -12.45,-12.17l-11.856,-2.271l0.448,11.463l7.333,4.356l6.349,7.339c0,0 11.093,-7.077 10.176,-8.717Z" style="fill:#a3bac5;"/><path d="M159.296,158.565c-0.916,-1.64 -12.45,-12.17 -12.45,-12.17l-11.856,-2.272l0.448,11.464l7.333,4.356l6.349,7.339c0,0 11.093,-7.077 10.176,-8.717Z" style="fill:#273f4b;fill-opacity:0.6;"/><path d="M206.151,198.286l-2.731,7.316l-5.969,2.523l-11.006,-8.249l-8.984,-10.325l4.891,-6.623l10.314,-4.359l13.485,19.717Z" style="fill:#a3bac5;"/><path d="M204.519,203.255l-2.731,7.316l-5.969,2.523l-10.933,-9.753l-4.371,-6.875l6.595,-6.992l6.427,-4.338l10.982,18.119Z" style="fill:#273f4b;fill-opacity:0.6;"/></g><g><path d="M175.992,76.733l0.386,9.111l-3.087,10.681l-10.324,-3.994l-3.972,-5.069l-6.665,-1.633l-1.389,-7.457l8.453,-5.104l6.307,-5.332l7.924,3.437l2.367,5.36Z" style="fill:#a3bac5;"/><path d="M174.36,81.701l0.386,9.112l-3.087,10.681l-10.324,-3.994l-3.972,-5.069l-6.665,-1.633l-1.389,-7.457l8.453,-5.105l6.308,-5.331l7.923,3.437l2.367,5.359Z" style="fill:#273f4b;fill-opacity:0.6;"/><path d="M163.631,65.605l-6.284,-11.686l-11.823,-6.042l-5.178,5.764l-2.828,6.632l6.341,13.689l-0.606,9.489l9.604,0.248l4.976,-2.602l3.042,-5.219l2.756,-10.273Z" style="fill:#a3bac5;"/><path d="M162,70.574l-6.284,-11.686l-11.824,-6.042l-5.177,5.764l-2.829,6.632l6.341,13.689l-0.606,9.489l9.604,0.248l4.976,-2.602l3.042,-5.22l2.757,-10.272Z" style="fill:#273f4b;fill-opacity:0.6;"/><path d="M123.92,35.151l-5.992,-13.836l-11.885,-7.76l-2.548,7.829l-0.444,6.95l7.821,14.608l0.439,6.689l6.622,-0.654l8.694,9.817l6.714,0.185l1.66,-3.726l-1.648,-5.724l-2.652,-2.267l-6.781,-12.111" style="fill:#a3bac5;"/><path d="M122.288,40.12l-5.991,-13.837l-11.886,-7.759l-2.548,7.829l-0.444,6.949l7.821,14.608l0.439,6.69l6.622,-0.655l8.694,9.818l6.714,0.185l1.66,-3.726l-1.648,-5.725l-2.652,-2.267l-6.781,-12.11" style="fill:#273f4b;fill-opacity:0.6;"/><path d="M149.084,65.639c-0.916,-1.64 -12.45,-12.17 -12.45,-12.17l-11.856,-2.271l0.447,11.463l7.334,4.356l6.349,7.34c0,0 11.092,-7.078 10.176,-8.718Z" style="fill:#a3bac5;"/><path d="M147.452,70.608c-0.916,-1.64 -12.45,-12.17 -12.45,-12.17l-11.856,-2.272l0.447,11.464l7.334,4.356l6.349,7.339c0,0 11.092,-7.077 10.176,-8.717Z" style="fill:#273f4b;fill-opacity:0.6;"/><path d="M105.31,24.187l-2.731,7.316l-5.969,2.523l-11.005,-8.249l-8.984,-10.325l4.89,-6.623l10.314,-4.359l13.485,19.717Z" style="fill:#a3bac5;"/><path d="M103.678,29.156l-2.731,7.316l-5.969,2.523l-10.933,-9.753l-4.371,-6.875l6.595,-6.992l6.428,-4.338l10.981,18.119Z" style="fill:#273f4b;fill-opacity:0.6;"/><path d="M202.974,103.533l0.386,9.112l-3.087,10.681l-10.324,-3.994l-3.973,-5.069l-6.664,-1.633l-1.389,-7.457l8.453,-5.104l6.307,-5.332l7.924,3.437l2.367,5.359Z" style="fill:#a3bac5;"/><path d="M201.342,108.502l0.386,9.112l-3.087,10.681l-10.324,-3.995l-3.972,-5.069l-6.665,-1.632l-1.389,-7.457l8.453,-5.105l6.308,-5.331l7.923,3.437l2.367,5.359Z" style="fill:#273f4b;fill-opacity:0.6;"/><path d="M193.3,95.8l-6.284,-11.686l-11.823,-6.042l-5.178,5.764l-2.828,6.632l6.34,13.689l-0.606,9.489l9.604,0.248l4.976,-2.602l3.042,-5.22l2.757,-10.272Z" style="fill:#a3bac5;"/><path d="M191.668,100.769l-6.284,-11.686l-11.823,-6.042l-5.178,5.764l-2.828,6.632l6.34,13.689l-0.605,9.489l9.603,0.248l4.976,-2.602l3.042,-5.22l2.757,-10.272Z" style="fill:#273f4b;fill-opacity:0.6;"/><path d="M281.241,190.297l-2.731,7.316l-5.969,2.523l-11.005,-8.249l-8.984,-10.325l4.89,-6.623l10.314,-4.359l13.485,19.717Z" style="fill:#a3bac5;"/><path d="M279.609,195.266l-2.731,7.316l-5.969,2.523l-10.933,-9.753l-4.371,-6.875l6.595,-6.992l6.428,-4.338l10.981,18.119Z" style="fill:#273f4b;fill-opacity:0.6;"/><path d="M309.653,204.885l0.386,9.112l-3.087,10.681l-10.323,-3.994l-3.973,-5.069l-6.665,-1.633l-1.389,-7.457l8.453,-5.105l6.308,-5.331l7.923,3.437l2.367,5.359Z" style="fill:#a3bac5;"/><path d="M308.021,209.854l0.386,9.112l-3.086,10.681l-10.324,-3.995l-3.973,-5.069l-6.665,-1.632l-1.389,-7.457l8.453,-5.105l6.308,-5.331l7.924,3.437l2.366,5.359Z" style="fill:#273f4b;fill-opacity:0.6;"/><path d="M299.979,197.152l-6.284,-11.686l-11.823,-6.042l-5.178,5.764l-2.828,6.632l6.34,13.689l-0.605,9.489l9.603,0.248l4.976,-2.602l3.042,-5.22l2.757,-10.272Z" style="fill:#a3bac5;"/><path d="M298.347,202.12l-6.284,-11.686l-11.823,-6.042l-5.178,5.765l-2.828,6.632l6.341,13.689l-0.606,9.489l9.603,0.248l4.976,-2.602l3.042,-5.22l2.757,-10.273Z" style="fill:#273f4b;fill-opacity:0.6;"/><path d="M238.204,147.255l-5.992,-13.836l-11.886,-7.759l-2.548,7.828l-0.444,6.95l7.821,14.608l0.439,6.689l6.622,-0.654l8.694,9.818l6.714,0.185l1.66,-3.726l-1.648,-5.725l-2.652,-2.267l-6.78,-12.111" style="fill:#a3bac5;"/><path d="M236.572,152.224l-5.992,-13.836l-11.886,-7.76l-2.548,7.829l-0.444,6.95l7.822,14.608l0.438,6.689l6.622,-0.654l8.695,9.817l6.713,0.186l1.66,-3.727l-1.647,-5.724l-2.653,-2.267l-6.78,-12.111" style="fill:#273f4b;fill-opacity:0.6;"/><path d="M265.763,171.834c-0.916,-1.64 -12.45,-12.17 -12.45,-12.17l-11.856,-2.271l0.448,11.463l7.333,4.356l6.349,7.339c0,0 11.093,-7.077 10.176,-8.717Z" style="fill:#a3bac5;"/><path d="M264.131,176.803c-0.916,-1.641 -12.449,-12.17 -12.449,-12.17l-11.857,-2.272l0.448,11.464l7.333,4.356l6.349,7.339c0,0 11.093,-7.077 10.176,-8.717Z" style="fill:#273f4b;fill-opacity:0.6;"/><path d="M221.99,130.382l-2.732,7.316l-5.968,2.523l-11.006,-8.249l-8.984,-10.325l4.89,-6.623l10.315,-4.359l13.485,19.717Z" style="fill:#a3bac5;"/><path d="M220.358,135.351l-2.731,7.316l-5.969,2.523l-10.934,-9.753l-4.371,-6.875l6.595,-6.992l6.428,-4.339l10.982,18.12Z" style="fill:#273f4b;fill-opacity:0.6;"/></g></g></g></svg>