<?xml version="1.0" encoding="UTF-8" standalone="no"?><!DOCTYPE svg PUBLIC "-//W3C//DTD SVG 1.1//EN" "http://www.w3.org/Graphics/SVG/1.1/DTD/svg11.dtd"><svg width="100%" height="100%" viewBox="0 0 323 259" version="1.1" xmlns="http://www.w3.org/2000/svg" xmlns:xlink="http://www.w3.org/1999/xlink" xml:space="preserve" xmlns:serif="http://www.serif.com/" style="fill-rule:evenodd;clip-rule:evenodd;stroke-linejoin:round;stroke-miterlimit:1.41421;"><g id="Sand_Ramp_LeftUp_low-angle1"><path d="M107.949,107.764l-107.331,-53.666l0,96.598l107.331,53.666" style="fill:#bfac80;"/><clipPath id="_clip1"><path d="M107.949,107.764l-107.331,-53.666l0,96.598l107.331,53.666"/></clipPath><g clip-path="url(#_clip1)"><path d="M0.618,129.23c0,0 32.024,3.078 45.851,22.925c13.827,19.848 36.003,29.261 61.48,30.741c25.478,1.479 65.46,-69.043 107.331,-53.666c41.872,15.376 13.212,68.526 13.212,68.526l-160.009,19.072l-73.232,-47.349l5.367,-40.249Z" style="fill:#b39e70;"/></g><path d="M107.949,204.362l-10.733,-5.367l118.064,59.032l0,-96.598l-118.064,-59.032" style="fill:#bfac80;"/><clipPath id="_clip2"><path d="M107.949,204.362l-10.733,-5.367l118.064,59.032l0,-96.598l-118.064,-59.032"/></clipPath><g clip-path="url(#_clip2)"><path d="M105.673,182.742c0,0 34.3,3.232 48.127,23.079c13.827,19.847 36.003,29.26 61.48,30.74c25.478,1.48 65.46,-69.042 107.332,-53.665c41.872,15.376 13.212,68.526 13.212,68.526l-160.009,19.072l-73.232,-47.349l3.09,-40.403Z" style="fill:#b39e70;"/></g><path d="M0.618,54.098l214.662,203.929l107.332,-53.665l-214.663,-203.93l-107.331,53.666Z" style="fill:#b2a386;"/></g></svg>