<?xml version="1.0" encoding="UTF-8" standalone="no"?><!DOCTYPE svg PUBLIC "-//W3C//DTD SVG 1.1//EN" "http://www.w3.org/Graphics/SVG/1.1/DTD/svg11.dtd"><svg width="100%" height="100%" viewBox="0 0 216 151" version="1.1" xmlns="http://www.w3.org/2000/svg" xmlns:xlink="http://www.w3.org/1999/xlink" xml:space="preserve" xmlns:serif="http://www.serif.com/" style="fill-rule:evenodd;clip-rule:evenodd;stroke-linejoin:round;stroke-miterlimit:1.41421;"><g id="Sand_Ramp_RightDown_high-angle1"><path d="M0.659,96.612l107.332,53.665l0,-96.598l-107.332,42.933Z" style="fill:#bfac80;"/><clipPath id="_clip1"><path d="M0.659,96.612l107.332,53.665l0,-96.598l-107.332,42.933Z"/></clipPath><g clip-path="url(#_clip1)"><path d="M-1.338,97.61c0,0 28.755,-10.172 47.848,0.461c21.133,11.769 36.003,29.26 61.481,30.74c25.477,1.48 65.459,-69.042 107.331,-53.666c41.872,15.377 13.212,68.526 13.212,68.526l-160.009,19.073l-73.232,-47.349l3.369,-17.785Z" style="fill:#b39e70;"/></g><path d="M215.322,0.014l-107.331,53.665l0,96.598l63.994,-31.997l43.337,-21.668l0,-96.598" style="fill:#b2a386;"/><clipPath id="_clip2"><path d="M215.322,0.014l-107.331,53.665l0,96.598l63.994,-31.997l43.337,-21.668l0,-96.598"/></clipPath><g clip-path="url(#_clip2)"><path d="M0.659,75.145c0,0 32.024,3.078 45.851,22.926c13.828,19.847 36.003,29.26 61.481,30.74c25.477,1.48 65.459,-69.042 107.331,-53.666c41.872,15.377 13.212,68.526 13.212,68.526l-160.009,19.073l-73.232,-47.349l5.366,-40.25Z" style="fill:#b39e70;"/></g><path d="M0.659,96.612l107.332,-42.933l107.331,-53.665l-107.331,42.932l-107.332,53.666Z" style="fill:#84775b;"/></g></svg>