<?xml version="1.0" encoding="UTF-8" standalone="no"?><!DOCTYPE svg PUBLIC "-//W3C//DTD SVG 1.1//EN" "http://www.w3.org/Graphics/SVG/1.1/DTD/svg11.dtd"><svg width="100%" height="100%" viewBox="0 0 331 163" version="1.1" xmlns="http://www.w3.org/2000/svg" xmlns:xlink="http://www.w3.org/1999/xlink" xml:space="preserve" xmlns:serif="http://www.serif.com/" style="fill-rule:evenodd;clip-rule:evenodd;stroke-linejoin:round;stroke-miterlimit:1.41421;"><g id="Stone_Ramp_RightDown_low-angle1"><g><g><path d="M215.613,65.804l-214.684,-10.744l214.684,107.342c30.26,-40.833 0,-96.598 0,-96.598Z" style="fill:#707a84;"/><clipPath id="_clip1"><path d="M215.613,65.804l-214.684,-10.744l214.684,107.342c30.26,-40.833 0,-96.598 0,-96.598Z"/></clipPath><g clip-path="url(#_clip1)"><g><path d="M210.085,193.293l7.471,-8.393l-0.629,-15.381l-4.861,-8.364l-7.639,3.248l-3.734,6.804l-0.66,10.713l10.052,11.373" style="fill:#6a6256;"/><path d="M186.545,163.008l-6.48,-6.062l3.056,-12.564l8.623,-2.464l7.623,-1.443l2.976,3.95l3.5,-1.488l5.379,1.085l1.634,4.32l-5.651,4.448l-4.24,3.091l-7.817,4.703l-8.603,2.424Z" style="fill:#6a6256;"/><path d="M149.558,169.314l-7.62,-4.416l-4.724,-10.593l3.045,-9.557l19.233,-2.964l6.432,7.697l1.006,7.709l-6.329,7.428l-11.043,4.696Z" style="fill:#6a6256;"/><path d="M127.782,132.853l-8.069,-10.664l1.707,-5.942l8.575,-19.295c0,0 7.897,5.941 10.382,6.017c2.486,0.077 7.683,4.452 7.683,4.452l-3.151,9.269l-8.6,6.112l-8.527,10.051Z" style="fill:#6a6256;"/><path d="M175.885,137.525l-10.639,-1.857l-10.285,-7.605l2.017,-7.626l4.768,-5.691l7.679,1.95l4.985,5.388l3.648,6.589l-2.173,8.852" style="fill:#6a6256;"/><path d="M117.072,165.04l9.12,-6.382l10.414,5.505l4.461,14.856l-14.945,3.037l-6.387,-5.87l-2.663,-11.146" style="fill:#6a6256;"/><path d="M204.719,107.228l7.47,-8.393l-0.628,-15.381l-4.862,-8.364l-7.638,3.248l-3.735,6.804l-0.66,10.713l10.053,11.373" style="fill:#6a6256;"/><path d="M192.3,125.76l9.713,-5.467l-1.145,-6.211l-5.192,-3.009l-4.056,1.725l-4.47,4.43l0.084,5.596l5.066,2.936Z" style="fill:#6a6256;"/><path d="M162.017,102.165l5.042,5.43l10.806,-0.848l2.237,-4.699l1.605,-8.155l-10.343,-11.541l-3.071,5.211l-5.435,0.955l-2.991,10.126l2.15,3.521" style="fill:#6a6256;"/><path d="M176.197,79.145l-6.48,-6.062l3.057,-12.565l8.623,-2.464l7.622,-1.443l2.977,3.95l3.5,-1.488l5.378,1.086l1.634,4.319l-5.651,4.448l-4.24,3.091l-7.816,4.703l-8.604,2.425Z" style="fill:#6a6256;"/><path d="M147.459,90.759l-7.62,-4.416l-4.724,-10.592l3.045,-9.558l19.233,-2.963l6.432,7.697l1.006,7.708l-6.329,7.428l-11.043,4.696Z" style="fill:#6a6256;"/><path d="M119.775,56.616l-8.069,-10.665l1.707,-5.941l8.574,-19.295c0,0 7.897,5.94 10.383,6.017c2.486,0.076 7.683,4.452 7.683,4.452l-3.152,9.269l-8.6,6.112l-8.526,10.051Z" style="fill:#6a6256;"/><path d="M166.772,60.707l-10.639,-1.857l-10.285,-7.605l2.016,-7.626l4.769,-5.692l7.679,1.95l4.985,5.389l3.648,6.588l-2.173,8.853" style="fill:#6a6256;"/><path d="M111.706,78.975l9.119,-6.382l10.414,5.505l4.462,14.856l-14.945,3.037l-6.388,-5.87l-2.662,-11.146" style="fill:#6a6256;"/><path d="M199.199,217.096l9.713,-5.467l-1.145,-6.211l-5.192,-3.009l-4.056,1.725l-4.47,4.43l0.084,5.596l5.066,2.936Zm-30.283,-23.595l5.042,5.43l10.806,-0.848l2.237,-4.699l1.606,-8.155l-10.344,-11.541l-3.071,5.211l-5.435,0.955l-2.991,10.126l2.15,3.521Zm42.702,5.063l7.47,-8.393l-0.628,-15.381l-4.862,-8.364l-7.638,3.248l-3.735,6.804l-0.66,10.713l10.053,11.373Zm-93.013,-28.253l2.662,11.146l6.388,5.87l14.945,-3.037l-4.461,-14.856l-10.415,-5.505l-9.119,6.382Zm32.485,4.274l-7.62,-4.416l-4.724,-10.593l3.045,-9.557l19.234,-2.964l6.431,7.697l1.006,7.709l-6.329,7.427l-11.043,4.697Zm36.987,-6.306l-6.48,-6.062l3.057,-12.564l8.623,-2.464l7.622,-1.443l2.977,3.95l3.5,-1.488l5.378,1.085l1.634,4.32l-5.651,4.448l-4.24,3.091l-7.816,4.703l-8.604,2.424Zm-10.66,-25.483l-10.639,-1.857l-10.284,-7.605l2.016,-7.626l4.769,-5.691l7.679,1.95l4.985,5.388l3.648,6.589l-2.174,8.852Zm-48.102,-4.672l-8.069,-10.664l1.707,-5.942l8.574,-19.295c0,0 7.897,5.94 10.383,6.017c2.486,0.077 7.683,4.452 7.683,4.452l-3.152,9.269l-8.6,6.112l-8.526,10.051Zm64.518,-7.093l9.713,-5.467l-1.146,-6.211l-5.191,-3.009l-4.057,1.725l-4.47,4.43l0.085,5.596l5.066,2.936Zm-30.284,-23.595l5.042,5.43l10.806,-0.848l2.238,-4.699l1.605,-8.155l-10.344,-11.541l-3.07,5.211l-5.436,0.955l-2.99,10.126l2.149,3.521Zm42.702,5.063l7.471,-8.393l-0.629,-15.381l-4.861,-8.364l-7.639,3.248l-3.734,6.804l-0.66,10.713l10.052,11.373Zm-93.013,-28.253l2.663,11.146l6.387,5.869l14.945,-3.036l-4.461,-14.856l-10.414,-5.505l-9.12,6.382Zm35.754,11.784l-7.621,-4.416l-4.724,-10.592l3.045,-9.558l19.234,-2.963l6.432,7.697l1.006,7.708l-6.329,7.428l-11.043,4.696Zm28.738,-11.614l-6.48,-6.062l3.057,-12.565l8.623,-2.464l7.622,-1.443l2.977,3.95l3.5,-1.488l5.378,1.086l1.634,4.319l-5.651,4.448l-4.24,3.091l-7.816,4.703l-8.604,2.425Zm-9.426,-18.438l-10.639,-1.857l-10.285,-7.605l2.017,-7.626l4.768,-5.692l7.68,1.95l4.984,5.389l3.648,6.588l-2.173,8.853Zm-46.997,-4.091l-8.069,-10.665l1.707,-5.941l8.575,-19.295c0,0 7.897,5.94 10.382,6.017c2.486,0.076 7.683,4.452 7.683,4.452l-3.151,9.269l-8.6,6.112l-8.527,10.051Z" style="fill:#273f4b;fill-opacity:0.6;"/></g><g><path d="M120.843,177.689l7.47,-8.393l-0.628,-15.38l-4.862,-8.365l-7.639,3.248l-3.734,6.804l-0.66,10.713l10.053,11.373" style="fill:#6a6256;"/><path d="M78.141,172.626l5.042,5.431l10.806,-0.849l2.237,-4.698l1.605,-8.155l-10.343,-11.542l-3.071,5.211l-5.435,0.955l-2.991,10.126l2.15,3.521" style="fill:#6a6256;"/><path d="M97.302,147.405l-6.48,-6.062l3.057,-12.565l8.623,-2.464l7.622,-1.443l2.977,3.95l3.5,-1.488l5.378,1.086l1.634,4.319l-5.651,4.448l-4.24,3.091l-7.816,4.704l-8.604,2.424Z" style="fill:#6a6256;"/><path d="M60.315,153.71l-7.62,-4.416l-4.724,-10.592l3.045,-9.558l19.234,-2.963l6.431,7.696l1.006,7.709l-6.329,7.428l-11.043,4.696Z" style="fill:#6a6256;"/><path d="M38.54,117.25l-8.069,-10.665l1.706,-5.942l8.575,-19.294c0,0 7.897,5.94 10.383,6.016c2.486,0.077 7.683,4.452 7.683,4.452l-3.152,9.269l-8.6,6.112l-8.526,10.052Z" style="fill:#6a6256;"/><path d="M86.642,121.922l-10.639,-1.857l-10.284,-7.606l2.016,-7.625l4.769,-5.692l7.679,1.95l4.984,5.389l3.648,6.588l-2.173,8.853" style="fill:#6a6256;"/><path d="M27.83,149.436l9.119,-6.382l10.414,5.505l4.462,14.856l-14.946,3.037l-6.387,-5.87l-2.662,-11.146" style="fill:#6a6256;"/><path d="M115.476,91.624l7.471,-8.393l-0.629,-15.38l-4.861,-8.365l-7.639,3.248l-3.734,6.804l-0.661,10.713l10.053,11.373" style="fill:#6a6256;"/><path d="M103.057,110.156l9.714,-5.466l-1.146,-6.212l-5.191,-3.008l-4.057,1.725l-4.47,4.429l0.085,5.597l5.065,2.935Z" style="fill:#6a6256;"/><path d="M72.774,86.561l5.042,5.431l10.806,-0.849l2.238,-4.698l1.605,-8.155l-10.344,-11.542l-3.07,5.211l-5.436,0.955l-2.99,10.126l2.149,3.521" style="fill:#6a6256;"/><path d="M86.955,63.541l-6.48,-6.062l3.057,-12.565l8.623,-2.463l7.622,-1.443l2.977,3.95l3.5,-1.489l5.378,1.086l1.634,4.319l-5.651,4.448l-4.24,3.091l-7.817,4.704l-8.603,2.424Z" style="fill:#6a6256;"/><path d="M58.217,75.156l-7.621,-4.416l-4.724,-10.593l3.045,-9.557l19.234,-2.964l6.431,7.697l1.006,7.709l-6.329,7.427l-11.042,4.697Z" style="fill:#6a6256;"/><path d="M30.532,41.012l-8.069,-10.664l1.707,-5.942l8.575,-19.295c0,0 7.897,5.94 10.382,6.017c2.486,0.076 7.683,4.452 7.683,4.452l-3.152,9.269l-8.599,6.112l-8.527,10.051Z" style="fill:#6a6256;"/><path d="M77.529,45.103l-10.639,-1.857l-10.285,-7.605l2.017,-7.626l4.768,-5.692l7.68,1.951l4.984,5.388l3.648,6.589l-2.173,8.852" style="fill:#6a6256;"/><path d="M22.463,63.371l9.12,-6.382l10.414,5.505l4.461,14.856l-14.945,3.037l-6.387,-5.87l-2.663,-11.146" style="fill:#6a6256;"/><path d="M109.956,201.492l9.714,-5.466l-1.146,-6.212l-5.191,-3.008l-4.057,1.725l-4.47,4.429l0.085,5.597l5.065,2.935Zm-30.283,-23.595l5.042,5.431l10.806,-0.849l2.238,-4.698l1.605,-8.155l-10.344,-11.542l-3.07,5.211l-5.436,0.955l-2.99,10.126l2.149,3.521Zm42.702,5.063l7.471,-8.393l-0.629,-15.38l-4.861,-8.365l-7.639,3.248l-3.734,6.804l-0.66,10.713l10.052,11.373Zm-93.013,-28.253l2.663,11.146l6.387,5.87l14.945,-3.037l-4.461,-14.856l-10.414,-5.505l-9.12,6.382Zm32.486,4.274l-7.621,-4.416l-4.724,-10.592l3.046,-9.558l19.233,-2.964l6.432,7.697l1.006,7.709l-6.329,7.428l-11.043,4.696Zm36.986,-6.305l-6.479,-6.062l3.056,-12.565l8.623,-2.464l7.623,-1.443l2.976,3.95l3.5,-1.488l5.379,1.086l1.633,4.319l-5.65,4.448l-4.241,3.091l-7.816,4.703l-8.604,2.425Zm-10.659,-25.483l-10.639,-1.857l-10.285,-7.606l2.017,-7.625l4.768,-5.692l7.679,1.95l4.985,5.389l3.648,6.588l-2.173,8.853Zm-48.103,-4.673l-8.069,-10.664l1.707,-5.942l8.575,-19.294c0,0 7.897,5.94 10.382,6.016c2.486,0.077 7.683,4.452 7.683,4.452l-3.152,9.269l-8.599,6.112l-8.527,10.051Zm64.518,-7.093l9.713,-5.467l-1.145,-6.211l-5.192,-3.008l-4.056,1.725l-4.47,4.429l0.084,5.597l5.066,2.935Zm-30.283,-23.595l5.042,5.431l10.806,-0.849l2.237,-4.698l1.605,-8.155l-10.343,-11.542l-3.071,5.211l-5.435,0.955l-2.991,10.126l2.15,3.521Zm42.702,5.063l7.47,-8.393l-0.629,-15.381l-4.861,-8.364l-7.639,3.248l-3.734,6.804l-0.66,10.713l10.053,11.373Zm-93.013,-28.253l2.662,11.146l6.387,5.87l14.946,-3.037l-4.462,-14.856l-10.414,-5.505l-9.119,6.382Zm35.753,11.785l-7.62,-4.416l-4.724,-10.593l3.045,-9.557l19.233,-2.964l6.432,7.697l1.006,7.709l-6.329,7.427l-11.043,4.697Zm28.738,-11.615l-6.48,-6.062l3.057,-12.565l8.623,-2.463l7.622,-1.444l2.977,3.951l3.5,-1.489l5.378,1.086l1.634,4.319l-5.651,4.448l-4.24,3.091l-7.816,4.704l-8.604,2.424Zm-9.425,-18.438l-10.639,-1.857l-10.285,-7.605l2.016,-7.626l4.769,-5.692l7.679,1.951l4.985,5.388l3.648,6.588l-2.173,8.853Zm-46.997,-4.091l-8.069,-10.664l1.706,-5.942l8.575,-19.295c0,0 7.897,5.94 10.383,6.017c2.486,0.076 7.683,4.452 7.683,4.452l-3.152,9.269l-8.6,6.112l-8.526,10.051Z" style="fill:#273f4b;fill-opacity:0.6;"/></g></g></g><path d="M322.944,12.139l-107.331,53.665l5.367,29.516l-8.589,33.272l3.222,33.81l107.331,-53.665l3.552,-23.242l-5.441,-36.735l1.889,-36.621" style="fill:#b4b7b8;"/><clipPath id="_clip2"><path d="M322.944,12.139l-107.331,53.665l5.367,29.516l-8.589,33.272l3.222,33.81l107.331,-53.665l3.552,-23.242l-5.441,-36.735l1.889,-36.621"/></clipPath><g clip-path="url(#_clip2)"><g><path d="M317.452,184.115l7.471,-8.946l-0.629,-16.393l-4.861,-8.916l-7.639,3.462l-3.734,7.253l-0.66,11.418l10.052,12.122" style="fill:#b7dff2;"/><path d="M274.75,178.719l5.042,5.788l10.806,-0.905l2.238,-5.007l1.605,-8.693l-10.344,-12.302l-3.07,5.555l-5.436,1.018l-2.99,10.793l2.149,3.753" style="fill:#b7dff2;"/><path d="M293.911,151.836l-6.479,-6.462l3.056,-13.392l8.623,-2.626l7.623,-1.538l2.976,4.211l3.5,-1.587l5.379,1.157l1.633,4.604l-5.65,4.741l-4.241,3.294l-7.816,5.014l-8.604,2.584Z" style="fill:#b7dff2;"/><path d="M256.925,158.556l-7.621,-4.706l-4.724,-11.29l3.046,-10.188l19.233,-3.158l6.432,8.204l1.006,8.216l-6.329,7.917l-11.043,5.005Z" style="fill:#b7dff2;"/><path d="M234.917,127.341l-8.069,-11.367l1.706,-6.333l8.575,-20.565c0,0 7.897,6.331 10.383,6.413c2.486,0.081 7.683,4.745 7.683,4.745l-3.152,9.879l-8.6,6.515l-8.526,10.713Z" style="fill:#b7dff2;"/><path d="M283.252,124.674l-10.639,-1.979l-10.285,-8.106l2.017,-8.128l4.768,-6.067l7.679,2.079l4.985,5.743l3.648,7.023l-2.173,9.435" style="fill:#b7dff2;"/><path d="M217.253,141.919l9.093,-6.349l10.433,5.55l4.516,14.885l-14.93,2.979l-6.408,-5.9l-2.704,-11.165" style="fill:#b7dff2;"/><path d="M312.086,92.381l7.47,-8.946l-0.629,-16.393l-4.861,-8.916l-7.639,3.462l-3.734,7.253l-0.66,11.418l10.053,12.122" style="fill:#b7dff2;"/><path d="M299.667,112.134l9.713,-5.827l-1.145,-6.621l-5.192,-3.206l-4.056,1.839l-4.471,4.72l0.085,5.966l5.066,3.129Z" style="fill:#b7dff2;"/><path d="M275.935,91.128l5.042,5.788l10.806,-0.905l2.237,-5.007l1.606,-8.693l-10.344,-12.302l-3.071,5.555l-5.435,1.018l-2.991,10.793l2.15,3.753" style="fill:#b7dff2;"/><path d="M306.237,54.522l-9.014,-1.578l-5.175,-12.725l5.559,-7.096l5.363,-5.631l4.853,1.743l1.958,-3.307l5.069,-2.136l3.979,2.835l-1.911,7.125l-1.585,5.13l-3.529,8.589l-5.567,7.051Z" style="fill:#b7dff2;"/><path d="M265.524,73.09l-7.621,-4.707l-4.724,-11.29l3.045,-10.188l19.234,-3.158l6.431,8.204l1.006,8.216l-6.329,7.917l-11.042,5.006Z" style="fill:#b7dff2;"/><path d="M229.782,27.96l-8.068,-11.367l1.706,-6.333l8.575,-20.565c0,0 7.897,6.331 10.383,6.413c2.486,0.081 7.683,4.745 7.683,4.745l-3.152,9.88l-8.6,6.514l-8.527,10.713Z" style="fill:#b7dff2;"/><path d="M277.885,32.94l-10.639,-1.979l-10.285,-8.106l2.017,-8.128l4.768,-6.067l7.68,2.079l4.984,5.743l3.648,7.023l-2.173,9.435" style="fill:#b7dff2;"/><path d="M226.346,65.74l9.12,-6.802l10.414,5.867l4.461,15.835l-14.945,3.236l-6.387,-6.256l-2.663,-11.88" style="fill:#b7dff2;"/></g><path d="M308.76,204.87l9.713,-5.827l-1.145,-6.621l-5.192,-3.206l-4.056,1.838l-4.47,4.721l0.084,5.966l5.066,3.129Zm-30.283,-25.149l5.042,5.788l10.806,-0.905l2.237,-5.008l1.606,-8.692l-10.344,-12.302l-3.071,5.554l-5.435,1.019l-2.991,10.793l2.15,3.753Zm42.702,5.396l7.47,-8.946l-0.628,-16.394l-4.862,-8.915l-7.638,3.462l-3.735,7.252l-0.66,11.419l10.053,12.122Zm-100.199,-42.196l2.704,11.165l6.407,5.9l14.931,-2.979l-4.516,-14.885l-10.433,-5.551l-9.093,6.35Zm39.671,16.637l-7.62,-4.707l-4.724,-11.29l3.045,-10.187l19.234,-3.159l6.431,8.204l1.006,8.217l-6.329,7.917l-11.043,5.005Zm36.987,-6.72l-6.48,-6.462l3.057,-13.392l8.623,-2.626l7.622,-1.538l2.977,4.21l3.5,-1.586l5.378,1.157l1.634,4.604l-5.651,4.741l-4.24,3.294l-7.816,5.014l-8.604,2.584Zm-58.995,-24.495l-8.069,-11.367l1.707,-6.333l8.575,-20.566c0,0 7.897,6.332 10.383,6.413c2.485,0.082 7.683,4.746 7.683,4.746l-3.152,9.879l-8.6,6.515l-8.527,10.713Zm48.335,-2.667l-10.639,-1.979l-10.284,-8.106l2.016,-8.128l4.769,-6.067l7.679,2.079l4.985,5.743l3.648,7.022l-2.174,9.436Zm16.416,-12.54l9.713,-5.827l-1.146,-6.621l-5.191,-3.206l-4.057,1.838l-4.47,4.721l0.085,5.966l5.066,3.129Zm-23.733,-21.006l5.042,5.788l10.806,-0.905l2.238,-5.008l1.605,-8.692l-10.343,-12.302l-3.071,5.555l-5.436,1.018l-2.99,10.793l2.149,3.753Zm36.151,1.253l7.471,-8.946l-0.629,-16.394l-4.861,-8.915l-7.639,3.462l-3.734,7.252l-0.66,11.419l10.052,12.122Zm-85.739,-26.641l2.662,11.88l6.388,6.256l14.945,-3.237l-4.461,-15.834l-10.415,-5.867l-9.119,6.802Zm39.177,7.349l-7.62,-4.706l-4.724,-11.29l3.045,-10.188l19.233,-3.158l6.432,8.203l1.006,8.217l-6.329,7.917l-11.043,5.005Zm40.714,-18.567l-9.014,-1.579l-5.175,-12.724l5.559,-7.096l5.362,-5.631l4.853,1.743l1.958,-3.307l5.07,-2.136l3.979,2.835l-1.912,7.125l-1.584,5.13l-3.529,8.589l-5.567,7.051Zm-32.929,-25.797l-6.062,2.236l-10.285,-8.106l2.017,-8.129l4.768,-6.066l7.679,2.079l4.985,5.743l3.648,7.022l-6.75,5.221Zm-43.526,-0.765l-8.069,-11.367l1.707,-6.333l8.575,-20.565c0,0 7.897,6.331 10.382,6.412c2.486,0.082 7.683,4.746 7.683,4.746l-3.152,9.879l-8.599,6.515l-8.527,10.713Z" style="fill:#273f4b;fill-opacity:0.2;"/></g></g><path d="M0.997,55.094l107.331,-53.733l214.616,10.71l-10.733,7.115l-32.377,17.572l-33.709,15.631l-30.512,13.348l-214.616,-10.643Z" style="fill:#9aa7ab;"/><g><g><path d="M272.309,135.811l-11.496,4.495l-1.807,-6.305l-3.268,-22.041c0,0 10.032,1.349 12.203,0.136c2.172,-1.213 9.03,0.1 9.03,0.1l2.399,10.088l-4.005,10.018l-3.056,3.509Z" style="fill:#b7dff2;"/><path d="M313.616,118.652l-10.135,3.794l-12.992,-1.636l-2.467,-8.003l0.953,-7.657l7.651,-2.182l7.233,2.347l6.749,4.133l3.008,9.204" style="fill:#b7dff2;"/><path d="M321.649,76.111l1.783,-11.518l-8.999,-13.718l-8.765,-5.128l-4.756,6.908l0.544,8.139l5.327,10.121l14.866,5.196" style="fill:#b7dff2;"/><path d="M321.205,99.439l5.313,-10.004l-4.398,-5.079l-6.101,-0.068l-2.526,3.668l-1.393,6.351l3.151,5.066l5.954,0.066Z" style="fill:#b7dff2;"/><path d="M290.037,93.693l7.306,2.356l8.789,-6.351l-0.668,-5.445l-3.11,-8.273l-15.209,-5.2l0.236,6.342l-4.13,3.677l3.008,10.788l3.778,2.106" style="fill:#b7dff2;"/><path d="M301.125,56.379l-8.536,3.299l-10.999,-8.228l1.1,-8.947l1.688,-7.59l5.056,-1.012l-0.03,-3.843l3.24,-4.446l4.872,0.376l2.039,7.088l1.29,5.212l1.41,9.179l-1.13,8.912Z" style="fill:#b7dff2;"/><path d="M271.81,83.615l-8.956,-0.1l-9.872,-7.232l-2.649,-10.298l14.845,-12.631l9.742,3.708l5.102,6.519l-1.336,10.047l-6.876,9.987Z" style="fill:#b7dff2;"/><path d="M234.46,97.537l4.301,-10.533l11.949,-0.348l11.992,11.261l-11.131,10.484l-8.7,-2.062l-8.411,-8.802" style="fill:#b7dff2;"/></g><path d="M278.877,130.77l-14.868,7.52l-1.294,-5.354l-3.267,-22.041c0,0 10.031,1.349 12.202,0.136c2.172,-1.213 9.03,0.1 9.03,0.1l2.399,10.088l-4.202,9.551Zm38.448,-13.183l-10.135,3.794l-12.992,-1.636l-2.467,-8.003l0.953,-7.657l7.651,-2.182l7.233,2.347l6.749,4.133l3.008,9.204Zm7.589,-19.213l5.313,-10.004l-4.398,-5.079l-6.101,-0.068l-2.526,3.668l-1.393,6.351l3.151,5.066l5.954,0.066Zm-31.168,-5.746l7.306,2.356l8.789,-6.351l-0.668,-5.445l-3.11,-8.273l-15.209,-5.2l0.237,6.342l-4.131,3.677l3.008,10.788l3.778,2.106Zm31.612,-17.582l1.783,-11.518l-8.999,-13.718l-8.765,-5.128l-4.756,6.908l0.544,8.139l5.327,10.121l14.866,5.196Zm-87.189,21.426l8.411,8.802l8.7,2.062l11.131,-10.484l-11.992,-11.261l-11.949,0.348l-4.301,10.533Zm37.351,-13.922l-8.957,-0.1l-9.872,-7.232l-2.649,-10.298l14.845,-12.631l9.742,3.708l5.102,6.519l-1.336,10.047l-6.875,9.987Zm27.388,-20.739l-8.535,3.3l-10.999,-8.229l1.1,-8.946l1.687,-7.591l5.056,-1.012l-0.029,-3.842l3.24,-4.446l4.871,0.375l2.04,7.089l1.29,5.212l1.41,9.178l-1.131,8.912Z" style="fill:#273f4b;fill-opacity:0.2;"/></g><g><path d="M266.745,121.488l-0.716,-11.213l-11.38,-10.367l-9.366,-2.423l-3.06,7.716l2.213,7.439l7.154,8.001l15.155,0.847" style="fill:#b7dff2;"/><path d="M233.123,148.296l7.407,0.232l6.993,-8.281l-1.768,-4.895l-4.67,-6.875l-15.48,-0.758l1.547,5.847l-3.142,4.537l5.098,9.246l4.015,0.947" style="fill:#b7dff2;"/><path d="M224.534,118.927l-8.866,0.346l-6.786,-11.007l4.31,-7.865l4.333,-6.435l4.902,0.661l1.402,-3.536l4.553,-3.061l4.22,1.875l-0.809,7.145l-0.783,5.189l-2.151,8.865l-4.325,7.823Z" style="fill:#6a6256;"/><path d="M207.139,147.673l-8.498,2.314l-10.854,-4.087l-4.656,-8.885l11.415,-15.761l9.995,0.837l6.189,4.704l0.833,9.723l-4.424,11.155Z" style="fill:#6a6256;"/><path d="M165.901,137.525l-13.257,-1.76l-3.025,-5.391l-7.693,-19.663c0,0 9.776,-1.439 11.578,-3.153c1.802,-1.714 8.568,-2.334 8.568,-2.334l4.376,8.758l-1.7,10.413l1.153,13.13Z" style="fill:#6a6256;"/><path d="M203.042,106.602l-8.8,6.26l-12.639,1.967l-4.005,-6.795l-0.696,-7.393l6.786,-4.09l7.337,0.244l7.25,2.038l4.767,7.769" style="fill:#6a6256;"/><path d="M206.216,86.657l2.941,-10.751l-5.222,-3.553l-5.789,1.577l-1.626,4.098l0.007,6.293l4.04,3.874l5.649,-1.538Z" style="fill:#6a6256;"/><path d="M176.25,95.396l7.407,0.232l6.993,-8.281l-1.767,-4.895l-4.671,-6.875l-15.48,-0.758l1.547,5.847l-3.142,4.537l5.098,9.246l4.015,0.947" style="fill:#6a6256;"/><path d="M161.723,103.752l-8.498,2.315l-10.853,-4.088l-4.656,-8.885l11.414,-15.761l9.996,0.837l6.189,4.705l0.832,9.722l-4.424,11.155Z" style="fill:#6a6256;"/><path d="M116.284,111.078l1.873,-10.972l11.236,-3.535l13.701,7.271l-8.348,12.763l-8.664,0.416l-9.798,-5.943" style="fill:#6a6256;"/><path d="M233.934,149.965l18.415,-7.102l-1.768,-4.895l-4.671,-6.875l-15.479,-0.758l1.547,5.847l-3.143,4.537l5.099,9.246Zm37.637,-25.861l-0.716,-11.213l-11.38,-10.367l-9.366,-2.423l-3.06,7.716l2.213,7.439l7.154,8.001l15.155,0.847Zm-59.606,26.185l-8.498,2.314l-10.854,-4.087l-4.656,-8.885l11.415,-15.762l9.995,0.838l6.189,4.704l0.833,9.723l-4.424,11.155Zm21.519,-30.736l-8.866,0.346l-6.786,-11.007l4.31,-7.864l4.333,-6.435l4.902,0.66l1.402,-3.536l4.553,-3.061l4.22,1.875l-0.809,7.146l-0.783,5.188l-2.151,8.865l-4.325,7.823Zm-25.616,-10.335l-8.8,6.26l-12.639,1.967l-4.006,-6.795l-0.695,-7.393l6.786,-4.09l7.336,0.244l7.251,2.038l4.767,7.769Zm-37.141,30.923l-13.257,-1.76l-3.025,-5.391l-7.693,-19.663c0,0 9.776,-1.439 11.578,-3.153c1.802,-1.714 8.568,-2.334 8.568,-2.334l4.375,8.758l-1.699,10.413l1.153,13.13Zm40.315,-50.868l2.941,-10.751l-5.222,-3.553l-5.79,1.577l-1.625,4.098l0.007,6.293l4.04,3.874l5.649,-1.538Zm-32.387,8.165l7.407,0.232l6.993,-8.281l-1.768,-4.894l-4.671,-6.875l-15.479,-0.759l1.547,5.847l-3.143,4.537l5.099,9.246l4.015,0.947Zm-57.546,16.256l9.799,5.943l8.664,-0.416l8.348,-12.763l-8.018,-4.053l-16.919,0.317l-1.874,10.972Zm45.301,-6.236l-8.497,2.315l-10.854,-4.088l-5.495,-13.836l12.253,-10.81l9.996,0.838l6.189,4.704l0.833,9.723l-4.425,11.154Z" style="fill:#273f4b;fill-opacity:0.6;"/></g><g><path d="M49.98,77.222l1.697,-11.107l-8.9,-12.559l-8.632,-4.37l-4.639,6.883l0.572,7.74l5.278,9.346l14.624,4.067" style="fill:#6a6256;"/><path d="M150.515,104.372l-8.736,-1.557l-4.276,-12.204l5.892,-6.761l5.608,-5.36l4.647,1.693l2.126,-3.154l5.102,-2.017l3.723,2.734l-2.319,6.807l-1.874,4.901l-3.996,8.201l-5.897,6.717Z" style="fill:#6a6256;"/><path d="M104.197,101.438l-8.797,0.445l-9.729,-6.314l-2.649,-9.675l14.521,-12.956l9.585,2.955l5.04,5.918l-1.265,9.676l-6.706,9.951Z" style="fill:#6a6256;"/><path d="M132.154,87.738l-9.935,4.234l-12.767,-0.78l-2.46,-7.495l0.901,-7.37l7.503,-2.545l7.115,1.806l6.647,3.541l2.996,8.609" style="fill:#6a6256;"/><path d="M147.791,71.539l5.172,-9.874l-4.343,-4.586l-5.992,0.302l-2.464,3.656l-1.338,6.149l3.118,4.648l5.847,-0.295Z" style="fill:#6a6256;"/><path d="M108.377,71.063l7.186,1.81l8.602,-6.594l-0.681,-5.16l-3.093,-7.714l-14.959,-4.05l0.261,6.042l-4.04,3.761l3.004,10.122l3.72,1.783" style="fill:#6a6256;"/><path d="M92.4,76.121l-8.797,0.444l-9.729,-6.313l-2.649,-9.675l14.521,-12.957l9.585,2.955l5.04,5.919l-1.265,9.676l-6.706,9.951Z" style="fill:#6a6256;"/><path d="M46.444,73.563l4.176,-10.317l11.732,-1.052l11.83,10.032l-10.883,10.684l-8.553,-1.446l-8.302,-7.901" style="fill:#6a6256;"/><path d="M45.137,78.09l1.698,-11.108l-8.901,-12.559l-8.631,-4.37l-4.639,6.883l0.571,7.741l5.279,9.345l14.623,4.068Zm53.802,26.432l-8.796,0.444l-9.729,-6.313l-2.649,-9.675l14.52,-12.957l9.585,2.955l5.041,5.918l-1.266,9.677l-6.706,9.951Zm48.438,2.228l-8.736,-1.557l-3.48,-13.838l5.096,-5.127l5.608,-5.36l4.648,1.693l2.125,-3.154l5.103,-2.017l3.722,2.734l-2.319,6.807l-1.874,4.901l-3.996,8.201l-5.897,6.717Zm-13.751,-16.538l-9.935,4.234l-12.767,-0.781l-2.46,-7.494l0.901,-7.37l7.503,-2.545l7.115,1.806l6.647,3.541l2.996,8.609Zm10.946,-17.064l5.172,-9.873l-4.343,-4.587l-5.992,0.303l-2.464,3.655l-1.338,6.149l3.118,4.649l5.847,-0.296Zm-38.725,1.476l7.186,1.81l8.602,-6.595l-0.68,-5.159l-3.094,-7.714l-14.959,-4.051l0.261,6.043l-1.961,4.875l0.925,9.008l3.72,1.783Zm-57.931,1.413l8.302,7.901l8.553,1.446l10.883,-10.684l-6.966,-5.673l-16.596,-3.308l-4.176,10.318Zm44.369,-0.016l-7.578,4.053l-9.729,-6.313l-2.41,-14.691l14.281,-7.94l9.586,2.954l3.127,5.326c-1.548,3.284 0.873,7.054 0.648,10.269l-7.925,6.342Z" style="fill:#273f4b;fill-opacity:0.6;"/></g><g><path d="M99.131,43.86l-0.654,-8.499l13.517,-8.092l11.996,-2.038l5.131,5.771l-1.856,5.677l-8.286,6.21l-19.848,0.971" style="fill:#9aa7ab;"/><path d="M147.25,63.409l-9.726,0.337l-10.394,-6.113l1.632,-3.741l5.175,-5.304l20.288,-0.912l-1.205,4.458l4.786,3.364l-5.4,7.107l-5.156,0.804" style="fill:#9aa7ab;"/><path d="M154.383,41.001l11.732,0.068l7.373,-8.476l-6.8,-5.856l-6.625,-4.774l-6.365,0.606l-2.351,-2.644l-6.435,-2.217l-5.294,1.511l2.085,5.389l1.771,3.908l4.096,6.66l6.813,5.825Z" style="fill:#9aa7ab;"/><path d="M181.089,66.945l18.471,1.498l8.646,-3.402l14.101,-3.962l7.802,-10.025l-22.154,-15.81l-18.219,1.904l-10.943,5.682l-6.066,12.197l8.362,11.918Z" style="fill:#9aa7ab;"/><path d="M234.287,53.791l17.217,-1.62l3.218,-4.145l7.335,-15.045c0,0 -13.086,-0.876 -15.705,-2.133c-2.619,-1.258 -11.621,-1.579 -11.621,-1.579l-4.518,6.722l3.723,7.841l0.351,9.959Z" style="fill:#9aa7ab;"/><path d="M180.945,31.206l12.487,4.545l16.933,1.212l4.31,-5.229l-0.138,-5.608l-9.523,-2.947l-9.632,0.345l-9.262,1.7l-5.175,5.982" style="fill:#9aa7ab;"/><path d="M173.922,16.185l-5.408,-8.07l6.376,-2.802l7.852,1.067l2.725,3.065l0.888,4.761l-4.771,3.02l-7.662,-1.041Z" style="fill:#9aa7ab;"/><path d="M214.649,22.143l-9.725,0.337l-10.395,-6.113l1.632,-3.741l5.175,-5.304l20.288,-0.912l-1.205,4.458l4.786,3.364l-5.4,7.106l-5.156,0.805" style="fill:#9aa7ab;"/><path d="M234.98,28.148l11.527,1.565l13.719,-3.329l4.869,-6.824l-17.286,-11.676l-13.05,0.852l-7.485,3.694l0.288,7.375l7.418,8.343Z" style="fill:#9aa7ab;"/><path d="M295.895,32.698l-4.031,-8.26l-15.309,-2.43l-17.016,5.801l12.817,9.474l11.476,0.126l12.063,-4.711" style="fill:#9aa7ab;"/><path d="M146.42,64.689l-25.276,-4.971l1.632,-3.742l5.175,-5.303l20.288,-0.912l-1.205,4.457l4.786,3.364l-5.4,7.107Zm-53.275,-18.744l-0.654,-8.5l13.518,-8.091l11.995,-2.039l5.132,5.771l-1.857,5.677l-8.286,6.21l-19.848,0.972Zm86.809,23.428l18.191,-3.752l20.432,-7.664l4.869,-6.824l-21.694,-12.274l-14.306,-1.024l-9.352,2.101l-3.724,3.536l-3.267,14.051l8.851,11.85Zm-37.274,-27.703l11.732,0.068l7.373,-8.476l-6.8,-5.856l-6.625,-4.774l-6.365,0.607l-2.351,-2.645l-6.436,-2.217l-5.293,1.511l2.085,5.389l1.771,3.908l4.096,6.661l6.813,5.824Zm32.279,-8.379l12.487,4.544l16.934,1.212l4.309,-5.228l-0.137,-5.609l-9.524,-2.946l-9.632,0.344l-9.262,1.701l-5.175,5.982Zm53.343,22.585l17.216,-1.621l3.218,-4.145l7.335,-15.045c0,0 -13.086,-0.875 -15.705,-2.133c-2.618,-1.257 -11.621,-1.578 -11.621,-1.578l-4.518,6.722l3.723,7.841l0.352,9.959Zm-60.366,-37.606l-5.407,-8.07l6.375,-2.802l7.852,1.067l2.725,3.064l0.888,4.762l-4.771,3.019l-7.662,-1.04Zm43.836,5.47l-9.726,0.338l-10.394,-6.113l1.632,-3.742l5.175,-5.303l20.288,-0.912l-1.206,4.458l4.787,3.364l-5.401,7.106l-5.155,0.804Zm78.137,11.043l-12.063,4.71l-11.476,-0.125l-12.817,-9.474l9.987,-3.242l22.338,-0.13l4.031,8.261Zm-60.576,-3.729l11.526,1.566l13.719,-3.33l5.269,-10.588l-17.686,-7.912l-13.05,0.852l-7.484,3.695l0.288,7.374l7.418,8.343Z" style="fill:#273f4b;fill-opacity:0.3;"/></g><g><path d="M47.472,57.942l-9.725,0.338l-10.395,-6.113l1.632,-3.742l5.175,-5.303l20.288,-0.912l-1.205,4.457l4.786,3.364l-5.4,7.107l-5.156,0.804" style="fill:#9aa7ab;"/><path d="M49.296,38.7l11.732,0.069l7.373,-8.477l-6.799,-5.856l-10.493,7.348l-1.813,6.916Z" style="fill:#9aa7ab;"/><path d="M81.62,56.903l11.527,1.566l13.718,-3.33l4.869,-6.824l-17.285,-11.675l-13.05,0.852l-7.485,3.694l0.288,7.374l7.418,8.343Z" style="fill:#9aa7ab;"/><path d="M134.509,48.325l17.217,-1.621l3.218,-4.145l7.335,-15.045c0,0 -13.086,-0.875 -15.705,-2.133c-2.618,-1.257 -11.621,-1.578 -11.621,-1.578l-4.518,6.721l3.723,7.842l0.351,9.959Z" style="fill:#9aa7ab;"/><path d="M81.167,25.74l12.487,4.544l16.934,1.212l4.309,-5.228l-0.137,-5.609l-9.524,-2.946l-9.632,0.344l-9.262,1.701l-5.175,5.982" style="fill:#9aa7ab;"/><path d="M56.516,46.317l-5.407,-8.069l6.376,-2.802l7.852,1.066l2.725,3.065l0.887,4.761l-4.77,3.02l-7.663,-1.041Z" style="fill:#9aa7ab;"/><path d="M114.871,16.676l-9.725,0.338l-10.395,-6.113l1.632,-3.742l5.175,-5.304l20.288,-0.912l-1.205,4.458l4.787,3.364l-5.401,7.107l-5.156,0.804" style="fill:#9aa7ab;"/><path d="M135.203,22.681l11.526,1.566l13.719,-3.33l4.869,-6.824l-17.286,-11.675l-13.05,0.852l-7.485,3.694l0.288,7.374l7.419,8.343Z" style="fill:#9aa7ab;"/><path d="M196.117,27.232l-4.031,-8.261l-15.308,-2.429l-17.017,5.801l12.817,9.474l11.476,0.125l12.063,-4.71" style="fill:#9aa7ab;"/><path d="M46.642,59.223l-25.276,-4.972l1.633,-3.741l5.174,-5.304l20.288,-0.912l-1.205,4.458l4.787,3.364l-5.401,7.107Zm28.993,-0.235l11.526,1.566l13.719,-3.33l4.869,-6.824l-17.286,-11.676l-13.05,0.852l-7.485,3.695l0.288,7.374l7.419,8.343Zm-20.972,-30.794l-6.361,6.909l6.332,1.169l7.373,-8.477l-3.774,-1.386l-3.57,1.785Zm20.518,-0.37l12.487,4.545l16.934,1.212l4.309,-5.229l-0.137,-5.608l-9.524,-2.946l-9.632,0.344l-9.262,1.7l-5.175,5.982Zm53.343,22.586l17.216,-1.621l3.218,-4.145l7.335,-15.045c0,0 -13.086,-0.876 -15.705,-2.133c-2.618,-1.258 -11.621,-1.579 -11.621,-1.579l-4.517,6.722l3.722,7.841l0.352,9.96Zm-75.561,-2.986l-5.407,-8.07l6.375,-2.802l7.852,1.067l2.725,3.065l0.888,4.761l-4.771,3.02l-7.662,-1.041Zm59.031,-29.15l-9.726,0.337l-10.394,-6.112l1.632,-3.742l5.175,-5.304l20.288,-0.912l-1.206,4.458l4.787,3.364l-5.401,7.107l-5.155,0.804Zm78.138,11.042l-12.064,4.711l-11.475,-0.126l-12.817,-9.474l9.986,-3.242l22.339,-0.129l4.031,8.26Zm-60.577,-3.728l11.526,1.565l13.719,-3.329l5.269,-10.589l-17.685,-7.911l-13.051,0.852l-7.484,3.694l0.288,7.375l7.418,8.343Z" style="fill:#273f4b;fill-opacity:0.3;"/></g><g><path d="M99.131,43.86l-0.654,-8.499l13.517,-8.092l11.996,-2.038l5.131,5.771l-1.856,5.677l-8.286,6.21l-19.848,0.971" style="fill:#9aa7ab;"/><path d="M147.25,63.409l-9.726,0.337l-10.394,-6.113l1.632,-3.741l5.175,-5.304l20.288,-0.912l-1.205,4.458l4.786,3.364l-5.4,7.107l-5.156,0.804" style="fill:#9aa7ab;"/><path d="M154.383,41.001l11.732,0.068l7.373,-8.476l-6.8,-5.856l-6.625,-4.774l-6.365,0.606l-2.351,-2.644l-6.435,-2.217l-5.294,1.511l2.085,5.389l1.771,3.908l4.096,6.66l6.813,5.825Z" style="fill:#9aa7ab;"/><path d="M181.398,62.37l11.527,1.565l13.718,-3.329l4.869,-6.824l-17.285,-11.676l-13.051,0.852l-7.484,3.694l0.288,7.375l7.418,8.343Z" style="fill:#9aa7ab;"/><path d="M234.287,53.791l17.217,-1.62l3.218,-4.145l7.335,-15.045c0,0 -13.086,-0.876 -15.705,-2.133c-2.619,-1.258 -11.621,-1.579 -11.621,-1.579l-4.518,6.722l3.723,7.841l0.351,9.959Z" style="fill:#9aa7ab;"/><path d="M180.945,31.206l12.487,4.545l16.933,1.212l4.31,-5.229l-0.138,-5.608l-9.523,-2.947l-9.632,0.345l-9.262,1.7l-5.175,5.982" style="fill:#9aa7ab;"/><path d="M173.922,16.185l-5.408,-8.07l6.376,-2.802l7.852,1.067l2.725,3.065l0.888,4.761l-4.771,3.02l-7.662,-1.041Z" style="fill:#9aa7ab;"/><path d="M214.649,22.143l-9.725,0.337l-10.395,-6.113l1.632,-3.741l5.175,-5.304l20.288,-0.912l-1.205,4.458l4.786,3.364l-5.4,7.106l-5.156,0.805" style="fill:#9aa7ab;"/><path d="M234.98,28.148l11.527,1.565l13.719,-3.329l4.869,-6.824l-17.286,-11.676l-13.05,0.852l-7.485,3.694l0.288,7.375l7.418,8.343Z" style="fill:#9aa7ab;"/><path d="M295.895,32.698l-4.031,-8.26l-15.309,-2.43l-17.016,5.801l12.817,9.474l11.476,0.126l12.063,-4.711" style="fill:#9aa7ab;"/><path d="M146.42,64.689l-25.276,-4.971l1.632,-3.742l5.175,-5.303l20.288,-0.912l-1.205,4.457l4.786,3.364l-5.4,7.107Zm-53.275,-18.744l-0.654,-8.5l13.518,-8.091l11.995,-2.039l5.132,5.771l-1.857,5.677l-8.286,6.21l-19.848,0.972Zm82.267,18.509l11.527,1.566l13.718,-3.33l4.869,-6.824l-17.285,-11.675l-13.05,0.852l-7.485,3.694l0.288,7.374l7.418,8.343Zm-32.732,-22.784l11.732,0.068l7.373,-8.476l-6.8,-5.856l-6.625,-4.774l-6.365,0.607l-2.351,-2.645l-6.436,-2.217l-5.293,1.511l2.085,5.389l1.771,3.908l4.096,6.661l6.813,5.824Zm32.279,-8.379l12.487,4.544l16.934,1.212l4.309,-5.228l-0.137,-5.609l-9.524,-2.946l-9.632,0.344l-9.262,1.701l-5.175,5.982Zm53.343,22.585l17.216,-1.621l3.218,-4.145l7.335,-15.045c0,0 -13.086,-0.875 -15.705,-2.133c-2.618,-1.257 -11.621,-1.578 -11.621,-1.578l-4.518,6.722l3.723,7.841l0.352,9.959Zm-60.366,-37.606l-5.407,-8.07l6.375,-2.802l7.852,1.067l2.725,3.064l0.888,4.762l-4.771,3.019l-7.662,-1.04Zm43.836,5.47l-9.726,0.338l-10.394,-6.113l1.632,-3.742l5.175,-5.303l20.288,-0.912l-1.206,4.458l4.787,3.364l-5.401,7.106l-5.155,0.804Zm78.137,11.043l-12.063,4.71l-11.476,-0.125l-12.817,-9.474l9.987,-3.242l22.338,-0.13l4.031,8.261Zm-60.576,-3.729l11.526,1.566l13.719,-3.33l5.269,-10.588l-17.686,-7.912l-13.05,0.852l-7.484,3.695l0.288,7.374l7.418,8.343Z" style="fill:#273f4b;fill-opacity:0.3;"/></g></g></svg>