<?xml version="1.0" encoding="UTF-8" standalone="no"?><!DOCTYPE svg PUBLIC "-//W3C//DTD SVG 1.1//EN" "http://www.w3.org/Graphics/SVG/1.1/DTD/svg11.dtd"><svg width="100%" height="100%" viewBox="0 0 265 52" version="1.1" xmlns="http://www.w3.org/2000/svg" xmlns:xlink="http://www.w3.org/1999/xlink" xml:space="preserve" xmlns:serif="http://www.serif.com/" style="fill-rule:evenodd;clip-rule:evenodd;stroke-linejoin:round;stroke-miterlimit:1.41421;"><g id="Way_Ramp_Down_low2"><path d="M212.791,6.974l42.933,21.466l-78.556,10.488l-69.58,-2.59l-55.794,8.202l-48.299,-24.15l101.65,-9.654l56.108,4.135l56.673,-9.229" style="fill:#84775b;"/><g><path d="M60.29,44.05l-5.244,-3.33l1.651,-4.071l7.004,-0.183l5.934,-1.414l7.954,0.483l5.939,7.02l-4.302,3.768l-7.754,1.576l-11.182,-3.849Z" style="fill:#a3bac5;"/><path d="M62.594,46.4l-5.245,-3.329l1.652,-4.071l7.004,-0.183l5.934,-1.414l7.954,0.483l5.939,7.02l-4.302,3.768l-7.754,1.576l-11.182,-3.85Z" style="fill:#273f4b;fill-opacity:0.6;"/><path d="M56.556,37.539l4.561,5.431l-1.174,5.755l-6.018,0.296l-9.002,-2.201l-4.356,-4.692l-2.144,-4.965l6.867,-0.257l6.693,0.266l4.573,0.367" style="fill:#a3bac5;"/><path d="M58.86,39.89l4.56,5.431l-1.173,5.754l-6.018,0.297l-9.003,-2.202l-4.355,-4.692l-2.144,-4.964l6.866,-0.258l6.694,0.267l4.573,0.367" style="fill:#273f4b;fill-opacity:0.6;"/><path d="M44.255,39.058l2.154,3.068l0.967,6.37l-7.327,0.904l-5.123,-3.696l-2.829,-4.199l8.24,0.015l0.34,-1.105l1.615,-0.902l1.963,-0.455Z" style="fill:#a3bac5;"/><path d="M46.558,41.409l2.155,3.068l0.812,5.329l-3.603,0.198l-4.953,-3.411l-1.491,-3.023l3.162,0.301l0.341,-1.105l1.615,-0.903l1.962,-0.454Z" style="fill:#273f4b;fill-opacity:0.6;"/><path d="M110.849,42.021l-10.158,-2.274l-7.103,-0.126l-1.951,-1.238l-2.42,-1.537l2.65,-1.567l2.473,-1.68l4.843,0.777l3.287,-0.405l3.888,0.76l8.656,2.245l0.029,1.234l-1.194,3.44l-3,0.371Z" style="fill:#a3bac5;"/><path d="M113.153,44.372l-10.158,-2.274l-7.103,-0.126l-1.951,-1.238l-2.42,-1.537l2.65,-1.567l2.472,-1.68l4.843,0.777l3.288,-0.406l3.888,0.76l8.656,2.246l0.028,1.234l-1.193,3.44l-3,0.371Z" style="fill:#273f4b;fill-opacity:0.6;"/><path d="M118.147,31.232l-7.36,-1.992l-4.479,2.101l-3.466,2.773l2.626,2.401l7.185,2.13l7.182,2.412l5.29,1.999l-0.457,-2.669l2.402,-0.778l1.234,-2.278l-1.18,-1.59l-8.977,-4.509" style="fill:#a3bac5;"/><path d="M120.45,33.583l-7.36,-1.993l-4.478,2.102l-3.467,2.772l2.626,2.402l7.186,2.13l7.182,2.412l5.289,1.999l-0.457,-2.669l2.403,-0.778l1.234,-2.278l-1.18,-1.59l-8.978,-4.509" style="fill:#273f4b;fill-opacity:0.6;"/><path d="M84.859,34.034l-6.766,0.452l-0.802,4.789l-2.175,4.782l8.947,1.616l6.177,2.698l2.461,-2.918l8.356,-1.989l-0.991,-5.266l-3.168,-3.099l-7.754,-1.594l-4.285,0.529Z" style="fill:#a3bac5;"/><path d="M87.162,36.385l-6.765,0.451l-0.802,4.79l-2.176,4.781l8.948,1.617l6.176,2.698l2.462,-2.919l8.356,-1.988l-0.992,-5.266l-3.168,-3.099l-7.753,-1.594l-4.286,0.529Z" style="fill:#273f4b;fill-opacity:0.6;"/><path d="M188.445,30.63l5.447,3.146l4.768,5.058l-7.029,2.549l-4.748,-0.297l-3.989,1.987l-4.949,-2.159l0.91,-5.117l-0.201,-4.368l5.609,-1.822l4.182,1.023Z" style="fill:#a3bac5;"/><path d="M190.573,33.058l5.447,3.147l4.768,5.057l-7.028,2.549l-4.748,-0.297l-3.99,1.988l-4.949,-2.16l0.911,-5.116l-0.202,-4.368l5.609,-1.822l4.182,1.022Z" style="fill:#273f4b;fill-opacity:0.6;"/><path d="M179.55,31.575l-9.632,-1.796l-8.898,2.388l0.968,4.088l2.544,3.493l10.816,2.498l5.212,3.667l4.533,-3.625l0.769,-2.866l-1.629,-3.065l-4.683,-4.782Z" style="fill:#a3bac5;"/><path d="M181.679,34.003l-9.632,-1.796l-8.899,2.389l0.969,4.087l2.544,3.493l10.816,2.499l5.212,3.666l4.532,-3.625l0.769,-2.866l-1.629,-3.065l-4.682,-4.782Z" style="fill:#273f4b;fill-opacity:0.6;"/><path d="M244.422,29.687l2.984,3.703l-1.268,3.221l-9.802,1.274l-10.079,-0.26l-1.595,-4.287l2.191,-5.566l17.569,1.915Z" style="fill:#a3bac5;"/><path d="M246.551,32.116l2.984,3.702l-1.269,3.222l-10.638,0.701l-5.975,-0.796l-1.03,-5.08l0.427,-4.055l15.501,2.306Z" style="fill:#273f4b;fill-opacity:0.6;"/><path d="M251.985,25.231l5.447,3.146l4.768,5.057l-7.028,2.549l-4.748,-0.296l-3.99,1.987l-4.949,-2.16l0.911,-5.116l-0.202,-4.368l5.609,-1.822l4.182,1.023Z" style="fill:#a3bac5;"/><path d="M254.114,27.659l5.447,3.146l4.768,5.058l-7.029,2.549l-4.748,-0.297l-3.99,1.988l-4.948,-2.16l0.91,-5.117l-0.201,-4.368l5.609,-1.822l4.182,1.023Z" style="fill:#273f4b;fill-opacity:0.6;"/><path d="M227.585,29.394l-9.632,-1.796l-8.898,2.388l0.968,4.088l2.544,3.493l10.816,2.498l5.212,3.667l4.533,-3.625l0.768,-2.866l-1.629,-3.065l-4.682,-4.782Z" style="fill:#a3bac5;"/><path d="M229.713,31.822l-9.632,-1.796l-8.898,2.389l0.968,4.087l2.544,3.493l10.816,2.499l5.213,3.666l4.532,-3.625l0.769,-2.866l-1.629,-3.065l-4.683,-4.782Z" style="fill:#273f4b;fill-opacity:0.6;"/><path d="M139.335,36.085l-10.742,-2.687l-9.921,1.791l3.364,3.818l3.818,2.685l12.024,2.258l4.07,2.25l2.648,-2.798l9.652,0.188l3.176,-2.53l-1.397,-1.99l-4.065,-1.433l-2.523,0.205l-10.104,-1.757" style="fill:#a3bac5;"/><path d="M141.463,38.514l-10.742,-2.687l-9.92,1.791l3.364,3.817l3.817,2.685l12.025,2.259l4.07,2.25l2.647,-2.799l9.653,0.188l3.175,-2.53l-1.397,-1.99l-4.064,-1.433l-2.523,0.206l-10.105,-1.757" style="fill:#273f4b;fill-opacity:0.6;"/><path d="M166.147,34.314c-1.367,-0.239 -12.729,0.414 -12.729,0.414l-6.733,3.765l6.836,3.973l5.872,-1.261l7.147,0.199c0,0 0.975,-6.851 -0.393,-7.09Z" style="fill:#a3bac5;"/><path d="M168.276,36.743c-1.368,-0.239 -12.73,0.414 -12.73,0.414l-6.732,3.765l6.836,3.973l5.871,-1.262l7.147,0.199c0,0 0.975,-6.851 -0.392,-7.089Z" style="fill:#273f4b;fill-opacity:0.6;"/><path d="M212.666,32.985l2.984,3.703l-1.268,3.222l-9.802,1.273l-10.079,-0.259l-1.595,-4.287l2.191,-5.567l17.569,1.915Z" style="fill:#a3bac5;"/><path d="M214.795,35.414l2.984,3.703l-1.269,3.221l-10.638,0.702l-5.975,-0.796l-1.03,-5.08l0.427,-4.056l15.501,2.306Z" style="fill:#273f4b;fill-opacity:0.6;"/></g><g><path d="M82.714,7.095l5.447,3.146l4.768,5.057l-7.028,2.549l-4.748,-0.297l-3.99,1.988l-4.949,-2.16l0.911,-5.116l-0.202,-4.368l5.609,-1.822l4.182,1.023Z" style="fill:#a3bac5;"/><path d="M84.843,9.523l5.447,3.146l4.768,5.058l-7.029,2.549l-4.748,-0.297l-3.99,1.987l-4.948,-2.159l0.91,-5.117l-0.201,-4.368l5.609,-1.822l4.182,1.023Z" style="fill:#273f4b;fill-opacity:0.6;"/><path d="M70.628,7.851l-9.631,-1.796l-8.899,2.388l0.968,4.088l2.544,3.493l10.817,2.499l5.212,3.666l4.532,-3.625l0.769,-2.866l-1.629,-3.065l-4.683,-4.782Z" style="fill:#a3bac5;"/><path d="M72.757,10.28l-9.632,-1.796l-8.898,2.388l0.968,4.088l2.544,3.493l10.816,2.498l5.212,3.666l4.533,-3.625l0.768,-2.866l-1.629,-3.064l-4.682,-4.782Z" style="fill:#273f4b;fill-opacity:0.6;"/><path d="M34.864,12.197l-10.742,-2.686l-9.921,1.791l3.364,3.817l3.818,2.685l12.024,2.259l4.07,2.249l2.648,-2.798l9.653,0.188l3.175,-2.53l-1.397,-1.99l-4.064,-1.433l-2.524,0.206l-10.104,-1.758" style="fill:#a3bac5;"/><path d="M36.992,14.626l-10.742,-2.687l-9.92,1.791l3.364,3.817l3.817,2.686l12.025,2.258l4.07,2.25l2.647,-2.798l9.653,0.187l3.175,-2.53l-1.397,-1.99l-4.064,-1.433l-2.523,0.206l-10.105,-1.757" style="fill:#273f4b;fill-opacity:0.6;"/><path d="M64,13.491c-1.368,-0.239 -12.73,0.414 -12.73,0.414l-6.732,3.765l6.836,3.973l5.871,-1.261l7.147,0.198c0,0 0.975,-6.85 -0.392,-7.089Z" style="fill:#a3bac5;"/><path d="M66.128,15.919c-1.367,-0.238 -12.729,0.414 -12.729,0.414l-6.732,3.765l6.835,3.973l5.872,-1.261l7.147,0.199c0,0 0.975,-6.851 -0.393,-7.09Z" style="fill:#273f4b;fill-opacity:0.6;"/><path d="M20.017,15.431l2.984,3.702l-1.269,3.222l-9.801,1.273l-10.079,-0.259l-1.596,-4.287l2.192,-5.567l17.569,1.916Z" style="fill:#a3bac5;"/><path d="M22.145,17.859l2.984,3.703l-1.268,3.221l-10.639,0.702l-5.974,-0.796l-1.031,-5.08l0.428,-4.056l15.5,2.306Z" style="fill:#273f4b;fill-opacity:0.6;"/><path d="M110.548,6.351l5.447,3.146l4.768,5.058l-7.028,2.549l-4.748,-0.297l-3.99,1.988l-4.949,-2.16l0.911,-5.117l-0.202,-4.368l5.61,-1.822l4.181,1.023Z" style="fill:#a3bac5;"/><path d="M112.677,8.78l5.447,3.146l4.768,5.057l-7.029,2.549l-4.748,-0.297l-3.989,1.988l-4.949,-2.16l0.91,-5.116l-0.201,-4.368l5.609,-1.822l4.182,1.023Z" style="fill:#273f4b;fill-opacity:0.6;"/><path d="M101.654,7.296l-9.632,-1.796l-8.898,2.388l0.968,4.088l2.544,3.493l10.816,2.498l5.212,3.667l4.532,-3.625l0.769,-2.866l-1.629,-3.065l-4.682,-4.782Z" style="fill:#a3bac5;"/><path d="M103.782,9.725l-9.632,-1.796l-8.898,2.388l0.968,4.088l2.544,3.493l10.816,2.498l5.212,3.666l4.533,-3.625l0.769,-2.866l-1.629,-3.064l-4.683,-4.782Z" style="fill:#273f4b;fill-opacity:0.6;"/><path d="M196.507,7.458l2.984,3.702l-1.269,3.222l-9.801,1.273l-10.079,-0.259l-1.596,-4.287l2.192,-5.567l17.569,1.916Z" style="fill:#a3bac5;"/><path d="M198.635,9.886l2.984,3.703l-1.268,3.221l-10.639,0.702l-5.974,-0.796l-1.031,-5.08l0.428,-4.056l15.5,2.306Z" style="fill:#273f4b;fill-opacity:0.6;"/><path d="M217.93,1.744l5.447,3.146l4.768,5.057l-7.029,2.549l-4.748,-0.296l-3.99,1.987l-4.948,-2.16l0.91,-5.116l-0.201,-4.368l5.609,-1.822l4.182,1.023Z" style="fill:#a3bac5;"/><path d="M220.058,4.172l5.447,3.146l4.768,5.058l-7.028,2.549l-4.748,-0.297l-3.99,1.988l-4.949,-2.16l0.911,-5.117l-0.202,-4.368l5.609,-1.822l4.182,1.023Z" style="fill:#273f4b;fill-opacity:0.6;"/><path d="M209.035,2.689l-9.632,-1.796l-8.898,2.388l0.968,4.088l2.544,3.493l10.816,2.498l5.212,3.667l4.533,-3.626l0.768,-2.866l-1.629,-3.064l-4.682,-4.782Z" style="fill:#a3bac5;"/><path d="M211.163,5.117l-9.631,-1.796l-8.899,2.388l0.968,4.088l2.544,3.493l10.817,2.499l5.212,3.666l4.532,-3.625l0.769,-2.866l-1.629,-3.065l-4.683,-4.782Z" style="fill:#273f4b;fill-opacity:0.6;"/><path d="M151.94,8.538l-10.742,-2.687l-9.921,1.791l3.365,3.817l3.817,2.686l12.025,2.258l4.07,2.25l2.647,-2.798l9.653,0.187l3.175,-2.53l-1.397,-1.99l-4.064,-1.433l-2.523,0.206l-10.105,-1.757" style="fill:#a3bac5;"/><path d="M154.069,10.966l-10.743,-2.687l-9.92,1.791l3.364,3.818l3.818,2.685l12.024,2.258l4.07,2.25l2.648,-2.798l9.652,0.188l3.176,-2.53l-1.397,-1.99l-4.065,-1.433l-2.523,0.206l-10.104,-1.758" style="fill:#273f4b;fill-opacity:0.6;"/><path d="M178.753,6.767c-1.368,-0.239 -12.73,0.414 -12.73,0.414l-6.732,3.765l6.836,3.973l5.871,-1.261l7.147,0.198c0,0 0.975,-6.85 -0.392,-7.089Z" style="fill:#a3bac5;"/><path d="M180.881,9.195c-1.367,-0.239 -12.729,0.414 -12.729,0.414l-6.733,3.765l6.836,3.973l5.871,-1.261l7.147,0.199c0,0 0.976,-6.851 -0.392,-7.09Z" style="fill:#273f4b;fill-opacity:0.6;"/><path d="M134.77,8.707l2.984,3.702l-1.269,3.222l-9.801,1.273l-10.079,-0.259l-1.596,-4.287l2.192,-5.567l17.569,1.916Z" style="fill:#a3bac5;"/><path d="M136.898,11.135l2.984,3.703l-1.268,3.221l-10.639,0.702l-5.974,-0.796l-1.031,-5.08l0.428,-4.056l15.5,2.306Z" style="fill:#273f4b;fill-opacity:0.6;"/></g></g></svg>