<?xml version="1.0" encoding="UTF-8" standalone="no"?><!DOCTYPE svg PUBLIC "-//W3C//DTD SVG 1.1//EN" "http://www.w3.org/Graphics/SVG/1.1/DTD/svg11.dtd"><svg width="100%" height="100%" viewBox="0 0 189 192" version="1.1" xmlns="http://www.w3.org/2000/svg" xmlns:xlink="http://www.w3.org/1999/xlink" xml:space="preserve" xmlns:serif="http://www.serif.com/" style="fill-rule:evenodd;clip-rule:evenodd;stroke-linejoin:round;stroke-miterlimit:1.41421;"><g id="Way_Ramp_Up_high1"><g><path d="M113.906,76.096l9.125,0.109l3.293,-7.523l-6.611,-6.918l-4.084,-7.704l-8.339,-6.845l-14.247,4.629l-0.342,9.597l5.664,9.668l15.541,4.987Z" style="fill:#a3bac5;"/><path d="M115.3,82.13l9.125,0.11l3.293,-7.524l-6.611,-6.917l-4.084,-7.704l-8.339,-6.846l-14.247,4.63l-0.342,9.596l5.664,9.669l15.541,4.986Z" style="fill:#273f4b;fill-opacity:0.6;"/><path d="M67.041,25.12l12.645,6.32l7.079,6.56l3.394,0.041l4.211,0.05l-0.697,-4.808l-0.388,-4.805l-5.659,-3.462l-2.718,-3.716l-4.707,-2.58l-11.147,-4.934l-1.514,1.778l-2.979,6.166l2.48,3.39Z" style="fill:#a3bac5;"/><path d="M68.435,31.155l12.645,6.319l7.08,6.561l3.393,0.04l4.211,0.051l-0.697,-4.809l-0.388,-4.805l-5.659,-3.462l-2.718,-3.715l-4.707,-2.58l-11.147,-4.934l-1.514,1.777l-2.979,6.166l2.48,3.391Z" style="fill:#273f4b;fill-opacity:0.6;"/><path d="M72.918,2.409l9.577,4.074l1.836,7.327l0.043,7.347l-5.454,1.019l-9.574,-3.706l-9.909,-3.292l-7.566,-2.098l3.66,-3.471l-1.406,-3.42l1.54,-4.504l3.066,-1.204l14.187,1.928" style="fill:#a3bac5;"/><path d="M74.312,8.443l9.577,4.074l1.837,7.327l0.042,7.347l-5.454,1.02l-9.573,-3.707l-9.91,-3.291l-7.566,-2.099l3.66,-3.47l-1.406,-3.42l1.54,-4.504l3.066,-1.205l14.187,1.928" style="fill:#273f4b;fill-opacity:0.6;"/><path d="M102.008,38.116l6.054,7.085l-4.986,7.767l-3.637,9.061l-10.673,-6.132l-9.274,-1.918l1.115,-6.607l-5.755,-10.843l7.309,-6.761l6.822,-1.525l9.483,5.03l3.542,4.843Z" style="fill:#a3bac5;"/><path d="M103.402,44.15l6.054,7.085l-4.986,7.767l-3.637,9.061l-10.673,-6.132l-9.273,-1.917l1.114,-6.607l-5.754,-10.844l7.309,-6.761l6.822,-1.525l9.482,5.031l3.542,4.842Z" style="fill:#273f4b;fill-opacity:0.6;"/><path d="M133.223,108.773l12.645,6.319l7.08,6.561l3.394,0.04l4.21,0.051l-0.697,-4.809l-0.388,-4.805l-5.659,-3.462l-2.717,-3.715l-4.708,-2.58l-11.146,-4.934l-1.514,1.777l-2.98,6.166l2.48,3.391Z" style="fill:#a3bac5;"/><path d="M134.618,114.807l12.645,6.319l7.079,6.561l3.394,0.041l4.21,0.05l-0.697,-4.809l-0.388,-4.805l-5.658,-3.461l-2.718,-3.716l-4.708,-2.58l-11.146,-4.934l-1.514,1.778l-2.98,6.165l2.481,3.391Z" style="fill:#273f4b;fill-opacity:0.6;"/><path d="M165.231,117.625l6.054,7.085l-4.986,7.767l-3.637,9.061l-10.673,-6.132l-9.274,-1.918l1.115,-6.607l-5.755,-10.843l7.309,-6.761l6.823,-1.525l9.482,5.03l3.542,4.843Z" style="fill:#a3bac5;"/><path d="M166.625,123.659l6.054,7.085l-4.986,7.767l-3.637,9.061l-10.673,-6.132l-9.273,-1.917l1.114,-6.607l-5.754,-10.844l7.309,-6.761l6.822,-1.525l9.482,5.031l3.542,4.842Z" style="fill:#273f4b;fill-opacity:0.6;"/><path d="M20.345,30.145l-9.043,-1.18l-10.91,2.143l3.079,10.633l4.703,4.4l1.045,6.782l7.307,2.034l5.823,-7.975l5.861,-5.819l-2.733,-8.193l-5.132,-2.825Z" style="fill:#a3bac5;"/><path d="M21.669,36.195l-9.043,-1.18l-10.91,2.144l3.079,10.633l4.703,4.4l1.045,6.781l7.307,2.035l5.823,-7.976l5.861,-5.819l-2.733,-8.193l-5.132,-2.825Z" style="fill:#273f4b;fill-opacity:0.6;"/><path d="M23.182,45.223l11.094,7.279l4.987,12.305l-6.194,4.656l-6.854,2.238l-13.083,-7.51l-9.506,-0.224l0.591,-9.589l3.026,-4.73l5.465,-2.575l10.474,-1.85Z" style="fill:#a3bac5;"/><path d="M24.506,51.273l11.094,7.279l4.987,12.305l-6.194,4.656l-6.854,2.239l-13.083,-7.511l-9.506,-0.224l0.591,-9.589l3.026,-4.73l5.465,-2.575l10.474,-1.85Z" style="fill:#273f4b;fill-opacity:0.6;"/><path d="M88.038,129.12l-9.043,-1.18l-10.909,2.144l3.078,10.633l4.703,4.4l1.045,6.781l7.308,2.035l5.822,-7.976l5.861,-5.819l-2.732,-8.193l-5.133,-2.825Z" style="fill:#a3bac5;"/><path d="M89.362,135.17l-9.043,-1.179l-10.909,2.143l3.078,10.633l4.703,4.4l1.045,6.781l7.308,2.035l1.583,-2.169l4.239,-5.807l5.861,-5.818l-2.732,-8.194l-5.133,-2.825Z" style="fill:#273f4b;fill-opacity:0.6;"/><path d="M90.876,144.198l11.093,7.279l4.988,12.305l-6.194,4.656l-6.854,2.239l-13.083,-7.511l-9.506,-0.224l0.591,-9.589l3.026,-4.73l5.465,-2.575l10.474,-1.85Z" style="fill:#a3bac5;"/><path d="M92.2,150.248l11.093,7.279l4.988,12.306l-6.194,4.655l-6.854,2.239l-13.083,-7.511l-9.506,-0.224l0.591,-9.589l3.026,-4.73l5.465,-2.575l10.474,-1.85Z" style="fill:#273f4b;fill-opacity:0.6;"/><path d="M51.129,87.517l13.261,7.176l6.693,12.517l-8.021,1.855l-6.962,-0.164l-13.87,-9.066l-6.625,-1.02l1.229,-6.54l-9.022,-9.518l0.402,-6.704l3.857,-1.328l5.558,2.14l2.027,2.84l11.473,7.812" style="fill:#a3bac5;"/><path d="M52.453,93.567l13.261,7.176l6.693,12.517l-8.021,1.855l-6.962,-0.164l-13.87,-9.066l-6.625,-1.02l1.229,-6.539l-9.022,-9.518l0.402,-6.705l3.856,-1.328l5.559,2.141l2.027,2.839l11.473,7.812" style="fill:#273f4b;fill-opacity:0.6;"/><path d="M29.049,57.918c1.554,1.056 11.037,13.464 11.037,13.464l1.229,12.009l-11.381,-1.446l-3.7,-7.686l-6.757,-6.964c0,0 8.018,-10.433 9.572,-9.377Z" style="fill:#a3bac5;"/><path d="M30.373,63.968c1.554,1.056 11.037,13.464 11.037,13.464l1.229,12.009l-11.381,-1.446l-3.7,-7.685l-6.757,-6.965c0,0 8.018,-10.433 9.572,-9.377Z" style="fill:#273f4b;fill-opacity:0.6;"/><path d="M108.606,160.144c1.554,1.056 11.037,13.464 11.037,13.464l1.229,12.009l-11.381,-1.446l-3.7,-7.685l-6.757,-6.965c0,0 8.018,-10.433 9.572,-9.377Z" style="fill:#a3bac5;"/><path d="M109.93,166.194c1.554,1.056 11.037,13.464 11.037,13.464l1.229,12.009l-11.381,-1.445l-3.7,-7.686l-6.757,-6.965c0,0 8.018,-10.433 9.572,-9.377Z" style="fill:#273f4b;fill-opacity:0.6;"/><path d="M125.389,70.118l-10.989,3.615l-5.785,9.531l5.511,6.148l11.432,5.328l9.898,-2.727l8.071,-5.227l-6.387,-6.897l-6.849,-5.966l-4.902,-3.805" style="fill:#a3bac5;"/><path d="M126.783,76.153l-10.989,3.614l-5.785,9.532l5.511,6.148l11.432,5.328l9.899,-2.728l8.071,-5.227l-6.388,-6.896l-6.848,-5.966l-4.903,-3.805" style="fill:#273f4b;fill-opacity:0.6;"/><path d="M169.246,131.375l-10.988,3.614l-5.786,9.531l5.511,6.149l11.432,5.327l9.899,-2.727l8.071,-5.227l-6.387,-6.896l-6.849,-5.967l-4.903,-3.804" style="fill:#a3bac5;"/><path d="M170.641,137.409l-10.989,3.614l-5.786,9.532l5.511,6.148l11.432,5.328l9.899,-2.728l8.071,-5.226l-6.387,-6.897l-6.849,-5.966l-4.902,-3.805" style="fill:#273f4b;fill-opacity:0.6;"/><path d="M135.558,84.02l-5.797,2.443l-8.615,8.4l6.057,8.28l9.448,-0.542l7.816,-3.456l-8.054,-7.802l0.999,-1.94l-0.488,-2.854l-1.366,-2.529Z" style="fill:#a3bac5;"/><path d="M136.952,90.055l-5.797,2.442l-7.21,7.024l3.275,3.711l8.939,-0.286l5.096,-3.006l-3.448,-2.563l0.999,-1.939l-0.488,-2.855l-1.366,-2.528Z" style="fill:#273f4b;fill-opacity:0.6;"/><path d="M66.524,105.141l-7.527,2.082l-3.033,5.726l7.257,11.683l9.503,9.851l7.023,-4.294l5.243,-9.895l-18.466,-15.153Z" style="fill:#a3bac5;"/><path d="M67.848,111.191l-7.527,2.082l-3.033,5.726l8.762,11.743l6.467,4.954l7.541,-5.96l4.882,-6.025l-17.092,-12.52Z" style="fill:#273f4b;fill-opacity:0.6;"/></g></g></svg>