<?xml version="1.0" encoding="UTF-8" standalone="no"?><!DOCTYPE svg PUBLIC "-//W3C//DTD SVG 1.1//EN" "http://www.w3.org/Graphics/SVG/1.1/DTD/svg11.dtd"><svg width="100%" height="100%" viewBox="0 0 265 52" version="1.1" xmlns="http://www.w3.org/2000/svg" xmlns:xlink="http://www.w3.org/1999/xlink" xml:space="preserve" xmlns:serif="http://www.serif.com/" style="fill-rule:evenodd;clip-rule:evenodd;stroke-linejoin:round;stroke-miterlimit:1.41421;"><g id="Way_Ramp_Down_low1"><g><path d="M60.683,44.147l-5.244,-3.33l1.651,-4.071l7.004,-0.182l5.934,-1.415l7.954,0.483l5.939,7.02l-4.302,3.768l-7.754,1.576l-11.182,-3.849Z" style="fill:#a3bac5;"/><path d="M62.987,46.498l-5.245,-3.33l1.652,-4.071l7.003,-0.183l5.935,-1.414l7.954,0.483l5.938,7.02l-4.302,3.768l-7.754,1.576l-11.181,-3.849Z" style="fill:#273f4b;fill-opacity:0.6;"/><path d="M56.949,37.637l4.56,5.431l-1.173,5.754l-6.018,0.297l-9.002,-2.202l-4.356,-4.692l-2.144,-4.965l6.867,-0.257l6.693,0.266l4.573,0.368" style="fill:#a3bac5;"/><path d="M59.253,39.987l4.56,5.432l-1.174,5.754l-6.017,0.297l-9.003,-2.202l-4.355,-4.692l-2.145,-4.965l6.867,-0.257l6.694,0.266l4.573,0.367" style="fill:#273f4b;fill-opacity:0.6;"/><path d="M44.648,39.155l2.154,3.068l0.967,6.37l-7.327,0.905l-5.123,-3.696l-2.829,-4.199l8.24,0.015l0.34,-1.105l1.615,-0.903l1.963,-0.455Z" style="fill:#a3bac5;"/><path d="M46.951,41.506l2.155,3.068l0.812,5.329l-3.603,0.198l-4.953,-3.411l-1.492,-3.023l3.163,0.301l0.341,-1.105l1.615,-0.902l1.962,-0.455Z" style="fill:#273f4b;fill-opacity:0.6;"/><path d="M111.242,42.118l-10.158,-2.274l-7.103,-0.126l-1.951,-1.238l-2.42,-1.536l2.65,-1.567l2.473,-1.68l4.842,0.777l3.288,-0.406l3.888,0.76l8.656,2.246l0.029,1.234l-1.194,3.44l-3,0.37Z" style="fill:#a3bac5;"/><path d="M113.545,44.469l-10.157,-2.274l-7.104,-0.126l-1.95,-1.238l-2.42,-1.537l2.65,-1.567l2.472,-1.68l4.843,0.777l3.288,-0.405l3.888,0.76l8.656,2.245l0.028,1.234l-1.193,3.44l-3.001,0.371Z" style="fill:#273f4b;fill-opacity:0.6;"/><path d="M118.54,31.329l-7.36,-1.992l-4.479,2.102l-3.466,2.772l2.625,2.401l7.186,2.131l7.182,2.412l5.289,1.999l-0.457,-2.669l2.403,-0.779l1.234,-2.278l-1.18,-1.589l-8.977,-4.51" style="fill:#a3bac5;"/><path d="M120.843,33.68l-7.36,-1.992l-4.478,2.101l-3.467,2.773l2.626,2.401l7.186,2.13l7.181,2.412l5.29,1.999l-0.457,-2.669l2.403,-0.778l1.234,-2.278l-1.18,-1.59l-8.978,-4.509" style="fill:#273f4b;fill-opacity:0.6;"/><path d="M85.252,34.131l-6.766,0.452l-0.802,4.789l-2.175,4.782l8.947,1.616l6.176,2.698l2.462,-2.918l8.356,-1.989l-0.991,-5.265l-3.168,-3.099l-7.754,-1.595l-4.285,0.529Z" style="fill:#a3bac5;"/><path d="M87.555,36.482l-6.765,0.452l-0.802,4.789l-2.176,4.782l8.948,1.616l6.176,2.698l2.462,-2.918l8.356,-1.989l-0.992,-5.266l-3.168,-3.099l-7.753,-1.594l-4.286,0.529Z" style="fill:#273f4b;fill-opacity:0.6;"/><path d="M188.838,30.727l5.447,3.147l4.768,5.057l-7.029,2.549l-4.748,-0.297l-3.99,1.988l-4.948,-2.16l0.91,-5.116l-0.201,-4.369l5.609,-1.822l4.182,1.023Z" style="fill:#a3bac5;"/><path d="M190.966,33.156l5.447,3.146l4.768,5.057l-7.028,2.549l-4.748,-0.296l-3.99,1.987l-4.949,-2.16l0.911,-5.116l-0.202,-4.368l5.609,-1.822l4.182,1.023Z" style="fill:#273f4b;fill-opacity:0.6;"/><path d="M179.943,31.672l-9.632,-1.796l-8.898,2.388l0.968,4.088l2.544,3.493l10.816,2.499l5.212,3.666l4.533,-3.625l0.768,-2.866l-1.629,-3.065l-4.682,-4.782Z" style="fill:#a3bac5;"/><path d="M182.071,34.101l-9.631,-1.796l-8.899,2.388l0.968,4.088l2.544,3.493l10.817,2.498l5.212,3.667l4.532,-3.626l0.769,-2.866l-1.629,-3.064l-4.683,-4.782Z" style="fill:#273f4b;fill-opacity:0.6;"/><path d="M244.815,29.784l2.984,3.703l-1.269,3.222l-9.801,1.273l-10.079,-0.259l-1.595,-4.287l2.191,-5.567l17.569,1.915Z" style="fill:#a3bac5;"/><path d="M246.943,32.213l2.984,3.703l-1.268,3.221l-10.639,0.702l-5.974,-0.796l-1.031,-5.08l0.428,-4.056l15.5,2.306Z" style="fill:#273f4b;fill-opacity:0.6;"/><path d="M252.378,25.328l5.447,3.146l4.768,5.058l-7.029,2.548l-4.747,-0.296l-3.99,1.987l-4.949,-2.16l0.91,-5.116l-0.201,-4.368l5.609,-1.822l4.182,1.023Z" style="fill:#a3bac5;"/><path d="M254.507,27.756l5.447,3.147l4.768,5.057l-7.029,2.549l-4.748,-0.297l-3.99,1.988l-4.948,-2.16l0.91,-5.116l-0.201,-4.368l5.609,-1.823l4.182,1.023Z" style="fill:#273f4b;fill-opacity:0.6;"/><path d="M227.978,29.491l-9.632,-1.796l-8.899,2.388l0.969,4.088l2.544,3.493l10.816,2.499l5.212,3.666l4.532,-3.625l0.769,-2.866l-1.629,-3.065l-4.682,-4.782Z" style="fill:#a3bac5;"/><path d="M230.106,31.92l-9.632,-1.796l-8.898,2.388l0.968,4.088l2.544,3.493l10.816,2.498l5.212,3.667l4.533,-3.626l0.769,-2.866l-1.629,-3.064l-4.683,-4.782Z" style="fill:#273f4b;fill-opacity:0.6;"/><path d="M139.728,36.182l-10.743,-2.686l-9.92,1.791l3.364,3.817l3.818,2.685l12.024,2.258l4.07,2.25l2.648,-2.798l9.652,0.188l3.176,-2.53l-1.397,-1.99l-4.065,-1.433l-2.523,0.206l-10.104,-1.758" style="fill:#a3bac5;"/><path d="M141.856,38.611l-10.742,-2.687l-9.921,1.791l3.365,3.817l3.817,2.686l12.025,2.258l4.07,2.25l2.647,-2.798l9.653,0.187l3.175,-2.53l-1.397,-1.99l-4.064,-1.433l-2.524,0.206l-10.104,-1.757" style="fill:#273f4b;fill-opacity:0.6;"/><path d="M166.54,34.411c-1.367,-0.238 -12.729,0.415 -12.729,0.415l-6.733,3.764l6.836,3.973l5.871,-1.261l7.147,0.199c0,0 0.976,-6.851 -0.392,-7.09Z" style="fill:#a3bac5;"/><path d="M168.669,36.84c-1.368,-0.239 -12.73,0.414 -12.73,0.414l-6.732,3.765l6.835,3.973l5.872,-1.261l7.147,0.198c0,0 0.975,-6.85 -0.392,-7.089Z" style="fill:#273f4b;fill-opacity:0.6;"/><path d="M213.059,33.083l2.984,3.702l-1.269,3.222l-9.801,1.273l-10.079,-0.259l-1.595,-4.287l2.191,-5.567l17.569,1.916Z" style="fill:#a3bac5;"/><path d="M215.187,35.511l2.984,3.703l-1.268,3.221l-10.639,0.702l-5.974,-0.796l-1.031,-5.08l0.428,-4.056l15.5,2.306Z" style="fill:#273f4b;fill-opacity:0.6;"/></g><g><path d="M83.107,7.192l5.447,3.146l4.768,5.058l-7.029,2.548l-4.747,-0.296l-3.99,1.987l-4.949,-2.16l0.91,-5.116l-0.201,-4.368l5.609,-1.822l4.182,1.023Z" style="fill:#a3bac5;"/><path d="M85.235,9.62l5.448,3.147l4.767,5.057l-7.028,2.549l-4.748,-0.297l-3.99,1.988l-4.949,-2.16l0.911,-5.116l-0.202,-4.369l5.61,-1.822l4.181,1.023Z" style="fill:#273f4b;fill-opacity:0.6;"/><path d="M71.021,7.948l-9.632,-1.796l-8.898,2.389l0.968,4.087l2.544,3.493l10.816,2.499l5.213,3.666l4.532,-3.625l0.769,-2.866l-1.629,-3.065l-4.683,-4.782Z" style="fill:#a3bac5;"/><path d="M73.15,10.377l-9.632,-1.796l-8.898,2.388l0.968,4.088l2.544,3.493l10.816,2.498l5.212,3.667l4.533,-3.625l0.768,-2.866l-1.629,-3.065l-4.682,-4.782Z" style="fill:#273f4b;fill-opacity:0.6;"/><path d="M35.257,12.295l-10.743,-2.687l-9.92,1.791l3.364,3.817l3.818,2.686l12.024,2.258l4.07,2.25l2.648,-2.799l9.652,0.188l3.176,-2.53l-1.397,-1.99l-4.065,-1.433l-2.523,0.206l-10.104,-1.757" style="fill:#a3bac5;"/><path d="M37.385,14.723l-10.742,-2.687l-9.921,1.791l3.365,3.818l3.817,2.685l12.025,2.258l4.07,2.25l2.647,-2.798l9.653,0.188l3.175,-2.53l-1.397,-1.99l-4.064,-1.434l-2.523,0.206l-10.105,-1.757" style="fill:#273f4b;fill-opacity:0.6;"/><path d="M64.393,13.588c-1.368,-0.239 -12.73,0.414 -12.73,0.414l-6.732,3.765l6.836,3.973l5.871,-1.261l7.147,0.199c0,0 0.975,-6.851 -0.392,-7.09Z" style="fill:#a3bac5;"/><path d="M66.521,16.017c-1.367,-0.239 -12.729,0.414 -12.729,0.414l-6.733,3.764l6.836,3.974l5.871,-1.262l7.147,0.199c0,0 0.976,-6.851 -0.392,-7.089Z" style="fill:#273f4b;fill-opacity:0.6;"/><path d="M20.41,15.528l2.984,3.703l-1.269,3.221l-9.801,1.274l-10.079,-0.26l-1.596,-4.287l2.192,-5.567l17.569,1.916Z" style="fill:#a3bac5;"/><path d="M22.538,17.956l2.984,3.703l-1.268,3.221l-10.639,0.702l-5.974,-0.796l-1.031,-5.08l0.428,-4.055l15.5,2.305Z" style="fill:#273f4b;fill-opacity:0.6;"/><path d="M110.941,6.448l5.447,3.147l4.768,5.057l-7.028,2.549l-4.748,-0.297l-3.99,1.988l-4.949,-2.16l0.911,-5.116l-0.202,-4.368l5.609,-1.823l4.182,1.023Z" style="fill:#a3bac5;"/><path d="M113.07,8.877l5.447,3.146l4.768,5.058l-7.029,2.548l-4.748,-0.296l-3.99,1.987l-4.948,-2.16l0.91,-5.116l-0.201,-4.368l5.609,-1.822l4.182,1.023Z" style="fill:#273f4b;fill-opacity:0.6;"/><path d="M102.046,7.393l-9.631,-1.796l-8.899,2.389l0.968,4.087l2.545,3.493l10.816,2.499l5.212,3.666l4.532,-3.625l0.769,-2.866l-1.629,-3.065l-4.683,-4.782Z" style="fill:#a3bac5;"/><path d="M104.175,9.822l-9.632,-1.796l-8.898,2.388l0.968,4.088l2.544,3.493l10.816,2.498l5.212,3.667l4.533,-3.626l0.769,-2.866l-1.629,-3.064l-4.683,-4.782Z" style="fill:#273f4b;fill-opacity:0.6;"/><path d="M196.9,7.555l2.983,3.703l-1.268,3.221l-9.801,1.274l-10.079,-0.26l-1.596,-4.287l2.192,-5.566l17.569,1.915Z" style="fill:#a3bac5;"/><path d="M199.028,9.983l2.984,3.703l-1.268,3.222l-10.639,0.701l-5.974,-0.796l-1.031,-5.08l0.428,-4.055l15.5,2.305Z" style="fill:#273f4b;fill-opacity:0.6;"/><path d="M218.323,1.841l5.447,3.146l4.768,5.058l-7.029,2.549l-4.748,-0.297l-3.99,1.987l-4.949,-2.159l0.911,-5.117l-0.202,-4.368l5.61,-1.822l4.182,1.023Z" style="fill:#a3bac5;"/><path d="M220.451,4.269l5.447,3.147l4.768,5.057l-7.029,2.549l-4.747,-0.297l-3.99,1.988l-4.949,-2.16l0.91,-5.116l-0.201,-4.368l5.609,-1.823l4.182,1.023Z" style="fill:#273f4b;fill-opacity:0.6;"/><path d="M209.428,2.786l-9.632,-1.796l-8.898,2.388l0.968,4.088l2.544,3.493l10.816,2.498l5.212,3.667l4.533,-3.625l0.768,-2.866l-1.629,-3.065l-4.682,-4.782Z" style="fill:#a3bac5;"/><path d="M211.556,5.214l-9.631,-1.796l-8.899,2.389l0.968,4.087l2.544,3.493l10.816,2.499l5.213,3.666l4.532,-3.625l0.769,-2.866l-1.629,-3.065l-4.683,-4.782Z" style="fill:#273f4b;fill-opacity:0.6;"/><path d="M152.333,8.635l-10.742,-2.687l-9.921,1.791l3.365,3.818l3.817,2.685l12.024,2.258l4.07,2.25l2.648,-2.798l9.653,0.188l3.175,-2.53l-1.397,-1.99l-4.064,-1.434l-2.524,0.206l-10.104,-1.757" style="fill:#a3bac5;"/><path d="M154.461,11.063l-10.742,-2.686l-9.92,1.791l3.364,3.817l3.817,2.685l12.025,2.259l4.07,2.249l2.648,-2.798l9.652,0.188l3.176,-2.53l-1.397,-1.99l-4.065,-1.433l-2.523,0.206l-10.105,-1.758" style="fill:#273f4b;fill-opacity:0.6;"/><path d="M179.146,6.864c-1.368,-0.239 -12.73,0.414 -12.73,0.414l-6.732,3.765l6.835,3.973l5.872,-1.261l7.147,0.199c0,0 0.975,-6.851 -0.392,-7.09Z" style="fill:#a3bac5;"/><path d="M181.274,9.293c-1.367,-0.239 -12.729,0.414 -12.729,0.414l-6.733,3.764l6.836,3.974l5.871,-1.262l7.147,0.199c0,0 0.976,-6.851 -0.392,-7.089Z" style="fill:#273f4b;fill-opacity:0.6;"/><path d="M135.163,8.804l2.983,3.703l-1.268,3.221l-9.801,1.274l-10.079,-0.26l-1.596,-4.287l2.192,-5.567l17.569,1.916Z" style="fill:#a3bac5;"/><path d="M137.291,11.232l2.984,3.703l-1.268,3.221l-10.639,0.702l-5.974,-0.796l-1.031,-5.08l0.428,-4.055l15.5,2.305Z" style="fill:#273f4b;fill-opacity:0.6;"/></g></g></svg>