<?xml version="1.0" encoding="UTF-8" standalone="no"?><!DOCTYPE svg PUBLIC "-//W3C//DTD SVG 1.1//EN" "http://www.w3.org/Graphics/SVG/1.1/DTD/svg11.dtd"><svg width="100%" height="100%" viewBox="0 0 216 109" version="1.1" xmlns="http://www.w3.org/2000/svg" xmlns:xlink="http://www.w3.org/1999/xlink" xml:space="preserve" xmlns:serif="http://www.serif.com/" style="fill-rule:evenodd;clip-rule:evenodd;stroke-linejoin:round;stroke-miterlimit:1.41421;"><path id="WaterAnim1Flat05" d="M215.289,54.585c-18.314,4.827 -37.164,11.848 -51.343,22.627c-21.691,16.49 -44.101,29.209 -55.988,31.038c-10.433,-11.311 -34.041,-20.489 -51.228,-25.614c-23.258,-6.935 -35.176,-18.791 -56.104,-28.051c22.316,-7.788 40.935,-20.412 58.986,-34.808c12.95,-10.328 30.602,-14.016 48.346,-18.858c21.395,10.648 39.54,21.201 55.969,26.464c25.326,8.113 49.918,22.162 51.362,27.202Z" style="fill:#5aafcc;"/><clipPath id="_clip1"><path d="M215.289,54.585c-18.314,4.827 -37.164,11.848 -51.343,22.627c-21.691,16.49 -44.101,29.209 -55.988,31.038c-10.433,-11.311 -34.041,-20.489 -51.228,-25.614c-23.258,-6.935 -35.176,-18.791 -56.104,-28.051c22.316,-7.788 40.935,-20.412 58.986,-34.808c12.95,-10.328 30.602,-14.016 48.346,-18.858c21.395,10.648 39.54,21.201 55.969,26.464c25.326,8.113 49.918,22.162 51.362,27.202Z"/></clipPath><g clip-path="url(#_clip1)"><g><path d="M61.626,108.284l0.507,-0.342c0,0 2.21,-1.381 5.271,-2.636c3.06,-1.254 14.413,-6.393 16.195,-10.903c4.603,-11.655 22.241,-10.786 16.099,-8.661c-6.142,2.124 -10.145,5.098 -13.685,14.163c-3.541,9.064 -7.781,10.927 -7.781,10.927l-5.815,2.847l-10.791,-5.395Zm46.869,-3.828c-1.143,-0.582 -2.315,-1.19 -3.43,-1.785c-4.835,-2.581 6.818,-9.6 10.733,-10.734c3.916,-1.133 13.505,-13.737 14.78,-15.908c1.274,-2.172 4.107,-6.468 14.45,-7.043c10.343,-0.574 2.871,-1.129 21.363,1.906c2.115,0.347 4.593,1.378 6.073,1.579l-63.969,31.985Zm22.933,-68.602l21.625,10.812c-0.442,0.348 -1.509,0.961 -4.082,1.852c-4.286,1.485 -16.251,1.631 -19.312,4.29c-3.061,2.659 -18.892,19.152 -28.219,19.476c-9.327,0.323 -28.629,14.83 -31.283,17.165c-2.655,2.334 -18.758,7.855 -18.758,7.855l-5.688,3.022l-21.634,-10.817l0.49,-0.255c7.557,-3.95 10.146,-6.389 14.82,-10.071c4.673,-3.682 9.489,0 28.112,-3.154c18.623,-3.154 23.44,-18.798 31.797,-24.139c8.305,-5.309 7.024,-1.869 32.132,-16.036Zm-150.368,32.147l0.574,-0.287l5.367,-2.683c0,0 15.18,-5.592 22.941,-3.936c13.541,2.889 17.956,8.502 9.258,6.742c-9.297,-1.88 -17.024,5.637 -21.848,8.192l-0.115,0.06l-16.177,-8.088Zm187.895,-13.384l10.774,5.387c-0.95,0.533 -3.161,1.739 -4.899,2.417c-12.58,4.908 -4.449,-0.83 -10.733,0c-12.494,1.651 0,-5.461 0,-5.461l4.858,-2.343Zm-80.49,-40.245l16.073,8.037c-1.025,0.466 -3.323,1.536 -4.84,2.446c-2.002,1.202 -18.301,5.035 -25.999,8.467c-7.699,3.432 -7.385,11.941 -13.315,20.175c-5.93,8.235 -12.488,7.139 -20.392,7.937c-7.904,0.797 -12.188,1.849 3.767,-3.242c15.955,-5.091 3.873,-11.551 18.374,-25.287c14.5,-13.736 21.466,-16.099 21.466,-16.099l4.866,-2.434Zm-23.332,4.434c-0.911,3.686 -6.925,10.956 -13.734,14.099c-10.887,5.027 -16.891,0.413 -26.832,8.05c-7.279,5.591 -17.507,9.575 -23.407,9.837l63.973,-31.986Z" style="fill:#2f81a8;fill-opacity:0.35;"/><path d="M-45.705,161.95l0.506,-0.342c0,0 2.211,-1.381 5.272,-2.636c3.06,-1.255 14.413,-6.393 16.195,-10.903c4.603,-11.655 22.241,-10.786 16.099,-8.662c-6.142,2.125 -10.145,5.099 -13.686,14.163c-3.54,9.064 -7.78,10.927 -7.78,10.927l-5.816,2.848l-10.79,-5.395Zm46.869,-3.829c-1.143,-0.582 -2.315,-1.189 -3.43,-1.785c-4.835,-2.581 6.817,-9.599 10.733,-10.733c3.915,-1.134 13.505,-13.737 14.779,-15.909c1.275,-2.171 4.108,-6.467 14.451,-7.042c10.343,-0.575 2.871,-1.129 21.362,1.905c2.116,0.348 4.594,1.378 6.074,1.58l-63.969,31.984Zm22.933,-68.602l21.625,10.813c-0.442,0.347 -1.509,0.96 -4.083,1.852c-4.285,1.485 -16.25,1.631 -19.312,4.289c-3.061,2.659 -18.891,19.153 -28.218,19.476c-9.327,0.324 -28.629,14.831 -31.284,17.165c-2.654,2.335 -18.757,7.856 -18.757,7.856l-5.688,3.022l-21.635,-10.817l0.49,-0.255c7.557,-3.95 10.147,-6.389 14.82,-10.071c4.674,-3.683 9.49,0 28.113,-3.155c18.623,-3.154 23.44,-18.798 31.797,-24.139c8.305,-5.308 7.024,-1.868 32.132,-16.036Zm-150.368,32.148l0.574,-0.287l5.366,-2.683c0,0 15.18,-5.592 22.942,-3.936c13.54,2.888 17.956,8.502 9.258,6.742c-9.297,-1.881 -17.024,5.637 -21.849,8.191l-0.114,0.061l-16.177,-8.088Zm187.895,-13.384l10.774,5.387c-0.95,0.533 -3.161,1.739 -4.899,2.417c-12.581,4.908 -4.449,-0.83 -10.733,0c-12.494,1.651 0,-5.462 0,-5.462l4.858,-2.342Zm-80.49,-40.245l16.073,8.036c-1.026,0.466 -3.323,1.537 -4.84,2.447c-2.002,1.202 -18.301,5.035 -26,8.466c-7.698,3.432 -7.384,11.942 -13.314,20.176c-5.93,8.234 -12.489,7.139 -20.393,7.936c-7.904,0.798 -12.187,1.849 3.768,-3.242c15.954,-5.09 3.873,-11.55 18.373,-25.286c14.501,-13.736 21.467,-16.1 21.467,-16.1l4.866,-2.433Zm-23.333,4.433c-0.91,3.686 -6.924,10.956 -13.733,14.1c-10.887,5.027 -16.891,0.413 -26.833,8.05c-7.278,5.591 -17.507,9.574 -23.407,9.837l63.973,-31.987Z" style="fill:#2f81a8;fill-opacity:0.35;"/><path d="M168.958,161.95l0.506,-0.342c0,0 2.211,-1.381 5.271,-2.636c3.061,-1.255 14.414,-6.393 16.195,-10.903c4.604,-11.655 22.242,-10.786 16.1,-8.662c-6.142,2.125 -10.146,5.099 -13.686,14.163c-3.541,9.064 -7.781,10.927 -7.781,10.927l-5.815,2.848l-10.79,-5.395Zm46.868,-3.829c-1.143,-0.582 -2.314,-1.189 -3.43,-1.785c-4.835,-2.581 6.818,-9.599 10.733,-10.733c3.916,-1.134 13.505,-13.737 14.78,-15.909c1.275,-2.171 4.107,-6.467 14.45,-7.042c10.343,-0.575 2.871,-1.129 21.363,1.905c2.115,0.348 4.594,1.378 6.073,1.58l-63.969,31.984Zm22.933,-68.602l21.625,10.813c-0.441,0.347 -1.508,0.96 -4.082,1.852c-4.285,1.485 -16.251,1.631 -19.312,4.289c-3.061,2.659 -18.891,19.153 -28.219,19.476c-9.327,0.324 -28.629,14.831 -31.283,17.165c-2.654,2.335 -18.757,7.856 -18.757,7.856l-5.689,3.022l-21.634,-10.817l0.49,-0.255c7.557,-3.95 10.146,-6.389 14.82,-10.071c4.674,-3.683 9.489,0 28.112,-3.155c18.624,-3.154 23.441,-18.798 31.797,-24.139c8.305,-5.308 7.024,-1.868 32.132,-16.036Zm-150.367,32.148l0.573,-0.287l5.367,-2.683c0,0 15.18,-5.592 22.942,-3.936c13.54,2.888 17.955,8.502 9.257,6.742c-9.296,-1.881 -17.024,5.637 -21.848,8.191l-0.115,0.061l-16.176,-8.088Zm187.894,-13.384l10.774,5.387c-0.949,0.533 -3.161,1.739 -4.898,2.417c-12.581,4.908 -4.45,-0.83 -10.733,0c-12.495,1.651 0,-5.462 0,-5.462l4.857,-2.342Zm-80.489,-40.245l16.073,8.036c-1.026,0.466 -3.324,1.537 -4.84,2.447c-2.003,1.202 -18.302,5.035 -26,8.466c-7.698,3.432 -7.385,11.942 -13.315,20.176c-5.93,8.234 -12.488,7.139 -20.392,7.936c-7.904,0.798 -12.188,1.849 3.767,-3.242c15.955,-5.09 3.873,-11.55 18.374,-25.286c14.5,-13.736 21.466,-16.1 21.466,-16.1l4.867,-2.433Zm-23.333,4.433c-0.911,3.686 -6.925,10.956 -13.733,14.1c-10.888,5.027 -16.891,0.413 -26.833,8.05c-7.279,5.591 -17.507,9.574 -23.407,9.837l63.973,-31.987Z" style="fill:#2f81a8;fill-opacity:0.35;"/><path d="M168.958,54.618l0.506,-0.342c0,0 2.211,-1.381 5.271,-2.635c3.061,-1.255 14.414,-6.394 16.195,-10.904c4.604,-11.654 22.242,-10.785 16.1,-8.661c-6.142,2.124 -10.146,5.099 -13.686,14.163c-3.541,9.064 -7.781,10.927 -7.781,10.927l-5.815,2.848l-10.79,-5.396Zm46.868,-3.828c-1.143,-0.582 -2.314,-1.19 -3.43,-1.785c-4.835,-2.581 6.818,-9.599 10.733,-10.733c3.916,-1.134 13.505,-13.737 14.78,-15.909c1.275,-2.171 4.107,-6.468 14.45,-7.042c10.343,-0.575 2.871,-1.129 21.363,1.905c2.115,0.347 4.594,1.378 6.073,1.58l-63.969,31.984Zm22.933,-68.602l21.625,10.812c-0.441,0.348 -1.508,0.961 -4.082,1.853c-4.285,1.485 -16.251,1.631 -19.312,4.289c-3.061,2.659 -18.891,19.152 -28.219,19.476c-9.327,0.324 -28.629,14.831 -31.283,17.165c-2.654,2.335 -18.757,7.855 -18.757,7.855l-5.689,3.023l-21.634,-10.817l0.49,-0.255c7.557,-3.95 10.146,-6.389 14.82,-10.072c4.674,-3.682 9.489,0 28.112,-3.154c18.624,-3.154 23.441,-18.798 31.797,-24.139c8.305,-5.308 7.024,-1.869 32.132,-16.036Zm-150.367,32.147l0.573,-0.286l5.367,-2.684c0,0 15.18,-5.591 22.942,-3.936c13.54,2.889 17.955,8.502 9.257,6.743c-9.296,-1.881 -17.024,5.636 -21.848,8.191l-0.115,0.061l-16.176,-8.089Zm187.894,-13.384l10.774,5.387c-0.949,0.534 -3.161,1.74 -4.898,2.418c-12.581,4.908 -4.45,-0.831 -10.733,0c-12.495,1.651 0,-5.462 0,-5.462l4.857,-2.343Zm-80.489,-40.244l16.073,8.036c-1.026,0.466 -3.324,1.537 -4.84,2.447c-2.003,1.201 -18.302,5.034 -26,8.466c-7.698,3.432 -7.385,11.941 -13.315,20.176c-5.93,8.234 -12.488,7.138 -20.392,7.936c-7.904,0.798 -12.188,1.849 3.767,-3.242c15.955,-5.091 3.873,-11.55 18.374,-25.286c14.5,-13.736 21.466,-16.1 21.466,-16.1l4.867,-2.433Zm-23.333,4.433c-0.911,3.686 -6.925,10.956 -13.733,14.1c-10.888,5.027 -16.891,0.413 -26.833,8.049c-7.279,5.592 -17.507,9.575 -23.407,9.837l63.973,-31.986Z" style="fill:#2f81a8;fill-opacity:0.35;"/><path d="M-45.705,54.618l0.506,-0.342c0,0 2.211,-1.381 5.272,-2.635c3.06,-1.255 14.413,-6.394 16.195,-10.904c4.603,-11.654 22.241,-10.785 16.099,-8.661c-6.142,2.124 -10.145,5.099 -13.686,14.163c-3.54,9.064 -7.78,10.927 -7.78,10.927l-5.816,2.848l-10.79,-5.396Zm46.869,-3.828c-1.143,-0.582 -2.315,-1.19 -3.43,-1.785c-4.835,-2.581 6.817,-9.599 10.733,-10.733c3.915,-1.134 13.505,-13.737 14.779,-15.909c1.275,-2.171 4.108,-6.468 14.451,-7.042c10.343,-0.575 2.871,-1.129 21.362,1.905c2.116,0.347 4.594,1.378 6.074,1.58l-63.969,31.984Zm22.933,-68.602l21.625,10.812c-0.442,0.348 -1.509,0.961 -4.083,1.853c-4.285,1.485 -16.25,1.631 -19.312,4.289c-3.061,2.659 -18.891,19.152 -28.218,19.476c-9.327,0.324 -28.629,14.831 -31.284,17.165c-2.654,2.335 -18.757,7.855 -18.757,7.855l-5.688,3.023l-21.635,-10.817l0.49,-0.255c7.557,-3.95 10.147,-6.389 14.82,-10.072c4.674,-3.682 9.49,0 28.113,-3.154c18.623,-3.154 23.44,-18.798 31.797,-24.139c8.305,-5.308 7.024,-1.869 32.132,-16.036Zm-150.368,32.147l0.574,-0.286l5.366,-2.684c0,0 15.18,-5.591 22.942,-3.936c13.54,2.889 17.956,8.502 9.258,6.743c-9.297,-1.881 -17.024,5.636 -21.849,8.191l-0.114,0.061l-16.177,-8.089Zm187.895,-13.384l10.774,5.387c-0.95,0.534 -3.161,1.74 -4.899,2.418c-12.581,4.908 -4.449,-0.831 -10.733,0c-12.494,1.651 0,-5.462 0,-5.462l4.858,-2.343Zm-80.49,-40.244l16.073,8.036c-1.026,0.466 -3.323,1.537 -4.84,2.447c-2.002,1.201 -18.301,5.034 -26,8.466c-7.698,3.432 -7.384,11.941 -13.314,20.176c-5.93,8.234 -12.489,7.138 -20.393,7.936c-7.904,0.798 -12.187,1.849 3.768,-3.242c15.954,-5.091 3.873,-11.55 18.373,-25.286c14.501,-13.736 21.467,-16.1 21.467,-16.1l4.866,-2.433Zm-23.333,4.433c-0.91,3.686 -6.924,10.956 -13.733,14.1c-10.887,5.027 -16.891,0.413 -26.833,8.049c-7.278,5.592 -17.507,9.575 -23.407,9.837l63.973,-31.986Z" style="fill:#2f81a8;fill-opacity:0.35;"/><path d="M61.626,0.953l0.507,-0.342c0,0 2.21,-1.381 5.271,-2.636c3.06,-1.255 14.413,-6.393 16.195,-10.903c4.603,-11.655 22.241,-10.786 16.099,-8.662c-6.142,2.125 -10.145,5.099 -13.685,14.163c-3.541,9.064 -7.781,10.927 -7.781,10.927l-5.815,2.848l-10.791,-5.395Zm46.869,-3.829c-1.143,-0.582 -2.315,-1.189 -3.43,-1.785c-4.835,-2.581 6.818,-9.599 10.733,-10.733c3.916,-1.134 13.505,-13.737 14.78,-15.908c1.274,-2.172 4.107,-6.468 14.45,-7.043c10.343,-0.575 2.871,-1.129 21.363,1.906c2.115,0.347 4.593,1.377 6.073,1.579l-63.969,31.984Zm22.933,-68.602l21.625,10.813c-0.442,0.347 -1.509,0.96 -4.082,1.852c-4.286,1.485 -16.251,1.631 -19.312,4.29c-3.061,2.658 -18.892,19.152 -28.219,19.475c-9.327,0.324 -28.629,14.831 -31.283,17.165c-2.655,2.335 -18.758,7.856 -18.758,7.856l-5.688,3.022l-21.634,-10.817l0.49,-0.255c7.557,-3.95 10.146,-6.389 14.82,-10.071c4.673,-3.683 9.489,0 28.112,-3.154c18.623,-3.155 23.44,-18.799 31.797,-24.14c8.305,-5.308 7.024,-1.868 32.132,-16.036Zm-150.368,32.148l0.574,-0.287l5.367,-2.683c0,0 15.18,-5.592 22.941,-3.936c13.541,2.888 17.956,8.502 9.258,6.742c-9.297,-1.881 -17.024,5.637 -21.848,8.192l-0.115,0.06l-16.177,-8.088Zm187.895,-13.384l10.774,5.387c-0.95,0.533 -3.161,1.739 -4.899,2.417c-12.58,4.908 -4.449,-0.83 -10.733,0c-12.494,1.651 0,-5.462 0,-5.462l4.858,-2.342Zm-80.49,-40.245l16.073,8.037c-1.025,0.465 -3.323,1.536 -4.84,2.446c-2.002,1.202 -18.301,5.035 -25.999,8.467c-7.699,3.431 -7.385,11.941 -13.315,20.175c-5.93,8.234 -12.488,7.139 -20.392,7.936c-7.904,0.798 -12.188,1.849 3.767,-3.241c15.955,-5.091 3.873,-11.551 18.374,-25.287c14.5,-13.736 21.466,-16.1 21.466,-16.1l4.866,-2.433Zm-23.332,4.433c-0.911,3.686 -6.925,10.956 -13.734,14.1c-10.887,5.027 -16.891,0.413 -26.832,8.05c-7.279,5.591 -17.507,9.574 -23.407,9.837l63.973,-31.987Z" style="fill:#2f81a8;fill-opacity:0.35;"/><path d="M276.289,108.284l0.506,-0.342c0,0 2.211,-1.381 5.271,-2.636c3.061,-1.254 14.414,-6.393 16.195,-10.903c4.604,-11.655 22.242,-10.786 16.1,-8.661c-6.142,2.124 -10.145,5.098 -13.686,14.163c-3.541,9.064 -7.78,10.927 -7.78,10.927l-5.816,2.847l-10.79,-5.395Zm46.868,-3.828c-1.142,-0.582 -2.314,-1.19 -3.429,-1.785c-4.835,-2.581 6.817,-9.6 10.733,-10.734c3.915,-1.133 13.505,-13.737 14.779,-15.908c1.275,-2.172 4.107,-6.468 14.45,-7.043c10.343,-0.574 2.871,-1.129 21.363,1.906c2.116,0.347 4.594,1.378 6.073,1.579l-63.969,31.985Zm22.933,-68.602l21.625,10.812c-0.441,0.348 -1.508,0.961 -4.082,1.852c-4.285,1.485 -16.251,1.631 -19.312,4.29c-3.061,2.659 -18.891,19.152 -28.218,19.476c-9.328,0.323 -28.629,14.83 -31.284,17.165c-2.654,2.334 -18.757,7.855 -18.757,7.855l-5.689,3.022l-21.634,-10.817l0.49,-0.255c7.557,-3.95 10.147,-6.389 14.82,-10.071c4.674,-3.682 9.489,0 28.113,-3.154c18.623,-3.154 23.44,-18.798 31.796,-24.139c8.305,-5.309 7.025,-1.869 32.132,-16.036Zm-150.367,32.147l0.574,-0.287l5.366,-2.683c0,0 15.18,-5.592 22.942,-3.936c13.54,2.889 17.956,8.502 9.258,6.742c-9.297,-1.88 -17.024,5.637 -21.849,8.192l-0.114,0.06l-16.177,-8.088Zm187.894,-13.384l10.774,5.387c-0.949,0.533 -3.16,1.739 -4.898,2.417c-12.581,4.908 -4.449,-0.83 -10.733,0c-12.495,1.651 0,-5.461 0,-5.461l4.857,-2.343Zm-80.489,-40.245l16.073,8.037c-1.026,0.466 -3.324,1.536 -4.84,2.446c-2.002,1.202 -18.302,5.035 -26,8.467c-7.698,3.432 -7.384,11.941 -13.314,20.175c-5.93,8.235 -12.489,7.139 -20.393,7.937c-7.904,0.797 -12.187,1.849 3.767,-3.242c15.955,-5.091 3.874,-11.551 18.374,-25.287c14.5,-13.736 21.466,-16.099 21.466,-16.099l4.867,-2.434Zm-23.333,4.434c-0.91,3.686 -6.925,10.956 -13.733,14.099c-10.887,5.027 -16.891,0.413 -26.833,8.05c-7.279,5.591 -17.507,9.575 -23.407,9.837l63.973,-31.986Z" style="fill:#2f81a8;fill-opacity:0.35;"/><path d="M65.133,110.037c0,0 2.21,-1.476 5.271,-2.731c3.06,-1.254 14.413,-6.393 16.195,-10.903c4.603,-11.655 22.241,-10.786 16.099,-8.661c-6.142,2.124 -10.145,5.098 -13.685,14.163c-3.541,9.064 -7.781,10.927 -7.781,10.927l-5.31,2.6l-10.789,-5.395Zm42.932,-5.366c-4.835,-2.581 6.818,-9.6 10.733,-10.734c3.916,-1.133 13.505,-13.737 14.78,-15.908c1.274,-2.172 4.107,-6.468 14.45,-7.043c10.343,-0.574 5.944,-1.549 24.436,1.485l-64.399,32.2Zm26.833,-67.082l21.466,10.733c-0.003,0.015 -0.153,0.727 -4.393,2.196c-4.286,1.485 -16.251,1.631 -19.312,4.29c-3.061,2.659 -18.892,19.152 -28.219,19.476c-9.327,0.323 -28.629,14.83 -31.283,17.165c-2.655,2.334 -18.758,7.855 -18.758,7.855l-5.366,2.683l-21.466,-10.733c7.557,-3.95 10.146,-6.389 14.82,-10.071c4.673,-3.682 9.489,0 28.112,-3.154c18.623,-3.154 23.44,-18.798 31.797,-24.139c8.356,-5.341 7.008,-1.826 32.602,-16.301Zm-150.338,32.162l0.074,-0.037l5.367,-2.683c0,0 15.18,-5.592 22.941,-3.936c13.541,2.889 17.956,8.502 9.258,6.742c-9.066,-1.834 -16.639,5.269 -21.484,7.992l-16.156,-8.078Zm187.904,-13.379l10.733,5.366c0,0 -3.09,1.795 -5.367,2.683c-12.58,4.908 -4.449,-0.83 -10.733,0c-12.494,1.651 0,-5.461 0,-5.461l5.367,-2.588Zm-80.499,-40.25l16.1,8.05c0,0 -3.364,1.482 -5.367,2.683c-2.002,1.202 -18.301,5.035 -25.999,8.467c-7.699,3.432 -7.385,11.941 -13.315,20.175c-5.93,8.235 -12.488,7.139 -20.392,7.937c-7.904,0.797 -12.188,1.849 3.767,-3.242c15.955,-5.091 3.873,-11.551 18.374,-25.287c14.5,-13.736 21.466,-16.099 21.466,-16.099l5.366,-2.684Zm-26.832,2.684c0,0.055 0.126,11.085 -10.734,16.099c-10.887,5.027 -16.891,0.413 -26.832,8.05c-9.942,7.637 -21.825,10.493 -26.833,8.05l64.399,-32.199Z" style="fill:#89e0ec;fill-opacity:0.8;"/><path d="M-42.199,163.703c0,0 2.211,-1.476 5.272,-2.731c3.06,-1.255 14.413,-6.393 16.195,-10.903c4.603,-11.655 22.241,-10.786 16.099,-8.662c-6.142,2.125 -10.145,5.099 -13.686,14.163c-3.54,9.064 -7.78,10.927 -7.78,10.927l-5.31,2.6l-10.79,-5.394Zm42.933,-5.367c-4.835,-2.581 6.817,-9.599 10.733,-10.733c3.915,-1.134 13.505,-13.737 14.779,-15.909c1.275,-2.171 4.108,-6.467 14.451,-7.042c10.342,-0.575 5.944,-1.55 24.436,1.485l-64.399,32.199Zm26.833,-67.082l21.466,10.733c-0.003,0.015 -0.154,0.728 -4.394,2.197c-4.285,1.485 -16.25,1.631 -19.312,4.289c-3.061,2.659 -18.891,19.153 -28.218,19.476c-9.327,0.324 -28.629,14.831 -31.284,17.165c-2.654,2.335 -18.757,7.856 -18.757,7.856l-5.366,2.683l-21.467,-10.733c7.557,-3.95 10.147,-6.389 14.82,-10.071c4.674,-3.683 9.49,0 28.113,-3.155c18.623,-3.154 23.44,-18.798 31.797,-24.139c8.356,-5.341 7.008,-1.826 32.602,-16.301Zm-150.338,32.163l0.074,-0.037l5.366,-2.683c0,0 15.18,-5.592 22.942,-3.936c13.54,2.888 17.956,8.502 9.258,6.742c-9.066,-1.834 -16.64,5.269 -21.484,7.992l-16.156,-8.078Zm187.904,-13.38l10.733,5.367c0,0 -3.09,1.795 -5.367,2.683c-12.581,4.908 -4.449,-0.83 -10.733,0c-12.494,1.651 0,-5.462 0,-5.462l5.367,-2.588Zm-80.499,-40.249l16.1,8.05c0,0 -3.364,1.482 -5.367,2.683c-2.002,1.202 -18.301,5.035 -26,8.466c-7.698,3.432 -7.384,11.942 -13.314,20.176c-5.93,8.234 -12.489,7.139 -20.393,7.936c-7.904,0.798 -12.187,1.849 3.768,-3.242c15.954,-5.09 3.873,-11.55 18.373,-25.286c14.501,-13.736 21.467,-16.1 21.467,-16.1l5.366,-2.683Zm-26.833,2.683c0.001,0.056 0.127,11.085 -10.733,16.1c-10.887,5.027 -16.891,0.413 -26.833,8.05c-9.942,7.637 -21.824,10.493 -26.832,8.05l64.398,-32.2Z" style="fill:#d5aa85;fill-opacity:0.8;"/><path d="M172.464,163.703c0,0 2.211,-1.476 5.271,-2.731c3.061,-1.255 14.414,-6.393 16.195,-10.903c4.604,-11.655 22.242,-10.786 16.1,-8.662c-6.142,2.125 -10.146,5.099 -13.686,14.163c-3.541,9.064 -7.781,10.927 -7.781,10.927l-5.31,2.6l-10.789,-5.394Zm42.932,-5.367c-4.835,-2.581 6.818,-9.599 10.733,-10.733c3.916,-1.134 13.505,-13.737 14.78,-15.909c1.275,-2.171 4.107,-6.467 14.45,-7.042c10.343,-0.575 5.945,-1.55 24.436,1.485l-64.399,32.199Zm26.833,-67.082l21.466,10.733c-0.002,0.015 -0.153,0.728 -4.393,2.197c-4.285,1.485 -16.251,1.631 -19.312,4.289c-3.061,2.659 -18.891,19.153 -28.219,19.476c-9.327,0.324 -28.629,14.831 -31.283,17.165c-2.654,2.335 -18.757,7.856 -18.757,7.856l-5.367,2.683l-21.466,-10.733c7.557,-3.95 10.146,-6.389 14.82,-10.071c4.674,-3.683 9.489,0 28.112,-3.155c18.624,-3.154 23.441,-18.798 31.797,-24.139c8.357,-5.341 7.008,-1.826 32.602,-16.301Zm-150.337,32.163l0.073,-0.037l5.367,-2.683c0,0 15.18,-5.592 22.942,-3.936c13.54,2.888 17.955,8.502 9.257,6.742c-9.065,-1.834 -16.639,5.269 -21.483,7.992l-16.156,-8.078Zm187.903,-13.38l10.733,5.367c0,0 -3.089,1.795 -5.366,2.683c-12.581,4.908 -4.45,-0.83 -10.733,0c-12.495,1.651 0,-5.462 0,-5.462l5.366,-2.588Zm-80.498,-40.249l16.099,8.05c0,0 -3.364,1.482 -5.366,2.683c-2.003,1.202 -18.302,5.035 -26,8.466c-7.698,3.432 -7.385,11.942 -13.315,20.176c-5.93,8.234 -12.488,7.139 -20.392,7.936c-7.904,0.798 -12.188,1.849 3.767,-3.242c15.955,-5.09 3.873,-11.55 18.374,-25.286c14.5,-13.736 21.466,-16.1 21.466,-16.1l5.367,-2.683Zm-26.833,2.683c0.001,0.056 0.127,11.085 -10.733,16.1c-10.888,5.027 -16.891,0.413 -26.833,8.05c-9.942,7.637 -21.825,10.493 -26.833,8.05l64.399,-32.2Z" style="fill:#89e0ec;fill-opacity:0.8;"/><path d="M172.464,56.372c0,0 2.211,-1.477 5.271,-2.731c3.061,-1.255 14.414,-6.394 16.195,-10.904c4.604,-11.654 22.242,-10.785 16.1,-8.661c-6.142,2.124 -10.146,5.099 -13.686,14.163c-3.541,9.064 -7.781,10.927 -7.781,10.927l-5.31,2.6l-10.789,-5.394Zm42.932,-5.367c-4.835,-2.581 6.818,-9.599 10.733,-10.733c3.916,-1.134 13.505,-13.737 14.78,-15.909c1.275,-2.171 4.107,-6.468 14.45,-7.042c10.343,-0.575 5.945,-1.55 24.436,1.485l-64.399,32.199Zm26.833,-67.082l21.466,10.733c-0.002,0.015 -0.153,0.727 -4.393,2.197c-4.285,1.485 -16.251,1.631 -19.312,4.289c-3.061,2.659 -18.891,19.152 -28.219,19.476c-9.327,0.324 -28.629,14.831 -31.283,17.165c-2.654,2.335 -18.757,7.855 -18.757,7.855l-5.367,2.684l-21.466,-10.733c7.557,-3.95 10.146,-6.389 14.82,-10.072c4.674,-3.682 9.489,0 28.112,-3.154c18.624,-3.154 23.441,-18.798 31.797,-24.139c8.357,-5.341 7.008,-1.826 32.602,-16.301Zm-150.337,32.162l0.073,-0.036l5.367,-2.684c0,0 15.18,-5.591 22.942,-3.936c13.54,2.889 17.955,8.502 9.257,6.743c-9.065,-1.834 -16.639,5.269 -21.483,7.991l-16.156,-8.078Zm187.903,-13.379l10.733,5.366c0,0 -3.089,1.795 -5.366,2.684c-12.581,4.908 -4.45,-0.831 -10.733,0c-12.495,1.651 0,-5.462 0,-5.462l5.366,-2.588Zm-80.498,-40.249l16.099,8.05c0,0 -3.364,1.481 -5.366,2.683c-2.003,1.201 -18.302,5.034 -26,8.466c-7.698,3.432 -7.385,11.941 -13.315,20.176c-5.93,8.234 -12.488,7.138 -20.392,7.936c-7.904,0.798 -12.188,1.849 3.767,-3.242c15.955,-5.091 3.873,-11.55 18.374,-25.286c14.5,-13.736 21.466,-16.1 21.466,-16.1l5.367,-2.683Zm-26.833,2.683c0.001,0.055 0.127,11.085 -10.733,16.1c-10.888,5.027 -16.891,0.413 -26.833,8.049c-9.942,7.637 -21.825,10.494 -26.833,8.05l64.399,-32.199Z" style="fill:#89e0ec;fill-opacity:0.8;"/><path d="M-42.199,56.372c0,0 2.211,-1.477 5.272,-2.731c3.06,-1.255 14.413,-6.394 16.195,-10.904c4.603,-11.654 22.241,-10.785 16.099,-8.661c-6.142,2.124 -10.145,5.099 -13.686,14.163c-3.54,9.064 -7.78,10.927 -7.78,10.927l-5.31,2.6l-10.79,-5.394Zm42.933,-5.367c-4.835,-2.581 6.817,-9.599 10.733,-10.733c3.915,-1.134 13.505,-13.737 14.779,-15.909c1.275,-2.171 4.108,-6.468 14.451,-7.042c10.342,-0.575 5.944,-1.55 24.436,1.485l-64.399,32.199Zm26.833,-67.082l21.466,10.733c-0.003,0.015 -0.154,0.727 -4.394,2.197c-4.285,1.485 -16.25,1.631 -19.312,4.289c-3.061,2.659 -18.891,19.152 -28.218,19.476c-9.327,0.324 -28.629,14.831 -31.284,17.165c-2.654,2.335 -18.757,7.855 -18.757,7.855l-5.366,2.684l-21.467,-10.733c7.557,-3.95 10.147,-6.389 14.82,-10.072c4.674,-3.682 9.49,0 28.113,-3.154c18.623,-3.154 23.44,-18.798 31.797,-24.139c8.356,-5.341 7.008,-1.826 32.602,-16.301Zm-150.338,32.162l0.074,-0.036l5.366,-2.684c0,0 15.18,-5.591 22.942,-3.936c13.54,2.889 17.956,8.502 9.258,6.743c-9.066,-1.834 -16.64,5.269 -21.484,7.991l-16.156,-8.078Zm187.904,-13.379l10.733,5.366c0,0 -3.09,1.795 -5.367,2.684c-12.581,4.908 -4.449,-0.831 -10.733,0c-12.494,1.651 0,-5.462 0,-5.462l5.367,-2.588Zm-80.499,-40.249l16.1,8.05c0,0 -3.364,1.481 -5.367,2.683c-2.002,1.201 -18.301,5.034 -26,8.466c-7.698,3.432 -7.384,11.941 -13.314,20.176c-5.93,8.234 -12.489,7.138 -20.393,7.936c-7.904,0.798 -12.187,1.849 3.768,-3.242c15.954,-5.091 3.873,-11.55 18.373,-25.286c14.501,-13.736 21.467,-16.1 21.467,-16.1l5.366,-2.683Zm-26.833,2.683c0.001,0.055 0.127,11.085 -10.733,16.1c-10.887,5.027 -16.891,0.413 -26.833,8.049c-9.942,7.637 -21.824,10.494 -26.832,8.05l64.398,-32.199Z" style="fill:#d5aa85;fill-opacity:0.8;"/><path d="M65.133,2.706c0,0 2.21,-1.476 5.271,-2.731c3.06,-1.255 14.413,-6.393 16.195,-10.903c4.603,-11.655 22.241,-10.786 16.099,-8.662c-6.142,2.125 -10.145,5.099 -13.685,14.163c-3.541,9.064 -7.781,10.927 -7.781,10.927l-5.31,2.601l-10.789,-5.395Zm42.932,-5.367c-4.835,-2.581 6.818,-9.599 10.733,-10.733c3.916,-1.134 13.505,-13.737 14.78,-15.908c1.274,-2.172 4.107,-6.468 14.45,-7.043c10.343,-0.575 5.944,-1.55 24.436,1.485l-64.399,32.199Zm26.833,-67.082l21.466,10.733c-0.003,0.016 -0.153,0.728 -4.393,2.197c-4.286,1.485 -16.251,1.631 -19.312,4.29c-3.061,2.658 -18.892,19.152 -28.219,19.475c-9.327,0.324 -28.629,14.831 -31.283,17.165c-2.655,2.335 -18.758,7.856 -18.758,7.856l-5.366,2.683l-21.466,-10.733c7.557,-3.95 10.146,-6.389 14.82,-10.071c4.673,-3.683 9.489,0 28.112,-3.154c18.623,-3.155 23.44,-18.799 31.797,-24.14c8.356,-5.341 7.008,-1.825 32.602,-16.301Zm-150.338,32.163l0.074,-0.037l5.367,-2.683c0,0 15.18,-5.592 22.941,-3.936c13.541,2.888 17.956,8.502 9.258,6.742c-9.066,-1.834 -16.639,5.269 -21.484,7.992l-16.156,-8.078Zm187.904,-13.38l10.733,5.367c0,0 -3.09,1.795 -5.367,2.683c-12.58,4.908 -4.449,-0.83 -10.733,0c-12.494,1.651 0,-5.462 0,-5.462l5.367,-2.588Zm-80.499,-40.249l16.1,8.05c0,0 -3.364,1.482 -5.367,2.683c-2.002,1.202 -18.301,5.035 -25.999,8.467c-7.699,3.431 -7.385,11.941 -13.315,20.175c-5.93,8.234 -12.488,7.139 -20.392,7.936c-7.904,0.798 -12.188,1.849 3.767,-3.241c15.955,-5.091 3.873,-11.551 18.374,-25.287c14.5,-13.736 21.466,-16.1 21.466,-16.1l5.366,-2.683Zm-26.832,2.683c0,0.056 0.126,11.086 -10.734,16.1c-10.887,5.027 -16.891,0.413 -26.832,8.05c-9.942,7.637 -21.825,10.493 -26.833,8.05l64.399,-32.2Z" style="fill:#d5aa85;fill-opacity:0.8;"/><path d="M279.795,110.037c0,0 2.211,-1.476 5.271,-2.731c3.061,-1.254 14.414,-6.393 16.195,-10.903c4.604,-11.655 22.242,-10.786 16.1,-8.661c-6.142,2.124 -10.145,5.098 -13.686,14.163c-3.541,9.064 -7.78,10.927 -7.78,10.927l-5.311,2.6l-10.789,-5.395Zm42.933,-5.366c-4.835,-2.581 6.817,-9.6 10.733,-10.734c3.915,-1.133 13.505,-13.737 14.779,-15.908c1.275,-2.172 4.107,-6.468 14.45,-7.043c10.343,-0.574 5.945,-1.549 24.436,1.485l-64.398,32.2Zm26.832,-67.082l21.467,10.733c-0.003,0.015 -0.154,0.727 -4.394,2.196c-4.285,1.485 -16.251,1.631 -19.312,4.29c-3.061,2.659 -18.891,19.152 -28.218,19.476c-9.328,0.323 -28.629,14.83 -31.284,17.165c-2.654,2.334 -18.757,7.855 -18.757,7.855l-5.367,2.683l-21.466,-10.733c7.557,-3.95 10.147,-6.389 14.82,-10.071c4.674,-3.682 9.489,0 28.113,-3.154c18.623,-3.154 23.44,-18.798 31.796,-24.139c8.357,-5.341 7.008,-1.826 32.602,-16.301Zm-150.337,32.162l0.074,-0.037l5.366,-2.683c0,0 15.18,-5.592 22.942,-3.936c13.54,2.889 17.956,8.502 9.258,6.742c-9.066,-1.834 -16.64,5.269 -21.484,7.992l-16.156,-8.078Zm187.903,-13.379l10.733,5.366c0,0 -3.089,1.795 -5.366,2.683c-12.581,4.908 -4.449,-0.83 -10.733,0c-12.495,1.651 0,-5.461 0,-5.461l5.366,-2.588Zm-80.498,-40.25l16.1,8.05c0,0 -3.365,1.482 -5.367,2.683c-2.002,1.202 -18.302,5.035 -26,8.467c-7.698,3.432 -7.384,11.941 -13.314,20.175c-5.93,8.235 -12.489,7.139 -20.393,7.937c-7.904,0.797 -12.187,1.849 3.767,-3.242c15.955,-5.091 3.874,-11.551 18.374,-25.287c14.5,-13.736 21.466,-16.099 21.466,-16.099l5.367,-2.684Zm-26.833,2.684c0.001,0.055 0.127,11.085 -10.733,16.099c-10.887,5.027 -16.891,0.413 -26.833,8.05c-9.942,7.637 -21.825,10.493 -26.833,8.05l64.399,-32.199Z" style="fill:#d5aa85;fill-opacity:0.8;"/></g></g></svg>