<?xml version="1.0" encoding="UTF-8" standalone="no"?><!DOCTYPE svg PUBLIC "-//W3C//DTD SVG 1.1//EN" "http://www.w3.org/Graphics/SVG/1.1/DTD/svg11.dtd"><svg width="100%" height="100%" viewBox="0 0 216 109" version="1.1" xmlns="http://www.w3.org/2000/svg" xmlns:xlink="http://www.w3.org/1999/xlink" xml:space="preserve" xmlns:serif="http://www.serif.com/" style="fill-rule:evenodd;clip-rule:evenodd;stroke-linejoin:round;stroke-miterlimit:1.41421;"><path id="WaterAnim2Flat03" d="M215.615,54.515c-18.315,4.827 -37.164,11.849 -51.343,22.628c-21.691,16.489 -44.102,29.208 -55.988,31.038c-10.433,-11.312 -34.041,-20.489 -51.229,-25.614c-23.257,-6.935 -35.175,-18.792 -56.103,-28.052c22.315,-7.788 40.935,-20.412 58.986,-34.808c12.95,-10.328 30.602,-14.016 48.346,-18.857c21.395,10.647 39.54,21.2 55.969,26.464c25.326,8.113 49.918,22.162 51.362,27.201Z" style="fill:#cc5b5a;"/><clipPath id="_clip1"><path d="M215.615,54.515c-18.315,4.827 -37.164,11.849 -51.343,22.628c-21.691,16.489 -44.102,29.208 -55.988,31.038c-10.433,-11.312 -34.041,-20.489 -51.229,-25.614c-23.257,-6.935 -35.175,-18.792 -56.103,-28.052c22.315,-7.788 40.935,-20.412 58.986,-34.808c12.95,-10.328 30.602,-14.016 48.346,-18.857c21.395,10.647 39.54,21.2 55.969,26.464c25.326,8.113 49.918,22.162 51.362,27.201Z"/></clipPath><g clip-path="url(#_clip1)"><g><g opacity="0.75"><path d="M84.61,22.016c0.077,-0.043 20.4,-11.371 26.833,-8.05c6.445,3.328 35.833,-1.457 0,16.1l-5.42,2.656l-21.413,-10.706Zm37.566,8.05c-3.448,-2.955 12.79,-10.655 18.839,-13.501c6.021,-2.834 7.976,0.058 7.994,0.084l-26.833,13.417Zm-80.498,-29.516c0.034,-0.019 6.878,-3.813 19.711,-2.621c12.865,1.196 17.122,-6.635 19.548,-9.949c2.425,-3.315 10.656,-7.063 18.495,-0.208c7.84,6.856 8.523,13.55 6.644,18.144c-1.878,4.594 -22.979,11.366 -26.832,13.417l-37.566,-18.783Zm88.329,5.044c0,0 -14.771,4.159 -9.761,6.527c5.009,2.368 10.908,2.685 15.609,2.572c4.702,-0.113 18.396,-4.731 22.57,-9.435c4.174,-4.704 0.948,-3.703 -9.416,-2.245c-10.365,1.457 -19.002,2.581 -19.002,2.581Zm-23.931,-30.045c3.904,-2.224 13.345,2.747 20.169,2.886c6.824,0.138 10.839,2.385 10.566,8.866c-0.273,6.482 5.242,13.331 -0.273,14.932c-5.514,1.601 -23.061,3.291 -25.095,-0.089c-2.034,-3.38 -1.955,-11.673 -4.218,-14.865c-2.263,-3.191 -7.239,-8.261 -1.149,-11.73Zm101.993,11.57l-21.494,10.747c-3.109,-1.637 -6.231,-2.81 -10.733,-4.88c-4.503,-2.071 -30.173,15.831 -33.826,4.067c-3.653,-11.764 1.233,-14.564 6.993,-14.066c5.76,0.498 12.386,0.569 20.171,-8.623c7.786,-9.191 22.884,-3.118 25.588,-1.126c2.704,1.993 0.711,7.258 2.568,8.515c1.857,1.256 10.705,5.352 10.705,5.352l0.028,0.014Zm-193.227,0.013l0.003,-0.002c0,0 3.785,-2.84 8.219,-1.257c4.434,1.583 22.787,7.469 18.614,9.307c-4.174,1.838 -5.367,2.683 -5.367,2.683l-0.003,0.002l-21.466,-10.733Zm26.921,-24.191c0.82,0.081 7.286,0.905 7.928,6.719c0.685,6.209 7.72,4.16 13.453,5.241c5.733,1.082 11.653,7.173 9.889,12.695c-1.765,5.522 -16.144,6.48 -18.575,6.513c-2.431,0.033 -9.49,-3.553 -13.93,-8.278c-4.385,-4.665 -24.661,-8.449 -25.654,-9.445l26.889,-13.445Zm150.178,5.409l21.47,10.735c-1.738,0.867 -3.657,1.825 -5.37,2.682c-4.619,2.31 -4.066,-6.74 -11.926,-9.227c-7.824,-2.475 -4.206,-4.175 -4.174,-4.19Zm-44.994,-5.056c1.837,0.496 16.631,1.292 17.484,5.163c0.854,3.871 1.225,7.569 -7.101,9.421c-8.326,1.851 -15.033,5.551 -16.575,3.616c-1.542,-1.936 -0.705,-20.062 6.192,-18.2Zm-95.482,-0.783c0.24,-1.903 3.462,-5.729 9.736,-5.866c6.273,-0.136 10.631,-2.749 13.319,-4.716c2.688,-1.967 14.221,-1.853 15.457,8.906c1.235,10.759 7.782,14.744 2.203,18.274c-5.579,3.529 -14.175,3.188 -15.882,1.821c-1.708,-1.366 -0.374,-8.14 -2.948,-9.506c-2.574,-1.367 -11.471,1.059 -14.679,-0.837c-3.209,-1.896 -8.414,-2.814 -7.206,-8.076Zm48.759,-7.334c0,0 22.216,0.432 25.455,1.737c3.239,1.306 14.794,0.127 15.076,4.83c0.282,4.703 -0.387,11.036 -8.391,12.261c-8.004,1.226 -18.113,-2.531 -22.398,-3.71c-4.285,-1.179 -14.175,1.711 -14.623,-3.292c-0.447,-5.003 -3.133,-13.423 4.881,-11.826Zm48.785,-8.293l37.566,18.783c-4.287,2.066 -28.096,-3.317 -32.2,-4.15c-4.103,-0.834 -12.296,-1.112 -14.394,-4.753c-2.093,-3.631 8.972,-9.849 9.028,-9.88Zm-26.833,-13.416l21.466,10.733c0,0 -2.259,1.147 -6.102,6.484c-3.842,5.337 -9.037,2.846 -23.216,2.809c-14.18,-0.038 -11.082,-15.617 -6.101,-17.539c4.981,-1.921 13.953,-2.487 13.953,-2.487Zm-21.466,0c0,0 7.414,2.499 -1.478,11.472c-8.89,8.971 -17.777,0.083 -19.988,-0.739l21.466,-10.733Z" style="fill:#ab3032;fill-opacity:0.75;"/><path d="M191.944,75.683c0.077,-0.043 20.4,-11.371 26.833,-8.05c6.445,3.328 35.833,-1.457 0,16.1l-5.42,2.657l-21.413,-10.707Zm37.566,8.05c-3.448,-2.955 12.791,-10.655 18.839,-13.501c6.021,-2.834 7.977,0.059 7.994,0.085l-26.833,13.416Zm-80.498,-29.516c0.034,-0.019 6.878,-3.813 19.711,-2.621c12.866,1.196 17.122,-6.635 19.548,-9.949c2.426,-3.314 10.656,-7.063 18.495,-0.208c7.84,6.856 8.524,13.551 6.645,18.144c-1.879,4.594 -22.98,11.366 -26.833,13.417l-37.566,-18.783Zm88.329,5.044c0,0 -14.77,4.159 -9.761,6.527c5.01,2.368 10.908,2.686 15.61,2.573c4.701,-0.114 18.396,-4.732 22.57,-9.436c4.173,-4.704 0.948,-3.702 -9.417,-2.245c-10.364,1.457 -19.002,2.581 -19.002,2.581Zm-23.93,-30.045c3.904,-2.224 13.344,2.748 20.168,2.886c6.825,0.138 10.839,2.385 10.566,8.867c-0.272,6.481 5.242,13.33 -0.272,14.931c-5.515,1.601 -23.062,3.291 -25.096,-0.089c-2.033,-3.38 -1.955,-11.673 -4.218,-14.865c-2.263,-3.191 -7.239,-8.261 -1.148,-11.73Zm101.992,11.57l-21.494,10.748c-3.109,-1.637 -6.231,-2.811 -10.733,-4.881c-4.502,-2.07 -30.173,15.831 -33.826,4.067c-3.653,-11.764 1.234,-14.564 6.993,-14.066c5.76,0.498 12.386,0.569 20.171,-8.623c7.786,-9.191 22.884,-3.118 25.588,-1.126c2.704,1.993 0.712,7.259 2.568,8.515c1.857,1.256 10.705,5.352 10.705,5.352l0.028,0.014Zm-193.227,0.013l0.003,-0.002c0,0 3.785,-2.84 8.219,-1.257c4.434,1.583 22.787,7.469 18.614,9.307c-4.173,1.838 -5.367,2.683 -5.367,2.683l-0.003,0.002l-21.466,-10.733Zm26.922,-24.191c0.819,0.081 7.285,0.905 7.927,6.719c0.685,6.209 7.72,4.16 13.453,5.241c5.733,1.082 11.654,7.173 9.889,12.695c-1.765,5.522 -16.144,6.48 -18.575,6.513c-2.431,0.034 -9.49,-3.553 -13.93,-8.278c-4.385,-4.665 -24.661,-8.449 -25.654,-9.445l26.89,-13.445Zm150.178,5.409l21.469,10.735c-1.737,0.867 -3.657,1.825 -5.37,2.682c-4.619,2.31 -4.066,-6.74 -11.926,-9.227c-7.824,-2.475 -4.206,-4.174 -4.173,-4.19Zm-44.995,-5.056c1.837,0.496 16.631,1.293 17.485,5.164c0.854,3.871 1.225,7.569 -7.101,9.42c-8.326,1.851 -15.034,5.551 -16.576,3.616c-1.542,-1.936 -0.705,-20.062 6.192,-18.2Zm-95.482,-0.783c0.241,-1.903 3.463,-5.729 9.736,-5.865c6.273,-0.137 10.631,-2.75 13.319,-4.717c2.689,-1.967 14.221,-1.853 15.457,8.906c1.236,10.759 7.782,14.744 2.203,18.274c-5.578,3.529 -14.174,3.188 -15.882,1.821c-1.708,-1.366 -0.374,-8.14 -2.948,-9.506c-2.574,-1.367 -11.471,1.059 -14.679,-0.837c-3.208,-1.896 -8.413,-2.814 -7.206,-8.076Zm48.759,-7.334c0,0 22.217,0.432 25.456,1.738c3.239,1.305 14.793,0.126 15.075,4.829c0.283,4.703 -0.387,11.036 -8.391,12.261c-8.004,1.226 -18.113,-2.531 -22.398,-3.71c-4.285,-1.179 -14.175,1.712 -14.622,-3.292c-0.448,-5.003 -3.134,-13.423 4.88,-11.826Zm48.785,-8.293l37.566,18.783c-4.286,2.066 -28.096,-3.316 -32.199,-4.15c-4.104,-0.834 -12.297,-1.112 -14.395,-4.752c-2.092,-3.631 8.973,-9.85 9.028,-9.881Zm-26.833,-13.416l21.467,10.733c0,0 -2.26,1.147 -6.102,6.484c-3.843,5.337 -9.038,2.847 -23.217,2.809c-14.179,-0.038 -11.082,-15.617 -6.101,-17.539c4.981,-1.921 13.953,-2.487 13.953,-2.487Zm-21.466,0c0,0 7.414,2.499 -1.477,11.472c-8.89,8.971 -17.777,0.083 -19.989,-0.739l21.466,-10.733Z" style="fill:#ab3032;fill-opacity:0.75;"/><path d="M-22.73,75.683c0.076,-0.043 20.4,-11.371 26.833,-8.05c6.445,3.328 35.832,-1.457 0,16.1l-5.42,2.657l-21.413,-10.707Zm37.566,8.05c-3.449,-2.955 12.79,-10.655 18.838,-13.501c6.022,-2.834 7.977,0.058 7.995,0.084l-26.833,13.417Zm-80.499,-29.516c0.035,-0.019 6.878,-3.813 19.712,-2.621c12.865,1.196 17.122,-6.635 19.547,-9.949c2.426,-3.315 10.656,-7.063 18.496,-0.208c7.839,6.856 8.523,13.551 6.644,18.144c-1.879,4.594 -22.979,11.366 -26.833,13.417l-37.566,-18.783Zm88.33,5.044c0,0 -14.771,4.159 -9.762,6.527c5.01,2.368 10.908,2.686 15.61,2.572c4.702,-0.113 18.396,-4.731 22.57,-9.435c4.174,-4.704 0.948,-3.702 -9.416,-2.245c-10.365,1.457 -19.002,2.581 -19.002,2.581Zm-23.931,-30.045c3.904,-2.224 13.345,2.747 20.169,2.886c6.824,0.138 10.838,2.385 10.566,8.867c-0.273,6.481 5.242,13.33 -0.273,14.931c-5.515,1.601 -23.062,3.291 -25.095,-0.089c-2.034,-3.38 -1.956,-11.673 -4.218,-14.865c-2.263,-3.191 -7.239,-8.261 -1.149,-11.73Zm101.993,11.57l-21.494,10.747c-3.109,-1.636 -6.231,-2.81 -10.734,-4.88c-4.502,-2.07 -30.173,15.831 -33.826,4.067c-3.653,-11.764 1.234,-14.564 6.994,-14.066c5.759,0.498 12.385,0.569 20.171,-8.623c7.785,-9.191 22.883,-3.118 25.587,-1.126c2.704,1.993 0.712,7.258 2.569,8.515c1.857,1.256 10.705,5.352 10.705,5.352l0.028,0.014Zm-193.228,0.013l0.004,-0.002c0,0 3.784,-2.84 8.218,-1.257c4.434,1.583 22.788,7.469 18.614,9.307c-4.173,1.838 -5.366,2.683 -5.366,2.683l-0.003,0.002l-21.467,-10.733Zm26.922,-24.191c0.819,0.081 7.286,0.905 7.927,6.719c0.686,6.209 7.721,4.16 13.454,5.241c5.733,1.082 11.653,7.173 9.888,12.695c-1.764,5.522 -16.143,6.48 -18.574,6.513c-2.432,0.034 -9.49,-3.553 -13.931,-8.278c-4.384,-4.665 -24.661,-8.449 -25.654,-9.445l26.89,-13.445Zm150.178,5.409l21.469,10.735c-1.737,0.867 -3.657,1.825 -5.369,2.682c-4.619,2.31 -4.067,-6.74 -11.926,-9.227c-7.825,-2.475 -4.207,-4.174 -4.174,-4.19Zm-44.995,-5.056c1.837,0.496 16.631,1.292 17.485,5.163c0.854,3.871 1.225,7.57 -7.101,9.421c-8.326,1.851 -15.033,5.551 -16.575,3.616c-1.542,-1.936 -0.705,-20.062 6.191,-18.2Zm-95.481,-0.783c0.24,-1.903 3.462,-5.729 9.735,-5.865c6.274,-0.137 10.631,-2.75 13.32,-4.717c2.688,-1.967 14.221,-1.853 15.456,8.906c1.236,10.759 7.782,14.744 2.204,18.274c-5.579,3.529 -14.175,3.188 -15.883,1.821c-1.708,-1.366 -0.374,-8.14 -2.948,-9.506c-2.574,-1.367 -11.471,1.059 -14.679,-0.837c-3.208,-1.896 -8.413,-2.814 -7.205,-8.076Zm48.759,-7.334c0,0 22.216,0.432 25.455,1.737c3.239,1.306 14.793,0.127 15.076,4.83c0.282,4.703 -0.388,11.036 -8.392,12.261c-8.004,1.226 -18.113,-2.531 -22.398,-3.71c-4.285,-1.179 -14.175,1.711 -14.622,-3.292c-0.448,-5.003 -3.133,-13.423 4.881,-11.826Zm48.785,-8.293l37.566,18.783c-4.287,2.066 -28.096,-3.316 -32.2,-4.15c-4.103,-0.834 -12.296,-1.112 -14.394,-4.752c-2.093,-3.631 8.972,-9.85 9.028,-9.881Zm-26.833,-13.416l21.466,10.733c0,0 -2.26,1.147 -6.102,6.484c-3.843,5.337 -9.037,2.847 -23.217,2.809c-14.179,-0.038 -11.081,-15.617 -6.1,-17.539c4.981,-1.921 13.953,-2.487 13.953,-2.487Zm-21.466,0c0,0 7.413,2.499 -1.478,11.472c-8.89,8.971 -17.777,0.083 -19.989,-0.739l21.467,-10.733Z" style="fill:#ab3032;fill-opacity:0.75;"/><path d="M191.929,183.019c0.077,-0.043 20.4,-11.371 26.833,-8.05c6.445,3.328 35.833,-1.457 0,16.1l-5.42,2.656l-21.413,-10.706Zm37.566,8.05c-3.448,-2.956 12.791,-10.655 18.839,-13.501c6.021,-2.834 7.977,0.058 7.994,0.084l-26.833,13.417Zm-80.498,-29.516c0.034,-0.02 6.878,-3.813 19.711,-2.621c12.866,1.196 17.122,-6.635 19.548,-9.949c2.426,-3.315 10.656,-7.063 18.495,-0.208c7.84,6.855 8.523,13.55 6.645,18.144c-1.879,4.594 -22.98,11.365 -26.833,13.417l-37.566,-18.783Zm88.329,5.044c0,0 -14.77,4.159 -9.761,6.527c5.01,2.368 10.908,2.685 15.61,2.572c4.701,-0.113 18.396,-4.731 22.57,-9.435c4.173,-4.705 0.948,-3.703 -9.417,-2.245c-10.364,1.457 -19.002,2.581 -19.002,2.581Zm-23.93,-30.045c3.904,-2.224 13.344,2.747 20.168,2.886c6.825,0.138 10.839,2.385 10.566,8.866c-0.272,6.482 5.242,13.331 -0.272,14.932c-5.515,1.601 -23.062,3.291 -25.096,-0.089c-2.033,-3.38 -1.955,-11.673 -4.218,-14.865c-2.263,-3.191 -7.239,-8.261 -1.148,-11.73Zm101.992,11.57l-21.494,10.747c-3.109,-1.637 -6.231,-2.81 -10.733,-4.88c-4.502,-2.071 -30.173,15.831 -33.826,4.067c-3.653,-11.764 1.234,-14.564 6.993,-14.066c5.76,0.498 12.386,0.569 20.171,-8.623c7.786,-9.192 22.884,-3.118 25.588,-1.126c2.704,1.993 0.712,7.258 2.568,8.515c1.857,1.256 10.705,5.352 10.705,5.352l0.028,0.014Zm-193.227,0.013l0.003,-0.002c0,0 3.785,-2.84 8.219,-1.257c4.434,1.583 22.787,7.469 18.614,9.307c-4.173,1.838 -5.367,2.683 -5.367,2.683l-0.003,0.002l-21.466,-10.733Zm26.921,-24.191c0.82,0.081 7.286,0.904 7.928,6.719c0.685,6.209 7.72,4.16 13.453,5.241c5.733,1.082 11.654,7.173 9.889,12.695c-1.765,5.522 -16.144,6.48 -18.575,6.513c-2.431,0.033 -9.49,-3.553 -13.93,-8.278c-4.385,-4.665 -24.661,-8.449 -25.654,-9.445l26.889,-13.445Zm150.179,5.409l21.469,10.735c-1.738,0.867 -3.657,1.825 -5.37,2.682c-4.619,2.31 -4.066,-6.741 -11.926,-9.227c-7.824,-2.475 -4.206,-4.175 -4.173,-4.19Zm-44.995,-5.056c1.837,0.496 16.631,1.292 17.485,5.163c0.854,3.871 1.225,7.569 -7.101,9.421c-8.326,1.851 -15.034,5.551 -16.576,3.615c-1.542,-1.935 -0.705,-20.061 6.192,-18.199Zm-95.482,-0.783c0.241,-1.904 3.462,-5.729 9.736,-5.866c6.273,-0.136 10.631,-2.749 13.319,-4.716c2.689,-1.967 14.221,-1.853 15.457,8.906c1.235,10.759 7.782,14.744 2.203,18.274c-5.579,3.529 -14.174,3.187 -15.882,1.821c-1.708,-1.366 -0.374,-8.14 -2.948,-9.507c-2.574,-1.366 -11.471,1.06 -14.679,-0.836c-3.208,-1.896 -8.413,-2.814 -7.206,-8.076Zm48.759,-7.334c0,0 22.217,0.432 25.456,1.737c3.239,1.305 14.793,0.127 15.075,4.83c0.283,4.703 -0.387,11.035 -8.391,12.261c-8.004,1.226 -18.113,-2.531 -22.398,-3.71c-4.285,-1.18 -14.175,1.711 -14.622,-3.292c-0.448,-5.003 -3.134,-13.424 4.88,-11.826Zm48.785,-8.293l37.566,18.783c-4.286,2.066 -28.096,-3.317 -32.199,-4.151c-4.104,-0.833 -12.297,-1.111 -14.395,-4.752c-2.092,-3.631 8.972,-9.849 9.028,-9.88Zm-26.833,-13.416l21.467,10.733c0,0 -2.26,1.147 -6.103,6.484c-3.842,5.337 -9.037,2.846 -23.216,2.808c-14.179,-0.037 -11.082,-15.616 -6.101,-17.538c4.981,-1.921 13.953,-2.487 13.953,-2.487Zm-21.466,0c0,0 7.414,2.499 -1.477,11.471c-8.89,8.972 -17.778,0.084 -19.989,-0.738l21.466,-10.733Z" style="fill:#ab3032;fill-opacity:0.75;"/><path d="M84.604,129.35c0.077,-0.043 20.4,-11.371 26.833,-8.05c6.445,3.328 35.833,-1.457 0,16.1l-5.42,2.657l-21.413,-10.707Zm37.566,8.05c-3.448,-2.955 12.79,-10.655 18.839,-13.501c6.021,-2.834 7.976,0.059 7.994,0.085l-26.833,13.416Zm-80.498,-29.516c0.034,-0.019 6.878,-3.813 19.711,-2.62c12.865,1.195 17.122,-6.635 19.548,-9.95c2.425,-3.314 10.656,-7.063 18.495,-0.208c7.84,6.856 8.523,13.551 6.644,18.144c-1.878,4.594 -22.979,11.366 -26.832,13.417l-37.566,-18.783Zm88.329,5.044c0,0 -14.771,4.159 -9.761,6.527c5.009,2.368 10.908,2.686 15.609,2.573c4.702,-0.114 18.396,-4.732 22.57,-9.436c4.174,-4.704 0.948,-3.702 -9.416,-2.245c-10.365,1.457 -19.002,2.581 -19.002,2.581Zm-23.931,-30.045c3.904,-2.224 13.345,2.748 20.169,2.886c6.824,0.138 10.839,2.385 10.566,8.867c-0.273,6.481 5.242,13.33 -0.273,14.931c-5.514,1.601 -23.061,3.291 -25.095,-0.089c-2.034,-3.38 -1.955,-11.673 -4.218,-14.864c-2.263,-3.192 -7.239,-8.262 -1.149,-11.731Zm101.993,11.571l-21.494,10.747c-3.109,-1.637 -6.231,-2.811 -10.733,-4.881c-4.503,-2.07 -30.173,15.832 -33.826,4.067c-3.653,-11.764 1.233,-14.564 6.993,-14.066c5.76,0.498 12.386,0.569 20.171,-8.622c7.786,-9.192 22.884,-3.119 25.588,-1.127c2.704,1.993 0.711,7.259 2.568,8.515c1.857,1.256 10.705,5.352 10.705,5.352l0.028,0.015Zm-193.227,0.012l0.003,-0.002c0,0 3.785,-2.84 8.219,-1.257c4.434,1.583 22.787,7.469 18.614,9.307c-4.174,1.838 -5.367,2.684 -5.367,2.684l-0.003,0.001l-21.466,-10.733Zm26.921,-24.191c0.82,0.081 7.286,0.905 7.928,6.719c0.685,6.209 7.72,4.16 13.453,5.242c5.733,1.081 11.653,7.172 9.889,12.694c-1.765,5.522 -16.144,6.48 -18.575,6.513c-2.431,0.034 -9.49,-3.553 -13.93,-8.278c-4.385,-4.665 -24.661,-8.449 -25.654,-9.445l26.889,-13.445Zm150.178,5.41l21.47,10.734c-1.738,0.867 -3.657,1.825 -5.37,2.682c-4.619,2.31 -4.066,-6.74 -11.926,-9.227c-7.824,-2.475 -4.206,-4.174 -4.174,-4.189Zm-44.994,-5.057c1.837,0.496 16.631,1.293 17.484,5.164c0.854,3.871 1.225,7.569 -7.101,9.42c-8.326,1.851 -15.033,5.551 -16.575,3.616c-1.542,-1.936 -0.705,-20.062 6.192,-18.2Zm-95.482,-0.783c0.24,-1.903 3.462,-5.729 9.736,-5.865c6.273,-0.137 10.631,-2.75 13.319,-4.717c2.688,-1.966 14.221,-1.853 15.457,8.906c1.235,10.76 7.782,14.744 2.203,18.274c-5.579,3.529 -14.175,3.188 -15.883,1.822c-1.707,-1.367 -0.373,-8.141 -2.947,-9.507c-2.574,-1.366 -11.471,1.059 -14.68,-0.837c-3.208,-1.896 -8.413,-2.814 -7.205,-8.076Zm48.759,-7.334c0,0 22.216,0.433 25.455,1.738c3.239,1.305 14.794,0.126 15.076,4.829c0.282,4.703 -0.387,11.036 -8.391,12.261c-8.004,1.226 -18.113,-2.531 -22.398,-3.71c-4.285,-1.179 -14.175,1.712 -14.623,-3.292c-0.447,-5.003 -3.133,-13.423 4.881,-11.826Zm48.785,-8.293l37.566,18.783c-4.287,2.066 -28.096,-3.316 -32.2,-4.15c-4.103,-0.834 -12.296,-1.112 -14.394,-4.752c-2.093,-3.631 8.972,-9.849 9.028,-9.881Zm-26.833,-13.416l21.466,10.733c0,0 -2.259,1.147 -6.102,6.484c-3.842,5.337 -9.037,2.847 -23.216,2.809c-14.18,-0.038 -11.082,-15.617 -6.101,-17.538c4.981,-1.922 13.953,-2.488 13.953,-2.488Zm-21.466,0c0,0 7.414,2.499 -1.478,11.472c-8.89,8.971 -17.777,0.083 -19.988,-0.739l21.466,-10.733Z" style="fill:#ab3032;fill-opacity:0.75;"/><path d="M-22.733,183.019c0.076,-0.043 20.4,-11.371 26.833,-8.05c6.445,3.328 35.832,-1.457 0,16.1l-5.42,2.656l-21.413,-10.706Zm37.566,8.05c-3.449,-2.956 12.79,-10.655 18.838,-13.501c6.022,-2.834 7.977,0.058 7.995,0.084l-26.833,13.417Zm-80.499,-29.516c0.035,-0.02 6.878,-3.813 19.712,-2.621c12.865,1.196 17.122,-6.635 19.547,-9.949c2.426,-3.315 10.656,-7.063 18.496,-0.208c7.839,6.855 8.523,13.55 6.644,18.144c-1.879,4.594 -22.979,11.365 -26.833,13.417l-37.566,-18.783Zm88.33,5.044c0,0 -14.771,4.159 -9.761,6.527c5.009,2.368 10.907,2.685 15.609,2.572c4.702,-0.113 18.396,-4.731 22.57,-9.435c4.174,-4.705 0.948,-3.703 -9.416,-2.245c-10.365,1.457 -19.002,2.581 -19.002,2.581Zm-23.931,-30.045c3.904,-2.224 13.345,2.747 20.169,2.886c6.824,0.138 10.839,2.385 10.566,8.866c-0.273,6.482 5.242,13.331 -0.273,14.932c-5.515,1.601 -23.062,3.291 -25.095,-0.089c-2.034,-3.38 -1.956,-11.673 -4.218,-14.865c-2.263,-3.191 -7.239,-8.261 -1.149,-11.73Zm101.993,11.57l-21.494,10.747c-3.109,-1.637 -6.231,-2.81 -10.734,-4.88c-4.502,-2.071 -30.173,15.831 -33.826,4.067c-3.653,-11.764 1.234,-14.564 6.994,-14.066c5.759,0.498 12.385,0.569 20.171,-8.623c7.785,-9.192 22.883,-3.118 25.587,-1.126c2.704,1.993 0.712,7.258 2.569,8.515c1.857,1.256 10.705,5.352 10.705,5.352l0.028,0.014Zm-193.227,0.013l0.003,-0.002c0,0 3.784,-2.84 8.218,-1.257c4.434,1.583 22.788,7.469 18.614,9.307c-4.173,1.838 -5.366,2.683 -5.366,2.683l-0.003,0.002l-21.466,-10.733Zm26.921,-24.191c0.819,0.081 7.286,0.904 7.927,6.719c0.686,6.209 7.721,4.16 13.454,5.241c5.733,1.082 11.653,7.173 9.888,12.695c-1.764,5.522 -16.143,6.48 -18.574,6.513c-2.432,0.033 -9.49,-3.553 -13.931,-8.278c-4.384,-4.665 -24.661,-8.449 -25.654,-9.445l26.89,-13.445Zm150.178,5.409l21.469,10.735c-1.737,0.867 -3.657,1.825 -5.369,2.682c-4.619,2.31 -4.067,-6.741 -11.926,-9.227c-7.825,-2.475 -4.206,-4.175 -4.174,-4.19Zm-44.995,-5.056c1.837,0.496 16.631,1.292 17.485,5.163c0.854,3.871 1.225,7.569 -7.101,9.421c-8.326,1.851 -15.033,5.551 -16.575,3.615c-1.542,-1.935 -0.705,-20.061 6.191,-18.199Zm-95.481,-0.783c0.24,-1.904 3.462,-5.729 9.735,-5.866c6.274,-0.136 10.631,-2.749 13.32,-4.716c2.688,-1.967 14.221,-1.853 15.456,8.906c1.236,10.759 7.783,14.744 2.204,18.274c-5.579,3.529 -14.175,3.187 -15.883,1.821c-1.708,-1.366 -0.374,-8.14 -2.948,-9.507c-2.574,-1.366 -11.471,1.06 -14.679,-0.836c-3.208,-1.896 -8.413,-2.814 -7.205,-8.076Zm48.759,-7.334c0,0 22.216,0.432 25.455,1.737c3.239,1.305 14.794,0.127 15.076,4.83c0.282,4.703 -0.388,11.035 -8.392,12.261c-8.004,1.226 -18.113,-2.531 -22.398,-3.71c-4.285,-1.18 -14.175,1.711 -14.622,-3.292c-0.447,-5.003 -3.133,-13.424 4.881,-11.826Zm48.785,-8.293l37.566,18.783c-4.287,2.066 -28.096,-3.317 -32.2,-4.151c-4.103,-0.833 -12.296,-1.111 -14.394,-4.752c-2.093,-3.631 8.972,-9.849 9.028,-9.88Zm-26.833,-13.416l21.466,10.733c0,0 -2.26,1.147 -6.102,6.484c-3.843,5.337 -9.037,2.846 -23.217,2.808c-14.179,-0.037 -11.081,-15.616 -6.1,-17.538c4.981,-1.921 13.953,-2.487 13.953,-2.487Zm-21.466,0c0,0 7.413,2.499 -1.478,11.471c-8.89,8.972 -17.777,0.084 -19.989,-0.738l21.467,-10.733Z" style="fill:#ab3032;fill-opacity:0.75;"/><path d="M82.61,24.016c0.077,-0.043 20.4,-11.371 26.833,-8.05c6.445,3.328 35.833,-1.457 0,16.1l-5.42,2.656l-21.413,-10.706Zm37.566,8.05c-3.448,-2.955 12.79,-10.655 18.839,-13.501c6.021,-2.834 7.976,0.058 7.994,0.084l-26.833,13.417Zm-80.498,-29.516c0.034,-0.019 6.878,-3.813 19.711,-2.621c12.865,1.196 17.122,-6.635 19.548,-9.949c2.425,-3.315 10.656,-7.063 18.495,-0.208c7.84,6.856 8.523,13.55 6.644,18.144c-1.878,4.594 -22.979,11.366 -26.832,13.417l-37.566,-18.783Zm88.329,5.044c0,0 -14.771,4.159 -9.761,6.527c5.009,2.368 10.908,2.685 15.609,2.572c4.702,-0.113 18.396,-4.731 22.57,-9.435c4.174,-4.704 0.948,-3.703 -9.416,-2.245c-10.365,1.457 -19.002,2.581 -19.002,2.581Zm-23.931,-30.045c3.904,-2.224 13.345,2.747 20.169,2.886c6.824,0.138 10.839,2.385 10.566,8.866c-0.273,6.482 5.242,13.331 -0.273,14.932c-5.514,1.601 -23.061,3.291 -25.095,-0.089c-2.034,-3.38 -1.955,-11.673 -4.218,-14.865c-2.263,-3.191 -7.239,-8.261 -1.149,-11.73Zm101.993,11.57l-21.494,10.747c-3.109,-1.637 -6.231,-2.81 -10.733,-4.88c-4.503,-2.071 -30.173,15.831 -33.826,4.067c-3.653,-11.764 1.233,-14.564 6.993,-14.066c5.76,0.498 12.386,0.569 20.171,-8.623c7.786,-9.191 22.884,-3.118 25.588,-1.126c2.704,1.993 0.711,7.258 2.568,8.515c1.857,1.256 10.705,5.352 10.705,5.352l0.028,0.014Zm-193.227,0.013l0.003,-0.002c0,0 3.785,-2.84 8.219,-1.257c4.434,1.583 22.787,7.469 18.614,9.307c-4.174,1.838 -5.367,2.683 -5.367,2.683l-0.003,0.002l-21.466,-10.733Zm26.921,-24.191c0.82,0.081 7.286,0.905 7.928,6.719c0.685,6.209 7.72,4.16 13.453,5.241c5.733,1.082 11.653,7.173 9.889,12.695c-1.765,5.522 -16.144,6.48 -18.575,6.513c-2.431,0.033 -9.49,-3.553 -13.93,-8.278c-4.385,-4.665 -24.661,-8.449 -25.654,-9.445l26.889,-13.445Zm150.178,5.409l21.47,10.735c-1.738,0.867 -3.657,1.825 -5.37,2.682c-4.619,2.31 -4.066,-6.74 -11.926,-9.227c-7.824,-2.475 -4.206,-4.175 -4.174,-4.19Zm-44.994,-5.056c1.837,0.496 16.631,1.292 17.484,5.163c0.854,3.871 1.225,7.569 -7.101,9.421c-8.326,1.851 -15.033,5.551 -16.575,3.616c-1.542,-1.936 -0.705,-20.062 6.192,-18.2Zm-95.482,-0.783c0.24,-1.903 3.462,-5.729 9.736,-5.866c6.273,-0.136 10.631,-2.749 13.319,-4.716c2.688,-1.967 14.221,-1.853 15.457,8.906c1.235,10.759 7.782,14.744 2.203,18.274c-5.579,3.529 -14.175,3.188 -15.882,1.821c-1.708,-1.366 -0.374,-8.14 -2.948,-9.506c-2.574,-1.367 -11.471,1.059 -14.679,-0.837c-3.209,-1.896 -8.414,-2.814 -7.206,-8.076Zm48.759,-7.334c0,0 22.216,0.432 25.455,1.737c3.239,1.306 14.794,0.127 15.076,4.83c0.282,4.703 -0.387,11.036 -8.391,12.261c-8.004,1.226 -18.113,-2.531 -22.398,-3.71c-4.285,-1.179 -14.175,1.711 -14.623,-3.292c-0.447,-5.003 -3.133,-13.423 4.881,-11.826Zm48.785,-8.293l37.566,18.783c-4.287,2.066 -28.096,-3.317 -32.2,-4.15c-4.103,-0.834 -12.296,-1.112 -14.394,-4.753c-2.093,-3.631 8.972,-9.849 9.028,-9.88Zm-26.833,-13.416l21.466,10.733c0,0 -2.259,1.147 -6.102,6.484c-3.842,5.337 -9.037,2.846 -23.216,2.809c-14.18,-0.038 -11.082,-15.617 -6.101,-17.539c4.981,-1.921 13.953,-2.487 13.953,-2.487Zm-21.466,0c0,0 7.414,2.499 -1.478,11.472c-8.89,8.971 -17.777,0.083 -19.988,-0.739l21.466,-10.733Z" style="fill:#ab3032;fill-opacity:0.5;"/><path d="M189.944,77.683c0.077,-0.043 20.4,-11.371 26.833,-8.05c6.445,3.328 35.833,-1.457 0,16.1l-5.42,2.657l-21.413,-10.707Zm37.566,8.05c-3.448,-2.955 12.791,-10.655 18.839,-13.501c6.021,-2.834 7.977,0.059 7.994,0.085l-26.833,13.416Zm-80.498,-29.516c0.034,-0.019 6.878,-3.813 19.711,-2.621c12.866,1.196 17.122,-6.635 19.548,-9.949c2.426,-3.314 10.656,-7.063 18.495,-0.208c7.84,6.856 8.524,13.551 6.645,18.144c-1.879,4.594 -22.98,11.366 -26.833,13.417l-37.566,-18.783Zm88.329,5.044c0,0 -14.77,4.159 -9.761,6.527c5.01,2.368 10.908,2.686 15.61,2.573c4.701,-0.114 18.396,-4.732 22.57,-9.436c4.173,-4.704 0.948,-3.702 -9.417,-2.245c-10.364,1.457 -19.002,2.581 -19.002,2.581Zm-23.93,-30.045c3.904,-2.224 13.344,2.748 20.168,2.886c6.825,0.138 10.839,2.385 10.566,8.867c-0.272,6.481 5.242,13.33 -0.272,14.931c-5.515,1.601 -23.062,3.291 -25.096,-0.089c-2.033,-3.38 -1.955,-11.673 -4.218,-14.865c-2.263,-3.191 -7.239,-8.261 -1.148,-11.73Zm101.992,11.57l-21.494,10.748c-3.109,-1.637 -6.231,-2.811 -10.733,-4.881c-4.502,-2.07 -30.173,15.831 -33.826,4.067c-3.653,-11.764 1.234,-14.564 6.993,-14.066c5.76,0.498 12.386,0.569 20.171,-8.623c7.786,-9.191 22.884,-3.118 25.588,-1.126c2.704,1.993 0.712,7.259 2.568,8.515c1.857,1.256 10.705,5.352 10.705,5.352l0.028,0.014Zm-193.227,0.013l0.003,-0.002c0,0 3.785,-2.84 8.219,-1.257c4.434,1.583 22.787,7.469 18.614,9.307c-4.173,1.838 -5.367,2.683 -5.367,2.683l-0.003,0.002l-21.466,-10.733Zm26.922,-24.191c0.819,0.081 7.285,0.905 7.927,6.719c0.685,6.209 7.72,4.16 13.453,5.241c5.733,1.082 11.654,7.173 9.889,12.695c-1.765,5.522 -16.144,6.48 -18.575,6.513c-2.431,0.034 -9.49,-3.553 -13.93,-8.278c-4.385,-4.665 -24.661,-8.449 -25.654,-9.445l26.89,-13.445Zm150.178,5.409l21.469,10.735c-1.737,0.867 -3.657,1.825 -5.37,2.682c-4.619,2.31 -4.066,-6.74 -11.926,-9.227c-7.824,-2.475 -4.206,-4.174 -4.173,-4.19Zm-44.995,-5.056c1.837,0.496 16.631,1.293 17.485,5.164c0.854,3.871 1.225,7.569 -7.101,9.42c-8.326,1.851 -15.034,5.551 -16.576,3.616c-1.542,-1.936 -0.705,-20.062 6.192,-18.2Zm-95.482,-0.783c0.241,-1.903 3.463,-5.729 9.736,-5.865c6.273,-0.137 10.631,-2.75 13.319,-4.717c2.689,-1.967 14.221,-1.853 15.457,8.906c1.236,10.759 7.782,14.744 2.203,18.274c-5.578,3.529 -14.174,3.188 -15.882,1.821c-1.708,-1.366 -0.374,-8.14 -2.948,-9.506c-2.574,-1.367 -11.471,1.059 -14.679,-0.837c-3.208,-1.896 -8.413,-2.814 -7.206,-8.076Zm48.759,-7.334c0,0 22.217,0.432 25.456,1.738c3.239,1.305 14.793,0.126 15.075,4.829c0.283,4.703 -0.387,11.036 -8.391,12.261c-8.004,1.226 -18.113,-2.531 -22.398,-3.71c-4.285,-1.179 -14.175,1.712 -14.622,-3.292c-0.448,-5.003 -3.134,-13.423 4.88,-11.826Zm48.785,-8.293l37.566,18.783c-4.286,2.066 -28.096,-3.316 -32.199,-4.15c-4.104,-0.834 -12.297,-1.112 -14.395,-4.752c-2.092,-3.631 8.973,-9.85 9.028,-9.881Zm-26.833,-13.416l21.467,10.733c0,0 -2.26,1.147 -6.102,6.484c-3.843,5.337 -9.038,2.847 -23.217,2.809c-14.179,-0.038 -11.082,-15.617 -6.101,-17.539c4.981,-1.921 13.953,-2.487 13.953,-2.487Zm-21.466,0c0,0 7.414,2.499 -1.477,11.472c-8.89,8.971 -17.777,0.083 -19.989,-0.739l21.466,-10.733Z" style="fill:#ab3032;fill-opacity:0.5;"/><path d="M-24.73,77.683c0.076,-0.043 20.4,-11.371 26.833,-8.05c6.445,3.328 35.832,-1.457 0,16.1l-5.42,2.657l-21.413,-10.707Zm37.566,8.05c-3.449,-2.955 12.79,-10.655 18.838,-13.501c6.022,-2.834 7.977,0.058 7.995,0.084l-26.833,13.417Zm-80.499,-29.516c0.035,-0.019 6.878,-3.813 19.712,-2.621c12.865,1.196 17.122,-6.635 19.547,-9.949c2.426,-3.315 10.656,-7.063 18.496,-0.208c7.839,6.856 8.523,13.551 6.644,18.144c-1.879,4.594 -22.979,11.366 -26.833,13.417l-37.566,-18.783Zm88.33,5.044c0,0 -14.771,4.159 -9.762,6.527c5.01,2.368 10.908,2.686 15.61,2.572c4.702,-0.113 18.396,-4.731 22.57,-9.435c4.174,-4.704 0.948,-3.702 -9.416,-2.245c-10.365,1.457 -19.002,2.581 -19.002,2.581Zm-23.931,-30.045c3.904,-2.224 13.345,2.747 20.169,2.886c6.824,0.138 10.838,2.385 10.566,8.867c-0.273,6.481 5.242,13.33 -0.273,14.931c-5.515,1.601 -23.062,3.291 -25.095,-0.089c-2.034,-3.38 -1.956,-11.673 -4.218,-14.865c-2.263,-3.191 -7.239,-8.261 -1.149,-11.73Zm101.993,11.57l-21.494,10.747c-3.109,-1.636 -6.231,-2.81 -10.734,-4.88c-4.502,-2.07 -30.173,15.831 -33.826,4.067c-3.653,-11.764 1.234,-14.564 6.994,-14.066c5.759,0.498 12.385,0.569 20.171,-8.623c7.785,-9.191 22.883,-3.118 25.587,-1.126c2.704,1.993 0.712,7.258 2.569,8.515c1.857,1.256 10.705,5.352 10.705,5.352l0.028,0.014Zm-193.228,0.013l0.004,-0.002c0,0 3.784,-2.84 8.218,-1.257c4.434,1.583 22.788,7.469 18.614,9.307c-4.173,1.838 -5.366,2.683 -5.366,2.683l-0.003,0.002l-21.467,-10.733Zm26.922,-24.191c0.819,0.081 7.286,0.905 7.927,6.719c0.686,6.209 7.721,4.16 13.454,5.241c5.733,1.082 11.653,7.173 9.888,12.695c-1.764,5.522 -16.143,6.48 -18.574,6.513c-2.432,0.034 -9.49,-3.553 -13.931,-8.278c-4.384,-4.665 -24.661,-8.449 -25.654,-9.445l26.89,-13.445Zm150.178,5.409l21.469,10.735c-1.737,0.867 -3.657,1.825 -5.369,2.682c-4.619,2.31 -4.067,-6.74 -11.926,-9.227c-7.825,-2.475 -4.207,-4.174 -4.174,-4.19Zm-44.995,-5.056c1.837,0.496 16.631,1.292 17.485,5.163c0.854,3.871 1.225,7.57 -7.101,9.421c-8.326,1.851 -15.033,5.551 -16.575,3.616c-1.542,-1.936 -0.705,-20.062 6.191,-18.2Zm-95.481,-0.783c0.24,-1.903 3.462,-5.729 9.735,-5.865c6.274,-0.137 10.631,-2.75 13.32,-4.717c2.688,-1.967 14.221,-1.853 15.456,8.906c1.236,10.759 7.782,14.744 2.204,18.274c-5.579,3.529 -14.175,3.188 -15.883,1.821c-1.708,-1.366 -0.374,-8.14 -2.948,-9.506c-2.574,-1.367 -11.471,1.059 -14.679,-0.837c-3.208,-1.896 -8.413,-2.814 -7.205,-8.076Zm48.759,-7.334c0,0 22.216,0.432 25.455,1.737c3.239,1.306 14.793,0.127 15.076,4.83c0.282,4.703 -0.388,11.036 -8.392,12.261c-8.004,1.226 -18.113,-2.531 -22.398,-3.71c-4.285,-1.179 -14.175,1.711 -14.622,-3.292c-0.448,-5.003 -3.133,-13.423 4.881,-11.826Zm48.785,-8.293l37.566,18.783c-4.287,2.066 -28.096,-3.316 -32.2,-4.15c-4.103,-0.834 -12.296,-1.112 -14.394,-4.752c-2.093,-3.631 8.972,-9.85 9.028,-9.881Zm-26.833,-13.416l21.466,10.733c0,0 -2.26,1.147 -6.102,6.484c-3.843,5.337 -9.037,2.847 -23.217,2.809c-14.179,-0.038 -11.081,-15.617 -6.1,-17.539c4.981,-1.921 13.953,-2.487 13.953,-2.487Zm-21.466,0c0,0 7.413,2.499 -1.478,11.472c-8.89,8.971 -17.777,0.083 -19.989,-0.739l21.467,-10.733Z" style="fill:#ab3032;fill-opacity:0.5;"/><path d="M189.929,185.019c0.077,-0.043 20.4,-11.371 26.833,-8.05c6.445,3.328 35.833,-1.457 0,16.1l-5.42,2.656l-21.413,-10.706Zm37.566,8.05c-3.448,-2.956 12.791,-10.655 18.839,-13.501c6.021,-2.834 7.977,0.058 7.994,0.084l-26.833,13.417Zm-80.498,-29.516c0.034,-0.02 6.878,-3.813 19.711,-2.621c12.866,1.196 17.122,-6.635 19.548,-9.949c2.426,-3.315 10.656,-7.063 18.495,-0.208c7.84,6.855 8.523,13.55 6.645,18.144c-1.879,4.594 -22.98,11.365 -26.833,13.417l-37.566,-18.783Zm88.329,5.044c0,0 -14.77,4.159 -9.761,6.527c5.01,2.368 10.908,2.685 15.61,2.572c4.701,-0.113 18.396,-4.731 22.57,-9.435c4.173,-4.705 0.948,-3.703 -9.417,-2.245c-10.364,1.457 -19.002,2.581 -19.002,2.581Zm-23.93,-30.045c3.904,-2.224 13.344,2.747 20.168,2.886c6.825,0.138 10.839,2.385 10.566,8.866c-0.272,6.482 5.242,13.331 -0.272,14.932c-5.515,1.601 -23.062,3.291 -25.096,-0.089c-2.033,-3.38 -1.955,-11.673 -4.218,-14.865c-2.263,-3.191 -7.239,-8.261 -1.148,-11.73Zm101.992,11.57l-21.494,10.747c-3.109,-1.637 -6.231,-2.81 -10.733,-4.88c-4.502,-2.071 -30.173,15.831 -33.826,4.067c-3.653,-11.764 1.234,-14.564 6.993,-14.066c5.76,0.498 12.386,0.569 20.171,-8.623c7.786,-9.192 22.884,-3.118 25.588,-1.126c2.704,1.993 0.712,7.258 2.568,8.515c1.857,1.256 10.705,5.352 10.705,5.352l0.028,0.014Zm-193.227,0.013l0.003,-0.002c0,0 3.785,-2.84 8.219,-1.257c4.434,1.583 22.787,7.469 18.614,9.307c-4.173,1.838 -5.367,2.683 -5.367,2.683l-0.003,0.002l-21.466,-10.733Zm26.921,-24.191c0.82,0.081 7.286,0.904 7.928,6.719c0.685,6.209 7.72,4.16 13.453,5.241c5.733,1.082 11.654,7.173 9.889,12.695c-1.765,5.522 -16.144,6.48 -18.575,6.513c-2.431,0.033 -9.49,-3.553 -13.93,-8.278c-4.385,-4.665 -24.661,-8.449 -25.654,-9.445l26.889,-13.445Zm150.179,5.409l21.469,10.735c-1.738,0.867 -3.657,1.825 -5.37,2.682c-4.619,2.31 -4.066,-6.741 -11.926,-9.227c-7.824,-2.475 -4.206,-4.175 -4.173,-4.19Zm-44.995,-5.056c1.837,0.496 16.631,1.292 17.485,5.163c0.854,3.871 1.225,7.569 -7.101,9.421c-8.326,1.851 -15.034,5.551 -16.576,3.615c-1.542,-1.935 -0.705,-20.061 6.192,-18.199Zm-95.482,-0.783c0.241,-1.904 3.462,-5.729 9.736,-5.866c6.273,-0.136 10.631,-2.749 13.319,-4.716c2.689,-1.967 14.221,-1.853 15.457,8.906c1.235,10.759 7.782,14.744 2.203,18.274c-5.579,3.529 -14.174,3.187 -15.882,1.821c-1.708,-1.366 -0.374,-8.14 -2.948,-9.507c-2.574,-1.366 -11.471,1.06 -14.679,-0.836c-3.208,-1.896 -8.413,-2.814 -7.206,-8.076Zm48.759,-7.334c0,0 22.217,0.432 25.456,1.737c3.239,1.305 14.793,0.127 15.075,4.83c0.283,4.703 -0.387,11.035 -8.391,12.261c-8.004,1.226 -18.113,-2.531 -22.398,-3.71c-4.285,-1.18 -14.175,1.711 -14.622,-3.292c-0.448,-5.003 -3.134,-13.424 4.88,-11.826Zm48.785,-8.293l37.566,18.783c-4.286,2.066 -28.096,-3.317 -32.199,-4.151c-4.104,-0.833 -12.297,-1.111 -14.395,-4.752c-2.092,-3.631 8.972,-9.849 9.028,-9.88Zm-26.833,-13.416l21.467,10.733c0,0 -2.26,1.147 -6.103,6.484c-3.842,5.337 -9.037,2.846 -23.216,2.808c-14.179,-0.037 -11.082,-15.616 -6.101,-17.538c4.981,-1.921 13.953,-2.487 13.953,-2.487Zm-21.466,0c0,0 7.414,2.499 -1.477,11.471c-8.89,8.972 -17.778,0.084 -19.989,-0.738l21.466,-10.733Z" style="fill:#ab3032;fill-opacity:0.5;"/><path d="M82.604,131.35c0.077,-0.043 20.4,-11.371 26.833,-8.05c6.445,3.328 35.833,-1.457 0,16.1l-5.42,2.657l-21.413,-10.707Zm37.566,8.05c-3.448,-2.955 12.79,-10.655 18.839,-13.501c6.021,-2.834 7.976,0.059 7.994,0.085l-26.833,13.416Zm-80.498,-29.516c0.034,-0.019 6.878,-3.813 19.711,-2.62c12.865,1.195 17.122,-6.635 19.548,-9.95c2.425,-3.314 10.656,-7.063 18.495,-0.208c7.84,6.856 8.523,13.551 6.644,18.144c-1.878,4.594 -22.979,11.366 -26.832,13.417l-37.566,-18.783Zm88.329,5.044c0,0 -14.771,4.159 -9.761,6.527c5.009,2.368 10.908,2.686 15.609,2.573c4.702,-0.114 18.396,-4.732 22.57,-9.436c4.174,-4.704 0.948,-3.702 -9.416,-2.245c-10.365,1.457 -19.002,2.581 -19.002,2.581Zm-23.931,-30.045c3.904,-2.224 13.345,2.748 20.169,2.886c6.824,0.138 10.839,2.385 10.566,8.867c-0.273,6.481 5.242,13.33 -0.273,14.931c-5.514,1.601 -23.061,3.291 -25.095,-0.089c-2.034,-3.38 -1.955,-11.673 -4.218,-14.864c-2.263,-3.192 -7.239,-8.262 -1.149,-11.731Zm101.993,11.571l-21.494,10.747c-3.109,-1.637 -6.231,-2.811 -10.733,-4.881c-4.503,-2.07 -30.173,15.832 -33.826,4.067c-3.653,-11.764 1.233,-14.564 6.993,-14.066c5.76,0.498 12.386,0.569 20.171,-8.622c7.786,-9.192 22.884,-3.119 25.588,-1.127c2.704,1.993 0.711,7.259 2.568,8.515c1.857,1.256 10.705,5.352 10.705,5.352l0.028,0.015Zm-193.227,0.012l0.003,-0.002c0,0 3.785,-2.84 8.219,-1.257c4.434,1.583 22.787,7.469 18.614,9.307c-4.174,1.838 -5.367,2.684 -5.367,2.684l-0.003,0.001l-21.466,-10.733Zm26.921,-24.191c0.82,0.081 7.286,0.905 7.928,6.719c0.685,6.209 7.72,4.16 13.453,5.242c5.733,1.081 11.653,7.172 9.889,12.694c-1.765,5.522 -16.144,6.48 -18.575,6.513c-2.431,0.034 -9.49,-3.553 -13.93,-8.278c-4.385,-4.665 -24.661,-8.449 -25.654,-9.445l26.889,-13.445Zm150.178,5.41l21.47,10.734c-1.738,0.867 -3.657,1.825 -5.37,2.682c-4.619,2.31 -4.066,-6.74 -11.926,-9.227c-7.824,-2.475 -4.206,-4.174 -4.174,-4.189Zm-44.994,-5.057c1.837,0.496 16.631,1.293 17.484,5.164c0.854,3.871 1.225,7.569 -7.101,9.42c-8.326,1.851 -15.033,5.551 -16.575,3.616c-1.542,-1.936 -0.705,-20.062 6.192,-18.2Zm-95.482,-0.783c0.24,-1.903 3.462,-5.729 9.736,-5.865c6.273,-0.137 10.631,-2.75 13.319,-4.717c2.688,-1.966 14.221,-1.853 15.457,8.906c1.235,10.76 7.782,14.744 2.203,18.274c-5.579,3.529 -14.175,3.188 -15.883,1.822c-1.707,-1.367 -0.373,-8.141 -2.947,-9.507c-2.574,-1.366 -11.471,1.059 -14.68,-0.837c-3.208,-1.896 -8.413,-2.814 -7.205,-8.076Zm48.759,-7.334c0,0 22.216,0.433 25.455,1.738c3.239,1.305 14.794,0.126 15.076,4.829c0.282,4.703 -0.387,11.036 -8.391,12.261c-8.004,1.226 -18.113,-2.531 -22.398,-3.71c-4.285,-1.179 -14.175,1.712 -14.623,-3.292c-0.447,-5.003 -3.133,-13.423 4.881,-11.826Zm48.785,-8.293l37.566,18.783c-4.287,2.066 -28.096,-3.316 -32.2,-4.15c-4.103,-0.834 -12.296,-1.112 -14.394,-4.752c-2.093,-3.631 8.972,-9.849 9.028,-9.881Zm-26.833,-13.416l21.466,10.733c0,0 -2.259,1.147 -6.102,6.484c-3.842,5.337 -9.037,2.847 -23.216,2.809c-14.18,-0.038 -11.082,-15.617 -6.101,-17.538c4.981,-1.922 13.953,-2.488 13.953,-2.488Zm-21.466,0c0,0 7.414,2.499 -1.478,11.472c-8.89,8.971 -17.777,0.083 -19.988,-0.739l21.466,-10.733Z" style="fill:#ab3032;fill-opacity:0.5;"/><path d="M-24.733,185.019c0.076,-0.043 20.4,-11.371 26.833,-8.05c6.445,3.328 35.832,-1.457 0,16.1l-5.42,2.656l-21.413,-10.706Zm37.566,8.05c-3.449,-2.956 12.79,-10.655 18.838,-13.501c6.022,-2.834 7.977,0.058 7.995,0.084l-26.833,13.417Zm-80.499,-29.516c0.035,-0.02 6.878,-3.813 19.712,-2.621c12.865,1.196 17.122,-6.635 19.547,-9.949c2.426,-3.315 10.656,-7.063 18.496,-0.208c7.839,6.855 8.523,13.55 6.644,18.144c-1.879,4.594 -22.979,11.365 -26.833,13.417l-37.566,-18.783Zm88.33,5.044c0,0 -14.771,4.159 -9.761,6.527c5.009,2.368 10.907,2.685 15.609,2.572c4.702,-0.113 18.396,-4.731 22.57,-9.435c4.174,-4.705 0.948,-3.703 -9.416,-2.245c-10.365,1.457 -19.002,2.581 -19.002,2.581Zm-23.931,-30.045c3.904,-2.224 13.345,2.747 20.169,2.886c6.824,0.138 10.839,2.385 10.566,8.866c-0.273,6.482 5.242,13.331 -0.273,14.932c-5.515,1.601 -23.062,3.291 -25.095,-0.089c-2.034,-3.38 -1.956,-11.673 -4.218,-14.865c-2.263,-3.191 -7.239,-8.261 -1.149,-11.73Zm101.993,11.57l-21.494,10.747c-3.109,-1.637 -6.231,-2.81 -10.734,-4.88c-4.502,-2.071 -30.173,15.831 -33.826,4.067c-3.653,-11.764 1.234,-14.564 6.994,-14.066c5.759,0.498 12.385,0.569 20.171,-8.623c7.785,-9.192 22.883,-3.118 25.587,-1.126c2.704,1.993 0.712,7.258 2.569,8.515c1.857,1.256 10.705,5.352 10.705,5.352l0.028,0.014Zm-193.227,0.013l0.003,-0.002c0,0 3.784,-2.84 8.218,-1.257c4.434,1.583 22.788,7.469 18.614,9.307c-4.173,1.838 -5.366,2.683 -5.366,2.683l-0.003,0.002l-21.466,-10.733Zm26.921,-24.191c0.819,0.081 7.286,0.904 7.927,6.719c0.686,6.209 7.721,4.16 13.454,5.241c5.733,1.082 11.653,7.173 9.888,12.695c-1.764,5.522 -16.143,6.48 -18.574,6.513c-2.432,0.033 -9.49,-3.553 -13.931,-8.278c-4.384,-4.665 -24.661,-8.449 -25.654,-9.445l26.89,-13.445Zm150.178,5.409l21.469,10.735c-1.737,0.867 -3.657,1.825 -5.369,2.682c-4.619,2.31 -4.067,-6.741 -11.926,-9.227c-7.825,-2.475 -4.206,-4.175 -4.174,-4.19Zm-44.995,-5.056c1.837,0.496 16.631,1.292 17.485,5.163c0.854,3.871 1.225,7.569 -7.101,9.421c-8.326,1.851 -15.033,5.551 -16.575,3.615c-1.542,-1.935 -0.705,-20.061 6.191,-18.199Zm-95.481,-0.783c0.24,-1.904 3.462,-5.729 9.735,-5.866c6.274,-0.136 10.631,-2.749 13.32,-4.716c2.688,-1.967 14.221,-1.853 15.456,8.906c1.236,10.759 7.783,14.744 2.204,18.274c-5.579,3.529 -14.175,3.187 -15.883,1.821c-1.708,-1.366 -0.374,-8.14 -2.948,-9.507c-2.574,-1.366 -11.471,1.06 -14.679,-0.836c-3.208,-1.896 -8.413,-2.814 -7.205,-8.076Zm48.759,-7.334c0,0 22.216,0.432 25.455,1.737c3.239,1.305 14.794,0.127 15.076,4.83c0.282,4.703 -0.388,11.035 -8.392,12.261c-8.004,1.226 -18.113,-2.531 -22.398,-3.71c-4.285,-1.18 -14.175,1.711 -14.622,-3.292c-0.447,-5.003 -3.133,-13.424 4.881,-11.826Zm48.785,-8.293l37.566,18.783c-4.287,2.066 -28.096,-3.317 -32.2,-4.151c-4.103,-0.833 -12.296,-1.111 -14.394,-4.752c-2.093,-3.631 8.972,-9.849 9.028,-9.88Zm-26.833,-13.416l21.466,10.733c0,0 -2.26,1.147 -6.102,6.484c-3.843,5.337 -9.037,2.846 -23.217,2.808c-14.179,-0.037 -11.081,-15.616 -6.1,-17.538c4.981,-1.921 13.953,-2.487 13.953,-2.487Zm-21.466,0c0,0 7.413,2.499 -1.478,11.471c-8.89,8.972 -17.777,0.084 -19.989,-0.738l21.467,-10.733Z" style="fill:#ab3032;fill-opacity:0.5;"/></g></g></g></svg>