<?xml version="1.0" encoding="UTF-8" standalone="no"?><!DOCTYPE svg PUBLIC "-//W3C//DTD SVG 1.1//EN" "http://www.w3.org/Graphics/SVG/1.1/DTD/svg11.dtd"><svg width="100%" height="100%" viewBox="0 0 216 204" version="1.1" xmlns="http://www.w3.org/2000/svg" xmlns:xlink="http://www.w3.org/1999/xlink" xml:space="preserve" xmlns:serif="http://www.serif.com/" style="fill-rule:evenodd;clip-rule:evenodd;stroke-linecap:round;stroke-linejoin:round;stroke-miterlimit:1.5;"><g id="seaWaterAnim05"><path d="M215.029,53.671l0,96.598l-107.331,53.666c-15.059,-31.963 -17.731,-64.12 0,-96.599c29.802,-25.877 61.611,-49.071 107.331,-53.665Z" style="fill:#d0b25e;"/><clipPath id="_clip1"><path d="M215.029,53.671l0,96.598l-107.331,53.666c-15.059,-31.963 -17.731,-64.12 0,-96.599c29.802,-25.877 61.611,-49.071 107.331,-53.665Z"/></clipPath><g clip-path="url(#_clip1)"><g><g><circle cx="201.457" cy="112.703" r="6.069" style="fill:none;stroke:#cae97c;stroke-width:3px;"/><circle cx="204.296" cy="134.169" r="4.329" style="fill:none;stroke:#cae97c;stroke-width:2.5px;"/><ellipse cx="193.959" cy="61.721" rx="2.767" ry="2.527" style="fill:none;stroke:#cae97c;stroke-width:2px;"/><circle cx="211.152" cy="149.382" r="2.527" style="fill:none;stroke:#cae97c;stroke-width:2px;"/><circle cx="152.678" cy="141.338" r="2.527" style="fill:none;stroke:#cae97c;stroke-width:2px;"/><path d="M176.456,141.744c-2.661,-1.018 -5.647,0.316 -6.664,2.977c-1.017,2.66 0.317,5.646 2.977,6.664c2.661,1.017 5.647,-0.317 6.664,-2.978c1.017,-2.66 -0.317,-5.646 -2.977,-6.663Z" style="fill:none;stroke:#cae97c;stroke-width:3px;"/><path d="M171.839,158.288c-1.941,-0.742 -4.118,0.231 -4.86,2.171c-0.742,1.94 0.231,4.118 2.171,4.86c1.94,0.742 4.118,-0.231 4.86,-2.172c0.742,-1.94 -0.231,-4.117 -2.171,-4.859Z" style="fill:none;stroke:#cae97c;stroke-width:2.5px;"/><path d="M183.204,160.42c-1.302,-0.498 -2.765,0.155 -3.263,1.458c-0.498,1.303 0.155,2.765 1.458,3.263c1.303,0.498 2.765,-0.155 3.263,-1.458c0.498,-1.303 -0.155,-2.765 -1.458,-3.263Z" style="fill:none;stroke:#cae97c;stroke-width:2px;"/><path d="M156.844,101.563c-0.812,-0.31 -1.723,0.097 -2.033,0.909c-0.311,0.812 0.096,1.723 0.908,2.034c0.812,0.31 1.724,-0.097 2.034,-0.909c0.31,-0.812 -0.097,-1.723 -0.909,-2.034Z" style="fill:none;stroke:#cae97c;stroke-width:1px;"/><path d="M162.044,81.962c-0.982,-0.375 -2.083,0.117 -2.459,1.099c-0.375,0.982 0.117,2.084 1.099,2.459c0.982,0.375 2.083,-0.117 2.459,-1.099c0.375,-0.981 -0.117,-2.083 -1.099,-2.459Z" style="fill:none;stroke:#cae97c;stroke-width:2px;"/></g><g><circle cx="124.531" cy="153.319" r="4.143" style="fill:none;stroke:#cae97c;stroke-width:3px;"/><circle cx="129.164" cy="184.531" r="2.955" style="fill:none;stroke:#cae97c;stroke-width:2.5px;"/><circle cx="120.156" cy="106.27" r="1.725" style="fill:none;stroke:#cae97c;stroke-width:2px;"/></g></g><path d="M215.029,53.671l0,96.598l-107.331,53.666c-15.059,-31.963 -17.731,-64.12 0,-96.599c29.802,-25.877 61.611,-49.071 107.331,-53.665Z" style="fill:url(#_Linear2);"/></g><path d="M0.367,53.671c31.299,2.211 109.517,37.666 107.331,53.665c0,0 0.179,93.562 0,96.599l-107.331,-53.666l0,-96.598" style="fill:#be904a;"/><clipPath id="_clip3"><path d="M0.367,53.671c31.299,2.211 109.517,37.666 107.331,53.665c0,0 0.179,93.562 0,96.599l-107.331,-53.666l0,-96.598"/></clipPath><g clip-path="url(#_clip3)"><g><g><circle cx="92.967" cy="177.681" r="6.069" style="fill:none;stroke:#cae97c;stroke-opacity:0.75;stroke-width:3px;"/><circle cx="90.378" cy="197.021" r="4.329" style="fill:none;stroke:#cae97c;stroke-opacity:0.75;stroke-width:2.5px;"/><circle cx="97.234" cy="98.453" r="4.329" style="fill:none;stroke:#cae97c;stroke-opacity:0.75;stroke-width:2.5px;"/><circle cx="97.234" cy="111.42" r="2.527" style="fill:none;stroke:#cae97c;stroke-opacity:0.75;stroke-width:2px;"/><circle cx="41.243" cy="137.791" r="5.161" style="fill:none;stroke:#cae97c;stroke-opacity:0.75;stroke-width:3px;"/><circle cx="46.449" cy="151.844" r="3.764" style="fill:none;stroke:#cae97c;stroke-opacity:0.75;stroke-width:2.5px;"/><circle cx="37.933" cy="163.136" r="2.527" style="fill:none;stroke:#cae97c;stroke-opacity:0.75;stroke-width:2px;"/><circle cx="47.091" cy="96.738" r="1.575" style="fill:none;stroke:#cae97c;stroke-opacity:0.75;stroke-width:1px;"/><circle cx="55.976" cy="83.605" r="1.904" style="fill:none;stroke:#cae97c;stroke-opacity:0.75;stroke-width:2px;"/></g><g><circle cx="17.587" cy="107.298" r="4.143" style="fill:none;stroke:#cae97c;stroke-opacity:0.75;stroke-width:3px;"/><circle cx="17.587" cy="123.497" r="2.955" style="fill:none;stroke:#cae97c;stroke-opacity:0.75;stroke-width:2.5px;"/><ellipse cx="11.66" cy="139.256" rx="1.784" ry="1.725" style="fill:none;stroke:#cae97c;stroke-opacity:0.75;stroke-width:2px;"/></g></g><path d="M0.367,53.671c20.927,9.26 32.845,21.116 56.103,28.051c17.187,5.125 40.794,14.303 51.228,25.614c0,0 0.179,93.562 0,96.599l-107.331,-53.666l0,-96.598Z" style="fill:url(#_Linear4);"/></g><path d="M215.029,53.671c-18.314,4.827 -37.164,11.848 -51.343,22.627c-21.691,16.49 -44.101,29.209 -55.988,31.038c-10.433,-11.311 -34.04,-20.488 -51.228,-25.614c-23.258,-6.935 -35.176,-18.791 -56.103,-28.051c22.315,-7.788 40.934,-20.412 58.985,-34.808c12.95,-10.328 30.602,-14.016 48.346,-18.858c21.395,10.648 39.54,21.201 55.969,26.464c25.326,8.113 49.919,22.162 51.362,27.202Z" style="fill:#ccc75a;"/><clipPath id="_clip5"><path d="M215.029,53.671c-18.314,4.827 -37.164,11.848 -51.343,22.627c-21.691,16.49 -44.101,29.209 -55.988,31.038c-10.433,-11.311 -34.04,-20.488 -51.228,-25.614c-23.258,-6.935 -35.176,-18.791 -56.103,-28.051c22.315,-7.788 40.934,-20.412 58.985,-34.808c12.95,-10.328 30.602,-14.016 48.346,-18.858c21.395,10.648 39.54,21.201 55.969,26.464c25.326,8.113 49.919,22.162 51.362,27.202Z"/></clipPath><g clip-path="url(#_clip5)"><g><path d="M61.367,107.37l0.506,-0.342c0,0 2.211,-1.381 5.271,-2.636c3.061,-1.254 14.414,-6.393 16.195,-10.903c4.604,-11.655 22.242,-10.786 16.1,-8.661c-6.142,2.124 -10.146,5.098 -13.686,14.163c-3.541,9.064 -7.781,10.927 -7.781,10.927l-5.815,2.847l-10.79,-5.395Zm46.868,-3.828c-1.143,-0.582 -2.315,-1.19 -3.43,-1.785c-4.835,-2.581 6.818,-9.599 10.733,-10.733c3.916,-1.134 13.505,-13.737 14.78,-15.909c1.275,-2.172 4.107,-6.468 14.45,-7.042c10.343,-0.575 2.871,-1.13 21.363,1.905c2.115,0.347 4.594,1.378 6.073,1.579l-63.969,31.985Zm22.933,-68.602l21.625,10.812c-0.441,0.348 -1.508,0.961 -4.082,1.853c-4.285,1.485 -16.251,1.63 -19.312,4.289c-3.061,2.659 -18.891,19.152 -28.219,19.476c-9.327,0.324 -28.629,14.83 -31.283,17.165c-2.654,2.334 -18.757,7.855 -18.757,7.855l-5.689,3.023l-21.634,-10.818l0.49,-0.255c7.557,-3.95 10.146,-6.389 14.82,-10.071c4.674,-3.682 9.489,0 28.112,-3.154c18.624,-3.154 23.441,-18.798 31.797,-24.139c8.305,-5.308 7.024,-1.869 32.132,-16.036Zm-150.367,32.147l0.573,-0.287l5.367,-2.683c0,0 15.18,-5.592 22.942,-3.936c13.54,2.889 17.955,8.502 9.257,6.743c-9.296,-1.881 -17.024,5.636 -21.848,8.191l-0.115,0.061l-16.176,-8.089Zm187.894,-13.384l10.774,5.387c-0.95,0.534 -3.161,1.74 -4.898,2.418c-12.581,4.907 -4.45,-0.831 -10.734,0c-12.494,1.651 0,-5.462 0,-5.462l4.858,-2.343Zm-80.489,-40.245l16.073,8.037c-1.026,0.466 -3.324,1.537 -4.84,2.447c-2.003,1.201 -18.302,5.034 -26,8.466c-7.698,3.432 -7.385,11.941 -13.315,20.175c-5.93,8.235 -12.488,7.139 -20.392,7.937c-7.904,0.797 -12.188,1.849 3.767,-3.242c15.955,-5.091 3.873,-11.551 18.374,-25.287c14.5,-13.736 21.466,-16.099 21.466,-16.099l4.867,-2.434Zm-23.333,4.434c-0.911,3.686 -6.925,10.956 -13.733,14.099c-10.888,5.028 -16.891,0.414 -26.833,8.05c-7.279,5.591 -17.507,9.575 -23.407,9.837l63.973,-31.986Z" style="fill:#ab902f;fill-opacity:0.35;"/><path d="M-45.965,161.036l0.507,-0.342c0,0 2.21,-1.381 5.271,-2.636c3.06,-1.255 14.413,-6.393 16.195,-10.903c4.603,-11.655 22.241,-10.786 16.099,-8.662c-6.142,2.125 -10.145,5.099 -13.686,14.163c-3.54,9.065 -7.78,10.927 -7.78,10.927l-5.815,2.848l-10.791,-5.395Zm46.869,-3.829c-1.143,-0.582 -2.315,-1.189 -3.43,-1.785c-4.835,-2.58 6.818,-9.599 10.733,-10.733c3.916,-1.134 13.505,-13.737 14.78,-15.908c1.274,-2.172 4.107,-6.468 14.45,-7.043c10.343,-0.575 2.871,-1.129 21.362,1.906c2.116,0.347 4.594,1.377 6.074,1.579l-63.969,31.984Zm22.933,-68.602l21.625,10.813c-0.442,0.347 -1.509,0.96 -4.082,1.852c-4.286,1.485 -16.251,1.631 -19.312,4.29c-3.062,2.658 -18.892,19.152 -28.219,19.475c-9.327,0.324 -28.629,14.831 -31.283,17.165c-2.655,2.335 -18.758,7.856 -18.758,7.856l-5.688,3.022l-21.634,-10.817l0.49,-0.255c7.557,-3.95 10.146,-6.389 14.82,-10.071c4.673,-3.683 9.489,0 28.112,-3.154c18.623,-3.155 23.44,-18.799 31.797,-24.14c8.305,-5.308 7.024,-1.868 32.132,-16.036Zm-150.368,32.148l0.574,-0.287l5.367,-2.683c0,0 15.18,-5.592 22.941,-3.936c13.541,2.888 17.956,8.502 9.258,6.742c-9.297,-1.88 -17.024,5.637 -21.848,8.192l-0.115,0.06l-16.177,-8.088Zm187.895,-13.384l10.774,5.387c-0.95,0.533 -3.161,1.739 -4.899,2.417c-12.58,4.908 -4.449,-0.83 -10.733,0c-12.494,1.651 0,-5.462 0,-5.462l4.858,-2.342Zm-80.49,-40.245l16.073,8.037c-1.025,0.466 -3.323,1.536 -4.84,2.446c-2.002,1.202 -18.301,5.035 -25.999,8.467c-7.699,3.431 -7.385,11.941 -13.315,20.175c-5.93,8.234 -12.488,7.139 -20.392,7.936c-7.904,0.798 -12.188,1.849 3.767,-3.241c15.955,-5.091 3.873,-11.551 18.373,-25.287c14.501,-13.736 21.467,-16.1 21.467,-16.1l4.866,-2.433Zm-23.333,4.433c-0.91,3.686 -6.924,10.956 -13.733,14.1c-10.887,5.027 -16.891,0.413 -26.832,8.05c-7.279,5.591 -17.508,9.574 -23.408,9.837l63.973,-31.987Z" style="fill:#ab902f;fill-opacity:0.35;"/><path d="M168.698,161.036l0.506,-0.342c0,0 2.211,-1.381 5.271,-2.636c3.061,-1.255 14.414,-6.393 16.195,-10.903c4.604,-11.655 22.242,-10.786 16.1,-8.662c-6.142,2.125 -10.145,5.099 -13.686,14.163c-3.541,9.065 -7.78,10.927 -7.78,10.927l-5.816,2.848l-10.79,-5.395Zm46.868,-3.829c-1.142,-0.582 -2.314,-1.189 -3.429,-1.785c-4.835,-2.58 6.817,-9.599 10.733,-10.733c3.915,-1.134 13.505,-13.737 14.779,-15.908c1.275,-2.172 4.107,-6.468 14.45,-7.043c10.343,-0.575 2.871,-1.129 21.363,1.906c2.116,0.347 4.594,1.377 6.073,1.579l-63.969,31.984Zm22.933,-68.602l21.625,10.813c-0.441,0.347 -1.508,0.96 -4.082,1.852c-4.285,1.485 -16.251,1.631 -19.312,4.29c-3.061,2.658 -18.891,19.152 -28.218,19.475c-9.328,0.324 -28.63,14.831 -31.284,17.165c-2.654,2.335 -18.757,7.856 -18.757,7.856l-5.689,3.022l-21.634,-10.817l0.49,-0.255c7.557,-3.95 10.146,-6.389 14.82,-10.071c4.674,-3.683 9.489,0 28.113,-3.154c18.623,-3.155 23.44,-18.799 31.796,-24.14c8.305,-5.308 7.025,-1.868 32.132,-16.036Zm-150.367,32.148l0.574,-0.287l5.366,-2.683c0,0 15.18,-5.592 22.942,-3.936c13.54,2.888 17.955,8.502 9.258,6.742c-9.297,-1.88 -17.025,5.637 -21.849,8.192l-0.115,0.06l-16.176,-8.088Zm187.894,-13.384l10.774,5.387c-0.949,0.533 -3.16,1.739 -4.898,2.417c-12.581,4.908 -4.449,-0.83 -10.733,0c-12.495,1.651 0,-5.462 0,-5.462l4.857,-2.342Zm-80.489,-40.245l16.073,8.037c-1.026,0.466 -3.324,1.536 -4.84,2.446c-2.002,1.202 -18.302,5.035 -26,8.467c-7.698,3.431 -7.384,11.941 -13.314,20.175c-5.93,8.234 -12.489,7.139 -20.393,7.936c-7.904,0.798 -12.187,1.849 3.767,-3.241c15.955,-5.091 3.874,-11.551 18.374,-25.287c14.5,-13.736 21.466,-16.1 21.466,-16.1l4.867,-2.433Zm-23.333,4.433c-0.91,3.686 -6.925,10.956 -13.733,14.1c-10.887,5.027 -16.891,0.413 -26.833,8.05c-7.279,5.591 -17.507,9.574 -23.407,9.837l63.973,-31.987Z" style="fill:#ab902f;fill-opacity:0.35;"/><path d="M168.698,53.705l0.506,-0.343c0,0 2.211,-1.38 5.271,-2.635c3.061,-1.255 14.414,-6.393 16.195,-10.903c4.604,-11.655 22.242,-10.786 16.1,-8.662c-6.142,2.125 -10.145,5.099 -13.686,14.163c-3.541,9.064 -7.78,10.927 -7.78,10.927l-5.816,2.848l-10.79,-5.395Zm46.868,-3.829c-1.142,-0.582 -2.314,-1.19 -3.429,-1.785c-4.835,-2.581 6.817,-9.599 10.733,-10.733c3.915,-1.134 13.505,-13.737 14.779,-15.909c1.275,-2.171 4.107,-6.467 14.45,-7.042c10.343,-0.575 2.871,-1.129 21.363,1.905c2.116,0.347 4.594,1.378 6.073,1.58l-63.969,31.984Zm22.933,-68.602l21.625,10.813c-0.441,0.347 -1.508,0.96 -4.082,1.852c-4.285,1.485 -16.251,1.631 -19.312,4.289c-3.061,2.659 -18.891,19.152 -28.218,19.476c-9.328,0.324 -28.63,14.831 -31.284,17.165c-2.654,2.335 -18.757,7.856 -18.757,7.856l-5.689,3.022l-21.634,-10.817l0.49,-0.255c7.557,-3.95 10.146,-6.389 14.82,-10.071c4.674,-3.683 9.489,0 28.113,-3.155c18.623,-3.154 23.44,-18.798 31.796,-24.139c8.305,-5.308 7.025,-1.869 32.132,-16.036Zm-150.367,32.148l0.574,-0.287l5.366,-2.683c0,0 15.18,-5.592 22.942,-3.936c13.54,2.888 17.955,8.501 9.258,6.742c-9.297,-1.881 -17.025,5.636 -21.849,8.191l-0.115,0.061l-16.176,-8.088Zm187.894,-13.384l10.774,5.387c-0.949,0.533 -3.16,1.739 -4.898,2.417c-12.581,4.908 -4.449,-0.83 -10.733,0c-12.495,1.651 0,-5.462 0,-5.462l4.857,-2.342Zm-80.489,-40.245l16.073,8.036c-1.026,0.466 -3.324,1.537 -4.84,2.447c-2.002,1.202 -18.302,5.035 -26,8.466c-7.698,3.432 -7.384,11.942 -13.314,20.176c-5.93,8.234 -12.489,7.138 -20.393,7.936c-7.904,0.798 -12.187,1.849 3.767,-3.242c15.955,-5.091 3.874,-11.55 18.374,-25.286c14.5,-13.736 21.466,-16.1 21.466,-16.1l4.867,-2.433Zm-23.333,4.433c-0.91,3.686 -6.925,10.956 -13.733,14.1c-10.887,5.027 -16.891,0.413 -26.833,8.05c-7.279,5.591 -17.507,9.574 -23.407,9.837l63.973,-31.987Z" style="fill:#ab902f;fill-opacity:0.35;"/><path d="M-45.965,53.705l0.507,-0.343c0,0 2.21,-1.38 5.271,-2.635c3.06,-1.255 14.413,-6.393 16.195,-10.903c4.603,-11.655 22.241,-10.786 16.099,-8.662c-6.142,2.125 -10.145,5.099 -13.686,14.163c-3.54,9.064 -7.78,10.927 -7.78,10.927l-5.815,2.848l-10.791,-5.395Zm46.869,-3.829c-1.143,-0.582 -2.315,-1.19 -3.43,-1.785c-4.835,-2.581 6.818,-9.599 10.733,-10.733c3.916,-1.134 13.505,-13.737 14.78,-15.909c1.274,-2.171 4.107,-6.467 14.45,-7.042c10.343,-0.575 2.871,-1.129 21.362,1.905c2.116,0.347 4.594,1.378 6.074,1.58l-63.969,31.984Zm22.933,-68.602l21.625,10.813c-0.442,0.347 -1.509,0.96 -4.082,1.852c-4.286,1.485 -16.251,1.631 -19.312,4.289c-3.062,2.659 -18.892,19.152 -28.219,19.476c-9.327,0.324 -28.629,14.831 -31.283,17.165c-2.655,2.335 -18.758,7.856 -18.758,7.856l-5.688,3.022l-21.634,-10.817l0.49,-0.255c7.557,-3.95 10.146,-6.389 14.82,-10.071c4.673,-3.683 9.489,0 28.112,-3.155c18.623,-3.154 23.44,-18.798 31.797,-24.139c8.305,-5.308 7.024,-1.869 32.132,-16.036Zm-150.368,32.148l0.574,-0.287l5.367,-2.683c0,0 15.18,-5.592 22.941,-3.936c13.541,2.888 17.956,8.501 9.258,6.742c-9.297,-1.881 -17.024,5.636 -21.848,8.191l-0.115,0.061l-16.177,-8.088Zm187.895,-13.384l10.774,5.387c-0.95,0.533 -3.161,1.739 -4.899,2.417c-12.58,4.908 -4.449,-0.83 -10.733,0c-12.494,1.651 0,-5.462 0,-5.462l4.858,-2.342Zm-80.49,-40.245l16.073,8.036c-1.025,0.466 -3.323,1.537 -4.84,2.447c-2.002,1.202 -18.301,5.035 -25.999,8.466c-7.699,3.432 -7.385,11.942 -13.315,20.176c-5.93,8.234 -12.488,7.138 -20.392,7.936c-7.904,0.798 -12.188,1.849 3.767,-3.242c15.955,-5.091 3.873,-11.55 18.373,-25.286c14.501,-13.736 21.467,-16.1 21.467,-16.1l4.866,-2.433Zm-23.333,4.433c-0.91,3.686 -6.924,10.956 -13.733,14.1c-10.887,5.027 -16.891,0.413 -26.832,8.05c-7.279,5.591 -17.508,9.574 -23.408,9.837l63.973,-31.987Z" style="fill:#ab902f;fill-opacity:0.35;"/><path d="M61.367,0.039l0.506,-0.342c0,0 2.211,-1.381 5.271,-2.636c3.061,-1.255 14.414,-6.393 16.195,-10.903c4.604,-11.655 22.242,-10.786 16.1,-8.661c-6.142,2.124 -10.146,5.098 -13.686,14.162c-3.541,9.065 -7.781,10.928 -7.781,10.928l-5.815,2.847l-10.79,-5.395Zm46.868,-3.828c-1.143,-0.583 -2.315,-1.19 -3.43,-1.785c-4.835,-2.581 6.818,-9.6 10.733,-10.734c3.916,-1.134 13.505,-13.737 14.78,-15.908c1.275,-2.172 4.107,-6.468 14.45,-7.043c10.343,-0.574 2.871,-1.129 21.363,1.906c2.115,0.347 4.594,1.377 6.073,1.579l-63.969,31.985Zm22.933,-68.603l21.625,10.813c-0.441,0.347 -1.508,0.96 -4.082,1.852c-4.285,1.485 -16.251,1.631 -19.312,4.29c-3.061,2.658 -18.891,19.152 -28.219,19.476c-9.327,0.323 -28.629,14.83 -31.283,17.165c-2.654,2.334 -18.757,7.855 -18.757,7.855l-5.689,3.022l-21.634,-10.817l0.49,-0.255c7.557,-3.95 10.146,-6.389 14.82,-10.071c4.674,-3.682 9.489,0 28.112,-3.154c18.624,-3.154 23.441,-18.799 31.797,-24.14c8.305,-5.308 7.024,-1.868 32.132,-16.036Zm-150.367,32.148l0.573,-0.287l5.367,-2.683c0,0 15.18,-5.592 22.942,-3.936c13.54,2.889 17.955,8.502 9.257,6.742c-9.296,-1.88 -17.024,5.637 -21.848,8.192l-0.115,0.06l-16.176,-8.088Zm187.894,-13.384l10.774,5.387c-0.95,0.533 -3.161,1.739 -4.898,2.417c-12.581,4.908 -4.45,-0.83 -10.734,0c-12.494,1.651 0,-5.461 0,-5.461l4.858,-2.343Zm-80.489,-40.245l16.073,8.037c-1.026,0.466 -3.324,1.536 -4.84,2.446c-2.003,1.202 -18.302,5.035 -26,8.467c-7.698,3.431 -7.385,11.941 -13.315,20.175c-5.93,8.235 -12.488,7.139 -20.392,7.936c-7.904,0.798 -12.188,1.85 3.767,-3.241c15.955,-5.091 3.873,-11.551 18.374,-25.287c14.5,-13.736 21.466,-16.1 21.466,-16.1l4.867,-2.433Zm-23.333,4.433c-0.911,3.686 -6.925,10.956 -13.733,14.1c-10.888,5.027 -16.891,0.413 -26.833,8.05c-7.279,5.591 -17.507,9.575 -23.407,9.837l63.973,-31.987Z" style="fill:#ab902f;fill-opacity:0.35;"/><path d="M61.367,214.701l0.506,-0.342c0,0 2.211,-1.381 5.271,-2.635c3.061,-1.255 14.414,-6.393 16.195,-10.903c4.604,-11.655 22.242,-10.786 16.1,-8.662c-6.142,2.125 -10.146,5.099 -13.686,14.163c-3.541,9.064 -7.781,10.927 -7.781,10.927l-5.815,2.848l-10.79,-5.396Zm46.868,-3.828c-1.143,-0.582 -2.315,-1.19 -3.43,-1.785c-4.835,-2.581 6.818,-9.599 10.733,-10.733c3.916,-1.134 13.505,-13.737 14.78,-15.909c1.275,-2.171 4.107,-6.467 14.45,-7.042c10.343,-0.575 2.871,-1.129 21.363,1.905c2.115,0.347 4.594,1.378 6.073,1.58l-63.969,31.984Zm22.933,-68.602l21.625,10.812c-0.441,0.348 -1.508,0.961 -4.082,1.853c-4.285,1.485 -16.251,1.631 -19.312,4.289c-3.061,2.659 -18.891,19.152 -28.219,19.476c-9.327,0.324 -28.629,14.831 -31.283,17.165c-2.654,2.335 -18.757,7.855 -18.757,7.855l-5.689,3.023l-21.634,-10.817l0.49,-0.255c7.557,-3.95 10.146,-6.389 14.82,-10.072c4.674,-3.682 9.489,0 28.112,-3.154c18.624,-3.154 23.441,-18.798 31.797,-24.139c8.305,-5.308 7.024,-1.869 32.132,-16.036Zm-150.367,32.148l0.573,-0.287l5.367,-2.684c0,0 15.18,-5.591 22.942,-3.935c13.54,2.888 17.955,8.501 9.257,6.742c-9.296,-1.881 -17.024,5.636 -21.848,8.191l-0.115,0.061l-16.176,-8.088Zm187.894,-13.385l10.774,5.387c-0.95,0.534 -3.161,1.74 -4.898,2.418c-12.581,4.908 -4.45,-0.831 -10.734,0c-12.494,1.651 0,-5.462 0,-5.462l4.858,-2.343Zm-80.489,-40.244l16.073,8.036c-1.026,0.466 -3.324,1.537 -4.84,2.447c-2.003,1.201 -18.302,5.035 -26,8.466c-7.698,3.432 -7.385,11.941 -13.315,20.176c-5.93,8.234 -12.488,7.138 -20.392,7.936c-7.904,0.798 -12.188,1.849 3.767,-3.242c15.955,-5.091 3.873,-11.55 18.374,-25.286c14.5,-13.736 21.466,-16.1 21.466,-16.1l4.867,-2.433Zm-23.333,4.433c-0.911,3.686 -6.925,10.956 -13.733,14.1c-10.888,5.027 -16.891,0.413 -26.833,8.05c-7.279,5.591 -17.507,9.574 -23.407,9.837l63.973,-31.987Z" style="fill:#ab902f;fill-opacity:0.35;"/><path d="M276.029,107.37l0.506,-0.342c0,0 2.211,-1.381 5.272,-2.636c3.06,-1.254 14.413,-6.393 16.195,-10.903c4.603,-11.655 22.241,-10.786 16.099,-8.661c-6.142,2.124 -10.145,5.098 -13.686,14.163c-3.54,9.064 -7.78,10.927 -7.78,10.927l-5.816,2.847l-10.79,-5.395Zm46.869,-3.828c-1.143,-0.582 -2.315,-1.19 -3.43,-1.785c-4.835,-2.581 6.817,-9.599 10.733,-10.733c3.915,-1.134 13.505,-13.737 14.779,-15.909c1.275,-2.172 4.108,-6.468 14.451,-7.042c10.343,-0.575 2.871,-1.13 21.362,1.905c2.116,0.347 4.594,1.378 6.074,1.579l-63.969,31.985Zm22.933,-68.602l21.625,10.812c-0.442,0.348 -1.509,0.961 -4.083,1.853c-4.285,1.485 -16.25,1.63 -19.312,4.289c-3.061,2.659 -18.891,19.152 -28.218,19.476c-9.327,0.324 -28.629,14.83 -31.284,17.165c-2.654,2.334 -18.757,7.855 -18.757,7.855l-5.688,3.023l-21.635,-10.818l0.49,-0.255c7.558,-3.95 10.147,-6.389 14.82,-10.071c4.674,-3.682 9.49,0 28.113,-3.154c18.623,-3.154 23.44,-18.798 31.797,-24.139c8.305,-5.308 7.024,-1.869 32.132,-16.036Zm-150.368,32.147l0.574,-0.287l5.366,-2.683c0,0 15.18,-5.592 22.942,-3.936c13.54,2.889 17.956,8.502 9.258,6.743c-9.297,-1.881 -17.024,5.636 -21.849,8.191l-0.114,0.061l-16.177,-8.089Zm187.895,-13.384l10.774,5.387c-0.95,0.534 -3.161,1.74 -4.899,2.418c-12.581,4.907 -4.449,-0.831 -10.733,0c-12.494,1.651 0,-5.462 0,-5.462l4.858,-2.343Zm-80.49,-40.245l16.073,8.037c-1.026,0.466 -3.323,1.537 -4.84,2.447c-2.002,1.201 -18.301,5.034 -26,8.466c-7.698,3.432 -7.384,11.941 -13.314,20.175c-5.93,8.235 -12.489,7.139 -20.393,7.937c-7.904,0.797 -12.187,1.849 3.768,-3.242c15.954,-5.091 3.873,-11.551 18.373,-25.287c14.501,-13.736 21.467,-16.099 21.467,-16.099l4.866,-2.434Zm-23.333,4.434c-0.91,3.686 -6.924,10.956 -13.733,14.099c-10.887,5.028 -16.891,0.414 -26.833,8.05c-7.278,5.591 -17.507,9.575 -23.407,9.837l63.973,-31.986Z" style="fill:#ab902f;fill-opacity:0.35;"/><path d="M64.873,109.123c0,0 2.211,-1.476 5.271,-2.731c3.061,-1.254 14.414,-6.393 16.195,-10.903c4.604,-11.655 22.242,-10.786 16.1,-8.661c-6.142,2.124 -10.146,5.098 -13.686,14.163c-3.541,9.064 -7.781,10.927 -7.781,10.927l-5.31,2.6l-10.789,-5.395Zm42.932,-5.366c-4.835,-2.581 6.818,-9.599 10.733,-10.733c3.916,-1.134 13.505,-13.737 14.78,-15.909c1.275,-2.172 4.107,-6.468 14.45,-7.042c10.343,-0.575 5.945,-1.55 24.436,1.484l-64.399,32.2Zm26.833,-67.082l21.466,10.733c-0.002,0.015 -0.153,0.727 -4.393,2.197c-4.285,1.485 -16.251,1.63 -19.312,4.289c-3.061,2.659 -18.891,19.152 -28.219,19.476c-9.327,0.324 -28.629,14.83 -31.283,17.165c-2.654,2.334 -18.757,7.855 -18.757,7.855l-5.367,2.683l-21.466,-10.733c7.557,-3.95 10.146,-6.389 14.82,-10.071c4.674,-3.682 9.489,0 28.112,-3.154c18.624,-3.154 23.441,-18.798 31.797,-24.139c8.357,-5.341 7.008,-1.826 32.602,-16.301Zm-150.337,32.162l0.073,-0.037l5.367,-2.683c0,0 15.18,-5.592 22.942,-3.936c13.54,2.889 17.955,8.502 9.257,6.743c-9.065,-1.834 -16.639,5.269 -21.483,7.991l-16.156,-8.078Zm187.903,-13.379l10.733,5.366c0,0 -3.089,1.795 -5.366,2.684c-12.581,4.907 -4.45,-0.831 -10.734,0c-12.494,1.651 0,-5.462 0,-5.462l5.367,-2.588Zm-80.498,-40.25l16.099,8.05c0,0 -3.364,1.482 -5.366,2.684c-2.003,1.201 -18.302,5.034 -26,8.466c-7.698,3.432 -7.385,11.941 -13.315,20.175c-5.93,8.235 -12.488,7.139 -20.392,7.937c-7.904,0.797 -12.188,1.849 3.767,-3.242c15.955,-5.091 3.873,-11.551 18.374,-25.287c14.5,-13.736 21.466,-16.099 21.466,-16.099l5.367,-2.684Zm-26.833,2.684c0,0.055 0.127,11.085 -10.733,16.099c-10.888,5.028 -16.891,0.414 -26.833,8.05c-9.942,7.637 -21.825,10.494 -26.833,8.05l64.399,-32.199Z" style="fill:#e9da7c;fill-opacity:0.79;"/><path d="M-42.459,162.789c0,0 2.211,-1.476 5.272,-2.731c3.06,-1.255 14.413,-6.393 16.195,-10.903c4.603,-11.655 22.241,-10.786 16.099,-8.662c-6.142,2.125 -10.145,5.099 -13.686,14.163c-3.54,9.065 -7.78,10.927 -7.78,10.927l-5.31,2.601l-10.79,-5.395Zm42.933,-5.367c-4.835,-2.58 6.818,-9.599 10.733,-10.733c3.916,-1.134 13.505,-13.737 14.78,-15.908c1.274,-2.172 4.107,-6.468 14.45,-7.043c10.343,-0.575 5.944,-1.549 24.436,1.485l-64.399,32.199Zm26.833,-67.082l21.466,10.733c-0.003,0.016 -0.153,0.728 -4.393,2.197c-4.286,1.485 -16.251,1.631 -19.312,4.29c-3.062,2.658 -18.892,19.152 -28.219,19.475c-9.327,0.324 -28.629,14.831 -31.283,17.165c-2.655,2.335 -18.758,7.856 -18.758,7.856l-5.366,2.683l-21.466,-10.733c7.557,-3.95 10.146,-6.389 14.82,-10.071c4.673,-3.683 9.489,0 28.112,-3.154c18.623,-3.155 23.44,-18.799 31.797,-24.14c8.356,-5.341 7.008,-1.825 32.602,-16.301Zm-150.338,32.163l0.074,-0.037l5.367,-2.683c0,0 15.18,-5.592 22.941,-3.936c13.541,2.888 17.956,8.502 9.258,6.742c-9.066,-1.834 -16.639,5.269 -21.484,7.992l-16.156,-8.078Zm187.904,-13.38l10.733,5.367c0,0 -3.09,1.795 -5.367,2.683c-12.58,4.908 -4.449,-0.83 -10.733,0c-12.494,1.651 0,-5.462 0,-5.462l5.367,-2.588Zm-80.499,-40.249l16.1,8.05c0,0 -3.364,1.482 -5.367,2.683c-2.002,1.202 -18.301,5.035 -25.999,8.467c-7.699,3.431 -7.385,11.941 -13.315,20.175c-5.93,8.234 -12.488,7.139 -20.392,7.936c-7.904,0.798 -12.188,1.849 3.767,-3.241c15.955,-5.091 3.873,-11.551 18.373,-25.287c14.501,-13.736 21.467,-16.1 21.467,-16.1l5.366,-2.683Zm-26.833,2.683c0.001,0.056 0.127,11.086 -10.733,16.1c-10.887,5.027 -16.891,0.413 -26.832,8.05c-9.942,7.637 -21.825,10.493 -26.833,8.05l64.398,-32.2Z" style="fill:#d5aa85;fill-opacity:0.79;"/><path d="M172.204,162.789c0,0 2.211,-1.476 5.271,-2.731c3.061,-1.255 14.414,-6.393 16.195,-10.903c4.604,-11.655 22.242,-10.786 16.1,-8.662c-6.142,2.125 -10.145,5.099 -13.686,14.163c-3.541,9.065 -7.78,10.927 -7.78,10.927l-5.311,2.601l-10.789,-5.395Zm42.933,-5.367c-4.835,-2.58 6.817,-9.599 10.733,-10.733c3.915,-1.134 13.505,-13.737 14.779,-15.908c1.275,-2.172 4.107,-6.468 14.45,-7.043c10.343,-0.575 5.945,-1.549 24.436,1.485l-64.398,32.199Zm26.832,-67.082l21.467,10.733c-0.003,0.016 -0.154,0.728 -4.394,2.197c-4.285,1.485 -16.251,1.631 -19.312,4.29c-3.061,2.658 -18.891,19.152 -28.218,19.475c-9.328,0.324 -28.63,14.831 -31.284,17.165c-2.654,2.335 -18.757,7.856 -18.757,7.856l-5.367,2.683l-21.466,-10.733c7.557,-3.95 10.146,-6.389 14.82,-10.071c4.674,-3.683 9.489,0 28.113,-3.154c18.623,-3.155 23.44,-18.799 31.796,-24.14c8.357,-5.341 7.008,-1.825 32.602,-16.301Zm-150.337,32.163l0.074,-0.037l5.366,-2.683c0,0 15.18,-5.592 22.942,-3.936c13.54,2.888 17.955,8.502 9.258,6.742c-9.066,-1.834 -16.64,5.269 -21.484,7.992l-16.156,-8.078Zm187.903,-13.38l10.733,5.367c0,0 -3.089,1.795 -5.366,2.683c-12.581,4.908 -4.449,-0.83 -10.733,0c-12.495,1.651 0,-5.462 0,-5.462l5.366,-2.588Zm-80.498,-40.249l16.1,8.05c0,0 -3.365,1.482 -5.367,2.683c-2.002,1.202 -18.302,5.035 -26,8.467c-7.698,3.431 -7.384,11.941 -13.314,20.175c-5.93,8.234 -12.489,7.139 -20.393,7.936c-7.904,0.798 -12.187,1.849 3.767,-3.241c15.955,-5.091 3.874,-11.551 18.374,-25.287c14.5,-13.736 21.466,-16.1 21.466,-16.1l5.367,-2.683Zm-26.833,2.683c0.001,0.056 0.127,11.086 -10.733,16.1c-10.887,5.027 -16.891,0.413 -26.833,8.05c-9.942,7.637 -21.825,10.493 -26.833,8.05l64.399,-32.2Z" style="fill:#e9da7c;fill-opacity:0.79;"/><path d="M172.204,55.458c0,0 2.211,-1.476 5.271,-2.731c3.061,-1.255 14.414,-6.393 16.195,-10.903c4.604,-11.655 22.242,-10.786 16.1,-8.662c-6.142,2.125 -10.145,5.099 -13.686,14.163c-3.541,9.064 -7.78,10.927 -7.78,10.927l-5.311,2.6l-10.789,-5.394Zm42.933,-5.367c-4.835,-2.581 6.817,-9.599 10.733,-10.733c3.915,-1.134 13.505,-13.737 14.779,-15.909c1.275,-2.171 4.107,-6.467 14.45,-7.042c10.343,-0.575 5.945,-1.55 24.436,1.485l-64.398,32.199Zm26.832,-67.082l21.467,10.733c-0.003,0.015 -0.154,0.728 -4.394,2.197c-4.285,1.485 -16.251,1.631 -19.312,4.289c-3.061,2.659 -18.891,19.152 -28.218,19.476c-9.328,0.324 -28.63,14.831 -31.284,17.165c-2.654,2.335 -18.757,7.856 -18.757,7.856l-5.367,2.683l-21.466,-10.733c7.557,-3.95 10.146,-6.389 14.82,-10.071c4.674,-3.683 9.489,0 28.113,-3.155c18.623,-3.154 23.44,-18.798 31.796,-24.139c8.357,-5.341 7.008,-1.826 32.602,-16.301Zm-150.337,32.163l0.074,-0.037l5.366,-2.683c0,0 15.18,-5.592 22.942,-3.936c13.54,2.888 17.955,8.501 9.258,6.742c-9.066,-1.834 -16.64,5.269 -21.484,7.992l-16.156,-8.078Zm187.903,-13.38l10.733,5.367c0,0 -3.089,1.795 -5.366,2.683c-12.581,4.908 -4.449,-0.83 -10.733,0c-12.495,1.651 0,-5.462 0,-5.462l5.366,-2.588Zm-80.498,-40.249l16.1,8.05c0,0 -3.365,1.481 -5.367,2.683c-2.002,1.202 -18.302,5.035 -26,8.466c-7.698,3.432 -7.384,11.942 -13.314,20.176c-5.93,8.234 -12.489,7.138 -20.393,7.936c-7.904,0.798 -12.187,1.849 3.767,-3.242c15.955,-5.091 3.874,-11.55 18.374,-25.286c14.5,-13.736 21.466,-16.1 21.466,-16.1l5.367,-2.683Zm-26.833,2.683c0.001,0.056 0.127,11.085 -10.733,16.1c-10.887,5.027 -16.891,0.413 -26.833,8.05c-9.942,7.636 -21.825,10.493 -26.833,8.05l64.399,-32.2Z" style="fill:#e9da7c;fill-opacity:0.79;"/><path d="M-42.459,55.458c0,0 2.211,-1.476 5.272,-2.731c3.06,-1.255 14.413,-6.393 16.195,-10.903c4.603,-11.655 22.241,-10.786 16.099,-8.662c-6.142,2.125 -10.145,5.099 -13.686,14.163c-3.54,9.064 -7.78,10.927 -7.78,10.927l-5.31,2.6l-10.79,-5.394Zm42.933,-5.367c-4.835,-2.581 6.818,-9.599 10.733,-10.733c3.916,-1.134 13.505,-13.737 14.78,-15.909c1.274,-2.171 4.107,-6.467 14.45,-7.042c10.343,-0.575 5.944,-1.55 24.436,1.485l-64.399,32.199Zm26.833,-67.082l21.466,10.733c-0.003,0.015 -0.153,0.728 -4.393,2.197c-4.286,1.485 -16.251,1.631 -19.312,4.289c-3.062,2.659 -18.892,19.152 -28.219,19.476c-9.327,0.324 -28.629,14.831 -31.283,17.165c-2.655,2.335 -18.758,7.856 -18.758,7.856l-5.366,2.683l-21.466,-10.733c7.557,-3.95 10.146,-6.389 14.82,-10.071c4.673,-3.683 9.489,0 28.112,-3.155c18.623,-3.154 23.44,-18.798 31.797,-24.139c8.356,-5.341 7.008,-1.826 32.602,-16.301Zm-150.338,32.163l0.074,-0.037l5.367,-2.683c0,0 15.18,-5.592 22.941,-3.936c13.541,2.888 17.956,8.501 9.258,6.742c-9.066,-1.834 -16.639,5.269 -21.484,7.992l-16.156,-8.078Zm187.904,-13.38l10.733,5.367c0,0 -3.09,1.795 -5.367,2.683c-12.58,4.908 -4.449,-0.83 -10.733,0c-12.494,1.651 0,-5.462 0,-5.462l5.367,-2.588Zm-80.499,-40.249l16.1,8.05c0,0 -3.364,1.481 -5.367,2.683c-2.002,1.202 -18.301,5.035 -25.999,8.466c-7.699,3.432 -7.385,11.942 -13.315,20.176c-5.93,8.234 -12.488,7.138 -20.392,7.936c-7.904,0.798 -12.188,1.849 3.767,-3.242c15.955,-5.091 3.873,-11.55 18.373,-25.286c14.501,-13.736 21.467,-16.1 21.467,-16.1l5.366,-2.683Zm-26.833,2.683c0.001,0.056 0.127,11.085 -10.733,16.1c-10.887,5.027 -16.891,0.413 -26.832,8.05c-9.942,7.636 -21.825,10.493 -26.833,8.05l64.398,-32.2Z" style="fill:#d5aa85;fill-opacity:0.79;"/><path d="M64.873,1.792c0,0 2.211,-1.476 5.271,-2.731c3.061,-1.255 14.414,-6.393 16.195,-10.903c4.604,-11.655 22.242,-10.786 16.1,-8.661c-6.142,2.124 -10.146,5.098 -13.686,14.162c-3.541,9.065 -7.781,10.928 -7.781,10.928l-5.31,2.6l-10.789,-5.395Zm42.932,-5.366c-4.835,-2.581 6.818,-9.6 10.733,-10.734c3.916,-1.134 13.505,-13.737 14.78,-15.908c1.275,-2.172 4.107,-6.468 14.45,-7.043c10.343,-0.574 5.945,-1.549 24.436,1.485l-64.399,32.2Zm26.833,-67.083l21.466,10.734c-0.002,0.015 -0.153,0.727 -4.393,2.196c-4.285,1.485 -16.251,1.631 -19.312,4.29c-3.061,2.658 -18.891,19.152 -28.219,19.476c-9.327,0.323 -28.629,14.83 -31.283,17.165c-2.654,2.334 -18.757,7.855 -18.757,7.855l-5.367,2.683l-21.466,-10.733c7.557,-3.95 10.146,-6.389 14.82,-10.071c4.674,-3.682 9.489,0 28.112,-3.154c18.624,-3.154 23.441,-18.799 31.797,-24.14c8.357,-5.341 7.008,-1.825 32.602,-16.301Zm-150.337,32.163l0.073,-0.037l5.367,-2.683c0,0 15.18,-5.592 22.942,-3.936c13.54,2.889 17.955,8.502 9.257,6.742c-9.065,-1.834 -16.639,5.269 -21.483,7.992l-16.156,-8.078Zm187.903,-13.38l10.733,5.367c0,0 -3.089,1.795 -5.366,2.683c-12.581,4.908 -4.45,-0.83 -10.734,0c-12.494,1.651 0,-5.461 0,-5.461l5.367,-2.589Zm-80.498,-40.249l16.099,8.05c0,0 -3.364,1.482 -5.366,2.683c-2.003,1.202 -18.302,5.035 -26,8.467c-7.698,3.431 -7.385,11.941 -13.315,20.175c-5.93,8.235 -12.488,7.139 -20.392,7.936c-7.904,0.798 -12.188,1.85 3.767,-3.241c15.955,-5.091 3.873,-11.551 18.374,-25.287c14.5,-13.736 21.466,-16.1 21.466,-16.1l5.367,-2.683Zm-26.833,2.683c0,0.056 0.127,11.086 -10.733,16.1c-10.888,5.027 -16.891,0.413 -26.833,8.05c-9.942,7.637 -21.825,10.493 -26.833,8.05l64.399,-32.2Z" style="fill:#d5aa85;fill-opacity:0.79;"/><path d="M64.873,216.455c0,0 2.211,-1.477 5.271,-2.731c3.061,-1.255 14.414,-6.393 16.195,-10.903c4.604,-11.655 22.242,-10.786 16.1,-8.662c-6.142,2.125 -10.146,5.099 -13.686,14.163c-3.541,9.064 -7.781,10.927 -7.781,10.927l-5.31,2.6l-10.789,-5.394Zm42.932,-5.367c-4.835,-2.581 6.818,-9.599 10.733,-10.733c3.916,-1.134 13.505,-13.737 14.78,-15.909c1.275,-2.171 4.107,-6.467 14.45,-7.042c10.343,-0.575 5.945,-1.55 24.436,1.485l-64.399,32.199Zm26.833,-67.082l21.466,10.733c-0.002,0.015 -0.153,0.727 -4.393,2.197c-4.285,1.485 -16.251,1.631 -19.312,4.289c-3.061,2.659 -18.891,19.152 -28.219,19.476c-9.327,0.324 -28.629,14.831 -31.283,17.165c-2.654,2.335 -18.757,7.855 -18.757,7.855l-5.367,2.684l-21.466,-10.733c7.557,-3.95 10.146,-6.389 14.82,-10.072c4.674,-3.682 9.489,0 28.112,-3.154c18.624,-3.154 23.441,-18.798 31.797,-24.139c8.357,-5.341 7.008,-1.826 32.602,-16.301Zm-150.337,32.163l0.073,-0.037l5.367,-2.684c0,0 15.18,-5.591 22.942,-3.935c13.54,2.888 17.955,8.501 9.257,6.742c-9.065,-1.834 -16.639,5.269 -21.483,7.991l-16.156,-8.077Zm187.903,-13.38l10.733,5.367c0,0 -3.089,1.795 -5.366,2.683c-12.581,4.908 -4.45,-0.831 -10.734,0c-12.494,1.651 0,-5.462 0,-5.462l5.367,-2.588Zm-80.498,-40.249l16.099,8.05c0,0 -3.364,1.481 -5.366,2.683c-2.003,1.201 -18.302,5.035 -26,8.466c-7.698,3.432 -7.385,11.941 -13.315,20.176c-5.93,8.234 -12.488,7.138 -20.392,7.936c-7.904,0.798 -12.188,1.849 3.767,-3.242c15.955,-5.091 3.873,-11.55 18.374,-25.286c14.5,-13.736 21.466,-16.1 21.466,-16.1l5.367,-2.683Zm-26.833,2.683c0,0.055 0.127,11.085 -10.733,16.1c-10.888,5.027 -16.891,0.413 -26.833,8.05c-9.942,7.636 -21.825,10.493 -26.833,8.049l64.399,-32.199Z" style="fill:#d5aa85;fill-opacity:0.79;"/><path d="M279.535,109.123c0,0 2.211,-1.476 5.272,-2.731c3.06,-1.254 14.413,-6.393 16.195,-10.903c4.603,-11.655 22.241,-10.786 16.099,-8.661c-6.142,2.124 -10.145,5.098 -13.686,14.163c-3.54,9.064 -7.78,10.927 -7.78,10.927l-5.31,2.6l-10.79,-5.395Zm42.933,-5.366c-4.835,-2.581 6.817,-9.599 10.733,-10.733c3.915,-1.134 13.505,-13.737 14.779,-15.909c1.275,-2.172 4.108,-6.468 14.451,-7.042c10.342,-0.575 5.944,-1.55 24.436,1.484l-64.399,32.2Zm26.833,-67.082l21.466,10.733c-0.003,0.015 -0.154,0.727 -4.394,2.197c-4.285,1.485 -16.25,1.63 -19.312,4.289c-3.061,2.659 -18.891,19.152 -28.218,19.476c-9.327,0.324 -28.629,14.83 -31.284,17.165c-2.654,2.334 -18.757,7.855 -18.757,7.855l-5.366,2.683l-21.467,-10.733c7.558,-3.95 10.147,-6.389 14.82,-10.071c4.674,-3.682 9.49,0 28.113,-3.154c18.623,-3.154 23.44,-18.798 31.797,-24.139c8.356,-5.341 7.008,-1.826 32.602,-16.301Zm-150.338,32.162l0.074,-0.037l5.366,-2.683c0,0 15.18,-5.592 22.942,-3.936c13.54,2.889 17.956,8.502 9.258,6.743c-9.066,-1.834 -16.64,5.269 -21.484,7.991l-16.156,-8.078Zm187.904,-13.379l10.733,5.366c0,0 -3.09,1.795 -5.367,2.684c-12.581,4.907 -4.449,-0.831 -10.733,0c-12.494,1.651 0,-5.462 0,-5.462l5.367,-2.588Zm-80.499,-40.25l16.1,8.05c0,0 -3.364,1.482 -5.367,2.684c-2.002,1.201 -18.301,5.034 -26,8.466c-7.698,3.432 -7.384,11.941 -13.314,20.175c-5.93,8.235 -12.489,7.139 -20.393,7.937c-7.904,0.797 -12.187,1.849 3.768,-3.242c15.954,-5.091 3.873,-11.551 18.373,-25.287c14.501,-13.736 21.467,-16.099 21.467,-16.099l5.366,-2.684Zm-26.833,2.684c0.001,0.055 0.127,11.085 -10.733,16.099c-10.887,5.028 -16.891,0.414 -26.833,8.05c-9.941,7.637 -21.824,10.494 -26.832,8.05l64.398,-32.199Z" style="fill:#d5aa85;fill-opacity:0.79;"/></g></g></g><defs><linearGradient id="_Linear2" x1="0" y1="0" x2="1" y2="0" gradientUnits="userSpaceOnUse" gradientTransform="matrix(32.5777,112.509,-112.509,32.5777,150.63,75.1371)"><stop offset="0" style="stop-color:#7e5e49;stop-opacity:0"/><stop offset="0.5" style="stop-color:#715740;stop-opacity:0.25098"/><stop offset="1" style="stop-color:#4b4327;stop-opacity:1"/></linearGradient><linearGradient id="_Linear4" x1="0" y1="0" x2="1" y2="0" gradientUnits="userSpaceOnUse" gradientTransform="matrix(-32.2391,101.945,-101.945,-32.2391,54.1515,69.7507)"><stop offset="0" style="stop-color:#7e5e49;stop-opacity:0"/><stop offset="0.34" style="stop-color:#725a49;stop-opacity:0.0686275"/><stop offset="0.63" style="stop-color:#474a4a;stop-opacity:0.317647"/><stop offset="1" style="stop-color:#273f4b;stop-opacity:0.5"/></linearGradient></defs></svg>