<?xml version="1.0" encoding="UTF-8" standalone="no"?><!DOCTYPE svg PUBLIC "-//W3C//DTD SVG 1.1//EN" "http://www.w3.org/Graphics/SVG/1.1/DTD/svg11.dtd"><svg width="100%" height="100%" viewBox="0 0 216 205" version="1.1" xmlns="http://www.w3.org/2000/svg" xmlns:xlink="http://www.w3.org/1999/xlink" xml:space="preserve" xmlns:serif="http://www.serif.com/" style="fill-rule:evenodd;clip-rule:evenodd;stroke-linecap:round;stroke-linejoin:round;stroke-miterlimit:1.5;"><g id="seaWater01"><path d="M215.621,54.014l0,96.598l-107.332,53.666c-15.058,-31.963 -17.731,-64.12 0,-96.598c29.803,-25.878 61.612,-49.071 107.332,-53.666Z" style="fill:#d0b25e;"/><clipPath id="_clip1"><path d="M215.621,54.014l0,96.598l-107.332,53.666c-15.058,-31.963 -17.731,-64.12 0,-96.598c29.803,-25.878 61.612,-49.071 107.332,-53.666Z"/></clipPath><g clip-path="url(#_clip1)"><g><g><circle cx="192.102" cy="81.744" r="6.069" style="fill:none;stroke:#cae97c;stroke-width:3px;"/><circle cx="192.656" cy="97.974" r="4.329" style="fill:none;stroke:#cae97c;stroke-width:2.5px;"/><circle cx="188.873" cy="110.81" r="2.527" style="fill:none;stroke:#cae97c;stroke-width:2px;"/><circle cx="204.887" cy="136.807" r="2.527" style="fill:none;stroke:#cae97c;stroke-width:2px;"/><circle cx="140.204" cy="104.997" r="2.527" style="fill:none;stroke:#cae97c;stroke-width:2px;"/><path d="M171.442,130.42c-2.661,-1.017 -5.647,0.317 -6.664,2.977c-1.017,2.661 0.317,5.647 2.977,6.664c2.661,1.017 5.647,-0.317 6.664,-2.977c1.017,-2.661 -0.317,-5.647 -2.977,-6.664Z" style="fill:none;stroke:#cae97c;stroke-width:3px;"/><path d="M162.241,143.945c-1.941,-0.742 -4.118,0.231 -4.86,2.171c-0.742,1.94 0.231,4.118 2.171,4.86c1.941,0.742 4.118,-0.231 4.86,-2.172c0.742,-1.94 -0.231,-4.117 -2.171,-4.859Z" style="fill:none;stroke:#cae97c;stroke-width:2.5px;"/><path d="M160.019,158.766c-1.303,-0.498 -2.765,0.155 -3.263,1.458c-0.499,1.303 0.155,2.765 1.457,3.263c1.303,0.498 2.765,-0.155 3.264,-1.458c0.498,-1.303 -0.156,-2.765 -1.458,-3.263Z" style="fill:none;stroke:#cae97c;stroke-width:2px;"/><path d="M165.883,167.164c-0.812,-0.31 -1.723,0.097 -2.034,0.909c-0.31,0.812 0.097,1.723 0.909,2.034c0.812,0.31 1.723,-0.097 2.033,-0.909c0.311,-0.812 -0.096,-1.723 -0.908,-2.034Z" style="fill:none;stroke:#cae97c;stroke-width:1px;"/><path d="M169.939,152.146c-0.982,-0.376 -2.084,0.117 -2.459,1.098c-0.375,0.982 0.117,2.084 1.099,2.459c0.981,0.376 2.083,-0.117 2.459,-1.098c0.375,-0.982 -0.117,-2.084 -1.099,-2.459Z" style="fill:none;stroke:#cae97c;stroke-width:2px;"/></g><g><circle cx="126.04" cy="135.636" r="4.143" style="fill:none;stroke:#cae97c;stroke-width:3px;"/><circle cx="130.677" cy="151.23" r="2.955" style="fill:none;stroke:#cae97c;stroke-width:2.5px;"/><circle cx="127.808" cy="165.46" r="1.725" style="fill:none;stroke:#cae97c;stroke-width:2px;"/></g></g><path d="M215.621,54.014l0,96.598l-107.332,53.666c-15.058,-31.963 -17.731,-64.12 0,-96.598c29.803,-25.878 61.612,-49.071 107.332,-53.666Z" style="fill:url(#_Linear2);"/></g><path d="M0.958,54.014c31.3,2.211 109.517,37.667 107.331,53.666c0,0 0.179,93.561 0,96.598l-107.331,-53.666l0,-96.598" style="fill:#be904a;"/><clipPath id="_clip3"><path d="M0.958,54.014c31.3,2.211 109.517,37.667 107.331,53.666c0,0 0.179,93.561 0,96.598l-107.331,-53.666l0,-96.598"/></clipPath><g clip-path="url(#_clip3)"><g><g><circle cx="95.42" cy="144.324" r="6.069" style="fill:none;stroke:#cae97c;stroke-width:3px;"/><circle cx="95.973" cy="160.554" r="4.329" style="fill:none;stroke:#cae97c;stroke-width:2.5px;"/><circle cx="92.19" cy="173.389" r="2.527" style="fill:none;stroke:#cae97c;stroke-width:2px;"/><circle cx="47.096" cy="120.42" r="5.161" style="fill:none;stroke:#cae97c;stroke-width:3px;"/><circle cx="50.86" cy="134.941" r="3.764" style="fill:none;stroke:#cae97c;stroke-width:2.5px;"/><circle cx="47.642" cy="148.343" r="2.527" style="fill:none;stroke:#cae97c;stroke-width:2px;"/><circle cx="39.165" cy="153.14" r="1.575" style="fill:none;stroke:#cae97c;stroke-width:1px;"/><circle cx="40.741" cy="137.993" r="1.904" style="fill:none;stroke:#cae97c;stroke-width:2px;"/></g><g><circle cx="18.281" cy="80.267" r="4.143" style="fill:none;stroke:#cae97c;stroke-width:3px;"/><circle cx="13.644" cy="95.861" r="2.955" style="fill:none;stroke:#cae97c;stroke-width:2.5px;"/><circle cx="16.514" cy="110.091" r="1.725" style="fill:none;stroke:#cae97c;stroke-width:2px;"/></g></g><path d="M0.958,54.014c20.927,9.26 32.845,21.117 56.103,28.052c17.188,5.125 40.795,14.302 51.228,25.614c0,0 0.179,93.561 0,96.598l-107.331,-53.666l0,-96.598Z" style="fill:url(#_Linear4);"/></g><path d="M215.621,54.014c-18.315,4.827 -37.164,11.849 -51.343,22.628c-21.692,16.49 -44.102,29.208 -55.989,31.038c-10.432,-11.312 -34.04,-20.489 -51.228,-25.614c-23.258,-6.935 -35.176,-18.792 -56.103,-28.052c22.315,-7.788 40.935,-20.412 58.986,-34.808c12.949,-10.328 30.602,-14.016 48.345,-18.857c21.396,10.647 39.541,21.201 55.97,26.464c25.326,8.113 49.918,22.162 51.362,27.201Z" style="fill:#ccc75a;"/><clipPath id="_clip5"><path d="M215.621,54.014c-18.315,4.827 -37.164,11.849 -51.343,22.628c-21.692,16.49 -44.102,29.208 -55.989,31.038c-10.432,-11.312 -34.04,-20.489 -51.228,-25.614c-23.258,-6.935 -35.176,-18.792 -56.103,-28.052c22.315,-7.788 40.935,-20.412 58.986,-34.808c12.949,-10.328 30.602,-14.016 48.345,-18.857c21.396,10.647 39.541,21.201 55.97,26.464c25.326,8.113 49.918,22.162 51.362,27.201Z"/></clipPath><g clip-path="url(#_clip5)"><g><g><path d="M87.119,-10.178c0,0 10.991,8.928 8.734,24.25c-2.256,15.322 5.802,12.054 -7.151,25.88c-12.953,13.826 -1.274,19.587 -1.583,25.002c-0.309,5.415 4.005,-0.347 1.583,-7.65c-2.236,-6.74 7.151,-15.319 10.813,-18.111c5.022,-3.83 5.676,-5.911 7.04,-14.404c1.363,-8.493 0.613,-8.008 -0.457,-16.328c-1.071,-8.319 -4.651,-6.755 -5.699,-9.18c-1.047,-2.424 -13.28,-9.459 -13.28,-9.459" style="fill:#e9da7c;"/><path d="M118.462,108.984c0,0 0,-43.118 12.47,-44.825c15.599,-2.135 -4.065,-28.779 0.076,-39.751c4.141,-10.972 -10.114,0.384 -9.619,10.672c0.496,10.289 14.358,15.057 -6.989,33.572c-26.706,23.163 -28.648,27.076 -21.031,36.366c16.876,20.585 27.856,23.42 27.856,23.42l-2.763,-19.454Z" style="fill:#e9da7c;"/><path d="M158.506,85.493c-0.747,0.766 -10.173,15.268 -6.621,-6.006c2.55,-15.276 21.158,-30.298 8.205,-44.124c-12.953,-13.826 -1.275,-19.587 -1.584,-25.002c-0.308,-5.415 4.006,0.348 1.584,7.65c-2.236,6.74 7.123,15.356 10.812,18.111c4.997,3.731 -12.068,28.258 -9.432,41.62c1.664,8.439 -2.964,7.751 -2.964,7.751" style="fill:#e9da7c;"/><path d="M192.52,-16.003c0,0 -4.558,40.062 8.787,41.959c12.389,1.76 4.68,19.881 5.736,30.347c0.081,0.807 -0.622,0.438 -0.193,1.044c5.086,7.184 4.194,1.991 -10.714,-2.077c-1.871,-0.511 -1.199,-3.727 -1.111,-5.622c0.424,-9.14 8.13,-9.7 -5.979,-29.823c-14.109,-20.122 3.219,-22.667 -17.992,-32.305c-21.211,-9.638 23.83,-20.805 23.83,-20.805l-2.364,17.282Z" style="fill:#e9da7c;"/><path d="M41.286,88.903c0,0 11.026,-1.262 9.174,-10.138c-1.849,-8.857 -7.822,-30.69 -0.388,-31.821c13.325,-2.026 -1.595,-23.425 1.947,-33.173c3.542,-9.747 -8.652,0.342 -8.229,9.481c0.424,9.14 0.825,6.207 -5.979,29.823c-2.074,7.199 11.325,24.916 8.607,24.935c-1.313,0.01 -8.289,-0.95 -26.599,7.37c-21.211,9.638 23.83,20.805 23.83,20.805l-2.363,-17.282Z" style="fill:#e9da7c;"/><path d="M72.762,81.03c0.232,-0.462 -0.296,-2.049 0.26,-4.726c1.379,-6.648 -2.557,-11.09 -0.954,-16.528c2.63,-8.923 4.043,-28.222 8.356,-31.01c0,0 -8.322,0.962 -10.734,11.961c-2.411,10.999 -6.513,24.809 -2.171,35.252c4.342,10.442 4.651,6.235 5.243,5.051Z" style="fill:#e9da7c;"/></g></g><path d="M89.738,-9.872c0,0 10.991,8.928 8.735,24.25c-2.256,15.322 5.801,12.054 -7.151,25.88c-12.953,13.826 -1.275,19.587 -1.584,25.002c-0.309,5.415 4.006,-0.348 1.584,-7.65c-2.236,-6.74 7.151,-15.319 10.812,-18.111c5.022,-3.83 5.677,-5.911 7.041,-14.404c1.363,-8.493 12.475,-9.19 16.359,-16.625c0.385,-0.737 -8.738,-8.543 -9.888,-9.499c-1.169,-0.971 -12.099,1.838 -12.627,0.616c-1.048,-2.424 -13.281,-9.459 -13.281,-9.459" style="fill:#e9da7c;"/><path d="M121.081,109.29c13.923,-1.089 4.907,-29.629 9.909,-38.559c10.194,-18.2 -1.503,-35.045 2.638,-46.017c4.14,-10.973 -10.114,0.384 -9.619,10.672c0.495,10.289 14.903,15.657 -6.989,33.571c-33.725,27.598 -26.023,33.76 -21.032,36.367c23.941,12.502 27.856,23.42 27.856,23.42l-2.763,-19.454Z" style="fill:#e9da7c;"/><path d="M161.126,85.799c0.041,-0.012 -3.097,10.568 -6.543,-4.392c-3.476,-15.092 21.079,-31.912 8.126,-45.738c-12.952,-13.826 -1.274,-19.587 -1.583,-25.002c-0.309,-5.415 4.006,0.347 1.583,7.65c-2.235,6.74 7.152,15.319 10.813,18.111c5.022,3.83 0.68,7.626 2.129,16.105c1.424,8.336 -11.738,15.064 -13.696,25.676c-1.522,8.249 13.499,-4.294 12.452,-1.869c-1.048,2.424 -13.281,9.459 -13.281,9.459" style="fill:#e9da7c;"/><path d="M194.863,-16.271c0,0 -3.969,37.606 8.787,41.959c23.106,7.886 20.087,33.569 1.584,31.827c-0.476,-0.045 0.208,0.919 0.363,1.346c3.244,8.939 5.338,-0.502 -2.874,-3.527c-5.396,-1.989 -5.393,-5.14 -5.355,-5.954c0.424,-9.139 8.13,-9.699 -5.979,-29.822c-14.109,-20.122 3.22,-22.667 -17.992,-32.305c-21.211,-9.638 23.83,-20.805 23.83,-20.805l-2.364,17.281Z" style="fill:#e9da7c;"/><path d="M16.775,-14.155c0,0 10.991,8.929 8.735,24.251c-2.257,15.322 5.801,12.054 -7.152,25.88c-12.952,13.825 -18.318,13.237 -18.627,18.652c-0.128,2.242 17.581,8.917 18.232,8.011c0.921,-1.283 -0.875,-5.033 0.395,-9.312c2.021,-6.807 7.152,-15.318 10.813,-18.11c5.022,-3.83 5.677,-5.911 7.04,-14.404c1.364,-8.493 0.614,-8.009 -0.457,-16.328c-1.071,-8.32 -4.651,-6.756 -5.698,-9.18c-1.048,-2.425 -13.281,-9.46 -13.281,-9.46" style="fill:#e9da7c;"/><path d="M59.512,84.607c-0.366,0.313 -20.269,-35.371 -6.821,-37.357c13.335,-1.968 -1.595,-23.426 1.947,-33.173c3.542,-9.747 -8.652,0.342 -8.228,9.481c0.424,9.139 8.368,9.869 -5.979,29.822c-0.887,1.233 0.827,10.018 1.228,11.166c6.88,19.673 22.516,16.538 -19.22,21.14c-23.158,2.553 23.83,20.805 23.83,20.805l13.243,-21.884Z" style="fill:#e9da7c;"/><path d="M74.482,81.651c0.231,-0.462 0.08,-5.183 -0.413,-9.507c-0.767,-6.745 -0.984,-6.624 0.618,-12.062c2.631,-8.923 4.044,-28.222 8.356,-31.011c0,0 -8.321,0.962 -10.733,11.962c-2.411,10.999 -6.513,24.809 -2.171,35.252c4.342,10.442 3.751,6.55 4.343,5.366Z" style="fill:#e9da7c;"/></g></g><defs><linearGradient id="_Linear2" x1="0" y1="0" x2="1" y2="0" gradientUnits="userSpaceOnUse" gradientTransform="matrix(32.5777,112.509,-112.509,32.5777,151.222,75.4805)"><stop offset="0" style="stop-color:#7e5e49;stop-opacity:0"/><stop offset="0.5" style="stop-color:#715740;stop-opacity:0.25098"/><stop offset="1" style="stop-color:#4b4327;stop-opacity:1"/></linearGradient><linearGradient id="_Linear4" x1="0" y1="0" x2="1" y2="0" gradientUnits="userSpaceOnUse" gradientTransform="matrix(-32.2391,101.945,-101.945,-32.2391,54.743,70.0941)"><stop offset="0" style="stop-color:#7e5e49;stop-opacity:0"/><stop offset="0.34" style="stop-color:#725a49;stop-opacity:0.0686275"/><stop offset="0.63" style="stop-color:#474a4a;stop-opacity:0.317647"/><stop offset="1" style="stop-color:#273f4b;stop-opacity:0.5"/></linearGradient></defs></svg>