<?xml version="1.0" encoding="UTF-8" standalone="no"?><!DOCTYPE svg PUBLIC "-//W3C//DTD SVG 1.1//EN" "http://www.w3.org/Graphics/SVG/1.1/DTD/svg11.dtd"><svg width="100%" height="100%" viewBox="0 0 216 205" version="1.1" xmlns="http://www.w3.org/2000/svg" xmlns:xlink="http://www.w3.org/1999/xlink" xml:space="preserve" xmlns:serif="http://www.serif.com/" style="fill-rule:evenodd;clip-rule:evenodd;stroke-linecap:round;stroke-linejoin:round;stroke-miterlimit:1.5;"><g id="seaWaterAnim04"><path d="M215.196,53.922l0,96.598l-107.331,53.665c-15.059,-31.962 -17.731,-64.12 0,-96.598c29.802,-25.877 61.612,-49.071 107.331,-53.665Z" style="fill:#84d05e;"/><clipPath id="_clip1"><path d="M215.196,53.922l0,96.598l-107.331,53.665c-15.059,-31.962 -17.731,-64.12 0,-96.598c29.802,-25.877 61.612,-49.071 107.331,-53.665Z"/></clipPath><g clip-path="url(#_clip1)"><g><g><circle cx="205.579" cy="140.648" r="6.069" style="fill:none;stroke:#cae97c;stroke-width:3px;"/><circle cx="193.597" cy="60.918" r="4.329" style="fill:none;stroke:#cae97c;stroke-width:2.5px;"/><ellipse cx="193.597" cy="80.821" rx="2.767" ry="2.527" style="fill:none;stroke:#cae97c;stroke-width:2px;"/><circle cx="206.756" cy="92.003" r="2.527" style="fill:none;stroke:#cae97c;stroke-width:2px;"/><circle cx="156.449" cy="176.042" r="2.527" style="fill:none;stroke:#cae97c;stroke-width:2px;"/><path d="M177.497,165.068c-2.66,-1.017 -5.646,0.317 -6.664,2.977c-1.017,2.661 0.317,5.647 2.978,6.664c2.66,1.017 5.646,-0.317 6.663,-2.977c1.018,-2.661 -0.316,-5.647 -2.977,-6.664Z" style="fill:none;stroke:#cae97c;stroke-width:3px;"/><path d="M155.18,97.186c-1.941,-0.742 -4.118,0.231 -4.86,2.172c-0.742,1.94 0.231,4.117 2.171,4.859c1.941,0.742 4.118,-0.231 4.86,-2.171c0.742,-1.94 -0.231,-4.118 -2.171,-4.86Z" style="fill:none;stroke:#cae97c;stroke-width:2.5px;"/><path d="M158.424,117.085c-1.303,-0.499 -2.765,0.155 -3.263,1.458c-0.498,1.302 0.155,2.764 1.458,3.263c1.303,0.498 2.765,-0.156 3.263,-1.458c0.498,-1.303 -0.155,-2.765 -1.458,-3.263Z" style="fill:none;stroke:#cae97c;stroke-width:2px;"/><path d="M165.626,125.153c-0.812,-0.311 -1.723,0.096 -2.033,0.908c-0.311,0.812 0.096,1.723 0.908,2.034c0.812,0.31 1.723,-0.097 2.034,-0.909c0.31,-0.812 -0.097,-1.723 -0.909,-2.033Z" style="fill:none;stroke:#cae97c;stroke-width:1px;"/><path d="M165.744,107.28c-0.982,-0.376 -2.084,0.117 -2.459,1.098c-0.375,0.982 0.117,2.084 1.099,2.459c0.981,0.376 2.083,-0.117 2.458,-1.098c0.376,-0.982 -0.116,-2.084 -1.098,-2.459Z" style="fill:none;stroke:#cae97c;stroke-width:2px;"/></g><g><circle cx="124.76" cy="186.97" r="4.143" style="fill:none;stroke:#cae97c;stroke-width:3px;"/><circle cx="124.76" cy="119.267" r="2.955" style="fill:none;stroke:#cae97c;stroke-width:2.5px;"/><circle cx="123.53" cy="135.392" r="1.725" style="fill:none;stroke:#cae97c;stroke-width:2px;"/></g></g><path d="M215.196,53.922l0,96.598l-107.331,53.665c-15.059,-31.962 -17.731,-64.12 0,-96.598c29.802,-25.877 61.612,-49.071 107.331,-53.665Z" style="fill:url(#_Linear2);"/></g><path d="M0.534,53.922c31.3,2.211 109.517,37.666 107.331,53.665c0,0 0.179,93.562 0,96.598l-107.331,-53.665l0,-96.598" style="fill:#4abe5c;"/><clipPath id="_clip3"><path d="M0.534,53.922c31.3,2.211 109.517,37.666 107.331,53.665c0,0 0.179,93.562 0,96.598l-107.331,-53.665l0,-96.598"/></clipPath><g clip-path="url(#_clip3)"><g><g><circle cx="92.25" cy="103.841" r="6.069" style="fill:none;stroke:#cae97c;stroke-opacity:0.75;stroke-width:3px;"/><circle cx="96.999" cy="125.317" r="4.329" style="fill:none;stroke:#cae97c;stroke-opacity:0.75;stroke-width:2.5px;"/><circle cx="88.708" cy="141.458" r="2.527" style="fill:none;stroke:#cae97c;stroke-opacity:0.75;stroke-width:2px;"/><circle cx="40.118" cy="162.523" r="5.161" style="fill:none;stroke:#cae97c;stroke-opacity:0.75;stroke-width:3px;"/><circle cx="59.998" cy="91.924" r="3.764" style="fill:none;stroke:#cae97c;stroke-opacity:0.75;stroke-width:2.5px;"/><circle cx="50.956" cy="112.503" r="2.527" style="fill:none;stroke:#cae97c;stroke-opacity:0.75;stroke-width:2px;"/><circle cx="46.854" cy="125.599" r="1.575" style="fill:none;stroke:#cae97c;stroke-opacity:0.75;stroke-width:1px;"/><circle cx="48.476" cy="104.992" r="1.904" style="fill:none;stroke:#cae97c;stroke-opacity:0.75;stroke-width:2px;"/></g><g><circle cx="11.574" cy="138.899" r="4.143" style="fill:none;stroke:#cae97c;stroke-opacity:0.75;stroke-width:3px;"/><circle cx="15.141" cy="70.146" r="2.955" style="fill:none;stroke:#cae97c;stroke-opacity:0.75;stroke-width:2.5px;"/><ellipse cx="13.358" cy="83.133" rx="1.784" ry="1.725" style="fill:none;stroke:#cae97c;stroke-opacity:0.75;stroke-width:2px;"/></g></g><path d="M0.534,53.922c20.927,9.26 32.845,21.116 56.103,28.051c17.188,5.125 40.794,14.302 51.228,25.614c0,0 0.179,93.562 0,96.598l-107.331,-53.665l0,-96.598Z" style="fill:url(#_Linear4);"/></g><path d="M215.196,53.922c-18.314,4.826 -37.163,11.848 -51.343,22.627c-21.691,16.49 -44.101,29.208 -55.988,31.038c-10.433,-11.311 -34.04,-20.489 -51.228,-25.614c-23.258,-6.935 -35.176,-18.791 -56.103,-28.051c22.315,-7.788 40.935,-20.412 58.986,-34.809c12.949,-10.327 30.601,-14.016 48.345,-18.857c21.395,10.648 39.54,21.201 55.97,26.464c25.325,8.113 49.918,22.162 51.361,27.202Z" style="fill:#84cc5a;"/><clipPath id="_clip5"><path d="M215.196,53.922c-18.314,4.826 -37.163,11.848 -51.343,22.627c-21.691,16.49 -44.101,29.208 -55.988,31.038c-10.433,-11.311 -34.04,-20.489 -51.228,-25.614c-23.258,-6.935 -35.176,-18.791 -56.103,-28.051c22.315,-7.788 40.935,-20.412 58.986,-34.809c12.949,-10.327 30.601,-14.016 48.345,-18.857c21.395,10.648 39.54,21.201 55.97,26.464c25.325,8.113 49.918,22.162 51.361,27.202Z"/></clipPath><g clip-path="url(#_clip5)"><g><path d="M51.534,101.621l0.506,-0.342c0,0 2.211,-1.381 5.271,-2.636c3.061,-1.255 14.414,-6.393 16.195,-10.903c4.604,-11.655 22.242,-10.786 16.1,-8.661c-6.142,2.124 -10.145,5.098 -13.686,14.162c-3.541,9.065 -7.78,10.928 -7.78,10.928l-5.816,2.847l-10.79,-5.395Zm46.868,-3.828c-1.142,-0.583 -2.314,-1.19 -3.429,-1.786c-4.835,-2.58 6.817,-9.599 10.733,-10.733c3.915,-1.134 13.505,-13.737 14.779,-15.908c1.275,-2.172 4.107,-6.468 14.45,-7.043c10.343,-0.574 2.871,-1.129 21.363,1.906c2.116,0.347 4.594,1.377 6.073,1.579l-63.969,31.985Zm22.933,-68.603l21.625,10.813c-0.441,0.347 -1.508,0.96 -4.082,1.852c-4.285,1.485 -16.251,1.631 -19.312,4.29c-3.061,2.658 -18.891,19.152 -28.218,19.476c-9.328,0.323 -28.629,14.83 -31.284,17.165c-2.654,2.334 -18.757,7.855 -18.757,7.855l-5.689,3.022l-21.634,-10.817l0.49,-0.255c7.557,-3.95 10.147,-6.389 14.82,-10.071c4.674,-3.682 9.489,0 28.113,-3.154c18.623,-3.154 23.44,-18.799 31.796,-24.14c8.305,-5.308 7.025,-1.868 32.132,-16.036Zm-150.367,32.148l0.574,-0.287l5.366,-2.683c0,0 15.18,-5.592 22.942,-3.936c13.54,2.889 17.956,8.502 9.258,6.742c-9.297,-1.88 -17.024,5.637 -21.849,8.192l-0.114,0.06l-16.177,-8.088Zm187.894,-13.384l10.774,5.387c-0.949,0.533 -3.16,1.739 -4.898,2.417c-12.581,4.908 -4.449,-0.83 -10.733,0c-12.495,1.651 0,-5.462 0,-5.462l4.857,-2.342Zm-80.489,-40.245l16.073,8.037c-1.026,0.466 -3.324,1.536 -4.84,2.446c-2.002,1.202 -18.302,5.035 -26,8.467c-7.698,3.431 -7.384,11.941 -13.314,20.175c-5.93,8.234 -12.489,7.139 -20.393,7.936c-7.904,0.798 -12.187,1.85 3.767,-3.241c15.955,-5.091 3.874,-11.551 18.374,-25.287c14.5,-13.736 21.466,-16.1 21.466,-16.1l4.867,-2.433Zm-23.333,4.433c-0.91,3.686 -6.925,10.956 -13.733,14.1c-10.887,5.027 -16.891,0.413 -26.833,8.05c-7.279,5.591 -17.507,9.575 -23.407,9.837l63.973,-31.987Z" style="fill:#45a120;fill-opacity:0.35;"/><path d="M-55.797,155.287l0.506,-0.343c0,0 2.211,-1.38 5.271,-2.635c3.061,-1.255 14.414,-6.393 16.195,-10.903c4.604,-11.655 22.242,-10.786 16.1,-8.662c-6.142,2.125 -10.146,5.099 -13.686,14.163c-3.541,9.064 -7.781,10.927 -7.781,10.927l-5.815,2.848l-10.79,-5.395Zm46.868,-3.829c-1.143,-0.582 -2.314,-1.19 -3.43,-1.785c-4.835,-2.581 6.818,-9.599 10.733,-10.733c3.916,-1.134 13.505,-13.737 14.78,-15.909c1.275,-2.171 4.107,-6.467 14.45,-7.042c10.343,-0.575 2.871,-1.129 21.363,1.905c2.115,0.347 4.594,1.378 6.073,1.58l-63.969,31.984Zm22.933,-68.602l21.625,10.813c-0.441,0.347 -1.508,0.96 -4.082,1.852c-4.285,1.485 -16.251,1.631 -19.312,4.289c-3.061,2.659 -18.891,19.152 -28.219,19.476c-9.327,0.324 -28.629,14.831 -31.283,17.165c-2.654,2.335 -18.757,7.856 -18.757,7.856l-5.689,3.022l-21.634,-10.817l0.49,-0.255c7.557,-3.95 10.146,-6.389 14.82,-10.071c4.674,-3.683 9.489,0 28.112,-3.155c18.624,-3.154 23.441,-18.798 31.797,-24.139c8.305,-5.308 7.024,-1.869 32.132,-16.036Zm-150.367,32.148l0.573,-0.287l5.367,-2.684c0,0 15.18,-5.591 22.942,-3.935c13.54,2.888 17.955,8.501 9.257,6.742c-9.296,-1.881 -17.024,5.636 -21.848,8.191l-0.115,0.061l-16.176,-8.088Zm187.894,-13.384l10.774,5.387c-0.949,0.533 -3.161,1.739 -4.898,2.417c-12.581,4.908 -4.45,-0.83 -10.734,0c-12.494,1.651 0,-5.462 0,-5.462l4.858,-2.342Zm-80.489,-40.245l16.073,8.036c-1.026,0.466 -3.324,1.537 -4.84,2.447c-2.003,1.202 -18.302,5.035 -26,8.466c-7.698,3.432 -7.385,11.942 -13.315,20.176c-5.93,8.234 -12.488,7.138 -20.392,7.936c-7.904,0.798 -12.188,1.849 3.767,-3.242c15.955,-5.091 3.873,-11.55 18.374,-25.286c14.5,-13.736 21.466,-16.1 21.466,-16.1l4.867,-2.433Zm-23.333,4.433c-0.911,3.686 -6.925,10.956 -13.733,14.1c-10.888,5.027 -16.891,0.413 -26.833,8.05c-7.279,5.591 -17.507,9.574 -23.407,9.837l63.973,-31.987Z" style="fill:#45a120;fill-opacity:0.35;"/><path d="M158.865,155.287l0.506,-0.343c0,0 2.211,-1.38 5.272,-2.635c3.06,-1.255 14.413,-6.393 16.195,-10.903c4.603,-11.655 22.241,-10.786 16.099,-8.662c-6.142,2.125 -10.145,5.099 -13.686,14.163c-3.54,9.064 -7.78,10.927 -7.78,10.927l-5.816,2.848l-10.79,-5.395Zm46.869,-3.829c-1.143,-0.582 -2.315,-1.19 -3.43,-1.785c-4.835,-2.581 6.818,-9.599 10.733,-10.733c3.915,-1.134 13.505,-13.737 14.779,-15.909c1.275,-2.171 4.108,-6.467 14.451,-7.042c10.343,-0.575 2.871,-1.129 21.362,1.905c2.116,0.347 4.594,1.378 6.074,1.58l-63.969,31.984Zm22.933,-68.602l21.625,10.813c-0.442,0.347 -1.509,0.96 -4.083,1.852c-4.285,1.485 -16.25,1.631 -19.312,4.289c-3.061,2.659 -18.891,19.152 -28.218,19.476c-9.327,0.324 -28.629,14.831 -31.284,17.165c-2.654,2.335 -18.757,7.856 -18.757,7.856l-5.688,3.022l-21.634,-10.817l0.489,-0.255c7.558,-3.95 10.147,-6.389 14.821,-10.071c4.673,-3.683 9.489,0 28.112,-3.155c18.623,-3.154 23.44,-18.798 31.797,-24.139c8.305,-5.308 7.024,-1.869 32.132,-16.036Zm-150.368,32.148l0.574,-0.287l5.366,-2.684c0,0 15.181,-5.591 22.942,-3.935c13.54,2.888 17.956,8.501 9.258,6.742c-9.297,-1.881 -17.024,5.636 -21.849,8.191l-0.114,0.061l-16.177,-8.088Zm187.895,-13.384l10.774,5.387c-0.95,0.533 -3.161,1.739 -4.899,2.417c-12.58,4.908 -4.449,-0.83 -10.733,0c-12.494,1.651 0,-5.462 0,-5.462l4.858,-2.342Zm-80.49,-40.245l16.073,8.036c-1.026,0.466 -3.323,1.537 -4.84,2.447c-2.002,1.202 -18.301,5.035 -26,8.466c-7.698,3.432 -7.384,11.942 -13.314,20.176c-5.93,8.234 -12.489,7.138 -20.393,7.936c-7.904,0.798 -12.187,1.849 3.768,-3.242c15.954,-5.091 3.873,-11.55 18.373,-25.286c14.501,-13.736 21.467,-16.1 21.467,-16.1l4.866,-2.433Zm-23.333,4.433c-0.91,3.686 -6.924,10.956 -13.733,14.1c-10.887,5.027 -16.891,0.413 -26.833,8.05c-7.278,5.591 -17.507,9.574 -23.407,9.837l63.973,-31.987Z" style="fill:#45a120;fill-opacity:0.35;"/><path d="M158.865,47.955l0.506,-0.342c0,0 2.211,-1.381 5.272,-2.635c3.06,-1.255 14.413,-6.394 16.195,-10.904c4.603,-11.654 22.241,-10.786 16.099,-8.661c-6.142,2.124 -10.145,5.099 -13.686,14.163c-3.54,9.064 -7.78,10.927 -7.78,10.927l-5.816,2.847l-10.79,-5.395Zm46.869,-3.828c-1.143,-0.582 -2.315,-1.19 -3.43,-1.785c-4.835,-2.581 6.818,-9.599 10.733,-10.733c3.915,-1.134 13.505,-13.737 14.779,-15.909c1.275,-2.172 4.108,-6.468 14.451,-7.042c10.343,-0.575 2.871,-1.13 21.362,1.905c2.116,0.347 4.594,1.378 6.074,1.579l-63.969,31.985Zm22.933,-68.602l21.625,10.812c-0.442,0.348 -1.509,0.961 -4.083,1.853c-4.285,1.485 -16.25,1.63 -19.312,4.289c-3.061,2.659 -18.891,19.152 -28.218,19.476c-9.327,0.324 -28.629,14.83 -31.284,17.165c-2.654,2.334 -18.757,7.855 -18.757,7.855l-5.688,3.023l-21.634,-10.817l0.489,-0.256c7.558,-3.95 10.147,-6.388 14.821,-10.071c4.673,-3.682 9.489,0 28.112,-3.154c18.623,-3.154 23.44,-18.798 31.797,-24.139c8.305,-5.308 7.024,-1.869 32.132,-16.036Zm-150.368,32.147l0.574,-0.286l5.366,-2.684c0,0 15.181,-5.591 22.942,-3.936c13.54,2.889 17.956,8.502 9.258,6.743c-9.297,-1.881 -17.024,5.636 -21.849,8.191l-0.114,0.061l-16.177,-8.089Zm187.895,-13.384l10.774,5.387c-0.95,0.534 -3.161,1.74 -4.899,2.418c-12.58,4.907 -4.449,-0.831 -10.733,0c-12.494,1.651 0,-5.462 0,-5.462l4.858,-2.343Zm-80.49,-40.244l16.073,8.036c-1.026,0.466 -3.323,1.537 -4.84,2.447c-2.002,1.201 -18.301,5.034 -26,8.466c-7.698,3.432 -7.384,11.941 -13.314,20.176c-5.93,8.234 -12.489,7.138 -20.393,7.936c-7.904,0.797 -12.187,1.849 3.768,-3.242c15.954,-5.091 3.873,-11.55 18.373,-25.286c14.501,-13.736 21.467,-16.1 21.467,-16.1l4.866,-2.433Zm-23.333,4.433c-0.91,3.686 -6.924,10.956 -13.733,14.1c-10.887,5.027 -16.891,0.413 -26.833,8.049c-7.278,5.591 -17.507,9.575 -23.407,9.837l63.973,-31.986Z" style="fill:#45a120;fill-opacity:0.35;"/><path d="M-55.797,47.955l0.506,-0.342c0,0 2.211,-1.381 5.271,-2.635c3.061,-1.255 14.414,-6.394 16.195,-10.904c4.604,-11.654 22.242,-10.786 16.1,-8.661c-6.142,2.124 -10.146,5.099 -13.686,14.163c-3.541,9.064 -7.781,10.927 -7.781,10.927l-5.815,2.847l-10.79,-5.395Zm46.868,-3.828c-1.143,-0.582 -2.314,-1.19 -3.43,-1.785c-4.835,-2.581 6.818,-9.599 10.733,-10.733c3.916,-1.134 13.505,-13.737 14.78,-15.909c1.275,-2.172 4.107,-6.468 14.45,-7.042c10.343,-0.575 2.871,-1.13 21.363,1.905c2.115,0.347 4.594,1.378 6.073,1.579l-63.969,31.985Zm22.933,-68.602l21.625,10.812c-0.441,0.348 -1.508,0.961 -4.082,1.853c-4.285,1.485 -16.251,1.63 -19.312,4.289c-3.061,2.659 -18.891,19.152 -28.219,19.476c-9.327,0.324 -28.629,14.83 -31.283,17.165c-2.654,2.334 -18.757,7.855 -18.757,7.855l-5.689,3.023l-21.634,-10.817l0.49,-0.256c7.557,-3.95 10.146,-6.388 14.82,-10.071c4.674,-3.682 9.489,0 28.112,-3.154c18.624,-3.154 23.441,-18.798 31.797,-24.139c8.305,-5.308 7.024,-1.869 32.132,-16.036Zm-150.367,32.147l0.573,-0.286l5.367,-2.684c0,0 15.18,-5.591 22.942,-3.936c13.54,2.889 17.955,8.502 9.257,6.743c-9.296,-1.881 -17.024,5.636 -21.848,8.191l-0.115,0.061l-16.176,-8.089Zm187.894,-13.384l10.774,5.387c-0.949,0.534 -3.161,1.74 -4.898,2.418c-12.581,4.907 -4.45,-0.831 -10.734,0c-12.494,1.651 0,-5.462 0,-5.462l4.858,-2.343Zm-80.489,-40.244l16.073,8.036c-1.026,0.466 -3.324,1.537 -4.84,2.447c-2.003,1.201 -18.302,5.034 -26,8.466c-7.698,3.432 -7.385,11.941 -13.315,20.176c-5.93,8.234 -12.488,7.138 -20.392,7.936c-7.904,0.797 -12.188,1.849 3.767,-3.242c15.955,-5.091 3.873,-11.55 18.374,-25.286c14.5,-13.736 21.466,-16.1 21.466,-16.1l4.867,-2.433Zm-23.333,4.433c-0.911,3.686 -6.925,10.956 -13.733,14.1c-10.888,5.027 -16.891,0.413 -26.833,8.049c-7.279,5.591 -17.507,9.575 -23.407,9.837l63.973,-31.986Z" style="fill:#45a120;fill-opacity:0.35;"/><path d="M51.534,-5.71l0.506,-0.342c0,0 2.211,-1.381 5.271,-2.636c3.061,-1.255 14.414,-6.393 16.195,-10.903c4.604,-11.655 22.242,-10.786 16.1,-8.662c-6.142,2.125 -10.145,5.099 -13.686,14.163c-3.541,9.064 -7.78,10.927 -7.78,10.927l-5.816,2.848l-10.79,-5.395Zm46.868,-3.829c-1.142,-0.582 -2.314,-1.189 -3.429,-1.785c-4.835,-2.581 6.817,-9.599 10.733,-10.733c3.915,-1.134 13.505,-13.737 14.779,-15.909c1.275,-2.171 4.107,-6.467 14.45,-7.042c10.343,-0.575 2.871,-1.129 21.363,1.905c2.116,0.348 4.594,1.378 6.073,1.58l-63.969,31.984Zm22.933,-68.602l21.625,10.813c-0.441,0.347 -1.508,0.96 -4.082,1.852c-4.285,1.485 -16.251,1.631 -19.312,4.289c-3.061,2.659 -18.891,19.153 -28.218,19.476c-9.328,0.324 -28.629,14.831 -31.284,17.165c-2.654,2.335 -18.757,7.856 -18.757,7.856l-5.689,3.022l-21.634,-10.817l0.49,-0.255c7.557,-3.95 10.147,-6.389 14.82,-10.071c4.674,-3.683 9.489,0 28.113,-3.155c18.623,-3.154 23.44,-18.798 31.796,-24.139c8.305,-5.308 7.025,-1.868 32.132,-16.036Zm-150.367,32.148l0.574,-0.287l5.366,-2.683c0,0 15.18,-5.592 22.942,-3.936c13.54,2.888 17.956,8.502 9.258,6.742c-9.297,-1.881 -17.024,5.636 -21.849,8.191l-0.114,0.061l-16.177,-8.088Zm187.894,-13.384l10.774,5.387c-0.949,0.533 -3.16,1.739 -4.898,2.417c-12.581,4.908 -4.449,-0.83 -10.733,0c-12.495,1.651 0,-5.462 0,-5.462l4.857,-2.342Zm-80.489,-40.245l16.073,8.036c-1.026,0.466 -3.324,1.537 -4.84,2.447c-2.002,1.202 -18.302,5.035 -26,8.466c-7.698,3.432 -7.384,11.942 -13.314,20.176c-5.93,8.234 -12.489,7.139 -20.393,7.936c-7.904,0.798 -12.187,1.849 3.767,-3.242c15.955,-5.09 3.874,-11.55 18.374,-25.286c14.5,-13.736 21.466,-16.1 21.466,-16.1l4.867,-2.433Zm-23.333,4.433c-0.91,3.686 -6.925,10.956 -13.733,14.1c-10.887,5.027 -16.891,0.413 -26.833,8.05c-7.279,5.591 -17.507,9.574 -23.407,9.837l63.973,-31.987Z" style="fill:#45a120;fill-opacity:0.35;"/><path d="M51.534,208.952l0.506,-0.342c0,0 2.211,-1.381 5.271,-2.636c3.061,-1.254 14.414,-6.393 16.195,-10.903c4.604,-11.655 22.242,-10.786 16.1,-8.661c-6.142,2.124 -10.145,5.098 -13.686,14.163c-3.541,9.064 -7.78,10.927 -7.78,10.927l-5.816,2.847l-10.79,-5.395Zm46.868,-3.828c-1.142,-0.582 -2.314,-1.19 -3.429,-1.785c-4.835,-2.581 6.817,-9.599 10.733,-10.733c3.915,-1.134 13.505,-13.737 14.779,-15.909c1.275,-2.172 4.107,-6.468 14.45,-7.042c10.343,-0.575 2.871,-1.13 21.363,1.905c2.116,0.347 4.594,1.378 6.073,1.579l-63.969,31.985Zm22.933,-68.602l21.625,10.812c-0.441,0.348 -1.508,0.961 -4.082,1.853c-4.285,1.485 -16.251,1.63 -19.312,4.289c-3.061,2.659 -18.891,19.152 -28.218,19.476c-9.328,0.324 -28.629,14.83 -31.284,17.165c-2.654,2.334 -18.757,7.855 -18.757,7.855l-5.689,3.023l-21.634,-10.818l0.49,-0.255c7.557,-3.95 10.147,-6.389 14.82,-10.071c4.674,-3.682 9.489,0 28.113,-3.154c18.623,-3.154 23.44,-18.798 31.796,-24.139c8.305,-5.308 7.025,-1.869 32.132,-16.036Zm-150.367,32.147l0.574,-0.287l5.366,-2.683c0,0 15.18,-5.592 22.942,-3.936c13.54,2.889 17.956,8.502 9.258,6.743c-9.297,-1.881 -17.024,5.636 -21.849,8.191l-0.114,0.061l-16.177,-8.089Zm187.894,-13.384l10.774,5.387c-0.949,0.534 -3.16,1.74 -4.898,2.418c-12.581,4.907 -4.449,-0.831 -10.733,0c-12.495,1.65 0,-5.462 0,-5.462l4.857,-2.343Zm-80.489,-40.245l16.073,8.037c-1.026,0.466 -3.324,1.537 -4.84,2.447c-2.002,1.201 -18.302,5.034 -26,8.466c-7.698,3.432 -7.384,11.941 -13.314,20.175c-5.93,8.235 -12.489,7.139 -20.393,7.937c-7.904,0.797 -12.187,1.849 3.767,-3.242c15.955,-5.091 3.874,-11.551 18.374,-25.287c14.5,-13.736 21.466,-16.099 21.466,-16.099l4.867,-2.434Zm-23.333,4.434c-0.91,3.686 -6.925,10.956 -13.733,14.099c-10.887,5.028 -16.891,0.414 -26.833,8.05c-7.279,5.591 -17.507,9.575 -23.407,9.837l63.973,-31.986Z" style="fill:#45a120;fill-opacity:0.35;"/><path d="M266.196,101.621l0.507,-0.342c0,0 2.21,-1.381 5.271,-2.636c3.06,-1.255 14.413,-6.393 16.195,-10.903c4.603,-11.655 22.242,-10.786 16.1,-8.661c-6.142,2.124 -10.146,5.098 -13.686,14.162c-3.541,9.065 -7.781,10.928 -7.781,10.928l-5.815,2.847l-10.791,-5.395Zm46.869,-3.828c-1.143,-0.583 -2.315,-1.19 -3.43,-1.786c-4.835,-2.58 6.818,-9.599 10.733,-10.733c3.916,-1.134 13.505,-13.737 14.78,-15.908c1.274,-2.172 4.107,-6.468 14.45,-7.043c10.343,-0.574 2.871,-1.129 21.363,1.906c2.115,0.347 4.593,1.377 6.073,1.579l-63.969,31.985Zm22.933,-68.603l21.625,10.813c-0.442,0.347 -1.509,0.96 -4.082,1.852c-4.286,1.485 -16.251,1.631 -19.312,4.29c-3.061,2.658 -18.892,19.152 -28.219,19.476c-9.327,0.323 -28.629,14.83 -31.283,17.165c-2.655,2.334 -18.758,7.855 -18.758,7.855l-5.688,3.022l-21.634,-10.817l0.49,-0.255c7.557,-3.95 10.146,-6.389 14.82,-10.071c4.674,-3.682 9.489,0 28.112,-3.154c18.623,-3.154 23.44,-18.799 31.797,-24.14c8.305,-5.308 7.024,-1.868 32.132,-16.036Zm-150.368,32.148l0.574,-0.287l5.367,-2.683c0,0 15.18,-5.592 22.941,-3.936c13.541,2.889 17.956,8.502 9.258,6.742c-9.296,-1.88 -17.024,5.637 -21.848,8.192l-0.115,0.06l-16.177,-8.088Zm187.895,-13.384l10.774,5.387c-0.95,0.533 -3.161,1.739 -4.899,2.417c-12.58,4.908 -4.449,-0.83 -10.733,0c-12.494,1.651 0,-5.462 0,-5.462l4.858,-2.342Zm-80.49,-40.245l16.073,8.037c-1.025,0.466 -3.323,1.536 -4.839,2.446c-2.003,1.202 -18.302,5.035 -26,8.467c-7.699,3.431 -7.385,11.941 -13.315,20.175c-5.93,8.234 -12.488,7.139 -20.392,7.936c-7.904,0.798 -12.188,1.85 3.767,-3.241c15.955,-5.091 3.873,-11.551 18.374,-25.287c14.5,-13.736 21.466,-16.1 21.466,-16.1l4.866,-2.433Zm-23.332,4.433c-0.911,3.686 -6.925,10.956 -13.734,14.1c-10.887,5.027 -16.891,0.413 -26.832,8.05c-7.279,5.591 -17.507,9.575 -23.407,9.837l63.973,-31.987Z" style="fill:#45a120;fill-opacity:0.35;"/><path d="M55.04,103.374c0,0 2.211,-1.476 5.271,-2.731c3.061,-1.255 14.414,-6.393 16.195,-10.903c4.604,-11.655 22.242,-10.786 16.1,-8.661c-6.142,2.124 -10.145,5.098 -13.686,14.162c-3.541,9.065 -7.78,10.928 -7.78,10.928l-5.311,2.6l-10.789,-5.395Zm42.933,-5.367c-4.835,-2.58 6.817,-9.599 10.733,-10.733c3.915,-1.134 13.505,-13.737 14.779,-15.908c1.275,-2.172 4.107,-6.468 14.45,-7.043c10.343,-0.574 5.945,-1.549 24.436,1.485l-64.398,32.199Zm26.832,-67.082l21.467,10.734c-0.003,0.015 -0.154,0.727 -4.394,2.196c-4.285,1.485 -16.251,1.631 -19.312,4.29c-3.061,2.658 -18.891,19.152 -28.218,19.476c-9.328,0.323 -28.629,14.83 -31.284,17.165c-2.654,2.334 -18.757,7.855 -18.757,7.855l-5.367,2.683l-21.466,-10.733c7.557,-3.95 10.147,-6.389 14.82,-10.071c4.674,-3.682 9.489,0 28.113,-3.154c18.623,-3.154 23.44,-18.799 31.796,-24.14c8.357,-5.341 7.008,-1.825 32.602,-16.301Zm-150.337,32.163l0.074,-0.037l5.366,-2.683c0,0 15.18,-5.592 22.942,-3.936c13.54,2.889 17.956,8.502 9.258,6.742c-9.066,-1.834 -16.64,5.269 -21.484,7.992l-16.156,-8.078Zm187.903,-13.38l10.733,5.367c0,0 -3.089,1.795 -5.366,2.683c-12.581,4.908 -4.449,-0.83 -10.733,0c-12.495,1.651 0,-5.462 0,-5.462l5.366,-2.588Zm-80.498,-40.249l16.1,8.05c0,0 -3.365,1.482 -5.367,2.683c-2.002,1.202 -18.302,5.035 -26,8.467c-7.698,3.431 -7.384,11.941 -13.314,20.175c-5.93,8.234 -12.489,7.139 -20.393,7.936c-7.904,0.798 -12.187,1.85 3.767,-3.241c15.955,-5.091 3.874,-11.551 18.374,-25.287c14.5,-13.736 21.466,-16.1 21.466,-16.1l5.367,-2.683Zm-26.833,2.683c0.001,0.056 0.127,11.086 -10.733,16.1c-10.887,5.027 -16.891,0.413 -26.833,8.05c-9.942,7.637 -21.825,10.493 -26.833,8.05l64.399,-32.2Z" style="fill:#cae97c;fill-opacity:0.8;"/><path d="M-52.291,157.04c0,0 2.211,-1.476 5.271,-2.731c3.061,-1.255 14.414,-6.393 16.195,-10.903c4.604,-11.655 22.242,-10.786 16.1,-8.662c-6.142,2.125 -10.146,5.099 -13.686,14.163c-3.541,9.064 -7.781,10.927 -7.781,10.927l-5.31,2.6l-10.789,-5.394Zm42.932,-5.367c-4.835,-2.581 6.818,-9.599 10.733,-10.733c3.916,-1.134 13.505,-13.737 14.78,-15.909c1.275,-2.171 4.107,-6.467 14.45,-7.042c10.343,-0.575 5.945,-1.55 24.436,1.485l-64.399,32.199Zm26.833,-67.082l21.466,10.733c-0.002,0.015 -0.153,0.728 -4.393,2.197c-4.285,1.485 -16.251,1.631 -19.312,4.289c-3.061,2.659 -18.891,19.152 -28.219,19.476c-9.327,0.324 -28.629,14.831 -31.283,17.165c-2.654,2.335 -18.757,7.856 -18.757,7.856l-5.367,2.683l-21.466,-10.733c7.557,-3.95 10.146,-6.389 14.82,-10.071c4.674,-3.683 9.489,0 28.112,-3.155c18.624,-3.154 23.441,-18.798 31.797,-24.139c8.357,-5.341 7.008,-1.826 32.602,-16.301Zm-150.337,32.163l0.073,-0.037l5.367,-2.684c0,0 15.18,-5.591 22.942,-3.935c13.54,2.888 17.955,8.501 9.257,6.742c-9.065,-1.834 -16.639,5.269 -21.483,7.992l-16.156,-8.078Zm187.903,-13.38l10.733,5.367c0,0 -3.089,1.795 -5.366,2.683c-12.581,4.908 -4.45,-0.83 -10.734,0c-12.494,1.651 0,-5.462 0,-5.462l5.367,-2.588Zm-80.498,-40.249l16.099,8.05c0,0 -3.364,1.481 -5.366,2.683c-2.003,1.202 -18.302,5.035 -26,8.466c-7.698,3.432 -7.385,11.942 -13.315,20.176c-5.93,8.234 -12.488,7.138 -20.392,7.936c-7.904,0.798 -12.188,1.849 3.767,-3.242c15.955,-5.091 3.873,-11.55 18.374,-25.286c14.5,-13.736 21.466,-16.1 21.466,-16.1l5.367,-2.683Zm-26.833,2.683c0.001,0.056 0.127,11.085 -10.733,16.1c-10.888,5.027 -16.891,0.413 -26.833,8.05c-9.942,7.636 -21.825,10.493 -26.833,8.049l64.399,-32.199Z" style="fill:#d5aa85;fill-opacity:0.8;"/><path d="M162.371,157.04c0,0 2.211,-1.476 5.272,-2.731c3.06,-1.255 14.413,-6.393 16.195,-10.903c4.603,-11.655 22.241,-10.786 16.099,-8.662c-6.142,2.125 -10.145,5.099 -13.686,14.163c-3.54,9.064 -7.78,10.927 -7.78,10.927l-5.31,2.6l-10.79,-5.394Zm42.933,-5.367c-4.835,-2.581 6.818,-9.599 10.733,-10.733c3.915,-1.134 13.505,-13.737 14.779,-15.909c1.275,-2.171 4.108,-6.467 14.451,-7.042c10.343,-0.575 5.944,-1.55 24.436,1.485l-64.399,32.199Zm26.833,-67.082l21.466,10.733c-0.003,0.015 -0.154,0.728 -4.394,2.197c-4.285,1.485 -16.25,1.631 -19.312,4.289c-3.061,2.659 -18.891,19.152 -28.218,19.476c-9.327,0.324 -28.629,14.831 -31.284,17.165c-2.654,2.335 -18.757,7.856 -18.757,7.856l-5.366,2.683l-21.467,-10.733c7.558,-3.95 10.147,-6.389 14.821,-10.071c4.673,-3.683 9.489,0 28.112,-3.155c18.623,-3.154 23.44,-18.798 31.797,-24.139c8.356,-5.341 7.008,-1.826 32.602,-16.301Zm-150.338,32.163l0.074,-0.037l5.366,-2.684c0,0 15.181,-5.591 22.942,-3.935c13.54,2.888 17.956,8.501 9.258,6.742c-9.066,-1.834 -16.64,5.269 -21.484,7.992l-16.156,-8.078Zm187.904,-13.38l10.733,5.367c0,0 -3.09,1.795 -5.367,2.683c-12.58,4.908 -4.449,-0.83 -10.733,0c-12.494,1.651 0,-5.462 0,-5.462l5.367,-2.588Zm-80.499,-40.249l16.1,8.05c0,0 -3.364,1.481 -5.367,2.683c-2.002,1.202 -18.301,5.035 -26,8.466c-7.698,3.432 -7.384,11.942 -13.314,20.176c-5.93,8.234 -12.489,7.138 -20.393,7.936c-7.904,0.798 -12.187,1.849 3.768,-3.242c15.954,-5.091 3.873,-11.55 18.373,-25.286c14.501,-13.736 21.467,-16.1 21.467,-16.1l5.366,-2.683Zm-26.833,2.683c0.001,0.056 0.127,11.085 -10.733,16.1c-10.887,5.027 -16.891,0.413 -26.833,8.05c-9.941,7.636 -21.824,10.493 -26.832,8.049l64.398,-32.199Z" style="fill:#cae97c;fill-opacity:0.8;"/><path d="M162.371,49.708c0,0 2.211,-1.476 5.272,-2.73c3.06,-1.255 14.413,-6.394 16.195,-10.904c4.603,-11.654 22.241,-10.786 16.099,-8.661c-6.142,2.124 -10.145,5.099 -13.686,14.163c-3.54,9.064 -7.78,10.927 -7.78,10.927l-5.31,2.6l-10.79,-5.395Zm42.933,-5.366c-4.835,-2.581 6.818,-9.599 10.733,-10.733c3.915,-1.134 13.505,-13.737 14.779,-15.909c1.275,-2.172 4.108,-6.468 14.451,-7.042c10.343,-0.575 5.944,-1.55 24.436,1.484l-64.399,32.2Zm26.833,-67.082l21.466,10.733c-0.003,0.015 -0.154,0.727 -4.394,2.197c-4.285,1.485 -16.25,1.63 -19.312,4.289c-3.061,2.659 -18.891,19.152 -28.218,19.476c-9.327,0.324 -28.629,14.83 -31.284,17.165c-2.654,2.334 -18.757,7.855 -18.757,7.855l-5.366,2.684l-21.467,-10.734c7.558,-3.95 10.147,-6.388 14.821,-10.071c4.673,-3.682 9.489,0 28.112,-3.154c18.623,-3.154 23.44,-18.798 31.797,-24.139c8.356,-5.341 7.008,-1.826 32.602,-16.301Zm-150.338,32.162l0.074,-0.036l5.366,-2.684c0,0 15.181,-5.591 22.942,-3.936c13.54,2.889 17.956,8.502 9.258,6.743c-9.066,-1.834 -16.64,5.269 -21.484,7.991l-16.156,-8.078Zm187.904,-13.379l10.733,5.366c0,0 -3.09,1.795 -5.367,2.684c-12.58,4.907 -4.449,-0.831 -10.733,0c-12.494,1.651 0,-5.462 0,-5.462l5.367,-2.588Zm-80.499,-40.249l16.1,8.049c0,0 -3.364,1.482 -5.367,2.684c-2.002,1.201 -18.301,5.034 -26,8.466c-7.698,3.432 -7.384,11.941 -13.314,20.176c-5.93,8.234 -12.489,7.138 -20.393,7.936c-7.904,0.797 -12.187,1.849 3.768,-3.242c15.954,-5.091 3.873,-11.55 18.373,-25.286c14.501,-13.736 21.467,-16.1 21.467,-16.1l5.366,-2.683Zm-26.833,2.683c0.001,0.055 0.127,11.085 -10.733,16.1c-10.887,5.027 -16.891,0.413 -26.833,8.049c-9.941,7.637 -21.824,10.494 -26.832,8.05l64.398,-32.199Z" style="fill:#cae97c;fill-opacity:0.8;"/><path d="M-52.291,49.708c0,0 2.211,-1.476 5.271,-2.73c3.061,-1.255 14.414,-6.394 16.195,-10.904c4.604,-11.654 22.242,-10.786 16.1,-8.661c-6.142,2.124 -10.146,5.099 -13.686,14.163c-3.541,9.064 -7.781,10.927 -7.781,10.927l-5.31,2.6l-10.789,-5.395Zm42.932,-5.366c-4.835,-2.581 6.818,-9.599 10.733,-10.733c3.916,-1.134 13.505,-13.737 14.78,-15.909c1.275,-2.172 4.107,-6.468 14.45,-7.042c10.343,-0.575 5.945,-1.55 24.436,1.484l-64.399,32.2Zm26.833,-67.082l21.466,10.733c-0.002,0.015 -0.153,0.727 -4.393,2.197c-4.285,1.485 -16.251,1.63 -19.312,4.289c-3.061,2.659 -18.891,19.152 -28.219,19.476c-9.327,0.324 -28.629,14.83 -31.283,17.165c-2.654,2.334 -18.757,7.855 -18.757,7.855l-5.367,2.684l-21.466,-10.734c7.557,-3.95 10.146,-6.388 14.82,-10.071c4.674,-3.682 9.489,0 28.112,-3.154c18.624,-3.154 23.441,-18.798 31.797,-24.139c8.357,-5.341 7.008,-1.826 32.602,-16.301Zm-150.337,32.162l0.073,-0.036l5.367,-2.684c0,0 15.18,-5.591 22.942,-3.936c13.54,2.889 17.955,8.502 9.257,6.743c-9.065,-1.834 -16.639,5.269 -21.483,7.991l-16.156,-8.078Zm187.903,-13.379l10.733,5.366c0,0 -3.089,1.795 -5.366,2.684c-12.581,4.907 -4.45,-0.831 -10.734,0c-12.494,1.651 0,-5.462 0,-5.462l5.367,-2.588Zm-80.498,-40.249l16.099,8.049c0,0 -3.364,1.482 -5.366,2.684c-2.003,1.201 -18.302,5.034 -26,8.466c-7.698,3.432 -7.385,11.941 -13.315,20.176c-5.93,8.234 -12.488,7.138 -20.392,7.936c-7.904,0.797 -12.188,1.849 3.767,-3.242c15.955,-5.091 3.873,-11.55 18.374,-25.286c14.5,-13.736 21.466,-16.1 21.466,-16.1l5.367,-2.683Zm-26.833,2.683c0.001,0.055 0.127,11.085 -10.733,16.1c-10.888,5.027 -16.891,0.413 -26.833,8.049c-9.942,7.637 -21.825,10.494 -26.833,8.05l64.399,-32.199Z" style="fill:#d5aa85;fill-opacity:0.8;"/><path d="M55.04,-3.957c0,0 2.211,-1.476 5.271,-2.731c3.061,-1.255 14.414,-6.393 16.195,-10.903c4.604,-11.655 22.242,-10.786 16.1,-8.662c-6.142,2.125 -10.145,5.099 -13.686,14.163c-3.541,9.064 -7.78,10.927 -7.78,10.927l-5.311,2.6l-10.789,-5.394Zm42.933,-5.367c-4.835,-2.581 6.817,-9.599 10.733,-10.733c3.915,-1.134 13.505,-13.737 14.779,-15.909c1.275,-2.171 4.107,-6.467 14.45,-7.042c10.343,-0.575 5.945,-1.55 24.436,1.485l-64.398,32.199Zm26.832,-67.082l21.467,10.733c-0.003,0.015 -0.154,0.728 -4.394,2.197c-4.285,1.485 -16.251,1.631 -19.312,4.289c-3.061,2.659 -18.891,19.153 -28.218,19.476c-9.328,0.324 -28.629,14.831 -31.284,17.165c-2.654,2.335 -18.757,7.856 -18.757,7.856l-5.367,2.683l-21.466,-10.733c7.557,-3.95 10.147,-6.389 14.82,-10.071c4.674,-3.683 9.489,0 28.113,-3.155c18.623,-3.154 23.44,-18.798 31.796,-24.139c8.357,-5.341 7.008,-1.826 32.602,-16.301Zm-150.337,32.163l0.074,-0.037l5.366,-2.683c0,0 15.18,-5.592 22.942,-3.936c13.54,2.888 17.956,8.502 9.258,6.742c-9.066,-1.834 -16.64,5.269 -21.484,7.992l-16.156,-8.078Zm187.903,-13.38l10.733,5.367c0,0 -3.089,1.795 -5.366,2.683c-12.581,4.908 -4.449,-0.83 -10.733,0c-12.495,1.651 0,-5.462 0,-5.462l5.366,-2.588Zm-80.498,-40.249l16.1,8.05c0,0 -3.365,1.482 -5.367,2.683c-2.002,1.202 -18.302,5.035 -26,8.466c-7.698,3.432 -7.384,11.942 -13.314,20.176c-5.93,8.234 -12.489,7.139 -20.393,7.936c-7.904,0.798 -12.187,1.849 3.767,-3.242c15.955,-5.09 3.874,-11.55 18.374,-25.286c14.5,-13.736 21.466,-16.1 21.466,-16.1l5.367,-2.683Zm-26.833,2.683c0.001,0.056 0.127,11.085 -10.733,16.1c-10.887,5.027 -16.891,0.413 -26.833,8.05c-9.942,7.637 -21.825,10.493 -26.833,8.05l64.399,-32.2Z" style="fill:#d5aa85;fill-opacity:0.8;"/><path d="M55.04,210.705c0,0 2.211,-1.476 5.271,-2.731c3.061,-1.254 14.414,-6.393 16.195,-10.903c4.604,-11.655 22.242,-10.786 16.1,-8.661c-6.142,2.124 -10.145,5.098 -13.686,14.163c-3.541,9.064 -7.78,10.927 -7.78,10.927l-5.311,2.6l-10.789,-5.395Zm42.933,-5.366c-4.835,-2.581 6.817,-9.599 10.733,-10.733c3.915,-1.134 13.505,-13.737 14.779,-15.909c1.275,-2.172 4.107,-6.468 14.45,-7.042c10.343,-0.575 5.945,-1.55 24.436,1.484l-64.398,32.2Zm26.832,-67.082l21.467,10.733c-0.003,0.015 -0.154,0.727 -4.394,2.197c-4.285,1.485 -16.251,1.63 -19.312,4.289c-3.061,2.659 -18.891,19.152 -28.218,19.476c-9.328,0.324 -28.629,14.83 -31.284,17.165c-2.654,2.334 -18.757,7.855 -18.757,7.855l-5.367,2.683l-21.466,-10.733c7.557,-3.95 10.147,-6.389 14.82,-10.071c4.674,-3.682 9.489,0 28.113,-3.154c18.623,-3.154 23.44,-18.798 31.796,-24.139c8.357,-5.341 7.008,-1.826 32.602,-16.301Zm-150.337,32.162l0.074,-0.037l5.366,-2.683c0,0 15.18,-5.592 22.942,-3.936c13.54,2.889 17.956,8.502 9.258,6.743c-9.066,-1.834 -16.64,5.269 -21.484,7.991l-16.156,-8.078Zm187.903,-13.379l10.733,5.366c0,0 -3.089,1.795 -5.366,2.684c-12.581,4.907 -4.449,-0.831 -10.733,0c-12.495,1.65 0,-5.462 0,-5.462l5.366,-2.588Zm-80.498,-40.25l16.1,8.05c0,0 -3.365,1.482 -5.367,2.684c-2.002,1.201 -18.302,5.034 -26,8.466c-7.698,3.432 -7.384,11.941 -13.314,20.175c-5.93,8.235 -12.489,7.139 -20.393,7.937c-7.904,0.797 -12.187,1.849 3.767,-3.242c15.955,-5.091 3.874,-11.551 18.374,-25.287c14.5,-13.736 21.466,-16.099 21.466,-16.099l5.367,-2.684Zm-26.833,2.684c0.001,0.055 0.127,11.085 -10.733,16.099c-10.887,5.028 -16.891,0.414 -26.833,8.05c-9.942,7.637 -21.825,10.494 -26.833,8.05l64.399,-32.199Z" style="fill:#d5aa85;fill-opacity:0.8;"/><path d="M269.703,103.374c0,0 2.21,-1.476 5.271,-2.731c3.06,-1.255 14.413,-6.393 16.195,-10.903c4.603,-11.655 22.242,-10.786 16.1,-8.661c-6.142,2.124 -10.146,5.098 -13.686,14.162c-3.541,9.065 -7.781,10.928 -7.781,10.928l-5.31,2.6l-10.789,-5.395Zm42.932,-5.367c-4.835,-2.58 6.818,-9.599 10.733,-10.733c3.916,-1.134 13.505,-13.737 14.78,-15.908c1.274,-2.172 4.107,-6.468 14.45,-7.043c10.343,-0.574 5.944,-1.549 24.436,1.485l-64.399,32.199Zm26.833,-67.082l21.466,10.734c-0.003,0.015 -0.153,0.727 -4.393,2.196c-4.286,1.485 -16.251,1.631 -19.312,4.29c-3.061,2.658 -18.892,19.152 -28.219,19.476c-9.327,0.323 -28.629,14.83 -31.283,17.165c-2.655,2.334 -18.758,7.855 -18.758,7.855l-5.366,2.683l-21.466,-10.733c7.557,-3.95 10.146,-6.389 14.82,-10.071c4.674,-3.682 9.489,0 28.112,-3.154c18.623,-3.154 23.44,-18.799 31.797,-24.14c8.356,-5.341 7.008,-1.825 32.602,-16.301Zm-150.338,32.163l0.074,-0.037l5.367,-2.683c0,0 15.18,-5.592 22.941,-3.936c13.541,2.889 17.956,8.502 9.258,6.742c-9.066,-1.834 -16.639,5.269 -21.484,7.992l-16.156,-8.078Zm187.904,-13.38l10.733,5.367c0,0 -3.09,1.795 -5.367,2.683c-12.58,4.908 -4.449,-0.83 -10.733,0c-12.494,1.651 0,-5.462 0,-5.462l5.367,-2.588Zm-80.499,-40.249l16.1,8.05c0,0 -3.364,1.482 -5.366,2.683c-2.003,1.202 -18.302,5.035 -26,8.467c-7.699,3.431 -7.385,11.941 -13.315,20.175c-5.93,8.234 -12.488,7.139 -20.392,7.936c-7.904,0.798 -12.188,1.85 3.767,-3.241c15.955,-5.091 3.873,-11.551 18.374,-25.287c14.5,-13.736 21.466,-16.1 21.466,-16.1l5.366,-2.683Zm-26.832,2.683c0,0.056 0.126,11.086 -10.734,16.1c-10.887,5.027 -16.891,0.413 -26.832,8.05c-9.942,7.637 -21.825,10.493 -26.833,8.05l64.399,-32.2Z" style="fill:#d5aa85;fill-opacity:0.8;"/></g></g></g><defs><linearGradient id="_Linear2" x1="0" y1="0" x2="1" y2="0" gradientUnits="userSpaceOnUse" gradientTransform="matrix(32.5777,112.509,-112.509,32.5777,150.798,75.3878)"><stop offset="0" style="stop-color:#7e5e49;stop-opacity:0"/><stop offset="0.5" style="stop-color:#68564a;stop-opacity:0.25098"/><stop offset="1" style="stop-color:#273f4b;stop-opacity:1"/></linearGradient><linearGradient id="_Linear4" x1="0" y1="0" x2="1" y2="0" gradientUnits="userSpaceOnUse" gradientTransform="matrix(-32.2391,101.945,-101.945,-32.2391,54.3188,70.0014)"><stop offset="0" style="stop-color:#7e5e49;stop-opacity:0"/><stop offset="0.34" style="stop-color:#725a49;stop-opacity:0.0686275"/><stop offset="0.63" style="stop-color:#474a4a;stop-opacity:0.317647"/><stop offset="1" style="stop-color:#273f4b;stop-opacity:0.5"/></linearGradient></defs></svg>