<?xml version="1.0" encoding="UTF-8" standalone="no"?><!DOCTYPE svg PUBLIC "-//W3C//DTD SVG 1.1//EN" "http://www.w3.org/Graphics/SVG/1.1/DTD/svg11.dtd"><svg width="100%" height="100%" viewBox="0 0 215 205" version="1.1" xmlns="http://www.w3.org/2000/svg" xmlns:xlink="http://www.w3.org/1999/xlink" xml:space="preserve" xmlns:serif="http://www.serif.com/" style="fill-rule:evenodd;clip-rule:evenodd;stroke-linejoin:round;stroke-miterlimit:1.41421;"><g id="Placeholder"><path d="M214.776,54.528l0,96.598l-107.331,53.665l0,-96.598l107.331,-53.665Z" style="fill:#edcc50;"/><clipPath id="_clip1"><path d="M214.776,54.528l0,96.598l-107.331,53.665l0,-96.598l107.331,-53.665Z"/></clipPath><g clip-path="url(#_clip1)"><path d="M107.445,54.528l53.665,-26.833l-53.665,-26.833l-53.666,26.833l107.331,53.665l0,48.299l-53.665,26.833l-53.666,-26.833l0,-48.299l53.666,-26.832Z" style="fill:#dca319;"/></g><path d="M0.113,54.528l107.332,53.665l0,96.598l-107.332,-53.665l0,-96.598" style="fill:#edcc50;"/><clipPath id="_clip2"><path d="M0.113,54.528l107.332,53.665l0,96.598l-107.332,-53.665l0,-96.598"/></clipPath><g clip-path="url(#_clip2)"><path d="M107.445,54.528l53.665,-26.833l-53.665,-26.833l-53.666,26.833l107.331,53.665l0,48.299l-53.665,26.833l-53.666,-26.833l0,-48.299l53.666,-26.832Z" style="fill:#dca319;"/></g><path d="M214.776,54.528l-107.331,53.665l-107.332,-53.665l107.332,-53.666l107.331,53.666Z" style="fill:#edcc50;"/><clipPath id="_clip3"><path d="M214.776,54.528l-107.331,53.665l-107.332,-53.665l107.332,-53.666l107.331,53.666Z"/></clipPath><g clip-path="url(#_clip3)"><path d="M107.445,54.528l53.665,-26.833l-53.665,-26.833l-53.666,26.833l107.331,53.665l0,48.299l-53.665,26.833l-53.666,-26.833l0,-48.299l53.666,-26.832Z" style="fill:#dca319;"/></g><path d="M214.776,102.827l0,48.299l-53.666,26.832l0,-48.299l53.666,-26.832Z" style="fill:#dca319;"/><path d="M53.779,129.659l0,48.299l-53.666,-26.832l0,-48.299l53.666,26.832Z" style="fill:#dca319;"/></g></svg>