<?xml version="1.0" encoding="UTF-8" standalone="no"?><!DOCTYPE svg PUBLIC "-//W3C//DTD SVG 1.1//EN" "http://www.w3.org/Graphics/SVG/1.1/DTD/svg11.dtd"><svg width="100%" height="100%" viewBox="0 0 176 100" version="1.1" xmlns="http://www.w3.org/2000/svg" xmlns:xlink="http://www.w3.org/1999/xlink" xml:space="preserve" xmlns:serif="http://www.serif.com/" style="fill-rule:evenodd;clip-rule:evenodd;stroke-linejoin:round;stroke-miterlimit:1.41421;"><g id="way08"><path d="M8.117,52.939l51.511,-33.181l35.018,-3.957l79.835,34.551l-59.033,29.516l-32.199,-3.364l-26.833,0.68l-48.299,-24.245Z" style="fill:#c7a664;"/><g><g><path d="M28.519,32.834l-8.163,4.082l0.518,8.196l9.044,3.122l7.159,4.979l10.548,2.268l10.546,-10.64l-4.09,-8.688l-9.463,-6.002l-16.099,2.683Z" style="fill:#acaba7;"/><path d="M29.175,37.992l-8.163,4.081l0.518,8.196l9.044,3.123l7.159,4.979l10.548,2.267l10.546,-10.639l-4.09,-8.688l-9.462,-6.002l-16.1,2.683Z" style="fill:#544235;fill-opacity:0.6;"/><path d="M96.651,88.581l-10.38,0.763l-4.987,-5.672l-3.402,-6.512l4.382,-3.404l10.208,-1.088l10.316,-1.612l7.688,-1.598l-1.665,4.761l2.816,2.396l0.693,4.709l-2.174,2.475l-13.495,4.782" style="fill:#acaba7;"/><path d="M97.308,93.739l-10.38,0.763l-4.988,-5.673l-3.401,-6.512l4.381,-3.403l10.208,-1.089l10.317,-1.611l7.687,-1.599l-1.665,4.761l2.816,2.397l0.693,4.709l-2.174,2.475l-13.494,4.782" style="fill:#544235;fill-opacity:0.6;"/><path d="M73.177,91.672l-8.627,-3.526l0.877,-9.188l-0.916,-9.721l12.296,0.564l9.123,-2.541l2.034,6.384l10.081,7.005l-3.402,9.357l-5.366,4.48l-10.734,-0.131l-5.366,-2.683Z" style="fill:#acaba7;"/><path d="M73.833,96.83l-8.626,-3.526l0.876,-9.189l-0.915,-9.72l12.295,0.564l9.123,-2.541l2.034,6.383l10.081,7.005l-3.402,9.358l-5.366,4.479l-10.733,-0.13l-5.367,-2.683Z" style="fill:#544235;fill-opacity:0.6;"/><path d="M157.643,63.057l8.543,-3.191l8.636,-7.002l-7.698,-7.954l-6.216,-1.686l-4.098,-5.503l-7.41,1.623l-1.411,9.774l-2.455,7.885l6.251,5.961l5.858,0.093Z" style="fill:#acaba7;"/><path d="M158.299,68.215l8.543,-3.192l8.636,-7.001l-7.698,-7.955l-6.216,-1.686l-4.098,-5.503l-7.41,1.624l-1.41,9.773l-2.455,7.886l6.25,5.96l5.858,0.094Z" style="fill:#544235;fill-opacity:0.6;"/><path d="M148.076,51.062l-13.21,-1.238l-10.168,-8.539l3.293,-7.013l5.008,-5.187l15.077,0.511l8.505,-4.252l3.967,8.749l-0.459,5.597l-3.624,4.834l-8.389,6.538Z" style="fill:#acaba7;"/><path d="M148.732,56.22l-13.21,-1.239l-10.168,-8.538l3.293,-7.013l5.008,-5.188l15.077,0.512l8.505,-4.253l3.967,8.75l-0.459,5.596l-3.624,4.834l-8.389,6.539Z" style="fill:#544235;fill-opacity:0.6;"/><path d="M92.243,22.511l8.114,-8.245l0.779,-11.123l-7.715,-2.942l-12.603,0.498l-7.551,6.957l-4.782,8.343l8.837,3.206l8.82,2.168l6.101,1.138" style="fill:#acaba7;"/><path d="M95.278,29.158l8.114,-8.245l0.779,-11.123l-7.715,-2.942l-12.602,0.498l-7.552,6.957l-4.781,8.343l8.836,3.206l8.82,2.168l6.101,1.138" style="fill:#544235;fill-opacity:0.6;"/><path d="M51.977,41.838l4.035,-4.826l3.812,-11.412l-9.176,-4.588l-8.151,4.808l-5.367,6.652l10.733,3.248l0,2.182l1.741,2.314l2.373,1.622Z" style="fill:#acaba7;"/><path d="M52.633,46.996l4.035,-4.826l3.193,-9.546l-4.611,-1.799l-7.815,4.348l-3.154,5.006l4.239,0.698l0,2.182l1.74,2.315l2.373,1.622Z" style="fill:#544235;fill-opacity:0.6;"/><path d="M75.35,28.817l5.676,-5.364l0,-6.48l-11.883,-6.926l-13.009,-4.255l-4.196,7.083l0,11.197l23.412,4.745Z" style="fill:#acaba7;"/><path d="M76.006,33.975l5.676,-5.364l0,-6.48l-13.24,-6.274l-8.034,-1.349l-3.873,8.796l-1.494,7.61l20.965,3.061Z" style="fill:#544235;fill-opacity:0.6;"/><path d="M12.935,62.833l13.211,-1.239l10.168,-8.538l-3.294,-7.014l-5.008,-5.187l-15.077,0.511l-8.504,-4.252l-3.968,8.749l0.46,5.597l3.623,4.834l8.389,6.539Z" style="fill:#acaba7;"/><path d="M13.652,66.702l13.211,-1.239l10.168,-8.538l-3.293,-7.014l-5.008,-5.187l-15.078,0.511l-8.504,-4.252l-3.968,8.749l0.46,5.597l3.623,4.834l8.389,6.539Z" style="fill:#544235;fill-opacity:0.6;"/></g></g></g></svg>