<?xml version="1.0" encoding="UTF-8" standalone="no"?><!DOCTYPE svg PUBLIC "-//W3C//DTD SVG 1.1//EN" "http://www.w3.org/Graphics/SVG/1.1/DTD/svg11.dtd"><svg width="100%" height="100%" viewBox="0 0 179 91" version="1.1" xmlns="http://www.w3.org/2000/svg" xmlns:xlink="http://www.w3.org/1999/xlink" xml:space="preserve" xmlns:serif="http://www.serif.com/" style="fill-rule:evenodd;clip-rule:evenodd;stroke-linejoin:round;stroke-miterlimit:1.41421;"><g id="way02"><path d="M14.769,29.891l37.566,24.15l37.566,18.783l21.466,16.099l64.399,-32.199l-64.399,-32.199l-42.932,-21.467l-53.666,26.833Z" style="fill:#c78664;"/><g><path d="M140.771,48.168l8.162,-4.082l-0.517,-8.196l-9.045,-3.122l-7.158,-4.979l-10.548,-2.268l-10.546,10.64l4.09,8.688l9.462,6.002l16.1,-2.683Z" style="fill:#918f88;"/><path d="M136.83,51.605l8.162,-4.081l-0.518,-8.196l-9.044,-3.123l-7.159,-4.979l-10.548,-2.267l-10.545,10.639l4.089,8.689l9.463,6.002l16.1,-2.684Z" style="fill:#4f3929;fill-opacity:0.6;"/><path d="M75.766,24.309l14.135,-0.172l9.298,2.591l3.036,-1.518l3.766,-1.883l-2.822,-3.956l-2.545,-4.094l-6.616,-0.486l-4.117,-2.059l-5.366,-0.138l-12.169,0.717l-0.532,2.274l0.175,6.845l3.757,1.879Z" style="fill:#918f88;"/><path d="M71.825,27.747l14.135,-0.172l9.298,2.59l3.035,-1.517l3.766,-1.884l-2.821,-3.955l-2.545,-4.094l-6.616,-0.487l-4.117,-2.058l-5.367,-0.139l-12.168,0.718l-0.532,2.274l0.174,6.845l3.758,1.879Z" style="fill:#4f3929;fill-opacity:0.6;"/><path d="M70.591,1.427l10.38,-0.763l4.988,5.673l3.401,6.512l-4.381,3.404l-10.209,1.088l-10.316,1.612l-7.687,1.598l1.665,-4.761l-2.816,-2.397l-0.694,-4.709l2.174,-2.474l13.495,-4.783" style="fill:#918f88;"/><path d="M66.65,4.865l10.38,-0.763l4.987,5.673l3.402,6.512l-4.381,3.403l-10.209,1.089l-10.316,1.611l-7.688,1.599l1.665,-4.761l-2.816,-2.397l-0.693,-4.709l2.174,-2.475l13.495,-4.782" style="fill:#4f3929;fill-opacity:0.6;"/><path d="M112.803,19.851l8.626,3.526l-0.876,9.189l0.915,9.72l-12.296,-0.564l-9.122,2.541l-2.034,-6.383l-10.081,-7.005l3.401,-9.358l5.367,-4.479l10.733,0.13l5.367,2.683Z" style="fill:#918f88;"/><path d="M108.861,23.289l8.627,3.526l-0.877,9.188l0.916,9.721l-12.296,-0.565l-9.122,2.542l-2.035,-6.384l-10.081,-7.005l3.402,-9.357l5.367,-4.48l10.733,0.131l5.366,2.683Z" style="fill:#4f3929;fill-opacity:0.6;"/><path d="M21.216,22.765l-8.543,3.191l-8.637,7.002l7.699,7.954l6.215,1.686l4.098,5.503l7.41,-1.623l1.411,-9.774l2.455,-7.885l-6.25,-5.961l-5.858,-0.093Z" style="fill:#918f88;"/><path d="M17.274,26.202l-8.543,3.192l-8.636,7.002l7.698,7.954l6.216,1.686l4.098,5.503l7.41,-1.623l1.411,-9.774l2.455,-7.885l-6.251,-5.961l-5.858,-0.094Z" style="fill:#4f3929;fill-opacity:0.6;"/><path d="M30.782,34.76l13.211,1.238l10.168,8.539l-3.294,7.013l-5.008,5.187l-15.077,-0.511l-8.504,4.252l-3.968,-8.749l0.46,-5.597l3.623,-4.834l8.389,-6.538Z" style="fill:#918f88;"/><path d="M26.841,38.197l13.21,1.239l10.169,8.538l-3.294,7.013l-5.008,5.188l-15.077,-0.511l-8.505,4.252l-3.967,-8.75l0.459,-5.596l3.624,-4.834l8.389,-6.539Z" style="fill:#4f3929;fill-opacity:0.6;"/><path d="M75.278,59.048l15.078,0.132l11.775,7.927l-6.22,5.395l-6.228,3.114l-16.501,-1.517l-6.332,2.201l-1.975,-6.355l-12.428,-4.186l-2.785,-6.112l2.787,-2.98l5.914,-0.711l3.12,1.561l13.795,1.531" style="fill:#918f88;"/><path d="M71.337,62.485l15.077,0.133l11.775,7.927l-6.219,5.395l-6.229,3.114l-16.5,-1.517l-6.332,2.2l-1.976,-6.354l-12.428,-4.187l-2.784,-6.111l2.786,-2.98l5.914,-0.711l3.121,1.56l13.795,1.531" style="fill:#4f3929;fill-opacity:0.6;"/><path d="M41.91,43.231c1.867,0.205 16.056,6.73 16.056,6.73l6.708,10.036l-10.733,4.051l-6.867,-5.059l-9.232,-2.991c0,0 2.2,-12.973 4.068,-12.767Z" style="fill:#918f88;"/><path d="M37.968,46.668c1.868,0.206 16.057,6.73 16.057,6.73l6.708,10.037l-10.733,4.05l-6.868,-5.059l-9.232,-2.99c0,0 2.201,-12.973 4.068,-12.768Z" style="fill:#4f3929;fill-opacity:0.6;"/><path d="M148.242,37.596l-8.114,8.245l-0.779,11.122l7.715,2.943l12.603,-0.499l7.551,-6.957l4.782,-8.342l-8.837,-3.207l-8.82,-2.168l-6.101,-1.137" style="fill:#918f88;"/><path d="M144.301,41.033l-8.114,8.245l-0.779,11.123l7.714,2.942l12.603,-0.498l7.551,-6.958l4.782,-8.342l-8.836,-3.206l-8.821,-2.168l-6.1,-1.138" style="fill:#4f3929;fill-opacity:0.6;"/><path d="M163.648,45.298l-4.035,4.826l-3.812,11.412l9.176,4.588l8.151,-4.808l5.366,-6.651l-10.733,-3.248l0,-2.182l-1.741,-2.314l-2.372,-1.623Z" style="fill:#918f88;"/><path d="M159.707,48.736l-4.035,4.826l-3.194,9.546l4.611,1.799l7.816,-4.348l3.153,-5.006l-4.238,-0.699l0,-2.181l-1.741,-2.315l-2.372,-1.622Z" style="fill:#4f3929;fill-opacity:0.6;"/><path d="M97.133,67.413l-5.676,5.364l0,6.48l11.883,6.926l13.009,4.255l4.196,-7.083l0,-11.197l-23.412,-4.745Z" style="fill:#918f88;"/><path d="M93.191,70.851l-5.675,5.364l0,6.48l13.24,6.273l8.034,1.35l3.873,-8.797l1.494,-7.609l-20.966,-3.061Z" style="fill:#4f3929;fill-opacity:0.6;"/></g></g></svg>