<?xml version="1.0" encoding="UTF-8" standalone="no"?><!DOCTYPE svg PUBLIC "-//W3C//DTD SVG 1.1//EN" "http://www.w3.org/Graphics/SVG/1.1/DTD/svg11.dtd"><svg width="100%" height="100%" viewBox="0 0 217 120" version="1.1" xmlns="http://www.w3.org/2000/svg" xmlns:xlink="http://www.w3.org/1999/xlink" xml:space="preserve" xmlns:serif="http://www.serif.com/" style="fill-rule:evenodd;clip-rule:evenodd;stroke-linejoin:round;stroke-miterlimit:1.41421;"><g id="way09"><path d="M216.926,58.759l-107.331,-53.666l-107.331,53.666l107.331,53.666l107.331,-53.666Z" style="fill:#c78664;"/><g><g><path d="M95.263,105.545l12.462,0.954l5.988,-7.092l4.084,-8.14l-5.26,-4.254l-12.256,-1.361l-12.386,-2.014l-9.23,-1.998l1.999,5.951l-3.38,2.996l-0.833,5.886l2.61,3.094l16.202,5.978" style="fill:#918f88;"/><path d="M94.475,111.992l12.462,0.954l5.988,-7.091l4.084,-8.141l-5.26,-4.254l-12.256,-1.361l-12.386,-2.014l-9.229,-1.998l1.999,5.951l-3.381,2.996l-0.833,5.887l2.61,3.093l16.202,5.978" style="fill:#4f3929;fill-opacity:0.6;"/><path d="M123.446,109.408l10.357,-4.408l-1.052,-11.485l1.099,-12.151l-14.762,0.705l-10.952,-3.177l-2.443,7.98l-12.103,8.757l4.084,11.696l6.443,5.6l12.886,-0.163l6.443,-3.354Z" style="fill:#918f88;"/><path d="M122.659,115.855l10.357,-4.407l-1.052,-11.486l1.098,-12.151l-14.762,0.706l-10.952,-3.177l-2.443,7.979l-12.103,8.757l4.084,11.697l6.444,5.599l12.886,-0.162l6.443,-3.355Z" style="fill:#4f3929;fill-opacity:0.6;"/><path d="M22.037,73.639l-10.256,-3.99l-10.369,-8.752l9.242,-9.943l7.463,-2.107l4.92,-6.879l8.896,2.029l1.694,12.217l2.947,9.857l-7.504,7.451l-7.033,0.117Z" style="fill:#918f88;"/><path d="M21.249,80.086l-10.256,-3.99l-10.369,-8.752l9.242,-9.943l7.463,-2.107l4.92,-6.879l8.896,2.029l1.694,12.217l2.948,9.857l-7.505,7.451l-7.033,0.117Z" style="fill:#4f3929;fill-opacity:0.6;"/><path d="M34.474,64.278l15.861,-1.548l12.208,-10.673l-3.954,-8.767l-6.013,-6.484l-18.102,0.639l-10.21,-5.315l-4.763,10.937l0.552,6.995l4.35,6.043l10.071,8.173Z" style="fill:#918f88;"/><path d="M33.687,70.726l15.86,-1.549l12.208,-10.673l-3.954,-8.766l-6.013,-6.485l-18.101,0.639l-10.211,-5.315l-4.763,10.937l0.552,6.996l4.35,6.042l10.072,8.174Z" style="fill:#4f3929;fill-opacity:0.6;"/><path d="M92.706,29.165l-9.742,-10.306l-0.935,-13.904l9.262,-3.678l15.131,0.623l9.066,8.697l5.741,10.428l-10.609,4.008l-10.59,2.71l-7.324,1.422" style="fill:#918f88;"/><path d="M89.062,37.474l-9.742,-10.306l-0.935,-13.904l9.262,-3.678l15.131,0.623l9.066,8.697l5.741,10.428l-10.609,4.008l-10.59,2.71l-7.324,1.422" style="fill:#4f3929;fill-opacity:0.6;"/><path d="M109.502,29.264l-6.814,-6.705l0,-8.1l14.266,-8.657l15.618,-5.32l5.038,8.854l0,13.997l-28.108,5.931Z" style="fill:#918f88;"/><path d="M108.714,35.712l-6.814,-6.705l0,-8.101l15.896,-7.842l9.646,-1.687l4.649,10.996l1.794,9.512l-25.171,3.827Z" style="fill:#4f3929;fill-opacity:0.6;"/><path d="M200.279,72.503l-15.412,-1.386l-11.862,-9.56l3.842,-7.853l5.843,-5.807l17.589,0.572l9.922,-4.761l4.628,9.796l-0.536,6.266l-4.227,5.413l-9.787,7.32Z" style="fill:#918f88;"/><path d="M199.442,76.835l-15.411,-1.386l-11.863,-9.56l3.842,-7.853l5.843,-5.808l17.589,0.573l9.922,-4.761l4.628,9.796l-0.536,6.266l-4.227,5.412l-9.787,7.321Z" style="fill:#4f3929;fill-opacity:0.6;"/></g></g></g></svg>