<?xml version="1.0" encoding="UTF-8" standalone="no"?><!DOCTYPE svg PUBLIC "-//W3C//DTD SVG 1.1//EN" "http://www.w3.org/Graphics/SVG/1.1/DTD/svg11.dtd"><svg width="100%" height="100%" viewBox="0 0 176 106" version="1.1" xmlns="http://www.w3.org/2000/svg" xmlns:xlink="http://www.w3.org/1999/xlink" xml:space="preserve" xmlns:serif="http://www.serif.com/" style="fill-rule:evenodd;clip-rule:evenodd;stroke-linejoin:round;stroke-miterlimit:1.41421;"><g id="way16"><g><g><path d="M147.764,38.681l8.162,4.081l-0.518,8.196l-9.044,3.123l-7.159,4.978l-10.548,2.268l-10.545,-10.639l4.089,-8.689l9.463,-6.002l16.1,2.684Z" style="fill:#918f88;"/><path d="M147.107,43.838l8.163,4.082l-0.518,8.196l-9.044,3.122l-7.159,4.979l-10.548,2.268l-10.545,-10.64l4.089,-8.688l9.463,-6.002l16.099,2.683Z" style="fill:#4f3929;fill-opacity:0.6;"/><path d="M79.631,94.428l10.38,0.763l4.987,-5.673l3.402,-6.512l-4.381,-3.404l-10.209,-1.088l-10.316,-1.611l-7.688,-1.599l1.665,4.761l-2.816,2.397l-0.693,4.709l2.174,2.474l13.495,4.783" style="fill:#918f88;"/><path d="M78.975,99.585l10.38,0.764l4.987,-5.673l3.402,-6.512l-4.381,-3.404l-10.209,-1.088l-10.316,-1.612l-7.688,-1.598l1.665,4.761l-2.816,2.396l-0.693,4.71l2.174,2.474l13.495,4.782" style="fill:#4f3929;fill-opacity:0.6;"/><path d="M103.106,97.518l8.626,-3.526l-0.876,-9.188l0.915,-9.721l-12.296,0.565l-9.122,-2.542l-2.035,6.384l-10.081,7.005l3.402,9.357l5.367,4.48l10.733,-0.13l5.367,-2.684Z" style="fill:#918f88;"/><path d="M102.449,102.676l8.627,-3.526l-0.876,-9.188l0.915,-9.721l-12.296,0.565l-9.122,-2.542l-2.035,6.384l-10.081,7.005l3.402,9.357l5.367,4.48l10.733,-0.131l5.366,-2.683Z" style="fill:#4f3929;fill-opacity:0.6;"/><path d="M18.639,68.904l-8.542,-3.192l-8.637,-7.002l7.698,-7.954l6.216,-1.686l4.098,-5.503l7.41,1.623l1.411,9.774l2.455,7.885l-6.25,5.961l-5.859,0.094Z" style="fill:#918f88;"/><path d="M17.983,74.061l-8.543,-3.191l-8.636,-7.002l7.698,-7.954l6.216,-1.686l4.098,-5.503l7.41,1.623l1.411,9.774l2.455,7.885l-6.251,5.961l-5.858,0.093Z" style="fill:#4f3929;fill-opacity:0.6;"/><path d="M28.206,56.909l13.21,-1.239l10.169,-8.538l-3.294,-7.014l-5.008,-5.187l-15.077,0.511l-8.505,-4.252l-3.967,8.75l0.46,5.596l3.623,4.834l8.389,6.539Z" style="fill:#918f88;"/><path d="M27.55,62.066l13.21,-1.238l10.169,-8.539l-3.294,-7.013l-5.008,-5.187l-15.077,0.511l-8.505,-4.252l-3.967,8.749l0.46,5.597l3.623,4.834l8.389,6.538Z" style="fill:#4f3929;fill-opacity:0.6;"/><path d="M72.702,32.621l15.078,-0.133l11.774,-7.927l-6.219,-5.395l-6.228,-3.114l-16.501,1.517l-6.332,-2.2l-1.975,6.354l-12.428,4.187l-2.785,6.111l2.786,2.98l5.915,0.711l3.12,-1.56l13.795,-1.531" style="fill:#918f88;"/><path d="M72.046,37.779l15.078,-0.133l11.774,-7.927l-6.219,-5.395l-6.229,-3.114l-16.5,1.517l-6.332,-2.2l-1.976,6.354l-12.428,4.186l-2.784,6.112l2.786,2.98l5.914,0.711l3.121,-1.561l13.795,-1.53" style="fill:#4f3929;fill-opacity:0.6;"/><path d="M39.333,48.437c1.868,-0.205 16.057,-6.729 16.057,-6.729l6.708,-10.037l-10.733,-4.051l-6.868,5.06l-9.232,2.99c0,0 2.201,12.973 4.068,12.767Z" style="fill:#918f88;"/><path d="M38.677,53.595c1.868,-0.205 16.057,-6.73 16.057,-6.73l6.708,-10.036l-10.733,-4.051l-6.868,5.059l-9.232,2.991c0,0 2.201,12.973 4.068,12.767Z" style="fill:#4f3929;fill-opacity:0.6;"/><path d="M80.525,23.248l-8.114,-8.245l-0.779,-11.123l7.714,-2.942l12.603,0.498l7.551,6.958l4.782,8.342l-8.836,3.206l-8.821,2.168l-6.1,1.138" style="fill:#918f88;"/><path d="M77.49,29.895l-8.115,-8.245l-0.779,-11.123l7.715,-2.942l12.603,0.498l7.551,6.958l4.782,8.342l-8.836,3.206l-8.821,2.168l-6.1,1.138" style="fill:#4f3929;fill-opacity:0.6;"/><path d="M124.306,47.685l-4.035,-4.826l-3.813,-11.412l9.177,-4.588l8.151,4.808l5.366,6.651l-10.733,3.248l0,2.182l-1.741,2.314l-2.372,1.623Z" style="fill:#918f88;"/><path d="M123.65,52.842l-4.035,-4.826l-3.194,-9.545l4.611,-1.8l7.816,4.348l3.153,5.006l-4.238,0.699l0,2.182l-1.741,2.314l-2.372,1.622Z" style="fill:#4f3929;fill-opacity:0.6;"/><path d="M100.932,34.664l-5.676,-5.364l0,-6.48l11.883,-6.926l13.009,-4.256l4.196,7.083l0,11.198l-23.412,4.745Z" style="fill:#918f88;"/><path d="M100.276,39.821l-5.676,-5.364l0,-6.48l13.241,-6.273l8.034,-1.35l3.872,8.797l1.494,7.609l-20.965,3.061Z" style="fill:#4f3929;fill-opacity:0.6;"/><path d="M163.347,68.679l-13.21,-1.239l-10.169,-8.538l3.294,-7.013l5.008,-5.188l15.077,0.512l8.505,-4.253l3.967,8.75l-0.459,5.596l-3.624,4.834l-8.389,6.539Z" style="fill:#918f88;"/><path d="M162.63,72.548l-13.21,-1.239l-10.169,-8.538l3.294,-7.013l5.008,-5.188l15.077,0.512l8.504,-4.253l3.968,8.75l-0.46,5.596l-3.623,4.834l-8.389,6.539Z" style="fill:#4f3929;fill-opacity:0.6;"/></g></g></g></svg>