<?xml version="1.0" encoding="UTF-8" standalone="no"?><!DOCTYPE svg PUBLIC "-//W3C//DTD SVG 1.1//EN" "http://www.w3.org/Graphics/SVG/1.1/DTD/svg11.dtd"><svg width="100%" height="100%" viewBox="0 0 178 106" version="1.1" xmlns="http://www.w3.org/2000/svg" xmlns:xlink="http://www.w3.org/1999/xlink" xml:space="preserve" xmlns:serif="http://www.serif.com/" style="fill-rule:evenodd;clip-rule:evenodd;stroke-linejoin:round;stroke-miterlimit:1.41421;"><g id="way23"><g><path d="M20.129,65.395l-8.162,-4.081l0.517,-8.196l9.045,-3.123l7.158,-4.978l10.548,-2.268l10.546,10.639l-4.09,8.689l-9.462,6.002l-16.1,-2.684Z" style="fill:#918f88;"/><path d="M15.484,67.718l-8.163,-4.081l0.518,-8.196l9.044,-3.123l7.159,-4.979l10.548,-2.267l10.546,10.639l-4.09,8.688l-9.462,6.002l-16.1,-2.683Z" style="fill:#2f2d27;fill-opacity:0.6;"/><path d="M99.324,11.402l-10.38,-0.763l-4.987,5.672l-3.402,6.512l4.381,3.404l10.209,1.088l10.316,1.612l7.688,1.598l-1.665,-4.761l2.816,-2.396l0.693,-4.709l-2.174,-2.475l-13.495,-4.782" style="fill:#918f88;"/><path d="M94.679,13.724l-10.38,-0.763l-4.988,5.673l-3.401,6.512l4.381,3.404l10.209,1.088l10.316,1.612l7.687,1.598l-1.664,-4.761l2.815,-2.397l0.694,-4.709l-2.174,-2.474l-13.495,-4.783" style="fill:#2f2d27;fill-opacity:0.6;"/><path d="M80.268,3.215l-8.626,3.526l0.876,9.188l-0.915,9.721l12.295,-0.564l9.123,2.541l2.034,-6.383l10.081,-7.006l-3.402,-9.357l-5.366,-4.479l-10.733,0.13l-5.367,2.683Z" style="fill:#918f88;"/><path d="M75.623,5.538l-8.627,3.526l0.877,9.188l-0.916,9.721l12.296,-0.565l9.123,2.542l2.034,-6.384l10.081,-7.005l-3.402,-9.357l-5.366,-4.48l-10.734,0.13l-5.366,2.684Z" style="fill:#2f2d27;fill-opacity:0.6;"/><path d="M160.316,36.926l8.542,3.192l8.637,7.001l-7.698,7.954l-6.216,1.686l-4.098,5.504l-7.41,-1.624l-1.411,-9.774l-2.455,-7.885l6.25,-5.961l5.859,-0.093Z" style="fill:#918f88;"/><path d="M155.67,39.248l8.543,3.192l8.637,7.002l-7.699,7.954l-6.215,1.686l-4.098,5.503l-7.41,-1.623l-1.411,-9.774l-2.455,-7.885l6.25,-5.961l5.858,-0.094Z" style="fill:#2f2d27;fill-opacity:0.6;"/><path d="M150.749,48.921l-13.21,1.238l-10.169,8.539l3.294,7.013l5.008,5.187l15.077,-0.511l8.505,4.252l3.967,-8.749l-0.46,-5.597l-3.623,-4.834l-8.389,-6.538Z" style="fill:#918f88;"/><path d="M146.104,51.243l-13.211,1.239l-10.168,8.538l3.294,7.014l0.785,0.813l4.223,4.374l15.077,-0.511l8.504,4.252l3.968,-8.75l-0.46,-5.596l-3.623,-4.834l-8.389,-6.539Z" style="fill:#2f2d27;fill-opacity:0.6;"/><path d="M106.253,73.209l-15.078,0.132l-11.774,7.927l6.219,5.395l6.228,3.114l16.501,-1.517l6.332,2.201l1.975,-6.355l12.428,-4.186l2.785,-6.112l-2.786,-2.98l-5.915,-0.711l-3.12,1.561l-13.795,1.531" style="fill:#918f88;"/><path d="M101.608,75.531l-15.078,0.133l-11.775,7.927l6.22,5.395l6.228,3.114l16.501,-1.517l6.332,2.2l1.975,-6.354l12.428,-4.186l2.785,-6.112l-2.787,-2.98l-5.914,-0.711l-3.12,1.56l-13.795,1.531" style="fill:#2f2d27;fill-opacity:0.6;"/><path d="M139.622,57.392c-1.868,0.205 -16.057,6.73 -16.057,6.73l-6.708,10.036l10.733,4.051l6.868,-5.059l9.232,-2.991c0,0 -2.201,-12.973 -4.068,-12.767Z" style="fill:#918f88;"/><path d="M134.976,59.715c-1.867,0.205 -16.056,6.729 -16.056,6.729l-6.708,10.037l10.733,4.051l6.867,-5.06l9.232,-2.99c0,0 -2.2,-12.973 -4.068,-12.767Z" style="fill:#2f2d27;fill-opacity:0.6;"/><path d="M98.43,82.581l8.114,8.245l0.779,11.123l-7.714,2.942l-12.603,-0.498l-7.551,-6.957l-4.782,-8.343l8.836,-3.206l8.821,-2.168l6.1,-1.138" style="fill:#918f88;"/><path d="M96.164,83.415l8.114,8.245l0.779,11.122l-7.714,2.943l-12.603,-0.498l-7.551,-6.958l-4.782,-8.342l8.836,-3.207l8.821,-2.168l6.1,-1.137" style="fill:#2f2d27;fill-opacity:0.6;"/><path d="M153.43,28.249l8.114,8.245l0.779,11.122l-7.714,2.943l-12.603,-0.498l-7.551,-6.958l-4.782,-8.342l8.836,-3.207l8.821,-2.168l6.1,-1.137" style="fill:#918f88;"/><path d="M147.848,29.695l8.114,8.245l0.779,11.123l-7.714,2.942l-12.603,-0.498l-7.551,-6.958l-4.782,-8.342l8.836,-3.206l8.821,-2.168l6.1,-1.138" style="fill:#2f2d27;fill-opacity:0.6;"/><path d="M139.858,21.672l4.035,4.826l3.813,11.412l-9.177,4.588l-8.151,-4.808l-5.366,-6.651l10.733,-3.248l0,-2.182l1.741,-2.314l2.372,-1.623Z" style="fill:#918f88;"/><path d="M135.213,23.995l4.035,4.826l3.194,9.546l-4.612,1.799l-7.815,-4.348l-3.154,-5.006l4.239,-0.699l0,-2.182l1.741,-2.314l2.372,-1.622Z" style="fill:#2f2d27;fill-opacity:0.6;"/><path d="M129.97,17.578l5.676,5.364l0,6.48l-11.883,6.925l-13.009,4.256l-4.196,-7.083l0,-11.197l23.412,-4.745Z" style="fill:#918f88;"/><path d="M125.325,19.9l5.676,5.364l0,6.48l-13.241,6.274l-8.034,1.35l-3.872,-8.797l-1.494,-7.61l20.965,-3.061Z" style="fill:#2f2d27;fill-opacity:0.6;"/></g><path d="M11.886,32.805l13.075,-2.259l12.047,5.582l-1.345,7.63l-3.477,6.317l-14.686,3.45l-7.096,6.328l-6.118,-7.407l-1.02,-5.522l2.233,-5.614l6.387,-8.505Z" style="fill:#918f88;"/><path d="M8.968,36.034l13.075,-2.259l12.047,5.582l-1.344,7.631l-3.477,6.316l-14.687,3.45l-7.096,6.328l-6.118,-7.407l-1.02,-5.522l2.233,-5.614l6.387,-8.505Z" style="fill:#2f2d27;fill-opacity:0.6;"/></g></svg>