<?xml version="1.0" encoding="UTF-8" standalone="no"?><!DOCTYPE svg PUBLIC "-//W3C//DTD SVG 1.1//EN" "http://www.w3.org/Graphics/SVG/1.1/DTD/svg11.dtd"><svg width="100%" height="100%" viewBox="0 0 174 95" version="1.1" xmlns="http://www.w3.org/2000/svg" xmlns:xlink="http://www.w3.org/1999/xlink" xml:space="preserve" xmlns:serif="http://www.serif.com/" style="fill-rule:evenodd;clip-rule:evenodd;stroke-linejoin:round;stroke-miterlimit:1.41421;"><g id="way13"><g><g><path d="M150.544,62.405l8.162,-4.081l-0.517,-8.196l-9.045,-3.123l-7.158,-4.978l-10.548,-2.268l-10.546,10.639l4.09,8.689l9.462,6.002l16.1,-2.684Z" style="fill:#bdb097;"/><path d="M146.603,65.843l8.162,-4.081l-0.518,-8.196l-9.044,-3.123l-7.158,-4.979l-10.549,-2.267l-10.545,10.639l4.089,8.688l9.463,6.002l16.1,-2.683Z" style="fill:#4f3929;fill-opacity:0.6;"/><path d="M82.411,6.658l10.38,-0.763l4.988,5.673l3.401,6.512l-4.381,3.404l-10.208,1.088l-10.317,1.612l-7.687,1.598l1.665,-4.761l-2.816,-2.397l-0.693,-4.709l2.173,-2.474l13.495,-4.783" style="fill:#bdb097;"/><path d="M78.47,10.096l10.38,-0.763l4.988,5.673l3.401,6.512l-4.381,3.403l-10.209,1.089l-10.316,1.611l-7.687,1.599l1.664,-4.761l-2.815,-2.397l-0.694,-4.709l2.174,-2.475l13.495,-4.782" style="fill:#4f3929;fill-opacity:0.6;"/><path d="M105.886,3.568l8.626,3.526l-0.876,9.188l0.915,9.721l-12.295,-0.565l-9.123,2.542l-2.034,-6.384l-10.081,-7.005l3.402,-9.357l5.366,-4.48l10.733,0.13l5.367,2.684Z" style="fill:#bdb097;"/><path d="M101.945,7.005l8.626,3.526l-0.876,9.189l0.915,9.72l-12.296,-0.564l-9.122,2.541l-2.035,-6.383l-10.081,-7.005l3.402,-9.358l5.367,-4.479l10.733,0.13l5.367,2.683Z" style="fill:#4f3929;fill-opacity:0.6;"/><path d="M21.42,32.182l-8.543,3.192l-8.637,7.002l7.699,7.954l6.216,1.686l4.098,5.503l7.41,-1.623l1.41,-9.774l2.455,-7.885l-6.25,-5.961l-5.858,-0.094Z" style="fill:#bdb097;"/><path d="M17.478,35.62l-8.542,3.192l-8.637,7.001l7.698,7.955l6.216,1.686l4.098,5.503l7.41,-1.624l1.411,-9.773l2.455,-7.886l-6.25,-5.96l-5.859,-0.094Z" style="fill:#4f3929;fill-opacity:0.6;"/><path d="M30.986,44.177l13.211,1.239l10.168,8.538l-3.293,7.014l-5.008,5.187l-15.078,-0.511l-8.504,4.252l-3.968,-8.749l0.46,-5.597l3.623,-4.834l8.389,-6.539Z" style="fill:#bdb097;"/><path d="M27.045,47.615l13.21,1.239l10.169,8.538l-3.294,7.013l-5.008,5.188l-15.077,-0.512l-8.504,4.252l-3.968,-8.749l0.46,-5.596l3.623,-4.834l8.389,-6.539Z" style="fill:#4f3929;fill-opacity:0.6;"/><path d="M98.798,70.447l14.326,-4.702l13.693,3.74l-4.164,7.102l-4.904,4.945l-16.117,3.846l-5.295,4.112l-3.905,-5.388l-13.114,0.014l-4.595,-4.899l1.685,-3.715l5.375,-2.567l3.456,0.479l13.559,-2.967" style="fill:#bdb097;"/><path d="M96.165,74.966l14.326,-4.702l13.693,3.739l-4.164,7.102l-4.904,4.945l-16.117,3.846l-5.295,4.112l-3.905,-5.387l-13.115,0.013l-4.595,-4.898l1.686,-3.715l5.375,-2.568l3.456,0.479l13.559,-2.966" style="fill:#4f3929;fill-opacity:0.6;"/><path d="M127.086,53.401l-4.035,4.826l-3.812,11.412l9.176,4.588l8.151,-4.808l5.367,-6.651l-10.734,-3.248l0,-2.182l-1.741,-2.314l-2.372,-1.623Z" style="fill:#bdb097;"/><path d="M123.145,56.839l-4.035,4.826l-3.194,9.546l4.611,1.799l7.816,-4.348l3.153,-5.006l-4.238,-0.699l0,-2.181l-1.741,-2.315l-2.372,-1.622Z" style="fill:#4f3929;fill-opacity:0.6;"/><path d="M99.123,67.747l-5.676,5.364l0,6.48l11.883,6.925l13.009,4.256l4.196,-7.083l0,-11.197l-23.412,-4.745Z" style="fill:#bdb097;"/><path d="M95.181,71.184l-5.675,5.364l0,6.48l13.24,6.274l8.034,1.35l3.873,-8.797l1.494,-7.61l-20.966,-3.061Z" style="fill:#4f3929;fill-opacity:0.6;"/></g><path d="M160.8,27.444l-13.211,1.238l-10.168,8.538l3.293,7.014l5.008,5.187l15.078,-0.511l8.504,4.252l3.968,-8.749l-0.46,-5.597l-3.623,-4.834l-8.389,-6.538Z" style="fill:#bdb097;"/><path d="M156.797,32.17l-13.21,1.239l-10.169,8.538l3.294,7.013l5.008,5.187l15.077,-0.511l8.505,4.252l3.967,-8.749l-0.46,-5.596l-3.623,-4.835l-8.389,-6.538Z" style="fill:#4f3929;fill-opacity:0.6;"/></g></g></svg>