<?xml version="1.0" encoding="UTF-8" standalone="no"?><!DOCTYPE svg PUBLIC "-//W3C//DTD SVG 1.1//EN" "http://www.w3.org/Graphics/SVG/1.1/DTD/svg11.dtd"><svg width="100%" height="100%" viewBox="0 0 179 107" version="1.1" xmlns="http://www.w3.org/2000/svg" xmlns:xlink="http://www.w3.org/1999/xlink" xml:space="preserve" xmlns:serif="http://www.serif.com/" style="fill-rule:evenodd;clip-rule:evenodd;stroke-linejoin:round;stroke-miterlimit:1.41421;"><g id="way20"><path d="M176.043,49.399l-85.865,42.932l-85.865,-42.932l85.865,-42.933l85.865,42.933Z" style="fill:#64b8c7;"/><g><g><path d="M161.337,65.163l8.162,-4.082l-0.517,-8.196l-9.045,-3.122l-7.158,-4.979l-10.548,-2.268l-10.546,10.64l4.09,8.688l9.462,6.002l16.1,-2.683Z" style="fill:#bdb097;"/><path d="M157.395,68.6l8.163,-4.081l-0.518,-8.196l-9.044,-3.123l-7.159,-4.979l-10.548,-2.267l-10.545,10.639l4.089,8.689l9.463,6.001l16.099,-2.683Z" style="fill:#6c5d44;fill-opacity:0.6;"/><path d="M82.142,11.169l10.38,-0.763l4.987,5.673l3.402,6.512l-4.381,3.403l-10.209,1.089l-10.316,1.611l-7.688,1.599l1.665,-4.761l-2.816,-2.397l-0.693,-4.709l2.174,-2.475l13.495,-4.782" style="fill:#bdb097;"/><path d="M78.2,14.607l10.38,-0.764l4.988,5.673l3.401,6.512l-4.381,3.404l-10.208,1.088l-10.317,1.612l-7.687,1.598l1.665,-4.761l-2.816,-2.396l-0.693,-4.71l2.173,-2.474l13.495,-4.782" style="fill:#6c5d44;fill-opacity:0.6;"/><path d="M101.198,2.982l8.626,3.527l-0.876,9.188l0.915,9.72l-12.295,-0.564l-9.123,2.542l-2.034,-6.384l-10.081,-7.005l3.402,-9.357l5.366,-4.48l10.733,0.13l5.367,2.683Z" style="fill:#bdb097;"/><path d="M97.256,6.42l8.627,3.526l-0.876,9.188l0.915,9.721l-12.296,-0.564l-9.122,2.541l-2.035,-6.384l-10.081,-7.005l3.402,-9.357l5.367,-4.479l10.733,0.13l5.366,2.683Z" style="fill:#6c5d44;fill-opacity:0.6;"/><path d="M21.15,36.693l-8.543,3.192l-8.636,7.001l7.698,7.955l6.216,1.686l4.098,5.503l7.41,-1.624l1.411,-9.773l2.455,-7.886l-6.251,-5.96l-5.858,-0.094Z" style="fill:#bdb097;"/><path d="M17.209,40.131l-8.543,3.191l-8.637,7.002l7.699,7.954l6.216,1.686l4.098,5.503l7.409,-1.623l1.411,-9.774l2.455,-7.885l-6.25,-5.961l-5.858,-0.093Z" style="fill:#6c5d44;fill-opacity:0.6;"/><path d="M30.717,48.688l13.21,1.239l10.169,8.538l-3.294,7.013l-5.008,5.188l-15.077,-0.512l-8.505,4.253l-3.967,-8.75l0.46,-5.596l3.623,-4.834l8.389,-6.539Z" style="fill:#bdb097;"/><path d="M26.775,52.126l13.211,1.238l10.168,8.538l-3.293,7.014l-5.008,5.187l-15.078,-0.511l-8.504,4.252l-3.968,-8.749l0.46,-5.597l3.623,-4.834l8.389,-6.538Z" style="fill:#6c5d44;fill-opacity:0.6;"/><path d="M75.213,72.976l15.078,0.132l11.774,7.927l-6.219,5.395l-6.229,3.115l-16.5,-1.517l-6.332,2.2l-1.976,-6.354l-12.428,-4.187l-2.784,-6.112l2.786,-2.979l5.914,-0.711l3.121,1.56l13.795,1.531" style="fill:#bdb097;"/><path d="M71.272,76.413l15.077,0.133l11.775,7.927l-6.219,5.395l-6.229,3.114l-16.5,-1.517l-6.333,2.2l-1.975,-6.354l-12.428,-4.186l-2.784,-6.112l2.786,-2.98l5.914,-0.711l3.121,1.56l13.795,1.531" style="fill:#6c5d44;fill-opacity:0.6;"/><path d="M41.844,57.159c1.868,0.206 16.057,6.73 16.057,6.73l6.708,10.037l-10.733,4.05l-6.868,-5.059l-9.232,-2.991c0,0 2.201,-12.972 4.068,-12.767Z" style="fill:#bdb097;"/><path d="M37.903,60.597c1.867,0.205 16.056,6.73 16.056,6.73l6.709,10.036l-10.733,4.051l-6.868,-5.059l-9.232,-2.991c0,0 2.2,-12.973 4.068,-12.767Z" style="fill:#6c5d44;fill-opacity:0.6;"/><path d="M83.036,82.349l-8.115,8.245l-0.779,11.122l7.715,2.943l12.603,-0.498l7.551,-6.958l4.782,-8.342l-8.836,-3.207l-8.821,-2.168l-6.1,-1.137" style="fill:#bdb097;"/><path d="M76.715,84.297l-8.114,8.245l-0.779,11.123l7.714,2.942l12.603,-0.498l7.551,-6.958l4.782,-8.342l-8.836,-3.206l-8.82,-2.168l-6.101,-1.138" style="fill:#6c5d44;fill-opacity:0.6;"/><path d="M28.036,28.016l-8.114,8.245l-0.779,11.123l7.714,2.942l12.603,-0.498l7.551,-6.958l4.782,-8.342l-8.836,-3.206l-8.821,-2.168l-6.1,-1.138" style="fill:#bdb097;"/><path d="M25.031,30.577l-8.114,8.245l-0.779,11.123l7.715,2.942l12.602,-0.498l7.551,-6.958l4.782,-8.342l-8.836,-3.206l-8.82,-2.168l-6.101,-1.138" style="fill:#6c5d44;fill-opacity:0.6;"/><path d="M41.608,21.44l-4.035,4.825l-3.813,11.412l9.177,4.588l8.151,-4.808l5.366,-6.651l-10.733,-3.248l0,-2.182l-1.741,-2.314l-2.372,-1.622Z" style="fill:#bdb097;"/><path d="M37.666,24.877l-4.035,4.826l-3.193,9.546l4.611,1.799l7.815,-4.348l3.154,-5.006l-4.238,-0.699l0,-2.181l-1.741,-2.315l-2.373,-1.622Z" style="fill:#6c5d44;fill-opacity:0.6;"/><path d="M51.496,17.345l-5.676,5.364l0,6.48l11.883,6.926l13.008,4.255l4.196,-7.083l0,-11.197l-23.411,-4.745Z" style="fill:#bdb097;"/><path d="M47.554,20.783l-5.675,5.364l0,6.48l13.24,6.273l8.034,1.35l3.873,-8.797l1.493,-7.609l-20.965,-3.061Z" style="fill:#6c5d44;fill-opacity:0.6;"/></g><path d="M169.58,32.573l-13.075,-2.26l-12.047,5.582l1.344,7.631l3.478,6.316l14.686,3.45l7.096,6.328l6.118,-7.407l1.02,-5.522l-2.233,-5.613l-6.387,-8.505Z" style="fill:#bdb097;"/><path d="M164.48,36.088l-13.074,-2.26l-12.048,5.582l1.345,7.631l3.477,6.316l14.686,3.45l7.097,6.328l6.117,-7.407l1.02,-5.522l-2.233,-5.613l-6.387,-8.505Z" style="fill:#6c5d44;fill-opacity:0.6;"/></g></g></svg>