<?xml version="1.0" encoding="UTF-8" standalone="no"?><!DOCTYPE svg PUBLIC "-//W3C//DTD SVG 1.1//EN" "http://www.w3.org/Graphics/SVG/1.1/DTD/svg11.dtd"><svg width="100%" height="100%" viewBox="0 0 175 92" version="1.1" xmlns="http://www.w3.org/2000/svg" xmlns:xlink="http://www.w3.org/1999/xlink" xml:space="preserve" xmlns:serif="http://www.serif.com/" style="fill-rule:evenodd;clip-rule:evenodd;stroke-linejoin:round;stroke-miterlimit:1.41421;"><g id="way01"><path d="M164.058,29.698l-37.566,24.149l-37.566,18.783l-21.466,16.1l-64.399,-32.199l64.399,-32.2l42.933,-21.466l53.665,26.833Z" style="fill:#64b8c7;"/><g><path d="M38.057,47.974l-8.163,-4.081l0.518,-8.196l9.044,-3.123l7.159,-4.978l10.548,-2.268l10.545,10.639l-4.089,8.689l-9.463,6.002l-16.099,-2.684Z" style="fill:#bdb097;"/><path d="M34.054,52.7l-8.162,-4.081l0.517,-8.196l9.045,-3.122l7.158,-4.979l10.548,-2.268l10.546,10.64l-4.09,8.688l-9.462,6.002l-16.1,-2.684Z" style="fill:#4f3929;fill-opacity:0.6;"/><path d="M103.061,24.116l-14.135,-0.172l-9.298,2.59l-3.035,-1.517l-3.766,-1.884l2.821,-3.955l2.545,-4.094l6.616,-0.487l4.117,-2.058l5.367,-0.139l12.168,0.718l0.532,2.274l-0.174,6.845l-3.758,1.879Z" style="fill:#bdb097;"/><path d="M99.059,28.842l-14.135,-0.172l-9.298,2.591l-3.036,-1.518l-3.766,-1.883l2.822,-3.956l2.545,-4.094l6.616,-0.487l4.117,-2.058l5.366,-0.138l12.169,0.717l0.532,2.274l-0.175,6.845l-3.757,1.879Z" style="fill:#4f3929;fill-opacity:0.6;"/><path d="M108.236,1.234l-10.38,-0.763l-4.987,5.673l-3.402,6.512l4.382,3.403l10.208,1.089l10.316,1.611l7.688,1.599l-1.665,-4.761l2.816,-2.397l0.693,-4.709l-2.174,-2.475l-13.495,-4.782" style="fill:#bdb097;"/><path d="M104.234,5.96l-10.38,-0.763l-4.988,5.673l-3.401,6.512l4.381,3.404l10.209,1.088l10.316,1.611l7.687,1.599l-1.665,-4.761l2.816,-2.397l0.694,-4.709l-2.174,-2.475l-13.495,-4.782" style="fill:#4f3929;fill-opacity:0.6;"/><path d="M66.025,19.658l-8.627,3.526l0.877,9.188l-0.916,9.721l12.296,-0.565l9.123,2.542l2.034,-6.384l10.081,-7.005l-3.402,-9.357l-5.367,-4.48l-10.733,0.131l-5.366,2.683Z" style="fill:#bdb097;"/><path d="M62.022,24.384l-8.626,3.526l0.876,9.188l-0.915,9.721l12.296,-0.564l9.122,2.541l2.034,-6.383l10.081,-7.006l-3.401,-9.357l-5.367,-4.479l-10.733,0.13l-5.367,2.683Z" style="fill:#4f3929;fill-opacity:0.6;"/><path d="M157.612,22.571l8.543,3.192l8.636,7.002l-7.698,7.954l-6.216,1.686l-4.098,5.503l-7.41,-1.623l-1.411,-9.774l-2.455,-7.885l6.251,-5.961l5.858,-0.094Z" style="fill:#bdb097;"/><path d="M153.609,27.298l8.543,3.191l8.637,7.002l-7.699,7.954l-6.215,1.686l-4.098,5.503l-7.41,-1.623l-1.411,-9.774l-2.455,-7.885l6.25,-5.961l5.858,-0.093Z" style="fill:#4f3929;fill-opacity:0.6;"/><path d="M148.045,34.566l-13.21,1.239l-10.168,8.538l3.293,7.014l5.008,5.187l15.077,-0.511l8.505,4.252l3.967,-8.75l-0.459,-5.596l-3.624,-4.834l-8.389,-6.539Z" style="fill:#bdb097;"/><path d="M144.043,39.293l-13.211,1.238l-10.168,8.538l3.294,7.014l5.008,5.187l15.077,-0.511l8.504,4.252l3.968,-8.749l-0.46,-5.597l-3.623,-4.834l-8.389,-6.538Z" style="fill:#4f3929;fill-opacity:0.6;"/><path d="M103.549,58.854l-15.077,0.133l-11.775,7.927l6.219,5.395l6.229,3.114l16.5,-1.517l6.333,2.2l1.975,-6.354l12.428,-4.187l2.784,-6.111l-2.786,-2.98l-5.914,-0.711l-3.121,1.56l-13.795,1.531" style="fill:#bdb097;"/><path d="M99.547,63.58l-15.078,0.133l-11.775,7.927l6.22,5.395l6.228,3.114l16.501,-1.517l6.332,2.2l1.975,-6.354l12.428,-4.186l2.785,-6.112l-2.787,-2.98l-5.914,-0.711l-3.12,1.56l-13.795,1.531" style="fill:#4f3929;fill-opacity:0.6;"/><path d="M136.918,43.038c-1.868,0.205 -16.057,6.729 -16.057,6.729l-6.708,10.037l10.733,4.05l6.868,-5.059l9.232,-2.99c0,0 -2.201,-12.973 -4.068,-12.767Z" style="fill:#bdb097;"/><path d="M132.915,47.764c-1.867,0.205 -16.056,6.73 -16.056,6.73l-6.708,10.036l10.733,4.051l6.867,-5.059l9.232,-2.991c0,0 -2.2,-12.973 -4.068,-12.767Z" style="fill:#4f3929;fill-opacity:0.6;"/><path d="M30.585,37.402l8.114,8.245l0.779,11.123l-7.714,2.942l-12.603,-0.498l-7.551,-6.958l-4.782,-8.342l8.836,-3.206l8.821,-2.168l6.1,-1.138" style="fill:#bdb097;"/><path d="M26.583,42.128l8.114,8.245l0.779,11.123l-7.715,2.942l-12.603,-0.498l-7.551,-6.957l-4.782,-8.343l8.837,-3.206l8.82,-2.168l6.101,-1.138" style="fill:#4f3929;fill-opacity:0.6;"/><path d="M15.18,45.105l4.034,4.826l3.813,11.412l-9.176,4.588l-8.151,-4.808l-5.367,-6.652l10.733,-3.248l0,-2.181l1.741,-2.315l2.373,-1.622Z" style="fill:#bdb097;"/><path d="M11.177,49.831l4.035,4.826l3.194,9.546l-4.612,1.799l-7.815,-4.348l-3.154,-5.005l4.239,-0.699l0,-2.182l1.741,-2.314l2.372,-1.623Z" style="fill:#4f3929;fill-opacity:0.6;"/><path d="M81.695,67.22l5.675,5.364l0,6.48l-11.882,6.926l-13.009,4.255l-4.196,-7.083l0,-11.197l23.412,-4.745Z" style="fill:#bdb097;"/><path d="M77.692,71.946l5.676,5.364l0,6.48l-13.241,6.274l-8.034,1.349l-3.872,-8.796l-1.494,-7.61l20.965,-3.061Z" style="fill:#4f3929;fill-opacity:0.6;"/></g></g></svg>