<?xml version="1.0" encoding="UTF-8" standalone="no"?><!DOCTYPE svg PUBLIC "-//W3C//DTD SVG 1.1//EN" "http://www.w3.org/Graphics/SVG/1.1/DTD/svg11.dtd"><svg width="100%" height="100%" viewBox="0 0 176 100" version="1.1" xmlns="http://www.w3.org/2000/svg" xmlns:xlink="http://www.w3.org/1999/xlink" xml:space="preserve" xmlns:serif="http://www.serif.com/" style="fill-rule:evenodd;clip-rule:evenodd;stroke-linejoin:round;stroke-miterlimit:1.41421;"><g id="way15"><g><g><path d="M147.647,33.095l8.162,4.082l-0.517,8.196l-9.045,3.122l-7.158,4.979l-10.549,2.268l-10.545,-10.64l4.09,-8.688l9.462,-6.002l16.1,2.683Z" style="fill:#bdb097;"/><path d="M146.991,38.253l8.162,4.081l-0.518,8.196l-9.044,3.123l-7.159,4.979l-10.548,2.267l-10.545,-10.639l4.089,-8.688l9.463,-6.002l16.1,2.683Z" style="fill:#4f3929;fill-opacity:0.6;"/><path d="M79.514,88.842l10.38,0.764l4.988,-5.673l3.401,-6.512l-4.381,-3.404l-10.209,-1.088l-10.316,-1.612l-7.687,-1.598l1.664,4.761l-2.815,2.397l-0.694,4.709l2.174,2.474l13.495,4.782" style="fill:#bdb097;"/><path d="M78.858,94l10.38,0.763l4.987,-5.673l3.402,-6.512l-4.381,-3.403l-10.209,-1.089l-10.316,-1.611l-7.688,-1.599l1.665,4.761l-2.816,2.397l-0.693,4.709l2.174,2.475l13.495,4.782" style="fill:#4f3929;fill-opacity:0.6;"/><path d="M102.989,91.933l8.626,-3.526l-0.876,-9.188l0.915,-9.721l-12.296,0.565l-9.122,-2.542l-2.034,6.384l-10.082,7.005l3.402,9.357l5.367,4.48l10.733,-0.131l5.367,-2.683Z" style="fill:#bdb097;"/><path d="M102.333,97.091l8.626,-3.526l-0.876,-9.188l0.915,-9.721l-12.296,0.564l-9.122,-2.541l-2.035,6.383l-10.081,7.006l3.402,9.357l5.367,4.479l10.733,-0.13l5.367,-2.683Z" style="fill:#4f3929;fill-opacity:0.6;"/><path d="M18.523,63.318l-8.543,-3.191l-8.637,-7.002l7.698,-7.954l6.216,-1.686l4.098,-5.503l7.41,1.623l1.411,9.774l2.455,7.885l-6.25,5.961l-5.858,0.093Z" style="fill:#bdb097;"/><path d="M17.866,68.476l-8.542,-3.192l-8.637,-7.001l7.698,-7.955l6.216,-1.686l4.098,-5.503l7.41,1.624l1.411,9.773l2.455,7.886l-6.25,5.96l-5.859,0.094Z" style="fill:#4f3929;fill-opacity:0.6;"/><path d="M28.089,51.323l13.211,-1.238l10.168,-8.538l-3.294,-7.014l-5.008,-5.187l-15.077,0.511l-8.504,-4.252l-3.968,8.749l0.46,5.597l3.623,4.834l8.389,6.538Z" style="fill:#bdb097;"/><path d="M27.433,56.481l13.21,-1.239l10.169,-8.538l-3.294,-7.013l-5.008,-5.187l-15.077,0.511l-8.505,-4.252l-3.967,8.749l0.46,5.596l3.623,4.834l8.389,6.539Z" style="fill:#4f3929;fill-opacity:0.6;"/><path d="M83.923,22.772l-8.114,-8.245l-0.779,-11.123l7.714,-2.942l12.603,0.498l7.551,6.958l4.782,8.342l-8.836,3.206l-8.821,2.168l-6.1,1.138" style="fill:#bdb097;"/><path d="M80.888,29.419l-8.115,-8.245l-0.779,-11.123l7.715,-2.942l12.603,0.498l7.551,6.958l4.782,8.342l-8.836,3.206l-8.821,2.168l-6.1,1.138" style="fill:#4f3929;fill-opacity:0.6;"/><path d="M124.189,42.099l-4.035,-4.826l-3.813,-11.411l9.177,-4.589l8.151,4.808l5.366,6.652l-10.733,3.248l0,2.182l-1.741,2.314l-2.372,1.622Z" style="fill:#bdb097;"/><path d="M123.533,47.257l-4.035,-4.826l-3.194,-9.546l4.611,-1.799l7.816,4.348l3.153,5.006l-4.238,0.699l0,2.181l-1.741,2.315l-2.372,1.622Z" style="fill:#4f3929;fill-opacity:0.6;"/><path d="M100.815,29.078l-5.675,-5.364l0,-6.48l11.882,-6.925l13.009,-4.256l4.196,7.083l0,11.198l-23.412,4.744Z" style="fill:#bdb097;"/><path d="M100.159,34.236l-5.676,-5.364l0,-6.48l13.241,-6.274l8.034,-1.349l3.873,8.797l1.493,7.609l-20.965,3.061Z" style="fill:#4f3929;fill-opacity:0.6;"/><path d="M163.23,63.094l-13.21,-1.239l-10.168,-8.538l3.293,-7.014l5.008,-5.187l15.077,0.511l8.505,-4.252l3.967,8.75l-0.459,5.596l-3.624,4.834l-8.389,6.539Z" style="fill:#bdb097;"/><path d="M162.513,66.963l-13.21,-1.239l-10.169,-8.538l3.294,-7.014l5.008,-5.187l15.077,0.511l8.505,-4.252l3.967,8.75l-0.46,5.596l-3.623,4.834l-8.389,6.539Z" style="fill:#4f3929;fill-opacity:0.6;"/></g></g></g></svg>