<?xml version="1.0" encoding="UTF-8" standalone="no"?><!DOCTYPE svg PUBLIC "-//W3C//DTD SVG 1.1//EN" "http://www.w3.org/Graphics/SVG/1.1/DTD/svg11.dtd"><svg width="100%" height="100%" viewBox="0 0 173 93" version="1.1" xmlns="http://www.w3.org/2000/svg" xmlns:xlink="http://www.w3.org/1999/xlink" xml:space="preserve" xmlns:serif="http://www.serif.com/" style="fill-rule:evenodd;clip-rule:evenodd;stroke-linejoin:round;stroke-miterlimit:1.41421;"><g id="way12"><g><g><path d="M25.933,61.787l-8.162,-4.082l0.517,-8.196l9.045,-3.122l7.158,-4.979l10.548,-2.268l10.546,10.64l-4.09,8.688l-9.462,6.002l-16.1,-2.683Z" style="fill:#bdb097;"/><path d="M22.874,64.224l-8.162,-4.081l0.518,-8.196l9.044,-3.123l7.159,-4.979l10.548,-2.267l10.545,10.639l-4.089,8.688l-9.463,6.002l-16.1,-2.683Z" style="fill:#4f3929;fill-opacity:0.6;"/><path d="M94.066,6.04l-10.38,-0.764l-4.988,5.673l-3.401,6.512l4.381,3.404l10.208,1.088l10.317,1.612l7.687,1.598l-1.665,-4.761l2.816,-2.397l0.693,-4.709l-2.173,-2.474l-13.495,-4.782" style="fill:#bdb097;"/><path d="M91.007,8.477l-10.38,-0.763l-4.987,5.673l-3.402,6.512l4.381,3.403l10.209,1.089l10.316,1.611l7.688,1.599l-1.665,-4.761l2.815,-2.397l0.694,-4.709l-2.174,-2.475l-13.495,-4.782" style="fill:#4f3929;fill-opacity:0.6;"/><path d="M70.591,2.949l-8.626,3.526l0.876,9.188l-0.915,9.721l12.295,-0.565l9.123,2.542l2.034,-6.384l10.081,-7.005l-3.402,-9.357l-5.366,-4.48l-10.733,0.13l-5.367,2.684Z" style="fill:#bdb097;"/><path d="M67.532,5.386l-8.626,3.526l0.876,9.189l-0.915,9.72l12.296,-0.564l9.122,2.542l2.035,-6.384l10.081,-7.005l-3.402,-9.358l-5.367,-4.479l-10.733,0.13l-5.367,2.683Z" style="fill:#4f3929;fill-opacity:0.6;"/><path d="M155.057,31.564l8.543,3.191l8.637,7.002l-7.699,7.954l-6.216,1.686l-4.098,5.503l-7.41,-1.623l-1.41,-9.774l-2.455,-7.885l6.25,-5.961l5.858,-0.093Z" style="fill:#bdb097;"/><path d="M151.999,34.001l8.542,3.192l8.637,7.001l-7.698,7.955l-6.216,1.686l-4.098,5.503l-7.41,-1.624l-1.411,-9.773l-2.455,-7.886l6.25,-5.96l5.859,-0.094Z" style="fill:#4f3929;fill-opacity:0.6;"/><path d="M145.491,43.559l-13.211,1.238l-10.168,8.538l3.293,7.014l5.008,5.187l15.078,-0.511l8.504,4.252l3.968,-8.749l-0.46,-5.597l-3.623,-4.834l-8.389,-6.538Z" style="fill:#bdb097;"/><path d="M142.432,45.996l-13.21,1.239l-10.169,8.538l3.294,7.013l5.008,5.188l15.077,-0.512l8.504,4.253l3.968,-8.75l-0.46,-5.596l-3.623,-4.834l-8.389,-6.539Z" style="fill:#4f3929;fill-opacity:0.6;"/><path d="M77.679,69.828l-14.326,-4.702l-13.693,3.74l4.164,7.102l4.904,4.945l16.117,3.846l5.295,4.112l3.905,-5.387l13.114,0.013l4.595,-4.899l-1.685,-3.715l-5.375,-2.567l-3.456,0.479l-13.559,-2.967" style="fill:#bdb097;"/><path d="M73.312,73.347l-14.326,-4.702l-13.693,3.739l4.164,7.103l4.904,4.944l16.117,3.846l5.295,4.112l3.906,-5.387l13.114,0.013l4.595,-4.898l-1.686,-3.715l-5.375,-2.567l-3.456,0.479l-13.559,-2.967" style="fill:#4f3929;fill-opacity:0.6;"/><path d="M49.391,52.783l4.035,4.826l3.812,11.411l-9.176,4.589l-8.151,-4.808l-5.367,-6.652l10.734,-3.248l0,-2.182l1.741,-2.314l2.372,-1.622Z" style="fill:#bdb097;"/><path d="M43.576,56.503l4.035,4.826l3.193,9.546l-4.611,1.799l-7.815,-4.348l-3.154,-5.005l4.238,-0.699l0,-2.182l1.741,-2.314l2.373,-1.623Z" style="fill:#4f3929;fill-opacity:0.6;"/><path d="M77.354,67.128l5.676,5.364l0,6.48l-11.883,6.926l-13.009,4.255l-4.196,-7.083l0,-11.197l23.412,-4.745Z" style="fill:#bdb097;"/><path d="M74.296,69.566l5.675,5.363l0,6.481l-13.24,6.273l-8.034,1.35l-3.873,-8.797l-1.494,-7.609l20.966,-3.061Z" style="fill:#4f3929;fill-opacity:0.6;"/><path d="M15.677,26.825l13.211,1.238l10.168,8.539l-3.293,7.013l-5.008,5.187l-15.078,-0.511l-8.504,4.252l-3.968,-8.749l0.46,-5.597l3.623,-4.834l8.389,-6.538Z" style="fill:#bdb097;"/><path d="M12.68,30.551l13.21,1.239l10.169,8.538l-3.294,7.013l-5.008,5.188l-15.077,-0.512l-8.505,4.253l-3.967,-8.75l0.46,-5.596l3.623,-4.834l8.389,-6.539Z" style="fill:#4f3929;fill-opacity:0.6;"/></g></g></g></svg>