<?xml version="1.0" encoding="UTF-8" standalone="no"?><!DOCTYPE svg PUBLIC "-//W3C//DTD SVG 1.1//EN" "http://www.w3.org/Graphics/SVG/1.1/DTD/svg11.dtd"><svg width="100%" height="100%" viewBox="0 0 180 91" version="1.1" xmlns="http://www.w3.org/2000/svg" xmlns:xlink="http://www.w3.org/1999/xlink" xml:space="preserve" xmlns:serif="http://www.serif.com/" style="fill-rule:evenodd;clip-rule:evenodd;stroke-linejoin:round;stroke-miterlimit:1.41421;"><g id="way11"><g><path d="M141.602,48.321l8.163,-4.081l-0.518,-8.196l-9.044,-3.123l-7.159,-4.979l-10.548,-2.267l-10.546,10.639l4.09,8.688l9.462,6.002l16.1,-2.683Z" style="fill:#bdb097;"/><path d="M137.661,51.759l8.162,-4.082l-0.517,-8.196l-9.045,-3.122l-7.158,-4.979l-10.548,-2.268l-10.546,10.64l4.09,8.688l9.462,6.002l16.1,-2.683Z" style="fill:#4f3929;fill-opacity:0.6;"/><path d="M76.597,24.463l14.135,-0.173l9.298,2.591l3.036,-1.517l3.766,-1.884l-2.821,-3.955l-2.545,-4.095l-6.616,-0.486l-4.118,-2.059l-5.366,-0.138l-12.169,0.718l-0.532,2.274l0.175,6.845l3.757,1.879Z" style="fill:#bdb097;"/><path d="M72.656,27.9l14.135,-0.172l9.298,2.591l3.035,-1.518l3.767,-1.883l-2.822,-3.956l-2.545,-4.094l-6.616,-0.486l-4.117,-2.059l-5.367,-0.138l-12.168,0.717l-0.532,2.274l0.174,6.845l3.758,1.879Z" style="fill:#4f3929;fill-opacity:0.6;"/><path d="M71.422,1.581l10.38,-0.763l4.988,5.672l3.401,6.512l-4.381,3.404l-10.208,1.088l-10.317,1.612l-7.687,1.599l1.665,-4.762l-2.816,-2.396l-0.693,-4.709l2.173,-2.475l13.495,-4.782" style="fill:#bdb097;"/><path d="M67.481,5.018l10.38,-0.763l4.987,5.673l3.402,6.512l-4.381,3.404l-10.209,1.088l-10.316,1.612l-7.688,1.598l1.665,-4.761l-2.815,-2.397l-0.694,-4.709l2.174,-2.474l13.495,-4.783" style="fill:#4f3929;fill-opacity:0.6;"/><path d="M113.634,20.005l8.626,3.526l-0.876,9.188l0.915,9.721l-12.295,-0.565l-9.123,2.542l-2.034,-6.384l-10.081,-7.005l3.402,-9.357l5.366,-4.48l10.733,0.13l5.367,2.684Z" style="fill:#bdb097;"/><path d="M109.693,23.442l8.626,3.526l-0.876,9.189l0.915,9.72l-12.296,-0.564l-9.122,2.541l-2.035,-6.383l-10.081,-7.005l3.402,-9.358l5.367,-4.479l10.733,0.13l5.367,2.683Z" style="fill:#4f3929;fill-opacity:0.6;"/><path d="M22.047,22.918l-8.543,3.192l-8.637,7.001l7.699,7.955l6.216,1.686l4.098,5.503l7.409,-1.624l1.411,-9.773l2.455,-7.886l-6.25,-5.96l-5.858,-0.094Z" style="fill:#bdb097;"/><path d="M18.105,26.356l-8.542,3.191l-8.637,7.002l7.698,7.954l6.216,1.686l4.098,5.503l7.41,-1.623l1.411,-9.774l2.455,-7.885l-6.25,-5.961l-5.859,-0.093Z" style="fill:#4f3929;fill-opacity:0.6;"/><path d="M31.613,34.913l13.211,1.239l10.168,8.538l-3.293,7.013l-5.008,5.188l-15.078,-0.512l-8.504,4.253l-3.968,-8.75l0.46,-5.596l3.623,-4.834l8.389,-6.539Z" style="fill:#bdb097;"/><path d="M27.672,38.351l13.21,1.238l10.169,8.539l-3.294,7.013l-5.008,5.187l-15.077,-0.511l-8.505,4.252l-3.967,-8.749l0.46,-5.597l3.623,-4.834l8.389,-6.538Z" style="fill:#4f3929;fill-opacity:0.6;"/><path d="M76.11,59.201l15.077,0.132l11.775,7.928l-6.219,5.394l-6.229,3.115l-16.5,-1.517l-6.333,2.2l-1.975,-6.354l-12.428,-4.187l-2.784,-6.112l2.786,-2.979l5.914,-0.711l3.121,1.56l13.795,1.531" style="fill:#bdb097;"/><path d="M72.168,62.639l15.078,0.132l11.774,7.927l-6.219,5.395l-6.228,3.114l-16.501,-1.517l-6.332,2.201l-1.975,-6.355l-12.428,-4.186l-2.785,-6.112l2.786,-2.98l5.915,-0.711l3.12,1.561l13.795,1.531" style="fill:#4f3929;fill-opacity:0.6;"/><path d="M42.741,43.384c1.867,0.206 16.056,6.73 16.056,6.73l6.709,10.037l-10.733,4.05l-6.868,-5.059l-9.232,-2.99c0,0 2.2,-12.973 4.068,-12.768Z" style="fill:#bdb097;"/><path d="M38.799,46.822c1.868,0.205 16.057,6.73 16.057,6.73l6.708,10.036l-10.733,4.051l-6.868,-5.059l-9.232,-2.991c0,0 2.201,-12.973 4.068,-12.767Z" style="fill:#4f3929;fill-opacity:0.6;"/><path d="M149.074,37.749l-8.115,8.245l-0.779,11.123l7.715,2.942l12.603,-0.498l7.551,-6.958l4.782,-8.342l-8.836,-3.206l-8.821,-2.168l-6.1,-1.138" style="fill:#bdb097;"/><path d="M145.132,41.187l-8.114,8.245l-0.779,11.122l7.715,2.943l12.602,-0.499l6.5,-5.988l1.051,-0.969l4.782,-8.342l-8.836,-3.207l-8.82,-2.168l-6.101,-1.137" style="fill:#4f3929;fill-opacity:0.6;"/><path d="M164.479,45.452l-4.035,4.826l-3.812,11.412l9.176,4.588l8.151,-4.808l5.367,-6.652l-10.734,-3.248l0,-2.182l-1.741,-2.314l-2.372,-1.622Z" style="fill:#bdb097;"/><path d="M160.538,48.889l-4.035,4.826l-3.194,9.546l4.611,1.799l7.816,-4.348l3.153,-5.005l-4.238,-0.699l0,-2.182l-1.741,-2.314l-2.372,-1.623Z" style="fill:#4f3929;fill-opacity:0.6;"/><path d="M97.964,67.567l-5.676,5.364l0,6.48l11.883,6.925l13.009,4.256l4.196,-7.083l0,-11.198l-23.412,-4.744Z" style="fill:#bdb097;"/><path d="M94.023,71.004l-5.676,5.364l0,6.48l13.24,6.274l8.034,1.349l3.873,-8.796l1.494,-7.61l-20.965,-3.061Z" style="fill:#4f3929;fill-opacity:0.6;"/></g></g></svg>