<?xml version="1.0" encoding="UTF-8" standalone="no"?><!DOCTYPE svg PUBLIC "-//W3C//DTD SVG 1.1//EN" "http://www.w3.org/Graphics/SVG/1.1/DTD/svg11.dtd"><svg width="100%" height="100%" viewBox="0 0 174 94" version="1.1" xmlns="http://www.w3.org/2000/svg" xmlns:xlink="http://www.w3.org/1999/xlink" xml:space="preserve" xmlns:serif="http://www.serif.com/" style="fill-rule:evenodd;clip-rule:evenodd;stroke-linejoin:round;stroke-miterlimit:1.41421;"><g id="way04"><path d="M171.166,41.835l-51.511,33.181l-35.018,3.957l-79.834,-34.55l59.032,-29.516l32.2,3.363l26.832,-0.68l48.299,24.245Z" style="fill:#64b8c7;"/><g><g><path d="M150.765,61.94l8.162,-4.081l-0.517,-8.196l-9.045,-3.123l-7.158,-4.979l-10.549,-2.267l-10.545,10.639l4.09,8.688l9.462,6.002l16.1,-2.683Z" style="fill:#bdb097;"/><path d="M146.823,65.378l8.163,-4.082l-0.518,-8.196l-9.044,-3.122l-7.159,-4.979l-10.548,-2.268l-10.545,10.64l4.089,8.688l9.463,6.002l16.099,-2.683Z" style="fill:#4f3929;fill-opacity:0.6;"/><path d="M82.632,6.193l10.38,-0.763l4.988,5.673l3.401,6.512l-4.381,3.403l-10.209,1.089l-10.316,1.611l-7.687,1.599l1.664,-4.761l-2.815,-2.397l-0.694,-4.709l2.174,-2.475l13.495,-4.782" style="fill:#bdb097;"/><path d="M78.691,9.631l10.38,-0.764l4.987,5.673l3.402,6.512l-4.382,3.404l-10.208,1.088l-10.316,1.612l-7.688,1.598l1.665,-4.761l-2.816,-2.396l-0.693,-4.71l2.174,-2.474l13.495,-4.782" style="fill:#4f3929;fill-opacity:0.6;"/><path d="M106.107,3.102l8.626,3.526l-0.876,9.189l0.915,9.72l-12.296,-0.564l-9.122,2.542l-2.034,-6.384l-10.082,-7.005l3.402,-9.358l5.367,-4.479l10.733,0.13l5.367,2.683Z" style="fill:#bdb097;"/><path d="M102.165,6.54l8.627,3.526l-0.877,9.188l0.916,9.721l-12.296,-0.564l-9.123,2.541l-2.034,-6.384l-10.081,-7.005l3.402,-9.357l5.367,-4.48l10.733,0.131l5.366,2.683Z" style="fill:#4f3929;fill-opacity:0.6;"/><path d="M21.641,31.717l-8.543,3.192l-8.637,7.001l7.699,7.955l6.215,1.686l4.098,5.503l7.41,-1.624l1.411,-9.773l2.455,-7.886l-6.25,-5.96l-5.858,-0.094Z" style="fill:#bdb097;"/><path d="M17.699,35.155l-8.543,3.191l-8.636,7.002l7.698,7.954l6.216,1.686l4.098,5.503l7.41,-1.623l1.411,-9.774l2.455,-7.885l-6.251,-5.961l-5.858,-0.093Z" style="fill:#4f3929;fill-opacity:0.6;"/><path d="M31.207,43.712l13.211,1.239l10.168,8.538l-3.294,7.013l-5.008,5.188l-15.077,-0.512l-8.504,4.253l-3.968,-8.75l0.46,-5.596l3.623,-4.834l8.389,-6.539Z" style="fill:#bdb097;"/><path d="M27.266,47.15l13.21,1.238l10.169,8.539l-3.294,7.013l-5.008,5.187l-15.077,-0.511l-8.505,4.252l-3.967,-8.749l0.459,-5.597l3.624,-4.834l8.389,-6.538Z" style="fill:#4f3929;fill-opacity:0.6;"/><path d="M99.019,69.982l14.326,-4.702l13.693,3.739l-4.164,7.103l-4.904,4.944l-16.117,3.846l-5.295,4.112l-3.906,-5.387l-13.114,0.013l-4.595,-4.898l1.686,-3.715l5.375,-2.567l3.456,0.478l13.559,-2.966" style="fill:#bdb097;"/><path d="M96.386,74.5l14.326,-4.702l13.693,3.74l-4.165,7.102l-4.903,4.945l-16.118,3.846l-5.294,4.112l-3.906,-5.387l-13.114,0.013l-4.595,-4.899l1.686,-3.715l5.375,-2.567l3.456,0.479l13.559,-2.967" style="fill:#4f3929;fill-opacity:0.6;"/><path d="M127.307,52.936l-4.035,4.826l-3.813,11.412l9.177,4.588l8.151,-4.808l5.366,-6.651l-10.733,-3.248l0,-2.182l-1.741,-2.314l-2.372,-1.623Z" style="fill:#bdb097;"/><path d="M123.365,56.374l-4.034,4.826l-3.194,9.545l4.611,1.8l7.816,-4.348l3.153,-5.006l-4.238,-0.699l0,-2.182l-1.741,-2.314l-2.373,-1.622Z" style="fill:#4f3929;fill-opacity:0.6;"/><path d="M99.344,67.281l-5.676,5.364l0,6.48l11.883,6.926l13.008,4.256l4.196,-7.083l0,-11.198l-23.411,-4.745Z" style="fill:#bdb097;"/><path d="M95.402,70.719l-5.675,5.364l0,6.48l13.24,6.274l8.034,1.349l3.873,-8.796l1.493,-7.61l-20.965,-3.061Z" style="fill:#4f3929;fill-opacity:0.6;"/></g><path d="M161.02,26.978l-13.21,1.239l-10.169,8.538l3.294,7.013l5.008,5.188l15.077,-0.511l8.505,4.252l3.967,-8.75l-0.459,-5.596l-3.624,-4.834l-8.389,-6.539Z" style="fill:#bdb097;"/><path d="M157.018,31.705l-13.211,1.238l-10.168,8.538l3.294,7.014l5.008,5.187l15.077,-0.511l8.504,4.252l3.968,-8.749l-0.46,-5.597l-3.623,-4.834l-8.389,-6.538Z" style="fill:#4f3929;fill-opacity:0.6;"/></g></g></svg>