<?xml version="1.0" encoding="UTF-8" standalone="no"?><!DOCTYPE svg PUBLIC "-//W3C//DTD SVG 1.1//EN" "http://www.w3.org/Graphics/SVG/1.1/DTD/svg11.dtd"><svg width="100%" height="100%" viewBox="0 0 178 107" version="1.1" xmlns="http://www.w3.org/2000/svg" xmlns:xlink="http://www.w3.org/1999/xlink" xml:space="preserve" xmlns:serif="http://www.serif.com/" style="fill-rule:evenodd;clip-rule:evenodd;stroke-linejoin:round;stroke-miterlimit:1.41421;"><g id="way22"><path d="M5.819,50.091l85.865,42.933l85.865,-42.933l-85.865,-42.932l-85.865,42.932Z" style="fill:#9f937d;"/><g><g><path d="M20.524,65.855l-8.162,-4.081l0.518,-8.196l9.044,-3.123l7.159,-4.979l10.548,-2.267l10.545,10.639l-4.089,8.688l-9.463,6.002l-16.1,-2.683Z" style="fill:#696452;"/><path d="M15.879,68.178l-8.162,-4.082l0.517,-8.196l9.045,-3.122l7.158,-4.979l10.548,-2.268l10.546,10.64l-4.09,8.688l-9.462,6.002l-16.1,-2.683Z" style="fill:#070607;fill-opacity:0.6;"/><path d="M99.719,11.862l-10.38,-0.764l-4.987,5.673l-3.402,6.512l4.382,3.404l10.208,1.088l10.316,1.612l7.688,1.598l-1.665,-4.761l2.816,-2.397l0.693,-4.709l-2.174,-2.474l-13.495,-4.782" style="fill:#696452;"/><path d="M95.074,14.184l-10.38,-0.763l-4.987,5.673l-3.402,6.512l4.381,3.403l10.209,1.089l10.316,1.611l7.688,1.599l-1.665,-4.761l2.816,-2.397l0.693,-4.709l-2.174,-2.475l-13.495,-4.782" style="fill:#070607;fill-opacity:0.6;"/><path d="M80.663,3.675l-8.626,3.526l0.876,9.188l-0.915,9.721l12.296,-0.565l9.122,2.542l2.035,-6.384l10.081,-7.005l-3.402,-9.357l-5.367,-4.48l-10.733,0.131l-5.367,2.683Z" style="fill:#696452;"/><path d="M76.018,5.997l-8.626,3.527l0.876,9.188l-0.915,9.721l12.295,-0.565l9.123,2.542l2.034,-6.384l10.081,-7.005l-3.402,-9.357l-5.366,-4.48l-10.733,0.13l-5.367,2.683Z" style="fill:#070607;fill-opacity:0.6;"/><path d="M160.711,37.386l8.543,3.191l8.636,7.002l-7.698,7.954l-6.216,1.686l-4.098,5.503l-7.41,-1.623l-1.41,-9.774l-2.455,-7.885l6.25,-5.961l5.858,-0.093Z" style="fill:#696452;"/><path d="M156.066,39.708l8.543,3.192l8.636,7.001l-7.698,7.955l-6.216,1.686l-4.098,5.503l-7.41,-1.624l-1.411,-9.773l-2.455,-7.886l6.251,-5.96l5.858,-0.094Z" style="fill:#070607;fill-opacity:0.6;"/><path d="M151.144,49.38l-13.21,1.239l-10.168,8.538l3.293,7.014l5.008,5.187l15.077,-0.511l8.505,4.252l3.967,-8.749l-0.459,-5.597l-3.624,-4.834l-8.389,-6.539Z" style="fill:#696452;"/><path d="M146.499,51.703l-13.21,1.239l-10.169,8.538l3.294,7.013l5.008,5.188l15.077,-0.512l8.505,4.253l3.967,-8.75l-0.46,-5.596l-3.623,-4.834l-8.389,-6.539Z" style="fill:#070607;fill-opacity:0.6;"/><path d="M106.648,73.668l-15.077,0.133l-11.775,7.927l6.219,5.395l6.229,3.114l16.5,-1.517l6.333,2.2l1.975,-6.354l12.428,-4.186l2.784,-6.112l-2.786,-2.98l-5.914,-0.711l-3.121,1.56l-13.795,1.531" style="fill:#696452;"/><path d="M102.003,75.991l-15.078,0.132l-11.774,7.927l6.219,5.395l6.229,3.115l16.5,-1.517l6.332,2.2l1.976,-6.354l12.428,-4.187l2.784,-6.112l-2.786,-2.979l-5.914,-0.711l-3.121,1.56l-13.795,1.531" style="fill:#070607;fill-opacity:0.6;"/><path d="M140.017,57.852c-1.868,0.205 -16.057,6.729 -16.057,6.729l-6.708,10.037l10.733,4.051l6.868,-5.06l9.232,-2.99c0,0 -2.201,-12.973 -4.068,-12.767Z" style="fill:#696452;"/><path d="M135.372,60.174c-1.868,0.206 -16.057,6.73 -16.057,6.73l-6.708,10.037l10.733,4.05l6.868,-5.059l9.232,-2.991c0,0 -2.201,-12.972 -4.068,-12.767Z" style="fill:#070607;fill-opacity:0.6;"/><path d="M98.826,83.041l8.114,8.245l0.779,11.123l-7.715,2.942l-12.603,-0.498l-7.551,-6.958l-4.782,-8.342l8.837,-3.206l8.82,-2.168l6.101,-1.138" style="fill:#696452;"/><path d="M96.559,83.874l8.115,8.245l0.779,11.123l-7.715,2.942l-12.603,-0.498l-7.551,-6.957l-4.782,-8.342l8.836,-3.207l8.821,-2.168l6.1,-1.138" style="fill:#070607;fill-opacity:0.6;"/><path d="M153.825,28.708l8.115,8.245l0.779,11.123l-7.715,2.942l-12.603,-0.498l-7.551,-6.957l-4.782,-8.343l8.836,-3.206l8.821,-2.168l6.1,-1.138" style="fill:#696452;"/><path d="M148.243,30.155l8.115,8.245l0.779,11.122l-7.715,2.943l-12.603,-0.499l-7.551,-6.957l-4.782,-8.342l8.836,-3.207l8.821,-2.168l6.1,-1.137" style="fill:#070607;fill-opacity:0.6;"/><path d="M140.253,22.132l4.035,4.826l3.813,11.412l-9.176,4.588l-8.151,-4.808l-5.367,-6.652l10.733,-3.248l0,-2.181l1.741,-2.315l2.372,-1.622Z" style="fill:#696452;"/><path d="M135.608,24.455l4.035,4.825l3.194,9.546l-4.611,1.799l-7.816,-4.348l-3.153,-5.005l4.238,-0.699l0,-2.182l1.741,-2.314l2.372,-1.622Z" style="fill:#070607;fill-opacity:0.6;"/><path d="M130.366,18.038l5.675,5.363l0,6.48l-11.882,6.926l-13.009,4.256l-4.196,-7.083l0,-11.198l23.412,-4.744Z" style="fill:#696452;"/><path d="M125.72,20.36l5.676,5.364l0,6.48l-13.24,6.274l-8.034,1.349l-3.873,-8.796l-1.494,-7.61l20.965,-3.061Z" style="fill:#070607;fill-opacity:0.6;"/></g><path d="M12.282,33.265l13.074,-2.259l12.048,5.582l-1.345,7.63l-3.477,6.317l-14.686,3.449l-7.097,6.329l-6.117,-7.408l-1.02,-5.521l2.233,-5.614l6.387,-8.505Z" style="fill:#696452;"/><path d="M9.364,36.494l13.074,-2.259l12.048,5.582l-1.345,7.63l-3.477,6.317l-14.686,3.449l-7.097,6.329l-6.117,-7.408l-1.02,-5.521l2.233,-5.614l6.387,-8.505Z" style="fill:#070607;fill-opacity:0.6;"/></g></g></svg>