<?xml version="1.0" encoding="UTF-8" standalone="no"?><!DOCTYPE svg PUBLIC "-//W3C//DTD SVG 1.1//EN" "http://www.w3.org/Graphics/SVG/1.1/DTD/svg11.dtd"><svg width="100%" height="100%" viewBox="0 0 176 106" version="1.1" xmlns="http://www.w3.org/2000/svg" xmlns:xlink="http://www.w3.org/1999/xlink" xml:space="preserve" xmlns:serif="http://www.serif.com/" style="fill-rule:evenodd;clip-rule:evenodd;stroke-linejoin:round;stroke-miterlimit:1.41421;"><g id="way06"><path d="M167.728,58.741l-51.511,-33.181l-35.018,-3.958l-79.835,34.551l59.033,29.516l32.199,-3.363l26.833,0.68l48.299,-24.245Z" style="fill:#9f937d;"/><g><g><path d="M147.326,38.636l8.163,4.081l-0.518,8.196l-9.044,3.123l-7.159,4.979l-10.548,2.267l-10.546,-10.639l4.09,-8.688l9.463,-6.002l16.099,2.683Z" style="fill:#696452;"/><path d="M146.67,43.794l8.163,4.081l-0.518,8.196l-9.044,3.122l-7.159,4.979l-10.548,2.268l-10.546,-10.639l4.09,-8.689l9.462,-6.002l16.1,2.684Z" style="fill:#202316;fill-opacity:0.6;"/><path d="M79.194,94.383l10.38,0.763l4.987,-5.673l3.402,-6.512l-4.382,-3.403l-10.208,-1.089l-10.316,-1.611l-7.688,-1.599l1.665,4.761l-2.816,2.397l-0.693,4.709l2.174,2.475l13.495,4.782" style="fill:#696452;"/><path d="M78.537,99.541l10.38,0.763l4.988,-5.673l3.401,-6.512l-4.381,-3.404l-10.208,-1.088l-10.317,-1.612l-7.687,-1.598l1.665,4.761l-2.816,2.397l-0.693,4.709l2.174,2.474l13.494,4.783" style="fill:#202316;fill-opacity:0.6;"/><path d="M102.668,97.474l8.627,-3.526l-0.877,-9.189l0.916,-9.72l-12.296,0.564l-9.123,-2.542l-2.034,6.384l-10.081,7.005l3.402,9.358l5.367,4.479l10.733,-0.13l5.366,-2.683Z" style="fill:#696452;"/><path d="M102.012,102.631l8.626,-3.526l-0.876,-9.188l0.915,-9.721l-12.295,0.565l-9.123,-2.542l-2.034,6.384l-10.081,7.005l3.402,9.357l5.366,4.48l10.733,-0.13l5.367,-2.684Z" style="fill:#202316;fill-opacity:0.6;"/><path d="M18.202,68.859l-8.543,-3.192l-8.636,-7.001l7.698,-7.955l6.216,-1.686l4.098,-5.503l7.41,1.624l1.411,9.773l2.455,7.886l-6.251,5.96l-5.858,0.094Z" style="fill:#696452;"/><path d="M17.546,74.017l-8.543,-3.192l-8.636,-7.002l7.698,-7.954l6.216,-1.686l4.098,-5.503l7.41,1.623l1.41,9.774l2.455,7.885l-6.25,5.961l-5.858,0.094Z" style="fill:#202316;fill-opacity:0.6;"/><path d="M27.769,56.864l13.21,-1.239l10.168,-8.538l-3.293,-7.013l-5.008,-5.188l-15.077,0.512l-8.505,-4.253l-3.967,8.75l0.459,5.596l3.624,4.834l8.389,6.539Z" style="fill:#696452;"/><path d="M27.113,62.022l13.21,-1.239l10.168,-8.538l-3.293,-7.014l-5.008,-5.187l-15.077,0.511l-8.505,-4.252l-3.967,8.749l0.459,5.597l3.624,4.834l8.389,6.539Z" style="fill:#202316;fill-opacity:0.6;"/><path d="M72.265,32.576l15.077,-0.132l11.775,-7.928l-6.219,-5.394l-6.229,-3.115l-16.5,1.517l-6.333,-2.2l-1.975,6.354l-12.428,4.187l-2.784,6.112l2.786,2.979l5.914,0.711l3.121,-1.56l13.795,-1.531" style="fill:#696452;"/><path d="M71.609,37.734l15.077,-0.133l11.775,-7.927l-6.219,-5.395l-6.229,-3.114l-16.5,1.517l-6.333,-2.2l-1.975,6.354l-12.428,4.186l-2.784,6.112l2.786,2.98l5.914,0.711l3.121,-1.56l13.795,-1.531" style="fill:#202316;fill-opacity:0.6;"/><path d="M38.896,48.393c1.868,-0.206 16.057,-6.73 16.057,-6.73l6.708,-10.037l-10.733,-4.05l-6.868,5.059l-9.232,2.991c0,0 2.201,12.972 4.068,12.767Z" style="fill:#696452;"/><path d="M38.24,53.55c1.867,-0.205 16.057,-6.729 16.057,-6.729l6.708,-10.037l-10.733,-4.051l-6.868,5.06l-9.232,2.99c0,0 2.201,12.973 4.068,12.767Z" style="fill:#202316;fill-opacity:0.6;"/><path d="M80.088,23.203l-8.115,-8.245l-0.779,-11.122l7.715,-2.943l12.603,0.498l7.551,6.958l4.782,8.342l-8.836,3.206l-8.821,2.168l-6.1,1.138" style="fill:#696452;"/><path d="M77.052,29.85l-8.114,-8.245l-0.779,-11.122l7.715,-2.943l12.602,0.498l7.552,6.958l4.781,8.342l-8.836,3.206l-8.82,2.169l-6.101,1.137" style="fill:#202316;fill-opacity:0.6;"/><path d="M123.868,47.64l-4.034,-4.826l-3.813,-11.412l9.176,-4.588l8.151,4.808l5.367,6.651l-10.733,3.248l0,2.182l-1.741,2.314l-2.373,1.623Z" style="fill:#696452;"/><path d="M123.212,52.797l-4.035,-4.825l-3.193,-9.546l4.611,-1.799l7.815,4.348l3.154,5.005l-4.238,0.699l0,2.182l-1.741,2.314l-2.373,1.622Z" style="fill:#202316;fill-opacity:0.6;"/><path d="M100.495,34.619l-5.676,-5.364l0,-6.48l11.883,-6.926l13.009,-4.255l4.196,7.083l0,11.197l-23.412,4.745Z" style="fill:#696452;"/><path d="M99.839,39.776l-5.676,-5.363l0,-6.481l13.24,-6.273l8.034,-1.35l3.873,8.797l1.494,7.609l-20.965,3.061Z" style="fill:#202316;fill-opacity:0.6;"/><path d="M162.91,68.634l-13.211,-1.239l-10.168,-8.538l3.294,-7.013l5.008,-5.187l15.077,0.511l8.504,-4.252l3.968,8.749l-0.46,5.596l-3.623,4.835l-8.389,6.538Z" style="fill:#696452;"/><path d="M162.193,72.503l-13.211,-1.238l-10.168,-8.539l3.293,-7.013l5.009,-5.187l15.077,0.511l8.504,-4.252l3.968,8.749l-0.46,5.596l-3.623,4.835l-8.389,6.538Z" style="fill:#202316;fill-opacity:0.6;"/></g></g></g></svg>