<?xml version="1.0" encoding="UTF-8" standalone="no"?><!DOCTYPE svg PUBLIC "-//W3C//DTD SVG 1.1//EN" "http://www.w3.org/Graphics/SVG/1.1/DTD/svg11.dtd"><svg width="100%" height="100%" viewBox="0 0 176 100" version="1.1" xmlns="http://www.w3.org/2000/svg" xmlns:xlink="http://www.w3.org/1999/xlink" xml:space="preserve" xmlns:serif="http://www.serif.com/" style="fill-rule:evenodd;clip-rule:evenodd;stroke-linejoin:round;stroke-miterlimit:1.41421;"><g id="way07"><path d="M167.909,53.259l-51.512,-33.181l-35.017,-3.957l-79.835,34.55l59.033,29.516l32.199,-3.363l26.833,0.68l48.299,-24.245Z" style="fill:#9f937d;"/><g><g><path d="M147.507,33.154l8.163,4.081l-0.518,8.196l-9.044,3.123l-7.159,4.979l-10.548,2.267l-10.546,-10.639l4.09,-8.688l9.463,-6.002l16.099,2.683Z" style="fill:#696452;"/><path d="M146.851,38.312l8.163,4.081l-0.518,8.196l-9.044,3.123l-7.159,4.979l-10.548,2.267l-10.546,-10.639l4.09,-8.689l9.462,-6.001l16.1,2.683Z" style="fill:#202316;fill-opacity:0.6;"/><path d="M79.375,88.901l10.38,0.763l4.987,-5.673l3.402,-6.512l-4.382,-3.403l-10.208,-1.089l-10.316,-1.611l-7.688,-1.599l1.665,4.761l-2.816,2.397l-0.693,4.709l2.174,2.475l13.495,4.782" style="fill:#696452;"/><path d="M78.718,94.059l10.38,0.763l4.988,-5.673l3.401,-6.512l-4.381,-3.404l-10.208,-1.088l-10.317,-1.611l-7.687,-1.599l1.665,4.761l-2.816,2.397l-0.693,4.709l2.174,2.474l13.494,4.783" style="fill:#202316;fill-opacity:0.6;"/><path d="M102.849,91.992l8.627,-3.526l-0.877,-9.188l0.916,-9.721l-12.296,0.564l-9.123,-2.541l-2.034,6.383l-10.081,7.006l3.402,9.357l5.366,4.479l10.734,-0.13l5.366,-2.683Z" style="fill:#696452;"/><path d="M102.193,97.15l8.626,-3.527l-0.876,-9.188l0.915,-9.72l-12.295,0.564l-9.123,-2.542l-2.034,6.384l-10.081,7.005l3.402,9.357l5.366,4.48l10.733,-0.13l5.367,-2.683Z" style="fill:#202316;fill-opacity:0.6;"/><path d="M18.383,63.377l-8.543,-3.192l-8.636,-7.001l7.698,-7.955l6.216,-1.686l4.098,-5.503l7.41,1.624l1.41,9.773l2.456,7.886l-6.251,5.96l-5.858,0.094Z" style="fill:#696452;"/><path d="M17.727,68.535l-8.543,-3.192l-8.636,-7.002l7.698,-7.954l6.216,-1.686l4.098,-5.503l7.41,1.624l1.41,9.773l2.455,7.886l-6.25,5.96l-5.858,0.094Z" style="fill:#202316;fill-opacity:0.6;"/><path d="M27.95,51.382l13.21,-1.239l10.168,-8.538l-3.293,-7.013l-5.008,-5.187l-15.077,0.511l-8.505,-4.252l-3.967,8.749l0.459,5.596l3.624,4.834l8.389,6.539Z" style="fill:#696452;"/><path d="M27.294,56.54l13.21,-1.239l10.168,-8.538l-3.293,-7.013l-5.008,-5.188l-15.077,0.512l-8.505,-4.253l-3.967,8.75l0.459,5.596l3.624,4.834l8.389,6.539Z" style="fill:#202316;fill-opacity:0.6;"/><path d="M83.783,22.83l-8.114,-8.245l-0.779,-11.122l7.715,-2.943l12.603,0.499l7.551,6.957l4.782,8.342l-8.837,3.207l-8.82,2.168l-6.101,1.137" style="fill:#696452;"/><path d="M80.748,29.477l-8.114,-8.245l-0.779,-11.122l7.715,-2.943l12.602,0.499l7.551,6.957l4.782,8.342l-8.836,3.207l-8.82,2.168l-6.101,1.137" style="fill:#202316;fill-opacity:0.6;"/><path d="M124.049,42.158l-4.035,-4.826l-3.812,-11.412l9.176,-4.588l8.151,4.808l5.367,6.652l-10.733,3.248l0,2.181l-1.741,2.315l-2.373,1.622Z" style="fill:#696452;"/><path d="M123.393,47.316l-4.035,-4.826l-3.194,-9.546l4.612,-1.799l7.815,4.348l3.154,5.005l-4.239,0.699l0,2.182l-1.741,2.314l-2.372,1.623Z" style="fill:#202316;fill-opacity:0.6;"/><path d="M100.676,29.137l-5.676,-5.364l0,-6.48l11.883,-6.926l13.009,-4.255l4.196,7.083l0,11.197l-23.412,4.745Z" style="fill:#696452;"/><path d="M100.02,34.295l-5.676,-5.364l0,-6.48l13.24,-6.274l8.034,-1.35l3.873,8.797l1.494,7.61l-20.965,3.061Z" style="fill:#202316;fill-opacity:0.6;"/><path d="M163.091,63.152l-13.211,-1.238l-10.168,-8.538l3.294,-7.014l5.008,-5.187l15.077,0.511l8.504,-4.252l3.968,8.749l-0.46,5.597l-3.623,4.834l-8.389,6.538Z" style="fill:#696452;"/><path d="M162.374,67.021l-13.211,-1.238l-10.168,-8.538l3.293,-7.014l5.008,-5.187l15.078,0.511l8.504,-4.252l3.968,8.749l-0.46,5.597l-3.623,4.834l-8.389,6.538Z" style="fill:#202316;fill-opacity:0.6;"/></g></g></g></svg>