<?xml version="1.0" encoding="UTF-8" standalone="no"?><!DOCTYPE svg PUBLIC "-//W3C//DTD SVG 1.1//EN" "http://www.w3.org/Graphics/SVG/1.1/DTD/svg11.dtd"><svg width="100%" height="100%" viewBox="0 0 173 93" version="1.1" xmlns="http://www.w3.org/2000/svg" xmlns:xlink="http://www.w3.org/1999/xlink" xml:space="preserve" xmlns:serif="http://www.serif.com/" style="fill-rule:evenodd;clip-rule:evenodd;stroke-linejoin:round;stroke-miterlimit:1.41421;"><g id="way05"><path d="M5.81,41.464l51.512,33.181l35.017,3.958l79.835,-34.551l-59.032,-29.516l-32.2,3.364l-26.833,-0.681l-48.299,24.245Z" style="fill:#84775b;"/><g><g><path d="M25.87,61.74l-8.162,-4.081l0.517,-8.196l9.045,-3.123l7.158,-4.979l10.548,-2.267l10.546,10.639l-4.09,8.689l-9.462,6.001l-16.1,-2.683Z" style="fill:#a3bac5;"/><path d="M22.812,64.178l-8.163,-4.081l0.518,-8.197l9.044,-3.122l7.159,-4.979l10.548,-2.267l10.545,10.639l-4.089,8.688l-9.463,6.002l-16.099,-2.683Z" style="fill:#273f4b;fill-opacity:0.6;"/><path d="M94.003,5.993l-10.38,-0.763l-4.988,5.673l-3.401,6.512l4.381,3.404l10.209,1.088l10.316,1.611l7.687,1.599l-1.665,-4.761l2.816,-2.397l0.694,-4.709l-2.174,-2.474l-13.495,-4.783" style="fill:#a3bac5;"/><path d="M90.944,8.431l-10.38,-0.763l-4.987,5.672l-3.402,6.512l4.381,3.404l10.209,1.088l10.316,1.612l7.688,1.599l-1.665,-4.762l2.816,-2.396l0.693,-4.709l-2.174,-2.475l-13.495,-4.782" style="fill:#273f4b;fill-opacity:0.6;"/><path d="M70.528,2.902l-8.626,3.527l0.876,9.188l-0.915,9.72l12.296,-0.564l9.122,2.542l2.034,-6.384l10.081,-7.005l-3.402,-9.357l-5.366,-4.48l-10.733,0.13l-5.367,2.683Z" style="fill:#a3bac5;"/><path d="M67.47,5.34l-8.627,3.526l0.876,9.188l-0.915,9.721l12.296,-0.564l9.122,2.541l2.035,-6.384l10.081,-7.005l-3.402,-9.357l-5.367,-4.479l-10.733,0.13l-5.366,2.683Z" style="fill:#273f4b;fill-opacity:0.6;"/><path d="M154.994,31.517l8.543,3.192l8.637,7.002l-7.699,7.954l-6.215,1.686l-4.099,5.503l-7.409,-1.624l-1.411,-9.773l-2.455,-7.886l6.25,-5.96l5.858,-0.094Z" style="fill:#a3bac5;"/><path d="M151.936,33.955l8.543,3.192l8.636,7.001l-7.698,7.954l-6.216,1.686l-4.098,5.504l-7.41,-1.624l-1.411,-9.774l-2.455,-7.885l6.251,-5.961l5.858,-0.093Z" style="fill:#273f4b;fill-opacity:0.6;"/><path d="M145.428,43.512l-13.211,1.239l-10.168,8.538l3.294,7.013l5.008,5.188l15.077,-0.512l8.504,4.253l3.968,-8.75l-0.46,-5.596l-3.623,-4.834l-8.389,-6.539Z" style="fill:#a3bac5;"/><path d="M142.369,45.95l-13.21,1.238l-10.169,8.539l3.294,7.013l5.008,5.187l15.077,-0.511l8.505,4.252l3.967,-8.749l-0.46,-5.596l-3.623,-4.835l-8.389,-6.538Z" style="fill:#273f4b;fill-opacity:0.6;"/><path d="M77.616,69.782l-14.326,-4.702l-13.693,3.74l4.164,7.102l4.904,4.944l16.117,3.846l5.295,4.112l3.905,-5.387l13.115,0.013l4.594,-4.898l-1.685,-3.715l-5.375,-2.567l-3.456,0.479l-13.559,-2.967" style="fill:#a3bac5;"/><path d="M73.249,73.301l-14.326,-4.703l-13.693,3.74l4.165,7.102l4.903,4.945l16.117,3.846l5.295,4.112l3.906,-5.387l13.114,0.013l4.595,-4.899l-1.686,-3.714l-5.375,-2.568l-3.456,0.479l-13.559,-2.966" style="fill:#273f4b;fill-opacity:0.6;"/><path d="M49.328,52.736l4.035,4.826l3.812,11.412l-9.176,4.588l-8.151,-4.808l-5.366,-6.651l10.733,-3.248l0,-2.182l1.741,-2.314l2.372,-1.623Z" style="fill:#a3bac5;"/><path d="M43.513,56.457l4.035,4.826l3.194,9.546l-4.612,1.799l-7.815,-4.348l-3.154,-5.006l4.239,-0.699l0,-2.181l1.741,-2.315l2.372,-1.622Z" style="fill:#273f4b;fill-opacity:0.6;"/><path d="M77.291,67.082l5.676,5.363l0,6.481l-11.883,6.925l-13.009,4.256l-4.196,-7.083l0,-11.198l23.412,-4.744Z" style="fill:#a3bac5;"/><path d="M74.233,69.519l5.675,5.364l0,6.48l-13.24,6.274l-8.034,1.349l-3.873,-8.796l-1.494,-7.61l20.966,-3.061Z" style="fill:#273f4b;fill-opacity:0.6;"/><path d="M15.615,26.778l13.21,1.239l10.168,8.538l-3.293,7.014l-5.008,5.187l-15.077,-0.511l-8.505,4.252l-3.967,-8.749l0.459,-5.597l3.624,-4.834l8.389,-6.539Z" style="fill:#a3bac5;"/><path d="M12.617,30.505l13.211,1.238l10.168,8.539l-3.294,7.013l-5.008,5.187l-15.077,-0.511l-8.504,4.252l-3.968,-8.749l0.46,-5.597l3.623,-4.834l8.389,-6.538Z" style="fill:#273f4b;fill-opacity:0.6;"/></g></g></g></svg>