<?xml version="1.0" encoding="UTF-8" standalone="no"?><!DOCTYPE svg PUBLIC "-//W3C//DTD SVG 1.1//EN" "http://www.w3.org/Graphics/SVG/1.1/DTD/svg11.dtd"><svg width="100%" height="100%" viewBox="0 0 179 102" version="1.1" xmlns="http://www.w3.org/2000/svg" xmlns:xlink="http://www.w3.org/1999/xlink" xml:space="preserve" xmlns:serif="http://www.serif.com/" style="fill-rule:evenodd;clip-rule:evenodd;stroke-linejoin:round;stroke-miterlimit:1.41421;"><g id="way17"><g><g><path d="M150.774,62.174l8.163,-4.081l-0.518,-8.196l-9.044,-3.123l-7.159,-4.978l-10.548,-2.268l-10.546,10.639l4.09,8.689l9.462,6.002l16.1,-2.684Z" style="fill:#a3bac5;"/><path d="M146.833,65.612l8.162,-4.081l-0.518,-8.196l-9.044,-3.123l-7.158,-4.979l-10.549,-2.267l-10.545,10.639l4.09,8.688l9.462,6.002l16.1,-2.683Z" style="fill:#273f4b;fill-opacity:0.6;"/><path d="M82.641,6.427l10.38,-0.763l4.988,5.673l3.401,6.512l-4.381,3.404l-10.208,1.088l-10.317,1.612l-7.687,1.598l1.665,-4.761l-2.816,-2.397l-0.693,-4.709l2.174,-2.474l13.494,-4.783" style="fill:#a3bac5;"/><path d="M78.7,9.865l10.38,-0.763l4.988,5.673l3.401,6.512l-4.381,3.403l-10.209,1.089l-10.316,1.611l-7.687,1.599l1.664,-4.761l-2.815,-2.397l-0.694,-4.709l2.174,-2.475l13.495,-4.782" style="fill:#273f4b;fill-opacity:0.6;"/><path d="M106.116,3.337l8.626,3.526l-0.876,9.188l0.915,9.721l-12.295,-0.565l-9.123,2.542l-2.034,-6.384l-10.081,-7.005l3.402,-9.357l5.366,-4.48l10.733,0.13l5.367,2.684Z" style="fill:#a3bac5;"/><path d="M102.175,6.774l8.626,3.526l-0.876,9.189l0.915,9.72l-12.296,-0.564l-9.122,2.541l-2.035,-6.383l-10.081,-7.005l3.402,-9.358l5.367,-4.479l10.733,0.13l5.367,2.683Z" style="fill:#273f4b;fill-opacity:0.6;"/><path d="M21.65,31.951l-8.543,3.192l-8.636,7.002l7.698,7.954l6.216,1.686l4.098,5.503l7.41,-1.623l1.41,-9.774l2.455,-7.885l-6.25,-5.961l-5.858,-0.094Z" style="fill:#a3bac5;"/><path d="M17.709,35.389l-8.543,3.192l-8.637,7.001l7.698,7.955l6.216,1.686l4.098,5.503l7.41,-1.624l1.411,-9.773l2.455,-7.886l-6.25,-5.96l-5.858,-0.094Z" style="fill:#273f4b;fill-opacity:0.6;"/><path d="M31.217,43.946l13.21,1.239l10.168,8.538l-3.293,7.014l-5.008,5.187l-15.077,-0.511l-8.505,4.252l-3.967,-8.749l0.459,-5.597l3.624,-4.834l8.389,-6.539Z" style="fill:#a3bac5;"/><path d="M27.275,47.384l13.211,1.239l10.168,8.538l-3.294,7.013l-5.008,5.188l-15.077,-0.512l-8.504,4.253l-3.968,-8.75l0.46,-5.596l3.623,-4.834l8.389,-6.539Z" style="fill:#273f4b;fill-opacity:0.6;"/><path d="M75.713,68.234l15.077,0.133l11.775,7.927l-6.219,5.395l-6.229,3.114l-16.5,-1.517l-6.333,2.2l-1.975,-6.354l-12.428,-4.186l-2.784,-6.112l2.786,-2.98l5.914,-0.711l3.121,1.56l13.795,1.531" style="fill:#a3bac5;"/><path d="M71.771,71.672l15.078,0.132l11.775,7.927l-6.22,5.395l-6.228,3.115l-16.501,-1.517l-6.332,2.2l-1.975,-6.354l-12.428,-4.187l-2.785,-6.112l2.786,-2.979l5.915,-0.711l3.12,1.56l13.795,1.531" style="fill:#273f4b;fill-opacity:0.6;"/><path d="M42.344,52.418c1.867,0.205 16.057,6.729 16.057,6.729l6.708,10.037l-10.733,4.051l-6.868,-5.06l-9.232,-2.99c0,0 2.201,-12.973 4.068,-12.767Z" style="fill:#a3bac5;"/><path d="M38.403,55.855c1.867,0.206 16.056,6.73 16.056,6.73l6.708,10.037l-10.733,4.05l-6.867,-5.059l-9.232,-2.991c0,0 2.2,-12.972 4.068,-12.767Z" style="fill:#273f4b;fill-opacity:0.6;"/><path d="M83.535,77.607l-8.114,8.245l-0.779,11.123l7.715,2.942l12.603,-0.498l7.551,-6.958l4.782,-8.342l-8.837,-3.206l-8.82,-2.168l-6.101,-1.138" style="fill:#a3bac5;"/><path d="M77.215,79.555l-8.114,8.245l-0.779,11.123l7.714,2.942l12.603,-0.498l7.551,-6.957l4.782,-8.343l-8.836,-3.206l-8.821,-2.168l-6.1,-1.138" style="fill:#273f4b;fill-opacity:0.6;"/><path d="M127.316,53.17l-4.035,4.826l-3.812,11.412l9.176,4.588l8.151,-4.808l5.367,-6.651l-10.734,-3.248l0,-2.182l-1.741,-2.314l-2.372,-1.623Z" style="fill:#a3bac5;"/><path d="M123.375,56.608l-4.035,4.826l-3.194,9.546l4.611,1.799l7.816,-4.348l3.153,-5.006l-4.238,-0.699l0,-2.181l-1.741,-2.315l-2.372,-1.622Z" style="fill:#273f4b;fill-opacity:0.6;"/><path d="M103.943,66.192l-5.676,5.363l0,6.481l11.883,6.925l13.008,4.256l4.196,-7.083l0,-11.198l-23.411,-4.744Z" style="fill:#a3bac5;"/><path d="M100.001,69.629l-5.675,5.364l0,6.48l13.24,6.274l8.034,1.349l3.873,-8.796l1.493,-7.61l-20.965,-3.061Z" style="fill:#273f4b;fill-opacity:0.6;"/></g><path d="M166.358,32.176l-13.211,1.239l-10.168,8.538l3.294,7.013l5.008,5.188l15.077,-0.512l8.504,4.253l3.968,-8.75l-0.46,-5.596l-3.623,-4.834l-8.389,-6.539Z" style="fill:#a3bac5;"/><path d="M162.355,36.902l-13.21,1.239l-10.169,8.538l3.294,7.014l5.008,5.187l15.077,-0.511l8.505,4.252l3.967,-8.749l-0.459,-5.597l-3.624,-4.834l-8.389,-6.539Z" style="fill:#273f4b;fill-opacity:0.6;"/></g></g></svg>