<?xml version="1.0" encoding="UTF-8" standalone="no"?><!DOCTYPE svg PUBLIC "-//W3C//DTD SVG 1.1//EN" "http://www.w3.org/Graphics/SVG/1.1/DTD/svg11.dtd"><svg width="100%" height="100%" viewBox="0 0 176 92" version="1.1" xmlns="http://www.w3.org/2000/svg" xmlns:xlink="http://www.w3.org/1999/xlink" xml:space="preserve" xmlns:serif="http://www.serif.com/" style="fill-rule:evenodd;clip-rule:evenodd;stroke-linejoin:round;stroke-miterlimit:1.41421;"><g id="way10"><g><path d="M38.388,47.64l-8.163,-4.081l0.518,-8.196l9.044,-3.123l7.159,-4.979l10.548,-2.267l10.546,10.639l-4.09,8.688l-9.462,6.002l-16.1,-2.683Z" style="fill:#a3bac5;"/><path d="M34.385,52.366l-8.162,-4.081l0.517,-8.196l9.045,-3.123l7.158,-4.979l10.549,-2.267l10.545,10.639l-4.09,8.688l-9.462,6.002l-16.1,-2.683Z" style="fill:#273f4b;fill-opacity:0.6;"/><path d="M103.393,23.781l-14.135,-0.172l-9.298,2.591l-3.036,-1.518l-3.766,-1.883l2.821,-3.956l2.545,-4.094l6.616,-0.486l4.118,-2.059l5.366,-0.138l12.169,0.718l0.532,2.273l-0.175,6.846l-3.757,1.878Z" style="fill:#a3bac5;"/><path d="M99.39,28.508l-14.135,-0.173l-9.298,2.591l-3.035,-1.517l-3.767,-1.884l2.822,-3.955l2.545,-4.094l6.616,-0.487l4.117,-2.059l5.367,-0.138l12.168,0.718l0.532,2.274l-0.174,6.845l-3.758,1.879Z" style="fill:#273f4b;fill-opacity:0.6;"/><path d="M108.568,0.9l-10.38,-0.764l-4.988,5.673l-3.401,6.512l4.381,3.404l10.208,1.088l10.317,1.612l7.687,1.598l-1.665,-4.761l2.816,-2.397l0.693,-4.709l-2.173,-2.474l-13.495,-4.782" style="fill:#a3bac5;"/><path d="M104.565,5.626l-10.38,-0.763l-4.987,5.672l-3.402,6.513l4.381,3.403l10.209,1.088l10.316,1.612l7.688,1.599l-1.665,-4.762l2.816,-2.396l0.693,-4.709l-2.174,-2.475l-13.495,-4.782" style="fill:#273f4b;fill-opacity:0.6;"/><path d="M66.356,19.323l-8.626,3.527l0.876,9.188l-0.915,9.721l12.295,-0.565l9.123,2.542l2.034,-6.384l10.081,-7.005l-3.402,-9.357l-5.366,-4.48l-10.733,0.13l-5.367,2.683Z" style="fill:#a3bac5;"/><path d="M62.354,24.05l-8.627,3.526l0.876,9.188l-0.915,9.721l12.296,-0.565l9.122,2.542l2.035,-6.384l10.081,-7.005l-3.402,-9.357l-5.367,-4.48l-10.733,0.13l-5.366,2.684Z" style="fill:#273f4b;fill-opacity:0.6;"/><path d="M157.943,22.237l8.543,3.192l8.637,7.001l-7.699,7.955l-6.216,1.686l-4.098,5.503l-7.409,-1.624l-1.411,-9.773l-2.455,-7.886l6.25,-5.96l5.858,-0.094Z" style="fill:#a3bac5;"/><path d="M153.941,26.963l8.542,3.192l8.637,7.001l-7.698,7.955l-6.216,1.686l-4.098,5.503l-7.41,-1.624l-1.411,-9.773l-2.455,-7.886l6.251,-5.96l5.858,-0.094Z" style="fill:#273f4b;fill-opacity:0.6;"/><path d="M148.377,34.232l-13.211,1.239l-10.168,8.538l3.293,7.013l5.008,5.187l15.078,-0.511l8.504,4.252l3.968,-8.749l-0.46,-5.596l-3.623,-4.834l-8.389,-6.539Z" style="fill:#a3bac5;"/><path d="M144.374,38.958l-13.21,1.239l-10.169,8.538l3.294,7.013l5.008,5.188l15.077,-0.512l8.505,4.253l3.967,-8.75l-0.46,-5.596l-3.623,-4.834l-8.389,-6.539Z" style="fill:#273f4b;fill-opacity:0.6;"/><path d="M103.88,58.52l-15.077,0.132l-11.775,7.927l6.219,5.395l6.229,3.114l16.5,-1.517l6.333,2.201l1.975,-6.354l12.428,-4.187l2.784,-6.112l-2.786,-2.979l-5.914,-0.711l-3.121,1.56l-13.795,1.531" style="fill:#a3bac5;"/><path d="M99.878,63.246l-15.078,0.132l-11.774,7.928l6.219,5.394l6.229,3.115l16.5,-1.517l6.332,2.2l1.975,-6.354l12.428,-4.187l2.785,-6.112l-2.786,-2.979l-5.915,-0.711l-3.12,1.56l-13.795,1.531" style="fill:#273f4b;fill-opacity:0.6;"/><path d="M137.249,42.703c-1.867,0.206 -16.056,6.73 -16.056,6.73l-6.709,10.036l10.733,4.051l6.868,-5.059l9.232,-2.991c0,0 -2.2,-12.972 -4.068,-12.767Z" style="fill:#a3bac5;"/><path d="M133.247,47.429c-1.868,0.206 -16.057,6.73 -16.057,6.73l-6.708,10.037l10.733,4.05l6.868,-5.059l9.232,-2.99c0,0 -2.201,-12.973 -4.068,-12.768Z" style="fill:#273f4b;fill-opacity:0.6;"/><path d="M30.916,37.068l8.115,8.245l0.779,11.122l-7.715,2.943l-12.603,-0.498l-7.551,-6.958l-4.782,-8.342l8.836,-3.206l8.821,-2.169l6.1,-1.137" style="fill:#a3bac5;"/><path d="M26.914,41.794l8.114,8.245l0.779,11.123l-7.714,2.942l-12.603,-0.498l-7.551,-6.958l-4.782,-8.342l8.836,-3.206l8.82,-2.168l6.101,-1.138" style="fill:#273f4b;fill-opacity:0.6;"/><path d="M15.511,44.771l4.035,4.826l3.812,11.411l-9.176,4.589l-8.151,-4.809l-5.367,-6.651l10.734,-3.248l0,-2.182l1.741,-2.314l2.372,-1.622Z" style="fill:#a3bac5;"/><path d="M11.508,49.497l4.035,4.826l3.194,9.546l-4.611,1.799l-7.816,-4.348l-3.153,-5.006l4.238,-0.699l0,-2.182l1.741,-2.314l2.372,-1.622Z" style="fill:#273f4b;fill-opacity:0.6;"/><path d="M82.026,66.885l5.676,5.364l0,6.48l-11.883,6.926l-13.009,4.256l-4.196,-7.083l0,-11.198l23.412,-4.745Z" style="fill:#a3bac5;"/><path d="M78.024,71.612l5.675,5.364l0,6.48l-13.24,6.273l-8.034,1.35l-3.873,-8.797l-1.494,-7.609l20.966,-3.061Z" style="fill:#273f4b;fill-opacity:0.6;"/></g></g></svg>