<?xml version="1.0" encoding="UTF-8" standalone="no"?><!DOCTYPE svg PUBLIC "-//W3C//DTD SVG 1.1//EN" "http://www.w3.org/Graphics/SVG/1.1/DTD/svg11.dtd"><svg width="100%" height="100%" viewBox="0 0 167 94" version="1.1" xmlns="http://www.w3.org/2000/svg" xmlns:xlink="http://www.w3.org/1999/xlink" xml:space="preserve" xmlns:serif="http://www.serif.com/" style="fill-rule:evenodd;clip-rule:evenodd;stroke-linejoin:round;stroke-miterlimit:1.41421;"><g id="way19"><g><g><path d="M73.552,82.404l9.679,0.741l4.65,-5.508l3.172,-6.322l-4.085,-3.304l-9.519,-1.057l-9.62,-1.564l-7.168,-1.552l1.553,4.622l-2.626,2.327l-0.646,4.572l2.027,2.402l12.583,4.643" style="fill:#a3bac5;"/><path d="M72.94,87.411l9.679,0.741l4.65,-5.507l3.172,-6.322l-4.085,-3.305l-9.519,-1.056l-9.619,-1.565l-7.169,-1.552l1.553,4.622l-2.626,2.327l-0.646,4.572l2.027,2.402l12.583,4.643" style="fill:#273f4b;fill-opacity:0.6;"/><path d="M95.441,85.405l8.043,-3.424l-0.817,-8.92l0.854,-9.437l-11.465,0.548l-8.507,-2.468l-1.897,6.198l-9.4,6.801l3.172,9.084l5.004,4.349l10.009,-0.126l5.004,-2.605Z" style="fill:#a3bac5;"/><path d="M94.829,90.412l8.043,-3.423l-0.817,-8.921l0.854,-9.437l-11.465,0.548l-8.507,-2.467l-1.896,6.197l-9.4,6.801l3.172,9.084l5.004,4.349l10.008,-0.126l5.004,-2.605Z" style="fill:#273f4b;fill-opacity:0.6;"/><path d="M16.681,57.624l-7.966,-3.098l-8.053,-6.798l7.178,-7.722l5.796,-1.637l3.821,-5.342l6.909,1.576l1.316,9.488l2.289,7.656l-5.828,5.786l-5.462,0.091Z" style="fill:#a3bac5;"/><path d="M16.069,62.632l-7.966,-3.099l-8.053,-6.797l7.178,-7.723l5.796,-1.637l3.821,-5.342l6.91,1.576l1.315,9.489l2.289,7.655l-5.828,5.787l-5.462,0.091Z" style="fill:#273f4b;fill-opacity:0.6;"/><path d="M26.34,50.354l12.318,-1.202l9.482,-8.289l-3.071,-6.809l-4.67,-5.036l-14.059,0.496l-7.93,-4.128l-3.699,8.494l0.428,5.433l3.379,4.693l7.822,6.348Z" style="fill:#a3bac5;"/><path d="M25.728,55.362l12.318,-1.203l9.482,-8.289l-3.071,-6.809l-4.67,-5.036l-14.059,0.496l-7.93,-4.128l-3.699,8.494l0.429,5.434l3.378,4.693l7.822,6.348Z" style="fill:#273f4b;fill-opacity:0.6;"/><path d="M71.566,23.083l-7.566,-8.004l-0.726,-10.798l7.193,-2.857l11.751,0.484l7.041,6.754l4.459,8.099l-8.239,3.113l-8.225,2.105l-5.688,1.104" style="fill:#a3bac5;"/><path d="M68.736,29.537l-7.566,-8.005l-0.727,-10.798l7.194,-2.857l11.751,0.484l7.041,6.755l4.459,8.098l-8.239,3.113l-8.225,2.105l-5.688,1.105" style="fill:#273f4b;fill-opacity:0.6;"/><path d="M84.61,23.161l-5.292,-5.208l0,-6.291l11.08,-6.724l12.13,-4.131l3.913,6.876l0,10.871l-21.831,4.607Z" style="fill:#a3bac5;"/><path d="M83.998,28.168l-5.292,-5.208l0,-6.291l12.346,-6.09l7.491,-1.311l3.612,8.541l1.392,7.387l-19.549,2.972Z" style="fill:#273f4b;fill-opacity:0.6;"/><path d="M155.113,56.742l-11.97,-1.077l-9.213,-7.424l2.984,-6.099l4.538,-4.511l13.661,0.445l7.706,-3.698l3.594,7.609l-0.416,4.866l-3.283,4.204l-7.601,5.685Z" style="fill:#a3bac5;"/><path d="M154.463,60.107l-11.969,-1.077l-9.214,-7.425l2.985,-6.099l4.537,-4.51l13.661,0.444l7.706,-3.697l3.594,7.608l-0.416,4.866l-3.283,4.204l-7.601,5.686Z" style="fill:#273f4b;fill-opacity:0.6;"/></g></g></g></svg>